<?xml version="1.0" standalone="no"?>
<!DOCTYPE svg PUBLIC "-//W3C//DTD SVG 1.1//EN" "http://www.w3.org/Graphics/SVG/1.1/DTD/svg11.dtd" >
<svg xmlns="http://www.w3.org/2000/svg">
<metadata></metadata>
<defs>
<font id="inkcaliglight" horiz-adv-x="722" >
<font-face units-per-em="2048" ascent="1479" descent="-569" />
<missing-glyph horiz-adv-x="665" />
<glyph horiz-adv-x="0" />
<glyph horiz-adv-x="682" />
<glyph unicode=" "  horiz-adv-x="665" />
<glyph unicode="&#x09;" horiz-adv-x="665" />
<glyph unicode="&#xa0;" horiz-adv-x="665" />
<glyph unicode="!" horiz-adv-x="221" d="M39 39l80 41q17 -40 65 -88l-69 -33q-36 46 -76 80zM78 166q8 54 8 78q0 78 8 224.5t8 225.5q0 36 1 118t1 118q0 20 -1 62t-1 63l80 61q-4 -43 -4 -133q0 -37 -4 -109t-4 -108q0 -80 -10 -239.5t-10 -239.5v-70z" />
<glyph unicode="&#x22;" horiz-adv-x="456" d="M20 850q101 94 101 151q0 15 -4 21q-5 11 -12.5 19t-19 16.5t-15.5 11.5l80 41q34 -60 34 -92q0 -13 -2 -17q-4 -17 -23 -41t-41.5 -46.5t-25.5 -26.5zM246 846q102 90 102 149q0 11 -4 23q-4 8 -10.5 15.5t-11 11t-14.5 10.5t-13 10l82 39q35 -61 35 -92q0 -2 -1 -8 t-1 -9q-4 -16 -22.5 -40t-43 -47.5t-25.5 -24.5z" />
<glyph unicode="#" horiz-adv-x="720" d="M41 371l74 69q60 -8 102 -8q0 63 4 203v47q-108 -7 -180 -20l76 67q6 -1 104 -8q2 193 2 240q0 65 -2 98l80 67q-4 -51 -4 -153q-1 -42 -4 -126t-4 -126q12 0 82 -4q27 0 141 8q2 182 2 227q0 66 -4 99l82 65q0 -2 -6 -151q0 -36 -1 -75t-2.5 -86t-2.5 -73q102 7 139 4 l-68 -63q-12 1 -36.5 2t-36.5 2q-10 -203 -11 -236q124 8 150 6l-68 -63q-30 0 -84 4q-4 -81 -8 -235v-82l-72 -60q10 80 11 90q6 99 10 289q-18 2 -53 2q-74 4 -117 4h-62q-4 -81 -8 -235v-82l-69 -58q1 14 4 43.5t4 45.5q6 98 10 282q-104 -7 -174 -20zM276 432 q13 0 95 -4q23 0 137 8q0 30 1 93.5t1 97.5q2 16 2 51q-20 2 -57 2q-86 7 -168 4q-10 -210 -11 -252z" />
<glyph unicode="$" horiz-adv-x="714" d="M31 315q16 5 90 60q5 -46 10 -74t20 -64.5t39 -62.5q51 -51 146 -61q1 11 12 424q-98 50 -143 81q-3 2 -27.5 21t-31 24.5t-25 23t-26.5 28.5t-17 28.5t-12 34.5q-3 9 -3 19q0 41 32 75.5t77 55.5q80 38 180 57q-1 11 -2 35t-2 35l80 71q-2 -43 -2 -131q23 2 57 2 q103 0 158 -61q27 -31 27 -66q0 -14 -9 -59q-5 -2 -114 -43q-2 4 10 17.5t26 31.5t17 31v10q0 46 -70 78q-45 22 -104 25q0 -89 -8 -265l-4 -137q9 -4 39.5 -16.5t44 -19t37.5 -18t43 -24.5t36 -28q35 -28 60.5 -67.5t25.5 -76.5q0 -16 -4 -26q-23 -68 -127 -133 q-94 -61 -172 -76q-1 -8 -1 -17.5t0.5 -21t0.5 -17.5l-71 -61l8 94q-105 1 -192.5 80.5t-108.5 183.5zM133 815q0 -8 2 -12q4 -23 20 -46.5t31.5 -38.5t42 -38t37.5 -33q39 -36 82 -57v18q2 88 2 291q2 20 2 59q-33 -4 -86 -20q-49 -16 -91 -50t-42 -73zM395 111q28 0 74 4 q56 4 117 78q32 43 32 92q0 55 -34 92q-57 64 -176 127q-1 -33 -6.5 -175t-6.5 -218z" />
<glyph unicode="%" horiz-adv-x="997" d="M66 868q0 20 4 52q5 40 43 88q70 86 166 86q45 0 88 -29q11 -7 24 -33q12 -32 12 -84v-28q-3 -45 -22 -76q-27 -48 -73 -80.5t-99 -38.5q-3 0 -8 -1t-8 -1q-55 0 -95 43q-32 37 -32 102zM72 8q11 14 32 42t37.5 50.5t30.5 44.5l350 490q231 316 324 432l104 31l-166 -205 l-637 -852q-16 -5 -75 -33zM143 911q0 -18 2 -28q3 -31 22 -58t48 -39q18 -10 43 -10q15 0 21 2q20 23 34 66q6 27 6 59q0 52 -22 107q-26 49 -61 49h-11q-34 -9 -63 -64q-19 -43 -19 -84zM594 170q0 29 6 53q4 36 43 88q74 84 164 84q47 0 88 -30q11 -6 25 -33 q12 -32 12 -82v-29q-3 -47 -27 -84q-29 -46 -74 -77t-96 -35h-14q-57 0 -94 43q-33 38 -33 102zM672 211q0 -19 2 -29q5 -32 23.5 -58t47.5 -38q20 -10 41 -10q15 0 21 2q20 23 35 65q6 30 6 60q0 51 -23 108q-29 49 -61 49q-6 0 -10 -2q-34 -9 -66 -63q-16 -43 -16 -84z " />
<glyph unicode="&#x26;" horiz-adv-x="798" d="M55 2l15 14q6 69 6 70q7 105 16 526q2 84 2 277q2 18 2 51q0 34 -4 96l80 70q0 -15 4 -27q23 -2 53 -2q107 0 154 -4q24 1 116.5 5.5t172.5 7.5t106 1l-67 -63q-34 0 -102.5 4t-94.5 4q-64 6 -137 6q-115 0 -207 -14q0 -12 -1 -37t-1 -37l-6 -241q38 -7 71 -7h58 q34 0 61 -4q8 1 30 2t32 2v84q-50 -2 -148 -14l62 45q58 -4 86 -4v119q34 5 78 55q-3 -74 -7 -174q23 1 68.5 4t67.5 4q7 1 22.5 2t22.5 2l-56 -43q-12 2 -37 2q-62 4 -88 4q0 -63 -2 -79q119 8 144 6l-52 -64q-32 0 -94 4q0 -27 -2 -37q-1 -28 -9.5 -140t-10.5 -175 q-2 -16 -2 -49q5 -43 24 -57q18 -7 27 -7q16 0 53 21l-55 -49q-27 -17 -51 -17q-16 0 -45 13q-8 3 -15.5 20.5t-7.5 38.5q0 11 3.5 28t4.5 27q12 113 17 297q2 20 2 90q-63 5 -80 5q-90 0 -176 -15q-1 -40 -9 -225.5t-10 -286.5q-2 -23 -2 -67q69 -9 137 -9q62 0 109 -4 q23 1 168.5 11t179.5 8l-67 -64q-28 1 -96.5 4.5t-100.5 3.5q-46 5 -117 5q-139 0 -272 -19l-10 -8v6z" />
<glyph unicode="'" horiz-adv-x="260" d="M49 850q101 94 101 151q0 14 -5 21q-5 11 -12.5 19t-19 16.5t-15.5 11.5l80 41q35 -61 35 -92q0 -13 -2 -17q-4 -17 -23 -41t-41.5 -46.5t-25.5 -26.5z" />
<glyph unicode="(" horiz-adv-x="524" d="M29 219q0 37 2 53q34 305 192 580q42 70 142 205l102 39q-79 -82 -160 -209q-164 -260 -203 -578q-4 -40 -4 -61q0 -155 73 -311t194 -250q19 -29 108 -62l-88 -53q-8 5 -22 13.5t-21.5 13.5t-17.5 12t-16 14t-11 15q-120 107 -195 267t-75 312z" />
<glyph unicode=")" horiz-adv-x="534" d="M-23 -430q123 94 229.5 213.5t172.5 247.5q65 157 65 323q0 276 -172 547q-22 35 -67.5 83.5t-77.5 70.5l88 65q70 -70 131 -178q158 -284 158 -557q0 -161 -62 -326q-71 -140 -148 -240.5t-188 -189.5z" />
<glyph unicode="*" horiz-adv-x="888" d="M59 598l72 57l174 41l39 262l84 46l160 -265l270 43l-147 -207l88 -319l-281 90l-268 -162l8 252zM186 627l166 -158l-18 -215l227 154l152 -60l-66 187l129 178l-246 -49l-110 190l-47 -199z" />
<glyph unicode="+" horiz-adv-x="768" d="M41 336l74 70q71 -9 147 -9q51 0 92 -4q0 20 -4 56q0 27 -3 93t-3 103l62 68q2 -24 -1 -78.5t-10 -139.5t-8 -102q32 1 107.5 6.5t137.5 9.5t85 3l-68 -64q-41 0 -113.5 4t-82.5 4q-20 2 -66 2q4 -49 4 -122q0 -49 8 -125l-67 -76q25 154 22 325q-172 0 -313 -24z" />
<glyph unicode="," horiz-adv-x="260" d="M-18 -178q102 90 102 151q0 7 -4 23q-5 10 -12.5 17.5t-19.5 16t-17 13.5l82 39q1 -3 7.5 -14.5t11 -22t9 -26.5t4.5 -29v-17q-2 -10 -10.5 -24t-21.5 -28t-23.5 -24.5t-23 -22.5t-13.5 -13z" />
<glyph unicode="-" horiz-adv-x="706" d="M127 330l49 69q43 -8 98 -8q24 0 74 -6q12 1 110.5 10.5t121.5 7.5l-45 -61q-28 0 -78 4t-54 4q-50 4 -77 4q-110 0 -199 -24z" />
<glyph unicode="." horiz-adv-x="260" d="M31 43l82 39q20 -39 67 -86l-71 -35q-46 55 -78 82z" />
<glyph unicode="/" horiz-adv-x="976" d="M33 4q6 8 44 57.5t56 77.5l352 492l322 432l106 29l-168 -205q-337 -433 -634 -852q-35 -10 -78 -31z" />
<glyph unicode="0" horiz-adv-x="700" d="M51 322q0 88 39 159q48 89 135 133q5 2 29.5 14.5t43 21t46 16.5t49.5 8q44 0 92 -23q58 -30 76 -53q43 -56 62 -158q8 -33 8 -73q0 -91 -43 -170q-48 -81 -160 -140q-2 -1 -22.5 -11t-26 -12.5t-23 -10t-27 -10t-23.5 -5t-27 -2.5q-9 0 -33 4q-74 17 -129 86 q-40 56 -58 146q-8 36 -8 80zM125 356q0 -92 35 -166q28 -68 94 -106q48 -23 94 -23q40 0 80 19q81 47 117 164q12 43 12 86q0 44 -10 92q-17 75 -55 125q-27 36 -69 58t-87 22q-71 0 -121 -47q-87 -84 -90 -213v-11z" />
<glyph unicode="1" horiz-adv-x="276" d="M90 -18q1 9 4 28.5t4 28.5q8 84 17 338l2 209q0 43 -2 63l80 43q-5 -41 -5 -98q-1 -27 -4 -81t-4 -81q-20 -306 -22 -360v-54z" />
<glyph unicode="2" horiz-adv-x="788" d="M55 -10l74 69q41 -6 84 -6h53q31 0 56 -2q46 13 96.5 38t60.5 42q39 56 47 111q6 41 6 80q0 23 -4 73q-14 108 -71 170q-62 62 -158 62q-37 0 -57 -4q-8 -1 -21 -3t-24 -3.5t-21 -4.5q-10 -13 -10 -26l-82 -49q-2 13 12 36q71 71 137 101q13 6 40 6.5t34 1.5q28 4 39 4 q106 0 178 -72q30 -30 51 -78t27 -96q6 -38 6 -78q0 -36 -6 -77q-9 -63 -43 -115q-31 -50 -78 -78q-42 -25 -114 -41q29 1 118.5 5.5t155.5 7.5t90 2l-67 -64q-41 0 -114.5 4t-82.5 4q-70 4 -117 4q-163 0 -295 -24z" />
<glyph unicode="3" horiz-adv-x="759" d="M-68 -369l91 47q73 -47 155 -47q114 0 135 4q12 2 45 13.5t41 13.5q34 19 52 37q72 72 86 117q16 49 16 110q0 27 -2 39q-11 103 -78 168q-38 32 -100.5 49t-128.5 17q-46 0 -88 -6q-17 -13 -17 -23l-110 -43q0 15 20 35q93 59 184 86q35 6 70 6q11 0 53 16q16 8 33 25 q34 34 45 70q10 42 10 73q0 19 -2 27q-7 72 -51 113q-60 53 -137 53q-31 0 -55 -4q-11 -7 -11 -17l-71 -28q0 8 12 24q63 42 119 58q16 4 45 4q76 0 158 -60q48 -55 57 -116v-25q0 -42 -8 -78q-12 -41 -43 -72q-24 -26 -70 -47q-35 -12 -49 -14l-16 -4l8 2q102 -7 215 -90 q75 -79 88 -172q0 -6 1 -19t1 -20q0 -48 -14 -113q-14 -56 -66 -108q-35 -37 -106 -70q-23 -9 -68 -29.5t-83.5 -35t-74.5 -19.5q-39 -2 -117 -2q-85 0 -174 55z" />
<glyph unicode="4" horiz-adv-x="749" d="M6 2l6 4l-6 -2q6 9 19.5 27t23.5 32.5t17 28.5q74 123 202 318q14 21 57.5 85.5t74 108t61.5 84.5l33 2l47 39q-2 -10 -2 -43q-2 -37 -2 -111q-1 -41 -4.5 -125t-4.5 -128l-12 -250q128 7 168 4l-68 -64q-17 1 -51 2t-51 2q-1 -42 -4 -127t-4 -127v-81l-70 -60q1 15 4 45 t4 45q11 196 13 309h-37q-46 5 -117 5q-152 0 -297 -23zM100 68q12 -1 34 -3t30 -2t25.5 1.5t29.5 1.5q9 0 32.5 -2t37.5 -3q11 0 168 9q1 28 2 84t2 84q1 42 1 138t1 138v78l-19 -27q-179 -240 -344 -497z" />
<glyph unicode="5" horiz-adv-x="808" d="M-20 -377l90 47q70 -47 155 -47q114 0 135 4q12 2 45 13.5t41 13.5q27 15 52 37q73 73 86 116q16 59 16 111q0 27 -2 39q-11 103 -78 168q-79 65 -229 65q-46 0 -88 -6q-17 -10 -17 -22l-47 -19l-37 -34q0 12 -2 18l-24 -8q0 15 20 35l4 4q0 44 4.5 146t4.5 120 q-5 37 -5 96q0 19 -8 60l-28 -7l73 70l19 -2q31 -4 65 -4h56q36 0 69 -4q26 1 117 6t171.5 8.5t106.5 1.5l-67 -63q-42 0 -117 4t-80 4q-74 4 -116 4q-111 0 -213 -12q-9 -97 -9 -135q0 -41 9 -129q1 -15 5 -59t5 -70q63 31 119 47q35 6 67 6q33 0 59 -4t77 -25t108 -61 q75 -79 88 -172v-39q0 -57 -12 -113q-16 -55 -66 -108q-36 -38 -108 -70q-24 -9 -68 -29.5t-82 -35t-74 -19.5q-39 -2 -116 -2q-85 0 -174 55z" />
<glyph unicode="6" horiz-adv-x="847" d="M74 276q0 115 47 269q10 35 27 71t27.5 54.5t37.5 60t35 53.5q92 118 205.5 209.5t232.5 116.5l-70 -55q-133 -22 -340 -258q-75 -110 -118 -226q10 5 22 13l51 28q63 42 154 68q54 4 82 4q39 0 76 -6q58 -15 147 -84q84 -91 84 -201q0 -138 -61 -209q-50 -43 -73.5 -61 t-62 -43.5t-79 -42t-97.5 -33.5q-36 0 -110 8q-91 15 -137 56q-80 69 -80 208zM119 367q0 -172 123 -254q70 -50 166 -50h28q30 0 64.5 14t54 25.5t20.5 8.5q28 9 67.5 71t43.5 105q8 33 8 73q0 127 -76 203q-76 66 -225 66h-20q-27 0 -39.5 -1.5t-60 -22t-126.5 -64.5 q-28 -92 -28 -174z" />
<glyph unicode="7" horiz-adv-x="737" d="M27 -416l22 86q8 10 28.5 48.5t52 101.5t60 121t67 137t58.5 119q117 231 256 413q-10 0 -54 3t-64 3q-92 5 -117 5q-160 0 -297 -25l74 70q50 -7 84 -7q8 0 25.5 1.5t29.5 1.5q9 0 32.5 -2t37.5 -3q25 1 116.5 5.5t172 8t106.5 1.5q-8 -6 -31.5 -30.5t-40.5 -33.5 q-80 -88 -125 -147q-61 -77 -114.5 -168.5t-95 -179t-82 -174.5t-92.5 -181.5t-109 -173.5z" />
<glyph unicode="8" horiz-adv-x="757" d="M82 326v26q4 92 65.5 175.5t151.5 121.5q-10 1 -37 13q-48 18 -79 59t-40 94q-4 12 -4 35q0 54 28 100.5t75 71.5q100 59 184 59q88 0 137 -49q55 -55 55 -147q0 -25 -2 -35q-6 -37 -34.5 -72t-54 -52.5t-60.5 -37.5q35 -12 82 -35q82 -43 117 -184q10 -52 10 -96 q0 -82 -31.5 -154.5t-93.5 -116.5q-85 -64 -184 -98q-21 -8 -50 -8q-52 0 -99.5 30t-76.5 76q-59 95 -59 224zM158 354q0 -64 18 -123q21 -72 75 -123t124 -55h10q56 0 103 34.5t73 86.5q39 74 39 164q0 74 -31 158q-26 63 -78 104t-116 41q-77 0 -131 -57q-86 -89 -86 -230 zM201 870q0 -46 19.5 -87.5t55.5 -67.5q51 -33 107 -33q72 0 117 45q57 54 57 137q0 28 -10 66q-19 54 -66 88.5t-104 34.5q-73 0 -127 -54q-49 -52 -49 -129z" />
<glyph unicode="9" horiz-adv-x="837" d="M47 287q0 140 62 207q65 56 96 80t85.5 51t129.5 49q16 0 34.5 -1t41 -2.5t34.5 -2.5q97 -20 140 -56q88 -74 88 -211q0 -107 -56 -266q-37 -99 -129 -239q-92 -119 -205.5 -210.5t-232.5 -115.5l72 53q132 25 338 260q75 106 119 223q-4 -2 -11.5 -6t-11.5 -6l-102 -53 q-99 -40 -103 -41q-81 -6 -82 -6q-42 0 -75 8q-52 11 -148 82q-84 94 -84 203zM127 317q0 -124 76 -200q75 -68 225 -68h10q16 0 30.5 3t31.5 7.5t30 6.5q4 4 22 7.5t21 8.5l101 57q31 102 31 174q0 167 -125 254q-67 47 -166 47h-29q-31 0 -65 -13.5t-53.5 -24.5t-20.5 -9 q-27 -9 -67 -71t-44 -105q-8 -31 -8 -74z" />
<glyph unicode=":" horiz-adv-x="260" d="M31 43l82 39q20 -39 67 -86l-71 -35q-46 55 -78 82zM53 647l82 39q5 -9 10.5 -17.5t14 -18.5t13 -15t17 -18.5t15.5 -16.5l-74 -35q-36 45 -78 82z" />
<glyph unicode=";" horiz-adv-x="260" d="M-18 -178q102 90 102 151q0 7 -4 23q-5 10 -12.5 17.5t-19.5 16t-17 13.5l82 39q1 -3 7.5 -14.5t11 -22t9 -26.5t4.5 -29v-17q-2 -10 -10.5 -24t-21.5 -28t-23.5 -24.5t-23 -22.5t-13.5 -13zM47 645l82 39q17 -34 68 -88l-72 -35q-41 52 -78 84z" />
<glyph unicode="&#x3c;" horiz-adv-x="776" d="M14 498q0 2 24.5 23.5t57.5 50.5t45 40q34 34 151 138t177 178q7 9 31.5 37t39 48t23.5 42l84 43q-6 -19 -20 -40.5t-22.5 -32t-33.5 -37t-28 -30.5q-65 -72 -182.5 -180.5t-147.5 -138.5q-10 -9 -35 -38.5t-45 -54.5t-20 -26q63 -63 92 -90q44 -43 117.5 -126 t132.5 -136t139 -100q60 -34 127 -43l-72 -54q-87 20 -123 52q-67 55 -212 207t-238 216q-2 1 -19.5 12t-30 21.5t-12.5 18.5z" />
<glyph unicode="=" horiz-adv-x="706" d="M117 254l49 70q46 -9 96 -9q41 0 74 -6q17 1 113 12t118 9l-45 -64q-28 0 -75.5 4t-55.5 4q-63 5 -78 5q-107 0 -196 -25zM131 453l49 67q41 -8 99 -8q38 0 71 -4q14 1 111.5 10.5t120.5 7.5l-45 -63q-17 1 -63 4.5t-68 3.5q-25 4 -78 4q-104 0 -197 -22z" />
<glyph unicode="&#x3e;" horiz-adv-x="776" d="M90 1053q14 6 40.5 19.5t39.5 19.5q31 -36 67 -71.5t88 -82.5t74 -68l219 -213l111 -104q-15 -27 -93.5 -95t-90.5 -85q-304 -276 -357 -346q-37 -16 -58.5 -23.5t-24.5 -7.5h-3q5 2 13 8q13 7 42.5 34.5t68.5 65t61 56.5l317 301q51 51 49 55q-159 158 -180 182 q-85 90 -270 250q-11 10 -40 32t-47.5 39.5t-25.5 33.5z" />
<glyph unicode="?" horiz-adv-x="899" d="M109 770q6 14 20 50t22.5 55.5t24.5 45.5t35 44q70 64 160.5 98.5t171.5 34.5q87 0 170 -62q104 -77 104 -192q0 -108 -63 -193q-21 -28 -83 -94t-89 -108q-42 -61 -47 -232q-41 -21 -84 -45q0 9 -1 29t-1 30q0 111 34 168q24 42 88 107t70 72q86 100 86 217q0 16 -2 24 q-3 47 -25 87t-59 65q-108 67 -211 67q-50 0 -96 -18q-17 -7 -47 -40.5t-49 -74.5q-5 -10 -10.5 -30t-12.5 -34.5t-18 -21.5zM424 35l80 39q17 -38 65 -86l-69 -35q-41 52 -76 82z" />
<glyph unicode="@" horiz-adv-x="1064" d="M86 297q0 98 33.5 191.5t97.5 164.5q65 76 174 127q2 1 24.5 12.5t35 17t38.5 16.5t45 16.5t44.5 10.5t46.5 5q69 0 127 -27q103 -48 137 -90q24 -32 42.5 -77.5t25.5 -74t20 -85.5q4 -32 4 -51q0 -62 -25 -143.5t-50 -131.5l-25 -51q-10 -14 -42 -42.5t-59 -50.5 l-26 -22q-28 -14 -49 -14q-23 0 -46 10q-9 3 -16 23t-6 43l-10 -6q-8 -4 -30.5 -16.5t-35 -19t-31.5 -14.5t-36.5 -12t-34.5 -4h-17q-64 10 -102 43q-43 37 -61 70q-37 72 -41 112q-15 58 -15 97q0 5 1 15t1 15q6 72 51 144q21 37 54.5 65.5t62 43.5t80.5 38q55 25 94 25 q13 0 37 -4q28 -6 58 -19l79 41q-2 -18 -2.5 -50t-1.5 -42q0 -18 -8 -125l-22 -324l73 25q-36 -31 -73 -55q0 -59 24 -70q12 -4 17 -4q16 0 71 41q6 5 10 8q47 56 69 112t22 132q0 176 -80 319q-39 74 -124 112t-181 38t-168 -53q-46 -35 -90.5 -90t-69.5 -109 q-47 -112 -47 -234q0 -87 24 -172q18 -66 55.5 -129t86.5 -106q74 -62 192 -62q21 0 86 9l115 28q0 -1 -29 -14q-6 -3 -27.5 -14t-29 -15t-25.5 -12.5t-28 -12.5t-26 -10.5t-30.5 -10.5t-29.5 -7q-24 -6 -50 -6q-65 0 -135 39q-109 59 -166 186q-57 135 -57 287zM299 356 q0 -14 10 -96q12 -54 43 -106q17 -29 62 -68q22 -18 53 -28.5t49 -10.5q15 0 62 14l63 41q4 12 4 21q5 49 8.5 101t5.5 115t3 81q2 74 2 129q-22 26 -58 48t-67 26q-4 0 -13.5 1t-13.5 1q-32 0 -80 -19q-16 -8 -20 -12q-35 -23 -64 -70q-38 -66 -47 -137q-2 -10 -2 -31z" />
<glyph unicode="A" horiz-adv-x="1171" d="M6 -10q17 15 54 82.5t69 133t69.5 144.5t39.5 84q50 112 157.5 297.5t184.5 298.5q40 82 88 82q40 0 129 -405h49l-41 -37q23 -125 33 -166q11 -95 73 -204t199 -269l-88 -51q-124 195 -175 297t-65 200q-9 59 -53 187q-41 6 -74 6q-27 2 -86 2q-95 0 -159 -10 q-83 -136 -105 -199q-173 -398 -209 -440zM430 700q18 -2 57 -2q23 0 73 1t73 1q22 0 42.5 -1t29 -1t16.5 2q-52 167 -92 314q-2 -5 -32 -50.5t-79 -122t-88 -141.5z" />
<glyph unicode="B" horiz-adv-x="860" d="M68 61l92 48q3 -3 7.5 -7t6.5 -6q12 143 16 479l-24 -10q0 17 22 39l2 2q0 3 1.5 10.5t1.5 10.5q1 43 1 141.5t1 142.5q0 89 -5 150l84 69q-1 -12 -2 -36t-2 -35q66 41 121 59q23 2 66 2q63 -5 141 -59q50 -54 57 -121q0 -5 1 -16.5t1 -16.5q0 -29 -8 -69 q-13 -44 -45 -76q-24 -24 -72 -49q-48 -16 -59 -17q95 -6 223 -90q34 -35 58 -83.5t30 -94.5q2 -12 2 -39q0 -49 -14 -117q-12 -51 -65 -110q-12 -11 -27.5 -22t-24 -16.5t-32 -19t-29.5 -16.5q-12 -4 -95.5 -40.5t-131.5 -43.5q-23 0 -70 -1t-70 -1q-2 0 -19 3.5t-26 4.5 l-16 -14v18q-61 22 -98 47zM238 72q38 -13 84 -13q12 0 34 -1t33 -1q28 0 68 4l37 12q36 12 53 17q27 18 51 39q74 74 90 121q17 66 17 117q0 6 -1.5 18t-1.5 18q-10 102 -79 168q-80 68 -232 68q-74 0 -94 -4q-13 -9 -16 -23l-23 -10q-18 -281 -18 -463q-2 -20 -2 -67z M258 643q73 35 117 49q54 4 76 4q27 7 51 17q19 13 35 26q36 41 45 72q10 42 10 80q0 14 -2 20q-7 72 -49 117q-63 53 -140 53q-47 0 -61 -4q-10 -10 -10 -16l-60 -23q0 -42 -2 -65q0 -131 -6 -260q0 -20 -4 -70z" />
<glyph unicode="C" horiz-adv-x="1011" d="M70 524q0 25 2 37q3 143 98 287q71 114 244 190q9 4 35 17t37 18t34 14t38.5 12.5t38 7t44.5 3.5q21 0 45 -6q102 -16 209 -105l-90 -86q-3 4 -30.5 28t-69 54t-68.5 41q-53 17 -96 17q-34 0 -88 -15q-74 -17 -140 -86q-130 -144 -153 -274q-8 -52 -8 -127q0 -71 8 -115 q14 -88 54.5 -171t100.5 -138q11 -11 26.5 -20t26.5 -14.5t34 -12.5t29.5 -8.5t35.5 -8t31 -6.5q10 -4 34 -4q34 0 91 17q12 4 98 53q13 9 42 28.5t51 36t40 33.5q16 7 48 17.5t40 13.5q-18 -18 -41 -31q-21 -16 -44 -32t-50 -32.5l-45 -27.5t-51 -30t-47 -27 q-8 -4 -32.5 -16.5t-35 -18t-32.5 -14.5t-37 -13.5t-35 -8t-39 -3.5q-88 3 -162 47q-51 37 -90 84q-12 12 -24 28.5t-18 28t-18 36t-16 32.5q-30 67 -39 145q-16 62 -16 125z" />
<glyph unicode="D" horiz-adv-x="1015" d="M70 862q21 21 45 33q2 2 49 37q0 78 -4 117l82 71q-1 -24 -2 -70.5t-2 -70.5q40 20 112 63q4 2 24 13t26 14l24 12t26.5 12t25 9t28 8.5t26.5 5t29 2.5q97 -7 164 -49q46 -32 90 -82q12 -12 23.5 -29t18.5 -29.5t18 -34.5l16 -32q30 -67 39 -145q16 -69 16 -133 q0 -5 -1 -15.5t-1 -15.5q-6 -146 -100 -287q-67 -107 -240 -190q-17 -7 -49 -21.5t-47 -20.5t-39.5 -14t-46.5 -11t-47 -3t-43 6q-69 9 -123 43v-10l-72 -59q2 15 5 45t5 45v18q-15 12 -24 23l26 26q10 193 13 471l4 285q-13 -7 -28.5 -13t-35.5 -13t-30 -11zM209 199 q3 -2 24 -19.5t43.5 -35.5t51.5 -37t49 -27q53 -17 96 -17q42 0 86 13q74 19 141 86q127 141 154 274q8 52 8 123q0 74 -8 121q-16 87 -56 170t-100 139q-10 9 -21 17t-25.5 14.5t-24.5 10.5t-28.5 9t-26.5 7t-29.5 6.5t-26.5 5.5q-16 4 -24 4q-40 0 -101 -16 q-13 -4 -100 -54q-19 -17 -53 -37q0 -48 -4 -136t-5 -120q-3 -81 -10 -248t-10 -253z" />
<glyph unicode="E" horiz-adv-x="937" d="M102 -12l19 16q0 2 2 29.5t4 42.5q10 154 14 538q1 43 2 141.5t2 141.5v51q0 66 -4 101l82 69v-26l4 4q71 -9 90 -9q8 0 23.5 1.5t24.5 1.5q10 0 34 -2t41 -3q21 1 195 9q156 8 200 8h9l-70 -66q-42 0 -118 4t-83 4q-97 5 -124 5q-111 0 -228 -13q0 -50 -2 -73l-4 -250 q41 -8 70 -8q10 0 28.5 1t30.5 1q28 0 64 -5q22 0 123.5 7.5t136.5 7.5h22l-53 -64q-29 0 -82.5 4.5t-73.5 4.5q-66 4 -102 4q-84 0 -170 -13q-14 -302 -19 -524q-4 -24 -4 -37q0 -11 4 -35q56 -6 123.5 -6t126.5 -6q18 0 170 11q111 8 160 8q18 0 27 -1l-70 -63 q-40 1 -111.5 4t-91.5 4q-74 4 -118 4q-159 0 -279 -20l-12 -8q0 4 4 6q-13 0 -17 -2z" />
<glyph unicode="F" horiz-adv-x="954" d="M113 -29q9 73 10 92q7 108 16 541q2 84 2 283q2 16 2 49q0 50 -6 100l84 70q-2 -8 -2 -29l4 4q64 -6 86 -6q8 0 26.5 1t31.5 1q3 0 69 -4q15 -1 192 9q146 8 196 8h16l-68 -66q-40 1 -109.5 5t-93.5 5q-35 2 -110 2q-133 0 -242 -14q0 -49 -2 -74l-4 -248q49 -8 115 -8 q38 0 73 -6q18 1 139 12q102 9 137 9h11l-55 -66q-31 0 -88.5 4t-65.5 4q-62 4 -98 4q-89 0 -172 -12q-20 -449 -23 -524v-43v-43z" />
<glyph unicode="G" horiz-adv-x="1062" d="M70 524q0 25 2 37q3 146 98 289q72 113 244 188q17 8 44 22t41.5 20.5t38.5 12.5t52 7q7 0 38.5 3t45.5 3q8 0 12 -2q94 -14 209 -103l-90 -88q-3 4 -30.5 28t-69 54t-68.5 41q-53 17 -96 17q-34 0 -88 -15q-78 -18 -140 -86q-131 -145 -153 -274q-8 -52 -8 -127 q0 -71 8 -115q14 -86 54.5 -169.5t100.5 -139.5q11 -11 26.5 -20t26.5 -14.5t34 -12.5t29.5 -8.5t35.5 -8t31 -6.5q10 -4 32 -4q42 0 93 19q14 3 98 51q13 9 42 28.5t51 36t40 33.5q16 7 48.5 17t37.5 12q0 2 2 4q-1 -1 -2 -3t-2 -3q-23 -112 -23 -228q0 -57 5 -96 q1 -17 4 -69.5t4 -83.5l-66 -56v19q0 38 4 130q6 122 6 142q-4 35 -7.5 87t-10.5 93q-49 -33 -190 -112q-4 -2 -27.5 -14.5t-30.5 -16t-27.5 -13.5t-31.5 -13.5t-28.5 -9t-33.5 -7.5t-32 -2q-88 3 -162 47q-49 35 -90 82q-12 12 -24 29.5t-18 29t-18 36t-16 32.5 q-30 67 -39 143q-16 69 -16 127z" />
<glyph unicode="H" horiz-adv-x="956" d="M115 -14q7 50 10 88q7 108 16 540l2 322q0 74 -4 113l84 71q-2 -24 -3 -51.5t-1.5 -59t-1.5 -48.5q0 -36 -1 -77t-2.5 -91.5t-2.5 -77.5l8 10q57 -8 86 -8q8 0 25.5 1t29.5 1q39 0 72 -4q10 0 140.5 6.5t191.5 7.5v168q2 23 2 64q0 57 -2 88l80 71q-2 -31 -2.5 -86.5 t-1.5 -72.5q0 -52 -9 -232h7l-7 -2v-27q-20 -475 -21 -571v-43v-41l-75 -59q2 14 5 44t5 44q5 85 8.5 170.5t6 200.5t4.5 169v50q-175 10 -199 10q-78 4 -123 4q-129 0 -235 -14q-14 -308 -19 -535q-2 -16 -2 -43q0 -29 2 -41z" />
<glyph unicode="I" horiz-adv-x="335" d="M115 -16q8 55 10 88q7 109 16 542q0 197 2 281q0 8 1 25.5t1 25.5q0 52 -6 101l84 69q-2 -24 -3 -50t-1.5 -57t-1.5 -48q0 -89 -8 -261q-18 -440 -21 -573q-2 -14 -2 -43q0 -27 2 -41z" />
<glyph unicode="J" horiz-adv-x="851" d="M18 106q23 24 70 64q19 -4 89.5 -45.5t98.5 -52.5q53 -17 95 -17q41 0 88 13q39 10 73.5 43.5t53.5 72.5q50 106 67 420q6 64 6 248q0 134 -4 184l84 70q-3 -28 -7 -202.5t-7 -215.5q-3 -86 -24 -233.5t-42 -216.5q-34 -100 -133 -170q-46 -32 -114 -51t-129 -19 q-11 0 -46.5 9.5t-39.5 10.5q-53 7 -91.5 27.5t-87.5 60.5z" />
<glyph unicode="K" horiz-adv-x="798" d="M115 -12q8 65 10 92q7 108 16 538l2 320q0 76 -4 115l84 67q-2 -23 -3 -49t-1.5 -57.5t-1.5 -48.5q0 -73 -4 -217l129 108q18 16 72 63t88 81t61 71l101 45q-33 -39 -74 -77t-99.5 -86.5t-82.5 -69.5q-6 -6 -74 -64q24 -60 81.5 -182.5t90.5 -216.5q18 -63 32 -102 t37.5 -77.5t35.5 -55t56 -69.5t70 -85l-55 -35q-33 52 -72.5 109t-56.5 84t-41.5 79t-50.5 127q-42 122 -81.5 190t-125.5 169q-42 -36 -43 -37q0 -8 -2 -12q-18 -439 -21 -574q-2 -14 -2 -43q0 -27 2 -41z" />
<glyph unicode="L" horiz-adv-x="847" d="M102 -8l19 14q0 3 2 30.5t4 43.5q10 154 14 538q1 42 2 141t2 142v55q0 64 -4 97l82 67q-1 -17 -1.5 -71.5t-2.5 -83.5q0 -88 -8 -260q-18 -439 -21 -574q-2 -10 -2 -35t2 -35q57 -7 124 -7t126 -7q24 1 107 7q83 8 153 12q48 3 76 3q12 0 21 -1l-70 -64q-42 0 -119 4 t-84 4q-37 2 -118 2q-153 0 -279 -18l-10 -8q0 4 2 6q-13 0 -17 -2z" />
<glyph unicode="M" horiz-adv-x="1116" d="M117 -6q2 15 5 45t5 45q10 154 14 541q1 42 2 140t2 140q0 15 1 49t1 52q0 51 -2 71q-4 0 -8 2l45 23l41 24q160 -207 211 -284q8 -14 28.5 -44t35.5 -55.5t24 -48.5q3 5 54.5 53t115.5 114t96 112q6 9 15 20.5t17.5 20.5t23.5 23.5t22 21.5t23.5 22.5t19.5 18.5l88 20 l7 6q-2 -27 -3.5 -79.5t-3.5 -79.5q0 -128 -6 -260q-17 -318 -22 -572v-84l-72 -61q2 15 5 45t5 45q6 111 15 541q2 45 2 290q0 26 -8 76.5t-9 65.5q-49 -34 -69 -66q-97 -148 -248 -305q-42 -68 -76 -68q-15 0 -33.5 19t-35.5 49t-30 57t-24 53.5t-12 28.5 q-78 124 -158 199q0 -35 -2 -49q0 -8 -6 -260q-19 -357 -23 -574q-2 -14 -2 -43q0 -27 2 -41z" />
<glyph unicode="N" horiz-adv-x="878" d="M117 -10q2 16 5 45t5 45q10 156 14 541q1 42 2 140.5t2 141.5v49q0 52 -6 101l6 4q-3 2 -5.5 4.5t-5 5.5t-3.5 4l80 41l12 12v-4l6 2q18 -79 47.5 -164.5t70 -190t59.5 -159.5q83 -282 264 -520q7 106 16 530q2 84 2 283q2 18 2 55q0 31 -4 97l82 67q-4 -51 -4 -155 q-1 -46 -4 -134t-4 -129q-2 -42 -12 -251t-13 -322v-82l-72 -59q3 6 3 12l-7 -4q-208 333 -293 584q-11 29 -40 112t-52.5 140t-50.5 108q-1 -38 -4 -116t-4 -119q-20 -474 -23 -572v-43v-41z" />
<glyph unicode="O" horiz-adv-x="1077" d="M70 518q0 104 34.5 201t100.5 170q60 70 178 131q9 4 36 17.5t39.5 19t36.5 15.5t41 14.5t39 9t43 4.5q70 0 134 -31q97 -44 141 -90q60 -82 94 -238q17 -67 17 -145q0 -161 -72 -287q-69 -122 -236 -213q-11 -6 -48.5 -26t-55 -28.5t-48 -20t-57.5 -17.5q-24 -6 -51 -6 q-68 0 -139 41q-113 61 -166 190q-61 134 -61 289zM147 543q0 -93 23 -172q50 -162 145 -242q71 -63 197 -63q32 0 86 8q122 20 203 137q46 66 81.5 158.5t39.5 167.5q2 10 2 28q0 178 -82 324q-41 74 -127 113.5t-183 39.5q-103 0 -176 -55q-49 -38 -93.5 -94t-65.5 -109 q-50 -109 -50 -241z" />
<glyph unicode="P" horiz-adv-x="698" d="M115 -12q8 65 10 92q7 108 16 538q0 197 2 285q0 8 1 24.5t1 24.5q0 52 -6 101l84 69q-4 -23 -4 -71q74 46 123 59q12 2 37 2q100 0 170 -59q46 -46 57 -121v-27q0 -45 -8 -78q-10 -32 -45 -73q-17 -17 -53 -36.5t-72 -27.5q-56 -16 -221 -41q-14 -299 -19 -518 q-2 -14 -2 -43q0 -27 2 -41zM207 651q196 46 225 60q42 18 64 39t34 51q11 32 11 69v33q-11 77 -54 117q-56 53 -137 53q-49 0 -61 -4q-7 -5 -10 -16l-60 -23q0 -42 -2 -65q0 -2 -6 -260q-4 -36 -4 -54z" />
<glyph unicode="Q" horiz-adv-x="1101" d="M72 524q0 102 34.5 199t100.5 172q61 74 178 131q8 4 36 17.5t39.5 19t37 15.5t41.5 14.5t38.5 9t43.5 4.5q67 0 133 -29q36 -18 52.5 -26.5t43.5 -27.5t45 -40q60 -80 94 -238q17 -67 17 -145q0 -158 -72 -287q-62 -115 -203 -194q19 -23 43 -41q36 -33 58.5 -52 t64.5 -42t74 -23q3 0 9 1t9 1l-74 -51q-3 0 -9 -1t-9 -1q-23 0 -54 15t-50 28t-55.5 42.5t-41.5 33.5q-36 32 -47 43q-109 -58 -160 -68q-32 -4 -49 -4q-74 0 -141 39q-114 64 -166 194q-61 129 -61 291zM150 549q0 -98 22 -174q50 -164 145 -244q71 -63 195 -63q52 0 88 8 q26 4 39 8q-30 34 -56 50t-67 16l88 65q31 -5 55 -20t32.5 -25t31.5 -41q47 33 80 84q46 67 81.5 159.5t39.5 166.5q2 10 2 30q0 177 -82 326q-41 75 -126.5 114.5t-182.5 39.5q-101 0 -177 -54q-48 -37 -92 -94t-67 -113q-49 -104 -49 -239z" />
<glyph unicode="R" horiz-adv-x="739" d="M115 -12q8 65 10 92q7 108 16 538l2 322q0 76 -4 113l84 69q-4 -23 -4 -71q74 46 121 59q14 2 39 2q100 0 170 -59q46 -46 57 -121v-27q0 -45 -8 -78q-10 -32 -45 -73q-17 -17 -53 -36.5t-72 -27.5q-5 -2 -20 -4.5t-25 -5.5q25 -63 39 -105t33.5 -106t38.5 -123 q28 -99 61.5 -161t118.5 -158l-56 -35q-78 108 -108 167.5t-59 162.5q-21 57 -35 125.5t-34.5 113t-74.5 107.5q-44 -11 -100 -19q-14 -299 -19 -518q-2 -14 -2 -43q0 -27 2 -41zM207 651q196 46 225 60q42 18 64 39t34 51q11 32 11 69v33q-11 77 -54 117q-56 53 -137 53 q-49 0 -61 -4q-7 -5 -10 -16l-60 -23q0 -42 -2 -65q0 -88 -8 -260q0 -9 -1 -27t-1 -27z" />
<glyph unicode="S" horiz-adv-x="903" d="M66 293q6 2 44.5 29t57.5 45q7 -81 23.5 -139t56.5 -103q73 -76 231 -76q32 0 86 4q40 4 70.5 28.5t62.5 63.5q39 48 39 113q0 64 -39 109q-40 46 -98.5 88t-109.5 68.5t-116 63.5t-108 70q-35 25 -53.5 39.5t-45.5 40t-43 52.5t-22 57q-2 8 -2 22q0 48 37 89.5t88 68.5 q177 86 357 86q52 0 100.5 -19.5t81.5 -56.5q29 -34 29 -78q0 -10 -9 -71q-16 -8 -133 -51q0 6 29.5 41t32.5 53v10q0 31 -23.5 56.5t-56.5 41.5q-62 29 -139 29q-80 0 -162 -29q-54 -19 -102 -58.5t-48 -86.5q0 -13 2 -19q5 -27 23 -54.5t35 -44t49 -44.5t43 -39 q41 -40 96 -71t101 -48t101.5 -46.5t96.5 -65.5q41 -38 70.5 -84t29.5 -88q0 -18 -6 -33q-16 -49 -52 -86.5t-91 -75.5q-147 -94 -262 -94h-6q-126 3 -225 87t-121 206z" />
<glyph unicode="T" horiz-adv-x="731" d="M-47 1036l76 72q58 -8 157 -8q11 0 105 -4h4l37 28v-28q20 1 81.5 5.5t91.5 6.5t84 4t58 0l-69 -63q-42 0 -118 4t-83 4q-8 1 -24 2t-23 2q0 -63 -2 -94q0 -50 -4 -139t-5 -121q-16 -377 -22 -574v-84l-72 -59q1 16 4 46t4 44q4 84 7 172.5t5.5 196t4.5 172.5q1 43 1 141 t1 141v55q0 64 -4 95l10 8q-161 0 -305 -25z" />
<glyph unicode="U" horiz-adv-x="839" d="M109 301q0 18 3 52t8 137t9 272q3 14 5 166q2 109 1 147v19l72 36q0 -14 -6.5 -167.5t-7.5 -176.5q-13 -104 -13 -430q0 -57 20 -122t48 -105q58 -78 170 -78q50 0 88 10q8 2 25 8.5t24 8.5q63 71 86 260v-4q4 162 6 282q2 86 2 283q0 113 -2 162l82 72q-4 -33 -5 -100 t-1 -70t-6 -261q-22 -520 -23 -573v-84l-71 -57q1 13 4 43t4 45v22l-2 -2q-59 -39 -152.5 -65.5t-146.5 -26.5q-96 0 -162 92q-24 35 -41.5 92t-17.5 113z" />
<glyph unicode="V" horiz-adv-x="1017" d="M0 1024l102 88q44 -92 77 -209t48 -203t35 -221q3 -20 13.5 -167.5t27.5 -211.5q6 15 73.5 137.5t163 296.5t150.5 281q15 31 101 236l129 53q-72 -74 -158 -242q-92 -178 -346 -629q-19 -35 -53 -106.5t-55 -109t-34 -37.5q-34 0 -48.5 97.5t-16.5 225.5t-2 129 q-2 13 -8 60t-8.5 65t-10 63t-12.5 67t-15 62.5t-19.5 64.5t-24 58t-30 57.5t-36 49t-43.5 45.5z" />
<glyph unicode="W" horiz-adv-x="1452" d="M4 1016l98 88q43 -90 75 -206.5t46.5 -195.5t34.5 -217q5 -33 14.5 -171t26.5 -199q17 49 171.5 351t180.5 302q16 0 25.5 -52.5t15.5 -133.5t8 -97q3 -26 13 -166t26 -204q5 14 72.5 134.5t159.5 289t145 274.5q30 59 98 229l129 52q-46 -45 -119 -157.5t-112 -188.5 q-44 -86 -97 -181t-90.5 -166t-72.5 -155q-110 -248 -137 -248h-2q-34 0 -49 95t-17 221l-2 126q-2 18 -10 82t-14 99l-211 -377q-21 -37 -53 -104.5t-53 -105.5t-32 -38q-22 0 -36.5 40.5t-20 102.5t-8 122.5t-3 114.5t-1.5 64q-27 206 -46 284q-49 200 -153 292z" />
<glyph unicode="X" horiz-adv-x="954" d="M33 -20q23 45 129.5 217t122.5 200q29 53 86 151.5t67 115.5q-20 35 -24 41q-19 31 -60.5 112t-77.5 135.5t-83 94.5l102 90q25 -53 81.5 -196t94.5 -216q112 204 170 354q21 9 65 25.5t66 25.5q-61 -58 -115 -151l-165 -297q17 -28 55 -123q21 -53 39.5 -89t51 -88.5 t50.5 -84.5q34 -61 103 -138.5t102 -90.5q-14 -14 -47.5 -37.5t-44.5 -34.5q-45 56 -91 143t-92 193t-61 135q-10 20 -94 162l-164 -283q-28 -44 -78 -142.5t-82 -146.5q-79 -62 -106 -77z" />
<glyph unicode="Y" horiz-adv-x="634" d="M-12 1057l102 88q32 -63 87.5 -204.5t88.5 -207.5q107 187 172 359q57 19 131 47q-55 -50 -116 -152q-85 -159 -146 -262h4q-2 -19 -2.5 -57.5t-1.5 -49.5q0 -59 -8 -169q-19 -292 -23 -369v-53l-73 -39q11 50 12 59q5 57 14 348q1 18 1.5 84.5t2.5 98.5q0 71 -4 104 q-19 32 -20 33q-16 29 -46.5 88t-50 94.5t-53.5 81.5t-71 78z" />
<glyph unicode="Z" horiz-adv-x="1110" d="M57 -16q93 126 101 139l360 504q31 42 97 131.5t117.5 158.5t101.5 130q-63 8 -109 8q-79 0 -173 -6.5t-157 -13.5t-176 -21t-162 -19l146 111q104 -10 319 -10q61 0 184.5 6t186.5 6h4h72q-31 -31 -96 -112.5t-87 -106.5l-602 -803q58 6 119 6q65 0 140 -5.5t165 -14 t140 -11.5q209 0 309 2q-61 -37 -103 -67q-8 -3 -21.5 -11.5t-21.5 -11.5q-44 5 -136.5 19.5t-139.5 19.5q-186 13 -258 13q-171 0 -303 -31q-3 -3 -9 -5.5t-8 -4.5z" />
<glyph unicode="[" horiz-adv-x="675" d="M111 -514q-1 10 4 41t6 47q6 109 13.5 413t8.5 330l9 601q0 44 -5 112q12 13 39 31t43 37q0 -4 -1 -12t-1 -11q18 -2 49 -2q22 0 66 -6q14 1 100.5 11.5t106.5 8.5l-41 -63q-24 0 -67 4t-50 4q-40 4 -69 4q-53 0 -97 -8v-84q-1 -45 -7 -273.5t-7 -267.5 q-25 -573 -29 -778v-65q23 -4 58 -4q27 0 63 -5q13 1 100 11t107 8l-39 -64q-19 1 -59.5 5t-59.5 4q-20 4 -69 4q-71 0 -154 -17z" />
<glyph unicode="\" horiz-adv-x="669" d="M59 1051l99 49q16 -77 44.5 -160.5t67.5 -186t58 -157.5q91 -307 301 -561l-58 -35q-199 317 -286 569q-5 14 -33 96.5t-40 111t-38.5 89.5t-53.5 103.5t-61 81.5z" />
<glyph unicode="]" horiz-adv-x="534" d="M33 -408q19 2 104 -7t103 -9q34 6 69.5 6t55.5 2q0 10 1 30.5t1 29.5q12 381 16 729q0 62 5.5 279.5t8.5 283.5q0 16 1 46t1 46q-44 6 -86 6q-39 0 -77 -6q-17 0 -56.5 -4t-60.5 -4l-41 61q21 2 109 -7t98 -9q33 6 67.5 6.5t46.5 1.5v17l82 -78l-4 2q-6 -46 -10 -144 q-14 -297 -21 -585q-1 -47 -10.5 -297.5t-9.5 -358.5v-41q0 -19 3 -41t3 -30q0 -11 -2 -17l-35 33q-65 10 -125 10q-30 0 -80 -4q-13 -1 -52.5 -5t-63.5 -5z" />
<glyph unicode="^" horiz-adv-x="677" d="M88 877l70 65q44 9 112 60t101 63q53 -42 170 -92q34 -14 73 -23l-61 -53q-2 1 -72 25q-101 33 -176 77q-21 -11 -96.5 -58t-120.5 -64z" />
<glyph unicode="_" horiz-adv-x="860" d="M96 -143l76 69q61 -8 145 -8q35 0 109 -6q29 1 172 11t176 9l-67 -63q-41 0 -114.5 4t-82.5 4q-74 4 -117 4q-162 0 -297 -24z" />
<glyph unicode="`" horiz-adv-x="260" d="M63 1018q0 31 35 92l80 -41q-4 -3 -15.5 -11.5t-19 -16.5t-12.5 -19q-6 -9 -6 -21q0 -56 102 -151l-71 37l-18.5 18.5t-29 30t-26.5 33.5t-16 32q-3 6 -3 17z" />
<glyph unicode="a" d="M51 328q0 5 1 15t1 15q10 89 53 146q31 56 77 87.5t122 63.5q56 27 98 27q15 0 39 -4q36 -7 58 -21l82 43q-1 -7 -7 -94q0 -45 -6 -127q-21 -292 -22 -325v-9l74 25q-29 -26 -70 -51l-4 -4v-13q5 -45 22 -57q13 -8 27 -8q24 0 55 22l-55 -51q-32 -14 -53 -14 q-23 0 -45 10q-10 5 -17 25.5t-6 42.5q-7 -4 -10 -9q-7 -3 -38.5 -19.5t-46.5 -23.5t-41.5 -14.5t-47.5 -7.5h-15q-67 10 -104 45q-48 38 -63 70q-38 67 -43 114q-15 62 -15 101zM129 369q0 -55 12 -107q9 -59 43 -108q21 -36 64 -70q22 -18 54 -28.5t46 -10.5q28 0 68 14 q38 24 51 31q1 3 12 8q4 20 4 23q5 51 8.5 104t5.5 117.5t3 83.5q1 37 1 73.5t1 57.5q-20 27 -57 49t-70 27q-10 2 -29 2q-40 0 -80 -19q-16 -8 -20 -12q-34 -21 -66 -69q-41 -64 -51 -144v-22zM438 70q4 2 6 2q-2 0 -6 -2z" />
<glyph unicode="b" horiz-adv-x="700" d="M70 57l73 47q17 -17 41 -26q6 103 15 514l-52 -25q0 11 17 37q7 5 37 27v243q2 18 2 56q0 32 -4 98l82 68q-2 -30 -3.5 -87.5t-1.5 -70.5q0 -86 -8 -258v-6q6 3 41 18q25 4 76 4q72 -4 174 -90q59 -87 68 -178q2 -14 2 -39q0 -52 -13 -119q-10 -53 -51 -110 q-26 -36 -86 -74q-4 -2 -71.5 -40t-106.5 -44q-54 -4 -84 -4l-45 -35q4 28 4 39q-62 14 -106 55zM246 57q6 -2 22 -2h58q31 0 47 4q22 5 69 29q15 8 41 39q40 54 56 106q10 46 10 115v39q-11 107 -64 174q-73 80 -170 80q-31 0 -47 -4q-20 -427 -22 -531v-49z" />
<glyph unicode="c" horiz-adv-x="692" d="M51 334q0 20 2 28q6 82 53 150q31 55 77.5 87t121.5 63q50 26 96 26q21 0 39 -6q59 -9 131 -66l-65 -63q-18 30 -57.5 54.5t-75.5 29.5q-20 4 -29 4q-39 0 -84 -20q-2 -1 -7 -4.5t-7 -4.5q-43 -34 -66 -71q-41 -64 -51 -144q0 -4 -1 -11t-1 -11q0 -47 14 -105 q8 -56 43 -112q4 -7 9 -14t12.5 -14.5t12.5 -12t15.5 -14.5t14.5 -13q22 -18 53 -28.5t49 -10.5q24 0 66 17q21 10 49 28q64 46 74 56l82 26q-29 -29 -72 -53q-16 -12 -84 -53q-10 -5 -40 -21.5t-46.5 -24.5t-42.5 -16t-47 -8q-22 0 -57 11.5t-60 33.5q-51 47 -63 74 q-38 63 -43 112q-15 62 -15 101z" />
<glyph unicode="d" horiz-adv-x="729" d="M53 330q0 20 2 30q6 78 54 148q21 38 55.5 67.5t61.5 44t81 39.5q59 25 99 25q18 0 36 -6q20 -2 47 -10v123q0 5 2.5 88.5t2.5 126.5q0 47 -2 55l83 43q-3 -23 -6.5 -134t-3.5 -141q0 -32 -4 -208q2 0 6.5 -4t5.5 -5l-12 -12q-1 -22 -2 -67.5t-2 -61.5q-20 -278 -22 -326 v-6q3 6 6 6l82 27q-35 -27 -72 -51q-12 -8 -16 -12v-13q2 -44 24 -57q11 -8 27 -8q9 0 17.5 3t22.5 11t15 8l-59 -49q-29 -16 -54 -16q-21 0 -45 8q-8 5 -14 22.5t-6 38.5l-34 -13q-34 -14 -77 -29t-59 -15h-17q-68 11 -102 45q-45 32 -63 70q-39 72 -43 114q-15 62 -15 101 zM129 371q0 -46 14 -107q9 -58 43 -110q17 -30 64 -68q22 -19 52.5 -30t47.5 -11q26 0 66 16q3 2 22.5 13t28.5 18q0 3 2 12t2 13q9 79 14 303q4 66 4 155q-50 50 -114 60q-8 2 -31 2q-26 0 -76 -16q-3 -3 -8 -5.5t-8 -4.5t-4 -3q-38 -26 -66 -71q-41 -64 -51 -142 q0 -4 -1 -12t-1 -12zM442 72l4 2q-2 -2 -4 -2z" />
<glyph unicode="e" horiz-adv-x="700" d="M53 319q0 90 41.5 169.5t116.5 121.5q4 2 34 18.5t40 21t34 14.5t43 13.5t39 4.5q82 0 156 -61q59 -47 59 -91q0 -11 -6 -26q-49 -90 -118 -133q-36 -24 -86 -43t-78.5 -27t-100 -23t-86.5 -18q11 -62 45.5 -113.5t87.5 -80.5q41 -23 82 -23q33 0 58 14q71 45 125 88 l82 25q-80 -66 -248 -154q-37 -18 -80 -18q-69 0 -123 45q-84 65 -109 199q-8 33 -8 77zM127 338q0 -35 10 -35h19q24 0 52 4.5t46 8.5t52 13.5t46 12.5q32 8 52.5 14.5t45.5 22t39 37.5q1 1 9.5 12.5t10.5 14.5t8 13t8 16t4.5 14.5t2.5 15.5q0 23 -16 39q-82 94 -172 94 q-35 0 -70 -14q-65 -29 -102.5 -97t-42.5 -145q0 -3 -1 -17.5t-1 -23.5z" />
<glyph unicode="f" horiz-adv-x="577" d="M66 631l63 47l53 -4q6 46 6 117q0 10 -1 31.5t-1 33.5q0 76 29 121q20 32 56.5 53.5t76.5 22.5q0 2 2 2q28 0 72 -19q65 -38 102 -162q-8 -5 -28 -16.5t-31 -19.5q0 14 -23 71q-20 45 -57 76t-80 31q-45 -2 -45 -78v-139q-1 -14 -1.5 -39.5t-1.5 -46.5t-3 -39 q78 0 176 10q14 2 45 2l-57 -43q-10 2 -37 2q-43 2 -129 2q-2 -52 -14 -273t-13 -341q-13 -7 -38 -23.5t-31 -19.5q11 78 14 178q4 71 6 151t3.5 176.5t2.5 149.5q-75 -8 -116 -14z" />
<glyph unicode="g" horiz-adv-x="735" d="M-68 -229q0 51 13 108l67 33q-30 -56 -30 -137q0 -47 10 -105q20 -89 71 -150t132 -61q12 0 18 2q79 13 150.5 82.5t117.5 175.5q12 35 18 89t8 102t3 53q1 10 3 33.5t3 32.5q2 16 2 43q-4 -2 -13 -7.5t-13 -7.5q-5 -3 -26.5 -15t-29.5 -16t-27 -13t-30.5 -12.5t-28 -7 t-31.5 -3.5h-18q-64 10 -102 43q-42 31 -64 71q-39 71 -45 115q-12 66 -12 98q0 5 1 16.5t1 16.5q6 78 53 148q31 54 76.5 84.5t126.5 64.5q49 27 94 27q15 0 39 -4q32 -10 55 -21l82 45q-2 -33 -2 -98q-2 -55 -10 -170q-3 -46 -10.5 -142t-10.5 -145l74 23 q-8 -9 -19.5 -17.5t-28 -19t-24.5 -16.5q-1 0 -4 -3q0 -8 -1 -24t-1 -23v-55q-14 -177 -47 -266q-35 -83 -86.5 -147t-104 -97.5t-97.5 -50t-78 -16.5q-86 0 -140 63t-73 156q-11 75 -11 125zM156 352q0 -16 10 -98q13 -62 45 -111q21 -36 63 -67q22 -19 53.5 -30t49.5 -11 q23 0 63 16q8 5 27 15.5t27 15.5q24 18 26 20q1 46 2 134.5t2 134.5q2 31 2.5 95.5t1.5 82.5q-22 28 -58.5 49.5t-68.5 24.5q-10 4 -30 4q-29 0 -80 -19q-1 -1 -9 -5.5t-10 -6.5q-43 -29 -65 -70q-39 -60 -49 -143q-2 -10 -2 -31zM465 61q2 0 3.5 1t2.5 1q-1 0 -2.5 -1 t-3.5 -1z" />
<glyph unicode="h" horiz-adv-x="772" d="M115 -16q8 57 10 88q7 108 16 540q0 199 2 283q0 8 1 25.5t1 25.5q0 52 -6 101l84 69q-2 -23 -3 -50t-1.5 -59t-1.5 -49q0 -88 -8 -260q0 -12 -1 -38t-1 -39q117 76 217 79q103 0 166 -94q20 -27 26.5 -46t6.5 -50q0 -6 -1 -22t-1 -25q-15 -217 -17 -303v-49 q2 -44 25 -60q13 -8 26 -8q21 0 56 20l-58 -51q-28 -14 -51 -14q-21 0 -45 12q-10 3 -18.5 21.5t-8.5 40.5q0 13 5 31t6 26q8 66 8 213q0 35 1 63t1 35q0 44 -8.5 72t-30.5 61q-28 36 -71 55t-87 19q-27 0 -39 -2q-23 -6 -47 -16q-39 -39 -69 -152l-13 -350q0 -7 -1 -21.5 t-1 -21.5t1 -20.5t1 -20.5z" />
<glyph unicode="i" horiz-adv-x="354" d="M100 831l82 39q19 -37 68 -86l-72 -34q-34 42 -78 81zM106 66q0 13 5 30.5t6 26.5q5 49 8 104t5 115.5t3 83.5l2 168q0 43 -2 63l82 43q-4 -31 -4 -92q0 -20 -8 -129q-2 -25 -8 -90t-10 -124.5t-5 -110.5q-2 -16 -2 -50q5 -43 27 -59q12 -6 26 -6q21 0 56 20l-60 -49 q-26 -16 -53 -16q-24 0 -41 10q-11 5 -19 23t-8 39z" />
<glyph unicode="j" horiz-adv-x="720" d="M-68 -268q0 62 13 110l65 31q-30 -56 -30 -137q0 -46 10 -101q21 -92 72 -152.5t133 -60.5h18q79 15 149.5 83.5t118.5 175.5q9 28 14.5 69t7.5 73.5t3.5 64t1.5 34.5q6 34 6 66q5 73 7 195.5t3 150.5q1 27 1 91t1 91q0 6 1 19.5t1 19.5q0 21 -4 57l82 45 q-2 -20 -2.5 -55t-1.5 -47q-1 -26 -4 -82t-4 -84q-1 -15 -12.5 -155t-12.5 -214q-1 -8 -1 -26.5t-1 -26.5q-13 -178 -45 -268q-29 -67 -69 -121t-80 -88t-82.5 -57t-76 -32t-60.5 -9q-86 0 -139 61.5t-74 155.5q-9 92 -9 123zM500 770l80 41q20 -39 69 -88l-69 -35 q-45 56 -80 82z" />
<glyph unicode="k" horiz-adv-x="651" d="M92 303q0 6 3 13t6 11t9 11t7 8q18 12 33 27l6 237v283q2 20 2 61q0 14 -1 44t-1 46l82 70q-3 -30 -5 -84t-4 -74q0 -131 -6 -260q-2 -94 -10 -268l143 125q55 49 83 72t67.5 45t79.5 32q-336 -276 -375 -317q0 -9 -1 -27.5t-1 -27.5q11 -14 29 -31t42.5 -37.5t44 -36.5 t50 -38.5t45 -32.5t43 -30.5t29.5 -21.5q6 -5 28 -20t34 -26.5t19 -26.5l-77 -45q-3 12 -20 37.5t-30 37.5q-111 111 -202 160q-19 10 -39 17q0 -76 -2 -113v-84l-74 -59q2 14 5 44.5t5 45.5q1 35 4 97t4 89q-39 15 -51 37q-4 8 -4 10z" />
<glyph unicode="l" horiz-adv-x="368" d="M121 57v33q0 21 2 31q5 49 8 102.5t5 115.5t3 85q1 41 1 193.5t1 177.5q6 69 6 215q0 16 -1 33.5t-1 19.5l82 41q-2 -17 -7 -142.5t-5 -130.5q0 -235 -6 -358q-1 -14 -11 -134.5t-14 -186.5q-2 -18 -2 -52q5 -45 29 -57q11 -8 27 -8q15 0 55 20l-60 -51q-31 -14 -45 -14 q-21 0 -41 10q-10 5 -18 21.5t-8 35.5z" />
<glyph unicode="m" horiz-adv-x="1185" d="M90 -27q1 10 4 30t4 30q8 82 17 346q0 125 4 180q0 5 1 15.5t1 15.5q0 36 -8 67l86 43q-4 -29 -4 -92q114 84 227 84q95 0 160 -94l8 -8q4 6 16 14q123 87 234 90q98 0 161 -94q20 -26 26.5 -44.5t6.5 -49.5t-2 -51q0 -1 -16 -301v-50q3 -29 8.5 -41t19.5 -18 q12 -6 25 -6q20 0 55 20l-59 -51q-28 -14 -51 -14q-22 0 -45 10q-9 3 -16 21t-7 38q0 14 3.5 34t4.5 26q9 88 9 250v65q0 67 -37 131q-28 35 -70 54.5t-84 19.5q-23 0 -41 -6q-17 0 -49 -12q-45 -49 -68 -152v-18q-13 -130 -16 -308q0 -9 -2 -60.5t-2 -59.5l-72 -39 q3 11 6.5 61t3.5 72q11 79 11 252q0 27 1 39.5t1 23.5q0 42 -8.5 69.5t-30.5 63.5q-28 35 -71.5 54.5t-86.5 19.5q-21 0 -39 -6q-20 -3 -47 -14q-50 -50 -80 -197v-2q-16 -231 -20 -358q0 -4 -1 -13.5t-1 -13.5q0 -5 1 -14t1 -13z" />
<glyph unicode="n" horiz-adv-x="765" d="M90 -20q1 11 4 30t4 27q8 86 17 346q0 129 4 184q0 5 1 15.5t1 15.5q0 37 -8 64l86 47q-4 -31 -4 -95q122 86 223 86t164 -94q20 -27 27 -45.5t7 -50.5q0 -6 -1 -22t-1 -25q-13 -137 -16 -303v-49q2 -46 25 -60q13 -8 26 -8q16 0 56 20l-58 -49q-28 -14 -53 -14 q-22 0 -45 10q-9 5 -17 22.5t-8 37.5q0 6 4 29t4 30q11 77 11 250q0 27 1 40t1 25q0 41 -8.5 68t-30.5 61q-28 38 -71.5 57t-88.5 19q-25 0 -37 -4q-34 -8 -47 -16q-49 -46 -80 -199q-16 -241 -20 -358q0 -4 -1 -13t-1 -14q0 -4 1 -14t1 -15z" />
<glyph unicode="o" horiz-adv-x="714" d="M53 330q0 86 37 159q52 93 141 138q3 1 19.5 10t21 11t20 9t22 9.5t20 7.5t23 7t21.5 3.5t23 1.5q51 0 97 -24q56 -25 77 -54q41 -52 64 -159q6 -37 6 -78q0 -99 -43 -170q-46 -85 -164 -144q-34 -19 -49.5 -27t-46 -18t-55.5 -10q-13 0 -33 4q-83 21 -133 90 q-42 54 -60 148q-8 39 -8 86zM129 358q0 -92 35 -163q29 -69 96 -111q48 -25 96 -25q44 0 84 21q85 49 117 166q12 35 12 90q0 42 -10 94q-13 73 -55 127q-27 37 -69 59.5t-87 22.5q-75 0 -129 -51q-42 -39 -65 -97t-25 -120v-13z" />
<glyph unicode="p" horiz-adv-x="694" d="M63 57l70 47q6 0 10 -8q1 22 2 65.5t2 65.5q0 153 3 285v66l-9 -7q0 14 9 29q0 12 -5 62l84 69q0 -3 -6 -72q22 14 78 41q40 5 47 5q60 0 102.5 -21.5t98.5 -71.5q63 -83 69 -180q3 -21 3 -43q0 -43 -11 -115q-14 -57 -53 -112q-37 -49 -86 -86q-76 -58 -176 -74 q-16 0 -47 -1t-45 -1q-4 -88 -8 -260q-7 -95 -7 -232l-73 -61q2 17 8 121t8 121q10 188 10 323q-48 18 -78 45zM205 66q41 -9 55 -9h53q36 0 52 4q12 3 67 27q23 18 41 41q39 45 55 107q15 58 15 118q0 25 -2 37q-10 106 -62 174q-79 82 -172 82q-42 0 -67 -6 q-13 -13 -13 -25l-4 -2v-43q0 -82 -8 -258q-2 -76 -10 -247z" />
<glyph unicode="q" horiz-adv-x="716" d="M51 326q0 20 2 30q6 83 53 148q31 54 77 85.5t122 63.5q56 27 98 27q13 0 37 -4q37 -7 84 -33l66 55q-3 -24 -4 -51t-1 -59t-1 -49q0 -67 -9 -260q-1 -21 -2 -62.5t-2 -62.5l50 16q-13 -15 -52 -41q-12 -277 -14 -422q0 -15 -3 -116.5t-3 -114.5l-74 -60q4 19 9 113.5 t5 124.5q9 135 17 434q-14 -7 -41 -25q-3 -2 -19 -11t-21 -12t-20 -11t-22.5 -11t-21 -8.5t-23 -7.5t-21 -4t-22.5 -2h-21q-73 16 -102 45q-48 38 -63 72q-39 68 -43 112q-15 66 -15 101zM127 367q0 -44 14 -105q9 -60 43 -112q17 -30 64 -68q22 -18 52.5 -28.5t47.5 -10.5 q31 0 66 14q8 4 25 15.5t26 15.5q39 28 41 29v78q2 84 2 282q2 12 2 35q0 25 -2 37l-2 -2q-18 30 -57.5 54.5t-75.5 29.5q-8 2 -31 2t-76 -17q-16 -8 -20 -12q-42 -33 -66 -72q-42 -65 -51 -141q0 -4 -1 -12t-1 -12z" />
<glyph unicode="r" horiz-adv-x="608" d="M90 -20q1 11 4 30t4 27q8 86 17 346q4 166 4 207q0 38 -6 72l86 47q-2 -15 -3 -31.5t-1.5 -36.5t-1.5 -31q117 80 219 80t163 -90l-69 -47q-26 42 -71.5 64t-92.5 22q-15 0 -39 -4q-17 -2 -49 -14q-42 -45 -68 -152q-1 -5 -2 -14.5t-2 -14.5q-16 -241 -20 -368 q0 -4 -1 -13t-1 -14q0 -4 1 -14t1 -15z" />
<glyph unicode="s" horiz-adv-x="651" d="M70 195l80 41q3 -67 32 -119.5t84 -71.5q28 -12 78 -12q46 0 76 10q16 4 45 41t29 72q0 30 -12.5 51.5t-41.5 46.5q-39 33 -124.5 80t-122.5 76q-97 70 -97 129q0 12 2 18q16 74 158 117q86 22 145 22q52 0 95 -14q23 -6 41 -26t18 -42q0 -2 -1 -5.5t-1 -4.5 q-1 -4 -2.5 -19t-3 -22.5t-7 -16.5t-14.5 -11q-11 -7 -55 -17.5t-51 -13.5q2 2 15.5 16t21 23t15 22.5t7.5 24.5q0 8 -4 14q-34 51 -123 51q-99 0 -147 -41q-33 -29 -33 -57q0 -3 1 -7.5t1 -6.5q20 -47 59 -90t82 -66q21 -11 67.5 -29t81 -36.5t60.5 -45.5q41 -41 41 -90 q0 -43 -30 -73q-63 -78 -168 -111q-25 -10 -66 -10q-52 0 -100 22.5t-80 63.5q-45 55 -51 117z" />
<glyph unicode="t" horiz-adv-x="501" d="M51 606l64 47q58 -8 88 -8q0 132 2 152l74 41q0 -8 -1.5 -75.5t-1.5 -115.5q23 1 69 4t71 4q28 4 45 4l-58 -41q-5 0 -18 1.5t-18 1.5h-91q-4 -112 -6 -142q-1 -22 -10 -140t-10 -185q-2 -16 -2 -50q2 -44 24 -59q12 -6 27 -6q20 0 55 20l-59 -51q-28 -14 -51 -14t-43 10 q-9 3 -17 22t-8 40q0 13 3.5 30.5t4.5 26.5q12 113 17 303q2 41 2 195q-37 -1 -152 -15z" />
<glyph unicode="u" horiz-adv-x="755" d="M92 174q0 7 4 53q8 162 13 308q0 3 2.5 56t1.5 62l71 41q-6 -58 -12 -133q-8 -76 -8 -301q0 -52 8 -82t31 -65q27 -35 70.5 -54.5t86.5 -19.5q27 0 39 4q15 2 47 14q62 66 86 260q7 124 7 164v117q0 35 -2 53l81 43q-4 -33 -4 -94q0 -20 -8 -129q-15 -157 -24 -326v-49 q2 -43 26 -59q15 -6 27 -6q20 0 55 22l-59 -51q-32 -16 -51 -16q-15 0 -45 10q-25 17 -25 65v11q-115 -81 -217 -84h-8q-97 0 -162 94q-18 28 -24.5 45.5t-6.5 46.5z" />
<glyph unicode="v" horiz-adv-x="669" d="M47 641l86 53q31 -57 54.5 -132.5t33.5 -125.5t25 -141q5 -30 7.5 -98.5t12.5 -106.5q2 4 41 77.5t87.5 172t76.5 170.5q25 69 86 145l92 33q-65 -57 -110 -149q-22 -47 -65 -148t-79.5 -176t-79.5 -141q-48 -94 -75 -94q-24 0 -34.5 63.5t-12 140.5t-3.5 84 q-7 52 -11 79.5t-15.5 79t-25 84t-37.5 69.5t-54 61z" />
<glyph unicode="w" horiz-adv-x="1136" d="M47 668l86 53q73 -139 113 -402q5 -30 7.5 -98t12.5 -106q2 4 28 48.5t61 114t63 142.5q39 86 88 143l78 29l10 8q0 -2 2 -4q19 -36 32 -67.5t23 -73t13.5 -59.5t11.5 -76t10 -72q4 -25 4 -76q0 -27 10 -66q2 4 41 77t87.5 171t76.5 170q30 79 86 148l125 30 q-6 -5 -29 -25t-34 -30t-29.5 -27.5t-30.5 -34t-20 -32.5q-19 -41 -63.5 -146t-81 -179t-80.5 -140q-23 -48 -42.5 -71t-31.5 -23q-24 0 -33 48t-9 110.5t-1 68.5q-3 18 -7 55t-6.5 55t-9.5 48.5t-15.5 51t-24 45t-36.5 46.5q-31 -40 -47 -78q-23 -49 -51 -119.5t-52 -116 t-67 -110.5q-24 -47 -48.5 -71.5t-39.5 -24.5q-37 0 -37 164v94q0 55 -10 123.5t-45 155t-88 129.5z" />
<glyph unicode="x" horiz-adv-x="669" d="M53 -14l68 94q8 21 196 291q-39 83 -97 161t-116 123l91 60q18 -35 76 -132t85 -153l176 252l101 35q-42 -39 -254 -334q33 -72 39 -129q21 -112 127 -182l-27 -78h-1q-27 0 -63 51q-38 52 -63.5 106t-30.5 76q-2 29 -24 97q-131 -182 -211 -304q-43 -14 -72 -34z" />
<glyph unicode="y" d="M-45 -217q0 54 12 113l66 26q-29 -59 -29 -135q0 -46 10 -98q19 -93 70.5 -154t134.5 -61h19q78 13 148.5 81.5t117.5 174.5q12 35 18 89.5t7.5 102t2.5 53.5q1 10 3.5 33t3.5 33q2 18 2 49q-1 -1 -3 -2t-3 -2q-128 -90 -236 -90q-97 0 -162 94q-18 28 -24.5 45t-6.5 45 q0 18 3 53q7 98 14 310q2 16 2 123l74 36q-4 -18 -13 -133q-6 -64 -6 -217q0 -35 -1 -62.5t-1 -35.5q0 -42 8 -69t29 -64q28 -35 71.5 -54.5t86.5 -19.5q17 0 37 4q13 1 49 17q29 30 53.5 98t34.5 160q0 10 1 29.5t1 31.5v178q2 14 2 41q0 40 -2 58l80 45q-2 -19 -2.5 -55.5 t-1.5 -47.5q0 -42 -9 -166q-3 -39 -8.5 -114.5t-9.5 -136.5t-6 -117q-1 -9 -1 -27.5t-1 -28.5q0 -34 -12.5 -122.5t-32.5 -145.5q-35 -82 -87 -145.5t-105 -96.5t-97.5 -49t-77.5 -16q-87 0 -140.5 62t-72.5 157q-10 65 -10 123z" />
<glyph unicode="z" horiz-adv-x="765" d="M78 -12l10 14h-4l6 4l55 76q7 17 169 252.5t227 324.5q-8 0 -23 1.5t-22 1.5q-63 0 -125 -5t-161 -18t-128 -16l100 86q86 -9 172 -9q74 0 170 7q41 2 121 2h2l-16 -15q-48 -55 -195 -260t-248 -354q10 0 31 1t33 1l262 -19q28 1 94 1.5t94 1.5l-104 -70q-52 9 -143 20 q-123 13 -174 13q-93 0 -168 -19q-8 -4 -35 -22z" />
<glyph unicode="{" horiz-adv-x="573" d="M70 281q1 0 11 1t18.5 4t17.5 9q24 15 37 37q30 46 30 108q0 16 -2.5 34.5t-4.5 31t-8.5 35t-9 31t-11 35t-9.5 30.5q-14 61 -14 102q0 152 131 250q59 35 92.5 53t86.5 34.5t104 17.5l-88 -68q-6 2 -17 2q-12 0 -30.5 -3.5t-31.5 -7.5t-33 -10.5t-24 -7.5 q-104 -85 -104 -223q0 -44 12 -94q3 -12 18.5 -63t22 -83.5t6.5 -64.5q0 -58 -24 -102q-39 -52 -103 -90q51 -29 90 -84q27 -45 27 -103q0 -32 -6.5 -64.5t-22 -83.5t-18.5 -63q-12 -49 -12 -94q0 -137 102 -223q4 -1 33 -10t50 -14t38 -5q10 0 14 2l88 -67q-50 1 -101.5 17 t-86 34.5t-92.5 52.5q-131 96 -131 250q0 41 14 102q4 13 14 46.5t15.5 52.5t10.5 47t5 51q0 61 -31 108q-15 21 -30 31q-15 13 -43 19z" />
<glyph unicode="|" horiz-adv-x="221" d="M68 -336q2 11 5 54.5t5.5 90.5t3.5 54q4 70 7 196.5t5.5 274t3.5 196.5q8 352 8 443q0 28 -4 82l80 59q-2 -25 -2.5 -71t-1.5 -60q0 -44 -6 -208t-6 -173q-11 -220 -23 -694q0 -13 -3 -97.5t-3 -97.5z" />
<glyph unicode="}" horiz-adv-x="614" d="M74 1094q51 -2 104 -19t85.5 -34.5t92.5 -53.5q131 -98 131 -250q0 -39 -14 -100q-1 -4 -8.5 -26.5t-9.5 -29.5t-8 -27t-8 -30.5t-5.5 -27t-4.5 -30.5t-1 -28q0 -61 31 -108q10 -17 37 -37q9 -6 17.5 -9t18.5 -4t11 -1q-28 -6 -43 -17q-17 -12 -31 -31q-31 -47 -31 -108 q0 -23 5 -51.5t10 -47.5t16 -53.5t14 -46.5q15 -66 15 -100q0 -154 -131 -250q-57 -34 -92.5 -52.5t-87 -35t-101.5 -18.5l88 67q4 -2 14 -2q35 0 119 31q105 86 105 221q0 42 -13 96q-3 13 -18.5 63t-22 83t-6.5 65q0 56 27 101q35 51 90 83q-62 37 -102 93q-25 46 -25 100 q0 32 6.5 65t22 83t18.5 63q12 50 12 96q0 136 -104 221q-84 31 -119 31q-12 0 -16 -2z" />
<glyph unicode="~" horiz-adv-x="540" d="M33 309q-1 1 1 1q20 31 71 98q18 21 41 34t38 13q28 0 70 -38q14 -12 28.5 -39.5t24.5 -38.5q40 -42 66 -42q-3 0 -8 -4q15 4 27 11t27 19.5t24 18.5q31 29 67 66q-5 3 4 7q7 4 7 0q0 -2 -1 -3q-25 -38 -60 -79q-4 -5 -13.5 -17.5t-13 -16.5t-11.5 -13t-13 -13 t-13.5 -9.5t-17 -8.5t-18.5 -6q-8 -4 -9 -4q-19 0 -36 9q-20 10 -41.5 44.5t-28.5 42.5q-26 32 -59 53q-22 11 -43 11q-15 0 -26 -10q-6 -9 -21 -28.5t-20 -28.5q-2 -2 -31 -23q-9 -9 -12 -6z" />
<glyph unicode="&#xa1;" horiz-adv-x="221" d="M39 1083l70 33q38 -49 75 -80l-80 -41q-17 40 -65 88zM41 -41q4 43 4 133q0 37 4 109t4 108q0 80 10.5 239.5t10.5 239.5v70l71 51q-8 -54 -8 -78q0 -78 -8 -224.5t-8 -225.5q0 -36 -1 -118t-1 -118q0 -21 1 -63t1 -62z" />
<glyph unicode="&#xa2;" horiz-adv-x="598" d="M51 334q0 20 2 28q6 82 53 150q31 55 77.5 87t121.5 63q50 26 96 26q21 0 39 -6q59 -9 131 -66l-65 -63q-18 30 -57.5 54.5t-75.5 29.5q-20 4 -29 4q-39 0 -84 -20q-2 -1 -7 -4.5t-7 -4.5q-43 -34 -66 -71q-41 -64 -51 -144q0 -4 -1 -11t-1 -11q0 -47 14 -105 q8 -56 43 -112q4 -7 9 -14t12.5 -14.5t12.5 -12t15.5 -14.5t14.5 -13q22 -18 53 -28.5t49 -10.5q24 0 66 17q21 10 49 28q64 46 74 56l82 26q-29 -29 -72 -53q-16 -12 -84 -53q-10 -5 -40 -21.5t-46.5 -24.5t-42.5 -16t-47 -8q-22 0 -57 11.5t-60 33.5q-51 47 -63 74 q-38 63 -43 112q-15 62 -15 101zM203 -233q2 9 5 43.5t5.5 71.5t3.5 43q4 56 7.5 156t6 220t3.5 156q8 280 8 352q0 23 -4 65l81 48q-2 -19 -2.5 -56.5t-1.5 -48.5q0 -35 -6 -165.5t-6 -137.5q-11 -174 -23 -553q0 -10 -3 -77.5t-3 -77.5z" />
<glyph unicode="&#xa3;" horiz-adv-x="790" d="M-12 645l63 47l106 -3q3 19 13 97.5t18 114.5q3 12 8.5 38t7.5 34.5t7 28t7.5 27l7.5 22.5t10 24.5t11.5 21.5t14.5 25q20 32 56.5 53.5t76.5 22.5q0 2 2 2q31 0 72 -18q65 -38 102 -162q-7 -5 -27.5 -17t-31.5 -20q0 15 -23 72q-22 48 -46 72t-66 24q-19 -1 -26.5 -6 t-18.5 -25.5t-21 -34.5q-16 -32 -41 -143q-6 -27 -19.5 -75t-21.5 -86t-10 -76l-1 -16q66 1 134 9q14 2 45 2l-57 -43q-10 2 -37 2h-86l-29 -593q23 6 47.5 13.5t36.5 11t30.5 6.5t41 2t57.5 -5q12 1 40 -8.5t49 -19.5l22 -9q135 20 186 49l-69 -63q-15 -15 -37.5 -22.5 t-33.5 -8.5t-47 1.5t-40 2.5q-17 1 -60.5 16t-66.5 15q-53 0 -153.5 -24t-124.5 -27l-11 -8q0 4 2 6q-12 0 -16 -2l18 14q1 11 34 37.5t32 40.5q-3 114 10.5 285t14.5 249q0 20 3 41h-49q-35 -2 -116 -14z" />
<glyph unicode="&#xa4;" horiz-adv-x="974" d="M68 180q0 35 25.5 60.5t60.5 25.5t60.5 -25.5t25.5 -60.5t-25.5 -60.5t-60.5 -25.5t-60.5 25.5t-25.5 60.5zM151 800q0 35 26 60.5t61 25.5t60.5 -25.5t25.5 -60.5t-25.5 -60.5t-60.5 -25.5t-61 25.5t-26 60.5zM213 445q0 68 31 126q20 33 60 65t80 51q74 34 110 39 q13 2 26 2q43 0 81 -19q51 -23 66 -42q33 -40 53 -126q5 -32 5 -62q0 -98 -36 -134q-15 -15 -32 -37.5t-32.5 -37t-40.5 -26.5q-116 -58 -174 -58q-4 0 -21 4t-22 4q-17 0 -31.5 7t-22 13t-22.5 23t-21 23q-31 31 -50 117q-7 32 -7 68zM291 470q0 -73 30 -130q25 -54 81 -87 q38 -19 80 -19q11 0 37.5 15.5t56 35.5t35.5 23q23 13 31 27.5t7 45.5q0 12 -1 34t-1 34q0 32 -9 75q-11 58 -46 100q-20 27 -30 38.5t-31 24t-45 12.5q-32 0 -51 -7t-41 -27q-39 -34 -70.5 -87.5t-32.5 -98.5v-9zM647 174q0 35 25.5 60.5t60.5 25.5t60.5 -25.5t25.5 -60.5 t-25.5 -60.5t-60.5 -25.5t-60.5 25.5t-25.5 60.5zM725 800q0 35 25.5 60.5t60.5 25.5t60.5 -25.5t25.5 -60.5t-25.5 -60.5t-60.5 -25.5t-60.5 25.5t-25.5 60.5z" />
<glyph unicode="&#xa5;" horiz-adv-x="751" d="M20 285l76 69q61 -8 146 -8q44 0 75 -2q0 27 2 41v94q-151 0 -286 -22l76 67q61 -8 145 -8q39 0 68 -2v82q0 45 -5 70h2l-20 32q-19 31 -59 109t-75.5 131.5t-80.5 93.5l98 86q28 -58 83.5 -195.5t90.5 -205.5q109 203 166 346l127 49q-61 -58 -112 -149l-142 -256l4 2 q-4 -33 -4 -107q0 -28 -4 -90q13 1 101.5 7.5t141.5 9.5t77 1l-68 -63q-29 1 -98 4.5t-99 3.5q-9 1 -28 2t-29 2q0 -7 -1 -20.5t-1 -20.5l-6 -96q33 1 105 6.5t130.5 9t81.5 2.5l-67 -63q-41 0 -114.5 4t-82.5 4q-18 2 -57 2l-12 -229v-53l-70 -37q1 8 4 27t4 30 q4 48 14 264q-165 0 -297 -24z" />
<glyph unicode="&#xa6;" horiz-adv-x="380" d="M160 -276l69 75q-8 61 -8 146q0 34 -6 108q1 29 11.5 172t9.5 176l-64 -67q0 -41 4 -114.5t4 -82.5q4 -74 4 -117q0 -161 -24 -296zM164 557l69 76q-8 61 -8 145q0 36 -6 109q1 29 11.5 172t9.5 176l-64 -68q0 -41 4 -113.5t4 -82.5q4 -74 4 -117q0 -162 -24 -297z" />
<glyph unicode="&#xa7;" horiz-adv-x="555" d="M10 203l80 41q3 -67 32.5 -119.5t84.5 -71.5q28 -12 78 -12q45 0 75 10q16 4 45 41t29 72q0 31 -12.5 52t-40.5 46q-39 33 -125 80t-123 76q-96 62 -96 129q0 12 2 18q16 74 158 117q55 14 90 18q-90 48 -131 80q-97 70 -97 129q0 13 2 19q15 72 158 116q90 23 146 23 q51 0 94 -14q23 -6 41 -26t18 -42q0 -2 -1 -5.5t-1 -4.5q-1 -4 -2.5 -19t-3 -23t-7 -17t-14.5 -11q-11 -7 -55 -17.5t-51 -13.5q1 2 15 16.5t21.5 23t15 22.5t7.5 25q0 8 -4 14q-34 51 -123 51q-99 0 -147 -41q-33 -29 -33 -57q0 -3 1 -8t1 -7q20 -46 59 -88.5t83 -66.5 q12 -6 49 -20.5t67 -29t62.5 -36t51.5 -51t19 -64.5q0 -44 -30 -74q-62 -76 -168 -110q-2 -1 -6 -2t-6 -2q36 -14 54 -21.5t45.5 -25t47.5 -37.5q41 -41 41 -90q0 -43 -31 -74q-63 -78 -168 -111q-25 -10 -65 -10q-52 0 -100.5 22.5t-80.5 63.5q-45 55 -51 117zM113 565 q0 -3 1 -7.5t1 -6.5q36 -84 111 -137q39 -11 81 -11q43 0 76 11q17 4 45.5 40.5t28.5 71.5q0 30 -13 52t-41 47q-21 19 -55 40q-8 0 -26.5 -0.5t-28.5 -0.5q-100 0 -148 -41q-32 -28 -32 -58z" />
<glyph unicode="&#xa8;" horiz-adv-x="665" d="M25 838l81 39q19 -37 68 -86l-72 -35q-49 58 -77 82zM446 840l82 39q19 -37 68 -86l-72 -35q-46 54 -78 82z" />
<glyph unicode="&#xa9;" horiz-adv-x="1077" d="M70 518q0 104 34.5 201t100.5 170q60 70 178 131q9 4 36 17.5t39.5 19t36.5 15.5t41 14.5t39 9t43 4.5q70 0 134 -31q97 -44 141 -90q60 -82 94 -238q17 -67 17 -145q0 -161 -72 -287q-69 -122 -236 -213q-11 -6 -48.5 -26t-55 -28.5t-48 -20t-57.5 -17.5q-24 -6 -51 -6 q-68 0 -139 41q-113 61 -166 190q-61 134 -61 289zM147 543q0 -93 23 -172q50 -162 145 -242q71 -63 197 -63q32 0 86 8q122 20 203 137q46 66 81.5 158.5t39.5 167.5q2 10 2 28q0 178 -82 324q-41 74 -127 113.5t-183 39.5q-103 0 -176 -55q-49 -38 -93.5 -94t-65.5 -109 q-50 -109 -50 -241zM307 539q0 20 2 28q6 82 53 150q31 54 77 85.5t122 63.5q52 27 96 27q21 0 39 -6q59 -9 131 -66l-65 -63q-18 30 -57.5 54.5t-75.5 29.5q-20 4 -29 4q-37 0 -84 -21q-2 -1 -7 -4t-7 -4q-42 -33 -66 -72q-41 -64 -51 -143q0 -4 -1 -11t-1 -11 q0 -47 14 -105q8 -57 43 -113q5 -9 13 -18.5t14 -15t19.5 -17.5t17.5 -16q22 -18 53 -28.5t49 -10.5q26 0 66 16q13 6 49 29q7 5 23.5 16t28.5 20t22 19l82 27q-29 -29 -72 -53q-20 -16 -84 -54q-8 -4 -39.5 -21t-47 -24.5t-42 -15.5t-47.5 -8q-22 0 -57 11.5t-60 33.5 q-51 47 -63 74q-38 63 -43 112q-15 62 -15 101z" />
<glyph unicode="&#xaa;" horiz-adv-x="673" d="M53 473l59 68q51 -8 116 -8q28 0 87 -6q15 1 131.5 10.5t143.5 7.5l-54 -60q-33 0 -91 4t-64 4q-58 4 -92 4q-131 0 -236 -24zM99 870q0 4 1 12t1 12q8 68 43 111q34 58 116 99t129 41q45 0 78 -19l66 33q-3 -14 -4 -40.5t-1 -31.5q0 -66 -13.5 -179t-15.5 -171 q0 -1 3 -0.5t3 -1.5l59 19q-6 -5 -22.5 -12.5t-28 -15t-11.5 -16.5q0 -15 -2 -7q0 1 -1 3v1q0 -1 3 -2t3 -3q5 -41 8.5 -45.5t31.5 -4.5q19 0 44 17l-50 -31q-27 -11 -43 -11q-26 0 -41 11t-14 36q-7 -5 -8 -6q-82 -38 -141 -38h-11q-8 1 -22.5 2.5t-23 3t-19.5 5.5t-19 11 q-40 32 -52 54q-46 75 -46 164zM168 905q0 -69 21.5 -121t52.5 -77.5t57.5 -37t45.5 -11.5q26 0 40.5 4.5t31 16t27.5 16.5q4 16 4 17q4 40 7.5 98t4.5 103.5t2 87t1 44.5q-18 24 -53.5 42t-72.5 18q-71 0 -115.5 -55t-53.5 -127v-18zM411 673q1 1 5 1q-4 0 -5 -1z" />
<glyph unicode="&#xab;" horiz-adv-x="776" d="M17 489q0 1 13.5 13l31.5 28t25 22q17 17 82 75t98 99q5 7 18 21t21 25.5t13 23.5l99 52q-5 -14 -12 -25t-25.5 -30.5t-19.5 -20.5q-36 -40 -100.5 -100t-81.5 -76q-5 -5 -19 -21t-25 -29.5t-11 -14.5q35 -35 51 -50q24 -24 64.5 -69.5t73 -74.5t76.5 -55q38 -20 70 -24 l-93 -58q-50 12 -67 28q-37 30 -117 114t-131 119q-1 1 -10.5 6.5t-16.5 11.5t-7 10zM280 492q0 1 13.5 13l31.5 28t25 22q19 19 83.5 76t97.5 97l17.5 21t20.5 26t13 23l100 53q-5 -14 -12.5 -25t-26 -31t-19.5 -21q-36 -40 -101.5 -101t-79.5 -75q-5 -5 -19 -21t-25 -29.5 t-11 -14.5q34 -35 50 -50q24 -24 64.5 -69.5t73 -74.5t76.5 -55q38 -20 70 -24l-92 -58q-51 13 -68 28q-37 30 -117 114t-131 119q-1 1 -10.5 7t-16.5 12t-7 10z" />
<glyph unicode="&#xac;" horiz-adv-x="706" d="M127 330l49 69q43 -8 98 -8q24 0 74 -6q12 1 110.5 10.5t121.5 7.5v-4q1 -11 2.5 -18t2 -9.5t1 -6t0.5 -9.5q0 -55 8 -98l-70 -49q5 18 7.5 29.5t3.5 24t1 20t-0.5 26t-0.5 33.5q-28 0 -78 4t-54 4q-50 4 -77 4q-110 0 -199 -24z" />
<glyph unicode="&#xad;" horiz-adv-x="706" d="M127 330l49 69q43 -8 98 -8q24 0 74 -6q12 1 110.5 10.5t121.5 7.5l-45 -61q-28 0 -78 4t-54 4q-50 4 -77 4q-110 0 -199 -24z" />
<glyph unicode="&#xae;" horiz-adv-x="1077" d="M70 518q0 104 34.5 201t100.5 170q60 70 178 131q9 4 36 17.5t39.5 19t36.5 15.5t41 14.5t39 9t43 4.5q70 0 134 -31q97 -44 141 -90q60 -82 94 -238q17 -67 17 -145q0 -161 -72 -287q-69 -122 -236 -213q-11 -6 -48.5 -26t-55 -28.5t-48 -20t-57.5 -17.5q-24 -6 -51 -6 q-68 0 -139 41q-113 61 -166 190q-61 134 -61 289zM147 543q0 -93 23 -172q50 -162 145 -242q71 -63 197 -63q32 0 86 8q122 20 203 137q46 66 81.5 158.5t39.5 167.5q2 10 2 28q0 178 -82 324q-41 74 -127 113.5t-183 39.5q-103 0 -176 -55q-49 -38 -93.5 -94t-65.5 -109 q-50 -109 -50 -241zM334 170q6 42 7 64q5 81 11 347l-2 234v68l77 63q-3 -16 -3 -50q57 36 107 52q10 1 26 1q67 0 113 -41q32 -34 39 -84v-19q0 -29 -6 -54q-6 -24 -30 -51q-31 -31 -83 -45l-9 -4.5t-15 -7t-14 -5.5q64 -168 84 -233q18 -67 34 -96.5t73 -97.5l-65 -24 q-54 78 -67.5 104.5t-32.5 96.5q-14 40 -23 87.5t-22.5 78.5t-49.5 75q-8 -2 -67 -12q-12 -280 -13 -333q-1 -10 -1 -30q0 -18 1 -28zM416 618q135 33 150 41q48 22 65 63q7 22 7 49v22q-8 56 -35 82q-37 37 -92 37q-33 0 -41 -3q-5 -4 -6 -11l-40 -16q0 -30 -1 -46 q0 -61 -6 -181q0 -7 -0.5 -19t-0.5 -18z" />
<glyph unicode="&#xaf;" horiz-adv-x="602" d="M62 804l58 72q54 -9 113 -9q27 0 84 -6q23 1 133 11.5t136 9.5l-52 -65q-32 0 -88.5 4t-63.5 4q-58 4 -91 4q-126 0 -229 -25z" />
<glyph unicode="&#xb0;" horiz-adv-x="286" d="M108 1005q0 27 10 47q7 13 28.5 32t34.5 25q32 17 49 17q15 0 28 -7q19 -10 23 -15q9 -12 18 -47q2 -14 2 -22q0 -28 -13 -50q-19 -35 -50 -51q-45 -24 -63 -24q-5 0 -14 3q-19 5 -34 25q-11 14 -17 42q-2 8 -2 25zM151 1031q0 -26 10 -47q8 -19 28 -32q14 -8 28 -8 q6 0 28 11q13 7 13 27q0 4 -0.5 12t-0.5 13q0 13 -3 27q-3 19 -16 37q-1 1 -3 4l-3 4.5t-3 4t-3 3.5l-3 3t-3.5 3t-3.5 2.5t-4 2t-4.5 1t-5.5 0.5q-19 0 -32 -13q-17 -15 -19 -51v-4z" />
<glyph unicode="&#xb1;" horiz-adv-x="763" d="M49 569l74 70q63 -8 147 -8q51 0 92 -4q0 19 -4 55q0 27 -3 93.5t-3 103.5l62 67q2 -24 -1 -78.5t-10 -138.5t-8 -102q31 1 107 6.5t138 9t85 2.5l-68 -63q-41 0 -113.5 4t-82.5 4q-20 2 -66 2q4 -49 4 -123q0 -39 9 -125l-68 -76q25 154 22 326q-166 0 -313 -25zM57 143 l74 81q64 -9 147 -9q32 0 110 -8q21 1 166.5 13t178.5 9l-67 -71q-41 0 -112.5 4.5t-83.5 4.5q-92 5 -116 5q-161 0 -297 -29z" />
<glyph unicode="&#xb2;" horiz-adv-x="653" d="M56 641l59 62q40 -6 67 -6h42q35 0 45 -1q37 12 77.5 33.5t48.5 36.5q32 51 38 97q4 31 4 70q0 32 -3 65q-12 96 -57 150q-22 25 -35.5 30.5t-54.5 5.5q-30 0 -46 -4q-8 -2 -25.5 -4t-27.5 -5q-8 -11 -8 -23l-65 -43q-2 11 10 32q58 63 109 88q10 5 31.5 6t27.5 2 q16 3 31 3q63 -8 78 -15t29 -30q49 -54 62 -153q5 -37 5 -69q0 -30 -5 -68q-7 -55 -34 -101q-24 -43 -63 -68q-32 -21 -91 -36q259 13 291 12l-54 -56q-25 0 -52.5 1t-58.5 3t-46 3q-56 4 -93 4q-126 0 -236 -22z" />
<glyph unicode="&#xb3;" horiz-adv-x="657" d="M24 454l72 35q57 -35 123 -35q92 0 106 3q7 1 19 4.5t27 8.5t22 7q28 15 41 28q56 54 68 89q13 36 13 84q0 20 -2 29q-9 80 -61 128q-62 50 -182 50q-42 0 -69 -5q-13 -11 -13 -17l-88 -33q0 10 17 27q73 43 145 65q30 5 55 5q10 0 42 12q14 7 26 19q29 29 36 53 q8 30 8 56q0 14 -2 20q-5 55 -40 86q-35 29 -109 40q-16 2 -43 -3q-8 -5 -8 -12l-57 -22q0 6 10 18q49 32 94 44q13 3 35 3q63 0 125 -45q37 -40 45 -89v-18q0 -36 -6 -60q-9 -29 -34 -54q-19 -21 -55 -36q-28 -9 -39 -11l-13 -3l6 2q81 -6 170 -69q61 -61 70 -130 q0 -4 0.5 -14t0.5 -16q0 -35 -11 -86q-11 -43 -52 -82q-27 -27 -84 -53q-4 -1 -71.5 -30t-106.5 -34q-16 -1 -92 -1q-69 0 -138 42z" />
<glyph unicode="&#xb4;" horiz-adv-x="260" d="M14 805q-1 -11 1 -23t6 -24t7 -19t8 -18l6 -11l82 35q-4 4 -11.5 11t-12 11t-10 12t-9.5 17q-5 8 -5 21q4 57 113 143l-74 -31q-3 -3 -20 -17.5t-31 -28t-28.5 -31.5t-18.5 -31q-3 -6 -3 -16z" />
<glyph unicode="&#xb5;" horiz-adv-x="673" d="M10 -551l70 49q0 13 3 97.5t3 97.5q2 80 10 348q53 -53 127 -53h8q103 3 218 84v-11q0 -49 24 -65q30 -10 45 -10q19 0 51 16l60 51q-35 -22 -56 -22q-11 0 -26 6q-25 16 -27 59v49q8 147 25 326q8 109 8 129q0 61 4 94l-82 -43q2 -18 2 -53v-117q0 -58 -6 -164 q-24 -194 -86 -260q-33 -12 -47 -14q-12 -4 -39 -4q-44 0 -87.5 19.5t-70.5 54.5q-21 33 -29 60.5t-9 71.5q3 91 6 142q0 17 -5 19q2 105 7 155q6 75 12 133l-72 -41q1 -9 -1.5 -62t-2.5 -56q-7 -207 -12 -308q-4 -46 -4 -53q0 -30 7 -50q-7 -384 -13 -476q-1 -6 -4 -54 t-6 -91t-5 -54z" />
<glyph unicode="&#xb6;" horiz-adv-x="880" d="M53 905v27q11 74 58 121q70 59 170 59q24 0 36 -2q7 -2 59.5 -10.5t74.5 -22.5v6v-1q1 -2 1 -4l76 48q0 -4 -1 -14.5t-2.5 -26t-2.5 -22.5q23 -2 64 -16t54 -16q0 7 -1 30.5t-2 30.5l80 59q-8 -87 -4 -131q3 -63 0.5 -120.5t-7.5 -148t-6 -112.5q0 -26 0.5 -122 t1.5 -136.5t4 -115t9.5 -132.5t17.5 -113l-69 -49q-14 133 -20 200.5t-9.5 170.5t-1.5 225l8 427q-14 5 -59 17t-64 19l-1 -22q-3 -47 -3 -56q0 -8 1 -24.5t1 -24.5q2 -88 2 -285q9 -407 17 -538q1 -18 8.5 -42t9.5 -38l-78 -53q1 14 0.5 39.5t-1.5 61.5t-1 40q0 29 -2 43 q-6 262 -18 518q-167 25 -222 41q-36 8 -72 27.5t-53 36.5q-35 41 -45 73q-8 33 -8 78zM119 870q0 -40 10 -69q12 -30 34 -51t64 -39q28 -13 226 -60q0 18 -4 54q0 21 -3.5 115.5t-3.5 144.5q-2 23 -2 84q-8 2 -21 4t-23.5 5.5t-24.5 10.5q-12 4 -62 4q-81 0 -137 -53 q-42 -39 -53 -117v-33z" />
<glyph unicode="&#xb7;" horiz-adv-x="260" d="M59 381l82 39q19 -37 68 -86l-72 -35q-46 55 -78 82z" />
<glyph unicode="&#xb8;" horiz-adv-x="598" d="M70 -311q4 -52 41 -98q25 -35 64 -54t80 -19q31 0 52 9q75 14 134 111q25 27 25 63q0 25 -33 75q-23 35 -61 61.5t-50 39.5q-27 31 -36.5 63.5t-2.5 80.5l-56 2q-2 -5 -4 -13t-6.5 -30.5t-6.5 -40.5t1 -36.5t13 -25.5q33 -28 74.5 -71.5t67.5 -66.5q42 -39 42 -83 q0 -29 -15 -45.5t-30 -19.5q-60 -20 -74 -20q-42 0 -62 10q-44 16 -67.5 60.5t-25.5 100.5q-8 -4 -32 -26.5t-32 -26.5z" />
<glyph unicode="&#xb9;" horiz-adv-x="190" d="M67 621q1 8 3.5 25.5t3.5 25.5q6 68 13 297l1 184q0 47 -1 56l64 37q-4 -39 -4 -86l-6 -142l-18 -318v-46z" />
<glyph unicode="&#xba;" horiz-adv-x="659" d="M53 473l59 68q51 -8 116 -8q28 0 87 -6q15 1 131.5 10.5t143.5 7.5l-54 -60q-33 0 -91 4t-64 4q-58 4 -92 4q-131 0 -236 -24zM78 886q0 70 30 126q20 33 60.5 65.5t79.5 51.5q31 14 45.5 20.5t40.5 13t50 6.5q43 0 81 -19q51 -23 66 -42q33 -40 53 -126q5 -32 5 -61 q0 -99 -36 -135q-15 -15 -32 -37.5t-32.5 -37t-40.5 -26.5q-116 -58 -174 -58q-4 0 -21 4.5t-22 4.5q-17 0 -31.5 7t-22 13t-22.5 23t-21 23q-31 31 -50 116q-6 28 -6 68zM156 911q0 -74 29 -129q26 -56 81 -88q38 -19 81 -19q11 0 37 15.5t55.5 35.5t35.5 24q23 13 31 27 t7 45q0 12 -1 34.5t-1 34.5q0 31 -9 74q-11 58 -46 100q-20 27 -30 38.5t-31 24t-45 12.5q-32 0 -51 -7t-41 -26q-39 -34 -70 -87.5t-32 -98.5v-10z" />
<glyph unicode="&#xbb;" horiz-adv-x="776" d="M17 790l93 58q50 -12 67 -28q37 -30 117 -114t131 -119q1 -1 10.5 -6.5t16.5 -11.5t7 -10q0 -1 -13.5 -13l-31.5 -28t-25 -22q-17 -17 -82 -75t-98 -99q-5 -7 -18 -21t-21 -25.5t-13 -23.5l-99 -52q5 14 12 25t25.5 30.5t19.5 20.5q36 40 101.5 101t79.5 75q5 5 19 21 t25.5 30t11.5 15q-35 34 -51 49q-24 24 -64.5 69.5t-73 74.5t-76.5 55q-38 20 -70 24zM280 792l93 59q49 -12 68 -29q37 -30 116.5 -114t130.5 -119q1 -1 10.5 -6.5t16.5 -11.5t7 -10q0 -1 -13.5 -13l-31.5 -28t-25 -22q-18 -18 -82.5 -75.5t-97.5 -97.5q-5 -7 -18 -21 t-21 -25.5t-13 -23.5l-99 -53q4 11 11 22t12.5 18t17.5 19.5t16 17.5q35 39 99 98t83 77q5 5 19 21t25 30t11 15q-35 34 -51 49q-24 24 -64.5 69.5t-73 75t-76.5 55.5q-36 19 -70 23z" />
<glyph unicode="&#xbc;" horiz-adv-x="948" d="M4 -4q6 8 44 57.5t56 77.5l353 492l321 432l107 28l-168 -204q-348 -448 -635 -852q-35 -10 -78 -31zM205 521q1 8 3 25t3 25q6 67 13 298l2 184q0 38 -2 56l64 37q-3 -29 -3 -86l-6 -142q-16 -238 -18 -318v-47zM343 37l5 3l-5 -1q45 60 50 70q32 51 170 254 q138 193 162 223l28 1l39 31q-2 -8 -2 -34q-1 -14 -1 -88q-1 -32 -3.5 -100t-3.5 -104l-11 -199q114 6 142 3l-57 -51q-14 1 -43 1.5t-43 1.5q-1 -34 -3.5 -101.5t-3.5 -101.5v-65l-59 -48q1 13 3.5 36t3.5 36q9 150 11 248h-31q-31 3 -98 3q-129 0 -250 -18zM422 89 q36 -3 54 -3q7 0 21.5 1t24.5 1q2 0 58 -4q7 0 142 7q1 22 1.5 66.5t1.5 67.5q1 34 1 110.5t1 110.5v63l-16 -22q-156 -199 -289 -398z" />
<glyph unicode="&#xbd;" horiz-adv-x="1034" d="M4 -4q6 8 44 57.5t56 77.5l353 492l321 432l107 28l-168 -204q-348 -448 -635 -852q-35 -10 -78 -31zM205 521q1 8 3 25t3 25q6 67 13 298l2 184q0 38 -2 56l64 37q-3 -29 -3 -86l-6 -142q-16 -238 -18 -318v-47zM456 11l59 62q40 -6 67 -6h43q34 0 44 -1 q37 12 77.5 33.5t48.5 36.5q32 51 38 97q5 38 5 70t-3 65q-12 95 -58 150q-22 25 -35.5 30.5t-54.5 5.5q-30 0 -46 -4q-8 -2 -25 -4t-27 -5q-8 -11 -8 -23l-66 -43q-2 11 10 32q57 62 110 88q10 5 31.5 6t27.5 2q16 3 31 3q44 -6 63.5 -11t25.5 -11t17 -23q50 -55 63 -153 q5 -37 5 -69q0 -30 -5 -68q-7 -53 -35 -101q-24 -44 -62 -68q-31 -21 -92 -36q260 13 292 12l-54 -56q-25 0 -52.5 1t-58.5 3t-46 3q-56 4 -94 4q-126 0 -236 -22z" />
<glyph unicode="&#xbe;" horiz-adv-x="1161" d="M4 409l71 35q57 -35 123 -35q93 0 107 3q7 1 19 4.5t27 8.5t22 7q26 14 40 28q56 54 68 89q13 36 13 84q0 25 -1 29q-9 79 -62 128q-62 50 -181 50q-43 0 -70 -5q-13 -11 -13 -17l-87 -33q0 11 16 27q72 43 146 65q30 5 55 5q10 0 42 12q14 7 26 19q27 27 35 53 q8 30 8 56q0 17 -1 20q-5 54 -41 86q-35 29 -108 40q-17 2 -44 -3q-8 -5 -8 -12l-56 -22q0 7 9 18q49 32 94 44q13 3 36 3q62 0 124 -45q38 -42 46 -89v-18q0 -32 -7 -60q-9 -29 -34 -54q-19 -21 -55 -36q-28 -9 -39 -11l-13 -3l7 2q81 -6 170 -69q59 -59 69 -131 q0 -4 1 -13.5t1 -15.5q0 -35 -11 -86q-11 -43 -52 -82q-27 -27 -84 -53q-4 -1 -71.5 -30t-106.5 -34q-16 -1 -93 -1q-68 0 -137 42zM217 -16q6 8 44 57.5t56 77.5l353 491l321 432l107 29l-168 -205q-348 -448 -635 -852q-41 -12 -78 -30zM556 25l5 3l-5 -2q42 57 50 71 q32 51 170 254q131 182 162 222l28 2l39 31q-2 -8 -2 -34q-1 -14 -1 -89q-1 -32 -3.5 -99.5t-3.5 -103.5l-11 -200q121 6 142 4l-57 -51q-14 1 -43 1.5t-43 1.5q-1 -34 -3.5 -102t-3.5 -101v-66l-59 -47q1 13 3.5 36.5t3.5 35.5q9 150 11 247h-31q-41 4 -98 4 q-129 0 -250 -18zM635 77q36 -3 54 -3q7 0 21.5 0.5t24.5 0.5q16 0 58 -3q7 0 142 7q1 22 1.5 66.5t1.5 67.5q1 34 1 110.5t1 110.5v62l-16 -21q-156 -199 -289 -398z" />
<glyph unicode="&#xbf;" horiz-adv-x="899" d="M109 207q0 107 63 192q21 28 83 94.5t89 108.5q42 61 47 232q41 21 84 45q0 -9 1 -29.5t1 -30.5q0 -110 -35 -168q-24 -42 -87.5 -106.5t-69.5 -71.5q-86 -100 -86 -217q0 -17 2 -25q6 -99 84 -151q110 -68 211 -68q47 0 96 19q18 7 47.5 40.5t48.5 73.5q5 10 10.5 30 t12.5 34.5t18 21.5l88 50q-6 -14 -20 -50t-22.5 -55.5t-24.5 -45.5t-35 -44q-70 -64 -160.5 -98.5t-171.5 -34.5q-88 0 -170 61q-104 77 -104 193zM356 1063l70 35q41 -52 76 -82l-80 -39q-16 36 -66 86z" />
<glyph unicode="&#xc0;" horiz-adv-x="1171" d="M6 -10q17 15 54 82.5t69 133t69.5 144.5t39.5 84q50 112 157.5 297.5t184.5 298.5q40 82 88 82q40 0 129 -405h49l-41 -37q23 -125 33 -166q11 -95 73 -204t199 -269l-88 -51q-124 195 -175 297t-65 200q-9 59 -53 187q-41 6 -74 6q-27 2 -86 2q-95 0 -159 -10 q-83 -136 -105 -199q-173 -398 -209 -440zM430 700q18 -2 57 -2q23 0 73 1t73 1q22 0 42.5 -1t29 -1t16.5 2q-52 167 -92 314q-2 -5 -32 -50.5t-79 -122t-88 -141.5zM508 1403q0 31 35 92l80 -41q-4 -3 -15.5 -11.5t-19 -16.5t-12.5 -19q-6 -9 -6 -21q0 -56 102 -151l-72 37 l-18.5 18.5t-29 30t-26.5 33.5t-16 32q-2 4 -2 17z" />
<glyph unicode="&#xc1;" horiz-adv-x="1171" d="M6 -10q17 15 54 82.5t69 133t69.5 144.5t39.5 84q50 112 157.5 297.5t184.5 298.5q40 82 88 82q40 0 129 -405h49l-41 -37q23 -125 33 -166q11 -95 73 -204t199 -269l-88 -51q-124 195 -175 297t-65 200q-9 59 -53 187q-41 6 -74 6q-27 2 -86 2q-95 0 -159 -10 q-83 -136 -105 -199q-173 -398 -209 -440zM430 700q18 -2 57 -2q23 0 73 1t73 1q22 0 42.5 -1t29 -1t16.5 2q-52 167 -92 314q-2 -5 -32 -50.5t-79 -122t-88 -141.5zM644 1329q-1 -11 1 -23t6 -23.5t7 -19t8.5 -17.5t5.5 -11l83 35q-3 3 -14.5 12.5t-18 18t-11.5 19.5 q-4 6 -4 21q4 58 113 144l-74 -32q-1 -1 -27.5 -23.5t-46.5 -44.5t-25 -39q-3 -6 -3 -17z" />
<glyph unicode="&#xc2;" horiz-adv-x="1171" d="M6 -10q17 15 54 82.5t69 133t69.5 144.5t39.5 84q50 112 157.5 297.5t184.5 298.5q40 82 88 82q40 0 129 -405h49l-41 -37q23 -125 33 -166q11 -95 73 -204t199 -269l-88 -51q-124 195 -175 297t-65 200q-9 59 -53 187q-41 6 -74 6q-27 2 -86 2q-95 0 -159 -10 q-83 -136 -105 -199q-173 -398 -209 -440zM410 1235l70 65q44 9 112 60t101 63q53 -42 170 -92q28 -11 73 -22l-61 -54q-2 1 -72 25q-97 32 -176 78q-22 -12 -97 -59t-120 -64zM430 700q18 -2 57 -2q23 0 73 1t73 1q22 0 42.5 -1t29 -1t16.5 2q-52 167 -92 314 q-2 -5 -32 -50.5t-79 -122t-88 -141.5z" />
<glyph unicode="&#xc3;" horiz-adv-x="1171" d="M6 -10q17 15 54 82.5t69 133t69.5 144.5t39.5 84q50 112 157.5 297.5t184.5 298.5q40 82 88 82q40 0 129 -405h49l-41 -37q23 -125 33 -166q11 -95 73 -204t199 -269l-88 -51q-124 195 -175 297t-65 200q-9 59 -53 187q-41 6 -74 6q-27 2 -86 2q-95 0 -159 -10 q-83 -136 -105 -199q-173 -398 -209 -440zM430 700q18 -2 57 -2q23 0 73 1t73 1q22 0 42.5 -1t29 -1t16.5 2q-52 167 -92 314q-2 -5 -32 -50.5t-79 -122t-88 -141.5zM432 1299q-1 1 1 1q15 24 72 98q18 21 40.5 34t37.5 13q29 0 71 -38q14 -12 28 -39.5t24 -38.5 q40 -42 66 -42q-3 0 -8 -4q15 4 27.5 11t27.5 20t24 19q40 37 67 65q-6 3 5 9q5 2 5 -1t-1 -4q-25 -38 -60 -79q-2 -3 -13 -17t-13.5 -16.5t-11.5 -12.5t-13.5 -13t-13 -9t-17 -9t-18.5 -6q-2 -1 -3.5 -3t-5.5 -2q-18 0 -35 9q-20 11 -42 45t-29 42q-27 33 -58 53 q-22 11 -43 11q-17 0 -27 -9q-5 -9 -20.5 -29t-20.5 -29q-2 -2 -31 -23q-9 -9 -12 -6z" />
<glyph unicode="&#xc4;" horiz-adv-x="1171" d="M6 -10q17 15 54 82.5t69 133t69.5 144.5t39.5 84q50 112 157.5 297.5t184.5 298.5q40 82 88 82q40 0 129 -405h49l-41 -37q23 -125 33 -166q11 -95 73 -204t199 -269l-88 -51q-124 195 -175 297t-65 200q-9 59 -53 187q-41 6 -74 6q-27 2 -86 2q-95 0 -159 -10 q-83 -136 -105 -199q-173 -398 -209 -440zM388 1317l82 39q19 -37 68 -86l-72 -35q-46 55 -78 82zM430 700q18 -2 57 -2q23 0 73 1t73 1q22 0 42.5 -1t29 -1t16.5 2q-52 167 -92 314q-2 -5 -32 -50.5t-79 -122t-88 -141.5zM810 1319l82 39q19 -37 68 -86l-72 -35 q-46 55 -78 82z" />
<glyph unicode="&#xc5;" horiz-adv-x="1171" d="M6 -10q17 15 54 82.5t69 133t69.5 144.5t39.5 84q50 112 157.5 297.5t184.5 298.5q40 82 88 82q40 0 129 -405h49l-41 -37q23 -125 33 -166q11 -95 73 -204t199 -269l-88 -51q-124 195 -175 297t-65 200q-9 59 -53 187q-41 6 -74 6q-27 2 -86 2q-95 0 -159 -10 q-83 -136 -105 -199q-173 -398 -209 -440zM430 700q18 -2 57 -2q23 0 73 1t73 1q22 0 42.5 -1t29 -1t16.5 2q-52 167 -92 314q-2 -5 -32 -50.5t-79 -122t-88 -141.5zM575 1200q0 24 11 46q7 13 28 32t34 25q34 18 49 18t28 -7q18 -9 23 -16q10 -12 18 -46q2 -14 2 -23 q0 -29 -12 -49q-19 -35 -51 -52q-43 -23 -62 -23q-6 0 -15 3q-18 5 -33 24q-12 15 -18 43q-2 8 -2 25zM618 1226q0 -24 11 -48q8 -19 28 -32q13 -7 27 -7q6 0 28 11q13 7 13 27v25q0 14 -3 27q-3 19 -16 37q-19 27 -37 27q-20 0 -32 -12q-17 -15 -19 -52v-3z" />
<glyph unicode="&#xc6;" horiz-adv-x="837" d="M-360 16q17 15 54 82t69 133.5t68.5 144.5t39.5 85q50 112 157.5 297.5t184.5 298.5q21 44 57 63t60 19q8 0 21 -51q16 -1 44 -1q7 0 20 1t22 1t31 -2t37 -3l367 18l-70 -71q-37 0 -102.5 4t-78.5 5q-70 4 -112 4q-41 0 -145 -9l1 -6q20 -126 30 -294q3 0 9 -2l14 -6 q14 -6 15 -6q8 0 22.5 1t23.5 1q16 0 38 -4q17 0 77 7.5t87 7.5h17l-47 -67q-26 0 -45.5 4.5t-34.5 4.5q-50 4 -79 4q-19 0 -51.5 -6.5t-42.5 -7.5q3 -116 6 -136q-5 -113 21 -215t120 -241q38 1 115.5 7t137 9.5t81.5 1.5l-80 -63q-41 1 -129.5 4.5t-93.5 3.5q-12 1 -36 -2 t-32 -3l-48 -26q-54 114 -81 209.5t-31.5 149t-3.5 139.5q0 57 -23 186q-39 6 -73 6q-26 2 -45 2q-96 0 -160 -10q-80 -132 -104 -199q-173 -398 -209 -440zM63 727q18 -2 58 -2q23 0 72 1t73 1q33 -4 52 0q-37 243 -56 313q-2 -5 -32 -50.5t-79 -121.5t-88 -141z" />
<glyph unicode="&#xc7;" horiz-adv-x="1011" d="M70 524q0 25 2 37q3 143 98 287q71 114 244 190q9 4 35 17t37 18t34 14t38.5 12.5t38 7t44.5 3.5q21 0 45 -6q102 -16 209 -105l-90 -86q-3 4 -30.5 28t-69 54t-68.5 41q-53 17 -96 17q-34 0 -88 -15q-74 -17 -140 -86q-130 -144 -153 -274q-8 -52 -8 -127q0 -71 8 -115 q14 -88 54.5 -171t100.5 -138q11 -11 26.5 -20t26.5 -14.5t34 -12.5t29.5 -8.5t35.5 -8t31 -6.5q10 -4 34 -4q34 0 91 17q12 4 98 53q13 9 42 28.5t51 36t40 33.5q16 7 48 17.5t40 13.5q-18 -18 -41 -31q-21 -16 -44 -32t-50 -32.5l-45 -27.5t-51 -30t-47 -27 q-8 -4 -32.5 -16.5t-35 -18t-32.5 -14.5t-37 -13.5t-35 -8t-39 -3.5q-88 3 -162 47q-51 37 -90 84q-12 12 -24 28.5t-18 28t-18 36t-16 32.5q-30 67 -39 145q-16 62 -16 125zM255 -318q4 -52 41 -98q25 -35 63.5 -54t79.5 -19q32 0 53 9q75 14 134 111q24 25 24 62 q0 26 -33 76q-23 35 -61 60.5t-50 39.5q-27 31 -36.5 63.5t-2.5 81.5l-55 1q-2 -5 -4 -13t-7 -30t-6.5 -40t1 -36.5t12.5 -25.5q33 -28 74.5 -71.5t67.5 -66.5q43 -40 43 -83q0 -29 -15.5 -45.5t-30.5 -19.5q-60 -20 -73 -20q-42 0 -62 10q-44 16 -68 60.5t-26 100.5 q-8 -4 -31.5 -26t-31.5 -27z" />
<glyph unicode="&#xc8;" horiz-adv-x="937" d="M102 -12l19 16q0 2 2 29.5t4 42.5q10 154 14 538q1 43 2 141.5t2 141.5v51q0 66 -4 101l82 69v-26l4 4q71 -9 90 -9q8 0 23.5 1.5t24.5 1.5q10 0 34 -2t41 -3q21 1 195 9.5t209 7.5l-70 -66q-42 0 -118 4t-83 4q-97 5 -124 5q-111 0 -228 -13q0 -50 -2 -73l-4 -250 q41 -8 70 -8q10 0 28.5 1t30.5 1q28 0 64 -5q22 0 123.5 7.5t136.5 7.5h22l-53 -64q-29 0 -82.5 4.5t-73.5 4.5q-66 4 -102 4q-84 0 -170 -13q-14 -302 -19 -524q-4 -24 -4 -37q0 -11 4 -35q56 -6 123.5 -6t126.5 -6q18 0 169.5 11t187.5 7l-70 -63q-40 1 -111.5 4t-91.5 4 q-74 4 -118 4q-159 0 -279 -20l-12 -8q0 4 4 6q-13 0 -17 -2zM404 1409q0 31 35 92l79 -41q-4 -3 -15.5 -11.5t-19 -16.5t-12.5 -19q-6 -9 -6 -20q0 -56 103 -152l-72 37q-3 3 -18.5 19t-29 30t-26.5 33.5t-16 32.5q-2 4 -2 16z" />
<glyph unicode="&#xc9;" horiz-adv-x="937" d="M102 -12l19 16q0 2 2 29.5t4 42.5q10 154 14 538q1 43 2 141.5t2 141.5v51q0 66 -4 101l82 69v-26l4 4q71 -9 90 -9q8 0 23.5 1.5t24.5 1.5q10 0 34 -2t41 -3q21 1 195 9.5t209 7.5l-70 -66q-42 0 -118 4t-83 4q-97 5 -124 5q-111 0 -228 -13q0 -50 -2 -73l-4 -250 q41 -8 70 -8q10 0 28.5 1t30.5 1q28 0 64 -5q22 0 123.5 7.5t136.5 7.5h22l-53 -64q-29 0 -82.5 4.5t-73.5 4.5q-66 4 -102 4q-84 0 -170 -13q-14 -302 -19 -524q-4 -24 -4 -37q0 -11 4 -35q56 -6 123.5 -6t126.5 -6q18 0 169.5 11t187.5 7l-70 -63q-40 1 -111.5 4t-91.5 4 q-74 4 -118 4q-159 0 -279 -20l-12 -8q0 4 4 6q-13 0 -17 -2zM388 1336q-1 -11 1 -23t6 -24t7 -19t8 -18l6 -11l83 35q-3 3 -14.5 13t-18 18.5t-11.5 19.5q-4 6 -4 20q4 58 113 144l-74 -31l-27 -24q-27 -23 -47 -45t-25 -39q-3 -6 -3 -16z" />
<glyph unicode="&#xca;" horiz-adv-x="937" d="M102 -12l19 16q0 2 2 29.5t4 42.5q10 154 14 538q1 43 2 141.5t2 141.5v51q0 66 -4 101l82 69v-26l4 4q71 -9 90 -9q8 0 23.5 1.5t24.5 1.5q10 0 34 -2t41 -3q21 1 195 9.5t209 7.5l-70 -66q-42 0 -118 4t-83 4q-97 5 -124 5q-111 0 -228 -13q0 -50 -2 -73l-4 -250 q41 -8 70 -8q10 0 28.5 1t30.5 1q28 0 64 -5q22 0 123.5 7.5t136.5 7.5h22l-53 -64q-29 0 -82.5 4.5t-73.5 4.5q-66 4 -102 4q-84 0 -170 -13q-14 -302 -19 -524q-4 -24 -4 -37q0 -11 4 -35q56 -6 123.5 -6t126.5 -6q18 0 169.5 11t187.5 7l-70 -63q-40 1 -111.5 4t-91.5 4 q-74 4 -118 4q-159 0 -279 -20l-12 -8q0 4 4 6q-13 0 -17 -2zM220 1241l69 66q44 9 112 60t101 63q55 -44 170 -93q27 -11 74 -22l-61 -53q-37 12 -72 24q-97 32 -176 78q-22 -12 -97 -59t-120 -64z" />
<glyph unicode="&#xcb;" horiz-adv-x="937" d="M102 -12l19 16q0 2 2 29.5t4 42.5q10 154 14 538q1 43 2 141.5t2 141.5v51q0 66 -4 101l82 69v-26l4 4q71 -9 90 -9q8 0 23.5 1.5t24.5 1.5q10 0 34 -2t41 -3q21 1 195 9.5t209 7.5l-70 -66q-42 0 -118 4t-83 4q-97 5 -124 5q-111 0 -228 -13q0 -50 -2 -73l-4 -250 q41 -8 70 -8q10 0 28.5 1t30.5 1q28 0 64 -5q22 0 123.5 7.5t136.5 7.5h22l-53 -64q-29 0 -82.5 4.5t-73.5 4.5q-66 4 -102 4q-84 0 -170 -13q-14 -302 -19 -524q-4 -24 -4 -37q0 -11 4 -35q56 -6 123.5 -6t126.5 -6q18 0 169.5 11t187.5 7l-70 -63q-40 1 -111.5 4t-91.5 4 q-74 4 -118 4q-159 0 -279 -20l-12 -8q0 4 4 6q-13 0 -17 -2zM202 1324l82 38q19 -36 68 -83l-72 -34q-47 53 -78 79zM624 1326l82 38q20 -38 67 -83l-71 -34q-47 53 -78 79z" />
<glyph unicode="&#xcc;" horiz-adv-x="335" d="M64 1407q0 31 35 92l79 -41q-4 -3 -15.5 -11.5t-19 -16.5t-12.5 -19q-6 -9 -6 -20q0 -56 103 -152l-72 37q-3 3 -18.5 19t-29 30t-26.5 33.5t-16 32.5q-2 4 -2 16zM115 -16q8 55 10 88q7 109 16 542q0 197 2 281q0 8 1 25.5t1 25.5q0 52 -6 101l84 69q-2 -24 -3 -50 t-1.5 -57t-1.5 -48q0 -89 -8 -261q-18 -440 -21 -573q-2 -14 -2 -43q0 -27 2 -41z" />
<glyph unicode="&#xcd;" horiz-adv-x="335" d="M115 -16q8 55 10 88q7 109 16 542q0 197 2 281q0 8 1 25.5t1 25.5q0 52 -6 101l84 69q-2 -24 -3 -50t-1.5 -57t-1.5 -48q0 -89 -8 -261q-18 -440 -21 -573q-2 -14 -2 -43q0 -27 2 -41zM200 1333q-1 -11 1 -23t6 -23.5t7 -19t8.5 -17.5t5.5 -11l82 35q-4 4 -11.5 10.5 t-12 11t-10.5 12t-9 16.5q-5 8 -5 21q4 58 113 144l-74 -32l-27 -23q-27 -23 -46.5 -45t-24.5 -39q-3 -6 -3 -17z" />
<glyph unicode="&#xce;" horiz-adv-x="335" d="M-34 1239l69 66q44 9 112 59.5t101 62.5q53 -42 170 -92q26 -11 74 -22l-61 -53q-37 12 -72 24q-97 32 -176 78q-22 -12 -97 -59t-120 -64zM115 -16q8 55 10 88q7 109 16 542q0 197 2 281q0 8 1 25.5t1 25.5q0 52 -6 101l84 69q-2 -24 -3 -50t-1.5 -57t-1.5 -48 q0 -89 -8 -261q-18 -440 -21 -573q-2 -14 -2 -43q0 -27 2 -41z" />
<glyph unicode="&#xcf;" horiz-adv-x="335" d="M-56 1321l82 39q20 -39 67 -86l-71 -35q-46 55 -78 82zM115 -16q8 55 10 88q7 109 16 542q0 197 2 281q0 8 1 25.5t1 25.5q0 52 -6 101l84 69q-2 -24 -3 -50t-1.5 -57t-1.5 -48q0 -89 -8 -261q-18 -440 -21 -573q-2 -14 -2 -43q0 -27 2 -41zM366 1323l82 39 q20 -39 67 -86l-71 -35q-46 54 -78 82z" />
<glyph unicode="&#xd0;" horiz-adv-x="1015" d="M-33 633l49 69q43 -8 99 -8q23 0 73 -6q13 1 111 11t121 8l-45 -62q-28 0 -77.5 4t-53.5 4q-50 4 -78 4q-110 0 -199 -24zM70 862q21 21 45 33q2 2 49 37q0 78 -4 117l82 71q-1 -24 -2 -70.5t-2 -70.5q40 20 112 63q4 2 24 13t26 14l24 12t26.5 12t25 9t28 8.5t26.5 5 t29 2.5q97 -7 164 -49q46 -32 90 -82q12 -12 23.5 -29t18.5 -29.5t18 -34.5l16 -32q30 -67 39 -145q16 -69 16 -133q0 -5 -1 -15.5t-1 -15.5q-6 -146 -100 -287q-67 -107 -240 -190q-17 -7 -49 -21.5t-47 -20.5t-39.5 -14t-46.5 -11t-47 -3t-43 6q-69 9 -123 43v-10l-72 -59 q2 15 5 45t5 45v18q-15 12 -24 23l26 26q10 193 13 471l4 285q-13 -7 -28.5 -13t-35.5 -13t-30 -11zM209 199q3 -2 24 -19.5t43.5 -35.5t51.5 -37t49 -27q53 -17 96 -17q42 0 86 13q74 19 141 86q127 141 154 274q8 52 8 123q0 74 -8 121q-16 87 -56 170t-100 139 q-10 9 -21 17t-25.5 14.5t-24.5 10.5t-28.5 9t-26.5 7t-29.5 6.5t-26.5 5.5q-16 4 -24 4q-40 0 -101 -16q-13 -4 -100 -54q-19 -17 -53 -37q0 -48 -4 -136t-5 -120q-3 -81 -10 -248t-10 -253z" />
<glyph unicode="&#xd1;" horiz-adv-x="878" d="M117 -10q2 16 5 45t5 45q10 156 14 541q1 42 2 140.5t2 141.5v49q0 52 -6 101l6 4q-3 2 -5.5 4.5t-5 5.5t-3.5 4l80 41l12 12v-4l6 2q18 -79 47.5 -164.5t70 -190t59.5 -159.5q83 -282 264 -520q7 106 16 530q2 84 2 283q2 18 2 55q0 31 -4 97l82 67q-4 -51 -4 -155 q-1 -46 -4 -134t-4 -129q-2 -42 -11.5 -251t-13.5 -322v-82l-72 -59q3 6 3 12l-7 -4q-208 333 -293 584q-11 29 -40 112t-52.5 140t-50.5 108q-1 -38 -4 -116t-4 -119q-20 -474 -23 -572v-43v-41zM215 1311q-1 2 1 2q12 19 72 97q18 21 40.5 34t37.5 13q29 0 71 -38 q14 -12 28 -39t24 -38q41 -43 66 -43q-3 0 -8 -4q15 4 27 11t27 20t24 19q49 45 68 65q-6 3 5 9q5 2 5 -1q0 -2 -1 -3q-25 -38 -60 -79q-4 -5 -13.5 -17.5t-13 -16.5t-11.5 -13t-13 -13t-13.5 -9.5t-17 -8.5t-18.5 -6q-2 -1 -3.5 -3t-5.5 -2q-19 0 -36 9q-20 10 -41.5 44.5 t-28.5 42.5q-26 32 -59 53q-22 11 -43 11q-16 0 -26 -9q-6 -9 -20.5 -29t-20.5 -29q-2 -2 -31 -23q-9 -9 -12 -6z" />
<glyph unicode="&#xd2;" horiz-adv-x="1077" d="M70 518q0 104 34.5 201t100.5 170q60 70 178 131q9 4 36 17.5t39.5 19t36.5 15.5t41 14.5t39 9t43 4.5q70 0 134 -31q97 -44 141 -90q60 -82 94 -238q17 -67 17 -145q0 -161 -72 -287q-69 -122 -236 -213q-11 -6 -48.5 -26t-55 -28.5t-48 -20t-57.5 -17.5q-24 -6 -51 -6 q-68 0 -139 41q-113 61 -166 190q-61 134 -61 289zM147 543q0 -93 23 -172q50 -162 145 -242q71 -63 197 -63q32 0 86 8q122 20 203 137q46 66 81.5 158.5t39.5 167.5q2 10 2 28q0 178 -82 324q-41 74 -127 113.5t-183 39.5q-103 0 -176 -55q-49 -38 -93.5 -94t-65.5 -109 q-50 -109 -50 -241zM459 1391q0 31 35 92l80 -41q-4 -3 -15.5 -11.5t-19 -16.5t-12.5 -19q-7 -11 -7 -21q0 -55 103 -151l-72 37l-18.5 18.5t-29 30t-26.5 33.5t-16 32q-2 4 -2 17z" />
<glyph unicode="&#xd3;" horiz-adv-x="1077" d="M70 518q0 104 34.5 201t100.5 170q60 70 178 131q9 4 36 17.5t39.5 19t36.5 15.5t41 14.5t39 9t43 4.5q70 0 134 -31q97 -44 141 -90q60 -82 94 -238q17 -67 17 -145q0 -161 -72 -287q-69 -122 -236 -213q-11 -6 -48.5 -26t-55 -28.5t-48 -20t-57.5 -17.5q-24 -6 -51 -6 q-68 0 -139 41q-113 61 -166 190q-61 134 -61 289zM147 543q0 -93 23 -172q50 -162 145 -242q71 -63 197 -63q32 0 86 8q122 20 203 137q46 66 81.5 158.5t39.5 167.5q2 10 2 28q0 178 -82 324q-41 74 -127 113.5t-183 39.5q-103 0 -176 -55q-49 -38 -93.5 -94t-65.5 -109 q-50 -109 -50 -241zM595 1317q-1 -11 1 -23t6 -23.5t7 -19t8.5 -17.5t5.5 -11l83 35q-3 3 -14.5 12.5t-18 18t-11.5 19.5q-5 8 -5 21q4 58 114 144l-75 -32q-3 -3 -20 -17.5t-31 -28t-28.5 -31.5t-18.5 -31q-3 -6 -3 -16z" />
<glyph unicode="&#xd4;" horiz-adv-x="1077" d="M70 518q0 104 34.5 201t100.5 170q60 70 178 131q9 4 36 17.5t39.5 19t36.5 15.5t41 14.5t39 9t43 4.5q70 0 134 -31q97 -44 141 -90q60 -82 94 -238q17 -67 17 -145q0 -161 -72 -287q-69 -122 -236 -213q-11 -6 -48.5 -26t-55 -28.5t-48 -20t-57.5 -17.5q-24 -6 -51 -6 q-68 0 -139 41q-113 61 -166 190q-61 134 -61 289zM147 543q0 -93 23 -172q50 -162 145 -242q71 -63 197 -63q32 0 86 8q122 20 203 137q46 66 81.5 158.5t39.5 167.5q2 10 2 28q0 178 -82 324q-41 74 -127 113.5t-183 39.5q-103 0 -176 -55q-49 -38 -93.5 -94t-65.5 -109 q-50 -109 -50 -241zM361 1223l70 65q44 9 112 60t101 63q53 -42 170 -92q34 -14 73 -23l-61 -53q-2 1 -72 25q-97 32 -176 78q-22 -12 -97 -59t-120 -64z" />
<glyph unicode="&#xd5;" horiz-adv-x="1077" d="M70 518q0 104 34.5 201t100.5 170q60 70 178 131q9 4 36 17.5t39.5 19t36.5 15.5t41 14.5t39 9t43 4.5q70 0 134 -31q97 -44 141 -90q60 -82 94 -238q17 -67 17 -145q0 -161 -72 -287q-69 -122 -236 -213q-11 -6 -48.5 -26t-55 -28.5t-48 -20t-57.5 -17.5q-24 -6 -51 -6 q-68 0 -139 41q-113 61 -166 190q-61 134 -61 289zM147 543q0 -93 23 -172q50 -162 145 -242q71 -63 197 -63q32 0 86 8q122 20 203 137q46 66 81.5 158.5t39.5 167.5q2 10 2 28q0 178 -82 324q-41 74 -127 113.5t-183 39.5q-103 0 -176 -55q-49 -38 -93.5 -94t-65.5 -109 q-50 -109 -50 -241zM383 1287q-1 1 1 1q20 31 71 98q18 21 41 34t38 13q28 0 70 -38q14 -12 28.5 -39.5t24.5 -38.5q40 -42 66 -42q1 0 -4 -2.5t-4 -2.5q15 4 27 11t27 20t24 19q31 29 67 66q-5 3 4 7q7 4 7 0q0 -2 -1 -3q-25 -38 -60 -79q-4 -5 -13.5 -17.5t-13 -16.5 t-11.5 -13t-13 -13t-13.5 -9.5t-17 -8.5t-18.5 -6q-8 -4 -9 -4q-19 0 -36 9q-20 10 -41.5 44.5t-28.5 42.5q-26 32 -59 53q-22 11 -43 11q-15 0 -26 -10q-5 -9 -20 -28.5t-21 -28.5q-2 -2 -31 -23q-9 -9 -12 -6z" />
<glyph unicode="&#xd6;" horiz-adv-x="1077" d="M70 518q0 104 34.5 201t100.5 170q60 70 178 131q9 4 36 17.5t39.5 19t36.5 15.5t41 14.5t39 9t43 4.5q70 0 134 -31q97 -44 141 -90q60 -82 94 -238q17 -67 17 -145q0 -161 -72 -287q-69 -122 -236 -213q-11 -6 -48.5 -26t-55 -28.5t-48 -20t-57.5 -17.5q-24 -6 -51 -6 q-68 0 -139 41q-113 61 -166 190q-61 134 -61 289zM147 543q0 -93 23 -172q50 -162 145 -242q71 -63 197 -63q32 0 86 8q122 20 203 137q46 66 81.5 158.5t39.5 167.5q2 10 2 28q0 178 -82 324q-41 74 -127 113.5t-183 39.5q-103 0 -176 -55q-49 -38 -93.5 -94t-65.5 -109 q-50 -109 -50 -241zM290 1305l82 38q19 -37 68 -86l-72 -34q-46 55 -78 82zM712 1307l82 39q20 -39 67 -86l-71 -35q-46 54 -78 82z" />
<glyph unicode="&#xd7;" horiz-adv-x="768" d="M115 141q23 17 53.5 48.5t64.5 68.5t47 50q36 36 68 62q-6 6 -13 12t-15.5 13t-13.5 11l-179 188l82 -12q18 -15 44.5 -46t61.5 -75t56 -68q20 22 59 67t68.5 77.5t46.5 48.5l90 12l-192 -184q-11 -9 -47 -45q32 -27 89 -84q100 -100 150 -140l-115 9q-16 22 -36 52.5 t-31.5 47.5t-33 42t-48.5 51q-16 -16 -28.5 -29.5t-26 -29.5t-20.5 -24t-22 -28t-18 -24.5t-21.5 -31t-21.5 -30.5z" />
<glyph unicode="&#xd8;" horiz-adv-x="1077" d="M70 518q0 104 34.5 201t100.5 170q60 70 178 131q9 4 36 17.5t39.5 19t36.5 15.5t41 14.5t39 9t43 4.5q70 0 134 -31q97 -44 141 -90q60 -82 94 -238q17 -67 17 -145q0 -161 -72 -287q-69 -122 -236 -213q-11 -6 -48.5 -26t-55 -28.5t-48 -20t-57.5 -17.5q-24 -6 -51 -6 q-68 0 -139 41q-113 61 -166 190q-61 134 -61 289zM92 4q9 12 46 60t55 75l352 492l321 432l107 29l-168 -205q-348 -448 -635 -852q-35 -10 -78 -31zM147 543q0 -93 23 -172q50 -162 145 -242q71 -63 197 -63q32 0 86 8q122 20 203 137q46 66 81.5 158.5t39.5 167.5 q2 10 2 28q0 178 -82 324q-41 74 -127 113.5t-183 39.5q-103 0 -176 -55q-49 -38 -93.5 -94t-65.5 -109q-50 -109 -50 -241z" />
<glyph unicode="&#xd9;" horiz-adv-x="839" d="M109 301q0 18 3 52t8 137t9 272q2 13 4.5 165.5t1.5 166.5l72 36q0 -14 -6.5 -167.5t-7.5 -176.5q-13 -104 -13 -430q0 -57 20.5 -122t47.5 -105q58 -78 170 -78q50 0 88 10q8 2 25 8.5t24 8.5q63 71 86 260v-4q4 162 6 282q2 86 2 283q0 113 -2 162l82 72 q-4 -33 -5 -100t-1 -70t-6 -261q-22 -520 -23 -573v-84l-71 -57q1 13 4 43t4 45v22l-2 -2q-59 -39 -152.5 -65.5t-146.5 -26.5q-96 0 -162 92q-24 35 -41.5 92t-17.5 113zM348 1423q0 32 35 93l80 -41q-3 -3 -15 -12t-19.5 -17t-12.5 -19q-6 -9 -6 -20q0 -57 102 -152 l-71 37l-19 19t-29.5 30.5t-26.5 33.5t-16 32q-2 4 -2 16z" />
<glyph unicode="&#xda;" horiz-adv-x="839" d="M109 301q0 18 3 52t8 137t9 272q2 13 4.5 165.5t1.5 166.5l72 36q0 -14 -6.5 -167.5t-7.5 -176.5q-13 -104 -13 -430q0 -57 20.5 -122t47.5 -105q58 -78 170 -78q50 0 88 10q8 2 25 8.5t24 8.5q63 71 86 260v-4q4 162 6 282q2 86 2 283q0 113 -2 162l82 72 q-4 -33 -5 -100t-1 -70t-6 -261q-22 -520 -23 -573v-84l-71 -57q1 13 4 43t4 45v22l-2 -2q-59 -39 -152.5 -65.5t-146.5 -26.5q-96 0 -162 92q-24 35 -41.5 92t-17.5 113zM382 1350q-1 -11 1 -23t6 -24t7 -19t8 -18l6 -11l83 35q-3 3 -14.5 13t-18 18.5t-11.5 19.5 q-5 7 -5 21q4 57 114 143l-75 -31q-3 -3 -20 -17.5t-31 -28t-28.5 -31.5t-18.5 -31q-3 -6 -3 -16z" />
<glyph unicode="&#xdb;" horiz-adv-x="839" d="M109 301q0 18 3 52t8 137t9 272q2 13 4.5 165.5t1.5 166.5l72 36q0 -14 -6.5 -167.5t-7.5 -176.5q-13 -104 -13 -430q0 -57 20.5 -122t47.5 -105q58 -78 170 -78q50 0 88 10q8 2 25 8.5t24 8.5q63 71 86 260v-4q4 162 6 282q2 86 2 283q0 113 -2 162l82 72 q-4 -33 -5 -100t-1 -70t-6 -261q-22 -520 -23 -573v-84l-71 -57q1 13 4 43t4 45v22l-2 -2q-59 -39 -152.5 -65.5t-146.5 -26.5q-96 0 -162 92q-24 35 -41.5 92t-17.5 113zM189 1255l70 66q44 9 112 60t101 63q53 -42 170 -92q34 -14 73 -23l-61 -53q-38 12 -72 24 q-97 32 -176 78q-22 -12 -97 -59t-120 -64z" />
<glyph unicode="&#xdc;" horiz-adv-x="839" d="M109 301q0 18 3 52t8 137t9 272q2 13 4.5 165.5t1.5 166.5l72 36q0 -14 -6.5 -167.5t-7.5 -176.5q-13 -104 -13 -430q0 -57 20.5 -122t47.5 -105q58 -78 170 -78q50 0 88 10q8 2 25 8.5t24 8.5q63 71 86 260v-4q4 162 6 282q2 86 2 283q0 113 -2 162l82 72 q-4 -33 -5 -100t-1 -70t-6 -261q-22 -520 -23 -573v-84l-71 -57q1 13 4 43t4 45v22l-2 -2q-59 -39 -152.5 -65.5t-146.5 -26.5q-96 0 -162 92q-24 35 -41.5 92t-17.5 113zM151 1337l82 39q20 -39 67 -86l-71 -35q-46 55 -78 82zM573 1339l82 39q20 -39 67 -86l-71 -35 q-46 54 -78 82z" />
<glyph unicode="&#xdd;" horiz-adv-x="634" d="M-12 1057l102 88q32 -63 87.5 -204.5t88.5 -207.5q107 187 172 359q57 19 131 47q-55 -50 -116 -152q-85 -159 -146 -262h4q-2 -19 -2.5 -57.5t-1.5 -49.5q0 -59 -8 -169q-19 -292 -23 -369v-53l-73 -39q11 50 12 59q5 57 14 348q1 18 1.5 84.5t2.5 98.5q0 71 -4 104 q-19 32 -20 33q-16 29 -46.5 88t-50 94.5t-53.5 81.5t-71 78zM226 1362q-1 -11 1 -23t6 -23.5t7 -19t8.5 -17.5t5.5 -11l83 35q-3 3 -14.5 12.5t-18 18t-11.5 19.5q-4 6 -4 21q4 58 113 144l-74 -32q-3 -3 -20 -17.5t-31 -28t-28.5 -31.5t-18.5 -31q-4 -8 -4 -16z" />
<glyph unicode="&#xde;" horiz-adv-x="589" d="M53 -12q8 65 10 92q8 131 17 538q0 197 2 285q0 8 1 24.5t1 24.5q0 52 -6 101l84 69q-4 -23 -4 -331q74 46 123 59q12 2 36 2q100 0 170 -59q61 -61 70 -121v-27q0 -114 -8 -147q-4 -12 -12 -24t-24.5 -29t-20.5 -21q-17 -17 -53 -36.5t-72 -27.5q-172 -49 -215 -73 q-1 -15 -9.5 -43t-15.5 -113q-2 -28 -2 -43q0 -27 2 -41zM145 322q202 48 226 59q42 18 64 39t34 51q2 7 9 21.5t10.5 26t3.5 22.5v102q-9 64 -66 117q-56 53 -137 53q-22 -1 -31 -3.5t-15.5 -7t-17.5 -7.5l-67 -25q0 -42 -2 -65q0 -72 -6 -330q-5 -45 -5 -53z" />
<glyph unicode="&#xdf;" horiz-adv-x="727" d="M94 -10q12 88 15 178q4 89 7 277.5t5 271.5q0 20 1.5 47.5t3 47t1.5 22.5q0 10 -1 31.5t-1 33.5q0 76 29 121q20 32 56.5 53.5t76.5 22.5q0 2 2 2q57 0 96 -17q19 -6 32 -12t18.5 -10t15.5 -13t16 -14q3 -2 17 -12.5t20 -15.5t14 -15t10 -20q5 -22 -3 -48t-16 -38.5 t-28 -40.5q-10 -14 -39 -50.5t-36 -48.5q-30 -58 -34 -97t5 -87q5 -43 34 -88.5t62 -71.5l24 -12l24 -12t19.5 -10.5t21 -12t18.5 -12t20.5 -15.5t18.5 -17t22 -21q41 -41 41 -90q-13 -64 -57 -112.5t-101 -70.5q-25 -10 -65 -10q-52 0 -100 22.5t-80 63.5q-46 56 -52 117 l80 41q3 -67 32.5 -119.5t84.5 -71.5q28 -12 78 -12q38 -2 66 30t42 91q0 31 -12.5 52t-40.5 46q-39 33 -143 113q-82 61 -95 143q-19 118 9 182q4 10 39.5 52t46.5 51q22 18 45.5 65t18.5 62q-7 15 -26 39.5t-34 35.5q-79 55 -174 52q-45 -1 -45 -78v-139q-6 -119 -9 -152 q-3 -68 -9.5 -204t-11 -249t-5.5 -204q-14 -7 -40.5 -24t-29.5 -19z" />
<glyph unicode="&#xe0;" d="M51 328q0 5 1 15t1 15q10 89 53 146q31 56 77 87.5t122 63.5q56 27 98 27q15 0 39 -4q36 -7 58 -21l82 43q-1 -7 -7 -94q0 -45 -6 -127q-21 -292 -22 -325v-9l74 25q-29 -26 -70 -51l-4 -4v-13q5 -45 22 -57q13 -8 27 -8q24 0 55 22l-55 -51q-32 -14 -53 -14 q-23 0 -45 10q-10 5 -17 25.5t-6 42.5q-7 -4 -10 -9q-7 -3 -38.5 -19.5t-46.5 -23.5t-41.5 -14.5t-47.5 -7.5h-15q-67 10 -104 45q-48 38 -63 70q-38 67 -43 114q-15 62 -15 101zM129 369q0 -55 12 -107q9 -59 43 -108q21 -36 64 -70q22 -18 54 -28.5t46 -10.5q28 0 68 14 q38 24 51 31q1 3 12 8q4 20 4 23q5 51 8.5 104t5.5 117.5t3 83.5q1 37 1 73.5t1 57.5q-20 27 -57 49t-70 27q-10 2 -29 2q-40 0 -80 -19q-16 -8 -20 -12q-34 -21 -66 -69q-41 -64 -51 -144v-22zM275 991q0 31 35 92l79 -41q-4 -3 -15.5 -11.5t-19 -16.5t-12.5 -19 q-6 -9 -6 -20q0 -56 103 -152l-72 37q-3 3 -18.5 19t-29 30t-26.5 33.5t-16 32.5q-2 4 -2 16zM438 70q4 2 6 2q-2 0 -6 -2z" />
<glyph unicode="&#xe1;" d="M51 328q0 5 1 15t1 15q10 89 53 146q31 56 77 87.5t122 63.5q56 27 98 27q15 0 39 -4q36 -7 58 -21l82 43q-1 -7 -7 -94q0 -45 -6 -127q-21 -292 -22 -325v-9l74 25q-29 -26 -70 -51l-4 -4v-13q5 -45 22 -57q13 -8 27 -8q24 0 55 22l-55 -51q-32 -14 -53 -14 q-23 0 -45 10q-10 5 -17 25.5t-6 42.5q-7 -4 -10 -9q-7 -3 -38.5 -19.5t-46.5 -23.5t-41.5 -14.5t-47.5 -7.5h-15q-67 10 -104 45q-48 38 -63 70q-38 67 -43 114q-15 62 -15 101zM129 369q0 -55 12 -107q9 -59 43 -108q21 -36 64 -70q22 -18 54 -28.5t46 -10.5q28 0 68 14 q38 24 51 31q1 3 12 8q4 20 4 23q5 51 8.5 104t5.5 117.5t3 83.5q1 37 1 73.5t1 57.5q-20 27 -57 49t-70 27q-10 2 -29 2q-40 0 -80 -19q-16 -8 -20 -12q-34 -21 -66 -69q-41 -64 -51 -144v-22zM320 918q-1 -11 1 -23t6 -24t7 -19t8 -18l6 -11l83 35q-4 4 -11.5 11t-12 11 t-10 12t-9.5 17q-5 7 -5 21q4 57 113 143l-74 -31q-3 -3 -20 -17.5t-31 -28t-28.5 -31.5t-18.5 -31q-4 -8 -4 -16zM438 70q4 2 6 2q-2 0 -6 -2z" />
<glyph unicode="&#xe2;" d="M51 328q0 5 1 15t1 15q10 89 53 146q31 56 77 87.5t122 63.5q56 27 98 27q15 0 39 -4q36 -7 58 -21l82 43q-1 -7 -7 -94q0 -45 -6 -127q-21 -292 -22 -325v-9l74 25q-29 -26 -70 -51l-4 -4v-13q5 -45 22 -57q13 -8 27 -8q24 0 55 22l-55 -51q-32 -14 -53 -14 q-23 0 -45 10q-10 5 -17 25.5t-6 42.5q-7 -4 -10 -9q-7 -3 -38.5 -19.5t-46.5 -23.5t-41.5 -14.5t-47.5 -7.5h-15q-67 10 -104 45q-48 38 -63 70q-38 67 -43 114q-15 62 -15 101zM95 823l69 66q44 9 112 60t101 63q53 -42 170 -92q33 -13 74 -23l-61 -53q-38 12 -72 24 q-97 32 -176 78q-22 -12 -97 -59t-120 -64zM129 369q0 -55 12 -107q9 -59 43 -108q21 -36 64 -70q22 -18 54 -28.5t46 -10.5q28 0 68 14q38 24 51 31q1 3 12 8q4 20 4 23q5 51 8.5 104t5.5 117.5t3 83.5q1 37 1 73.5t1 57.5q-20 27 -57 49t-70 27q-10 2 -29 2q-40 0 -80 -19 q-16 -8 -20 -12q-34 -21 -66 -69q-41 -64 -51 -144v-22zM438 70q4 2 6 2q-2 0 -6 -2z" />
<glyph unicode="&#xe3;" d="M51 328q0 5 1 15t1 15q10 89 53 146q31 56 77 87.5t122 63.5q56 27 98 27q15 0 39 -4q36 -7 58 -21l82 43q-1 -7 -7 -94q0 -45 -6 -127q-21 -292 -22 -325v-9l74 25q-29 -26 -70 -51l-4 -4v-13q5 -45 22 -57q13 -8 27 -8q24 0 55 22l-55 -51q-32 -14 -53 -14 q-23 0 -45 10q-10 5 -17 25.5t-6 42.5q-7 -4 -10 -9q-7 -3 -38.5 -19.5t-46.5 -23.5t-41.5 -14.5t-47.5 -7.5h-15q-67 10 -104 45q-48 38 -63 70q-38 67 -43 114q-15 62 -15 101zM100 887q0 2 2 2q16 26 71 97q18 21 40.5 34.5t37.5 13.5q28 0 71 -39q14 -12 28 -39t24 -38 q41 -43 66 -43q-3 0 -8 -4q15 4 27.5 11t27.5 20t24 19q40 37 67 65q-5 2 4 8q7 4 7 0q0 -1 -2 -3q-25 -38 -60 -79q-4 -5 -13.5 -17.5t-13 -16.5t-11.5 -13t-13 -13t-13.5 -9.5t-17 -8.5t-18.5 -6q-2 -1 -3.5 -3t-5.5 -2q-18 0 -35 9q-20 11 -42 45t-29 42q-29 35 -58 54 q-20 10 -43 10q-16 0 -26 -9q-5 -9 -21 -29t-21 -29q-2 -2 -31 -23q-9 -9 -12 -6zM129 369q0 -55 12 -107q9 -59 43 -108q21 -36 64 -70q22 -18 54 -28.5t46 -10.5q28 0 68 14q38 24 51 31q1 3 12 8q4 20 4 23q5 51 8.5 104t5.5 117.5t3 83.5q1 37 1 73.5t1 57.5 q-20 27 -57 49t-70 27q-10 2 -29 2q-40 0 -80 -19q-16 -8 -20 -12q-34 -21 -66 -69q-41 -64 -51 -144v-22zM438 70q4 2 6 2q-2 0 -6 -2z" />
<glyph unicode="&#xe4;" d="M51 328q0 5 1 15t1 15q10 89 53 146q31 56 77 87.5t122 63.5q56 27 98 27q15 0 39 -4q36 -7 58 -21l82 43q-1 -7 -7 -94q0 -45 -6 -127q-21 -292 -22 -325v-9l74 25q-29 -26 -70 -51l-4 -4v-13q5 -45 22 -57q13 -8 27 -8q24 0 55 22l-55 -51q-32 -14 -53 -14 q-23 0 -45 10q-10 5 -17 25.5t-6 42.5q-7 -4 -10 -9q-7 -3 -38.5 -19.5t-46.5 -23.5t-41.5 -14.5t-47.5 -7.5h-15q-67 10 -104 45q-48 38 -63 70q-38 67 -43 114q-15 62 -15 101zM93 905l82 39q19 -37 68 -86l-72 -35q-46 55 -78 82zM129 369q0 -55 12 -107q9 -59 43 -108 q21 -36 64 -70q22 -18 54 -28.5t46 -10.5q28 0 68 14q38 24 51 31q1 3 12 8q4 20 4 23q5 51 8.5 104t5.5 117.5t3 83.5q1 37 1 73.5t1 57.5q-20 27 -57 49t-70 27q-10 2 -29 2q-40 0 -80 -19q-16 -8 -20 -12q-34 -21 -66 -69q-41 -64 -51 -144v-22zM438 70q4 2 6 2 q-2 0 -6 -2zM515 907l82 39q19 -37 68 -86l-72 -35q-46 54 -78 82z" />
<glyph unicode="&#xe5;" d="M51 328q0 5 1 15t1 15q10 89 53 146q31 56 77 87.5t122 63.5q56 27 98 27q15 0 39 -4q36 -7 58 -21l82 43q-1 -7 -7 -94q0 -45 -6 -127q-21 -292 -22 -325v-9l74 25q-29 -26 -70 -51l-4 -4v-13q5 -45 22 -57q13 -8 27 -8q24 0 55 22l-55 -51q-32 -14 -53 -14 q-23 0 -45 10q-10 5 -17 25.5t-6 42.5q-8 -4 -10 -8q-9 -4 -39 -20t-46 -23.5t-42 -15t-47 -7.5h-15q-67 10 -104 45q-48 38 -63 70q-38 67 -43 114q-15 62 -15 101zM129 369q0 -55 12 -107q9 -59 43 -108q21 -36 64 -70q22 -18 54 -28.5t46 -10.5q28 0 68 14q38 24 51 31 q1 3 12 8q4 20 4 23q5 51 8.5 104t5.5 117.5t3 83.5q1 37 1 73.5t1 57.5q-20 27 -57 49t-70 27q-10 2 -29 2q-40 0 -80 -19q-16 -8 -20 -12q-34 -21 -66 -69q-41 -64 -51 -144v-22zM317 804q0 24 11 46q7 13 28 32t34 25q32 17 50 17q15 0 28 -7q18 -9 22 -15q11 -14 19 -47 q1 -7 1 -22q0 -29 -12 -49q-19 -35 -51 -52q-43 -23 -62 -23q-6 0 -15 3q-18 5 -33 24q-11 13 -17 43q-3 12 -3 25zM361 829q0 -26 10 -47q8 -19 28 -32q13 -7 28 -7q5 0 27 11q14 8 14 26q0 4 -0.5 12t-0.5 13q0 15 -3 28q-3 19 -16 37q-19 27 -37 27q-19 0 -31 -12 q-17 -15 -19 -52v-4zM438 70q4 2 6 2q-2 0 -6 -2z" />
<glyph unicode="&#xe6;" horiz-adv-x="890" d="M18 326q0 -39 15 -101q5 -47 43 -114q6 -13 18.5 -24.5t33.5 -26.5t26 -19q37 -35 104 -45h14q8 0 50 -1t76.5 0t66.5 5q7 -2 74 -2q22 -3 55.5 6.5t52.5 24.5q31 16 57.5 34t41 29t45.5 38t47 40l-82 -25q-54 -43 -125 -88q-7 -4 -11 -5.5t-6 -1.5t-7.5 0.5t-10.5 0.5 q-41 0 -82 23q-17 9 -30 24t-20 29.5t-12.5 36t-8 38t-5.5 41.5t-6 40q30 7 77 15.5t70 13.5t58.5 20t71.5 39q69 43 118 133q7 17 7 26q0 43 -60 91q-74 61 -156 61q-48 -1 -102 -28q-31 11 -92 22q-24 4 -39 4q-42 0 -98 -27q-130 -45 -213 -151q-44 -58 -54 -146 q0 -5 -1 -15t-1 -15zM96 367v22q10 79 51 143q23 35 80 70q3 3 21 12q40 19 80 19q2 0 21.5 2.5t25.5 1.5q72 -11 84 -14l-8 -5q-69 -39 -88 -103t-19 -173q0 -45 8 -78q4 -20 7 -73t13.5 -86t37.5 -54q11 -9 37 -25q-104 17 -117 17q-14 0 -46.5 10.5t-54.5 28.5 q-5 4 -19.5 15t-23 18t-18.5 17.5t-16 19.5q-34 49 -43 108q-13 57 -13 107zM418 360q0 9 1 23.5t1 17.5q0 34 0.5 68t3 62t19 52t49.5 38q35 14 69 14q90 0 172 -94q17 -17 17 -39q0 -7 -2.5 -15.5t-4.5 -14.5t-8 -16t-8 -13t-10.5 -14.5t-9.5 -12.5q-15 -22 -34 -35.5 t-33.5 -18t-47.5 -12.5q-11 -3 -32 -8.5t-28 -7t-22 -4.5t-29.5 -3.5t-34.5 -0.5h-18q-10 0 -10 34z" />
<glyph unicode="&#xe7;" horiz-adv-x="692" d="M51 334q0 20 2 28q6 82 53 150q31 55 77.5 87t121.5 63q50 26 96 26q21 0 39 -6q59 -9 131 -66l-65 -63q-18 30 -57.5 54.5t-75.5 29.5q-20 4 -29 4q-39 0 -84 -20q-2 -1 -7 -4.5t-7 -4.5q-43 -34 -66 -71q-41 -64 -51 -144q0 -4 -1 -11t-1 -11q0 -47 14 -105 q8 -56 43 -112q4 -7 9 -14t12.5 -14.5t12.5 -12t15.5 -14.5t14.5 -13q22 -18 53 -28.5t49 -10.5q24 0 66 17q21 10 49 28q64 46 74 56l82 26q-29 -29 -72 -53q-16 -12 -84 -53q-10 -5 -40 -21.5t-46.5 -24.5t-42.5 -16t-47 -8q-22 0 -57 11.5t-60 33.5q-51 47 -63 74 q-38 63 -43 112q-15 62 -15 101zM88 -315q4 -53 41 -99q25 -34 63.5 -53t79.5 -19q35 0 53 8q74 13 134 112q24 26 24 62q0 26 -33 76q-23 35 -61 60.5t-50 39.5q-27 31 -36.5 63.5t-2.5 81.5l-55 1q-2 -5 -4 -13t-7 -30t-6.5 -40t1 -36.5t12.5 -25.5q33 -28 74.5 -71.5 t67.5 -66.5q43 -40 43 -83q0 -29 -15.5 -45.5t-30.5 -19.5q-60 -20 -73 -20q-42 0 -62 10q-44 16 -67.5 60.5t-25.5 100.5q-8 -4 -32 -26t-32 -27z" />
<glyph unicode="&#xe8;" horiz-adv-x="589" d="M53 319q0 90 41.5 169.5t116.5 121.5q4 2 34 18.5t40 21t34 14.5t43 13.5t39 4.5q82 0 156 -61q59 -47 59 -91q0 -11 -6 -26q-49 -90 -118 -133q-36 -24 -86 -43t-78.5 -27t-100 -23t-86.5 -18q11 -62 45.5 -113.5t87.5 -80.5q41 -23 82 -23q33 0 58 14q71 45 125 88 l82 25q-80 -66 -248 -154q-37 -18 -80 -18q-69 0 -123 45q-84 65 -109 199q-8 33 -8 77zM127 338q0 -35 10 -35h19q24 0 52 4.5t46 8.5t52 13.5t46 12.5q32 8 52.5 14.5t45.5 22t39 37.5q1 1 9.5 12.5t10.5 14.5t8 13t8 16t4.5 14.5t2.5 15.5q0 23 -16 39q-82 94 -172 94 q-35 0 -70 -14q-65 -29 -102.5 -97t-42.5 -145q0 -3 -1 -17.5t-1 -23.5zM181 977q0 33 34 92l80 -41q-4 -3 -15.5 -11.5t-19 -16.5t-12.5 -19q-6 -9 -6 -20q0 -57 102 -152l-71 37q-3 3 -18.5 19t-29 30t-26.5 33.5t-16 32.5q-2 4 -2 16z" />
<glyph unicode="&#xe9;" horiz-adv-x="589" d="M53 319q0 90 41.5 169.5t116.5 121.5q4 2 34 18.5t40 21t34 14.5t43 13.5t39 4.5q82 0 156 -61q59 -47 59 -91q0 -11 -6 -26q-49 -90 -118 -133q-36 -24 -86 -43t-78.5 -27t-100 -23t-86.5 -18q11 -62 45.5 -113.5t87.5 -80.5q41 -23 82 -23q33 0 58 14q71 45 125 88 l82 25q-80 -66 -248 -154q-37 -18 -80 -18q-69 0 -123 45q-84 65 -109 199q-8 33 -8 77zM127 338q0 -35 10 -35h19q24 0 52 4.5t46 8.5t52 13.5t46 12.5q32 8 52.5 14.5t45.5 22t39 37.5q1 1 9.5 12.5t10.5 14.5t8 13t8 16t4.5 14.5t2.5 15.5q0 23 -16 39q-82 94 -172 94 q-35 0 -70 -14q-65 -29 -102.5 -97t-42.5 -145q0 -3 -1 -17.5t-1 -23.5zM317 903q-1 -11 1 -23t6 -23.5t7 -19t8.5 -17.5t5.5 -11l82 35q-4 4 -11.5 10.5t-12 11t-10.5 12t-9 16.5q-5 8 -5 21q4 58 113 144l-74 -32l-27 -23q-27 -23 -46.5 -45t-24.5 -39q-3 -6 -3 -17z" />
<glyph unicode="&#xea;" horiz-adv-x="589" d="M53 319q0 90 41.5 169.5t116.5 121.5q4 2 34 18.5t40 21t34 14.5t43 13.5t39 4.5q82 0 156 -61q59 -47 59 -91q0 -11 -6 -26q-49 -90 -118 -133q-36 -24 -86 -43t-78.5 -27t-100 -23t-86.5 -18q11 -62 45.5 -113.5t87.5 -80.5q41 -23 82 -23q33 0 58 14q71 45 125 88 l82 25q-80 -66 -248 -154q-37 -18 -80 -18q-69 0 -123 45q-84 65 -109 199q-8 33 -8 77zM83 809l69 65q44 9 112 60t101 63q53 -42 170 -92q26 -11 74 -22l-62 -54q-15 5 -40.5 14t-30.5 11q-97 32 -176 78q-22 -12 -97 -59t-120 -64zM127 338q0 -35 10 -35h19q24 0 52 4.5 t46 8.5t52 13.5t46 12.5q32 8 52.5 14.5t45.5 22t39 37.5q1 1 9.5 12.5t10.5 14.5t8 13t8 16t4.5 14.5t2.5 15.5q0 23 -16 39q-82 94 -172 94q-35 0 -70 -14q-65 -29 -102.5 -97t-42.5 -145q0 -3 -1 -17.5t-1 -23.5z" />
<glyph unicode="&#xeb;" horiz-adv-x="589" d="M53 319q0 90 41.5 169.5t116.5 121.5q4 2 34 18.5t40 21t34 14.5t43 13.5t39 4.5q82 0 156 -61q59 -47 59 -91q0 -11 -6 -26q-49 -90 -118 -133q-36 -24 -86 -43t-78.5 -27t-100 -23t-86.5 -18q11 -62 45.5 -113.5t87.5 -80.5q41 -23 82 -23q33 0 58 14q71 45 125 88 l82 25q-80 -66 -248 -154q-37 -18 -80 -18q-69 0 -123 45q-84 65 -109 199q-8 33 -8 77zM61 891l82 39q20 -39 67 -86l-71 -35q-46 54 -78 82zM127 338q0 -35 10 -35h19q24 0 52 4.5t46 8.5t52 13.5t46 12.5q32 8 52.5 14.5t45.5 22t39 37.5q1 1 9.5 12.5t10.5 14.5t8 13 t8 16t4.5 14.5t2.5 15.5q0 23 -16 39q-82 94 -172 94q-35 0 -70 -14q-65 -29 -102.5 -97t-42.5 -145q0 -3 -1 -17.5t-1 -23.5zM483 893l82 39q20 -39 67 -86l-71 -35q-46 55 -78 82z" />
<glyph unicode="&#xec;" horiz-adv-x="270" d="M45 66q0 13 4.5 31.5t5.5 25.5q5 50 8.5 103.5t5.5 117t3 82.5l2 168q0 43 -2 63l82 43q-4 -31 -4 -92q0 -6 -9 -129q-2 -22 -7.5 -89t-9.5 -126t-5 -110q-2 -16 -2 -50q5 -44 26 -59q12 -6 27 -6q20 0 55 20l-59 -49q-26 -16 -53 -16q-23 0 -41 10q-11 5 -19 23t-8 39z M73 977q0 31 35 92l80 -41q-4 -3 -15.5 -11.5t-19 -16.5t-12.5 -19q-6 -9 -6 -20q0 -57 102 -152l-71 37l-19 19t-29.5 30.5t-26.5 33.5t-16 32q-2 4 -2 16z" />
<glyph unicode="&#xed;" horiz-adv-x="270" d="M45 66q0 13 4.5 31.5t5.5 25.5q5 50 8.5 103.5t5.5 117t3 82.5l2 168q0 43 -2 63l82 43q-4 -31 -4 -92q0 -6 -9 -129q-2 -22 -7.5 -89t-9.5 -126t-5 -110q-2 -16 -2 -50q5 -44 26 -59q12 -6 27 -6q20 0 55 20l-59 -49q-26 -16 -53 -16q-23 0 -41 10q-11 5 -19 23t-8 39z M74 903q-1 -11 1 -23t6 -23.5t7 -19t8.5 -17.5t5.5 -11l83 35q-3 3 -14.5 12.5t-18 18t-11.5 19.5q-4 6 -4 21q4 58 113 144l-74 -32q-1 -1 -27.5 -23.5t-46.5 -44.5t-25 -39q-3 -6 -3 -17z" />
<glyph unicode="&#xee;" horiz-adv-x="270" d="M-178 823l70 66q44 9 112 60t101 63q53 -42 170 -92q33 -13 74 -23l-62 -53q-25 8 -71 24q-99 33 -177 78q-22 -12 -97 -59t-120 -64zM45 66q0 13 4.5 31.5t5.5 25.5q5 50 8.5 103.5t5.5 117t3 82.5l2 168q0 43 -2 63l82 43q-4 -31 -4 -92q0 -6 -9 -129q-2 -22 -7.5 -89 t-9.5 -126t-5 -110q-2 -16 -2 -50q5 -44 26 -59q12 -6 27 -6q20 0 55 20l-59 -49q-26 -16 -53 -16q-23 0 -41 10q-11 5 -19 23t-8 39z" />
<glyph unicode="&#xef;" horiz-adv-x="270" d="M-199 905l82 39q20 -39 67 -86l-72 -35q-49 58 -77 82zM45 66q0 13 4.5 31.5t5.5 25.5q5 50 8.5 103.5t5.5 117t3 82.5l2 168q0 43 -2 63l82 43q-4 -31 -4 -92q0 -6 -9 -129q-2 -22 -7.5 -89t-9.5 -126t-5 -110q-2 -16 -2 -50q5 -44 26 -59q12 -6 27 -6q20 0 55 20 l-59 -49q-26 -16 -53 -16q-23 0 -41 10q-11 5 -19 23t-8 39zM222 907l82 39q19 -37 68 -86l-72 -35q-46 55 -78 82z" />
<glyph unicode="&#xf0;" horiz-adv-x="598" d="M2 57l70 47q6 0 10 -8q1 22 2 65.5t2 65.5q0 197 2 285v66l-8 -7q0 16 8 29q0 22 -4 62l84 69q0 -3 -6 -72q22 14 78 41q40 5 47 5q60 0 101.5 -21t98.5 -72q28 -38 47.5 -86.5t22.5 -93.5q2 -14 2 -43q0 -50 -10 -115q-14 -57 -53 -112q-37 -49 -86 -86 q-76 -57 -177 -74q-16 0 -47 -1t-45 -1q-4 -88 -8 -260q-6 -81 -6 -232l-74 -61q2 17 8.5 121t8.5 121q10 188 10 323q-48 18 -78 45zM143 66q41 -9 56 -9h53q35 0 51 4q14 3 68 27q23 18 41 41q39 45 55 107q14 55 14 118q0 25 -2 37q-11 107 -61 174q-79 82 -172 82 q-43 0 -68 -6q-12 -12 -12 -25l-4 -2v-43q0 -82 -8 -258q-1 -33 -11 -247z" />
<glyph unicode="&#xf1;" horiz-adv-x="765" d="M90 -20q1 11 4 30t4 27q8 86 17 346q0 129 4 184q0 5 1 15.5t1 15.5q0 37 -8 64l86 47q-4 -31 -4 -95q122 86 223 86t164 -94q20 -27 27 -45.5t7 -50.5q0 -6 -1 -22t-1 -25q-13 -137 -16 -303v-49q2 -46 25 -60q13 -8 26 -8q16 0 56 20l-58 -49q-28 -14 -53 -14 q-22 0 -45 10q-9 5 -17 22.5t-8 37.5q0 6 4 29t4 30q11 77 11 250q0 27 1 40t1 25q0 41 -8.5 68t-30.5 61q-28 38 -71.5 57t-88.5 19q-25 0 -37 -4q-34 -8 -47 -16q-49 -46 -80 -199q-16 -241 -20 -358q0 -4 -1 -13t-1 -14q0 -4 1 -14t1 -15zM185 895q-1 2 1 2q15 24 72 98 q18 21 40.5 34t37.5 13q29 0 71 -38q14 -12 28 -39.5t24 -38.5q41 -43 66 -43q-3 0 -8 -4q15 4 27.5 11t27.5 20t24 19q40 37 67 65q-6 3 5 9q5 2 5 -1q0 -2 -1 -3q-25 -38 -60 -79q-4 -5 -13.5 -17.5t-13 -16.5t-11.5 -13t-13 -13t-13.5 -9.5t-17 -8.5t-18.5 -6 q-2 -1 -3.5 -3t-5.5 -2q-17 0 -35 10q-15 8 -26.5 22t-23 33t-21.5 31q-29 35 -58 54q-20 10 -43 10q-17 0 -27 -9q-5 -9 -20 -29t-21 -29q-5 -5 -17 -12.5t-14 -9.5t-7 -5.5t-5 -1.5z" />
<glyph unicode="&#xf2;" horiz-adv-x="714" d="M53 330q0 86 37 159q52 93 141 138q3 1 19.5 10t21 11t20 9t22 9.5t20 7.5t23 7t21.5 3.5t23 1.5q51 0 97 -24q56 -25 77 -54q41 -52 64 -159q6 -37 6 -78q0 -99 -43 -170q-46 -85 -164 -144q-34 -19 -49.5 -27t-46 -18t-55.5 -10q-13 0 -33 4q-83 21 -133 90 q-42 54 -60 148q-8 39 -8 86zM129 358q0 -92 35 -163q29 -69 96 -111q48 -25 96 -25q44 0 84 21q85 49 117 166q12 35 12 90q0 42 -10 94q-13 73 -55 127q-27 37 -69 59.5t-87 22.5q-75 0 -129 -51q-42 -39 -65 -97t-25 -120v-13zM242 977q0 31 35 92l80 -41 q-4 -3 -15.5 -11.5t-19 -16.5t-12.5 -19q-7 -11 -7 -20q0 -56 103 -152l-72 37q-3 3 -18.5 19t-29 30t-26.5 33.5t-16 32.5q-2 4 -2 16z" />
<glyph unicode="&#xf3;" horiz-adv-x="714" d="M53 330q0 86 37 159q52 93 141 138q3 1 19.5 10t21 11t20 9t22 9.5t20 7.5t23 7t21.5 3.5t23 1.5q51 0 97 -24q56 -25 77 -54q41 -52 64 -159q6 -37 6 -78q0 -99 -43 -170q-46 -85 -164 -144q-34 -19 -49.5 -27t-46 -18t-55.5 -10q-13 0 -33 4q-83 21 -133 90 q-42 54 -60 148q-8 39 -8 86zM129 358q0 -92 35 -163q29 -69 96 -111q48 -25 96 -25q44 0 84 21q85 49 117 166q12 35 12 90q0 42 -10 94q-13 73 -55 127q-27 37 -69 59.5t-87 22.5q-75 0 -129 -51q-42 -39 -65 -97t-25 -120v-13zM378 903q-1 -11 1 -23t6 -23.5t7 -19 t8.5 -17.5t5.5 -11l82 35q-4 4 -11.5 10.5t-12 11t-10.5 12t-9 16.5q-5 8 -5 21q4 58 113 144l-74 -32l-27 -23q-27 -23 -46.5 -45t-24.5 -39q-3 -6 -3 -17z" />
<glyph unicode="&#xf4;" horiz-adv-x="714" d="M53 330q0 86 37 159q52 93 141 138q3 1 19.5 10t21 11t20 9t22 9.5t20 7.5t23 7t21.5 3.5t23 1.5q51 0 97 -24q56 -25 77 -54q41 -52 64 -159q6 -37 6 -78q0 -99 -43 -170q-46 -85 -164 -144q-34 -19 -49.5 -27t-46 -18t-55.5 -10q-13 0 -33 4q-83 21 -133 90 q-42 54 -60 148q-8 39 -8 86zM129 358q0 -92 35 -163q29 -69 96 -111q48 -25 96 -25q44 0 84 21q85 49 117 166q12 35 12 90q0 42 -10 94q-13 73 -55 127q-27 37 -69 59.5t-87 22.5q-75 0 -129 -51q-42 -39 -65 -97t-25 -120v-13zM144 809l70 65q44 9 112 60t101 63 q54 -43 169 -92q27 -11 74 -22l-61 -54q-2 1 -72 25q-97 32 -176 78q-22 -12 -97 -59t-120 -64z" />
<glyph unicode="&#xf5;" horiz-adv-x="714" d="M53 330q0 86 37 159q52 93 141 138q3 1 19.5 10t21 11t20 9t22 9.5t20 7.5t23 7t21.5 3.5t23 1.5q51 0 97 -24q56 -25 77 -54q41 -52 64 -159q6 -37 6 -78q0 -99 -43 -170q-46 -85 -164 -144q-34 -19 -49.5 -27t-46 -18t-55.5 -10q-13 0 -33 4q-83 21 -133 90 q-42 54 -60 148q-8 39 -8 86zM129 358q0 -92 35 -163q29 -69 96 -111q48 -25 96 -25q44 0 84 21q85 49 117 166q12 35 12 90q0 42 -10 94q-13 73 -55 127q-27 37 -69 59.5t-87 22.5q-75 0 -129 -51q-42 -39 -65 -97t-25 -120v-13zM166 873q-1 1 1 1q20 31 71 98q18 21 41 34 t38 13q28 0 70 -38q14 -12 28.5 -39.5t24.5 -38.5q40 -42 66 -42q1 0 -4 -2l-5 -2q15 4 27.5 11t27.5 20t24 19q40 37 67 65q-5 2 4 8q7 4 7 0q0 -3 -1 -4q-25 -38 -60 -79q-2 -3 -13 -17t-13.5 -16.5t-11.5 -12.5t-13.5 -13t-13 -9t-17 -9t-18.5 -6q-2 -1 -3.5 -3t-5.5 -2 q-20 0 -36 9q-20 10 -41.5 44.5t-28.5 42.5q-26 32 -59 53q-22 11 -43 11q-16 0 -26 -9q-5 -9 -20 -29t-21 -29q-2 -2 -31 -23q-9 -9 -12 -6z" />
<glyph unicode="&#xf6;" horiz-adv-x="714" d="M53 330q0 86 37 159q52 93 141 138q3 1 19.5 10t21 11t20 9t22 9.5t20 7.5t23 7t21.5 3.5t23 1.5q51 0 97 -24q56 -25 77 -54q41 -52 64 -159q6 -37 6 -78q0 -99 -43 -170q-46 -85 -164 -144q-34 -19 -49.5 -27t-46 -18t-55.5 -10q-13 0 -33 4q-83 21 -133 90 q-42 54 -60 148q-8 39 -8 86zM122 891l82 39q19 -37 68 -86l-72 -35q-46 54 -78 82zM129 358q0 -92 35 -163q29 -69 96 -111q48 -25 96 -25q44 0 84 21q85 49 117 166q12 35 12 90q0 42 -10 94q-13 73 -55 127q-27 37 -69 59.5t-87 22.5q-75 0 -129 -51q-42 -39 -65 -97 t-25 -120v-13zM544 893l82 39q19 -37 68 -86l-72 -35q-46 55 -78 82z" />
<glyph unicode="&#xf7;" horiz-adv-x="647" d="M51 331l57 67q50 -8 114 -8q29 0 86 -6q15 1 128.5 10.5t139.5 7.5l-52 -60q-33 0 -90 4t-62 4q-58 4 -90 4q-132 0 -231 -23zM236 227l81 39q19 -37 68 -86l-72 -35q-49 58 -77 82zM256 551l82 39q19 -37 68 -86l-72 -35q-46 54 -78 82z" />
<glyph unicode="&#xf8;" horiz-adv-x="679" d="M20 3q6 7 33.5 38t40.5 49q86 112 259 320q26 30 74 87.5t88 104t77 86.5l90 -1l-127 -129q-252 -275 -471 -548q-38 -2 -64 -7zM90 334q0 87 37 160q51 91 141 137q3 1 19.5 10t21 11t20 9t22 9.5t20 7.5t23 7t21.5 3.5t23 1.5q50 0 97 -24q56 -25 77 -54 q41 -52 64 -159q6 -37 6 -78q0 -99 -43 -170q-46 -85 -164 -144q-34 -19 -49.5 -27t-46 -18t-55.5 -10q-13 0 -33 4q-83 21 -133 90q-42 54 -60 148q-8 39 -8 86zM166 362q0 -92 35 -163q29 -69 96 -111q48 -25 96 -25q43 0 84 21q85 49 117 166q12 35 12 90q0 42 -10 94 q-13 73 -55 127q-27 37 -69 59.5t-87 22.5q-75 0 -129 -51q-42 -39 -65 -97t-25 -120v-13z" />
<glyph unicode="&#xf9;" horiz-adv-x="755" d="M92 174q0 7 4 53q8 162 13 308q0 3 2.5 56t1.5 62l71 41q-6 -58 -12 -133q-8 -76 -8 -301q0 -52 8 -82t31 -65q27 -35 70.5 -54.5t86.5 -19.5q27 0 39 4q15 2 47 14q62 66 86 260q7 124 7 164v117q0 35 -2 53l81 43q-4 -33 -4 -94q0 -20 -8 -129q-15 -157 -24 -326v-49 q2 -43 26 -59q15 -6 27 -6q20 0 55 22l-59 -51q-32 -16 -51 -16q-15 0 -45 10q-25 17 -25 65v11q-115 -81 -217 -84h-8q-97 0 -162 94q-18 28 -24.5 45.5t-6.5 46.5zM242 985q0 31 35 92l80 -41q-4 -3 -15.5 -11.5t-19 -16.5t-12.5 -19q-7 -10 -7 -20q0 -56 103 -152l-72 37 q-3 3 -18.5 19t-29 30t-26.5 33.5t-16 32.5q-2 4 -2 16z" />
<glyph unicode="&#xfa;" horiz-adv-x="755" d="M92 174q0 7 4 53q8 162 13 308q0 3 2.5 56t1.5 62l71 41q-6 -58 -12 -133q-8 -76 -8 -301q0 -52 8 -82t31 -65q27 -35 70.5 -54.5t86.5 -19.5q27 0 39 4q15 2 47 14q62 66 86 260q7 124 7 164v117q0 35 -2 53l81 43q-4 -33 -4 -94q0 -20 -8 -129q-15 -157 -24 -326v-49 q2 -43 26 -59q15 -6 27 -6q20 0 55 22l-59 -51q-32 -16 -51 -16q-15 0 -45 10q-25 17 -25 65v11q-115 -81 -217 -84h-8q-97 0 -162 94q-18 28 -24.5 45.5t-6.5 46.5zM378 912q-1 -11 1 -23t6 -24t7 -19t8 -18l6 -11l82 35q-4 4 -11.5 11t-12 11t-10 12t-9.5 17q-5 7 -5 20 q4 58 113 144l-74 -31q-3 -3 -20 -17.5t-31 -28t-28.5 -31.5t-18.5 -31q-3 -6 -3 -16z" />
<glyph unicode="&#xfb;" horiz-adv-x="755" d="M92 174q0 7 4 53q8 162 13 308q0 3 2.5 56t1.5 62l71 41q-6 -58 -12 -133q-8 -76 -8 -301q0 -52 8 -82t31 -65q27 -35 70.5 -54.5t86.5 -19.5q27 0 39 4q15 2 47 14q62 66 86 260q7 124 7 164v117q0 35 -2 53l81 43q-4 -33 -4 -94q0 -20 -8 -129q-15 -157 -24 -326v-49 q2 -43 26 -59q15 -6 27 -6q20 0 55 22l-59 -51q-32 -16 -51 -16q-15 0 -45 10q-25 17 -25 65v11q-115 -81 -217 -84h-8q-97 0 -162 94q-18 28 -24.5 45.5t-6.5 46.5zM144 817l70 66q44 9 112 60t101 63q56 -45 169 -93q27 -11 74 -22l-61 -53q-37 12 -72 24q-97 32 -176 78 q-22 -12 -97 -59t-120 -64z" />
<glyph unicode="&#xfc;" horiz-adv-x="755" d="M92 174q0 7 4 53q8 162 13 308q0 3 2.5 56t1.5 62l71 41q-6 -58 -12 -133q-8 -76 -8 -301q0 -52 8 -82t31 -65q27 -35 70.5 -54.5t86.5 -19.5q27 0 39 4q15 2 47 14q62 66 86 260q7 124 7 164v117q0 35 -2 53l81 43q-4 -33 -4 -94q0 -20 -8 -129q-15 -157 -24 -326v-49 q2 -43 26 -59q15 -6 27 -6q20 0 55 22l-59 -51q-32 -16 -51 -16q-15 0 -45 10q-25 17 -25 65v11q-115 -81 -217 -84h-8q-97 0 -162 94q-18 28 -24.5 45.5t-6.5 46.5zM122 899l82 39q19 -37 68 -86l-72 -35q-46 54 -78 82zM544 901l82 39q19 -37 68 -86l-72 -35 q-46 55 -78 82z" />
<glyph unicode="&#xfd;" d="M-45 -217q0 54 12 113l66 26q-29 -59 -29 -135q0 -46 10 -98q19 -93 70.5 -154t134.5 -61h19q78 13 148.5 81.5t117.5 174.5q12 35 18 89.5t7.5 102t2.5 53.5q1 10 3.5 33t3.5 33q2 18 2 49q-1 -1 -3 -2t-3 -2q-128 -90 -236 -90q-97 0 -162 94q-18 28 -24.5 45t-6.5 45 q0 18 3 53q7 98 14 310q2 16 2 123l74 36q-4 -18 -13 -133q-6 -64 -6 -217q0 -35 -1 -62.5t-1 -35.5q0 -42 8 -69t29 -64q28 -35 71.5 -54.5t86.5 -19.5q17 0 37 4q13 1 49 17q29 30 53.5 98t34.5 160q0 10 1 29.5t1 31.5v178q2 14 2 41q0 40 -2 58l80 45q-2 -19 -2.5 -55.5 t-1.5 -47.5q0 -42 -9 -166q-3 -39 -8.5 -114.5t-9.5 -136.5t-6 -117q-1 -9 -1 -27.5t-1 -28.5q0 -34 -12.5 -122.5t-32.5 -145.5q-35 -82 -87 -145.5t-105 -96.5t-97.5 -49t-77.5 -16q-87 0 -140.5 62t-72.5 157q-10 65 -10 123zM318 922q-1 -11 1 -23t6 -24t7 -19t8 -18 l6 -11l83 35q-4 4 -11.5 11t-12 11t-10 12t-9.5 17q-5 7 -5 21q4 57 113 143l-74 -31q-3 -3 -20 -17.5t-31 -28t-28.5 -31.5t-18.5 -31q-4 -8 -4 -16z" />
<glyph unicode="&#xfe;" horiz-adv-x="278" d="M2 57l59 41q0 15 2 23q5 49 8.5 101.5t5.5 117.5t3 84q1 32 1 148l-1 -1q0 7 1 11q0 184 1 213q6 69 6 215q0 16 -1 33.5t-1 19.5l82 41q-2 -17 -7 -142.5t-5 -130.5q0 -61 -1 -111l13 11q0 -3 -6 -72q22 14 78 41q40 5 47 5q60 0 101.5 -21t98.5 -72q28 -38 47.5 -86.5 t22.5 -93.5q2 -14 2 -43q0 -50 -10 -115q-14 -57 -53 -112q-37 -49 -86 -86q-76 -57 -177 -74q-23 0 -67 -2q-14 -6 -25 -9q-4 -85 -8 -251q-6 -81 -6 -232l-74 -61q2 17 8.5 121t8.5 121q10 185 10 318q-2 2 -6 8q-45 18 -72 42zM143 66q41 -9 56 -9h53q35 0 51 4 q14 3 68 27q23 18 41 41q39 45 55 107q14 55 14 118q0 25 -2 37q-11 107 -61 174q-79 82 -172 82q-43 0 -68 -6q-12 -12 -12 -25l-4 -2v-43q0 -82 -8 -258q-1 -33 -11 -247z" />
<glyph unicode="&#xff;" d="M-45 -217q0 54 12 113l66 26q-29 -59 -29 -135q0 -46 10 -98q19 -93 70.5 -154t134.5 -61h19q78 13 148.5 81.5t117.5 174.5q12 35 18 89.5t7.5 102t2.5 53.5q1 10 3.5 33t3.5 33q2 18 2 49q-1 -1 -3 -2t-3 -2q-128 -90 -236 -90q-97 0 -162 94q-18 28 -24.5 45t-6.5 45 q0 18 3 53q7 98 14 310q2 16 2 123l74 36q-4 -18 -13 -133q-6 -64 -6 -217q0 -35 -1 -62.5t-1 -35.5q0 -42 8 -69t29 -64q28 -35 71.5 -54.5t86.5 -19.5q17 0 37 4q13 1 49 17q29 30 53.5 98t34.5 160q0 10 1 29.5t1 31.5v178q2 14 2 41q0 40 -2 58l80 45q-2 -19 -2.5 -55.5 t-1.5 -47.5q0 -42 -9 -166q-3 -39 -8.5 -114.5t-9.5 -136.5t-6 -117q-1 -9 -1 -27.5t-1 -28.5q0 -34 -12.5 -122.5t-32.5 -145.5q-35 -82 -87 -145.5t-105 -96.5t-97.5 -49t-77.5 -16q-87 0 -140.5 62t-72.5 157q-10 65 -10 123zM104 909l82 39q20 -39 67 -86l-71 -35 q-46 55 -78 82zM526 911l82 39q20 -39 67 -86l-72 -35q-49 58 -77 82z" />
<glyph unicode="&#x178;" horiz-adv-x="634" d="M-12 1057l102 88q32 -63 87.5 -204.5t88.5 -207.5q107 187 172 359q57 19 131 47q-55 -50 -116 -152q-85 -159 -146 -262h4q-2 -19 -2.5 -57.5t-1.5 -49.5q0 -59 -8 -169q-19 -292 -23 -369v-53l-73 -39q11 50 12 59q5 57 14 348q1 18 1.5 84.5t2.5 98.5q0 71 -4 104 q-19 32 -20 33q-16 29 -46.5 88t-50 94.5t-53.5 81.5t-71 78zM32 1350l82 39q19 -37 68 -86l-72 -35q-46 54 -78 82zM454 1352l82 39q20 -39 67 -86l-71 -35q-46 54 -78 82z" />
<glyph unicode="&#x2000;" horiz-adv-x="759" />
<glyph unicode="&#x2001;" horiz-adv-x="1518" />
<glyph unicode="&#x2002;" horiz-adv-x="759" />
<glyph unicode="&#x2003;" horiz-adv-x="1518" />
<glyph unicode="&#x2004;" horiz-adv-x="506" />
<glyph unicode="&#x2005;" horiz-adv-x="379" />
<glyph unicode="&#x2006;" horiz-adv-x="253" />
<glyph unicode="&#x2007;" horiz-adv-x="253" />
<glyph unicode="&#x2008;" horiz-adv-x="189" />
<glyph unicode="&#x2009;" horiz-adv-x="303" />
<glyph unicode="&#x200a;" horiz-adv-x="84" />
<glyph unicode="&#x2010;" horiz-adv-x="706" d="M127 330l49 69q43 -8 98 -8q24 0 74 -6q12 1 110.5 10.5t121.5 7.5l-45 -61q-28 0 -78 4t-54 4q-50 4 -77 4q-110 0 -199 -24z" />
<glyph unicode="&#x2011;" horiz-adv-x="706" d="M127 330l49 69q43 -8 98 -8q24 0 74 -6q12 1 110.5 10.5t121.5 7.5l-45 -61q-28 0 -78 4t-54 4q-50 4 -77 4q-110 0 -199 -24z" />
<glyph unicode="&#x2012;" horiz-adv-x="706" d="M127 330l49 69q43 -8 98 -8q24 0 74 -6q12 1 110.5 10.5t121.5 7.5l-45 -61q-28 0 -78 4t-54 4q-50 4 -77 4q-110 0 -199 -24z" />
<glyph unicode="&#x2013;" horiz-adv-x="1277" d="M127 330l111 69q97 -8 221 -8q55 0 168 -6q27 1 249.5 10.5t274.5 7.5l-102 -61q-63 0 -176 4t-122 4q-113 4 -174 4q-249 0 -450 -24z" />
<glyph unicode="&#x2014;" horiz-adv-x="2301" d="M127 330l222 69q194 -8 443 -8q108 0 334 -6q54 1 499.5 10.5t549.5 7.5l-203 -61q-127 0 -353 4t-244 4q-226 4 -348 4q-498 0 -900 -24z" />
<glyph unicode="&#x2018;" horiz-adv-x="256" d="M39 954q0 3 1 9t1 8q4 17 23 41t41.5 46.5t25.5 26.5l74 37q-103 -91 -103 -151q0 -9 4 -21q5 -11 13 -19t19.5 -16t15.5 -12l-80 -41q-1 2 -8.5 15t-12.5 23t-9.5 25t-4.5 29z" />
<glyph unicode="&#x2019;" horiz-adv-x="245" d="M53 1055l68 61q2 -3 12.5 -14t14.5 -15.5t12.5 -15t12 -17.5t6.5 -17t3 -19q0 -14 -8 -36t-16.5 -38.5t-19 -35.5t-11.5 -21l-59 -58q59 97 59 154q0 25 -14 39q-7 9 -15.5 14t-24.5 11t-20 8z" />
<glyph unicode="&#x201c;" horiz-adv-x="456" d="M39 954q0 3 1 9t1 8q4 17 23 41t41.5 46.5t25.5 26.5l74 37q-103 -91 -103 -151q0 -9 4 -21q5 -11 13 -19t19.5 -16t15.5 -12l-80 -41q-1 2 -8.5 15t-12.5 23t-9.5 25t-4.5 29zM266 950q0 11 2 17q4 16 22.5 39.5t43.5 47.5l24 25l72 39q-100 -94 -100 -151q0 -15 4 -23 q5 -10 13 -18t18.5 -16t15.5 -13l-80 -39q-35 61 -35 92z" />
<glyph unicode="&#x201d;" horiz-adv-x="456" d="M20 850q101 94 101 151q0 15 -4 21q-5 11 -12.5 19t-19 16.5t-15.5 11.5l80 41q34 -60 34 -92q0 -13 -2 -17q-4 -17 -23 -41t-41.5 -46.5t-25.5 -26.5zM246 846q102 90 102 149q0 11 -4 23q-4 8 -10.5 15.5t-11 11t-14.5 10.5t-13 10l82 39q35 -61 35 -92q0 -2 -1 -8 t-1 -9q-4 -16 -22.5 -40t-43 -47.5t-25.5 -24.5z" />
<glyph unicode="&#x202f;" horiz-adv-x="303" />
<glyph unicode="&#x205f;" horiz-adv-x="379" />
<glyph unicode="&#x25fc;" horiz-adv-x="716" d="M0 0v717h717v-717h-717z" />
</font>
</defs>
</svg>
