<?xml version="1.0" standalone="no"?>
<!DOCTYPE svg PUBLIC "-//W3C//DTD SVG 1.1//EN" "http://www.w3.org/Graphics/SVG/1.1/DTD/svg11.dtd" >
<svg xmlns="http://www.w3.org/2000/svg" xmlns:xlink="http://www.w3.org/1999/xlink" version="1.1">
<metadata></metadata>
<defs>
<font id="vikingregular" horiz-adv-x="1740" >
<font-face units-per-em="2048" ascent="1638" descent="-410" />
<missing-glyph horiz-adv-x="1396" />
<glyph horiz-adv-x="0" />
<glyph horiz-adv-x="682" />
<glyph unicode="&#xd;" horiz-adv-x="747" d="M61 129l281 -133v1372h344l-213 141h-412v-1380z" />
<glyph horiz-adv-x="1482" d="M0 422l311 145l4 -567q408 -6 539 -6q195 0 311 37q140 45 265 170l-15 12q-154 -84 -291 -76l-532 29l-4 530l633 295v164l-633 -295l-8 1096q-119 4 -196 6t-114 2q-43 0 -82 -29l-145 -110h258l8 -1096l-309 -143v-164z" />
<glyph horiz-adv-x="1482" d="M0 422l311 145l4 -567q408 -6 539 -6q195 0 311 37q140 45 265 170l-15 12q-154 -84 -291 -76l-532 29l-4 530l633 295v164l-633 -295l-8 1096q-119 4 -196 6t-114 2q-43 0 -82 -29l-145 -110h258l8 -1096l-309 -143v-164z" />
<glyph horiz-adv-x="1923" d="M61 57q0 -33 119 -32h154q139 0 420 -25q279 -25 420 -25q193 0 309 25q135 27 293 123q90 55 90 86q-4 4 -7.5 6t-5.5 4q-23 -10 -60.5 -28.5t-90.5 -43.5q-90 -29 -326 -28q-100 0 -208.5 6t-227.5 20l-434 50q188 207 297.5 324.5t142.5 150.5q295 287 404 415 q72 86 154.5 196t181.5 245q-567 0 -1172 37q-55 -29 -94 -49.5t-62 -32.5q-104 -53 -153 -64l1048 -31l9 -6v-2q-100 -123 -184.5 -219t-153.5 -166q-254 -250 -342 -336q-100 -98 -209 -218t-228 -263q-84 -102 -84 -119zM293 2036q236 -121 528 -332q59 -41 82 -41l31 6 l221 41v2q80 8 166 62l336 202q49 27 55 52q-4 4 -4 6q-29 0 -59 -11l-213 -38q-113 -23 -181 -66q-61 -41 -104 -68.5t-66 -44.5q-289 152 -360 176q-160 53 -391 54h-41z" />
<glyph horiz-adv-x="1923" d="M61 57q0 -33 119 -32h154q139 0 420 -25q279 -25 420 -25q193 0 309 25q135 27 293 123q90 55 90 86q-4 4 -7.5 6t-5.5 4q-23 -10 -60.5 -28.5t-90.5 -43.5q-90 -29 -326 -28q-100 0 -208.5 6t-227.5 20l-434 50q188 207 297.5 324.5t142.5 150.5q295 287 404 415 q72 86 154.5 196t181.5 245q-567 0 -1172 37q-55 -29 -94 -49.5t-62 -32.5q-104 -53 -153 -64l1048 -31l9 -6v-2q-100 -123 -184.5 -219t-153.5 -166q-254 -250 -342 -336q-100 -98 -209 -218t-228 -263q-84 -102 -84 -119zM293 2036q236 -121 528 -332q59 -41 82 -41l31 6 l221 41v2q80 8 166 62l336 202q49 27 55 52q-4 4 -4 6q-29 0 -59 -11l-213 -38q-113 -23 -181 -66q-61 -41 -104 -68.5t-66 -44.5q-289 152 -360 176q-160 53 -391 54h-41z" />
<glyph unicode=" "  horiz-adv-x="1396" />
<glyph unicode="&#x09;" horiz-adv-x="1396" />
<glyph unicode="&#xa0;" horiz-adv-x="1396" />
<glyph unicode="!" horiz-adv-x="509" d="M61 195q0 -20 39 -60q113 -115 142 -135l8 -2q23 4 29 10h2q2 2 4 5l2 3q66 51 84 66q82 67 88 98q-94 117 -150 166q2 -4 2 -8q-33 33 -39 35h-2q-20 0 -47 -27l-6 -2q-150 -135 -151 -137q-4 -8 -5 -8v-4zM164 1708l45 -881q2 -63 4 -126.5t4 -129.5q2 -147 19 -147 l-3 4v-2q8 0 19 16q16 51 28.5 86t18.5 54q20 57 31.5 92t15.5 47q4 59 5 98t3 60q18 328 25 430q2 80 31 299q8 59 11 134t3 163v18l-4 6h-2q-10 4 -109 -67q-29 -23 -57.5 -43.5t-56.5 -42.5q-35 -23 -31 -68z" />
<glyph unicode="&#x22;" horiz-adv-x="714" d="M72 1022l164 88l100 496l-178 -43zM385 1022l164 88l100 496l-178 -43z" />
<glyph unicode="#" horiz-adv-x="1179" d="M63 494h228l-68 -471h125l70 473h282l-65 -473h127l65 471h238v120h-215l43 297h225v123h-209l66 451h-125l-68 -451h-284l63 451h-127l-63 -451h-248v-123h231l-47 -297h-239zM438 612l45 299h283l-41 -299h-287z" />
<glyph unicode="$" horiz-adv-x="1148" d="M63 1071q0 -172 213 -280l394 -197q213 -109 213 -223q0 -33 -15.5 -61.5t-40 -49t-58.5 -33t-71 -12.5q-102 0 -233 70q-55 29 -207 131l-190 -221q182 -154 303 -179v-428q98 39 258 154v258q47 4 88 35q25 16 67 69l242 275q72 84 72 182q0 168 -271 279 q-8 12 -153 78q-92 41 -155.5 72.5t-102.5 58.5q-135 88 -135 180q0 18 6 35l-11 -7v-2q27 80 160 80q51 0 230 -63q180 -61 102 -62q14 0 116.5 80t102.5 90q0 23 -82 62q-61 29 -102 43q-53 16 -125 26v369q-41 -29 -108.5 -68.5t-161.5 -93.5v-276q-82 -57 -134.5 -96 t-76.5 -62q-133 -117 -134 -213z" />
<glyph unicode="%" horiz-adv-x="1402" d="M63 1001q0 -84 39 -141q45 -70 123 -69q92 0 187 81l194 164q125 105 125 250q0 92 -31 160q-39 88 -120 88q-76 0 -148 -57l-229 -181v-2q-139 -109 -140 -293zM139 -14q82 51 111 73q104 94 160 142q55 55 464 712l236 363q197 307 211 344q-244 -152 -285 -170 q-76 -131 -127 -220t-80 -136l-262 -467q-51 -92 -109.5 -184.5t-123.5 -188.5q-49 -68 -98.5 -135.5t-96.5 -132.5zM309 1180v39q0 51 15 88q20 57 57 57q108 0 108 -260q0 -137 -57 -137q-88 0 -121 196v-6q-2 2 -2 23zM668 213q0 -78 45 -141q49 -72 125 -72q74 0 190 86 l172 127q150 111 150 236q0 102 -31 176q-41 102 -129 102q-76 0 -148 -57l-227 -176v-2q-147 -115 -147 -279zM909 375q0 39 17 100q20 74 55 70l4 2h2q51 0 78 -76q23 -68 22 -117v-53q0 -150 -63 -149q-78 0 -111 165v-4q-2 23 -3 38.5t-1 23.5z" />
<glyph unicode="&#x26;" horiz-adv-x="2787" d="M66 635q0 -168 137 -338q236 -297 598 -297q279 0 608 170q78 41 212 127t327 217q125 -111 240.5 -229.5t226.5 -253.5l256 86q-266 328 -537 567q182 174 329.5 342t264.5 336l-344 -90q-78 -156 -165 -282t-183 -224q-137 117 -239.5 191.5t-168.5 109.5 q-129 66 -245.5 124t-227.5 107q-303 137 -303 336q0 72 52 118t128 46q129 0 256 -100q41 -33 90 -82t107 -119l287 80q-229 328 -541 328q-113 0 -213 -43l-287 -121q-156 -63 -156 -240q0 -61 48 -145q51 -86 106 -109l-154 -55v-2q-510 -213 -509 -555zM317 801 q0 176 107 264q100 84 276 84q435 0 1168 -567l-105 -95v-2q-154 -135 -356 -231q-231 -111 -406 -111q-266 0 -477 195q-207 197 -207 463z" />
<glyph unicode="'" horiz-adv-x="489" d="M61 1329l5 2v-2q143 -119 143 -258q0 -57 -55 -168l-56 -110q0 -8 11 -9q23 0 137 154q106 143 129 190q28 68 28 117q0 156 -155 266q-70 -66 -117 -110.5t-70 -71.5z" />
<glyph unicode="(" horiz-adv-x="636" d="M109 -25q0 -51 6 -127q4 -49 24.5 -98t52 -92t73.5 -79t89 -56l269 164q-43 12 -83 37.5t-71 58.5t-51.5 70.5t-26.5 78.5q-4 29 -6 64t-2 76v1542q0 195 145 278q59 35 82 70q-2 -6 -6 -23l-6 37l-43 -20q-86 -41 -140.5 -69.5t-80.5 -43.5q-127 -70 -180 -176 q-45 -90 -45 -250v-1442z" />
<glyph unicode=")" horiz-adv-x="647" d="M35 1839q193 -63 229 -231q10 -51 10 -160v-1536q0 -166 -129 -291q-57 -31 -90 -37l4 -33q109 53 174.5 85t92.5 47q117 63 168 153q55 100 55 266v1450q0 35 -1 67t-3 58q-8 100 -80 193q-63 84 -162 135z" />
<glyph unicode="*" horiz-adv-x="647" d="M53 1788l154 -80l-123 -61q-6 -25 -6 -45q0 -51 8 -76l182 98v-170l123 66v102l109 -49q32 45 110 76l-133 77l117 62l-12 104l-185 -96v197q-90 -66 -129 -99l2 -75l-96 41q-18 -18 -43 -35q-45 -33 -78 -37z" />
<glyph unicode="+" horiz-adv-x="1181" d="M39 672h471v-484h158v484h479v159h-479v480h-158v-480h-471v-159z" />
<glyph unicode="," horiz-adv-x="489" d="M51 227v4q162 -106 162 -280q0 -47 -59 -176l-60 -129q0 -8 10 -8q20 0 54 51q20 23 32.5 37t18.5 22q223 242 223 389q0 168 -172 295q-57 -49 -109.5 -100t-99.5 -105z" />
<glyph unicode="-" horiz-adv-x="1122" d="M57 666q0 -16 43 -17h744q45 41 81 71t64 50h2q74 62 86 74q0 12 -88 26h-688v-2q-51 -45 -105.5 -88t-113.5 -86q-25 -18 -25 -28z" />
<glyph unicode="." horiz-adv-x="526" d="M55 203q0 -18 43 -51q141 -147 158 -154l8 -2q25 2 94 70q111 106 117 137q-8 33 -39 47l-123 117v-7q-10 10 -20 19.5t-21 13.5q-25 0 -39 -24q-168 -125 -178 -158v-8z" />
<glyph unicode="/" horiz-adv-x="1323" d="M88 -76q240 188 322 314q371 569 590.5 905.5t291.5 447.5q-27 -12 -70.5 -37.5t-107.5 -64.5q-127 -78 -174 -131q-14 -16 -42 -64.5t-73 -130.5l-123 -229q-117 -217 -269 -468t-345 -544v2z" />
<glyph unicode="0" horiz-adv-x="1452" d="M66 700q0 -281 106 -467q131 -233 383 -233q141 0 272 72l273 151q301 168 301 576q0 66 -6 108l2 4v-2q-25 268 -170 426q-176 188 -383 189q-111 0 -195 -51l-282 -168q-301 -178 -301 -605zM324 791q0 139 34 284q47 182 134 240q35 23 116 22q190 0 355 -110 q115 -78 153 -219q29 -105 29 -273q0 -41 -7.5 -105.5t-21.5 -152.5q-33 -199 -72 -231q-39 -31 -126 -51q-78 -18 -138 -19q-78 0 -146.5 24.5t-123.5 69.5t-95 108.5t-59 141.5v-4q-33 113 -32 275z" />
<glyph unicode="1" horiz-adv-x="884" d="M51 944q0 -8 6 -8q23 0 76 61l70 82l2 2q6 6 17 19.5t21.5 28t18.5 24.5l8 10l-16 -1007l-27 -27q-4 0 -4 -4q-57 -45 -91 -71.5t-44 -37.5q0 -14 35 -14l172 -2h121q27 -2 39 -2h16q186 0 360 168q-29 -4 -62.5 -6t-72.5 -2q-113 0 -186 20q14 1047 25 1311l-13 -2 q-215 -145 -248 -184q-55 -90 -79 -136q-2 -2 -2 -4q-55 -94 -119 -174q-23 -29 -23 -45z" />
<glyph unicode="2" horiz-adv-x="1353" d="M68 53q0 -23 36 -22q104 0 314 -19q104 -8 182 -12t131 -4q244 0 477 154q97 65 97 88l-2 4q-201 -68 -302 -68q-86 0 -228 15.5t-341 43.5q14 33 30.5 63t37.5 58q59 88 231 248q190 178 254 258q125 152 125 287q0 127 -133 244q-131 119 -262 118q-63 0 -123 -34 q-61 -39 -113.5 -72t-97.5 -62q-213 -141 -213 -385q0 -23 6 -73q82 51 145.5 98t108.5 92v-2q0 63 1 102t3 56q14 117 68 117q102 0 223 -115t121 -215q0 -111 -137 -242l-373 -362q-119 -115 -230 -275q-37 -53 -36 -84z" />
<glyph unicode="3" horiz-adv-x="1224" d="M57 154q0 -27 31 -35h2q254 -143 424 -144q92 0 211 76l289 189q155 100 155 280q0 131 -94 213q-94 84 -223 96l-88 9q252 160 252 354q0 133 -100.5 231.5t-231.5 102.5v4q-115 0 -203 -62l-205 -141q-94 -63 -129 -131q-31 -66 -30 -182q0 -41 6 -53q6 -2 10 -3 q4 0 105 66q106 70 106 84q0 2 -1 13.5t-3 32t-2 32.5v16q0 158 141 158q111 0 211 -84q98 -84 98 -195q0 -158 -96 -219q-78 -47 -243 -47l-136 -90q-2 -4 -37 -27q-33 -18 -32 -26v-2q12 -6 20 -6h45q29 0 64 2t62.5 3t45.5 1q430 0 430 -271q0 -248 -192 -247 q-168 0 -486 188q-176 -176 -176 -186z" />
<glyph unicode="4" horiz-adv-x="1556" d="M53 461q0 -18 223 -33l242 -16q76 -4 135.5 -7.5t104.5 -3.5l-2 -315q0 -59 -2 -53q4 -35 20 -35q33 0 148 51q37 16 65.5 30.5t48.5 26.5l6 295q133 0 261 62q129 63 196 166v-2q-145 -49 -199 -49h-4t-14 2h-35h-200v905q0 43 -19 53q-25 0 -137 -70q-117 -72 -129 -90 q-35 -53 -58.5 -89t-37.5 -56q-129 -203 -258 -364.5t-261 -290.5q-94 -92 -94 -117zM281 623q27 27 53 55.5t55 56.5q353 377 373 404l-10 -547l4 -4v-2q-199 0 -475 37z" />
<glyph unicode="5" horiz-adv-x="1224" d="M61 104q143 -111 365 -110q109 0 186 47l351 223q202 129 202 307q0 373 -673 414v371q217 -2 272 -6q96 0 215 53q117 51 174 127q-104 -16 -197.5 -24.5t-179.5 -8.5q-84 0 -171 7t-179 22q-111 -92 -207 -131v-588q199 -8 223 -12q444 -51 445 -351q0 -274 -252 -274 q-76 0 -203 35q-131 37 -186 80z" />
<glyph unicode="6" horiz-adv-x="1241" d="M63 580q0 -434 330 -551q74 -27 154 -27q174 0 311 143l227 236q111 112 111 309q0 164 -113 271q-109 106 -276 106q-182 0 -320 -111q-72 -55 -235 -251v4q0 176 51 323q61 180 178 266l-4 -8v-2q84 59 223 60q35 0 107 -13q70 -12 106 -12q25 0 115 74 q39 31 66.5 55.5t46.5 42.5q-45 10 -89 15.5t-85 5.5h-11q-377 0 -639 -281q-254 -272 -254 -655zM274 610q0 100 179 197q82 45 176 45q137 0 260 -123q125 -119 125 -258q0 -113 -94 -176q-84 -55 -201 -55q-96 0 -207 47l2 4v-2q-80 35 -158 135q-82 102 -82 186z" />
<glyph unicode="7" horiz-adv-x="1263" d="M59 1333l9 -4q72 14 107.5 21.5t37.5 7.5l702 -41q-532 -1042 -694 -1346q37 29 76 58.5t80 62.5l2 2q20 20 43.5 42t26.5 24l-3 4v-2q43 82 74 141t49 94q98 193 177 339.5t139 250.5q88 150 168.5 279.5t156.5 244.5q-76 -8 -143.5 -11t-126.5 -3q-41 0 -101.5 3 t-142.5 11q-80 8 -140 11.5t-101 3.5q-115 0 -160 -19q-59 -23 -131 -71q-84 -59 -105 -103z" />
<glyph unicode="8" horiz-adv-x="1361" d="M59 416q0 -170 170 -297q156 -119 332 -119q139 0 227 45l322 162q86 43 138 130t52 181q0 168 -112 250q-66 47 -260 117q76 53 120 87t56 44q96 90 96 188q0 145 -115 236q-106 84 -254 84q-84 0 -139 -21l-311 -110q-104 -37 -167.5 -119t-63.5 -182q0 -119 133 -215 q68 -49 116 -50q-170 -102 -229 -161q-111 -115 -111 -250zM324 553q0 80 45 156q51 88 123 88t167 -31q41 -16 80 -30.5t80 -28.5q190 -68 191 -265v-8l-2 -4v-12q-10 -57 -16.5 -95t-10.5 -57q-33 -131 -154 -131q-102 0 -219 47q-123 51 -186 125l2 6v-2 q-100 106 -100 242zM420 1188q0 96 63 162q63 70 156 69q123 0 213 -92q92 -92 92 -215q0 -37 -4 -64.5t-14.5 -50t-27.5 -45t-44 -47.5q-119 39 -185.5 60.5t-80.5 27.5q-168 76 -168 195z" />
<glyph unicode="9" horiz-adv-x="1251" d="M59 825q0 -162 111 -268q109 -106 270 -106q100 0 228 61q127 66 196 143q35 41 62.5 70t48.5 49q2 4 2 -26q0 -391 -207 -527v2q-84 -59 -225 -59q-39 0 -109 12q-72 12 -108 12q-23 0 -88 -71q-47 -39 -78 -65.5t-47 -41.5q41 -4 85 -7t89 -3q377 0 647 289 q264 284 264 665q0 238 -110 389q-123 172 -353 173q-205 0 -411 -213q-145 -152 -187 -213q-80 -121 -80 -265zM250 1036q0 258 311 258q102 0 199 -37q-2 0 -2 -2q88 -41 153 -141q66 -102 66 -196q0 -100 -125 -177q-109 -70 -217 -69q-160 0 -275 102q-111 100 -110 262 z" />
<glyph unicode=":" horiz-adv-x="534" d="M66 211q0 -4 45 -51q27 -29 45 -50.5t28 -33.5q68 -74 92 -76h11q31 20 106 98q90 97 96 117q-51 59 -93 104.5t-74 73.5q-2 -4 -3 -8q-33 33 -38 35h-2q-23 0 -37 -25q-23 -16 -62 -61t-65 -62q0 -2 -2 -2q-47 -47 -47 -59zM76 842q0 -20 37 -54q111 -104 155 -149l8 -4 q20 2 97 84q112 119 116 137q-16 27 -43 53l-124 127v-6q-33 33 -39 35q-27 -4 -86 -72q-27 -29 -43.5 -47t-24.5 -28l-2 -5q-51 -51 -51 -71z" />
<glyph unicode=";" horiz-adv-x="538" d="M55 850q0 -14 88 -105q41 -43 70 -70.5t45 -39.5l8 -2q20 2 96 84q113 119 117 137q-94 113 -168 180q-2 -4 -2 -8q-33 33 -39 35h-2q-23 0 -37 -25l-35.5 -35.5t-25.5 -27.5q-41 -49 -66 -62q0 -2 -2 -2q-47 -47 -47 -59zM70 233v5q162 -106 161 -281q0 -47 -59 -176 l-59 -129q0 -8 10 -8q20 0 53 51q20 23 32.5 37t18.5 22q224 242 224 389q0 168 -172 295q-57 -49 -109.5 -100t-99.5 -105z" />
<glyph unicode="&#x3c;" horiz-adv-x="1179" d="M61 702l1049 -479l16 -8v123l-909 416l909 444v133l-1048 -502l-17 -8v-119z" />
<glyph unicode="=" horiz-adv-x="1036" d="M70 575h921v105h-921v-105zM70 834h921v104h-921v-104z" />
<glyph unicode="&#x3e;" horiz-adv-x="1193" d="M66 215l1048 479l16 8v119l-1048 502l-16 8v-133l905 -444l-905 -416v-123z" />
<glyph unicode="?" horiz-adv-x="1282" d="M61 1341q0 -100 66 -213q59 -102 147 -170q57 -45 95 -45q4 0 55 35l186 133q-135 51 -223 176q-86 125 -86 271q0 98 55.5 164.5t141.5 66.5q139 0 288 -133q150 -131 150 -270q0 -225 -193 -559l-215 -373q2 -4 2 -8q150 90 265 256l297 430q23 35 43 75t41 87 q43 106 43 174q0 164 -172 340q-170 176 -336 176q-104 0 -195 -72l-283 -231q-172 -141 -172 -310zM426 213q0 -23 66 -107q33 -41 56 -67.5t38 -36.5l10 -2q37 8 53 23l133 102q39 31 39 45t-33 53l-90 113v-4q-39 51 -51 51q-23 0 -43 -25q-86 -63 -132 -100t-46 -45z " />
<glyph unicode="@" horiz-adv-x="1660" d="M94 770q0 -332 215 -553q215 -219 545 -219q123 0 226.5 22.5t189.5 70.5t158.5 124t136.5 182h-131q-10 -18 -18.5 -33.5t-16.5 -29.5q-76 -111 -240 -182q-143 -59 -276 -60q-291 0 -482 191q-188 193 -188 481q0 268 190 463q190 193 459 192q72 0 150 -18 q453 -109 452 -500q0 -209 -135 -395q-96 -129 -188 -129q-63 0 -64 63q0 20 25 113l147 553h-180l-39 -135l-31 49v-2q-37 104 -165 104q-166 0 -311.5 -145.5t-145.5 -310.5q0 -143 69 -238q76 -106 218 -106q78 0 147 53q23 16 48.5 47t55.5 72q25 -178 150 -179 q215 0 367 191q143 174 143 397q0 250 -170 410q-152 141 -408 196q-33 8 -67.5 11.5t-71.5 3.5q-307 0 -536 -224q-227 -225 -228 -530zM565 561q0 127 84 305q94 199 211 199q125 0 125 -172q0 -127 -78 -307q-90 -203 -200 -203q-20 0 -52 10q2 0 2 -2q-92 27 -92 170z " />
<glyph unicode="A" horiz-adv-x="2177" d="M-68 -281h2q125 63 227.5 148.5t188.5 193.5q25 33 99.5 151t203.5 323l754 -11l274 -516q66 -4 117 -6t86 -2q131 0 160 14q174 82 260 176q-93 -28 -165 -28h-5h-23q-10 0 -20 2h-168q-281 547 -452 876.5t-228 442.5l-278 2h-4q-186 0 -353 -166q76 8 134.5 11 t103.5 3q23 0 65.5 -2t65.5 -2l-422 -723l-184 -86h129q-117 -199 -179.5 -306.5t-72.5 -125.5q-137 -231 -316 -373v4zM727 645l338 539l285 -541z" />
<glyph unicode="B" horiz-adv-x="1665" d="M51 1378l326 6l10 -1292q0 -76 33 -84q14 -8 129 -8q104 0 185 4t140 12q117 16 220.5 46t195.5 75q314 149 314 391v13q0 168 -172 266q-109 63 -322 106q82 33 141.5 60.5t96.5 54.5q118 81 118 219q0 143 -166 228q-133 65 -281 65h-13l-687 -10zM653 184v604l84 -4 v-2q213 0 385 -84q209 -104 209 -301q0 -119 -112 -198q-102 -74 -224 -74h-256q-86 0 -86 59zM653 903v475q231 -4 336 -30q209 -55 209 -218v-6l-2 -4v-6q0 -113 -127 -172q-96 -43 -225 -43q-18 0 -44 1t-55 1q-27 0 -51 1t-41 1z" />
<glyph unicode="C" horiz-adv-x="1779" d="M57 778q0 -197 127 -354q141 -178 363 -299q229 -125 448 -125q170 0 336 74q16 8 91 53t208 127l4 31l-41 -23l9 2v-2q-195 -110 -330 -110h-2q-129 0 -248 55q-86 41 -144.5 67.5t-91.5 42.5q-430 199 -430 539q0 193 140 422q45 76 268 76q35 0 61.5 -1t44.5 -3 l344 -39q41 -4 86.5 -16.5t92.5 -28.5q120 -47 120 -110q0 -21 -8 -52l-12 -49v-4q4 -2 8 -2q27 0 64 67l141 170q27 33 27 74q0 74 -344 127q-129 20 -235.5 29.5t-197.5 9.5q-33 0 -74.5 -3t-95.5 -7q-59 -35 -124.5 -75t-135.5 -85q-100 -43 -235 -74q-41 -10 -62 -18 q-70 -70 -120 -228q-51 -147 -52 -258z" />
<glyph unicode="D" horiz-adv-x="1880" d="M57 1493q0 -16 84 -33l467 -78q-92 -66 -149.5 -106.5t-79.5 -56.5q-100 -80 -148 -170q-51 -100 -51 -267q0 -498 471 -723q125 -59 258 -59q135 0 244 61l434 244q162 88 209 283q29 118 29 364q0 453 -469 527l-920 145q-90 14 -102 29v6q0 4 31 39q33 33 32 45 q0 6 -12 16h-8q-10 0 -58 -39l-178 -143v-2q-84 -55 -84 -82zM471 846q0 68 7 132t22 128q41 170 114 227l54 41l465 -88q225 -43 317 -164q94 -118 94 -354q0 -100 -39 -258q-47 -193 -92 -231q-94 -82 -252 -82q-137 0 -284 65q-285 125 -357 330q-49 137 -49 254z" />
<glyph unicode="E" horiz-adv-x="1718" d="M219 408q29 -29 66 -63t84 -71q39 -29 77.5 -59.5t79.5 -60.5q193 -154 430 -154q166 0 275 68l252 155q73 44 73 77v1q0 2 -2 2l-92 -47q-106 -53 -112 -55q-78 -23 -160 -23q-203 0 -449 166q-233 154 -346 340q332 4 512 7t211 7q104 14 162.5 21.5t73.5 11.5 q98 23 217 92l-4 17q-133 -41 -254 -41h-37t-51 2l-891 30q18 449 137 500q57 25 143 25q66 0 136.5 -5t148.5 -16q160 -23 263.5 -36t150.5 -17q135 -35 135 -178q0 -27 -16 -76q41 53 70.5 92t49.5 66q16 16 29.5 30.5t24.5 26.5q31 33 49 62q6 14 6 28q0 90 -262 119 l-496 53q-115 12 -158 13q-59 0 -100 -29q-86 -57 -138 -90t-75 -41q-88 -31 -147.5 -52.5t-91.5 -31.5l4 2v-2q-49 -37 -95 -205q-36 -135 -36 -228q0 -271 153 -433z" />
<glyph unicode="F" horiz-adv-x="1466" d="M27 -428l20 -25q133 100 214 163t114 87q106 82 145 127q63 72 64 172v471h45h35q10 -2 18 -2h12h111q193 0 297 27q152 37 266 133q-94 -13 -172 -19q-41 -3 -77 -3q-33 0 -62 2l-482 20v674l498 -2q172 0 338 141l-981 -2q-115 0 -190 -45l-181 -105l238 -6l4 -1351 q0 -156 -72 -258q-33 -47 -202 -199z" />
<glyph unicode="G" horiz-adv-x="1779" d="M63 780q0 -170 138 -338q88 -109 278 -256l2 4v-2q244 -188 445 -188q92 0 173 33t161 69q35 16 58 25.5t34 13.5q2 -6 2 -43q0 -205 -31 -311q-51 -181 -55 -181v1l2 -2v-2h2q4 0 106 104q18 20 33.5 35.5t26.5 30.5l110 98q37 33 68 135q4 50 4 71v11l72 739h-62t-47 2 q-29 2 -59.5 2t-61.5 -2q-39 -2 -65.5 -4t-42.5 -6q-59 -14 -176 -61q-57 -23 -99.5 -44.5t-70.5 -39.5q127 10 198 14q46 3 69 3q12 0 17 -1l111 -6l-29 -487q-102 -31 -184 -31q-137 0 -287 88q-20 12 -81.5 55t-166.5 119q-72 53 -123 98t-83 86q-88 109 -89 258 q0 115 58 256q63 166 147 197q49 20 129 20q61 0 117.5 -3t110.5 -11q106 -16 180 -26.5t115 -18.5q299 -41 299 -137q0 -20 -9 -51l-12 -49v-5q4 -2 8 -2q16 0 64 66l116 160q43 57 43 75v2l-2 9q-51 59 -417 112q-147 20 -267 30.5t-213 10.5q-43 0 -106 -45l-98 -67 q-86 -59 -316 -113q-43 -8 -55 -16q-84 -96 -135 -230q-53 -135 -54 -254z" />
<glyph unicode="H" horiz-adv-x="1943" d="M63 1839l363 -12v-1831l274 96v998q0 109 93 206q94 100 202 101l115 -25q78 -45 127 -73.5t68 -43.5q63 -47 114 -106t92 -131q88 -152 88 -301q0 -365 -247 -649l-103 -117l-4 -2q-25 -31 -47 -53q-43 -47 -43 -64v-4l6 -6q2 -2 6 -2q27 0 162 135q152 150 232.5 231.5 t95.5 98.5q231 290 231 544q0 283 -315 560q-162 139 -266 139q-158 0 -596 -191v643h-428z" />
<glyph unicode="I" horiz-adv-x="952" d="M264 1786q20 -35 41 -49q14 -4 137 -127h4q18 -16 27 -19q16 8 31 23q4 14 82 86q80 76 80 92v6q-16 18 -27.5 30.5t-20.5 18.5q-4 0 -4 4q-84 68 -122 105q-16 25 -37 24h-2v2l-2 5v-2q-20 -8 -35 -27q0 -4 -4 -4q-25 -25 -42.5 -43.5t-27.5 -28.5q-68 -74 -78 -96z M266 129l281 -133v1372h344l-213 141h-412v-1380z" />
<glyph unicode="J" horiz-adv-x="923" d="M43 -449l2 -2h2q39 0 166 91q53 39 92 70.5t62 53.5q78 80 129 130.5t77 70.5l-2 -2q105 74 154 105v1454h-412l-256 -154h387l7 -567q2 -190 3 -331.5t1 -238.5q0 -207 -103 -370q-45 -70 -112.5 -139.5t-161.5 -139.5q-31 -23 -35 -31zM338 1792q0 -18 104 -131 q43 -49 74 -70l8 -2q20 10 29 19h2q2 4 6 8l125 113q47 43 47 55q-86 111 -147 168l-2 -4v-2l-2 4l-2 2q-27 27 -37 26q-23 0 -37 -24q-125 -94 -166 -152q0 -4 -2 -6v-4z" />
<glyph unicode="K" horiz-adv-x="2240" d="M49 1401l369 4q14 -690 21 -1040.5t7 -364.5l271 119q-6 678 -6 688q0 18 2 20l6 7l6 2q45 -23 57 -33l465 -463q182 -182 213 -207q141 -117 260 -117q90 0 156 35q45 25 80 45.5t59 36.5q33 16 57.5 27.5t41.5 19.5q84 41 84 51v2l-5 7h-10q-33 0 -112 -27 q-84 -25 -127 -25q-141 0 -414 269l-567 561q258 172 505 385q49 41 95.5 84t89.5 84q-180 -18 -285 -76q-98 -53 -221 -190q-76 -84 -120 -131.5t-58 -61.5q-57 -51 -124 -93t-145 -77l2 594q-180 2 -268 3t-106 1q-55 0 -95 -24z" />
<glyph unicode="L" horiz-adv-x="1482" d="M43 1825h258l14 -1825q408 -6 539 -6q195 0 311 37q140 45 265 170l-15 12q-141 -77 -267 -77q-12 0 -24 1l-532 29l-12 1790q-119 4 -196 6t-114 2q-43 0 -82 -29z" />
<glyph unicode="M" horiz-adv-x="2822" d="M57 696q0 -172 123 -368l203 -326l246 135l-228 373v-2q-37 57 -59 201q-12 12 -12 53q0 150 94 346q106 229 233 229q135 0 322 -125q184 -121 238 -247q14 -36 14 -82v-11l-17 -872l277 98v500q0 272 61 436q82 229 297 301l9 3l4 1q106 0 249 -100q268 -188 318 -395 q2 -6 3 -10l1 -3q0 -145 -131 -401q-23 -47 -75 -139t-132 -230q93 -32 221 -32h8q310 0 457 178q-100 -27 -205 -27q-141 0 -196 21l243 409q100 168 101 291q0 152 -115 291q-180 217 -409 311q-90 37 -127 37q-68 0 -154 -61l-375 -267q-63 -45 -74 -45q-16 0 -32 11 q-41 39 -68 66.5t-41 43.5q-250 238 -424 238q-61 0 -143 -45l-459 -252q-10 -4 -19.5 -11.5t-19.5 -17.5q-74 -66 -127 -180q-80 -170 -80 -324z" />
<glyph unicode="N" horiz-adv-x="1978" d="M53 1368l363 -6v-1362l274 102v969q0 115 96 221q98 104 213 105q96 0 291 -111q143 -82 238 -229q102 -158 102 -314q0 -297 -278 -651q-121 -152 -129 -160l-2 -2q-84 -102 -84 -116v-4l8 -7q23 0 94 66l90 86q156 147 251 242.5t130 136.5q217 260 217 485 q0 180 -119 342q-102 137 -245 252q-174 137 -312 137h-6l-4 -2h-8q-73 0 -266 -98q-78 -41 -145.5 -79t-121.5 -75v207h-391z" />
<glyph unicode="O" d="M61 696q0 -422 373 -622q174 -92 363 -92q156 0 344 98q63 33 305 201q137 94 192 231q48 119 48 301q0 258 -150 440q-145 178 -393 252l4 2v-2q-133 35 -244 35q-164 0 -246 -51l-288 -174q-307 -184 -308 -619zM332 813q0 72 7 141.5t21 141.5q41 190 117 241 q39 27 158 27q133 0 280 -39q262 -68 384 -230t122 -438q0 -495 -345 -495h-1q-199 0 -467 164q-205 125 -235 221l-2 2v-2q-39 111 -39 266z" />
<glyph unicode="P" horiz-adv-x="1581" d="M51 1348l289 18v-1368l264 108l6 519h30q147 0 255 18q111 20 209 54t188 85q236 132 236 312q0 213 -189 340q-163 108 -385 108h-4q-8 0 -10 -2q-4 2 -12 2l-551 -37q-100 -6 -172 -47zM608 729v657l115 3v-3h9q203 0 341 -88q162 -104 162 -307q0 -139 -121 -225 q-109 -78 -252 -78q-162 0 -254 41z" />
<glyph unicode="Q" horiz-adv-x="1693" d="M59 788q0 -80 22.5 -153.5t65.5 -136t104.5 -112.5t139.5 -83l86 -37l287 180q-70 27 -122 47.5t-89 36.5q-115 53 -168 146q-70 119 -70 244q0 80 53.5 208.5t114.5 169.5q10 8 47 9q150 0 283 -58q233 -100 274 -141q70 -76 70 -297q0 -260 -145 -430 q-197 -227 -434 -227q-117 0 -197 36q-41 -29 -70.5 -49t-50.5 -35q-115 -80 -123 -104v-2q0 -6 150 -39q92 -20 173 -40.5t152 -43.5q242 -74 407 -125t257 -80q359 -108 678 -108h6q229 0 358 43q66 20 334 166q66 35 62 51l-9 6q-53 -16 -82 -35l-126 -55 q-82 -35 -232 -35q-170 0 -418 76l-1145 340q53 12 283 158q246 156 342 296q117 168 117 437q0 178 -123 286q-231 197 -533 197q-104 0 -176 -57q-53 -41 -89 -71t-56 -46q-41 -33 -82 -58.5t-82 -48.5q-43 -20 -73.5 -41.5t-54 -47t-42 -58.5t-35.5 -76q-39 -98 -39 -203 z" />
<glyph unicode="R" horiz-adv-x="1945" d="M43 1370l291 2q2 -496 4 -837.5t6 -534.5l268 86v934q0 319 2 346v-2q51 8 86 12t52 4q166 0 301 -65q156 -78 190 -228q2 -6 2 -10q0 -98 -137 -211q-125 -104 -225 -135l-80 -24q-55 -16 -66 -39q-2 -14 197 -250q70 -84 151 -164l2 -2q63 -66 102.5 -108t53.5 -58 q106 -86 199 -86q92 0 168 39t149 80l137 65l-14 25q-147 -59 -194 -59q-51 0 -93 22q-25 14 -71 61q-51 51 -88 89t-60 61q-102 102 -184 196.5t-145 184.5q205 82 360 194q113 82 113 211q0 178 -197 293q-162 94 -362 94q-96 0 -283 -18q-188 -18 -281 -18q-35 0 -45 2 h-43q-53 0 -266 -152z" />
<glyph unicode="S" horiz-adv-x="1363" d="M68 168q0 -49 170 -111q206 -71 364 -71h4q152 0 236 30q70 59 117 101.5t73 68.5q68 53 131.5 102.5t122.5 96.5q10 51 10 68q0 201 -235 344q-125 76 -440 190q-236 86 -246 139q-2 10 -2 52q0 104 47 141q53 8 106.5 11t106.5 3q47 0 108.5 -6t139.5 -20 q200 -35 200 -78q0 -14 -8 -29h-2q-8 -14 -8 -26q2 -2 2 -7l6 -8l4 -2q76 63 107 100q127 121 127 152l-4 12q-72 111 -482 111q-193 0 -241 -25q-236 -190 -324 -227q-102 -43 -119 -59h-8v-2q-20 -33 -20 -140q0 -166 86 -215q51 -31 98 -49l467 -192q150 -61 199 -111 q69 -69 69 -207q0 -37 -10 -63q-78 -47 -260 -47q-193 0 -391 92q-80 37 -80 63q0 12 20 41v8q-4 12 -12 13q-16 0 -123 -113q-106 -109 -106 -131z" />
<glyph unicode="T" horiz-adv-x="1878" d="M55 1376l504 -8l-233 -139v-2q-150 -86 -150 -338q0 -100 51 -357q10 -47 54 -102q125 -162 352 -291q244 -139 432 -139q137 0 332 92q186 88 291 193q38 38 38 54q0 11 -6 11q4 0 4 -2q0 -11 -139 -84q-164 -84 -252 -84q-170 0 -393 111q-203 98 -346 229 q-55 51 -70 84q-47 131 -47 289q0 291 84 405q16 23 49 41q14 8 27.5 14.5t28.5 14.5h65q41 0 94.5 -2t98.5 -2h84q430 0 624 74q78 39 125.5 63.5t65.5 38.5q-205 -50 -472 -50q-29 0 -59 1l-450 10q-135 4 -242.5 9.5t-185.5 13.5q90 61 90 86l-4 6h-6q-18 0 -439 -240z " />
<glyph unicode="U" horiz-adv-x="2172" d="M61 1346l392 -7q-86 -143 -131.5 -217.5t-49.5 -83.5q-108 -191 -108 -319q0 -160 131 -334q59 -78 125.5 -146.5t142.5 -127.5q186 -143 340 -144q143 0 314 76l284 162v-205q178 -2 269.5 -3t97.5 -1q49 0 104 22q45 37 82 65.5t68 51.5l-332 12q-2 498 -4 833t-6 515 l-373 -2q-68 0 -152 -53l-129 -99l369 -4v-1042q-66 -145 -274 -145q-217 0 -461 182q-240 184 -307 397q-14 43 -17 96l2 6v7q0 94 86 278q96 209 203 359q-111 10 -188.5 15t-126.5 5q-76 0 -101 -8q-121 -35 -250 -141z" />
<glyph unicode="V" horiz-adv-x="1961" d="M49 1245q0 -12 14 -12q2 0 59.5 28.5t82.5 28.5q55 0 121 -129l569 -1163q2 -6 18 -16l2 -2q8 -8 13 -9q31 0 135 131q29 37 61.5 81t71.5 96q45 63 51 69v-2q260 342 529 893q53 111 85 178t42 94l-418 -2q-104 0 -135 -18l-197 -115l504 -24q-231 -637 -565 -1088 l-504 1049q-23 47 -38 76.5t-26 44.5q-46 67 -104 67h-2q-68 0 -236 -155q-133 -86 -133 -101z" />
<glyph unicode="W" horiz-adv-x="3164" d="M53 1346q116 29 196 29q16 0 30 -1l147 -10l-190 -317q-104 -176 -105 -299q0 -193 141 -342l238 -252q164 -170 375 -170q147 0 305 79q76 39 145.5 77t134.5 75l72 -63v-2q45 -39 84 -68t74 -47q82 -43 188 -43q88 0 160 24q12 4 49 23.5t96 54.5l246 139l2 -231h113 q57 0 115 -2q141 2 219 39q55 26 229 137l-389 -2v1342l-379 -3q-61 0 -106 -24l-226 -123l150.5 7t111.5 3q170 0 164 -2v-1075q-160 -117 -332 -117q-131 0 -288 109q-166 111 -371 403q-59 102 -59 219q0 82 47 166q33 53 54.5 91t33.5 59q74 131 113.5 201.5t48.5 85.5 l-387 -3q-100 0 -183 -49l-164 -98q111 6 191 6h49t68 -2t67 -2h49q16 0 19 2l-158 -295q-18 -35 -38.5 -69.5t-38 -71.5t-29 -77t-11.5 -83q0 -160 125 -309l172 -209q-109 -66 -147 -80q-80 -29 -164 -29q-49 0 -121 27q-145 53 -250 152l-207 217q-124 130 -124 316 q0 165 282 636q0 23 -41 23l-319 -2q-72 0 -148 -60l-4 -2q-47 -35 -77.5 -61.5t-47.5 -46.5z" />
<glyph unicode="X" horiz-adv-x="2367" d="M-33 -137q158 51 318 217l665 713q395 -526 670 -793h301q84 0 207 51q41 16 88 44t100 63q-59 -8 -127.5 -11.5t-148.5 -3.5q-113 0 -199 7q-209 238 -380 452.5t-308 411.5l203 219q104 113 129 129q63 43 180 43q12 0 31.5 -2t40 -4t40 -4t31.5 -2l283 127 q-131 30 -237 30h-7q-141 0 -307 -73q-154 -66 -266 -170q-145 -133 -203 -197l-340 422h-12q-6 0 -21 2h-47h-196q-104 0 -162 -25q-66 -35 -125 -66.5t-111 -60.5h422l400 -505l-635 -771q-45 -53 -114 -113.5t-163 -129.5z" />
<glyph unicode="Y" horiz-adv-x="1921" d="M41 1362l434 -6l-108 -189v-2q-72 -115 -120 -222t-75 -212q-2 -2 -2 -8q0 -102 139 -301q113 -160 264 -295q201 -180 332 -180h6l4 2q12 -1 24 -1q97 0 232 70l326 172v-237q0 -199 -176 -199q-164 0 -418 86l-393 152q-23 6 -39 10t-27 8q-36 19 -36 49q0 16 26 41 q31 27 33 35q-4 12 -16 19q-35 0 -181 -109q-143 -106 -143 -141q0 -76 432 -226q414 -145 514 -145h4l4 2h8q44 0 117 41q35 16 103.5 63.5t175.5 122.5q215 156 256 199q37 39 37 123l-2 1436l-385 -2q-70 0 -113 -43l-193 -117h412v-1104q-121 -70 -141 -78 q-59 -26 -147 -26h-7q-166 0 -395 180q-356 279 -356 526q0 96 51 193l231 442q-184 8 -291 12q-47 2 -63.5 3t-3.5 1q-88 0 -174 -49q-51 -29 -91 -53.5t-69 -42.5z" />
<glyph unicode="Z" horiz-adv-x="1923" d="M61 57q0 -32 112 -32h7h154q139 0 420 -25q279 -25 420 -25q193 0 309 25q135 27 293 123q90 55 90 86q-4 4 -7.5 6t-5.5 4q-23 -10 -60.5 -28.5t-90.5 -43.5q-87 -28 -310 -28h-16q-100 0 -208.5 6t-227.5 20l-434 50q188 207 297.5 324.5t142.5 150.5q295 287 404 415 q72 86 154.5 196t181.5 245q-567 0 -1172 37q-55 -29 -94 -49.5t-62 -32.5q-104 -53 -153 -64l1048 -31l9 -6v-2q-100 -123 -184.5 -219t-153.5 -166q-254 -250 -342 -336q-100 -98 -209 -218t-228 -263q-84 -102 -84 -119z" />
<glyph unicode="[" horiz-adv-x="569" d="M84 1663q18 -152 18 -326l4 -1015q2 -180 -4 -299t-16 -179h35q12 0 34.5 2t46 3t46 3.5t35.5 2.5h65h39t51.5 -2.5t50.5 -2.5h39l-2 72h-28q-125 0 -144 6q-68 20 -67 107l-4 1438q0 88 79 110q18 2 58.5 3t103.5 1v68q-61 -4 -110 -6t-86 -2q-16 0 -44 2t-63 6t-61.5 6 t-42.5 2h-33z" />
<glyph unicode="\" horiz-adv-x="1308" d="M59 1520l768 -1049q180 -246 248 -301q-2 -2 -2 -4q83 -94 189 -166q-168 248 -281 415t-172 253q-113 176 -188.5 293.5t-114.5 179.5q-78 123 -111 159q-47 49 -157 115z" />
<glyph unicode="]" horiz-adv-x="544" d="M43 -158h39h41t59.5 2t59.5 2h41q12 0 34.5 -2t47 -3t47 -3t34.5 -2h35q-8 141 -11 209t-3 66l4 890q2 256 6.5 419t14.5 235q-59 -4 -108.5 -6t-90.5 -4q-72 -6 -51 -7l-76 4q-39 2 -58.5 3.5t-17.5 1.5h-39v-68q57 -2 96 -2t62 -2q82 -18 82 -111l-4 -1439 q0 -113 -125 -113h-88q-6 2 -27 2z" />
<glyph unicode="^" horiz-adv-x="1296" d="M-20 1151q0 -2 4 -6q23 0 53 10l211 39q113 23 180 66q61 41 104 68.5t66 43.5q289 -152 360 -176q160 -53 392 -53h41q-199 121 -345.5 212t-242.5 156q-10 2 -15.5 3.5t-7.5 1.5q-10 0 -252 -48v-2q-80 -10 -166 -61l-335 -203q-37 -23 -47 -51z" />
<glyph unicode="_" horiz-adv-x="1421" d="M-14 -311v-33h1493v33h-1493z" />
<glyph unicode="`" horiz-adv-x="937" d="M49 1495q0 -23 37 -41q72 -37 121 -62.5t76 -39.5q180 -94 235 -97q-2 0 -2 -2q129 -37 338 -36h41q-223 119 -526 331q-16 10 -33 19.5t-33 19.5h-4q-23 0 -43 -12h-6l-129 -45q-72 -25 -72 -35z" />
<glyph unicode="a" horiz-adv-x="2177" d="M-68 -281h2q125 63 227.5 148.5t188.5 193.5q25 33 99.5 151t203.5 323l754 -11l274 -516q66 -4 117 -6t86 -2q131 0 160 14q174 82 260 176q-93 -28 -165 -28h-5h-23q-10 0 -20 2h-168q-281 547 -452 876.5t-228 442.5l-278 2h-4q-186 0 -353 -166q76 8 134.5 11 t103.5 3q23 0 65.5 -2t65.5 -2l-422 -723l-184 -86h129q-117 -199 -179.5 -306.5t-72.5 -125.5q-137 -231 -316 -373v4zM727 645l338 539l285 -541z" />
<glyph unicode="b" horiz-adv-x="1665" d="M51 1378l326 6l10 -1292q0 -76 33 -84q14 -8 129 -8q104 0 185 4t140 12q117 16 220.5 46t195.5 75q314 149 314 391v13q0 168 -172 266q-109 63 -322 106q82 33 141.5 60.5t96.5 54.5q118 81 118 219q0 143 -166 228q-133 65 -281 65h-13l-687 -10zM653 184v604l84 -4 v-2q213 0 385 -84q209 -104 209 -301q0 -119 -112 -198q-102 -74 -224 -74h-256q-86 0 -86 59zM653 903v475q231 -4 336 -30q209 -55 209 -218v-6l-2 -4v-6q0 -113 -127 -172q-96 -43 -225 -43q-18 0 -44 1t-55 1q-27 0 -51 1t-41 1z" />
<glyph unicode="c" horiz-adv-x="1779" d="M57 778q0 -197 127 -354q141 -178 363 -299q229 -125 448 -125q170 0 336 74q16 8 91 53t208 127l4 31l-41 -23l9 2v-2q-195 -110 -330 -110h-2q-129 0 -248 55q-86 41 -144.5 67.5t-91.5 42.5q-430 199 -430 539q0 193 140 422q45 76 268 76q35 0 61.5 -1t44.5 -3 l344 -39q41 -4 86.5 -16.5t92.5 -28.5q120 -47 120 -110q0 -17 -10 -50t-10 -49v-6q4 -2 8 -2q27 0 64 67l141 170q27 33 27 74q0 74 -344 127q-129 20 -235.5 29.5t-197.5 9.5q-33 0 -74.5 -3t-95.5 -7q-59 -35 -124.5 -75t-135.5 -85q-100 -43 -235 -74q-41 -10 -62 -18 q-70 -70 -120 -228q-51 -147 -52 -258z" />
<glyph unicode="d" horiz-adv-x="1880" d="M57 1493q0 -16 84 -33l467 -78q-92 -66 -149.5 -106.5t-79.5 -56.5q-100 -80 -148 -170q-51 -100 -51 -267q0 -498 471 -723q125 -59 258 -59q135 0 244 61l434 244q162 88 209 283q29 118 29 364q0 453 -469 527l-920 145q-90 14 -102 29v6q0 4 31 39q33 33 32 45 q0 6 -12 16h-8q-10 0 -58 -39l-178 -143v-2q-84 -55 -84 -82zM471 846q0 68 7 132t22 128q41 170 114 227l54 41l465 -88q225 -43 317 -164q94 -118 94 -354q0 -100 -39 -258q-47 -193 -92 -231q-94 -82 -252 -82q-137 0 -284 65q-285 125 -357 330q-49 137 -49 254z" />
<glyph unicode="e" horiz-adv-x="1718" d="M219 408q29 -29 66 -63t84 -71q39 -29 77.5 -59.5t79.5 -60.5q193 -154 430 -154q166 0 275 68l252 155q73 44 73 77v1q0 2 -2 2l-92 -47q-106 -53 -112 -55q-78 -23 -160 -23q-203 0 -449 166q-233 154 -346 340q332 4 512 7t211 7q104 14 162.5 21.5t73.5 11.5 q98 23 217 92l-4 17q-133 -41 -254 -41h-37t-51 2l-891 30q18 449 137 500q57 25 143 25q66 0 136.5 -5t148.5 -16q160 -23 263.5 -36t150.5 -17q135 -35 135 -178q0 -27 -16 -76q41 53 70.5 92t49.5 66q16 16 29.5 30.5t24.5 26.5q31 33 49 62q6 14 6 28q0 90 -262 119 l-496 53q-115 12 -158 13q-59 0 -100 -29q-86 -57 -138 -90t-75 -41q-88 -31 -147.5 -52.5t-91.5 -31.5l4 2v-2q-49 -37 -95 -205q-36 -135 -36 -228q0 -271 153 -433z" />
<glyph unicode="f" horiz-adv-x="1466" d="M27 -428l20 -25q133 100 214 163t114 87q106 82 145 127q63 72 64 172v471h45h35q10 -2 18 -2h12h111q193 0 297 27q152 37 266 133q-94 -14 -172 -19q-41 -3 -77 -3q-33 0 -62 2l-482 20v674l498 -2q172 0 338 141l-981 -2q-115 0 -190 -45l-181 -105l238 -6l4 -1351 q0 -156 -72 -258q-33 -47 -202 -199z" />
<glyph unicode="g" horiz-adv-x="1779" d="M63 780q0 -170 138 -338q88 -109 278 -256l2 4v-2q244 -188 445 -188q92 0 173 33t161 69q35 16 58 25.5t34 13.5q2 -6 2 -43q0 -205 -31 -311q-51 -181 -55 -181v1l2 -2v-2h2q4 0 106 104q18 20 33.5 35.5t26.5 30.5l110 98q37 33 68 135q4 50 4 71v11l72 739h-62t-47 2 q-29 2 -59.5 2t-61.5 -2q-39 -2 -65.5 -4t-42.5 -6q-59 -14 -176 -61q-57 -23 -99.5 -44.5t-70.5 -39.5q127 10 198 14q46 3 69 3q12 0 17 -1l111 -6l-29 -487q-102 -31 -184 -31q-137 0 -287 88q-20 12 -81.5 55t-166.5 119q-72 53 -123 98t-83 86q-88 109 -89 258 q0 115 58 256q63 166 147 197q49 20 129 20q61 0 117.5 -3t110.5 -11q106 -16 180 -26.5t115 -18.5q299 -41 299 -137q0 -16 -10.5 -49t-10.5 -49v-7q4 -2 8 -2q16 0 64 66l116 160q43 57 43 75v2l-2 9q-51 59 -417 112q-147 20 -267 30.5t-213 10.5q-43 0 -106 -45l-98 -67 q-86 -59 -316 -113q-43 -8 -55 -16q-84 -96 -135 -230q-53 -135 -54 -254z" />
<glyph unicode="h" horiz-adv-x="1943" d="M63 1839l363 -12v-1831l274 96v998q0 109 93 206q94 100 202 101l115 -25q78 -45 127 -73.5t68 -43.5q63 -47 114 -106t92 -131q88 -152 88 -301q0 -365 -247 -649l-103 -117l-4 -2q-25 -31 -47 -53q-43 -47 -43 -64v-4l6 -6q2 -2 6 -2q27 0 162 135q152 150 232.5 231.5 t95.5 98.5q231 290 231 544q0 283 -315 560q-162 139 -266 139q-158 0 -596 -191v643h-428z" />
<glyph unicode="i" horiz-adv-x="952" d="M264 1786q20 -35 41 -49q14 -4 137 -127h4q18 -16 27 -19q16 8 31 23q4 14 82 86q80 76 80 92v6q-16 18 -27.5 30.5t-20.5 18.5q-4 0 -4 4q-84 68 -122 105q-16 25 -37 24h-2v2l-2 5v-2q-20 -8 -35 -27q0 -4 -4 -4q-25 -25 -42.5 -43.5t-27.5 -28.5q-68 -74 -78 -96z M266 129l281 -133v1372h344l-213 141h-412v-1380z" />
<glyph unicode="j" horiz-adv-x="923" d="M43 -449l2 -2h2q39 0 166 91q53 39 92 70.5t62 53.5q78 80 129 130.5t77 70.5l-2 -2q105 74 154 105v1454h-412l-256 -154h387l7 -567q2 -190 3 -331.5t1 -238.5q0 -207 -103 -370q-45 -70 -112.5 -139.5t-161.5 -139.5q-31 -23 -35 -31zM338 1792q0 -18 104 -131 q43 -49 74 -70l8 -2q20 10 29 19h2q2 4 6 8l125 113q47 43 47 55q-86 111 -147 168l-2 -4v-2l-2 4l-2 2q-27 27 -37 26q-23 0 -37 -24q-125 -94 -166 -152q0 -4 -2 -6v-4z" />
<glyph unicode="k" horiz-adv-x="2240" d="M49 1401l369 4q14 -690 21 -1040.5t7 -364.5l271 119q-6 678 -6 688q0 18 2 20l6 7l6 2q45 -23 57 -33l465 -463q182 -182 213 -207q141 -117 260 -117q90 0 156 35q45 25 80 45.5t59 36.5q33 16 57.5 27.5t41.5 19.5q84 41 84 51v2l-5 7h-10q-33 0 -112 -27 q-84 -25 -127 -25q-141 0 -414 269l-567 561q258 172 505 385q49 41 95.5 84t89.5 84q-180 -18 -285 -76q-98 -53 -221 -190q-76 -84 -120 -131.5t-58 -61.5q-57 -51 -124 -93t-145 -77l2 594q-180 2 -268 3t-106 1q-55 0 -95 -24z" />
<glyph unicode="l" horiz-adv-x="1482" d="M43 1825h258l14 -1825q408 -6 539 -6q195 0 311 37q140 45 265 170l-15 12q-141 -77 -267 -77q-12 0 -24 1l-532 29l-12 1790q-119 4 -196 6t-114 2q-43 0 -82 -29z" />
<glyph unicode="m" horiz-adv-x="2822" d="M57 696q0 -172 123 -368l203 -326l246 135l-228 373v-2q-37 57 -59 201q-12 12 -12 53q0 150 94 346q106 229 233 229q135 0 322 -125q184 -121 238 -247q14 -36 14 -82v-11l-17 -872l277 98v500q0 272 61 436q82 229 297 301l9 3l4 1q106 0 249 -100q268 -188 318 -395 q2 -6 3 -10l1 -3q0 -145 -131 -401q-23 -47 -75 -139t-132 -230q93 -32 221 -32h8q310 0 457 178q-100 -27 -205 -27q-141 0 -196 21l243 409q100 168 101 291q0 152 -115 291q-180 217 -409 311q-90 37 -127 37q-68 0 -154 -61l-375 -267q-63 -45 -74 -45q-16 0 -32 11 q-41 39 -68 66.5t-41 43.5q-250 238 -424 238q-61 0 -143 -45l-459 -252q-10 -4 -19.5 -11.5t-19.5 -17.5q-74 -66 -127 -180q-80 -170 -80 -324z" />
<glyph unicode="n" horiz-adv-x="1978" d="M53 1368l363 -6v-1362l274 102v969q0 115 96 221q98 104 213 105q96 0 291 -111q143 -82 238 -229q102 -158 102 -314q0 -297 -278 -651q-121 -152 -129 -160l-2 -2q-84 -102 -84 -116v-4l8 -7q23 0 94 66l90 86q156 147 251 242.5t130 136.5q217 260 217 485 q0 180 -119 342q-102 137 -245 252q-174 137 -312 137h-6l-4 -2h-8q-73 0 -266 -98q-78 -41 -145.5 -79t-121.5 -75v207h-391z" />
<glyph unicode="o" d="M61 696q0 -422 373 -622q174 -92 363 -92q156 0 344 98q63 33 305 201q137 94 192 231q48 119 48 301q0 258 -150 440q-145 178 -393 252l4 2v-2q-133 35 -244 35q-164 0 -246 -51l-288 -174q-307 -184 -308 -619zM332 813q0 72 7 141.5t21 141.5q41 190 117 241 q39 27 158 27q133 0 280 -39q262 -68 384 -230t122 -438q0 -495 -345 -495h-1q-199 0 -467 164q-205 125 -235 221l-2 2v-2q-39 111 -39 266z" />
<glyph unicode="p" horiz-adv-x="1581" d="M51 1348l289 18v-1368l264 108l6 519h30q147 0 255 18q111 20 209 54t188 85q236 132 236 312q0 213 -189 340q-163 108 -385 108h-4q-8 0 -10 -2q-4 2 -12 2l-551 -37q-100 -6 -172 -47zM608 729v657l115 3v-3h9q203 0 341 -88q162 -104 162 -307q0 -139 -121 -225 q-109 -78 -252 -78q-162 0 -254 41z" />
<glyph unicode="q" horiz-adv-x="1693" d="M59 788q0 -80 22.5 -153.5t65.5 -136t104.5 -112.5t139.5 -83l86 -37l287 180q-70 27 -122 47.5t-89 36.5q-115 53 -168 146q-70 119 -70 244q0 80 53.5 208.5t114.5 169.5q10 8 47 9q150 0 283 -58q233 -100 274 -141q70 -76 70 -297q0 -260 -145 -430 q-197 -227 -434 -227q-117 0 -197 36q-41 -29 -70.5 -49t-50.5 -35q-115 -80 -123 -104v-2q0 -6 150 -39q92 -20 173 -40.5t152 -43.5q242 -74 407 -125t257 -80q359 -108 678 -108h6q229 0 358 43q66 20 334 166q66 35 62 51l-9 6q-53 -16 -82 -35l-126 -55 q-82 -35 -232 -35q-170 0 -418 76l-1145 340q53 12 283 158q246 156 342 296q117 168 117 437q0 178 -123 286q-231 197 -533 197q-104 0 -176 -57q-53 -41 -89 -71t-56 -46q-41 -33 -82 -58.5t-82 -48.5q-43 -20 -73.5 -41.5t-54 -47t-42 -58.5t-35.5 -76q-39 -98 -39 -203 z" />
<glyph unicode="r" horiz-adv-x="1945" d="M43 1370l291 2q2 -496 4 -837.5t6 -534.5l268 86v934q0 319 2 346v-2q51 8 86 12t52 4q166 0 301 -65q156 -78 190 -228q2 -6 2 -10q0 -98 -137 -211q-125 -104 -225 -135l-80 -24q-55 -16 -66 -39q-2 -14 197 -250q70 -84 151 -164l2 -2q63 -66 102.5 -108t53.5 -58 q106 -86 199 -86q92 0 168 39t149 80l137 65l-14 25q-147 -59 -194 -59q-51 0 -93 22q-25 14 -71 61q-51 51 -88 89t-60 61q-102 102 -184 196.5t-145 184.5q205 82 360 194q113 82 113 211q0 178 -197 293q-162 94 -362 94q-96 0 -283 -18q-188 -18 -281 -18q-35 0 -45 2 h-43q-53 0 -266 -152z" />
<glyph unicode="s" horiz-adv-x="1363" d="M68 168q0 -49 170 -111q206 -71 364 -71h4q152 0 236 30q70 59 117 101.5t73 68.5q68 53 131.5 102.5t122.5 96.5q10 51 10 68q0 201 -235 344q-125 76 -440 190q-236 86 -246 139q-2 10 -2 52q0 104 47 141q53 8 106.5 11t106.5 3q47 0 108.5 -6t139.5 -20 q200 -35 200 -78q0 -14 -8 -29h-2q-8 -14 -8 -26q2 -2 2 -7l6 -8l4 -2q76 63 107 100q127 121 127 152l-4 12q-72 111 -482 111q-193 0 -241 -25q-236 -190 -324 -227q-102 -43 -119 -59h-8v-2q-20 -33 -20 -140q0 -166 86 -215q51 -31 98 -49l467 -192q150 -61 199 -111 q69 -69 69 -207q0 -37 -10 -63q-78 -47 -260 -47q-193 0 -391 92q-80 37 -80 63q0 12 20 41v8q-4 12 -12 13q-16 0 -123 -113q-106 -109 -106 -131z" />
<glyph unicode="t" horiz-adv-x="1878" d="M55 1376l504 -8l-233 -139v-2q-150 -86 -150 -338q0 -100 51 -357q10 -47 54 -102q125 -162 352 -291q244 -139 432 -139q137 0 332 92q186 88 291 193q38 38 38 54q0 11 -6 11q4 0 4 -2q0 -11 -139 -84q-164 -84 -252 -84q-170 0 -393 111q-203 98 -346 229 q-55 51 -70 84q-47 131 -47 289q0 291 84 405q16 23 49 41q14 8 27.5 14.5t28.5 14.5h65q41 0 94.5 -2t98.5 -2h84q430 0 624 74q78 39 125.5 63.5t65.5 38.5q-205 -50 -472 -50q-29 0 -59 1l-450 10q-135 4 -242.5 9.5t-185.5 13.5q90 61 90 86l-4 6h-6q-18 0 -439 -240z " />
<glyph unicode="u" horiz-adv-x="2172" d="M61 1346l392 -7q-86 -143 -131.5 -217.5t-49.5 -83.5q-108 -191 -108 -319q0 -160 131 -334q59 -78 125.5 -146.5t142.5 -127.5q186 -143 340 -144q143 0 314 76l284 162v-205q178 -2 269.5 -3t97.5 -1q49 0 104 22q45 37 82 65.5t68 51.5l-332 12q-2 498 -4 833t-6 515 l-373 -2q-68 0 -152 -53l-129 -99l369 -4v-1042q-66 -145 -274 -145q-217 0 -461 182q-240 184 -307 397q-14 43 -17 96l2 6v7q0 94 86 278q96 209 203 359q-111 10 -188.5 15t-126.5 5q-76 0 -101 -8q-121 -35 -250 -141z" />
<glyph unicode="v" horiz-adv-x="1961" d="M49 1245q0 -12 14 -12q2 0 59.5 28.5t82.5 28.5q55 0 121 -129l569 -1163q2 -6 18 -16l2 -2q8 -8 13 -9q31 0 135 131q29 37 61.5 81t71.5 96q45 63 51 69v-2q260 342 529 893q53 111 85 178t42 94l-418 -2q-104 0 -135 -18l-197 -115l504 -24q-231 -637 -565 -1088 l-504 1049q-23 47 -38 76.5t-26 44.5q-46 67 -104 67h-2q-68 0 -236 -155q-133 -86 -133 -101z" />
<glyph unicode="w" horiz-adv-x="3164" d="M53 1346q116 29 196 29q16 0 30 -1l147 -10l-190 -317q-104 -176 -105 -299q0 -193 141 -342l238 -252q164 -170 375 -170q147 0 305 79q76 39 145.5 77t134.5 75l72 -63v-2q45 -39 84 -68t74 -47q82 -43 188 -43q88 0 160 24q12 4 49 23.5t96 54.5l246 139l2 -231h113 q57 0 115 -2q141 2 219 39q55 26 229 137l-389 -2v1342l-379 -3q-61 0 -106 -24l-226 -123l150.5 7t111.5 3q170 0 164 -2v-1075q-160 -117 -332 -117q-131 0 -288 109q-166 111 -371 403q-59 102 -59 219q0 82 47 166q33 53 54.5 91t33.5 59q74 131 113.5 201.5t48.5 85.5 l-387 -3q-100 0 -183 -49l-164 -98q111 6 191 6h49t68 -2t67 -2h49q16 0 19 2l-158 -295q-18 -35 -38.5 -69.5t-38 -71.5t-29 -77t-11.5 -83q0 -160 125 -309l172 -209q-109 -66 -147 -80q-80 -29 -164 -29q-49 0 -121 27q-145 53 -250 152l-207 217q-124 130 -124 316 q0 165 282 636q0 23 -41 23l-319 -2q-72 0 -148 -60l-4 -2q-47 -35 -77.5 -61.5t-47.5 -46.5z" />
<glyph unicode="x" horiz-adv-x="2367" d="M-33 -137q158 51 318 217l665 713q395 -526 670 -793h301q84 0 207 51q41 16 88 44t100 63q-59 -8 -127.5 -11.5t-148.5 -3.5q-113 0 -199 7q-209 238 -380 452.5t-308 411.5l203 219q104 113 129 129q63 43 180 43q12 0 31.5 -2t40 -4t40 -4t31.5 -2l283 127 q-131 30 -237 30h-7q-141 0 -307 -73q-154 -66 -266 -170q-145 -133 -203 -197l-340 422h-12q-6 0 -21 2h-47h-196q-104 0 -162 -25q-66 -35 -125 -66.5t-111 -60.5h422l400 -505l-635 -771q-45 -53 -114 -113.5t-163 -129.5z" />
<glyph unicode="y" horiz-adv-x="1921" d="M41 1362l434 -6l-108 -189v-2q-72 -115 -120 -222t-75 -212q-2 -2 -2 -8q0 -102 139 -301q113 -160 264 -295q201 -180 332 -180h6l4 2q12 -1 24 -1q97 0 232 70l326 172v-237q0 -199 -176 -199q-164 0 -418 86l-393 152q-23 6 -39 10t-27 8q-36 19 -36 49q0 16 26 41 q31 27 33 35q-4 12 -16 19q-35 0 -181 -109q-143 -106 -143 -141q0 -76 432 -226q414 -145 514 -145h4l4 2h8q44 0 117 41q35 16 103.5 63.5t175.5 122.5q215 156 256 199q37 39 37 123l-2 1436l-385 -2q-70 0 -113 -43l-193 -117h412v-1104q-121 -70 -141 -78 q-59 -26 -147 -26h-7q-166 0 -395 180q-356 279 -356 526q0 96 51 193l231 442q-184 8 -291 12q-47 2 -63.5 3t-3.5 1q-88 0 -174 -49q-51 -29 -91 -53.5t-69 -42.5z" />
<glyph unicode="z" horiz-adv-x="1923" d="M61 57q0 -32 112 -32h7h154q139 0 420 -25q279 -25 420 -25q193 0 309 25q135 27 293 123q90 55 90 86q-4 4 -7.5 6t-5.5 4q-23 -10 -60.5 -28.5t-90.5 -43.5q-87 -28 -310 -28h-16q-100 0 -208.5 6t-227.5 20l-434 50q188 207 297.5 324.5t142.5 150.5q295 287 404 415 q72 86 154.5 196t181.5 245q-567 0 -1172 37q-55 -29 -94 -49.5t-62 -32.5q-104 -53 -153 -64l1048 -31l9 -6v-2q-100 -123 -184.5 -219t-153.5 -166q-254 -250 -342 -336q-100 -98 -209 -218t-228 -263q-84 -102 -84 -119z" />
<glyph unicode="{" horiz-adv-x="606" d="M57 766q41 -23 64.5 -36t32.5 -17q49 -37 49 -95v-481q0 -86 16 -141q23 -72 96 -109q63 -33 146 -32h65q-94 29 -131 79t-37 142v514q0 106 -153 172l33 10v-2q82 27 114 94q23 47 27 148l12 434q2 90 39 138t125 85q-135 -2 -178 -16q-139 -47 -144 -213l-14 -479 q-4 -59 -33 -111q-25 -41 -58.5 -55.5t-70.5 -28.5z" />
<glyph unicode="|" horiz-adv-x="456" d="M162 -528h147v2050h-147v-2050z" />
<glyph unicode="}" horiz-adv-x="604" d="M51 1669q45 -18 76 -38.5t49.5 -46t27.5 -58.5t9 -78l12 -436q2 -111 35 -162q35 -53 139 -88q-78 -35 -104 -62q-49 -47 -49 -108v-518q0 -92 -38 -141.5t-132 -77.5h69q254 0 254 254v477q0 80 37 116q25 25 109 64q-86 39 -115 68q-41 41 -45 127l-12 477 q-2 106 -66.5 168.5t-171.5 62.5h-84z" />
<glyph unicode="~" horiz-adv-x="1462" d="M70 1196q0 -18 14 -18q-4 0 90 75q96 76 178 76q63 0 242 -98q180 -98 268 -98q74 0 133 24q57 27 232 162q182 145 182 178q0 10 -16 10t-33 -14l-82 -61q-106 -78 -295 -78q-76 0 -239.5 84t-233.5 84q-86 0 -207 -103l-117 -98q-31 -27 -58.5 -53.5t-49.5 -55.5l-4 2 v-2z" />
<glyph unicode="&#xa1;" horiz-adv-x="509" d="M61 1741q41 -47 78 -89t72 -77q-2 4 -2 8q33 -33 39 -35h2q20 0 47 27l6 2q74 66 112 100.5t42 38.5q0 4 2 6v4q0 20 -39 60q-127 129 -141 141l-9 2q-18 -4 -28 -14l-2 -2q-2 -4 -7 -8q-80 -61 -83 -66q-82 -68 -89 -98zM96 0l4 -2h2q6 -2 224 147q32 21 30 68l-45 881 q-23 406 -26 403l2 -4v2q-8 0 -19 -16l-49 -142q-45 -127 -45 -137q-4 -57 -5 -96t-3 -60q-10 -193 -16.5 -299t-8.5 -133q-2 -80 -30 -299q-8 -59 -11.5 -134t-3.5 -163v-16z" />
<glyph unicode="&#xa2;" horiz-adv-x="1142" d="M57 709q0 -190 123 -308q113 -111 309 -129v-424l297 119l2 373q53 31 89 52.5t57 31.5q125 70 125 106q0 12 -12 13q-10 0 -109 -41q-90 -39 -139 -39q-100 0 -236 47q-166 59 -211 143q-41 76 -41 260q0 176 103 250q33 25 116 25q47 0 131 -13.5t209 -39.5l217 137 q-61 29 -129.5 46t-146.5 25v242l-502 -397q-16 -10 -26.5 -15.5t-14.5 -7.5q-211 -119 -211 -456z" />
<glyph unicode="&#xa3;" horiz-adv-x="1290" d="M53 0q41 2 90.5 3t106.5 1q29 0 74 -1t104 -3t105.5 -3t74.5 -1q225 0 340 45q74 29 283 176l-17 14q-184 -66 -407 -65q-123 0 -237.5 9t-225.5 26q111 96 252 274q350 0 649 164q-113 -10 -200 -15.5t-150 -5.5q-4 0 -2 -2q-12 0 -31.5 -1t-42.5 -1q-20 0 -39.5 -1 t-31.5 -1h-54q31 80 31 183q0 29 -37 157q-14 47 -28.5 94.5t-28.5 94.5q-14 57 -21.5 105t-7.5 89q0 70 23 125q31 72 92 72q84 0 135 -137q45 -111 45 -211q0 -98 -23 -176q-2 -16 -36 -76q-31 -55 -31 -60l2 -8l10 -6q23 10 78 68q70 74 112 120t58 62q90 113 90 227 q0 115 -55 236q-68 147 -166 147q-45 0 -86 -22q-70 -47 -115 -80t-67 -53q-33 -20 -61.5 -39t-53.5 -35q-74 -49 -109 -80q-100 -88 -100 -213q0 -94 65.5 -280.5t65.5 -280.5v-17l-174 -2q-14 -14 -38.5 -33.5t-59.5 -47.5q-74 -57 -97 -66l349 -2q-33 -63 -76 -129 t-98 -131q-119 -147 -228 -207z" />
<glyph unicode="&#xa4;" horiz-adv-x="878" d="M23 227q0 -23 28 -22h27l16 2l25 -2l67 -8q20 0 29 8l84 117q94 -57 135 -58q35 0 133 74q20 -27 35.5 -47.5t26.5 -34.5q47 -59 65 -59l86 10l47 -2q29 -5 29 22q0 10 -25 33q-127 102 -167 178q90 96 90 215q0 113 -76 201q82 111 143 152q35 25 35 38q0 27 -29 23 l-57 -4q-25 -2 -63 10l-19 6q-14 -2 -29 -20l-79 -113q-29 16 -50 17l-51 -9q-47 -8 -65 -8l-37 4l-43 6q-14 0 -35 -6l-88 119q-10 10 -18 10l-17 -6q-37 -12 -67 -10l-33 2l-23 2q-29 0 -28 -23q0 -14 34 -38q55 -37 125 -127q-84 -96 -84 -217q0 -139 101 -252 q-43 -49 -81 -86t-71 -64q-27 -20 -26 -33zM227 743q0 131 144 131q74 0 139 -53q127 -103 127 -248q0 -123 -143 -122q-61 0 -110.5 22.5t-84.5 62t-53.5 93t-18.5 114.5z" />
<glyph unicode="&#xa5;" horiz-adv-x="2045" d="M39 1354l434 -6q-168 -270 -182 -297q-43 -82 -75 -162t-52 -160q-2 -4 -2 -8q0 -102 139 -301q113 -160 264 -295q201 -180 332 -180h6l4 2q104 -10 256 69l326 172v-237q0 -199 -176 -199q-164 0 -418 86l-393 152q-23 6 -39.5 10t-26.5 8q-37 20 -37 51q0 14 27 39 q31 27 33 35q-4 12 -17 19q-35 0 -180 -109q-143 -106 -143 -141q0 -66 368 -203q442 -168 578 -168h4l4 2q61 -4 193 82l178 129q276 201 313 244q8 8 10 98q2 82 0 178q-2 31 -2 58v51q31 -2 54.5 -1t40.5 3q10 2 29.5 13t52.5 32l184 115h-361v141l68 -4v-2q41 0 121 49 l184 115h-360v679l-385 -2q-70 0 -113 -43l-193 -116h412v-521h-90t-51 3q-90 -6 -131 -48q-37 -20 -86 -48.5t-113 -67.5h469v-142h-90t-51 2q-90 -6 -131 -47q-37 -20 -86 -48.5t-113 -67.5h469v-121q-121 -70 -141 -78q-61 -27 -154 -27q-166 0 -395 181 q-356 279 -356 526q0 96 51 192l231 443q-184 8 -291 12q-47 2 -63.5 3t-3.5 1q-88 0 -174 -49q-51 -29 -91 -53.5t-69 -42.5z" />
<glyph unicode="&#xa7;" horiz-adv-x="1044" d="M51 565l2 -6q0 -119 74 -182q55 -49 180 -94q90 -33 151.5 -54.5t96.5 -33.5q117 -43 164 -74q90 -59 90 -139q0 -266 -340 -267q-70 0 -109 13q-63 18 -116 65q-59 53 -60 113v106h-63l-27 -313q158 -96 332 -96t346 147q174 143 174 313q0 76 -35 134q-23 39 -98 96 q162 137 162 270q0 127 -80 205q-61 57 -201 104l-317 109q-158 74 -158 195q0 106 88 174q82 63 191 63q162 0 262 -100l18 -174l64 -2q-10 106 26 317q-125 33 -157 51q-27 0 -82 6q-29 4 -48.5 6.5t-33.5 2.5q-184 0 -313.5 -133.5t-129.5 -317.5q0 -133 115 -217 l-22 -29v-2q-145 -121 -146 -252v-4zM190 629q0 68 19 108q12 25 65 86l383 -125q174 -57 174 -202q0 -29 -2 -31h5q2 -20 -70 -146q-141 41 -254 81t-201 81q-119 55 -119 148z" />
<glyph unicode="&#xa8;" horiz-adv-x="2183" d="M535 1888q0 -18 43 -51q53 -63 92 -104t65 -58l8 -2q16 2 84 70q20 20 43 43.5t41.5 44t30.5 36t12 21.5q-8 33 -39 47l-122 117v-6q-10 10 -20.5 19.5t-20.5 13.5q-25 0 -39 -25q-168 -125 -178 -158v-8zM1092 1892q0 -18 43 -51q53 -63 92 -104t65 -58l8 -2q16 2 84 70 q20 20 43 44t41.5 44t30.5 35.5t12 21.5q-8 33 -38 47l-123 117v-6q-10 10 -20.5 19.5t-20.5 13.5q-25 0 -39 -25q-168 -125 -178 -157v-9z" />
<glyph unicode="&#xa9;" horiz-adv-x="1648" d="M66 748q0 -340 210 -545q213 -207 549 -207t549 207t213 545q0 336 -213 548.5t-549 212.5t-549 -213q-211 -211 -210 -548zM147 745q0 305 187 492q190 190 491 193v-3q301 0 490 -190q190 -191 190 -492q0 -303 -190 -489q-188 -188 -490 -188q-301 0 -489.5 188 t-188.5 489zM381 754q0 -211 137 -330q131 -115 342 -115q117 0 270 72l21 51l-8 12q-27 -16 -33 -18q-92 -37 -94 -37q-59 -18 -133 -18q-170 0 -275 118q-100 113 -100 285q0 152 84 252q88 106 239 107q59 0 140 -23q94 -27 112 -70v-94h37l25 180q-221 57 -320 58 q-190 0 -317 -121t-127 -309z" />
<glyph unicode="&#xaa;" horiz-adv-x="1386" d="M-63 446l2 -2q37 23 55 36l18 12q102 66 201 202q8 10 47 72.5t109 175.5l446 2l170 -317q61 -6 123 -6q152 -1 254 116q-78 -18 -88 -18h-14q-6 0 -15 2h-112l-410 792h-188q-43 0 -107 -32q-61 -31 -86 -68q47 8 131 8q96 0 92 -2l-252 -434l-110 -51h78 q-70 -123 -108 -187.5t-42 -72.5q-102 -164 -188 -230zM72 362l1085 -6h39q18 0 31 -2q45 39 67 62q14 8 47 35v2q0 14 -30 14q-2 2 -13 2h-1048h-31q-14 0 -26 -2v-2q-90 -76 -121 -103zM416 1006l202 323l170 -323h-372z" />
<glyph unicode="&#xab;" horiz-adv-x="1548" d="M16 690q109 -94 174.5 -151.5t88.5 -77.5q143 -123 282 -205l238 172q-217 176 -339 274.5t-149 120.5q31 23 41 33q86 53 145.5 91t94.5 59q59 49 98 83.5t62 55.5q25 29 41 46.5t26 25.5q-41 -4 -85 -16.5t-91 -31.5q-47 -16 -82 -34.5t-57 -34.5q-45 -33 -115 -109 q-47 -41 -75.5 -64.5t-39.5 -31.5l-6 6v-2l-147 -121q0 -4 -4 -4zM727 684q381 -338 547 -434l237 172q-193 154 -314.5 251t-174.5 144q16 14 27.5 21.5t15.5 11.5q51 33 103.5 64.5t105.5 62.5q20 10 51 36.5t76 67.5q88 82 121 121q-80 -20 -157 -52t-151 -73 q-35 -33 -77 -65l-95 -75t-59 -46l-4 4v-2l-148 -121q0 -4 -4 -4z" />
<glyph unicode="&#xac;" horiz-adv-x="1753" d="M25 -432l20 -25l311 238q106 78 148 133q68 82 67 178v1297q424 -6 424 -86q0 -43 -149 -142q-164 -109 -174 -127q-10 -20 -10 -39q0 -96 188 -200l266 -148q162 -90 201 -135q78 -90 78 -221q0 -31 -11 -58q-90 -55 -186 -55q-72 0 -164 49q-106 51 -106 117 q0 12 20 41v8q-4 12 -12 13q-16 0 -123 -113q-106 -109 -106 -131q0 -16 20 -43q49 -66 136 -107t175 -41q68 0 170 37q66 57 119 104.5t94 88.5l230 176q10 51 10 67q0 174 -191 316q-20 16 -107 63t-243 129q-190 100 -190 185v-2q0 6 137 149t137 186v7q-27 25 -160 39 q-59 8 -102 11t-72 3l-444 -2q-115 0 -190 -45l-181 -105l238 -6l6 -1347q0 -156 -72 -258q-35 -49 -202 -199z" />
<glyph unicode="&#xad;" horiz-adv-x="1122" d="M57 666q0 -16 43 -17h744q45 41 81 71t64 50h2q74 62 86 74q0 12 -88 26h-688v-2q-51 -45 -105.5 -88t-113.5 -86q-25 -18 -25 -28z" />
<glyph unicode="&#xae;" horiz-adv-x="1638" d="M66 748q0 -340 210 -545q213 -207 549 -207t549 207t213 545q0 336 -213 548.5t-549 212.5t-549 -213q-211 -211 -210 -548zM147 745q0 305 187 492q190 190 491 193v-3q301 0 490 -190q190 -191 190 -492q0 -303 -190 -489q-188 -188 -490 -188q-301 0 -489.5 188 t-188.5 489zM475 334q8 -2 12 -2h9l75 4l58.5 3t17.5 1q23 0 66 -4t65 -4q14 0 19 2h18v33q-29 2 -48 4t-28 4q-37 14 -37 59v672q47 8 80 12t52 4q180 0 180 -166q0 -78 -65.5 -127t-145.5 -49q-6 0 -28.5 2t-24.5 2l-9 -24l334 -430q2 0 12.5 1t21.5 2t20.5 2t11.5 1 q90 0 88 -2l10 -2v35l-8 -2q-16 2 -25 6l-4 4h-4q-27 18 -31 26l-270 353q98 18 162 75q76 63 76 156q0 78 -54.5 129t-142.5 60q-43 0 -49 2q-33 -4 -79 -7.5t-105 -3.5q-16 0 -43 1t-62 3t-61.5 3.5t-42.5 1.5h-21v-35q29 -4 48.5 -6.5t29.5 -4.5q37 -12 37 -59v-635 q0 -63 -70 -63h-4l-6 2l-35 -2v-37z" />
<glyph unicode="&#xb1;" horiz-adv-x="962" d="M35 -16h889v112h-889v-112zM47 604h371v-373h139v373h373v146h-369v374h-141l-2 -372h-369z" />
<glyph unicode="&#xb4;" horiz-adv-x="946" d="M57 1208q0 -4 4 -8l7 -2h4q4 0 17 2t34 6q297 61 299 62q37 16 61.5 29.5t36.5 21.5l324 205q14 8 22 16q25 13 25 23l-2 2h-8l-9 -1q-8 -1 -17 -3t-18.5 -3.5t-11.5 -1.5q-20 0 -207 -30q2 -4 3 -8q-109 -23 -170 -60l-336 -203q-57 -33 -58 -47z" />
<glyph unicode="&#xb5;" horiz-adv-x="1335" d="M68 -322q0 -53 31.5 -94t78.5 -41t78 41t31 99q0 57 -41 180q-39 117 -39 180v78q20 -29 50 -51.5t64.5 -38t71.5 -24.5t72 -9q84 0 186 68q16 10 54 43.5t98 91.5q2 -78 65 -148q61 -66 142 -65q45 0 89 14t78.5 39t59.5 58.5t33 74.5l14 70h-41q-23 -78 -37 -105 q-35 -59 -88 -59q-61 0 -98 65q-31 51 -31 121v864h-182v-770q0 -88 -94 -161q-92 -74 -183 -74q-92 0 -149 76q-53 72 -53 164v763l-189 9v-1129q0 -49 -37 -160q-35 -115 -34 -170z" />
<glyph unicode="&#xb6;" horiz-adv-x="1300" d="M57 1202q0 -162 117 -274q102 -98 272 -140q76 -18 99 -18h30l3 -866q0 -84 -72 -107q-27 -8 -141 -16v-62l204 5q29 2 58 2h61q23 2 35 2h18h133l162 -4q82 -2 122 -4l40 -1h37v60q-90 2 -123 12q-78 23 -78 78v1454q0 68 25 90q45 45 190 45v66q-84 -14 -354 -15 q-35 0 -87 2t-122 6.5t-122 7.5t-87 3q-174 0 -289 -72q-131 -82 -131 -254zM297 1169q0 92 51 168t137 99q20 4 32.5 5t21.5 3l36 -2l-2 -586q-61 6 -112 32.5t-87 67.5t-56.5 96.5t-20.5 116.5zM735 1440l139 2l-2 -1632l-135 -3z" />
<glyph unicode="&#xb7;" horiz-adv-x="524" d="M55 741q0 -18 43 -51q53 -63 92 -104t66 -58l8 -2q16 2 84 70q20 20 43 44t41.5 44.5t30.5 35.5t12 21q-8 33 -39 47l-123 117v-6q-27 33 -45 33q-10 -4 -43 -33l-92 -80q-31 -27 -50.5 -44t-27.5 -25v-9z" />
<glyph unicode="&#xba;" horiz-adv-x="1099" d="M45 365l864 -9q45 39 68 62l6 2q16 14 27.5 21.5t15.5 11.5v2q0 14 -31 14q-2 2 -14 2l-815 -2v-2q-90 -76 -121 -102zM59 1012q0 -186 129 -312q127 -125 316 -125q106 0 211 68q203 131 239 170q84 90 84 264q0 154 -87 262.5t-240 157.5l2 2v-2q-63 20 -146 21 q-80 0 -168 -41q-55 -35 -94 -58.5t-61 -38.5q-184 -115 -185 -368zM225 1077q0 262 88 320q27 16 95 16q72 0 167 -24q304 -81 304 -400q0 -297 -207 -297q-96 0 -240 74q-158 76 -180 158q-2 -2 -2 -4q-25 76 -25 157z" />
<glyph unicode="&#xbb;" horiz-adv-x="1548" d="M20 289q266 66 375 174l2 2q31 27 43 37q59 47 113 94h4v-2q80 66 144.5 119t111.5 94q-96 76 -197 166q-70 59 -117.5 98t-74.5 57q-72 47 -113 76t-51 37l-237 -176q135 -111 256.5 -208t238.5 -185q-31 -23 -41 -33q-35 -23 -86 -54.5t-123 -72.5q-25 -14 -57.5 -40 t-73.5 -62q-76 -72 -117 -121zM721 276q309 119 358 160l43 43v2q92 82 142 123l4 -6v-2q72 57 135.5 108.5t120.5 96.5q-129 117 -211 186.5t-117 95.5q-66 53 -121 94.5t-102 71.5l-234 -184q244 -186 490 -397q-31 -23 -41 -33q-55 -35 -96 -59.5t-68 -38.5l-4 -5 q-27 -16 -66 -44.5t-92 -73.5q-14 -10 -49 -45t-92 -93z" />
<glyph unicode="&#xbf;" horiz-adv-x="1282" d="M61 514q0 -172 168 -342q168 -172 340 -172q111 0 195 70l283 231q172 141 172 309q0 100 -66 213q-59 102 -147 170q-57 45 -93 45q-6 0 -57 -34l-186 -134q131 -51 221 -180q88 -125 88 -266q0 -98 -55.5 -164.5t-141.5 -66.5q-152 0 -295 129q-143 131 -143 276 q0 223 193 557l215 373q-2 4 -2 8q-150 -90 -265 -256l-297 -430q-49 -72 -84 -162q-43 -109 -43 -174zM459 1782q0 -14 33 -53l90 -113v4q39 -51 51 -51q20 0 45 26q68 49 129 99q47 37 47 45q0 14 -68 104q-70 92 -90 107l-12 4q-31 -8 -53 -25l-133 -102q-39 -31 -39 -45 z" />
<glyph unicode="&#xc0;" horiz-adv-x="2179" d="M-66 -281h3q125 63 227 148.5t188 193.5q25 33 99.5 151t203.5 323l754 -11l274 -516q66 -4 117 -6t86 -2q131 0 160 14q174 82 260 176q-96 -29 -170 -28h-22q-10 0 -21 2h-168q-281 547 -451.5 876.5t-228.5 442.5l-278 2q-188 2 -357 -166q76 8 134.5 11t103.5 3 q23 0 65.5 -2t65.5 -2l-422 -723l-184 -86h129q-117 -199 -179.5 -306.5t-72.5 -125.5q-137 -231 -316 -373v4zM301 1964q0 -23 37 -41q72 -37 121 -62.5t76 -39.5q180 -94 235 -97q-2 0 -2 -2q129 -37 340 -36h41q-225 113 -528 331q-14 10 -31 19.5t-35 19.5h-4 q-23 0 -43 -12h-6l-129 -45q-72 -25 -72 -35zM729 645l338 539l285 -541z" />
<glyph unicode="&#xc1;" horiz-adv-x="2179" d="M-66 -281h3q125 63 227 148.5t188 193.5q25 33 99.5 151t203.5 323l754 -11l274 -516q66 -4 117 -6t86 -2q131 0 160 14q174 82 260 176q-96 -29 -170 -28h-22q-10 0 -21 2h-168q-281 547 -451.5 876.5t-228.5 442.5l-278 2q-188 2 -357 -166q76 8 134.5 11t103.5 3 q23 0 65.5 -2t65.5 -2l-422 -723l-184 -86h129q-117 -199 -179.5 -306.5t-72.5 -125.5q-137 -231 -316 -373v4zM729 645l338 539l285 -541zM954 1688q0 -4 4 -9l7 -2h4q4 0 17 2t34 7q297 61 299 61q35 16 59.5 29.5t38.5 21.5l326 205q14 8 22 16q25 13 25 23l-2 2h-8 l-8 -1q-9 -1 -18 -3t-18.5 -3t-11.5 -1q-20 0 -206 -31q2 -4 2 -8q-33 -4 -54.5 -8t-31.5 -7q-27 -12 -48.5 -23t-37.5 -22l-336 -202q-57 -33 -58 -47z" />
<glyph unicode="&#xc2;" horiz-adv-x="2177" d="M-68 -281h2q125 63 227.5 148.5t188.5 193.5q25 33 99.5 151t203.5 323l754 -11l274 -516q66 -4 117 -6t86 -2q131 0 160 14q174 82 260 176q-96 -29 -170 -28h-23q-10 0 -20 2h-168q-281 547 -452 876.5t-228 442.5l-278 2q-188 2 -357 -166q76 8 134.5 11t103.5 3 q23 0 65.5 -2t65.5 -2l-422 -723l-184 -86h129q-117 -199 -179.5 -306.5t-72.5 -125.5q-137 -231 -316 -373v4zM416 1671l6 -6q29 0 59 10l211 39q113 23 180 66q61 41 104.5 68.5t65.5 43.5q289 -152 361 -176q160 -53 391 -53h41q-233 123 -528 332q-45 33 -60.5 37 t-21.5 4q-10 0 -252 -47v-2q-80 -10 -166 -62l-336 -203q-49 -27 -55 -51zM727 645l338 539l285 -541z" />
<glyph unicode="&#xc3;" horiz-adv-x="2177" d="M-68 -281h2q125 63 227.5 148.5t188.5 193.5q25 33 99.5 151t203.5 323l754 -11l274 -516q66 -4 117 -6t86 -2q131 0 160 14q174 82 260 176q-96 -29 -170 -28h-23q-10 0 -20 2h-168q-281 547 -452 876.5t-228 442.5l-278 2q-188 2 -357 -166q76 8 134.5 11t103.5 3 q23 0 65.5 -2t65.5 -2l-422 -723l-184 -86h129q-117 -199 -179.5 -306.5t-72.5 -125.5q-137 -231 -316 -373v4zM403 1755q0 -18 15 -18q-4 0 90 75q96 76 178 76q63 0 242 -98q180 -98 270 -98q98 0 195 61q16 10 59 42t109 85q182 145 182 176q0 10 -17 10q-16 0 -32 -14 l-82 -61q-106 -78 -293 -78q-76 0 -240 84t-235 84q-86 0 -207 -103l-117 -98q-31 -27 -58.5 -53.5t-49.5 -54.5l-4 2v-2q-4 -16 -5 -17zM727 645l338 539l285 -541z" />
<glyph unicode="&#xc4;" horiz-adv-x="2172" d="M-72 -281h2q125 63 227.5 148.5t188.5 193.5q25 33 99.5 151t203.5 323l754 -11l274 -516q66 -4 117 -6t86 -2q131 0 160 14q174 82 260 176q-96 -29 -170 -28h-23q-10 0 -20 2h-168q-281 547 -452 876.5t-228 442.5l-278 2q-188 2 -357 -166q76 8 134.5 11t103.5 3 q23 0 65.5 -2t65.5 -2l-422 -723l-184 -86h129q-117 -199 -179.5 -306.5t-72.5 -125.5q-137 -231 -316 -373v4zM592 1888q0 -18 43 -51q53 -63 92 -104t66 -58l8 -2q16 2 84 70q20 20 42.5 43.5t41 44t31 36t12.5 21.5q-8 33 -39 47l-123 117v-6q-10 10 -20.5 19.5 t-20.5 13.5q-25 0 -39 -25q-168 -125 -178 -158v-8zM723 645l338 539l285 -541zM1149 1892q0 -18 43 -51q53 -63 92 -104t66 -58l8 -2q16 2 84 70q20 20 42.5 44t41 44t31 35.5t12.5 21.5q-8 33 -39 47l-123 117v-6q-10 10 -20.5 19.5t-20.5 13.5q-25 0 -39 -25 q-168 -125 -178 -157v-9z" />
<glyph unicode="&#xc5;" horiz-adv-x="2179" d="M-66 -281h3q125 63 227 148.5t188 193.5q25 33 99.5 151t203.5 323l754 -11l274 -516q66 -4 117 -6t86 -2q131 0 160 14q174 82 260 176q-96 -29 -170 -28h-22q-10 0 -21 2h-168q-281 547 -451.5 876.5t-228.5 442.5l-278 2q-188 2 -357 -166q76 8 134.5 11t103.5 3 q23 0 65.5 -2t65.5 -2l-422 -723l-184 -86h129q-117 -199 -179.5 -306.5t-72.5 -125.5q-137 -231 -316 -373v4zM729 645l338 539l285 -541zM731 1812q0 -61 41 -101t102 -40q33 0 70 19q55 29 93 48t61 29q84 60 84 140q0 37 -19 67q-39 63 -123 64q-47 0 -194 -74 q-23 -12 -43.5 -29.5t-35.5 -38t-25.5 -43t-10.5 -41.5zM862 1896q0 70 66 70q49 0 85 -45t36 -100q0 -74 -72 -74q-53 0 -86 51q-29 45 -29 98z" />
<glyph unicode="&#xc6;" horiz-adv-x="2510" d="M-47 -238q111 78 211 158t198 166q41 35 138.5 125t253.5 238l630 4l-2 -453h777q61 0 161 57q93 52 136 107v31q-121 -66 -199 -66l-604 2v600l446 -2q68 0 88 -14q33 -18 33 -78v-43l8 -8l6 2q8 8 11.5 13t5.5 9q0 23 39 103q41 86 41 106q0 37 -50 37h-622v543l452 -2 q100 0 101 -76q-2 -10 -2 -16t-2 -11q-2 -20 4 -37l4 -4v-4q53 92 87 149.5t50 84.5q6 12 8 14v10q0 18 -47 19l-1003 -2q-119 0 -170 -33l-158 -100h399l-651 -820l-274 -133l151 -4l-213 -227q-147 -150 -256.5 -260.5t-185.5 -184.5zM891 582l493 534l-2 -534h-491z" />
<glyph unicode="&#xc7;" horiz-adv-x="1779" d="M53 788q0 -334 434 -622v-2q51 -35 115 -66.5t141 -58.5l-73 -172l41 -49q133 35 217 35q78 0 92 -21q41 -59 41 -123q0 -96 -127 -155q-106 -47 -139 -48q-31 0 -107 39l2 -8q113 -74 174 -74q92 0 183 68q98 70 98 160q0 98 -64 147q-10 4 -19 9.5t-20 9.5 q-20 10 -33.5 15t-19.5 9q-23 10 -37 15.5t-22 9.5q-72 18 -117 18q-16 0 -61 -6l79 105q92 -18 156 -19q176 0 342 82q31 16 106.5 60t198.5 120l4 31q-59 -35 -104 -58.5t-78 -37.5q-96 -39 -203 -39q-123 0 -243 57q-82 39 -138.5 65.5t-89.5 43.5q-430 199 -430 538 q0 190 140 422q45 76 268 76q35 0 61.5 -1t44.5 -3l344 -39q41 -4 86 -16.5t93 -28.5q121 -47 120 -111q0 -20 -8 -51l-12 -49v-4q4 -2 8 -2q27 0 64 67l141 170q27 33 27 74q0 72 -336 125q-135 20 -244 30.5t-197 10.5q-29 0 -70.5 -3t-99.5 -7l-14 -8q-70 -41 -131.5 -79 t-114.5 -73q-100 -43 -235 -74q-41 -10 -62 -18q-72 -72 -123 -227q-49 -145 -49 -259z" />
<glyph unicode="&#xc8;" horiz-adv-x="1718" d="M66 836q0 -266 153 -428q29 -29 66 -63t84 -71q39 -29 77.5 -59.5t79.5 -60.5q193 -154 430 -154q166 0 275 68l252 155q74 45 73 78q0 2 -2 2l-92 -47q-106 -53 -112 -55q-78 -23 -160 -23q-203 0 -449 166q-233 154 -346 340q332 4 512 7t211 7q104 14 162.5 21.5 t73.5 11.5q98 23 217 92l-4 17q-133 -41 -254 -41h-37t-51 2l-891 30q18 449 137 500q57 25 143 25q66 0 136.5 -5t148.5 -16q160 -23 263.5 -36t150.5 -17q135 -35 135 -178q0 -27 -16 -76q41 53 70.5 92t49.5 66q16 16 29.5 30.5t24.5 26.5q31 33 49 62q6 14 6 28 q0 90 -262 119l-496 53q-115 12 -158 13q-59 0 -100 -29q-86 -57 -138 -90t-75 -41q-88 -31 -147.5 -52.5t-91.5 -31.5l4 2v-2q-49 -37 -95 -205q-37 -139 -36 -233zM422 1964q0 -23 37 -41q72 -37 121 -62.5t75 -39.5q180 -94 236 -97q-2 0 -2 -2q129 -37 340 -36h41 q-225 113 -529 331q-14 10 -30.5 19.5t-34.5 19.5h-4q-23 0 -43 -12h-6l-129 -45q-72 -25 -72 -35z" />
<glyph unicode="&#xc9;" horiz-adv-x="1718" d="M66 836q0 -266 153 -428q29 -29 66 -63t84 -71q39 -29 77.5 -59.5t79.5 -60.5q193 -154 430 -154q166 0 275 68l252 155q74 45 73 78q0 2 -2 2l-92 -47q-106 -53 -112 -55q-78 -23 -160 -23q-203 0 -449 166q-233 154 -346 340q332 4 512 7t211 7q104 14 162.5 21.5 t73.5 11.5q98 23 217 92l-4 17q-133 -41 -254 -41h-37t-51 2l-891 30q18 449 137 500q57 25 143 25q66 0 136.5 -5t148.5 -16q160 -23 263.5 -36t150.5 -17q135 -35 135 -178q0 -27 -16 -76q41 53 70.5 92t49.5 66q16 16 29.5 30.5t24.5 26.5q31 33 49 62q6 14 6 28 q0 90 -262 119l-496 53q-115 12 -158 13q-59 0 -100 -29q-86 -57 -138 -90t-75 -41q-88 -31 -147.5 -52.5t-91.5 -31.5l4 2v-2q-49 -37 -95 -205q-37 -139 -36 -233zM768 1688q0 -4 4 -9l6 -2h4q4 0 17.5 2t34.5 7q297 61 299 61q35 16 59.5 29.5t38.5 21.5l325 205 q14 8 23 16q25 13 25 23l-2 2h-9l-8 -1t-17 -3t-18.5 -3t-11.5 -1q-20 0 -207 -31q2 -4 2 -8q-33 -4 -54.5 -8t-31.5 -7q-27 -12 -48 -23t-38 -22l-336 -202q-57 -33 -57 -47z" />
<glyph unicode="&#xca;" horiz-adv-x="1718" d="M66 836q0 -266 153 -428q29 -29 66 -63t84 -71q39 -29 77.5 -59.5t79.5 -60.5q193 -154 430 -154q166 0 275 68l252 155q74 45 73 78q0 2 -2 2l-92 -47q-106 -53 -112 -55q-78 -23 -160 -23q-203 0 -449 166q-233 154 -346 340q332 4 512 7t211 7q104 14 162.5 21.5 t73.5 11.5q98 23 217 92l-4 17q-133 -41 -254 -41h-37t-51 2l-891 30q18 449 137 500q57 25 143 25q66 0 136.5 -5t148.5 -16q160 -23 263.5 -36t150.5 -17q135 -35 135 -178q0 -27 -16 -76q41 53 70.5 92t49.5 66q16 16 29.5 30.5t24.5 26.5q31 33 49 62q6 14 6 28 q0 90 -262 119l-496 53q-115 12 -158 13q-59 0 -100 -29q-86 -57 -138 -90t-75 -41q-88 -31 -147.5 -52.5t-91.5 -31.5l4 2v-2q-49 -37 -95 -205q-37 -139 -36 -233zM190 1671l7 -6q29 0 59 10l211 39q113 23 180 66q61 41 104.5 68.5t65.5 43.5q289 -152 361 -176 q160 -53 391 -53h41q-233 123 -529 332q-45 33 -60 37t-22 4q-10 0 -251 -47v-2q-80 -10 -166 -62l-336 -203q-49 -27 -56 -51z" />
<glyph unicode="&#xcb;" horiz-adv-x="1718" d="M66 836q0 -266 153 -428q29 -29 66 -63t84 -71q39 -29 77.5 -59.5t79.5 -60.5q193 -154 430 -154q166 0 275 68l252 155q74 45 73 78q0 2 -2 2l-92 -47q-106 -53 -112 -55q-78 -23 -160 -23q-203 0 -449 166q-233 154 -346 340q332 4 512 7t211 7q104 14 162.5 21.5 t73.5 11.5q98 23 217 92l-4 17q-133 -41 -254 -41h-37t-51 2l-891 30q18 449 137 500q57 25 143 25q66 0 136.5 -5t148.5 -16q160 -23 263.5 -36t150.5 -17q135 -35 135 -178q0 -27 -16 -76q41 53 70.5 92t49.5 66q16 16 29.5 30.5t24.5 26.5q31 33 49 62q6 14 6 28 q0 90 -262 119l-496 53q-115 12 -158 13q-59 0 -100 -29q-86 -57 -138 -90t-75 -41q-88 -31 -147.5 -52.5t-91.5 -31.5l4 2v-2q-49 -37 -95 -205q-37 -139 -36 -233zM473 1888q0 -18 43 -51q53 -63 92 -104t66 -58l8 -2q16 2 84 70q20 20 42.5 43.5t41 44t31 36t12.5 21.5 q-8 33 -39 47l-123 117v-6q-10 10 -20.5 19.5t-20.5 13.5q-25 0 -39 -25q-168 -125 -178 -158v-8zM1030 1892q0 -18 43 -51q53 -63 92 -104t66 -58l8 -2q16 2 84 70q20 20 43 44t41 44t30.5 35.5t12.5 21.5q-8 33 -39 47l-123 117v-6q-10 10 -20.5 19.5t-20.5 13.5 q-25 0 -39 -25q-168 -125 -178 -157v-9z" />
<glyph unicode="&#xcc;" horiz-adv-x="952" d="M-227 1964q0 -23 37 -41q72 -37 118.5 -62.5t73.5 -39.5q92 -47 149.5 -71t84.5 -26q-2 0 -3 -2q129 -37 340 -36h41q-350 211 -528 331q-29 16 -44 26.5t-19 12.5h-5q-20 0 -41 -12l-133 -45q-72 -25 -71 -35zM266 129l281 -133v1372h344l-213 141h-412v-1380z" />
<glyph unicode="&#xcd;" horiz-adv-x="952" d="M266 129l281 -133v1372h344l-213 141h-412v-1380zM399 1688q0 -4 4 -9l7 -2h4q4 0 17 2t34 7q297 61 299 61q35 16 59.5 29.5t38.5 21.5l326 205q14 8 22 16q25 13 25 23l-2 2h-8l-9 -1q-8 -1 -17 -3t-18.5 -3t-11.5 -1q-20 0 -206 -31q2 -4 2 -8q-33 -4 -54.5 -8 t-31.5 -7q-27 -12 -48.5 -23t-37.5 -22l-336 -202q-57 -33 -58 -47z" />
<glyph unicode="&#xce;" horiz-adv-x="952" d="M-217 1671l6 -6q29 0 59 10l209 39q113 23 181 66q61 41 104 68.5t66 43.5q289 -152 360 -176q160 -53 391 -53h41q-233 123 -528 332q-45 33 -60.5 37t-21.5 4q-10 0 -252 -47v-2q-80 -10 -166 -62l-334 -203q-49 -27 -55 -51zM266 129l281 -133v1372h344l-213 141h-412 v-1380z" />
<glyph unicode="&#xcf;" horiz-adv-x="952" d="M-16 1888q0 -16 41 -51q53 -63 92 -104t65 -58l8 -2q16 2 84 70q20 20 43 43.5t41.5 44t30.5 36t12 21.5q-8 33 -39 47l-122 117v-6q-10 10 -20.5 19.5t-20.5 13.5q-25 0 -39 -25q-166 -127 -176 -158v-8zM266 129l281 -133v1372h344l-213 141h-412v-1380zM539 1892 q0 -18 43 -51q53 -63 92 -104t65 -58l9 -2q16 2 83 70q20 20 43 44t41.5 44t30.5 35.5t12 21.5q-8 33 -38 47l-123 117v-6q-10 10 -20.5 19.5t-20.5 13.5q-25 0 -39 -25q-168 -125 -178 -157v-9z" />
<glyph unicode="&#xd0;" horiz-adv-x="1880" d="M57 647h133q18 -117 68 -221q82 -176 270 -303q186 -123 381 -123q135 0 244 61l434 244q162 88 209 283q29 118 29 364q0 453 -469 527l-920 145q-90 14 -102 29v6q0 4 31 39q33 33 32 45q0 6 -12 16h-8q-10 0 -58 -39l-178 -143v-2q-84 -55 -84 -82q0 -16 84 -33 l467 -78l-227 -159q-190 -133 -201 -426h-123v-150zM471 846q0 68 7 132t22 128q41 170 114 227l54 41l465 -88q113 -23 191.5 -61.5t127.5 -102t70.5 -150.5t21.5 -204q0 -100 -39 -258q-47 -193 -92 -231q-94 -82 -252 -82q-133 0 -276 61q-313 133 -383 389h739v150h-766 q-2 35 -3 47t-1 2z" />
<glyph unicode="&#xd1;" horiz-adv-x="1978" d="M53 1368l363 -6v-1362l274 102v969q0 115 96 221q98 104 213 105q96 0 291 -111q143 -82 238 -229q102 -158 102 -314q0 -297 -278 -651q-121 -152 -129 -160l-2 -2q-84 -102 -84 -116v-4l8 -7q23 0 94 66l90 86q156 147 251 242.5t130 136.5q217 260 217 485 q0 180 -119 342q-102 137 -245 252q-174 137 -312 137h-6l-4 -2q-70 6 -274 -98q-78 -41 -145.5 -79t-121.5 -75v207h-391zM403 1755q0 -18 15 -18q-4 0 90 75q96 76 178 76q63 0 242 -98q180 -98 270 -98q98 0 195 61q16 10 59 42t109 85q182 145 182 176q0 10 -17 10 q-16 0 -32 -14l-82 -61q-106 -78 -293 -78q-76 0 -240 84t-235 84q-86 0 -207 -103l-117 -98q-31 -27 -58.5 -53.5t-49.5 -54.5l-4 2v-2q-4 -16 -5 -17z" />
<glyph unicode="&#xd2;" d="M61 696q0 -422 373 -622q174 -92 363 -92q156 0 344 98q63 33 305 201q137 94 192 231q48 119 48 301q0 258 -150 440q-145 178 -393 252l4 2v-2q-133 35 -244 35q-164 0 -246 -51l-288 -174q-307 -184 -308 -619zM217 1964q0 -23 37 -41q72 -37 121 -62.5t76 -39.5 q180 -94 235 -97q-2 0 -2 -2q129 -37 340 -36h41q-225 113 -528 331q-14 10 -31 19.5t-35 19.5h-4q-23 0 -43 -12h-6l-129 -45q-72 -25 -72 -35zM332 813q0 72 7 141.5t21 141.5q41 190 117 241q39 27 158 27q133 0 280 -39q262 -68 384 -230t122 -438q0 -496 -346 -495 q-199 0 -467 164q-205 125 -235 221l-2 2v-2q-39 111 -39 266z" />
<glyph unicode="&#xd3;" d="M61 696q0 -422 373 -622q174 -92 363 -92q156 0 344 98q63 33 305 201q137 94 192 231q48 119 48 301q0 258 -150 440q-145 178 -393 252l4 2v-2q-133 35 -244 35q-164 0 -246 -51l-288 -174q-307 -184 -308 -619zM332 813q0 72 7 141.5t21 141.5q41 190 117 241 q39 27 158 27q133 0 280 -39q262 -68 384 -230t122 -438q0 -496 -346 -495q-199 0 -467 164q-205 125 -235 221l-2 2v-2q-39 111 -39 266zM788 1688q0 -4 5 -9l6 -2h4q4 0 17.5 2t33.5 7q297 61 299 61q35 16 59.5 29.5t38.5 21.5l326 205q14 8 22 16q25 13 25 23l-2 2h-8 l-8 -1q-9 -1 -18 -3t-18 -3t-11 -1q-20 0 -207 -31q2 -4 2 -8q-33 -4 -54.5 -8t-31.5 -7q-27 -12 -48.5 -23t-37.5 -22l-336 -202q-57 -33 -58 -47z" />
<glyph unicode="&#xd4;" d="M61 696q0 -422 373 -622q174 -92 363 -92q156 0 344 98q63 33 305 201q137 94 192 231q48 119 48 301q0 258 -150 440q-145 178 -393 252l4 2v-2q-133 35 -244 35q-164 0 -246 -51l-288 -174q-307 -184 -308 -619zM190 1671l7 -6q29 0 59 10l211 39q113 23 180 66 q61 41 104.5 68.5t65.5 43.5q289 -152 361 -176q160 -53 391 -53h41q-233 123 -529 332q-45 33 -60 37t-22 4q-10 0 -251 -47v-2q-80 -10 -166 -62l-336 -203q-49 -27 -56 -51zM332 813q0 72 7 141.5t21 141.5q41 190 117 241q39 27 158 27q133 0 280 -39q262 -68 384 -230 t122 -438q0 -496 -346 -495q-199 0 -467 164q-205 125 -235 221l-2 2v-2q-39 111 -39 266z" />
<glyph unicode="&#xd5;" d="M61 696q0 -422 373 -622q174 -92 363 -92q156 0 344 98q63 33 305 201q137 94 192 231q48 119 48 301q0 258 -150 440q-145 178 -393 252l4 2v-2q-133 35 -244 35q-164 0 -246 -51l-288 -174q-307 -184 -308 -619zM219 1755q0 -18 14 -18q-4 0 91 75q96 76 178 76 q63 0 241 -98q180 -98 271 -98q98 0 194 61q16 10 59.5 42t108.5 85q183 145 183 176q0 10 -17 10q-16 0 -33 -14l-82 -61q-106 -78 -292 -78q-76 0 -240 84t-236 84q-86 0 -206 -103l-117 -98q-31 -27 -58.5 -53.5t-50.5 -54.5l-4 2v-2q-4 -16 -4 -17zM332 813 q0 72 7 141.5t21 141.5q41 190 117 241q39 27 158 27q133 0 280 -39q262 -68 384 -230t122 -438q0 -496 -346 -495q-199 0 -467 164q-205 125 -235 221l-2 2v-2q-39 111 -39 266z" />
<glyph unicode="&#xd6;" d="M61 696q0 -422 373 -622q174 -92 363 -92q156 0 344 98q63 33 305 201q137 94 192 231q48 119 48 301q0 258 -150 440q-145 178 -393 252l4 2v-2q-133 35 -244 35q-164 0 -246 -51l-288 -174q-307 -184 -308 -619zM332 813q0 72 7 141.5t21 141.5q41 190 117 241 q39 27 158 27q133 0 280 -39q262 -68 384 -230t122 -438q0 -496 -346 -495q-199 0 -467 164q-205 125 -235 221l-2 2v-2q-39 111 -39 266zM391 1888q0 -18 43 -51q53 -63 92 -104t66 -58l8 -2q16 2 84 70q20 20 43 43.5t41 44t30.5 36t12.5 21.5q-8 33 -39 47l-123 117v-6 q-10 10 -20.5 19.5t-20.5 13.5q-25 0 -39 -25q-168 -125 -178 -158v-8zM948 1892q0 -18 43 -51q53 -63 92 -104t66 -58l8 -2q16 2 84 70q20 20 43 44t41 44t30.5 35.5t12.5 21.5q-8 33 -39 47l-123 117v-6q-10 10 -20 19.5t-21 13.5q-25 0 -39 -25q-168 -125 -178 -157v-9z " />
<glyph unicode="&#xd7;" horiz-adv-x="1181" d="M166 1087l340 -337l-334 -334l84 -84l334 334l342 -342l82 82l-342 342l340 337l-86 84l-338 -338l-338 338z" />
<glyph unicode="&#xd8;" horiz-adv-x="1759" d="M61 692q0 -371 322 -594l-129 -198q125 100 135 110q2 -2 2 -4l55 55q29 -16 68 -32.5t90 -30.5q100 -31 168 -31q172 0 356 92q84 43 318 197q147 96 207 236q51 116 51 313q0 391 -348 604l104 160l-192 -115q-174 88 -404 88q-150 0 -225 -49l-283 -180 q-295 -188 -295 -621zM340 864q0 70 6 133.5t21 120.5q39 172 108 219q39 27 146 27q236 0 440 -90h4v-2q-63 -115 -124.5 -227.5t-123.5 -225.5q-74 -133 -140.5 -242.5t-125.5 -199.5q-102 63 -154 147q-57 88 -57 340zM641 317l565 875v-4q207 -207 207 -514 q0 -508 -342 -508q-193 0 -430 151z" />
<glyph unicode="&#xd9;" horiz-adv-x="2172" d="M61 1346l392 -7q-86 -143 -131.5 -217.5t-49.5 -83.5q-109 -193 -108 -321q0 -158 131 -332q59 -78 125.5 -146.5t142.5 -127.5q186 -143 340 -144q143 0 314 76l284 162v-205q178 -2 269.5 -3t97.5 -1q49 0 104 22q45 37 82 65.5t68 51.5l-332 12q-2 498 -4 833t-6 515 l-373 -2q-68 0 -152 -53l-129 -99l369 -4v-1042q-66 -145 -274 -145q-217 0 -461 182q-240 184 -307 397q-14 43 -17 96l2 6v7q0 94 86 278q96 209 203 359q-111 10 -188.5 15t-126.5 5q-76 0 -101 -8q-121 -35 -250 -141zM258 1964q0 -23 37 -41q72 -37 121 -62.5t76 -39.5 q180 -94 235 -97q-2 0 -2 -2q129 -37 340 -36h41q-225 113 -528 331q-14 10 -31 19.5t-35 19.5h-4q-23 0 -43 -12h-6l-129 -45q-72 -25 -72 -35z" />
<glyph unicode="&#xda;" horiz-adv-x="2172" d="M61 1346l392 -7q-86 -143 -131.5 -217.5t-49.5 -83.5q-109 -193 -108 -321q0 -158 131 -332q59 -78 125.5 -146.5t142.5 -127.5q186 -143 340 -144q143 0 314 76l284 162v-205q178 -2 269.5 -3t97.5 -1q49 0 104 22q45 37 82 65.5t68 51.5l-332 12q-2 498 -4 833t-6 515 l-373 -2q-68 0 -152 -53l-129 -99l369 -4v-1042q-66 -145 -274 -145q-217 0 -461 182q-240 184 -307 397q-14 43 -17 96l2 6v7q0 94 86 278q96 209 203 359q-111 10 -188.5 15t-126.5 5q-76 0 -101 -8q-121 -35 -250 -141zM891 1688q0 -4 4 -9l6 -2h4q4 0 17.5 2t33.5 7 q297 61 299 61q35 16 59.5 29.5t39.5 21.5l325 205q14 8 23 16q24 13 24 23l-2 2h-8l-8 -1t-17.5 -3t-18.5 -3t-11 -1q-20 0 -207 -31q2 -4 2 -8q-33 -4 -54.5 -8t-31.5 -7q-27 -12 -48.5 -23t-37.5 -22l-336 -202q-57 -33 -57 -47z" />
<glyph unicode="&#xdb;" horiz-adv-x="2172" d="M61 1346l392 -7q-86 -143 -131.5 -217.5t-49.5 -83.5q-109 -193 -108 -321q0 -158 131 -332q59 -78 125.5 -146.5t142.5 -127.5q186 -143 340 -144q143 0 314 76l284 162v-205q178 -2 269.5 -3t97.5 -1q49 0 104 22q45 37 82 65.5t68 51.5l-332 12q-2 498 -4 833t-6 515 l-373 -2q-68 0 -152 -53l-129 -99l369 -4v-1042q-66 -145 -274 -145q-217 0 -461 182q-240 184 -307 397q-14 43 -17 96l2 6v7q0 94 86 278q96 209 203 359q-111 10 -188.5 15t-126.5 5q-76 0 -101 -8q-121 -35 -250 -141zM293 1671l6 -6q29 0 59 10l211 39q113 23 181 66 q61 41 104 68.5t66 43.5q289 -152 360 -176q160 -53 391 -53h41q-233 123 -528 332q-45 33 -60.5 37t-21.5 4q-10 0 -252 -47v-2q-80 -10 -166 -62l-336 -203q-49 -27 -55 -51z" />
<glyph unicode="&#xdc;" horiz-adv-x="2172" d="M61 1346l392 -7q-86 -143 -131.5 -217.5t-49.5 -83.5q-109 -193 -108 -321q0 -158 131 -332q59 -78 125.5 -146.5t142.5 -127.5q186 -143 340 -144q143 0 314 76l284 162v-205q178 -2 269.5 -3t97.5 -1q49 0 104 22q45 37 82 65.5t68 51.5l-332 12q-2 498 -4 833t-6 515 l-373 -2q-68 0 -152 -53l-129 -99l369 -4v-1042q-66 -145 -274 -145q-217 0 -461 182q-240 184 -307 397q-14 43 -17 96l2 6v7q0 94 86 278q96 209 203 359q-111 10 -188.5 15t-126.5 5q-76 0 -101 -8q-121 -35 -250 -141zM535 1888q0 -18 43 -51q53 -63 92 -104t65 -58 l8 -2q16 2 84 70q20 20 43 43.5t41.5 44t30.5 36t12 21.5q-8 33 -39 47l-122 117v-6q-10 10 -20.5 19.5t-20.5 13.5q-25 0 -39 -25q-168 -125 -178 -158v-8zM1092 1892q0 -18 43 -51q53 -63 92 -104t65 -58l8 -2q16 2 84 70q20 20 43 44t41.5 44t30.5 35.5t12 21.5 q-8 33 -38 47l-123 117v-6q-10 10 -20.5 19.5t-20.5 13.5q-25 0 -39 -25q-168 -125 -178 -157v-9z" />
<glyph unicode="&#xdd;" horiz-adv-x="1921" d="M41 1362l434 -6l-108 -189v-2q-72 -115 -120 -222t-75 -212q-2 -2 -2 -8q0 -102 139 -301q113 -160 264 -295q201 -180 332 -180h6l4 2q104 -10 256 69l326 172v-237q0 -199 -176 -199q-164 0 -418 86l-393 152q-23 6 -39 10t-27 8q-37 20 -36 51q0 14 26 39q31 27 33 35 q-4 12 -16 19q-35 0 -181 -109q-143 -106 -143 -141q0 -76 432 -226q414 -145 514 -145h4l4 2q45 -4 125 41q35 16 103.5 63.5t175.5 122.5q215 156 256 199q37 39 37 123l-2 1436l-385 -2q-70 0 -113 -43l-193 -117h412v-1104q-121 -70 -141 -78q-61 -27 -154 -26 q-166 0 -395 180q-356 279 -356 526q0 96 51 193l231 442q-184 8 -291 12q-47 2 -63.5 3t-3.5 1q-88 0 -174 -49q-51 -29 -91 -53.5t-69 -42.5zM891 1688q0 -4 4 -9l6 -2h4q4 0 17.5 2t33.5 7q297 61 299 61q35 16 59.5 29.5t39.5 21.5l325 205q14 8 23 16q24 13 24 23l-2 2 h-8l-8 -1t-17.5 -3t-18.5 -3t-11 -1q-20 0 -207 -31q2 -4 2 -8q-33 -4 -54.5 -8t-31.5 -7q-27 -12 -48.5 -23t-37.5 -22l-336 -202q-57 -33 -57 -47z" />
<glyph unicode="&#xde;" horiz-adv-x="1695" d="M51 1348l289 18v-1368l264 108v297q281 -6 418 21q111 20 209 54t188 85q236 131 236 311q0 213 -189 340q-164 109 -389 109q-8 0 -10 -2q-4 2 -12 2l-461 -25v220l-217 -13q-96 -6 -172 -47zM602 508v657l115 2v-2q61 2 125.5 -4t134.5 -16q156 -25 223 -66 q162 -106 162 -307q0 -139 -121 -225q-109 -78 -252 -78q-98 0 -163.5 3t-102.5 7q-41 6 -70.5 13.5t-50.5 15.5z" />
<glyph unicode="&#xdf;" horiz-adv-x="2727" d="M68 168q0 -49 170 -111q209 -72 368 -71q152 0 236 30q70 59 117 101.5t73 68.5q68 53 131.5 102.5t122.5 96.5q10 51 10 68q0 201 -235 344q-125 76 -440 190q-236 86 -246 139q-2 10 -2 52q0 104 47 141q53 8 106.5 11t106.5 3q47 0 108.5 -6t139.5 -20 q201 -35 200 -78q0 -14 -8 -29h-2q-8 -14 -8 -26q2 -2 2 -7l6 -8l4 -2q76 63 107 100q127 121 127 152l-4 12q-72 111 -482 111q-193 0 -241 -25q-236 -190 -324 -227q-102 -43 -119 -59h-8v-2q-20 -33 -20 -140q0 -166 86 -215q51 -31 98 -49l467 -192q150 -61 199 -111 q70 -70 69 -211q0 -33 -10 -59q-78 -47 -260 -47q-193 0 -391 92q-80 37 -80 63q0 12 20 41v8q-4 12 -12 13q-16 0 -123 -113q-106 -109 -106 -131zM1432 168q0 -49 170 -111q209 -72 368 -71q152 0 236 30q70 59 117 101.5t73 68.5q68 53 131.5 102.5t122.5 96.5 q10 51 10 68q0 201 -235 344q-125 76 -440 190q-236 86 -246 139q-2 10 -2 52q0 104 47 141q53 8 106.5 11t106.5 3q47 0 108.5 -6t139.5 -20q201 -35 200 -78q0 -14 -8 -29h-2q-8 -14 -8 -26q2 -2 2 -7l6 -8l4 -2q76 63 107 100q127 121 127 152l-4 12q-72 111 -482 111 q-193 0 -241 -25q-236 -190 -324 -227q-102 -43 -119 -59h-8v-2q-20 -33 -20 -140q0 -166 86 -215q51 -31 98 -49l467 -192q150 -61 198 -111q70 -70 70 -211q0 -33 -10 -59q-78 -47 -260 -47q-193 0 -391 92q-80 37 -80 63q0 12 20 41v8q-4 12 -12 13q-16 0 -123 -113 q-106 -109 -106 -131z" />
<glyph unicode="&#xe0;" horiz-adv-x="2179" d="M-66 -281h3q125 63 227 148.5t188 193.5q25 33 99.5 151t203.5 323l754 -11l274 -516q66 -4 117 -6t86 -2q131 0 160 14q174 82 260 176q-96 -29 -170 -28h-22q-10 0 -21 2h-168q-281 547 -451.5 876.5t-228.5 442.5l-278 2q-188 2 -357 -166q76 8 134.5 11t103.5 3 q23 0 65.5 -2t65.5 -2l-422 -723l-184 -86h129q-117 -199 -179.5 -306.5t-72.5 -125.5q-137 -231 -316 -373v4zM301 1964q0 -23 37 -41q72 -37 121 -62.5t76 -39.5q180 -94 235 -97q-2 0 -2 -2q129 -37 340 -36h41q-225 113 -528 331q-14 10 -31 19.5t-35 19.5h-4 q-23 0 -43 -12h-6l-129 -45q-72 -25 -72 -35zM729 645l338 539l285 -541z" />
<glyph unicode="&#xe1;" horiz-adv-x="2179" d="M-66 -281h3q125 63 227 148.5t188 193.5q25 33 99.5 151t203.5 323l754 -11l274 -516q66 -4 117 -6t86 -2q131 0 160 14q174 82 260 176q-96 -29 -170 -28h-22q-10 0 -21 2h-168q-281 547 -451.5 876.5t-228.5 442.5l-278 2q-188 2 -357 -166q76 8 134.5 11t103.5 3 q23 0 65.5 -2t65.5 -2l-422 -723l-184 -86h129q-117 -199 -179.5 -306.5t-72.5 -125.5q-137 -231 -316 -373v4zM729 645l338 539l285 -541zM954 1688q0 -4 4 -9l7 -2h4q4 0 17 2t34 7q297 61 299 61q35 16 59.5 29.5t38.5 21.5l326 205q14 8 22 16q25 13 25 23l-2 2h-8 l-8 -1q-9 -1 -18 -3t-18.5 -3t-11.5 -1q-20 0 -206 -31q2 -4 2 -8q-33 -4 -54.5 -8t-31.5 -7q-27 -12 -48.5 -23t-37.5 -22l-336 -202q-57 -33 -58 -47z" />
<glyph unicode="&#xe2;" horiz-adv-x="2177" d="M-68 -281h2q125 63 227.5 148.5t188.5 193.5q25 33 99.5 151t203.5 323l754 -11l274 -516q66 -4 117 -6t86 -2q131 0 160 14q174 82 260 176q-96 -29 -170 -28h-23q-10 0 -20 2h-168q-281 547 -452 876.5t-228 442.5l-278 2q-188 2 -357 -166q76 8 134.5 11t103.5 3 q23 0 65.5 -2t65.5 -2l-422 -723l-184 -86h129q-117 -199 -179.5 -306.5t-72.5 -125.5q-137 -231 -316 -373v4zM416 1671l6 -6q29 0 59 10l211 39q113 23 180 66q61 41 104.5 68.5t65.5 43.5q289 -152 361 -176q160 -53 391 -53h41q-233 123 -528 332q-45 33 -60.5 37 t-21.5 4q-10 0 -252 -47v-2q-80 -10 -166 -62l-336 -203q-49 -27 -55 -51zM727 645l338 539l285 -541z" />
<glyph unicode="&#xe3;" horiz-adv-x="2177" d="M-68 -281h2q125 63 227.5 148.5t188.5 193.5q25 33 99.5 151t203.5 323l754 -11l274 -516q66 -4 117 -6t86 -2q131 0 160 14q174 82 260 176q-96 -29 -170 -28h-23q-10 0 -20 2h-168q-281 547 -452 876.5t-228 442.5l-278 2q-188 2 -357 -166q76 8 134.5 11t103.5 3 q23 0 65.5 -2t65.5 -2l-422 -723l-184 -86h129q-117 -199 -179.5 -306.5t-72.5 -125.5q-137 -231 -316 -373v4zM403 1755q0 -18 15 -18q-4 0 90 75q96 76 178 76q63 0 242 -98q180 -98 270 -98q98 0 195 61q16 10 59 42t109 85q182 145 182 176q0 10 -17 10q-16 0 -32 -14 l-82 -61q-106 -78 -293 -78q-76 0 -240 84t-235 84q-86 0 -207 -103l-117 -98q-31 -27 -58.5 -53.5t-49.5 -54.5l-4 2v-2q-4 -16 -5 -17zM727 645l338 539l285 -541z" />
<glyph unicode="&#xe4;" horiz-adv-x="2172" d="M-72 -281h2q125 63 227.5 148.5t188.5 193.5q25 33 99.5 151t203.5 323l754 -11l274 -516q66 -4 117 -6t86 -2q131 0 160 14q174 82 260 176q-96 -29 -170 -28h-23q-10 0 -20 2h-168q-281 547 -452 876.5t-228 442.5l-278 2q-188 2 -357 -166q76 8 134.5 11t103.5 3 q23 0 65.5 -2t65.5 -2l-422 -723l-184 -86h129q-117 -199 -179.5 -306.5t-72.5 -125.5q-137 -231 -316 -373v4zM592 1888q0 -18 43 -51q53 -63 92 -104t66 -58l8 -2q16 2 84 70q20 20 42.5 43.5t41 44t31 36t12.5 21.5q-8 33 -39 47l-123 117v-6q-10 10 -20.5 19.5 t-20.5 13.5q-25 0 -39 -25q-168 -125 -178 -158v-8zM723 645l338 539l285 -541zM1149 1892q0 -18 43 -51q53 -63 92 -104t66 -58l8 -2q16 2 84 70q20 20 42.5 44t41 44t31 35.5t12.5 21.5q-8 33 -39 47l-123 117v-6q-10 10 -20.5 19.5t-20.5 13.5q-25 0 -39 -25 q-168 -125 -178 -157v-9z" />
<glyph unicode="&#xe5;" horiz-adv-x="2179" d="M-66 -281h3q125 63 227 148.5t188 193.5q25 33 99.5 151t203.5 323l754 -11l274 -516q66 -4 117 -6t86 -2q131 0 160 14q174 82 260 176q-96 -29 -170 -28h-22q-10 0 -21 2h-168q-281 547 -451.5 876.5t-228.5 442.5l-278 2q-188 2 -357 -166q76 8 134.5 11t103.5 3 q23 0 65.5 -2t65.5 -2l-422 -723l-184 -86h129q-117 -199 -179.5 -306.5t-72.5 -125.5q-137 -231 -316 -373v4zM729 645l338 539l285 -541zM731 1812q0 -61 41 -101t102 -40q33 0 70 19q55 29 93 48t61 29q84 60 84 140q0 37 -19 67q-39 63 -123 64q-47 0 -194 -74 q-23 -12 -43.5 -29.5t-35.5 -38t-25.5 -43t-10.5 -41.5zM862 1896q0 70 66 70q49 0 85 -45t36 -100q0 -74 -72 -74q-53 0 -86 51q-29 45 -29 98z" />
<glyph unicode="&#xe6;" horiz-adv-x="2510" d="M-47 -238q111 78 211 158t198 166q41 35 138.5 125t253.5 238l630 4l-2 -453h777q61 0 161 57q93 52 136 107v31q-121 -66 -199 -66l-604 2v600l446 -2q68 0 88 -14q33 -18 33 -78v-43l8 -8l6 2q8 8 11.5 13t5.5 9q0 23 39 103q41 86 41 106q0 37 -50 37h-622v543l452 -2 q100 0 101 -76q-2 -10 -2 -16t-2 -11q-2 -20 4 -37l4 -4v-4q53 92 87 149.5t50 84.5q6 12 8 14v10q0 18 -47 19l-1003 -2q-119 0 -170 -33l-158 -100h399l-651 -820l-274 -133l151 -4l-213 -227q-147 -150 -256.5 -260.5t-185.5 -184.5zM891 582l493 534l-2 -534h-491z" />
<glyph unicode="&#xe7;" horiz-adv-x="1779" d="M53 788q0 -334 434 -622v-2q51 -35 115 -66.5t141 -58.5l-73 -172l41 -49q133 35 217 35q78 0 92 -21q41 -59 41 -123q0 -96 -127 -155q-106 -47 -139 -48q-31 0 -107 39l2 -8q113 -74 174 -74q92 0 183 68q98 70 98 160q0 98 -64 147q-10 4 -19 9.5t-20 9.5 q-20 10 -33.5 15t-19.5 9q-23 10 -37 15.5t-22 9.5q-72 18 -117 18q-16 0 -61 -6l79 105q92 -18 156 -19q176 0 342 82q31 16 106.5 60t198.5 120l4 31q-59 -35 -104 -58.5t-78 -37.5q-96 -39 -203 -39q-123 0 -243 57q-82 39 -138.5 65.5t-89.5 43.5q-430 199 -430 538 q0 190 140 422q45 76 268 76q35 0 61.5 -1t44.5 -3l344 -39q41 -4 86 -16.5t93 -28.5q121 -47 120 -111q0 -20 -8 -51l-12 -49v-4q4 -2 8 -2q27 0 64 67l141 170q27 33 27 74q0 72 -336 125q-135 20 -244 30.5t-197 10.5q-29 0 -70.5 -3t-99.5 -7l-14 -8q-70 -41 -131.5 -79 t-114.5 -73q-100 -43 -235 -74q-41 -10 -62 -18q-72 -72 -123 -227q-49 -145 -49 -259z" />
<glyph unicode="&#xe8;" horiz-adv-x="1718" d="M66 836q0 -266 153 -428q29 -29 66 -63t84 -71q39 -29 77.5 -59.5t79.5 -60.5q193 -154 430 -154q166 0 275 68l252 155q74 45 73 78q0 2 -2 2l-92 -47q-106 -53 -112 -55q-78 -23 -160 -23q-203 0 -449 166q-233 154 -346 340q332 4 512 7t211 7q104 14 162.5 21.5 t73.5 11.5q98 23 217 92l-4 17q-133 -41 -254 -41h-37t-51 2l-891 30q18 449 137 500q57 25 143 25q66 0 136.5 -5t148.5 -16q160 -23 263.5 -36t150.5 -17q135 -35 135 -178q0 -27 -16 -76q41 53 70.5 92t49.5 66q16 16 29.5 30.5t24.5 26.5q31 33 49 62q6 14 6 28 q0 90 -262 119l-496 53q-115 12 -158 13q-59 0 -100 -29q-86 -57 -138 -90t-75 -41q-88 -31 -147.5 -52.5t-91.5 -31.5l4 2v-2q-49 -37 -95 -205q-37 -139 -36 -233zM422 1964q0 -23 37 -41q72 -37 121 -62.5t75 -39.5q180 -94 236 -97q-2 0 -2 -2q129 -37 340 -36h41 q-225 113 -529 331q-14 10 -30.5 19.5t-34.5 19.5h-4q-23 0 -43 -12h-6l-129 -45q-72 -25 -72 -35z" />
<glyph unicode="&#xe9;" horiz-adv-x="1718" d="M66 836q0 -266 153 -428q29 -29 66 -63t84 -71q39 -29 77.5 -59.5t79.5 -60.5q193 -154 430 -154q166 0 275 68l252 155q74 45 73 78q0 2 -2 2l-92 -47q-106 -53 -112 -55q-78 -23 -160 -23q-203 0 -449 166q-233 154 -346 340q332 4 512 7t211 7q104 14 162.5 21.5 t73.5 11.5q98 23 217 92l-4 17q-133 -41 -254 -41h-37t-51 2l-891 30q18 449 137 500q57 25 143 25q66 0 136.5 -5t148.5 -16q160 -23 263.5 -36t150.5 -17q135 -35 135 -178q0 -27 -16 -76q41 53 70.5 92t49.5 66q16 16 29.5 30.5t24.5 26.5q31 33 49 62q6 14 6 28 q0 90 -262 119l-496 53q-115 12 -158 13q-59 0 -100 -29q-86 -57 -138 -90t-75 -41q-88 -31 -147.5 -52.5t-91.5 -31.5l4 2v-2q-49 -37 -95 -205q-37 -139 -36 -233zM768 1688q0 -4 4 -9l6 -2h4q4 0 17.5 2t34.5 7q297 61 299 61q35 16 59.5 29.5t38.5 21.5l325 205 q14 8 23 16q25 13 25 23l-2 2h-9l-8 -1t-17 -3t-18.5 -3t-11.5 -1q-20 0 -207 -31q2 -4 2 -8q-33 -4 -54.5 -8t-31.5 -7q-27 -12 -48 -23t-38 -22l-336 -202q-57 -33 -57 -47z" />
<glyph unicode="&#xea;" horiz-adv-x="1718" d="M66 836q0 -266 153 -428q29 -29 66 -63t84 -71q39 -29 77.5 -59.5t79.5 -60.5q193 -154 430 -154q166 0 275 68l252 155q74 45 73 78q0 2 -2 2l-92 -47q-106 -53 -112 -55q-78 -23 -160 -23q-203 0 -449 166q-233 154 -346 340q332 4 512 7t211 7q104 14 162.5 21.5 t73.5 11.5q98 23 217 92l-4 17q-133 -41 -254 -41h-37t-51 2l-891 30q18 449 137 500q57 25 143 25q66 0 136.5 -5t148.5 -16q160 -23 263.5 -36t150.5 -17q135 -35 135 -178q0 -27 -16 -76q41 53 70.5 92t49.5 66q16 16 29.5 30.5t24.5 26.5q31 33 49 62q6 14 6 28 q0 90 -262 119l-496 53q-115 12 -158 13q-59 0 -100 -29q-86 -57 -138 -90t-75 -41q-88 -31 -147.5 -52.5t-91.5 -31.5l4 2v-2q-49 -37 -95 -205q-37 -139 -36 -233zM190 1671l7 -6q29 0 59 10l211 39q113 23 180 66q61 41 104.5 68.5t65.5 43.5q289 -152 361 -176 q160 -53 391 -53h41q-233 123 -529 332q-45 33 -60 37t-22 4q-10 0 -251 -47v-2q-80 -10 -166 -62l-336 -203q-49 -27 -56 -51z" />
<glyph unicode="&#xeb;" horiz-adv-x="1718" d="M66 836q0 -266 153 -428q29 -29 66 -63t84 -71q39 -29 77.5 -59.5t79.5 -60.5q193 -154 430 -154q166 0 275 68l252 155q74 45 73 78q0 2 -2 2l-92 -47q-106 -53 -112 -55q-78 -23 -160 -23q-203 0 -449 166q-233 154 -346 340q332 4 512 7t211 7q104 14 162.5 21.5 t73.5 11.5q98 23 217 92l-4 17q-133 -41 -254 -41h-37t-51 2l-891 30q18 449 137 500q57 25 143 25q66 0 136.5 -5t148.5 -16q160 -23 263.5 -36t150.5 -17q135 -35 135 -178q0 -27 -16 -76q41 53 70.5 92t49.5 66q16 16 29.5 30.5t24.5 26.5q31 33 49 62q6 14 6 28 q0 90 -262 119l-496 53q-115 12 -158 13q-59 0 -100 -29q-86 -57 -138 -90t-75 -41q-88 -31 -147.5 -52.5t-91.5 -31.5l4 2v-2q-49 -37 -95 -205q-37 -139 -36 -233zM473 1888q0 -18 43 -51q53 -63 92 -104t66 -58l8 -2q16 2 84 70q20 20 42.5 43.5t41 44t31 36t12.5 21.5 q-8 33 -39 47l-123 117v-6q-10 10 -20.5 19.5t-20.5 13.5q-25 0 -39 -25q-168 -125 -178 -158v-8zM1030 1892q0 -18 43 -51q53 -63 92 -104t66 -58l8 -2q16 2 84 70q20 20 43 44t41 44t30.5 35.5t12.5 21.5q-8 33 -39 47l-123 117v-6q-10 10 -20.5 19.5t-20.5 13.5 q-25 0 -39 -25q-168 -125 -178 -157v-9z" />
<glyph unicode="&#xec;" horiz-adv-x="952" d="M-227 1964q0 -23 37 -41q72 -37 118.5 -62.5t73.5 -39.5q92 -47 149.5 -71t84.5 -26q-2 0 -3 -2q129 -37 340 -36h41q-350 211 -528 331q-29 16 -44 26.5t-19 12.5h-5q-20 0 -41 -12l-133 -45q-72 -25 -71 -35zM266 129l281 -133v1372h344l-213 141h-412v-1380z" />
<glyph unicode="&#xed;" horiz-adv-x="952" d="M266 129l281 -133v1372h344l-213 141h-412v-1380zM399 1688q0 -4 4 -9l7 -2h4q4 0 17 2t34 7q297 61 299 61q35 16 59.5 29.5t38.5 21.5l326 205q14 8 22 16q25 13 25 23l-2 2h-8l-9 -1q-8 -1 -17 -3t-18.5 -3t-11.5 -1q-20 0 -206 -31q2 -4 2 -8q-33 -4 -54.5 -8 t-31.5 -7q-27 -12 -48.5 -23t-37.5 -22l-336 -202q-57 -33 -58 -47z" />
<glyph unicode="&#xee;" horiz-adv-x="952" d="M-217 1671l6 -6q29 0 59 10l209 39q113 23 181 66q61 41 104 68.5t66 43.5q289 -152 360 -176q160 -53 391 -53h41q-233 123 -528 332q-45 33 -60.5 37t-21.5 4q-10 0 -252 -47v-2q-80 -10 -166 -62l-334 -203q-49 -27 -55 -51zM266 129l281 -133v1372h344l-213 141h-412 v-1380z" />
<glyph unicode="&#xef;" horiz-adv-x="952" d="M-16 1888q0 -16 41 -51q53 -63 92 -104t65 -58l8 -2q16 2 84 70q20 20 43 43.5t41.5 44t30.5 36t12 21.5q-8 33 -39 47l-122 117v-6q-10 10 -20.5 19.5t-20.5 13.5q-25 0 -39 -25q-166 -127 -176 -158v-8zM266 129l281 -133v1372h344l-213 141h-412v-1380zM539 1892 q0 -18 43 -51q53 -63 92 -104t65 -58l9 -2q16 2 83 70q20 20 43 44t41.5 44t30.5 35.5t12 21.5q-8 33 -38 47l-123 117v-6q-10 10 -20.5 19.5t-20.5 13.5q-25 0 -39 -25q-168 -125 -178 -157v-9z" />
<glyph unicode="&#xf0;" horiz-adv-x="1880" d="M57 647h133q18 -117 68 -221q82 -176 270 -303q186 -123 381 -123q135 0 244 61l434 244q162 88 209 283q29 118 29 364q0 453 -469 527l-920 145q-90 14 -102 29v6q0 4 31 39q33 33 32 45q0 6 -12 16h-8q-10 0 -58 -39l-178 -143v-2q-84 -55 -84 -82q0 -16 84 -33 l467 -78l-227 -159q-190 -133 -201 -426h-123v-150zM471 846q0 68 7 132t22 128q41 170 114 227l54 41l465 -88q113 -23 191.5 -61.5t127.5 -102t70.5 -150.5t21.5 -204q0 -100 -39 -258q-47 -193 -92 -231q-94 -82 -252 -82q-133 0 -276 61q-313 133 -383 389h739v150h-766 q-2 35 -3 47t-1 2z" />
<glyph unicode="&#xf1;" horiz-adv-x="1978" d="M53 1368l363 -6v-1362l274 102v969q0 115 96 221q98 104 213 105q96 0 291 -111q143 -82 238 -229q102 -158 102 -314q0 -297 -278 -651q-121 -152 -129 -160l-2 -2q-84 -102 -84 -116v-4l8 -7q23 0 94 66l90 86q156 147 251 242.5t130 136.5q217 260 217 485 q0 180 -119 342q-102 137 -245 252q-174 137 -312 137h-6l-4 -2q-70 6 -274 -98q-78 -41 -145.5 -79t-121.5 -75v207h-391zM403 1755q0 -18 15 -18q-4 0 90 75q96 76 178 76q63 0 242 -98q180 -98 270 -98q98 0 195 61q16 10 59 42t109 85q182 145 182 176q0 10 -17 10 q-16 0 -32 -14l-82 -61q-106 -78 -293 -78q-76 0 -240 84t-235 84q-86 0 -207 -103l-117 -98q-31 -27 -58.5 -53.5t-49.5 -54.5l-4 2v-2q-4 -16 -5 -17z" />
<glyph unicode="&#xf2;" d="M61 696q0 -422 373 -622q174 -92 363 -92q156 0 344 98q63 33 305 201q137 94 192 231q48 119 48 301q0 258 -150 440q-145 178 -393 252l4 2v-2q-133 35 -244 35q-164 0 -246 -51l-288 -174q-307 -184 -308 -619zM217 1964q0 -23 37 -41q72 -37 121 -62.5t76 -39.5 q180 -94 235 -97q-2 0 -2 -2q129 -37 340 -36h41q-225 113 -528 331q-14 10 -31 19.5t-35 19.5h-4q-23 0 -43 -12h-6l-129 -45q-72 -25 -72 -35zM332 813q0 72 7 141.5t21 141.5q41 190 117 241q39 27 158 27q133 0 280 -39q262 -68 384 -230t122 -438q0 -496 -346 -495 q-199 0 -467 164q-205 125 -235 221l-2 2v-2q-39 111 -39 266z" />
<glyph unicode="&#xf3;" d="M61 696q0 -422 373 -622q174 -92 363 -92q156 0 344 98q63 33 305 201q137 94 192 231q48 119 48 301q0 258 -150 440q-145 178 -393 252l4 2v-2q-133 35 -244 35q-164 0 -246 -51l-288 -174q-307 -184 -308 -619zM332 813q0 72 7 141.5t21 141.5q41 190 117 241 q39 27 158 27q133 0 280 -39q262 -68 384 -230t122 -438q0 -496 -346 -495q-199 0 -467 164q-205 125 -235 221l-2 2v-2q-39 111 -39 266zM788 1688q0 -4 5 -9l6 -2h4q4 0 17.5 2t33.5 7q297 61 299 61q35 16 59.5 29.5t38.5 21.5l326 205q14 8 22 16q25 13 25 23l-2 2h-8 l-8 -1q-9 -1 -18 -3t-18 -3t-11 -1q-20 0 -207 -31q2 -4 2 -8q-33 -4 -54.5 -8t-31.5 -7q-27 -12 -48.5 -23t-37.5 -22l-336 -202q-57 -33 -58 -47z" />
<glyph unicode="&#xf4;" d="M61 696q0 -422 373 -622q174 -92 363 -92q156 0 344 98q63 33 305 201q137 94 192 231q48 119 48 301q0 258 -150 440q-145 178 -393 252l4 2v-2q-133 35 -244 35q-164 0 -246 -51l-288 -174q-307 -184 -308 -619zM190 1671l7 -6q29 0 59 10l211 39q113 23 180 66 q61 41 104.5 68.5t65.5 43.5q289 -152 361 -176q160 -53 391 -53h41q-233 123 -529 332q-45 33 -60 37t-22 4q-10 0 -251 -47v-2q-80 -10 -166 -62l-336 -203q-49 -27 -56 -51zM332 813q0 72 7 141.5t21 141.5q41 190 117 241q39 27 158 27q133 0 280 -39q262 -68 384 -230 t122 -438q0 -496 -346 -495q-199 0 -467 164q-205 125 -235 221l-2 2v-2q-39 111 -39 266z" />
<glyph unicode="&#xf5;" d="M61 696q0 -422 373 -622q174 -92 363 -92q156 0 344 98q63 33 305 201q137 94 192 231q48 119 48 301q0 258 -150 440q-145 178 -393 252l4 2v-2q-133 35 -244 35q-164 0 -246 -51l-288 -174q-307 -184 -308 -619zM219 1755q0 -18 14 -18q-4 0 91 75q96 76 178 76 q63 0 241 -98q180 -98 271 -98q98 0 194 61q16 10 59.5 42t108.5 85q183 145 183 176q0 10 -17 10q-16 0 -33 -14l-82 -61q-106 -78 -292 -78q-76 0 -240 84t-236 84q-86 0 -206 -103l-117 -98q-31 -27 -58.5 -53.5t-50.5 -54.5l-4 2v-2q-4 -16 -4 -17zM332 813 q0 72 7 141.5t21 141.5q41 190 117 241q39 27 158 27q133 0 280 -39q262 -68 384 -230t122 -438q0 -496 -346 -495q-199 0 -467 164q-205 125 -235 221l-2 2v-2q-39 111 -39 266z" />
<glyph unicode="&#xf6;" d="M61 696q0 -422 373 -622q174 -92 363 -92q156 0 344 98q63 33 305 201q137 94 192 231q48 119 48 301q0 258 -150 440q-145 178 -393 252l4 2v-2q-133 35 -244 35q-164 0 -246 -51l-288 -174q-307 -184 -308 -619zM332 813q0 72 7 141.5t21 141.5q41 190 117 241 q39 27 158 27q133 0 280 -39q262 -68 384 -230t122 -438q0 -496 -346 -495q-199 0 -467 164q-205 125 -235 221l-2 2v-2q-39 111 -39 266zM391 1888q0 -18 43 -51q53 -63 92 -104t66 -58l8 -2q16 2 84 70q20 20 43 43.5t41 44t30.5 36t12.5 21.5q-8 33 -39 47l-123 117v-6 q-10 10 -20.5 19.5t-20.5 13.5q-25 0 -39 -25q-168 -125 -178 -158v-8zM948 1892q0 -18 43 -51q53 -63 92 -104t66 -58l8 -2q16 2 84 70q20 20 43 44t41 44t30.5 35.5t12.5 21.5q-8 33 -39 47l-123 117v-6q-10 10 -20 19.5t-21 13.5q-25 0 -39 -25q-168 -125 -178 -157v-9z " />
<glyph unicode="&#xf7;" horiz-adv-x="815" d="M18 512q0 -16 19 -16q12 4 24 14q55 45 134 55q14 2 51 3t96 1h107l88 2q12 0 92 -22q47 -16 47 -21q0 -2 -10 -2q20 0 32 41q18 57 78 121q21 21 21 41q0 23 -23 23l-31 -9q-92 -25 -247 -22l-318 2q-25 10 -43 18.5t-29 12.5q-16 0 -43 -92l-34 -111q-10 -37 -11 -39z M293 317q12 -109 12 -124q0 -43 25 -43q25 4 39 12l53 31q100 57 100 77l-16 107q14 49 14 65q0 27 -28 27q-23 -4 -54 -23q-33 -20 -54.5 -32.5t-31.5 -18.5q-59 -41 -59 -69v-9zM293 981q12 -59 12 -125q0 -43 25 -43q20 4 39 14l53 29q100 51 100 80l-16 104l8 33 q6 25 6 35q0 27 -28 27q-16 -4 -54 -25l-86 -49q-59 -35 -59 -70v-10z" />
<glyph unicode="&#xf8;" horiz-adv-x="1759" d="M61 692q0 -371 322 -594l-129 -198q125 100 135 110q2 -2 2 -4l55 55q29 -16 68 -32.5t90 -30.5q100 -31 168 -31q172 0 356 92q84 43 318 197q147 96 207 236q51 116 51 313q0 391 -348 604l104 160l-192 -115q-174 88 -404 88q-150 0 -225 -49l-283 -180 q-295 -188 -295 -621zM340 864q0 70 6 133.5t21 120.5q39 172 108 219q39 27 146 27q236 0 440 -90h4v-2q-63 -115 -124.5 -227.5t-123.5 -225.5q-74 -133 -140.5 -242.5t-125.5 -199.5q-102 63 -154 147q-57 88 -57 340zM641 317l565 875v-4q207 -207 207 -514 q0 -508 -342 -508q-193 0 -430 151z" />
<glyph unicode="&#xf9;" horiz-adv-x="2172" d="M61 1346l392 -7q-86 -143 -131.5 -217.5t-49.5 -83.5q-109 -193 -108 -321q0 -158 131 -332q59 -78 125.5 -146.5t142.5 -127.5q186 -143 340 -144q143 0 314 76l284 162v-205q178 -2 269.5 -3t97.5 -1q49 0 104 22q45 37 82 65.5t68 51.5l-332 12q-2 498 -4 833t-6 515 l-373 -2q-68 0 -152 -53l-129 -99l369 -4v-1042q-66 -145 -274 -145q-217 0 -461 182q-240 184 -307 397q-14 43 -17 96l2 6v7q0 94 86 278q96 209 203 359q-111 10 -188.5 15t-126.5 5q-76 0 -101 -8q-121 -35 -250 -141zM258 1964q0 -23 37 -41q72 -37 121 -62.5t76 -39.5 q180 -94 235 -97q-2 0 -2 -2q129 -37 340 -36h41q-225 113 -528 331q-14 10 -31 19.5t-35 19.5h-4q-23 0 -43 -12h-6l-129 -45q-72 -25 -72 -35z" />
<glyph unicode="&#xfa;" horiz-adv-x="2172" d="M61 1346l392 -7q-86 -143 -131.5 -217.5t-49.5 -83.5q-109 -193 -108 -321q0 -158 131 -332q59 -78 125.5 -146.5t142.5 -127.5q186 -143 340 -144q143 0 314 76l284 162v-205q178 -2 269.5 -3t97.5 -1q49 0 104 22q45 37 82 65.5t68 51.5l-332 12q-2 498 -4 833t-6 515 l-373 -2q-68 0 -152 -53l-129 -99l369 -4v-1042q-66 -145 -274 -145q-217 0 -461 182q-240 184 -307 397q-14 43 -17 96l2 6v7q0 94 86 278q96 209 203 359q-111 10 -188.5 15t-126.5 5q-76 0 -101 -8q-121 -35 -250 -141zM891 1688q0 -4 4 -9l6 -2h4q4 0 17.5 2t33.5 7 q297 61 299 61q35 16 59.5 29.5t39.5 21.5l325 205q14 8 23 16q24 13 24 23l-2 2h-8l-8 -1t-17.5 -3t-18.5 -3t-11 -1q-20 0 -207 -31q2 -4 2 -8q-33 -4 -54.5 -8t-31.5 -7q-27 -12 -48.5 -23t-37.5 -22l-336 -202q-57 -33 -57 -47z" />
<glyph unicode="&#xfb;" horiz-adv-x="2172" d="M61 1346l392 -7q-86 -143 -131.5 -217.5t-49.5 -83.5q-109 -193 -108 -321q0 -158 131 -332q59 -78 125.5 -146.5t142.5 -127.5q186 -143 340 -144q143 0 314 76l284 162v-205q178 -2 269.5 -3t97.5 -1q49 0 104 22q45 37 82 65.5t68 51.5l-332 12q-2 498 -4 833t-6 515 l-373 -2q-68 0 -152 -53l-129 -99l369 -4v-1042q-66 -145 -274 -145q-217 0 -461 182q-240 184 -307 397q-14 43 -17 96l2 6v7q0 94 86 278q96 209 203 359q-111 10 -188.5 15t-126.5 5q-76 0 -101 -8q-121 -35 -250 -141zM293 1671l6 -6q29 0 59 10l211 39q113 23 181 66 q61 41 104 68.5t66 43.5q289 -152 360 -176q160 -53 391 -53h41q-233 123 -528 332q-45 33 -60.5 37t-21.5 4q-10 0 -252 -47v-2q-80 -10 -166 -62l-336 -203q-49 -27 -55 -51z" />
<glyph unicode="&#xfc;" horiz-adv-x="2172" d="M61 1346l392 -7q-86 -143 -131.5 -217.5t-49.5 -83.5q-109 -193 -108 -321q0 -158 131 -332q59 -78 125.5 -146.5t142.5 -127.5q186 -143 340 -144q143 0 314 76l284 162v-205q178 -2 269.5 -3t97.5 -1q49 0 104 22q45 37 82 65.5t68 51.5l-332 12q-2 498 -4 833t-6 515 l-373 -2q-68 0 -152 -53l-129 -99l369 -4v-1042q-66 -145 -274 -145q-217 0 -461 182q-240 184 -307 397q-14 43 -17 96l2 6v7q0 94 86 278q96 209 203 359q-111 10 -188.5 15t-126.5 5q-76 0 -101 -8q-121 -35 -250 -141zM535 1888q0 -18 43 -51q53 -63 92 -104t65 -58 l8 -2q16 2 84 70q20 20 43 43.5t41.5 44t30.5 36t12 21.5q-8 33 -39 47l-122 117v-6q-10 10 -20.5 19.5t-20.5 13.5q-25 0 -39 -25q-168 -125 -178 -158v-8zM1092 1892q0 -18 43 -51q53 -63 92 -104t65 -58l8 -2q16 2 84 70q20 20 43 44t41.5 44t30.5 35.5t12 21.5 q-8 33 -38 47l-123 117v-6q-10 10 -20.5 19.5t-20.5 13.5q-25 0 -39 -25q-168 -125 -178 -157v-9z" />
<glyph unicode="&#xfd;" horiz-adv-x="1921" d="M41 1362l434 -6l-108 -189v-2q-72 -115 -120 -222t-75 -212q-2 -2 -2 -8q0 -102 139 -301q113 -160 264 -295q201 -180 332 -180h6l4 2q104 -10 256 69l326 172v-237q0 -199 -176 -199q-164 0 -418 86l-393 152q-23 6 -39 10t-27 8q-37 20 -36 51q0 14 26 39q31 27 33 35 q-4 12 -16 19q-35 0 -181 -109q-143 -106 -143 -141q0 -76 432 -226q414 -145 514 -145h4l4 2q45 -4 125 41q35 16 103.5 63.5t175.5 122.5q215 156 256 199q37 39 37 123l-2 1436l-385 -2q-70 0 -113 -43l-193 -117h412v-1104q-121 -70 -141 -78q-61 -27 -154 -26 q-166 0 -395 180q-356 279 -356 526q0 96 51 193l231 442q-184 8 -291 12q-47 2 -63.5 3t-3.5 1q-88 0 -174 -49q-51 -29 -91 -53.5t-69 -42.5zM891 1688q0 -4 4 -9l6 -2h4q4 0 17.5 2t33.5 7q297 61 299 61q35 16 59.5 29.5t39.5 21.5l325 205q14 8 23 16q24 13 24 23l-2 2 h-8l-8 -1t-17.5 -3t-18.5 -3t-11 -1q-20 0 -207 -31q2 -4 2 -8q-33 -4 -54.5 -8t-31.5 -7q-27 -12 -48.5 -23t-37.5 -22l-336 -202q-57 -33 -57 -47z" />
<glyph unicode="&#xfe;" horiz-adv-x="1695" d="M51 1348l289 18v-1368l264 108v297q281 -6 418 21q111 20 209 54t188 85q236 131 236 311q0 213 -189 340q-164 109 -389 109q-8 0 -10 -2q-4 2 -12 2l-461 -25v220l-217 -13q-96 -6 -172 -47zM602 508v657l115 2v-2q61 2 125.5 -4t134.5 -16q156 -25 223 -66 q162 -106 162 -307q0 -139 -121 -225q-109 -78 -252 -78q-98 0 -163.5 3t-102.5 7q-41 6 -70.5 13.5t-50.5 15.5z" />
<glyph unicode="&#xff;" horiz-adv-x="1921" d="M41 1362l434 -6l-108 -189v-2q-72 -115 -120 -222t-75 -212q-2 -2 -2 -8q0 -102 139 -301q113 -160 264 -295q201 -180 332 -180h6l4 2q104 -10 256 69l326 172v-237q0 -199 -176 -199q-164 0 -418 86l-393 152q-23 6 -39 10t-27 8q-37 20 -36 51q0 14 26 39q31 27 33 35 q-4 12 -16 19q-35 0 -181 -109q-143 -106 -143 -141q0 -76 432 -226q414 -145 514 -145h4l4 2q45 -4 125 41q35 16 103.5 63.5t175.5 122.5q215 156 256 199q37 39 37 123l-2 1436l-385 -2q-70 0 -113 -43l-193 -117h412v-1104q-121 -70 -141 -78q-61 -27 -154 -26 q-166 0 -395 180q-356 279 -356 526q0 96 51 193l231 442q-184 8 -291 12q-47 2 -63.5 3t-3.5 1q-88 0 -174 -49q-51 -29 -91 -53.5t-69 -42.5zM473 1888q0 -18 43 -51q53 -63 92 -104t66 -58l8 -2q16 2 84 70q20 20 42.5 43.5t41 44t31 36t12.5 21.5q-8 33 -39 47l-123 117 v-6q-10 10 -20.5 19.5t-20.5 13.5q-25 0 -39 -25q-168 -125 -178 -158v-8zM1030 1892q0 -18 43 -51q53 -63 92 -104t66 -58l8 -2q16 2 84 70q20 20 43 44t41 44t30.5 35.5t12.5 21.5q-8 33 -39 47l-123 117v-6q-10 10 -20.5 19.5t-20.5 13.5q-25 0 -39 -25 q-168 -125 -178 -157v-9z" />
<glyph unicode="&#x152;" horiz-adv-x="2584" d="M74 723q0 -406 387 -633h-10v-2q168 -92 460 -92q12 0 35 1t47 1q25 0 47.5 1t34.5 1h1006q135 0 260 78q123 76 186 201q-266 -143 -403 -144l-916 -2q72 14 232 125q268 188 280 479l418 -2q68 0 88 -14q33 -18 33 -78v-43l8 -8l6 2q14 20 21 27q-2 10 39 98t41 108 q0 41 -50 41l-598 -2q0 334 -307 549l733 -2q41 0 70 -22.5t29 -57.5q0 -55 -2 -51q2 -6 2 -12l4 -4v-4q53 92 87 149t50 84q6 12 8 14v11q0 18 -47 18h-1046l-177 -2q-37 0 -114 16q-72 6 -127 7q-84 0 -193 -35q-104 -35 -174 -86q-113 -82 -185.5 -142.5t-107.5 -99.5 q-111 -123 -145 -344q-4 -33 -7 -64.5t-3 -64.5zM336 829q0 72 7 140.5t22 138.5q41 188 120 240q45 31 177 30q66 0 131 -9t135 -26q516 -132 516 -679q0 -481 -397 -482q-240 0 -508 201q-135 104 -162 186v-4q-41 135 -41 264z" />
<glyph unicode="&#x153;" horiz-adv-x="2584" d="M74 723q0 -406 387 -633h-10v-2q168 -92 460 -92q12 0 35 1t47 1q25 0 47.5 1t34.5 1h1006q135 0 260 78q123 76 186 201q-266 -143 -403 -144l-916 -2q72 14 232 125q268 188 280 479l418 -2q68 0 88 -14q33 -18 33 -78v-43l8 -8l6 2q14 20 21 27q-2 10 39 98t41 108 q0 41 -50 41l-598 -2q0 334 -307 549l733 -2q41 0 70 -22.5t29 -57.5q0 -55 -2 -51q2 -6 2 -12l4 -4v-4q53 92 87 149t50 84q6 12 8 14v11q0 18 -47 18h-1046l-177 -2q-37 0 -114 16q-72 6 -127 7q-84 0 -193 -35q-104 -35 -174 -86q-113 -82 -185.5 -142.5t-107.5 -99.5 q-111 -123 -145 -344q-4 -33 -7 -64.5t-3 -64.5zM336 829q0 72 7 140.5t22 138.5q41 188 120 240q45 31 177 30q66 0 131 -9t135 -26q516 -132 516 -679q0 -481 -397 -482q-240 0 -508 201q-135 104 -162 186v-4q-41 135 -41 264z" />
<glyph unicode="&#x178;" horiz-adv-x="1921" d="M41 1362l434 -6l-108 -189v-2q-72 -115 -120 -222t-75 -212q-2 -2 -2 -8q0 -102 139 -301q113 -160 264 -295q201 -180 332 -180h6l4 2q104 -10 256 69l326 172v-237q0 -199 -176 -199q-164 0 -418 86l-393 152q-23 6 -39 10t-27 8q-37 20 -36 51q0 14 26 39q31 27 33 35 q-4 12 -16 19q-35 0 -181 -109q-143 -106 -143 -141q0 -76 432 -226q414 -145 514 -145h4l4 2q45 -4 125 41q35 16 103.5 63.5t175.5 122.5q215 156 256 199q37 39 37 123l-2 1436l-385 -2q-70 0 -113 -43l-193 -117h412v-1104q-121 -70 -141 -78q-61 -27 -154 -26 q-166 0 -395 180q-356 279 -356 526q0 96 51 193l231 442q-184 8 -291 12q-47 2 -63.5 3t-3.5 1q-88 0 -174 -49q-51 -29 -91 -53.5t-69 -42.5zM473 1888q0 -18 43 -51q53 -63 92 -104t66 -58l8 -2q16 2 84 70q20 20 42.5 43.5t41 44t31 36t12.5 21.5q-8 33 -39 47l-123 117 v-6q-10 10 -20.5 19.5t-20.5 13.5q-25 0 -39 -25q-168 -125 -178 -158v-8zM1030 1892q0 -18 43 -51q53 -63 92 -104t66 -58l8 -2q16 2 84 70q20 20 43 44t41 44t30.5 35.5t12.5 21.5q-8 33 -39 47l-123 117v-6q-10 10 -20.5 19.5t-20.5 13.5q-25 0 -39 -25 q-168 -125 -178 -157v-9z" />
<glyph unicode="&#x2c6;" horiz-adv-x="2150" d="M190 1671l7 -6q29 0 59 10l211 39q113 23 180 66q61 41 104.5 68.5t65.5 43.5q289 -152 361 -176q160 -53 391 -53h41q-233 123 -529 332q-45 33 -60 37t-22 4q-10 0 -251 -47v-2q-80 -10 -166 -62l-336 -203q-49 -27 -56 -51z" />
<glyph unicode="&#x2dc;" horiz-adv-x="1978" d="M403 1755q0 -18 15 -18q-4 0 90 75q96 76 178 76q63 0 242 -98q180 -98 270 -98q98 0 195 61q16 10 59 42t109 85q182 145 182 176q0 10 -17 10q-16 0 -32 -14l-82 -61q-106 -78 -293 -78q-76 0 -240 84t-235 84q-86 0 -207 -103l-117 -98q-31 -27 -58.5 -53.5 t-49.5 -54.5l-4 2v-2q-4 -16 -5 -17z" />
<glyph unicode="&#x2000;" horiz-adv-x="1041" />
<glyph unicode="&#x2001;" horiz-adv-x="2083" />
<glyph unicode="&#x2002;" horiz-adv-x="1041" />
<glyph unicode="&#x2003;" horiz-adv-x="2083" />
<glyph unicode="&#x2004;" horiz-adv-x="694" />
<glyph unicode="&#x2005;" horiz-adv-x="520" />
<glyph unicode="&#x2006;" horiz-adv-x="347" />
<glyph unicode="&#x2007;" horiz-adv-x="347" />
<glyph unicode="&#x2008;" horiz-adv-x="260" />
<glyph unicode="&#x2009;" horiz-adv-x="416" />
<glyph unicode="&#x200a;" horiz-adv-x="115" />
<glyph unicode="&#x2010;" horiz-adv-x="1122" d="M57 666q0 -16 43 -17h744q45 41 81 71t64 50h2q74 62 86 74q0 12 -88 26h-688v-2q-51 -45 -105.5 -88t-113.5 -86q-25 -18 -25 -28z" />
<glyph unicode="&#x2011;" horiz-adv-x="1122" d="M57 666q0 -16 43 -17h744q45 41 81 71t64 50h2q74 62 86 74q0 12 -88 26h-688v-2q-51 -45 -105.5 -88t-113.5 -86q-25 -18 -25 -28z" />
<glyph unicode="&#x2012;" horiz-adv-x="1122" d="M57 666q0 -16 43 -17h744q45 41 81 71t64 50h2q74 62 86 74q0 12 -88 26h-688v-2q-51 -45 -105.5 -88t-113.5 -86q-25 -18 -25 -28z" />
<glyph unicode="&#x2013;" horiz-adv-x="1404" d="M57 666q0 -16 43 -17h1022q92 80 142 117q0 2 45 35t45 43t-86 26h-967v-2q-51 -45 -105.5 -88t-113.5 -86q-25 -18 -25 -28z" />
<glyph unicode="&#x2014;" horiz-adv-x="1947" d="M57 666q0 -16 43 -17h1559q92 80 141 117q0 2 45 35t45 43t-86 26h-1503v-2q-51 -45 -105.5 -88t-113.5 -86q-25 -18 -25 -28z" />
<glyph unicode="&#x2018;" horiz-adv-x="489" d="M20 1057q0 -150 156 -269q129 107 186 187l-4 -2v-2q-143 119 -143 262q0 53 55 164l56 110q0 8 -9 9q-16 0 -49 -43q-16 -23 -27.5 -37.5t-19.5 -22.5q-201 -231 -201 -356z" />
<glyph unicode="&#x2019;" horiz-adv-x="489" d="M61 1329l5 2v-2q143 -119 143 -258q0 -57 -55 -168l-56 -110q0 -8 11 -9q23 0 137 154q106 143 129 190q28 68 28 117q0 156 -155 266q-70 -66 -117 -110.5t-70 -71.5z" />
<glyph unicode="&#x201a;" horiz-adv-x="489" d="M61 182l5 2v-2q143 -119 143 -254q0 -55 -55 -166l-56 -110q0 -8 11 -8q23 0 137 153q106 143 129 191q28 61 28 110q0 156 -155 267q-70 -66 -117 -111t-70 -72z" />
<glyph unicode="&#x201c;" horiz-adv-x="940" d="M70 1055q0 -150 155 -269q130 107 187 187l-4 -2v-2q-143 119 -144 262q0 53 55 164l56 110q0 8 -8 8q-16 0 -50 -43q-16 -23 -27 -37t-20 -22q-201 -231 -200 -356zM547 1053q0 -150 155 -269q130 107 187 187l-4 -2v-2q-143 119 -144 262q0 53 56 164l55 110q0 8 -8 8 q-16 0 -49 -43q-16 -23 -27.5 -37t-19.5 -22q-201 -231 -201 -356z" />
<glyph unicode="&#x201d;" horiz-adv-x="952" d="M61 1329l5 2v-2q143 -119 143 -258q0 -57 -55 -168l-56 -110q0 -8 11 -9q23 0 137 154q106 143 129 190q28 68 28 117q0 156 -155 266q-70 -66 -117 -110.5t-70 -71.5zM539 1327l4 2v-2q143 -119 143 -258q0 -57 -55 -168l-56 -110q0 -8 11 -9q23 0 137 154 q106 143 129 190q29 68 29 117q0 156 -156 266q-70 -66 -117 -110.5t-69 -71.5z" />
<glyph unicode="&#x201e;" horiz-adv-x="952" d="M61 182l5 2v-2q143 -119 143 -254q0 -55 -55 -166l-56 -110q0 -8 11 -8q23 0 137 153q106 143 129 191q28 61 28 110q0 156 -155 267q-70 -66 -117 -111t-70 -72zM539 180l4 2v-2q143 -119 143 -254q0 -55 -55 -166l-56 -110q0 -8 11 -8q23 0 137 153q106 143 129 191 q29 61 29 110q0 156 -156 266q-51 -49 -98 -95t-88 -87z" />
<glyph unicode="&#x2022;" horiz-adv-x="575" d="M14 743q0 -23 52 -61l92 -104q29 -33 52 -55.5t44 -35.5l10 -2q25 4 115 97q135 141 137 161q-2 31 -45 58q-53 51 -90 86t-57 53v-6q-33 39 -54 39q-8 0 -53 -39l-111 -96q-84 -72 -92 -86v-9z" />
<glyph unicode="&#x2026;" horiz-adv-x="1927" d="M55 203q0 -18 43 -51q141 -147 158 -154l8 -2q25 2 94 70q111 106 117 137q-8 33 -39 47l-123 117v-7q-10 10 -20 19.5t-21 13.5q-25 0 -39 -24q-168 -125 -178 -158v-8zM735 207q0 -18 43 -51q27 -29 45.5 -49.5t28.5 -32.5q63 -72 92 -74h19q184 164 194 207 q-8 33 -39 47q-45 41 -76.5 70.5t-48.5 46.5v-6q-10 10 -20 19t-21 13q-25 0 -39 -24q-168 -125 -178 -158v-8zM1438 211q0 -18 43 -51q37 -41 55 -62l18 -20q59 -68 84 -78h19q20 16 47 39.5t59 56.5q89 84 95 115q-8 33 -39 47l-123 117v-6q-10 10 -20.5 19t-20.5 13 q-25 0 -39 -24q-168 -125 -178 -158v-8z" />
<glyph unicode="&#x202f;" horiz-adv-x="416" />
<glyph unicode="&#x2039;" horiz-adv-x="839" d="M16 690q109 -94 174.5 -151.5t88.5 -77.5q143 -123 282 -205l238 172q-217 176 -339 274.5t-149 120.5q31 23 41 33q86 53 145.5 91t94.5 59q59 49 98 83.5t62 55.5q25 29 41 46.5t26 25.5q-41 -4 -85 -16.5t-91 -31.5q-47 -16 -82 -34.5t-57 -34.5q-45 -33 -115 -109 q-47 -41 -75.5 -64.5t-39.5 -31.5l-6 6v-2l-147 -121q0 -4 -4 -4z" />
<glyph unicode="&#x203a;" horiz-adv-x="831" d="M20 289q266 66 375 174l2 2q31 27 43 37q59 47 113 94h4v-2q80 66 144.5 119t111.5 94q-96 76 -197 166q-70 59 -117.5 98t-74.5 57q-72 47 -113 76t-51 37l-237 -176q160 -131 283.5 -229.5t211.5 -163.5q-31 -23 -41 -33q-35 -23 -86 -54.5t-123 -72.5 q-25 -14 -57.5 -40t-73.5 -62q-76 -72 -117 -121z" />
<glyph unicode="&#x205f;" horiz-adv-x="520" />
<glyph unicode="&#x2122;" horiz-adv-x="1751" d="M70 1509l6 -176h33q16 88 26 107l8 4q8 2 17 2l168 6v-608q0 -57 -62 -58h-4l-4 2l-31 -2v-32q10 -2 19 -2q16 0 50 3t50 3h72q2 0 11 -1t25.5 -3t26.5 -2h17q12 0 16 2h16v30l-36 13v-2q-74 0 -74 59v606l90 -2q33 -2 55 -2h35q31 -12 43 -121h33l8 178 q-37 -12 -281 -12h-135q-72 0 -121 2t-77 6zM727 745q10 -2 18 -2q16 0 51 3.5t52 3.5q18 0 54 -3.5t54 -3.5q14 0 17 2h14v31q-27 2 -43 4t-26 4q-33 8 -33 54v524l297 -621h22l295 627v-528q0 -57 -61 -58h-4l-4 2l-31 -2v-32q8 -2 12 -2h8q12 0 29.5 1t38 2t38 2t29.5 1 q18 0 57.5 -3t59.5 -3q14 0 17 2h16v30q-27 2 -43 4t-25 4q-35 12 -34 52v569q0 61 106 61v33q-35 -8 -98 -8q-4 0 -16.5 1t-33 3t-30.5 3t-12 1h-17q-35 -98 -37 -100q-35 -72 -49 -105q-8 -8 -86 -168l-110 -231l-283 600q-35 -8 -102 -8q-4 0 -15.5 1t-32.5 3 q-18 2 -28 3t-13 1h-18v-33q23 -2 40 -4t28 -6q33 -12 32 -51v-569q0 -57 -61 -58h-4l-4 2l-31 -2v-33z" />
<glyph unicode="&#x25fc;" horiz-adv-x="1546" d="M0 0v1546h1546v-1546h-1546z" />
</font>
</defs>
</svg>
