<?xml version="1.0" standalone="no"?>
<!DOCTYPE svg PUBLIC "-//W3C//DTD SVG 1.1//EN" "http://www.w3.org/Graphics/SVG/1.1/DTD/svg11.dtd" >
<svg xmlns="http://www.w3.org/2000/svg" xmlns:xlink="http://www.w3.org/1999/xlink" version="1.1">
<metadata></metadata>
<defs>
<font id="sf_foxboro_scriptregular" horiz-adv-x="608" >
<font-face units-per-em="2048" ascent="1638" descent="-410" />
<missing-glyph horiz-adv-x="555" />
<glyph horiz-adv-x="0" />
<glyph unicode="&#xd;" horiz-adv-x="555" />
<glyph unicode=" "  horiz-adv-x="555" />
<glyph unicode="&#x09;" horiz-adv-x="555" />
<glyph unicode="&#xa0;" horiz-adv-x="555" />
<glyph unicode="!" horiz-adv-x="303" d="M80 70q0 36 24 59v4q1 21 50 21q82 0 82 -58q0 -34 -25 -62t-55 -28q-76 0 -76 64zM172 258q0 3 4 23t12 57q9 35 19 85t24 116q15 100 36.5 247t51.5 351q26 144 56 174q18 18 51 18q41 0 41 -24q0 -14 -4 -27q-10 -42 -23.5 -100.5t-29.5 -139.5l-31 -170 q-10 -51 -20 -109.5t-21 -127.5q-39 -236 -109 -377q-13 -4 -39 -4q-18 0 -18 8z" />
<glyph unicode="&#x22;" horiz-adv-x="485" d="M260 1090q2 -6 64 94q24 49 84 123q13 12 49 12q32 0 32 -16q0 -19 -83 -132q-68 -90 -121 -90q-25 0 -25 9zM438 1092q6 10 19 10q10 10 22.5 35.5t28.5 64.5q13 36 24.5 57t23 31.5t23.5 13.5t27 3q41 0 41 -19q0 -8 -10 -35q-10 -28 -26.5 -56t-37.5 -54 q-53 -68 -96 -68q-28 0 -39 17z" />
<glyph unicode="#" horiz-adv-x="1102" d="M231 698q0 3 19 7q100 10 156 18q12 52 28.5 109.5t38.5 121.5q-158 -39 -190 -39q-52 0 -52 19q0 6 25 16q14 7 73.5 22t166.5 40q53 149 110 235q13 4 51 4q15 0 15 -8t-25 -59q-6 -15 -20.5 -51.5t-36.5 -96.5q82 19 144 32t104 24q24 100 24 104t-3 9t-3 9 q0 17 43 17q39 0 39 -49q0 -15 -3 -32t-7 -40q193 39 262 39q45 0 45 -25q0 -9 -41 -20q-66 -10 -134.5 -23.5t-141.5 -29.5q-9 -35 -24 -93.5t-38 -136.5q163 39 197 39q41 0 41 -22q0 -4 -19 -13q-44 -20 -114 -32q-29 -5 -60 -11t-59 -12q-13 -45 -29 -94t-39 -107 q-22 -22 -51 -22q-39 0 -39 22q0 2 53 176q-20 -5 -45.5 -10.5t-56.5 -11.5l-143 -29q-15 -60 -28 -119t-30 -122q-18 -21 -47 -21q-39 0 -39 21q0 2 2.5 17.5t7.5 43.5q8 40 17 81.5t20 86.5q-53 -6 -129 -6q-35 0 -35 22zM502 741q46 10 108.5 23.5t143.5 32.5 q12 42 30.5 100.5t40.5 136.5q-57 -10 -120.5 -24.5t-135.5 -30.5q-16 -45 -32.5 -103.5t-34.5 -134.5z" />
<glyph unicode="$" horiz-adv-x="801" d="M152 225q0 86 100 86q49 0 49 -20q0 -4 -15 -26q-14 -23 -14 -36q0 -50 93 -63q30 159 55.5 294t46.5 261q-35 27 -72 52.5t-71 51.5q-82 70 -82 148q0 102 92 168q86 57 192 53q2 27 5.5 57.5t9.5 65.5q7 12 34 12q35 0 35 -35q0 -14 -3 -40t-7 -68q66 -12 115 -43 q65 -41 65 -94q0 -45 -49 -88q-53 -41 -94 -41q-30 0 -37 12q4 6 15.5 18.5t31.5 30.5q29 29 29 59q0 51 -86 86q-10 -88 -22.5 -172t-28.5 -178q100 -78 172 -172q86 -119 86 -221q0 -135 -133 -213q-110 -65 -258 -66l-19 -96q-23 -6 -41 -6q-17 0 -12 6l20 98 q-35 3 -65.5 11t-59.5 22q-77 35 -77 86zM360 979q0 -75 123 -160q10 66 19 145t18 179h-16q-58 0 -101 -54q-43 -52 -43 -110zM420 162q102 4 174 57q82 61 82 158q0 131 -158 295q-25 -140 -49 -266t-49 -244z" />
<glyph unicode="%" horiz-adv-x="1073" d="M184 27q0 42 400 604q51 72 120.5 176.5t157.5 249.5q17 22 38.5 58t49.5 85q6 14 15.5 29.5t19.5 34.5q19 16 49 16q47 0 47 -23q0 -6 -30 -63q-48 -97 -139 -236.5t-230 -326.5l-225 -307q-52 -73 -106.5 -148t-114.5 -153q-15 -9 -35 -9q-17 0 -17 13zM244 989 q0 81 59 164q57 79 141 111q-57 0 -57 24q0 27 76 27q117 0 211 -49q119 -62 119 -164q0 -111 -121 -195q-113 -71 -230 -71q-198 0 -198 153zM346 1010q0 -123 100 -123q75 0 152 65q76 67 76 142q0 114 -166 157q-34 -15 -63.5 -41.5t-51.5 -59t-34.5 -69t-12.5 -71.5z M506 201q0 94 55 176q60 86 141 119q39 14 62 14q39 0 80 -12q75 -22 139 -97q66 -75 66 -149q0 -109 -109 -182q-94 -64 -207 -64q-95 0 -160 47q-67 51 -67 148zM608 215q0 -62 29 -109q33 -51 96 -51q76 0 133 58q60 58 60 131q0 127 -164 223q-4 0 -10 6 q-63 -37 -104 -111q-40 -70 -40 -147z" />
<glyph unicode="&#x26;" horiz-adv-x="739" d="M98 160q0 122 279 538q-76 204 -76 295q0 119 96 221q97 103 217 103q60 0 94.5 -36.5t34.5 -96.5q0 -87 -102 -256q-10 -17 -51 -75.5t-113 -164.5q21 -67 51.5 -165t75.5 -234q21 35 40.5 71.5t41.5 75.5q23 17 53 17q45 0 45 -25q0 -27 -59 -119q-22 -36 -42.5 -65 t-39.5 -51q14 -27 33.5 -66t46.5 -90q-26 -12 -45 -12q-17 0 -84 108q-135 -136 -279 -136q-83 0 -147 34q-70 45 -70 129zM209 166q0 -121 110 -121q99 0 230 168q-23 48 -56.5 140.5t-76.5 238.5q-111 -135 -189 -342q-18 -53 -18 -84zM401 989q0 -74 43 -194 q197 290 197 379q0 92 -49 92q-12 0 -41 -17q-150 -98 -150 -260z" />
<glyph unicode="'" horiz-adv-x="311" d="M258 1083q0 26 51 109q52 86 74 102q13 15 47 15q41 0 41 -21l-20 -31q-10 -15 -25 -38.5t-35 -55.5q-8 -15 -16.5 -29t-18.5 -28q-22 -37 -38.5 -46t-26.5 -9q-33 0 -33 32z" />
<glyph unicode="(" horiz-adv-x="539" d="M172 498q0 102 18 204q33 191 134 349q108 178 266 249q28 15 55 15q55 0 55 -29q0 -6 -10 -12q-173 -114 -254 -232q-88 -127 -121 -319q-18 -105 -18 -205q0 -284 68 -493q-10 -25 -62 -25q-33 0 -49 16q-7 9 -29 97q-26 115 -39.5 211t-13.5 174z" />
<glyph unicode=")" horiz-adv-x="539" d="M72 27q0 6 10 12q174 118 252 231q88 118 123 318q18 94 18 203q0 288 -69 497q7 27 61 27q43 0 61 -39q9 -11 21 -76q26 -112 38.5 -205.5t12.5 -171.5q0 -263 -100 -467q-116 -245 -320 -342q-34 -14 -53 -14q-55 0 -55 27z" />
<glyph unicode="*" horiz-adv-x="793" d="M238 709q0 7 284 243q-175 187 -217 189q-35 5 -35 8q0 25 54 25q79 0 231 -140q4 19 10 45.5t15 61.5q2 22 5 54.5t9 80.5q6 33 31 33q43 0 43 -74q0 -33 -4.5 -75.5t-14.5 -94.5q27 29 60.5 60.5t78.5 66.5q21 8 46 8q45 0 45 -18q0 -39 -238 -234q209 -215 209 -243 q0 -19 -55 -19q-37 0 -103 72q-22 26 -43.5 53t-44.5 53q-10 -55 -23.5 -111t-29.5 -116q-14 -21 -43 -21q-41 0 -41 27q0 50 39 199q-191 -152 -232 -152q-36 0 -36 19z" />
<glyph unicode="+" horiz-adv-x="637" d="M180 631v6q5 13 19 14q25 5 52.5 8t59.5 3q23 1 41.5 1.5t32.5 0.5t24 0.5t15 1.5q6 39 18.5 86t28.5 102q14 20 45 20q33 0 33 -20q0 -30 -43 -180q88 12 119 12q61 0 61 -24q0 -34 -199 -41q-16 -60 -27 -106t-20 -79q-27 -8 -39 -8q-16 0 -16 21q0 46 27 165 q-60 -4 -103 -6t-67 -2q-62 0 -62 25z" />
<glyph unicode="," horiz-adv-x="334" d="M47 -105q16 20 37.5 47.5t50.5 65.5q4 8 19 33t41 70q25 24 47 24q45 0 45 -29q0 -33 -58 -115q-57 -84 -86 -107q-22 -16 -55 -16q-41 0 -41 20v7z" />
<glyph unicode="-" d="M176 621q22 22 146 22h55q17 0 37 -0.5t43 -1.5h137q55 0 55 -27q0 -30 -108 -30q-54 0 -135 6q-52 4 -85.5 5t-50.5 3q-93 5 -94 23z" />
<glyph unicode="." horiz-adv-x="322" d="M74 29q0 30 30 47q-6 1 -6 12q0 31 82 31q84 0 84 -60q0 -21 -24 -34q-46 -28 -101 -28q-65 0 -65 32z" />
<glyph unicode="/" horiz-adv-x="473" d="M12 63q0 39 217 463q66 132 132.5 258t132.5 260q17 45 44.5 102.5t65.5 129.5q7 12 23 12q65 0 65 -49q0 -62 -164 -373q-55 -100 -109 -196.5t-108 -196.5q-30 -55 -74 -137t-104 -197q-8 -18 -15 -36.5t-16 -34.5q-24 -52 -49 -52q-41 0 -41 47z" />
<glyph unicode="0" horiz-adv-x="791" d="M135 360q0 124 25 261q17 97 43 186t61 174q103 250 228 250q26 0 26 -17l-10 -10q-133 -91 -213 -379q-64 -228 -64 -450q0 -120 27 -199q40 -127 127 -127q42 0 100 49q94 76 168 258q31 76 53.5 150.5t36.5 152.5q9 48 13 97t4 98q0 286 -127 377q-53 35 -101 35 q-9 0 -22.5 -2t-32.5 -6q-17 -4 -31 -5.5t-24 -1.5q-43 0 -43 23q0 16 74 33q28 4 50.5 7t39.5 3q327 0 327 -449q0 -57 -5 -114.5t-15 -114.5q-39 -232 -145 -406q-137 -231 -326 -231q-244 0 -244 358z" />
<glyph unicode="1" horiz-adv-x="330" d="M150 16q0 4 3 21.5t7 46.5q10 61 29.5 192.5t48.5 339.5q43 332 90 529q-107 -107 -148 -107q-18 0 -18 13q0 21 98 125q16 16 30.5 34.5t31.5 34.5q22 23 38.5 36t26.5 17q17 5 29 5q39 0 39 -23q0 -9 -33 -160q-2 -8 -37 -199.5t-100 -572.5q-17 -106 -38.5 -190 t-43.5 -150q-23 -6 -41 -6q-12 0 -12 14z" />
<glyph unicode="2" horiz-adv-x="674" d="M53 119q0 39 37 112q45 88 133 205.5t226 268.5q288 321 288 485q0 37 -39 70q-13 10 -16 10q-141 0 -281 -137q-10 -11 -23 -26t-34 -36q-35 -29 -65 -29q-17 0 -17 19q0 39 47 92q68 74 172 119q115 47 205 47q170 0 170 -137q0 -121 -139 -314q-21 -28 -92.5 -113 t-194.5 -233q-179 -213 -225 -321q-19 -37 -19 -82q0 -58 56 -58q20 0 48.5 3.5t67.5 7.5q76 12 117 12q47 0 47 -27q0 -17 -49 -24q-81 -15 -139 -21t-96 -6q-185 0 -185 113z" />
<glyph unicode="3" horiz-adv-x="682" d="M-34 27q0 20 52 24q124 10 214.5 29.5t156.5 48.5q205 91 205 289q0 104 -76 162q-38 35 -137 67q-76 25 -76 43l4 6q31 52 137 131q67 54 108 87t56 49q80 80 80 155q0 51 -35 95q-35 42 -86 42q-71 0 -141 -51q-71 -53 -84 -123q-48 -14 -82 -14q-26 0 -26 18v13 q20 95 131 157q102 54 204 54q92 0 162 -43q82 -49 82 -133q0 -103 -145 -236q-58 -48 -113 -96t-113 -99q275 -80 275 -276q0 -223 -250 -338q-195 -86 -444 -86q-59 0 -59 25z" />
<glyph unicode="4" horiz-adv-x="764" d="M47 246q0 17 82 141q72 109 113 173.5t55 86.5q46 77 82.5 144t64.5 127q11 38 33.5 92.5t54.5 126.5q15 26 46 26q32 0 32 -16v-4q-17 -160 -166 -424q-34 -64 -95 -161.5t-154 -235.5q78 32 182 61t237 55q23 100 55 245t74 347q5 48 17 113.5t28 156.5q17 11 41 11 q33 0 33 -97q0 -48 -6.5 -105.5t-19.5 -127.5q-17 -88 -43.5 -215.5t-61.5 -304.5q72 14 113 21t55 7q39 0 39 -18q0 -25 -215 -57q-21 -106 -36 -188t-25 -148q0 -14 -11 -72q-7 -19 -49 -19q-53 0 -53 46q0 80 53 354q-72 -16 -124 -27.5t-83 -19.5q-57 -16 -106 -33.5 t-92 -38.5q-19 -10 -33 -17t-25 -13l-12 -9q-23 -14 -49 -14q-31 0 -31 31z" />
<glyph unicode="5" horiz-adv-x="733" d="M57 180q0 33 45 33q9 0 37 -43q29 -53 62 -82q49 -43 123 -43q154 0 249 174q78 145 78 313q0 139 -61 224q-60 86 -117 86q-35 0 -88 -47q-20 -20 -35 -41t-26 -41q-4 -8 -9 -16.5t-13 -19.5q-15 -20 -58 -20q-60 0 -60 19q0 3 66 194l45 140q11 35 21.5 69.5t21.5 69.5 q6 27 16.5 58t24.5 73q19 31 215 31q185 0 237 -37q-26 -23 -34 -23q-33 0 -90 6q-29 5 -51.5 7t-39.5 2q-16 0 -39.5 -1t-56.5 -3t-55.5 -3.5t-38.5 -1.5q-11 -94 -35.5 -193.5t-62.5 -211.5q67 43 147 43q142 0 221 -109q72 -96 72 -241q0 -217 -111 -373 q-127 -172 -333 -172q-103 0 -177 47q-90 58 -90 133z" />
<glyph unicode="6" horiz-adv-x="807" d="M100 283q0 192 176 530q48 94 121.5 215.5t173.5 280.5q27 6 52 6q16 0 16 -10q0 -19 -84 -164l-104 -178q-250 -445 -250 -672q0 -90 43 -160q51 -80 135 -80q103 0 219 117q110 111 129 217q6 39 6 82q0 145 -104 145q-70 0 -158 -69q-92 -68 -119 -68q-49 0 -49 23 l2 6q45 64 150 117q90 43 184 43q217 0 217 -195q0 -174 -156 -322q-154 -145 -329 -145q-132 0 -201.5 73.5t-69.5 207.5z" />
<glyph unicode="7" horiz-adv-x="600" d="M39 25q0 12 24 86q42 130 105 265.5t151 287.5q-8 -2 -25.5 -3.5t-43.5 -5.5q-23 -2 -39 -3t-31 -1q-67 0 -67 25q0 34 237 45q78 134 163 263t179 267q-325 -82 -493 -82q-19 9 -19 21q0 4 15 6q45 8 110.5 19.5t159.5 27.5q35 10 88 23.5t125 29.5q79 21 102 21 q47 0 47 -21q0 -8 -165 -266q-97 -153 -145.5 -228.5t-49.5 -76.5q81 4 115 6t28 2q49 0 49 -28q0 -32 -223 -33q-57 -97 -110 -203.5t-105 -230.5l-26 -62q-8 -19 -16.5 -40.5t-18.5 -47.5l-10 -29q-2 -7 -5.5 -15.5t-7.5 -18.5q-17 -23 -55 -23q-43 0 -43 23z" />
<glyph unicode="8" horiz-adv-x="782" d="M86 262q0 145 88 281q89 140 215 198q-143 38 -143 189q0 128 92 250q97 129 223 129q27 0 80 -29q16 -8 40 -22.5t54 -36.5q96 -84 96 -209q0 -201 -239 -264q100 -49 162 -143q63 -93 63 -204q0 -175 -139 -290q-134 -111 -309 -111q-126 0 -203 68q-80 69 -80 194z M203 279q0 -224 170 -224q127 0 225 104q98 107 98 236q0 53 -17 104.5t-48 96t-73 79t-91 52.5q-119 -65 -191 -188q-73 -127 -73 -260zM346 936q0 -158 139 -158q97 0 160 70q68 71 68 164q0 139 -148 229q-12 6 -37 25q-72 -28 -131 -140q-51 -101 -51 -190z" />
<glyph unicode="9" horiz-adv-x="745" d="M201 893q0 177 118 295q118 123 295 123q129 0 197 -80q-23 -12 -41 -12q-7 0 -68 24q-59 27 -96 27q-129 0 -217 -123q-86 -116 -86 -242q0 -94 43 -149q49 -66 135 -66q55 0 125 43q65 41 103 90l20 25q6 8 14 16.5t19 18.5q20 10 49 10q51 0 51 -25l-2 -2 q-1 -10 -11 -37t-30 -75q-150 -361 -228 -544.5t-85 -193.5q-22 -19 -64 -19q-45 0 -45 17v2q1 16 35 90l103 246q31 75 66 160.5t77 185.5q-101 -57 -215 -57q-119 0 -191 66q-71 68 -71 186z" />
<glyph unicode=":" horiz-adv-x="322" d="M74 29q0 30 30 47q-6 1 -6 12q0 31 82 31q84 0 84 -60q0 -21 -24 -34q-46 -28 -101 -28q-65 0 -65 32zM182 653q0 38 19 60q-4 4 -4 10q0 25 69 25q107 0 107 -66q0 -33 -56 -53q-36 -15 -81 -15q-54 0 -54 39z" />
<glyph unicode=";" horiz-adv-x="399" d="M47 -105q16 20 37.5 47.5t50.5 65.5q4 8 19 33t41 70q31 24 47 24q45 0 45 -29q0 -32 -58 -117q-56 -87 -86 -105q-22 -16 -55 -16q-41 0 -41 20v7zM285 653q0 52 39 66q-5 5 -5 12q0 23 56 23q33 0 54.5 -23.5t21.5 -56.5q0 -64 -93 -64q-73 0 -73 43z" />
<glyph unicode="&#x3c;" horiz-adv-x="629" d="M178 631q0 15 146 143q45 39 89 76t89 76q43 39 88 94q11 16 27 33t36 34q6 3 21 3q33 0 33 -19q0 -70 -172 -217l-123 -106q-72 -64 -113 -117q317 -302 317 -320q0 -22 -61 -22q-24 0 -45 10q-13 8 -57.5 50t-120.5 118q-154 154 -154 164z" />
<glyph unicode="=" horiz-adv-x="600" d="M162 541q0 18 65 18l72.5 5t106.5 9l100 7q22 2 40.5 3t35.5 1q49 0 49 -23q0 -16 -37 -22q-64 -15 -156.5 -21t-222.5 -6q-53 0 -53 29zM190 690q0 31 115 31q47 0 139 6q94 6 140 6q75 0 75 -24q0 -29 -231 -29q-7 0 -20 -1t-28.5 -2t-31.5 -2t-29 -1h-26 q-5 0 -13.5 -1t-18 -2t-18 -2t-14.5 -1q-39 0 -39 22z" />
<glyph unicode="&#x3e;" horiz-adv-x="600" d="M127 307q0 42 197 209q203 166 208 182q-8 15 -46.5 61.5t-110.5 127.5q-119 134 -119 186q0 29 47 29q39 0 59 -17q1 -1 4.5 -5.5t8.5 -12.5l35 -49q22 -31 49.5 -63.5t58.5 -67.5q139 -154 139 -185q0 -12 -8 -20q-66 -48 -158.5 -124t-216.5 -181q-28 -34 -94 -82 q-17 -6 -26 -6q-27 0 -27 18z" />
<glyph unicode="?" horiz-adv-x="858" d="M229 918q0 22 21 81q85 257 309 304q20 4 43 6t51 2q116 0 215 -47q113 -59 113 -172q0 -123 -125 -246q-61 -54 -122.5 -107.5t-125.5 -107.5q-140 -134 -168 -277q-2 -18 -3 -36.5t-3 -38.5q-11 -29 -63 -29q-37 0 -47.5 11t-10.5 44q0 158 146 307q66 58 132.5 115 t135.5 117q145 129 145 248q0 90 -81 135q-66 39 -160 39q-125 0 -225 -117q-83 -95 -123 -231q-20 -9 -41 -9q-13 0 -13 9zM260 41q0 39 57 65q1 27 48 27q69 0 69 -57q0 -74 -96 -74q-78 0 -78 39z" />
<glyph unicode="@" horiz-adv-x="1174" d="M176 571q0 255 209 482q211 223 467 223q180 0 291 -143q100 -127 100 -316q0 -153 -80 -278q-91 -142 -239 -142q-163 0 -179 183q-71 -74 -157 -74q-67 0 -107 45q-41 47 -41 111q0 122 133 249q136 127 261 127q54 0 92 -30q45 1 45 -27q0 -32 -45 -123 q-53 -104 -60 -143q-10 -53 -10 -101q0 -108 62 -159l26 -4q93 37 143 155q43 95 43 215q0 217 -133 334q-77 68 -159 68q-111 0 -238 -90q-69 -48 -123 -107.5t-94 -134.5q-88 -154 -88 -313q0 -217 145 -338q77 -66 209 -105q6 -2 62 -15.5t168 -39.5q36 -11 36 -23 q0 -26 -57 -26q-22 0 -54 5t-77 15q-306 67 -426 193q-125 131 -125 327zM547 664q0 -72 47 -107q46 25 98 92q27 31 45.5 59.5t32.5 55.5q14 37 37.5 92t56.5 131q-18 12 -37 12q-14 0 -45 -14q-81 -35 -157 -135q-78 -102 -78 -186z" />
<glyph unicode="A" horiz-adv-x="762" d="M-308 -1q0 17 22 17h35q96 0 168 45q97 60 193.5 169t196.5 278q23 35 94.5 168t196.5 366q112 220 160 246q28 19 65 19q35 0 35 -21l-10 -35q-5 -17 -12.5 -43.5t-18.5 -62.5q-39 -136 -66.5 -305t-48.5 -381q289 172 338 172q43 0 43 -23q0 -6 -8 -8q-63 -35 -156 -90 t-223 -131q-8 -82 -11 -145.5t-5 -108.5q0 -29 -2 -60.5t-6 -67.5q-11 -23 -58 -23q-53 0 -53 30q0 26 4.5 99.5t14.5 199.5q-35 -27 -68 -53.5t-68 -52.5q-102 -78 -141 -78q-29 0 -29 16v4q42 48 118.5 110t197.5 138q16 183 38.5 335t51.5 288l-221 -412 q-79 -140 -155.5 -244t-151.5 -176q-194 -191 -391 -191q-29 0 -69 8v4z" />
<glyph unicode="B" horiz-adv-x="1049" d="M94 150q0 73 127 151q48 29 97 50.5t100 35.5q27 8 39 8q16 0 32 -10q70 165 70 451q0 28 -1 61t-3 72q0 11 -6 61q-2 17 -3 32t-1 28q0 17 1.5 28.5t7.5 18t17 9.5t29 3q29 0 39 -16q20 -35 20 -308q0 -493 -239 -643q-53 -32 -76 -32q-22 0 -35 10q123 102 168 194 q-266 -113 -266 -200q0 -48 72 -78q66 -23 116 -23q187 0 375 123q211 136 211 313q0 154 -244 226q-36 7 -36 24q0 11 86 76q54 42 92.5 76.5t64.5 60.5q86 89 86 160q0 69 -65 113q-62 35 -133 35q-163 0 -344 -103q-209 -117 -209 -266q0 -113 145 -180q6 -11 6 -17 q0 -22 -49 -22q-21 0 -33 4q-36 12 -68.5 33t-56.5 49t-38.5 61t-14.5 68q0 180 260 309q218 113 420 113q109 0 182 -43q107 -62 107 -150q0 -86 -117 -203q-14 -12 -61.5 -51t-128.5 -108q258 -66 258 -265q0 -86 -54 -170q-96 -146 -288 -231q-174 -82 -365 -82 q-88 0 -178 29q-115 40 -115 115z" />
<glyph unicode="C" horiz-adv-x="776" d="M98 305q0 177 92 414q99 247 248 405q172 183 357 183q55 0 55 -45q0 -82 -117 -256q-115 -175 -115 -242q0 -39 31 -57q33 -20 33 -25q0 -23 -61 -23q-17 0 -43 13q-70 25 -70 88q0 76 117 246q118 168 116 233v12q-96 -29 -186 -125q-146 -152 -246 -378 q-102 -240 -102 -439q0 -262 172 -262q115 0 272 94q174 105 174 209q37 15 68 15q25 0 25 -23q0 -103 -154 -203q-130 -85 -248 -116q-77 -21 -145 -21q-273 0 -273 303z" />
<glyph unicode="D" horiz-adv-x="952" d="M123 168q0 88 104 246q5 1 9.5 1.5t9.5 0.5h22q15 0 15 -10q0 -6 -27 -52q-51 -101 -51 -178q0 -98 108 -123q29 109 59.5 215t59.5 215q35 132 59.5 238t40.5 197q7 51 14 102.5t15 105.5q7 21 47 21q43 0 43 -29q0 -56 -33 -231q-16 -94 -41.5 -198.5t-60.5 -225.5 l-61 -209q-16 -52 -31.5 -103.5t-32.5 -105.5h5q251 0 397 215q131 188 131 453q0 154 -45 282q-53 156 -162 228q-58 37 -113 37q-80 0 -164 -97q-65 -74 -106 -172q-4 -14 -11.5 -29.5t-17.5 -35.5q-18 -23 -55 -23q-41 0 -41 23q0 10 16 43q43 94 64 125q35 65 84 110 q107 107 241 107q40 0 82 -11q170 -51 260 -225q74 -146 74 -342q0 -311 -164 -514q-177 -213 -476 -213h-11q-8 -25 -19.5 -57.5t-25.5 -74.5q-23 -6 -41 -6q-14 0 -14 18q0 17 24 124q-180 25 -180 158z" />
<glyph unicode="E" horiz-adv-x="686" d="M2 166q0 123 309 285q-59 23 -59 100q0 62 39 154q205 481 442 598q21 12 45 12q86 0 86 -160q0 -178 -141 -340q-26 -6 -41 -6q-12 0 -12 8v4q106 175 106 334q0 52 -18 90q-204 -150 -350 -495q-54 -129 -54 -201q0 -51 27 -60q2 2 37 13q22 8 39 8q45 0 45 -23 q0 -10 -15 -16l-227 -123q-158 -98 -158 -178q0 -87 224 -107q75 -4 148.5 -7t148.5 -7q32 -6 32 -22q0 -23 -88 -23q-565 0 -565 162z" />
<glyph unicode="F" horiz-adv-x="649" d="M-44 324q0 6 27 20q37 23 96 56.5t144 76.5q50 444 295 752q19 22 32 36.5t21 20.5q35 23 76 23q207 0 207 -365q0 -45 -6 -108q-49 -17 -74 -17q-31 0 -31 33q0 14 3 43q2 14 3 25t1 18q0 43 -4.5 86t-14.5 86q-28 116 -78 145q-261 -285 -313 -720q236 106 342 106 q49 0 49 -27q0 -9 -29 -20q-57 -16 -137 -47t-192 -74l-41 -20q-4 -45 -6 -85.5t-2 -82.5q0 -97 10 -197l31 -209q0 -25 -54 -25q-29 0 -45 16q-26 26 -41 187q-8 66 -11 119t-3 96q0 37 6 121q-27 -16 -53.5 -30.5t-52.5 -30.5q-68 -35 -114 -35q-41 0 -41 27z" />
<glyph unicode="G" horiz-adv-x="834" d="M127 406q0 24 2.5 50t7.5 54q45 253 258 510q229 289 465 289q154 0 154 -101q0 -41 -25 -106q-24 -71 -47 -91q-23 -18 -49 -18q-47 0 -47 27l2 6q2 4 5 10.5t7 14.5q37 75 37 155q0 49 -47 49q-150 0 -342 -241q-76 -100 -132.5 -194.5t-94.5 -188.5q-45 -110 -45 -221 t47 -222q58 -133 159 -133q22 0 35 4q72 20 111 56l80 92q41 152 41 194q0 117 -74 117q-22 0 -62 -6q-41 -6 -61 -6q-55 0 -55 24q0 22 82 35q30 4 56 7t48 3q188 0 188 -163q0 -66 -47 -234q-45 -153 -45 -236q0 -119 64 -162q8 -4 16 -9.5t17 -9.5q24 -17 24 -24 q0 -27 -57 -27q-4 0 -11.5 1t-17.5 3q-162 45 -162 213q0 63 19 130q-82 -49 -193 -49q-153 0 -237 127q-74 107 -74 271z" />
<glyph unicode="H" horiz-adv-x="772" d="M18 365q0 18 101 81q37 23 67.5 41.5t55.5 30.5q25 137 37 243.5t12 184.5q0 54 -6 108t-19 109q-8 35 -11 60.5t-3 40.5q23 10 51 10q21 0 41 -39q51 -89 51 -293q0 -81 -9 -172.5t-26 -200.5q75 29 140 50.5t123 31.5q18 88 43.5 216.5t58.5 306.5q4 26 11 65t22 90 q48 17 69 17q25 0 25 -29q0 -19 -5 -56.5t-16 -97.5q-15 -82 -38 -204.5t-54 -292.5q7 1 14 1.5t15 0.5h37q156 0 156 -41q0 -27 -58 -27q-12 0 -30.5 1.5t-38 3.5t-38 3.5t-30.5 1.5q-14 0 -23 -0.5t-14 -1.5q-16 -97 -26.5 -196.5t-16.5 -202.5q-6 -119 -6 -113 q0 -5 0.5 -12.5t1.5 -17.5q1 -11 1.5 -18.5t0.5 -12.5q0 -38 -55 -38q-38 0 -51 24q-13 25 -13 112q0 88 12.5 199t34.5 256q-127 -32 -266 -99q-96 -500 -115 -525q-20 -26 -57 -26q-45 0 -45 34v15q1 10 24 118t68 317q-22 -14 -45 -32.5t-49 -41.5h-35q-74 0 -74 17z" />
<glyph unicode="I" horiz-adv-x="279" d="M96 10q0 17 19 80q8 29 17 71t24 99q8 48 15 135t13 217q6 121 15.5 212t23.5 155q39 193 144 317q24 9 55 9q14 0 14 -11q0 -13 -30 -80q-21 -38 -30 -58.5t-11 -25.5q-16 -37 -28 -82.5t-22 -99.5q-10 -60 -16 -148.5t-10 -209.5q-1 -121 -8 -209.5t-17 -149.5 q-33 -190 -71 -225q-23 -17 -52 -17q-45 0 -45 21z" />
<glyph unicode="J" horiz-adv-x="586" d="M16 188q11 23 66 23q12 0 20 -2t14.5 -6.5t13.5 -12.5t17 -20q94 -117 156 -117q55 0 115 92q49 73 61 144q8 40 8 96q0 21 -3 60.5t-7 89t-7 103.5t-3 105q0 404 154 543q31 31 63 31q18 0 18 -14q0 -7 -26 -48l-25 -36q-4 -7 -6.5 -10.5t-3.5 -4.5q-78 -140 -78 -430 q0 -76 6 -143l21 -197l6 -48t2 -15q0 -23 -2 -47.5t-6 -49.5q-23 -113 -98 -188q-84 -84 -193 -84q-80 0 -170 57q-91 59 -113 129z" />
<glyph unicode="K" horiz-adv-x="784" d="M47 20q0 17 43 109l55 117q172 401 172 694q0 199 -73 352q55 23 82 23q10 0 20 -10q44 -47 70 -193q15 -94 15 -173q0 -17 -1 -34q39 60 122 159t212 241q33 31 33 36q16 15 47 15q30 0 41 -17q-4 -8 -26.5 -30t-61.5 -64q-106 -109 -187.5 -210t-142.5 -204 q135 -120 225 -276q103 -181 103 -334q0 -185 -144 -306q-106 -94 -207 -94q-61 0 -86 39q10 4 23 6l25 4q20 -10 40 -10q31 0 93 47q149 116 149 302q0 242 -272 547q-10 -113 -62.5 -271.5t-150.5 -367.5q-10 -23 -23.5 -48.5t-29.5 -54.5q-23 -17 -54 -17q-49 0 -49 23z " />
<glyph unicode="L" horiz-adv-x="635" d="M98 242q0 122 97 407q53 154 79.5 233t28.5 87q59 193 74 327q33 13 61 13q23 0 23 -33q0 -25 -4 -60t-13 -83q-12 -64 -39.5 -158.5t-70.5 -226.5q-85 -250 -111 -386q-12 -68 -12 -120q0 -191 176 -191q23 0 54 4.5t71 14.5q42 10 73 15t54 5q49 0 49 -22 q0 -12 -29 -23q-132 -48 -282 -48q-279 0 -279 245z" />
<glyph unicode="M" horiz-adv-x="997" d="M41 14q0 15 39 95q7 13 13.5 26t12.5 27l25 53q66 155 116 326t85 370q8 64 21.5 155t33.5 212q57 18 88 18q14 0 17 -8q73 -121 73 -549v-71q0 -19 -0.5 -45t-1.5 -53.5t-1.5 -54t-0.5 -46.5v-70q0 -66 2 -119t6 -96q58 152 113 297.5t113 296.5q186 497 211 516 q31 25 94 25q41 0 41 -74q0 -73 -12 -177t-37 -241l-52 -288q-4 -23 -18 -96t-41 -203q-27 -133 -40 -196t-13 -66q-23 -20 -47 -20q-35 0 -35 23v6q0 2 0.5 5t1.5 8q26 142 65 351t93 493q20 118 34 209.5t21 160.5q-21 -49 -97.5 -250.5t-211.5 -557.5 q-142 -373 -154 -386q-23 -20 -55 -20q-30 0 -41 23q-2 4 -4 17t-4 34q-13 106 -19 217.5t-6 232.5v64q0 18 0.5 42t1.5 48.5t1.5 47.5t0.5 40v65q0 94 -5.5 170.5t-16.5 139.5q-5 -57 -16 -132t-29 -178q-33 -190 -90.5 -372.5t-139.5 -370.5q-28 -62 -31 -65 q-22 -28 -57 -28q-47 0 -47 19z" />
<glyph unicode="N" horiz-adv-x="750" d="M86 37q0 34 12 102q17 94 42.5 226t60.5 315q19 103 32.5 208t22.5 214q4 51 6 91t2 69q0 36 8.5 48.5t42.5 12.5t50 -31q10 -18 18 -42.5t16 -57.5q27 -92 27 -102q2 -9 36.5 -111t100.5 -307q26 -78 44.5 -140.5t29.5 -111.5q35 264 93 476t144 376q17 34 29 54.5 t19 27.5q14 14 47 14q43 0 45 -20q-6 2 -66 -134q-63 -139 -111.5 -300.5t-82.5 -358.5q-11 -66 -25 -162.5t-35 -232.5l-5 -37.5t-7 -50.5q-11 -66 -57 -66q-33 0 -33 57q0 8 0.5 15t1.5 12q-10 27 -10 70q-2 35 -3 51t-1 18q-2 28 -10 66.5t-21 89.5q-16 66 -38.5 141.5 t-53.5 163.5q-27 76 -52.5 149.5t-52.5 149.5q-10 -82 -41.5 -250t-89.5 -426q-8 -42 -21.5 -101.5t-31.5 -137.5q-12 -44 -18 -54q-15 -20 -52 -20q-12 0 -12 37z" />
<glyph unicode="O" horiz-adv-x="860" d="M121 307q0 317 180 721q-18 -6 -31 -6q-49 0 -49 25q0 12 33 57q151 213 356 213q183 0 267 -154q67 -121 67 -319q0 -289 -106 -500q-124 -257 -371 -328q-57 -16 -117 -16q-229 0 -229 307zM217 322q0 -275 152 -275q22 0 94 27q189 71 289 321q79 198 79 441 q0 347 -169 417q-25 13 -56 13q-67 0 -139 -60q-54 -91 -97.5 -195.5t-78.5 -232.5q-74 -263 -74 -456z" />
<glyph unicode="P" horiz-adv-x="850" d="M145 989q0 320 281 320q289 0 465 -275q86 -134 86 -260q0 -170 -150 -264q-128 -78 -305 -78q-34 0 -65 3.5t-60 10.5q-74 -319 -172 -436q-10 -2 -19.5 -3t-17.5 -1q-16 0 -16 8q0 15 49 144q58 155 90 317q-93 43 -137 135q31 11 41 11q6 0 14 -5q31 -41 93 -98 q16 94 30.5 208.5t26.5 256.5q6 76 18 186q9 21 45 21q31 0 38 -11.5t7 -33.5q0 -35 -5 -98.5t-15 -157.5q-14 -137 -29.5 -237.5t-31.5 -172.5q49 -12 106 -12q156 0 256 70q117 79 117 227q0 174 -146 338t-317 164q-98 0 -143 -105q-35 -84 -35 -188q0 -35 -49 -35 q-50 0 -50 51z" />
<glyph unicode="Q" horiz-adv-x="858" d="M117 307q0 314 180 719q-17 -6 -31 -6q-45 0 -45 24q0 11 41 70q144 203 348 203q330 0 330 -475q0 -269 -96 -480q-116 -249 -340 -333q39 -124 168 -173q33 -11 93.5 -23t154.5 -25q47 -6 47 -26q0 -21 -70 -21q-403 0 -491 241q-5 -1 -12 -1.5t-15 -0.5h-33 q-229 0 -229 307zM215 324q0 -278 147 -279l33 6q-4 13 -4 58q0 20 1 36.5t3 30.5q3 13 10.5 36t18.5 58q19 76 35 76q65 0 65 -45q0 -22 -12 -55q-8 -21 -11 -34t-5 -22q-7 -24 -7 -59q0 -33 3 -43q174 91 264 320q73 186 73 419q0 348 -172 424q-29 15 -57 15 q-65 0 -139 -62q-51 -88 -95 -192t-79 -232q-72 -258 -72 -456z" />
<glyph unicode="R" horiz-adv-x="895" d="M145 999q0 63 109 154q45 39 87 67.5t81 49.5q97 49 229 49q163 0 267 -72q118 -82 118 -239q0 -221 -176 -373q-164 -141 -391 -152q90 -264 217 -403q48 -51 98.5 -89t104.5 -66q42 -20 102 -42.5t142 -45.5q34 -10 34 -22q0 -23 -67 -23q-237 0 -418 156 q-165 131 -266 365q-10 -49 -28.5 -119.5t-45.5 -170.5q-23 -9 -45 -9q-14 0 -14 25v10q0 4 0.5 9t1.5 10q14 66 33.5 163.5t46.5 233.5q-7 9 -5 22q-71 8 -71 29t55 21q11 0 19.5 -0.5t13.5 -1.5q10 69 22.5 168t26.5 237q0 39 2 82.5t6 91.5q7 19 41 19q32 0 43 -29 q6 -12 6 -60q0 -212 -61 -514q191 10 330 146q141 136 141 323q0 123 -77 200t-202 77q-90 0 -137 -19q-36 -11 -80 -38t-96 -72q-121 -96 -121 -158q0 -11 5.5 -18.5t14.5 -13t20 -9t22 -6.5q-9 -27 -43 -27q-32 0 -64 26q-31 25 -31 58z" />
<glyph unicode="S" horiz-adv-x="836" d="M119 68q0 20 69 20q48 0 131 -15q42 -7 75.5 -10.5t58.5 -3.5q301 0 301 205q0 133 -125 285q-51 60 -111.5 112.5t-132.5 100.5l-61 41q-16 10 -31.5 20t-32.5 21q-74 57 -74 121q0 111 164 233q158 113 275 113q51 0 67 -31q-21 -10 -39 -10q-4 0 -14 3t-16 3 q-23 0 -84 -29q-83 -40 -160 -114q-90 -92 -90 -164q0 -52 90 -113q115 -78 188.5 -134t112.5 -91q154 -148 184 -318q2 -16 3 -29.5t1 -27.5q0 -248 -413 -248q-39 0 -84.5 3t-102.5 12q-149 14 -149 45z" />
<glyph unicode="T" horiz-adv-x="762" d="M117 1251q0 17 147 29q227 16 415.5 25.5t350.5 9.5q41 0 41 -21q0 -19 -49 -20q-29 -4 -123.5 -7t-263.5 -7q2 -10 3 -23t1 -29q0 -53 -12 -148t-37 -235l-62 -342q-4 -32 -17 -111.5t-36 -215.5q-4 -29 -9 -62t-13 -71q-11 -23 -56 -23q-53 0 -53 35q0 41 43 280 q19 97 45.5 237t61.5 333l43 276q1 28 12 96q-23 -2 -73 -5t-128 -7q-63 -4 -113.5 -7t-89.5 -3q-28 0 -28 16z" />
<glyph unicode="U" horiz-adv-x="854" d="M139 403q0 137 51 322q23 81 44.5 160t44.5 157q7 42 21 104.5t34 147.5q18 9 43 9q22 0 22 -70q0 -28 -2 -53.5t-6 -49.5q-4 -26 -25 -112.5t-63 -243.5q-55 -219 -55 -358q0 -96 26 -174q70 -193 193 -193q96 0 186 121q69 93 101 244q10 66 20 130t21 130q4 28 19 121 t42 258q4 34 13.5 86.5t19.5 122.5q17 65 69 65t52 -41q0 -29 -9 -103t-28 -192q-23 -150 -44.5 -277.5t-41.5 -248.5q-66 -351 -297 -445q-69 -23 -127 -23q-100 0 -176.5 57t-116.5 157q-31 78 -31 192z" />
<glyph unicode="V" horiz-adv-x="852" d="M221 1311q21 12 41 12q5 0 10 -6q116 -161 142 -625q7 -191 12 -594q10 33 34.5 92.5t59.5 147.5q102 241 206 456t218 412q11 20 26.5 45t35.5 54q19 18 47 18q44 0 43 -27v-2q-21 -34 -50 -85.5t-71 -121.5q-91 -159 -184 -351t-193 -425q-20 -51 -55 -124.5 t-84 -176.5q-28 -5 -48 -7.5t-32 -2.5q-40 0 -47 27q0 1 -1 15l-3 42q-2 159 -4 310.5t-5 310.5q-8 186 -32 335.5t-66 270.5z" />
<glyph unicode="W" horiz-adv-x="1169" d="M186 713q0 189 14 339t42 265q22 8 45 8q16 0 16 -37q0 -10 -1 -25.5t-3 -37.5q-8 -106 -12 -205t-4 -199q0 -112 6 -256t16 -334q39 100 90 209.5t117 239.5q60 112 117 217.5t114 216.5q58 111 88 111q23 0 39 -19q9 -8 15 -282q2 -82 3 -162t3 -162q4 -132 15.5 -241 t31.5 -203q34 131 106 341.5t183 506.5q18 54 48.5 129t72.5 178q19 6 38 6q15 0 15 -10q0 -43 -105 -332q-82 -227 -145 -412.5t-111 -341.5q-8 -24 -18 -60.5t-23 -84.5l-8 -30t-8 -32q-13 -19 -59 -19q-24 0 -19 21q-79 168 -98 512q-2 52 -12 537q-139 -266 -234.5 -467 t-150.5 -346q-15 -46 -35.5 -99.5t-46.5 -115.5q-28 -37 -62 -37q-36 0 -43 25q-2 10 -4 32.5t-6 61.5q-14 189 -20.5 334t-6.5 260z" />
<glyph unicode="X" horiz-adv-x="762" d="M63 72q0 108 117 323q87 155 195 299q-61 264 -99 547l-6 51q0 23 56 23q25 0 41 -19q9 -7 94 -487q22 29 95.5 114.5t201.5 235.5q46 58 125 137q19 15 43 15q43 0 43 -17q0 -14 -160 -192q-57 -66 -137.5 -162t-192.5 -229q33 -154 69.5 -283.5t78.5 -241.5 q133 -358 278 -423q7 -2 23.5 -5t44.5 -5q46 -5 53 -14q-35 -29 -94 -29q-197 0 -344 310q-113 234 -193 574q-42 -57 -82 -122t-82 -140q-106 -193 -106 -275q0 -26 10 -49q-22 -8 -45 -8q-27 0 -27 72z" />
<glyph unicode="Y" horiz-adv-x="784" d="M84 -210q43 64 104.5 159t143.5 231q22 39 54 105.5t77 160.5q-31 143 -86 322t-133 406q-25 69 -25 104q0 15 1.5 22.5t7 11.5t14.5 4.5t24 0.5q16 0 72 -158q27 -72 53.5 -141t52.5 -141q31 -87 52.5 -158t33.5 -131q60 121 111.5 217.5t97.5 169.5q60 94 129 178.5 t148 165.5q12 2 22.5 3t18.5 1q14 0 12 -8q-73 -91 -137.5 -186.5t-124.5 -198.5q-39 -70 -86 -164t-105 -221q-66 -145 -110.5 -240t-73.5 -149q-91 -174 -152 -268.5t-92 -111.5q-26 -15 -59 -15q-50 0 -45 23v6z" />
<glyph unicode="Z" horiz-adv-x="809" d="M37 29q0 21 84 155q20 29 94.5 148.5t206.5 331.5q-198 -64 -211 -64q-39 0 -39 10q0 29 283 107q99 154 186.5 282t169.5 236q-203 -57 -301 -57q-41 0 -92 12q-70 13 -70 41q0 18 43 18q18 0 29 -12q37 -12 92 -12q71 0 193 45q61 22 107 33.5t79 13.5h4h7q75 0 75 -21 q0 -2 -8 -10q-102 -134 -192 -265t-177 -267q154 39 197 39q37 0 37 -21q0 -5 -29 -16q-42 -8 -100 -21.5t-136 -32.5l-229 -364q-64 -89 -172 -283h43q48 0 113.5 2t156.5 6q91 5 157.5 7t111.5 2q51 0 51 -27q0 -25 -201 -31q-189 -8 -299.5 -11t-150.5 -3q-113 0 -113 29 z" />
<glyph unicode="[" horiz-adv-x="475" d="M90 33l35 143q23 94 44.5 228.5t41.5 318.5q20 194 40 329t40 220q7 43 59 43q12 0 29 -6q100 18 196 18q64 0 64 -22q0 -17 -43 -23q-35 -2 -85 -6t-116 -10q-14 -149 -34.5 -304.5t-49.5 -330.5q-40 -233 -78 -380.5t-73 -217.5q63 8 113.5 11t88.5 3q50 0 50 -20 q0 -27 -144 -27q-13 0 -33 1t-41.5 2t-42 2t-34.5 1q-27 0 -27 27z" />
<glyph unicode="\" horiz-adv-x="473" d="M213 1178q0 38 4 53q12 57 84 57q12 0 18 -12q13 -30 19 -113q4 -28 6 -59t4 -60q23 -131 52.5 -321t68.5 -453q18 -128 18 -178q0 -76 -61 -76q-26 0 -33 52q-2 16 -3 34.5t-3 36.5q-10 72 -27.5 169t-44.5 227q-28 144 -45.5 240.5t-27.5 154.5q-15 85 -22 145.5 t-7 102.5z" />
<glyph unicode="]" horiz-adv-x="473" d="M68 6q0 17 41 23q34 4 84.5 8t119.5 12q15 156 35.5 310.5t46.5 320.5q73 455 152 598q-129 -12 -182 -12q-72 0 -72 20q0 25 123 25h35q22 0 50.5 -2t49.5 -2h33q26 0 26 -27q0 -21 -28 -143q-17 -72 -31 -138.5t-25 -132.5t-24.5 -166t-30.5 -241q-31 -270 -55 -406 q-8 -35 -18 -44q-9 -9 -42 -9q-15 0 -28 6q-58 -9 -108 -14t-95 -5q-57 0 -57 19z" />
<glyph unicode="^" horiz-adv-x="692" d="M227 907v4q9 13 43.5 55.5t100.5 114.5q16 27 44.5 61.5t67.5 82.5q20 20 45 20q31 0 54 -14q42 -22 118 -133q68 -95 88 -160l3 -6q-8 -21 -60 -21q-12 0 -21.5 1t-19 8t-21 23t-28.5 46q-11 22 -23 42l-24 40q-10 16 -26.5 35.5t-39.5 46.5q-55 -60 -117.5 -121 t-131.5 -127q-19 -8 -31 -8q-21 0 -21 10z" />
<glyph unicode="_" horiz-adv-x="887" d="M-15 -108l15 108h887l-19 -108h-883z" />
<glyph unicode="`" horiz-adv-x="444" d="M287 1243q0 27 55 27q10 0 25 -4q34 -11 90 -60q10 -8 19.5 -16.5t19.5 -18.5l39 -38q36 -32 36 -41q0 -29 -57 -29q-55 0 -119 67q-74 80 -102 95q-6 7 -6 18z" />
<glyph unicode="a" horiz-adv-x="641" d="M68 160q0 30 16 63q52 121 180 211q125 92 254 92q28 0 57 -8q15 43 15 92q0 138 -90 138q-55 0 -125 -54q-42 -30 -53 -47q-11 -14 -19 -27.5t-16 -27.5q-11 -12 -27 -12q-35 0 -35 32q0 73 109 131q94 52 176 52q192 0 192 -191q0 -62 -47 -209q-47 -146 -47 -205 q0 -65 41 -127q39 -55 43 -55q-1 -19 -59 -19q-73 0 -119 70q-98 -59 -211 -59q-86 0 -153 37q-82 43 -82 123zM188 158q0 -109 129 -109q83 0 177 64q-7 21 -7 53q0 61 72 295q-29 4 -42 6.5t-9 3.5q-94 -1 -205 -111q-115 -109 -115 -202z" />
<glyph unicode="b" horiz-adv-x="741" d="M51 8q0 10 62 193q45 133 75.5 311t51.5 414q2 57 10 138.5t22 190.5q9 56 62 56q57 0 57 -45q0 -52 -18 -238q-6 -57 -15.5 -141t-23.5 -199q110 98 225 98q55 0 100.5 -20.5t77 -57t49 -86t17.5 -106.5q0 -17 -2 -34t-6 -36q-32 -181 -144 -305q-127 -139 -297 -139 q-117 0 -184 72q-38 -77 -96 -77q-23 0 -23 11zM221 201q17 -35 30 -59.5t21 -35.5q37 -49 93 -49q45 0 104 41q93 66 155 186q62 119 62 236q0 72 -33 137q-39 82 -100 82q-117 0 -244 -207q-18 -100 -39.5 -181t-48.5 -150z" />
<glyph unicode="c" horiz-adv-x="565" d="M92 254q0 231 150 408q103 124 217 124q81 0 121 -67q32 -59 32 -141q0 -142 -59 -142q-25 0 -25 23v26q1 5 1.5 9.5t0.5 7.5v10q0 197 -79 227q-37 -10 -80 -59q-158 -176 -158 -418q0 -209 111 -209q49 0 135 56q82 57 123 57q59 0 59 -19q0 -4 -10 -14 q-57 -54 -146 -94q-90 -39 -168 -39q-225 0 -225 254z" />
<glyph unicode="d" horiz-adv-x="659" d="M82 221q0 203 164 385q160 179 350 179q11 0 22 -1q11 48 27.5 116.5t36.5 162.5q2 14 5 30t7 35l23 95q25 94 78 94q28 0 28 -39q0 -8 -6 -35q-4 -26 -27.5 -145t-66.5 -334q98 -41 98 -119q0 -47 -35 -47q-17 0 -24 12q-8 14 -22 34t-33 46q-13 -63 -29 -156t-37 -223 q-2 -42 -6 -103t-10 -149q-2 -20 -5 -44t-8 -55q-6 -25 -53 -25q-44 0 -55 29q-6 15 -4 63q-89 -27 -176 -27q-109 0 -174 53q-68 59 -68 168zM209 227q0 -174 127 -174q93 0 164 15q4 66 13 143.5t26 171.5q18 106 34.5 194t32.5 160h-6q-143 0 -272 -186 q-119 -176 -119 -324z" />
<glyph unicode="e" d="M68 160q0 28 6 69q31 187 135 351q128 206 285 206q39 0 72.5 -11t58 -32t38 -52t13.5 -70q0 -121 -98 -246q-109 -133 -224 -133q-24 0 -51 10q-37 7 -37 29q0 18 51 18q24 0 43 -10q73 19 138 137q59 110 59 192q0 95 -72 113q-105 -41 -202 -246q-90 -192 -90 -317 q0 -113 61 -113q70 0 190 51q119 52 187 52q47 0 47 -25q0 -9 -19 -16q-231 -117 -407 -117q-184 0 -184 160z" />
<glyph unicode="f" horiz-adv-x="582" d="M41 455q0 32 213 116v47q0 143 27 283q40 225 165 330q101 80 213 80q169 0 207 -168v-6q0 -25 -57 -25q-46 0 -78 74q-29 74 -80 74q-102 0 -186 -158q-29 -58 -50.5 -119t-33.5 -131q-10 -55 -15.5 -116.5t-5.5 -127.5q99 27 179 27q127 0 127 -31q0 -24 -76 -24 q-10 0 -29.5 1t-28.5 1q-66 0 -170 -29v-23q0 -14 3 -41v-61q0 -90 -6 -168t-17 -147q-18 -112 -70 -204q-69 -137 -149 -137q-21 0 -27 10l19 18q10 10 24 27q123 142 123 474q0 4 -2 56.5t-6 158.5q-162 -78 -184 -78q-29 0 -29 17z" />
<glyph unicode="g" horiz-adv-x="682" d="M6 -230q0 128 174 184q-143 33 -143 89q0 43 84 90q68 39 125 51q-111 76 -111 217q0 17 1 33.5t3 32.5q15 75 45 134t75 100t105 63t134 22q152 0 180 -61q5 1 10.5 1.5t11.5 0.5h29q53 0 53 -25q0 -18 -71 -30q-67 -7 -78 -49q-2 -10 -2 -23q0 -32 35 -125 q36 -84 36 -135q0 -104 -79 -162q-74 -53 -177 -53q-73 0 -133 25l-77 -41q-50 -26 -66 -56v-14q30 -30 156 -58q78 -17 125 -30t67 -24q96 -41 96 -104q0 -97 -137 -150q-99 -34 -221 -34q-250 0 -250 131zM139 -224q0 -84 123 -84q70 0 133 28q86 32 86 88q0 78 -168 111 h-4l4 2h-8q-53 0 -110 -45q-56 -47 -56 -100zM252 410q0 -148 127 -209q37 -19 78 -19q53 0 86 51q30 46 30 103q0 51 -36 135q-35 90 -35 123q0 87 104 119q-32 30 -98 30q-111 0 -189 -114q-67 -103 -67 -219z" />
<glyph unicode="h" horiz-adv-x="657" d="M80 16q0 47 20 150l31 153q12 70 26.5 173t30.5 247q17 142 31 245t25 173q4 29 13 62.5t19 72.5q15 25 56 25q47 0 47 -37q0 -10 -4 -27l-13 -69q-14 -78 -31.5 -189.5t-37.5 -267.5q100 88 219 88q98 0 157 -59q60 -59 60 -152q0 -92 -76 -278q-75 -189 -75 -271 q0 -54 32 -107q35 -53 35 -49q0 -23 -65 -23q-60 0 -93 55q-30 45 -30 104q0 92 78 289q79 188 79 280q0 70 -26 111q-35 53 -96 53q-96 0 -218 -164q-75 -552 -141 -604q-13 -5 -24 -5q-29 0 -29 21z" />
<glyph unicode="i" horiz-adv-x="254" d="M78 35q0 6 1 16t3 25q18 69 43 171t53 247q1 9 7.5 55.5t17.5 134.5q2 28 12 80q10 22 51 22q58 0 58 -57q0 -35 -4.5 -73.5t-12.5 -86.5q-8 -45 -27.5 -119.5t-48.5 -183.5q-68 -248 -92 -266q-10 -7 -30 -7q-31 0 -31 42zM229 969q0 29 31 51q-4 8 -4 18q0 27 49 27 q80 0 80 -66q0 -16 -7.5 -30.5t-20 -26t-28.5 -18t-34 -6.5q-66 0 -66 51z" />
<glyph unicode="j" horiz-adv-x="526" d="M25 -149q0 19 0.5 31t1.5 17q6 24 32 24q27 0 29 -20v-39q0 -47 29 -103q33 -61 76 -61q24 0 55 22q94 67 112 275q1 6 7.5 95t17.5 266q8 112 17.5 201.5t23.5 161.5q12 70 76 70q49 0 49 -48q0 -8 -5 -46t-16 -107q-17 -118 -27.5 -207.5t-15.5 -155.5 q-12 -230 -18 -261q-23 -164 -98 -235q-74 -72 -176 -72q-80 0 -125 57q-45 55 -45 135zM436 967q0 56 70 75q-19 19 -19 31q0 23 56 23q28 0 55 -18q27 -17 27 -44q0 -45 -45 -76q-40 -28 -88 -28q-56 0 -56 37z" />
<glyph unicode="k" horiz-adv-x="561" d="M47 6v4q2 4 15.5 39.5t41.5 104.5q29 73 53.5 160.5t43.5 193.5q11 61 21.5 152.5t21.5 220.5q12 127 24 217t25 153q10 66 65 66q48 0 48 -31q0 -6 -2.5 -28.5t-6.5 -61.5q-26 -242 -52 -422t-52 -301q185 159 266 289q8 16 19.5 34.5t25.5 39.5q10 10 35 10 q18 0 18 -10q0 -32 -67 -138q-83 -132 -248 -274q266 -180 266 -429q0 -75 -14 -111q-10 -22 -51 -22q-37 0 -43 22q4 19 6 40t2 46q0 115 -72 225q-26 38 -66 82t-98 92l-2 -4q-12 -48 -28.5 -96t-36.5 -99q-55 -144 -96 -170q-10 -7 -29 -7q-27 0 -33 13z" />
<glyph unicode="l" horiz-adv-x="252" d="M61 18q1 2 6.5 29t16.5 78q13 60 29.5 148.5t38.5 209.5q10 64 25.5 154.5t35.5 218.5q72 395 113 436q23 23 57 23q43 0 43 -23q0 -6 -12 -61q-8 -29 -18.5 -74.5t-24.5 -105.5q-29 -134 -105 -510l-30 -150q-10 -45 -21 -96t-25 -111q-4 -20 -12 -47.5t-18 -66.5 q-22 -73 -74 -73q-25 0 -25 21z" />
<glyph unicode="m" horiz-adv-x="895" d="M72 18q0 19 24 154q21 115 35 232t25 249q0 25 3 55.5t7 69.5q6 23 49 23q47 0 47 -47q0 -6 -1 -18.5t-3 -30.5q82 79 174 79q116 0 148 -104q95 104 213 104q155 0 155 -215q0 -60 -7 -128t-21 -146q-11 -49 -26.5 -122t-35.5 -173q0 -15 -3 -38.5t-7 -54.5 q-6 -23 -49 -23q-58 0 -58 51q0 19 3.5 41.5t7.5 50.5q14 72 27.5 141.5t27.5 138.5q33 162 33 283q0 147 -56 147q-55 0 -112 -63q-27 -27 -45.5 -55.5t-32.5 -57.5q0 -51 -16.5 -146t-49.5 -245q-4 -20 -9 -44t-11 -52q-6 -21 -51 -21q-41 0 -41 35q0 76 39 240 q41 184 41 264q0 151 -70 151q-45 0 -102 -61q-23 -24 -41.5 -49.5t-32.5 -52.5q-8 -63 -20.5 -138.5t-28.5 -169.5q-47 -252 -74 -272q-13 -5 -27 -5q-28 0 -28 23z" />
<glyph unicode="n" horiz-adv-x="649" d="M88 14q0 1 1 12l3 33l17 129q7 94 22.5 230.5t38.5 324.5q7 52 59 52q45 0 45 -29q0 2 -3 -22t-11 -72q105 112 250 112q56 0 92 -14q86 -41 86 -221q0 -48 -9 -116.5t-26 -168.5q-6 -35 -15 -85t-22 -116q-2 -14 -6 -34.5t-10 -45.5q-6 -23 -51 -23q-51 0 -51 39 q0 54 18 144l33 148q16 87 23.5 154.5t7.5 117.5q0 176 -82 176q-86 0 -170 -102q-75 -87 -95 -184q-8 -60 -16 -121.5t-18 -122.5q-28 -195 -49 -212q-10 -10 -35 -10q-27 0 -27 27z" />
<glyph unicode="o" horiz-adv-x="621" d="M78 162q0 207 145 424q-51 0 -51 22l2 6q41 72 119 125q82 54 158 54q115 0 174 -101q47 -83 47 -203q0 -172 -92 -309q-95 -140 -261 -180q-25 -5 -44 -8t-33 -3q-164 0 -164 173zM180 184q0 -147 70 -147q104 0 194 123q76 100 99 219q4 22 6 46t2 52q0 168 -68 236 q-29 24 -37 24q-24 0 -71 -35l8 -8q-4 -4 -14.5 -15t-26.5 -34q-59 -76 -113 -219q-49 -141 -49 -242z" />
<glyph unicode="p" horiz-adv-x="649" d="M-3 -351q0 13 30 123q12 43 25.5 106.5t29.5 148.5q-66 46 -66 112q0 25 31 25q23 0 47 -62l15 179q5 54 11 116.5t13 134.5q3 31 9 75t16 102q10 48 46 48q5 0 9 -1q69 28 135 28q148 0 240 -114q86 -113 86 -260q0 -174 -139 -301q-137 -114 -314 -114h-26 q-5 0 -10.5 0.5t-10.5 1.5q-58 -295 -127 -348q-10 -10 -31 -10q-19 0 -19 10zM180 31q5 -1 11 -1.5t14 -0.5q125 0 229 86q104 85 127 207q4 17 6 36t2 41q0 134 -71 238q-72 96 -154 96q-39 0 -80 -16q0 -1 -2 -18t-6 -50l-20 -196q-8 -73 -22 -177t-34 -245z" />
<glyph unicode="q" horiz-adv-x="649" d="M96 279q0 181 125 339q135 168 311 168q58 0 93 -12q1 31 55 31q45 0 45 -31q0 -2 -12 -90q-27 -195 -51.5 -356t-51.5 -305q-4 -23 -13 -69t-26 -121q-31 -160 -41 -168q-11 -12 -28 -12q-33 0 -33 37q0 20 8 74.5t25 148.5q4 27 9 54.5t9 59.5q-68 -27 -149 -27 q-65 0 -116 19.5t-86 55.5t-54 87.5t-19 116.5zM209 289q0 -101 43 -162q49 -72 143 -72q9 0 22.5 2t28 4.5t28 4.5t22.5 2q17 0 30 -7q11 112 32.5 274t53.5 380q-41 30 -80 30q-16 0 -47 -12q-116 -41 -200 -182q-76 -127 -76 -262z" />
<glyph unicode="r" horiz-adv-x="590" d="M68 45q0 33 4 81.5t12 117.5q8 63 14 116t15 95q45 271 75 309q22 22 56 22q45 0 45 -28q0 -19 -13 -64q97 88 211 88q96 0 146 -86q41 -71 41 -174q0 -55 -58 -55q-42 0 -55 27q-4 8 -22 135q-20 98 -62 98q-75 0 -164 -125q-81 -108 -98 -194q-10 -48 -17.5 -101.5 t-15.5 -113.5q-2 -23 -5 -59.5t-11 -84.5q-11 -54 -57 -54q-41 0 -41 50z" />
<glyph unicode="s" horiz-adv-x="547" d="M-40 61q0 23 56 23q20 0 54 -4t82 -12q84 -15 133 -15q69 0 119 38q49 37 49 108q0 73 -127 200t-127 217q0 87 73 136q64 39 158 39q167 0 211 -99q10 -19 10 -35q0 -14 -30 -14q-21 0 -70 51q-45 51 -123 51q-54 0 -88.5 -34t-34.5 -88q0 -78 129 -207 q131 -129 131 -215q0 -111 -104 -162q-78 -39 -199 -39q-33 0 -74.5 4t-95.5 12q-132 19 -132 45z" />
<glyph unicode="t" horiz-adv-x="477" d="M129 756q0 28 64 28q22 0 61 -14l39 -14q8 -2 13 -3.5t7 -2.5l39 294q5 46 21 140q6 28 49 28t43 -28q0 -15 -4 -54.5t-12 -105.5q-5 -48 -14 -119t-21 -168q32 -2 70 -3t83 -1q72 0 72 -31q0 -30 -84 -30q-33 0 -69.5 2t-82.5 6q-4 -23 -9 -57.5t-11 -79.5 q-13 -66 -28 -136.5t-33 -148.5q-56 -221 -91 -250q-25 -11 -41 -11q-26 0 -26 17q0 22 37 140q32 112 58 244.5t46 291.5q-176 26 -176 66z" />
<glyph unicode="u" horiz-adv-x="657" d="M78 182q0 20 2.5 41.5t7.5 44.5q8 47 27.5 115.5t48.5 159.5q69 212 108 241q10 9 31 9q23 0 23 -21q0 -26 -58 -194q-86 -261 -86 -388q0 -110 70 -137q68 0 172 86q78 72 131 152q52 435 84 473q18 22 59 22q45 0 45 -32q0 -20 -8 -52q-12 -44 -12 -51l-16 -88 q-14 -78 -26.5 -184.5t-23.5 -249.5q0 -44 -12 -123q-6 -23 -51 -23q-57 0 -57 66v21q1 11 2 27t2 36q-140 -131 -291 -131q-172 0 -172 180z" />
<glyph unicode="v" horiz-adv-x="582" d="M129 776q-2 15 21 15q96 0 147 -254q16 -76 26.5 -160t14.5 -178q22 57 57.5 133t83.5 176q119 243 156 268q23 17 47 17q41 0 41 -23q0 -7 -66 -125q-75 -138 -131 -248t-98 -207q-16 -40 -36.5 -86.5t-47.5 -97.5q-22 -13 -57 -13q-30 0 -43 13q-11 14 -17 189 q-2 54 -3 106.5t-3 106.5q-12 126 -92 368z" />
<glyph unicode="w" horiz-adv-x="750" d="M125 721q0 72 33 72q18 0 26 -9q26 -19 52 -270q18 -173 24 -305l66 164q10 18 86 227q6 14 14 34.5t18 49.5q2 8 4.5 18.5t6.5 24.5q6 18 39 18q42 0 65 -233q6 -72 9 -144q2 -43 2 -87q0 -30 -1 -60q29 51 56.5 102.5t56.5 102.5q33 60 56.5 112t39.5 97 q10 37 20.5 75.5t24.5 80.5q10 10 23 10q43 0 43 -62q0 -88 -101 -293q-38 -72 -75 -144t-76 -144q-12 -31 -29.5 -65.5t-40.5 -76.5q-11 -21 -49 -21q-34 0 -41 19q-1 5 -1.5 18t-0.5 34v65q0 20 0.5 43t1.5 49q2 57 3 92q1 5 1 9.5v9.5v17v30q0 70 -6 162 q-29 -70 -67.5 -171t-90.5 -243q-8 -27 -18 -54.5t-25 -60.5q-20 -17 -47 -17q-47 0 -67 23q-8 9 -15 265q-4 146 -5 220.5t-3 84.5q-12 139 -12 131z" />
<glyph unicode="x" horiz-adv-x="512" d="M16 6q0 10 9 33q20 57 78.5 147t158.5 222q-10 75 -16 114t-6 41q-9 45 -19 82t-20 70q-8 29 -8 35q0 34 32 34q60 0 115 -280q27 31 63.5 78t88.5 110q13 20 30 43t37 49q21 15 47 15q35 0 35 -21q0 -35 -283 -372q13 -72 34.5 -173t53.5 -240q3 -4 12 -29.5t27 -73.5 q29 -84 29 -94q0 -14 -47 -14q-26 0 -39 10q-4 4 -9 13.5t-13 25.5q-77 162 -127 474q-15 -16 -35.5 -44t-46.5 -62q-29 -48 -60 -98t-65 -101q-20 -5 -35 -5q-21 0 -21 11z" />
<glyph unicode="y" horiz-adv-x="532" d="M37 -316q0 20 49 20q8 0 25.5 -2t27.5 -2q185 0 275 300h-23q-272 0 -272 369q0 88 18 184q34 196 78 231q7 9 29 9q24 0 24 -15q0 -9 -14 -65q-6 -23 -14.5 -58.5t-18.5 -83.5q-14 -79 -14 -174q0 -364 170 -364q21 0 47 6q70 265 70 627q0 85 8 106q7 19 45 19 q33 0 39 -19q-4 -177 -8.5 -280.5t-8.5 -145.5q-26 -299 -108 -470q-106 -223 -305 -223q-119 0 -119 31z" />
<glyph unicode="z" horiz-adv-x="543" d="M31 10l68 85q35 43 86 106t120 149q-20 -2 -39.5 -3t-42.5 -1q-119 0 -119 23q0 14 27 14q10 0 29.5 -4t29.5 -4q21 0 56.5 4t89.5 12q170 223 209 354q-118 -14 -182 -20t-80 -6q-82 0 -82 20q0 15 98 15q51 0 150 18q96 21 151 21q45 0 45 -21q0 -5 -8 -37 q-38 -130 -186 -329q42 4 76 7t63 3q33 0 33 -19q0 -4 -15 -10q-20 -10 -190 -25l-258 -325q26 2 70 7t108 13q57 9 101 13t79 4q45 0 45 -23q0 -13 -37 -20q-100 -21 -208.5 -29.5t-237.5 -8.5q-49 0 -49 17z" />
<glyph unicode="{" horiz-adv-x="676" d="M123 694q0 17 49 27q70 5 133 12q97 10 123 21q74 38 74 137q0 26 -17 108q-14 73 -14 111q0 10 1 21.5t3 21.5q12 72 88 123q71 47 148 47q65 0 65 -18q0 -8 -65 -19q-60 -11 -96 -57q-35 -47 -35 -107q0 -43 18 -118q18 -78 18 -117q0 -134 -131 -178q39 -11 78 -33 q53 -29 51 -53v-2q-48 -57 -79 -97.5t-48 -68.5q-57 -98 -57 -199q0 -72 47 -125q14 -15 35.5 -32t52.5 -36q47 -29 47 -43q0 -23 -53 -23q-8 0 -27 3q-227 57 -227 262q0 186 180 359q-41 47 -186 47h-20q-7 0 -14 -0.5t-15 -1.5h-49q-78 0 -78 28z" />
<glyph unicode="|" horiz-adv-x="272" d="M70 16q1 0 24 113l66 354q20 109 38 215t35 215q64 340 103 379q26 23 57 23q41 0 41 -23q0 -6 -12 -61q-8 -29 -18.5 -74.5t-24.5 -105.5q-26 -116 -105 -510l-30 -150q-20 -89 -45 -207q-4 -20 -10.5 -49t-16.5 -67q-23 -71 -78 -71q-23 0 -24 19z" />
<glyph unicode="}" horiz-adv-x="676" d="M133 10q0 7 68 21q30 6 54.5 21t42 37t27 49t9.5 57q0 42 -21 116q-18 76 -18 119q0 139 131 178q-39 10 -78 33q-53 29 -53 51v4q1 7 55 58q56 56 90 137q39 84 39 160q0 135 -172 231q-12 6 -12 14q0 27 57 27q7 0 27 -6q225 -62 225 -262q0 -191 -178 -359 q41 -47 184 -47h52q8 1 15 1.5t13 0.5h23q71 0 71 -30q0 -21 -49 -27q-2 0 -34.5 -3t-96.5 -7q-94 -10 -121 -23q-73 -37 -73 -135q0 -38 14 -111q16 -68 16 -108q0 -30 -4 -43q-12 -73 -90 -125q-71 -42 -147 -42q-66 0 -66 13z" />
<glyph unicode="~" horiz-adv-x="776" d="M258 1075q0 78 88 142q82 61 162 61q74 0 102 -49q4 -7 21 -92q8 -50 47 -50q45 0 80 48q7 11 14 21.5t14 21.5l29 41q21 26 62 26q47 0 47 -31q0 -81 -99 -133q-86 -47 -168 -47q-90 0 -120 41q-17 21 -21 84q-2 54 -24 70q-25 -6 -51.5 -23t-50 -40t-41 -49.5 t-25.5 -51.5q-32 -12 -50 -12q-16 0 -16 22z" />
<glyph unicode="&#xa1;" horiz-adv-x="303" d="M16 -300q0 20 5.5 53t15.5 78q8 35 16 67.5t17 67.5q12 66 30.5 165t40.5 238q39 235 111 376q18 9 39 9q18 0 18 -11l-16 -81q-8 -33 -18.5 -82t-22.5 -115q-14 -100 -36.5 -248t-55.5 -349q-26 -144 -47 -168q-22 -25 -58 -25q-39 0 -39 25zM244 905q0 34 25 62 q25 30 57 30q75 0 75 -67q0 -32 -26 -58l2 -6q-5 -18 -49 -18q-84 0 -84 57z" />
<glyph unicode="&#xa2;" horiz-adv-x="752" d="M180 610q0 181 129 340q129 162 307 183q13 38 27 78t31 85q18 19 41 19q30 0 30 -19q0 -15 -49 -163q160 -10 160 -146q0 -85 -55 -188q-66 -117 -139 -117q-15 0 -15 10l2 2q111 150 111 283q0 103 -78 108q-64 -199 -125 -371t-121 -331q49 -21 115 -21q18 0 50 3 q16 2 28.5 3t21.5 1q47 0 47 -25q0 -39 -176 -39q-59 0 -110 12q-29 -73 -55.5 -135.5t-53.5 -113.5q-5 -1 -9.5 -1.5t-8.5 -0.5h-23q-12 0 -12 6q0 34 43 129q16 35 30.5 67.5t30.5 65.5q-174 69 -174 276zM299 610q0 -131 80 -194q22 60 76.5 222.5t142.5 434.5 q-131 -47 -215 -182q-84 -140 -84 -281z" />
<glyph unicode="&#xa3;" horiz-adv-x="778" d="M143 25q0 4 47 34q15 11 27 20t27 19q110 89 110 281q0 22 -3 53t-7 66q-98 -37 -164 -37q-33 0 -28 18l75 25q46 16 111 39q-10 54 -21.5 105.5t-21.5 105.5q-25 116 -25 213q0 348 346 348q187 0 234 -96q4 -7 4 -15q0 -33 -55 -33q-14 0 -21 19q-4 5 -7 10.5t-7 13.5 q-39 52 -154 52q-225 0 -225 -287q0 -87 25 -197q10 -49 21 -97.5t22 -96.5q159 63 204 63q39 0 39 -20q0 -10 -24 -19q-35 -10 -88 -28.5t-125 -42.5q10 -54 15 -98t5 -78q0 -226 -170 -322q41 0 127 -6q45 -2 78 -3t55 -1q27 0 63.5 1t84.5 3q97 6 149 6q49 0 49 -27 q0 -29 -247 -29q-76 0 -140.5 2t-119.5 6q-43 2 -73.5 3.5t-47.5 1.5q-8 0 -19 -0.5t-27 -1.5q-30 -3 -44 -3q-17 0 -35.5 7.5t-18.5 22.5z" />
<glyph unicode="&#xa4;" horiz-adv-x="932" d="M129 360q10 11 26.5 26t37.5 36q8 11 18.5 24t24.5 29l65 72q-4 15 -4 35q0 92 121 219q-101 134 -101 164q0 22 52 22q51 0 77 -39q12 -15 46 -82q28 28 53 27q13 18 55 18q73 0 168 -84q14 21 38.5 42.5t59.5 48.5q70 51 113 51q53 0 53 -21q0 -10 -51 -43 q-35 -20 -63 -39q-11 -8 -24 -19t-30 -26q-10 -6 -24.5 -15t-34.5 -22q33 -45 33 -96q0 -79 -72 -149q125 -125 125 -166q0 -19 -51 -19q-26 0 -45 10q-16 10 -52 56l-49 67q-100 -55 -200 -55q-84 0 -142 39q-119 -125 -196 -125q-21 0 -27 14zM422 586q0 -99 76 -99 q69 0 141 60q72 61 72 133q0 92 -119 166q-170 -155 -170 -260z" />
<glyph unicode="&#xa5;" horiz-adv-x="696" d="M84 209q0 36 205 37q1 7 10.5 54.5t26.5 135.5q-6 0 -19.5 -1t-31 -2t-35.5 -2t-33 -1h-33q-63 0 -63 14q0 36 223 37q4 39 13 96.5t20 133.5q-29 100 -54.5 197.5t-50.5 197.5q-33 136 -33 182q0 29 43 29q16 0 26.5 -2t17.5 -11t11.5 -27.5t8.5 -51.5q11 -44 12 -88 q14 -64 32.5 -156.5t45.5 -224.5q29 60 69 127t91 139q98 142 194 240q19 17 32.5 28t22.5 16q20 11 42 11q47 0 49 -21q-48 -54 -112.5 -135t-151.5 -192q-35 -54 -86.5 -134t-120.5 -192q-5 -45 -10 -85t-9 -75h49q220 4 220 -39q0 -24 -64 -24q-10 0 -20.5 1t-24.5 3 q-86 7 -170 12l-35 -186q275 0 275 -39q0 -25 -74 -25q-19 0 -45.5 1.5t-61.5 5.5q-71 6 -104 6q-10 -58 -19.5 -106.5t-19.5 -90.5q-13 -2 -23 -3.5t-18 -1.5q-29 0 -29 89q0 59 9 107q-72 -5 -113 -7t-53 -2q-6 0 -18.5 8.5t-12.5 16.5z" />
<glyph unicode="&#xa8;" horiz-adv-x="637" d="M279 1194q0 43 23.5 74.5t66.5 31.5q18 0 36 -5t31.5 -15t22 -23.5t8.5 -31.5q0 -16 -10.5 -29.5t-26.5 -24t-35.5 -16.5t-38.5 -6q-77 0 -77 45zM596 1204q0 17 10 37l8 25l3.5 7t3.5 5q6 27 69 27q37 0 64 -13q37 -16 37 -45q0 -39 -48 -63q-41 -23 -84 -23 q-63 0 -63 43z" />
<glyph unicode="&#xa9;" horiz-adv-x="1051" d="M129 324q0 130 98 270q92 131 215 197q33 18 68 18q205 0 356 -68q195 -90 195 -274q0 -197 -166 -338q-161 -129 -360 -129q-152 0 -273 84q-133 96 -133 240zM240 346q0 -126 88 -211q90 -84 213 -84q155 0 276 127q121 130 121 285q0 160 -162 235q-124 64 -299 64 q-108 -111 -160 -189q-77 -119 -77 -227zM334 381q0 123 82 199q82 79 202 79q63 0 110 -33q46 -31 46 -94q0 -45 -24 -88q-40 -8 -72 -8q-37 0 -37 17q0 6 9 29q9 24 9 38q0 84 -59 84q-14 0 -37 -14q-104 -62 -104 -197q0 -60 22 -100q27 -55 80 -55q10 0 22.5 2t25 5 t24 5t20.5 2q52 0 52 -23q0 -21 -70 -34q-49 -13 -90 -13q-94 0 -153 53q-58 54 -58 146z" />
<glyph unicode="&#xab;" horiz-adv-x="961" d="M178 631q0 15 146 143q45 39 89 76t89 76q43 39 88 94q11 16 27 33t36 34q6 3 21 3q33 0 33 -19q0 -70 -172 -217l-123 -106q-72 -64 -113 -117q317 -302 317 -320q0 -22 -61 -22q-24 0 -45 10q-13 8 -57.5 50t-120.5 118q-154 154 -154 164zM510 631q0 15 147 143 q45 39 89.5 76t89.5 76q20 20 41.5 42.5t44.5 51.5q10 16 26.5 32.5t38.5 34.5q6 3 21 3q32 0 32 -19q0 -70 -174 -217l-123 -106q-63 -55 -112 -117q317 -302 317 -320q0 -22 -61 -22q-23 0 -43 10q-29 13 -180 168q-154 154 -154 164z" />
<glyph unicode="&#xad;" d="M176 621q22 22 146 22h55q17 0 37 -0.5t43 -1.5h137q55 0 55 -27q0 -30 -108 -30q-54 0 -135 6q-52 4 -85.5 5t-50.5 3q-93 5 -94 23z" />
<glyph unicode="&#xae;" horiz-adv-x="1163" d="M137 367q0 190 176 381q178 190 369 190q38 0 74 -10q-6 -14 -21 -21q176 -30 301 -143q138 -125 138 -297q0 -214 -168 -344q-155 -123 -369 -123q-197 0 -334 86q-166 100 -166 281zM238 379q0 -155 127 -246q112 -82 276 -82q168 0 293 119t125 289q0 129 -90 237 q-85 106 -213 146q-105 31 -105 45t33 20q-85 -7 -197 -94q-54 -42 -97.5 -89.5t-76.5 -102.5q-75 -122 -75 -242zM358 606q0 11 17 25q7 45 205 45q38 0 80 -3t88 -11q131 -21 131 -64q0 -49 -195 -188q22 -28 49.5 -54.5t61.5 -52.5q127 -91 127 -108q0 -19 -62 -19 q-46 0 -147 80q-44 34 -76 64.5t-53 56.5q-2 -23 -6.5 -54.5t-8.5 -76.5q-11 -56 -61 -56q-39 0 -39 29q0 24 14 74q9 33 13 51t6 25l37 221q21 10 41 10q16 0 16 -29q0 -2 -2 -35.5t-6 -99.5l49 33q13 8 24.5 16.5t22.5 16.5q57 39 80 86q-49 43 -209 43q-71 0 -102 -10 l-78 -21q-17 0 -17 6z" />
<glyph unicode="&#xaf;" d="M297 1307q19 24 147 24h56q17 0 37 -0.5t43 -1.5h135q57 0 57 -26q0 -31 -110 -31q-27 0 -60.5 1t-75.5 3q-51 4 -84.5 6t-50.5 4q-88 1 -94 21z" />
<glyph unicode="&#xb0;" horiz-adv-x="461" d="M268 1135q0 57 66 116q61 58 125 58q47 0 94 -29q53 -32 53 -76q0 -65 -78 -119q-69 -45 -139 -45q-121 0 -121 95zM362 1163q0 -38 37 -69q105 45 105 102q0 22 -68 57q-20 -20 -45 -39q-29 -32 -29 -51z" />
<glyph unicode="&#xb1;" horiz-adv-x="688" d="M139 76q17 20 82 22q23 0 65.5 4t108.5 13q111 12 174 12q72 0 72 -25q0 -18 -72 -24q-7 -1 -15.5 -1.5t-18.5 -0.5t-22 -0.5t-26 -1.5q-14 -2 -52 -5t-101 -8q-48 -4 -85.5 -6t-68.5 -2q-41 0 -41 23zM180 631v6q5 13 19 14q25 5 52.5 8t59.5 3q23 1 41.5 1.5t32.5 0.5 t24 0.5t15 1.5q6 39 18.5 86t28.5 102q12 20 45 20t33 -20q0 -30 -43 -180q88 12 119 12q61 0 61 -24q0 -34 -199 -41q-16 -60 -27 -106t-20 -79q-27 -8 -39 -8q-16 0 -16 18q0 49 27 168q-63 -4 -105.5 -6t-64.5 -2q-62 0 -62 25z" />
<glyph unicode="&#xb4;" horiz-adv-x="453" d="M258 1090q0 7 18 18q8 3 40 26t90 66q87 63 135 70h4q61 0 61 -25q0 -14 -55 -47q-29 -20 -55.5 -38.5t-55.5 -39.5q-83 -53 -116 -53h-5q-61 0 -61 23z" />
<glyph unicode="&#xb6;" horiz-adv-x="1124" d="M201 741q0 106 63 201q150 227 481 315q202 54 562 54q45 0 45 -23q0 -18 -54 -22q-64 -2 -157 -8t-223 -17q28 0 28 -27q0 -4 -3 -27.5t-11 -66.5q-10 -61 -17.5 -110t-15.5 -88l-39 -230q-26 -121 -61.5 -300.5t-83.5 -421.5q-16 -93 -23 -100q-14 -21 -51 -21 q-25 0 -25 41q0 52 19 153q12 60 28.5 149.5t38.5 215.5l84 475q15 78 32.5 165t39.5 181q-209 -47 -360 -162q-191 -146 -191 -330q0 -168 176 -209q11 78 22 158t23 162q4 26 10.5 63t16.5 88q7 45 57 45q35 0 35 -20q0 -12 -6 -52t-16 -106q-11 -57 -25 -143.5 t-35 -204.5q8 1 19.5 4.5t28.5 8.5q34 12 53 12q16 0 16 -8q0 -27 -76 -48q-8 -2 -19.5 -4t-27.5 -4q-6 -41 -29.5 -199.5t-64.5 -436.5q-23 -10 -41 -10q-16 0 -16 41q0 2 18 157q8 75 21.5 185.5t29.5 264.5q-122 16 -192 78q-84 72 -84 182z" />
<glyph unicode="&#xb8;" horiz-adv-x="434" d="M27 -226q25 16 41 16q9 0 20 -2t22.5 -5t23 -5t20.5 -2q82 0 82 73q0 48 -70 78q-70 27 -70 37q0 9 27 65q14 28 21.5 45.5t11.5 21.5q18 23 57 23q47 0 47 -31q0 -41 -39 -110q121 -43 121 -120q0 -60 -66 -97q-56 -30 -118 -30q-82 0 -131 43z" />
<glyph unicode="&#xbb;" horiz-adv-x="934" d="M127 307q0 42 197 209q203 166 208 182q-8 15 -46.5 61.5t-110.5 127.5q-119 134 -119 186q0 29 47 29q39 0 59 -17q1 -1 4.5 -5.5t8.5 -12.5l35 -49q22 -31 49.5 -63.5t58.5 -67.5q139 -154 139 -185q0 -12 -8 -20q-66 -48 -158.5 -124t-216.5 -181q-28 -34 -94 -82 q-17 -6 -26 -6q-27 0 -27 18zM459 307q0 42 198 209q204 167 209 182q-14 27 -157 189q-119 134 -119 186q0 29 47 29q37 0 57 -17q1 -2 13.5 -18.5t35.5 -48.5q23 -31 49.5 -63.5t59.5 -67.5q137 -152 137 -185q0 -12 -8 -20q-64 -48 -155.5 -123.5t-217.5 -181.5 q-14 -17 -37.5 -37.5t-58.5 -44.5q-17 -6 -25 -6q-28 0 -28 18z" />
<glyph unicode="&#xbf;" horiz-adv-x="858" d="M51 -105q0 119 127 242q63 54 123.5 107.5t124.5 107.5q140 134 166 275l4 37q1 9 2 18.5t2 19.5q7 31 62 31q18 0 29 -2t16.5 -8t7.5 -17.5t2 -29.5q0 -155 -146 -307q-32 -29 -65.5 -57.5t-67.5 -57.5l-135 -115q-143 -131 -143 -247q0 -90 82 -135q65 -41 159 -41 q120 0 224 117q80 92 125 228q30 11 41 11q12 0 12 -11q0 -24 -21 -78q-85 -256 -307 -301q-29 -5 -53.5 -8t-44.5 -3q-125 0 -213 49q-113 62 -113 175zM598 905q0 74 94 74q80 0 80 -41q0 -35 -59 -64q-2 -26 -45 -26q-70 0 -70 57z" />
<glyph unicode="&#xc0;" horiz-adv-x="762" d="M-308 -1q0 17 22 17h35q96 0 168 45q97 60 193.5 169t196.5 278q23 35 94.5 168t196.5 366q112 220 160 246q28 19 65 19q35 0 35 -21l-10 -35q-5 -17 -12.5 -43.5t-18.5 -62.5q-39 -136 -66.5 -305t-48.5 -381q289 172 338 172q43 0 43 -23q0 -6 -8 -8q-63 -35 -156 -90 t-223 -131q-8 -82 -11 -145.5t-5 -108.5q0 -29 -2 -60.5t-6 -67.5q-11 -23 -58 -23q-53 0 -53 30q0 26 4.5 99.5t14.5 199.5q-35 -27 -68 -53.5t-68 -52.5q-102 -78 -141 -78q-29 0 -29 16v4q42 48 118.5 110t197.5 138q16 183 38.5 335t51.5 288l-221 -412 q-79 -140 -155.5 -244t-151.5 -176q-194 -191 -391 -191q-29 0 -69 8v4zM531 1565q0 27 55 27q10 0 25 -4q34 -11 90 -60q10 -8 19.5 -16.5t19.5 -18.5l39 -38q36 -32 36 -41q0 -29 -57 -29q-55 0 -119 67q-74 80 -102 95q-6 7 -6 18z" />
<glyph unicode="&#xc1;" horiz-adv-x="762" d="M-308 -1q0 17 22 17h35q96 0 168 45q97 60 193.5 169t196.5 278q23 35 94.5 168t196.5 366q112 220 160 246q28 19 65 19q35 0 35 -21l-10 -35q-5 -17 -12.5 -43.5t-18.5 -62.5q-39 -136 -66.5 -305t-48.5 -381q289 172 338 172q43 0 43 -23q0 -6 -8 -8q-63 -35 -156 -90 t-223 -131q-8 -82 -11 -145.5t-5 -108.5q0 -29 -2 -60.5t-6 -67.5q-11 -23 -58 -23q-53 0 -53 30q0 26 4.5 99.5t14.5 199.5q-35 -27 -68 -53.5t-68 -52.5q-102 -78 -141 -78q-29 0 -29 16v4q42 48 118.5 110t197.5 138q16 183 38.5 335t51.5 288l-221 -412 q-79 -140 -155.5 -244t-151.5 -176q-194 -191 -391 -191q-29 0 -69 8v4zM870 1414q0 7 18 18q8 3 40 26t90 66q87 63 135 70h4q61 0 61 -25q0 -14 -55 -47q-29 -20 -55.5 -38.5t-55.5 -39.5q-83 -53 -116 -53h-5q-61 0 -61 23z" />
<glyph unicode="&#xc2;" horiz-adv-x="762" d="M-308 -1q0 17 22 17h35q96 0 168 45q97 60 193.5 169t196.5 278q23 35 94.5 168t196.5 366q112 220 160 246q28 19 65 19q35 0 35 -21l-10 -35q-5 -17 -12.5 -43.5t-18.5 -62.5q-39 -136 -66.5 -305t-48.5 -381q289 172 338 172q43 0 43 -23q0 -6 -8 -8q-63 -35 -156 -90 t-223 -131q-8 -82 -11 -145.5t-5 -108.5q0 -29 -2 -60.5t-6 -67.5q-11 -23 -58 -23q-53 0 -53 30q0 26 4.5 99.5t14.5 199.5q-35 -27 -68 -53.5t-68 -52.5q-102 -78 -141 -78q-29 0 -29 16v4q42 48 118.5 110t197.5 138q16 183 38.5 335t51.5 288l-221 -412 q-79 -140 -155.5 -244t-151.5 -176q-194 -191 -391 -191q-29 0 -69 8v4zM650 1372q0 7 77 111q79 103 98 122t46 19q22 0 53 -14q39 -23 90 -105q56 -86 56 -122q0 -21 -60 -21q-21 0 -74 74q-14 23 -30 47t-35 49q-35 -37 -77 -78t-93 -86q-17 -6 -31 -6q-20 0 -20 10z" />
<glyph unicode="&#xc3;" horiz-adv-x="762" d="M-308 -1q0 17 22 17h35q96 0 168 45q97 60 193.5 169t196.5 278q23 35 94.5 168t196.5 366q112 220 160 246q28 19 65 19q35 0 35 -21l-10 -35q-5 -17 -12.5 -43.5t-18.5 -62.5q-39 -136 -66.5 -305t-48.5 -381q289 172 338 172q43 0 43 -23q0 -6 -8 -8q-63 -35 -156 -90 t-223 -131q-8 -82 -11 -145.5t-5 -108.5q0 -29 -2 -60.5t-6 -67.5q-11 -23 -58 -23q-53 0 -53 30q0 26 4.5 99.5t14.5 199.5q-35 -27 -68 -53.5t-68 -52.5q-102 -78 -141 -78q-29 0 -29 16v4q42 48 118.5 110t197.5 138q16 183 38.5 335t51.5 288l-221 -412 q-79 -140 -155.5 -244t-151.5 -176q-194 -191 -391 -191q-29 0 -69 8v4zM526 1436q0 78 89 141q83 62 163 62q74 0 103 -50q2 -4 7 -27t13 -65q7 -49 47 -49q45 0 80 47q15 23 28 43.5t28 40.5q19 27 63 27q45 0 45 -31q0 -81 -96 -133q-86 -47 -170 -47q-89 0 -121 41 q-19 25 -20 84q-3 53 -25 69q-26 -6 -52 -23t-49 -40t-41 -49.5t-26 -50.5q-27 -13 -49 -13q-17 0 -17 23z" />
<glyph unicode="&#xc4;" horiz-adv-x="762" d="M-308 -1q0 17 22 17h35q96 0 168 45q97 60 193.5 169t196.5 278q23 35 94.5 168t196.5 366q112 220 160 246q28 19 65 19q35 0 35 -21l-10 -35q-5 -17 -12.5 -43.5t-18.5 -62.5q-39 -136 -66.5 -305t-48.5 -381q289 172 338 172q43 0 43 -23q0 -6 -8 -8q-63 -35 -156 -90 t-223 -131q-8 -82 -11 -145.5t-5 -108.5q0 -29 -2 -60.5t-6 -67.5q-11 -23 -58 -23q-53 0 -53 30q0 26 4.5 99.5t14.5 199.5q-35 -27 -68 -53.5t-68 -52.5q-102 -78 -141 -78q-29 0 -29 16v4q42 48 118.5 110t197.5 138q16 183 38.5 335t51.5 288l-221 -412 q-79 -140 -155.5 -244t-151.5 -176q-194 -191 -391 -191q-29 0 -69 8v4zM598 1432q0 43 23.5 74.5t66.5 31.5q18 0 36 -5t31.5 -15t22 -23.5t8.5 -31.5q0 -16 -10.5 -29.5t-26.5 -24t-35.5 -16.5t-38.5 -6q-77 0 -77 45zM915 1442q0 17 10 37l8 25l3.5 7t3.5 5q6 27 69 27 q37 0 64 -13q37 -16 37 -45q0 -39 -48 -63q-41 -23 -84 -23q-63 0 -63 43z" />
<glyph unicode="&#xc5;" horiz-adv-x="762" d="M-308 -1q0 17 22 17h35q96 0 168 45q97 60 193.5 169t196.5 278q23 35 94.5 168t196.5 366q112 220 160 246q28 19 65 19q35 0 35 -21l-10 -35q-5 -17 -12.5 -43.5t-18.5 -62.5q-39 -136 -66.5 -305t-48.5 -381q289 172 338 172q43 0 43 -23q0 -6 -8 -8q-63 -35 -156 -90 t-223 -131q-8 -82 -11 -145.5t-5 -108.5q0 -29 -2 -60.5t-6 -67.5q-11 -23 -58 -23q-53 0 -53 30q0 26 4.5 99.5t14.5 199.5q-35 -27 -68 -53.5t-68 -52.5q-102 -78 -141 -78q-29 0 -29 16v4q42 48 118.5 110t197.5 138q16 183 38.5 335t51.5 288l-221 -412 q-79 -140 -155.5 -244t-151.5 -176q-194 -191 -391 -191q-29 0 -69 8v4zM710 1485q0 57 66 116q61 58 125 58q47 0 94 -29q53 -32 53 -76q0 -65 -78 -119q-69 -45 -139 -45q-121 0 -121 95zM804 1513q0 -38 37 -69q105 45 105 102q0 22 -68 57q-20 -20 -45 -39 q-29 -32 -29 -51z" />
<glyph unicode="&#xc6;" horiz-adv-x="1182" d="M-44 14q0 19 93 150q88 121 169 237.5t159 237.5q42 63 109 170.5t161 265.5q29 49 60.5 101t66.5 106q23 14 78 14q130 4 197 7.5t81 3.5h146q47 0 47 -21q0 -33 -160 -33h-55q-17 0 -37.5 0.5t-46.5 1.5q-43 2 -77 3.5t-60 -1.5h-6v-26q1 -69 -6.5 -144t-24.5 -157 q-4 -29 -20.5 -101.5t-45.5 -193.5q144 37 267 37q26 0 54 -2t60 -6q90 -14 90 -37t-55 -23q-12 0 -30.5 1t-38 2.5t-38 3t-30.5 1.5q-126 0 -297 -47q-23 -88 -53 -213t-72 -299q16 2 67 4t142 4q66 2 117.5 7.5t93.5 15.5l12 2q2 0 3.5 0.5t2.5 0.5t2 1q49 0 49 -27 q0 -21 -49 -28q-54 -10 -131.5 -18.5t-183.5 -14.5q-27 0 -63.5 -1.5t-84.5 -3.5q-30 -6 -32 -6q-37 0 -37 17q0 60 121 526q-109 -42 -208 -88.5t-196 -101.5q-55 -76 -87 -120.5t-42 -57.5q-102 -137 -131 -154q-11 -8 -30 -8q-20 0 -20 12zM354 467q178 90 336 141 q35 143 63.5 277t51.5 274q-64 -118 -176 -289t-275 -403z" />
<glyph unicode="&#xc7;" horiz-adv-x="776" d="M98 305q0 177 92 414q99 247 248 405q172 183 357 183q55 0 55 -45q0 -82 -117 -256q-115 -175 -115 -242q0 -39 31 -57q33 -20 33 -25q0 -23 -61 -23q-17 0 -43 13q-70 25 -70 88q0 76 117 246q118 168 116 233v12q-96 -29 -186 -125q-146 -152 -246 -378 q-102 -240 -102 -439q0 -262 172 -262q115 0 272 94q174 105 174 209q37 15 68 15q25 0 25 -23q0 -103 -154 -203q-130 -85 -248 -116q-77 -21 -145 -21q-273 0 -273 303zM185 -306q25 16 41 16q9 0 20 -2t22.5 -5t23 -5t20.5 -2q82 0 82 73q0 48 -70 78q-70 27 -70 37 q0 9 27 65q14 28 21.5 45.5t11.5 21.5q18 23 57 23q47 0 47 -31q0 -41 -39 -110q121 -43 121 -120q0 -60 -66 -97q-56 -30 -118 -30q-82 0 -131 43z" />
<glyph unicode="&#xc8;" horiz-adv-x="686" d="M2 166q0 123 309 285q-59 23 -59 100q0 62 39 154q205 481 442 598q21 12 45 12q86 0 86 -160q0 -178 -141 -340q-26 -6 -41 -6q-12 0 -12 8v4q106 175 106 334q0 52 -18 90q-204 -150 -350 -495q-54 -129 -54 -201q0 -51 27 -60q2 2 37 13q22 8 39 8q45 0 45 -23 q0 -10 -15 -16l-227 -123q-158 -98 -158 -178q0 -87 224 -107q75 -4 148.5 -7t148.5 -7q32 -6 32 -22q0 -23 -88 -23q-565 0 -565 162zM426 1513q0 27 55 27q10 0 25 -4q34 -11 90 -60q10 -8 19.5 -16.5t19.5 -18.5l39 -38q36 -32 36 -41q0 -29 -57 -29q-55 0 -119 67 q-74 80 -102 95q-6 7 -6 18z" />
<glyph unicode="&#xc9;" horiz-adv-x="686" d="M2 166q0 123 309 285q-59 23 -59 100q0 62 39 154q205 481 442 598q21 12 45 12q86 0 86 -160q0 -178 -141 -340q-26 -6 -41 -6q-12 0 -12 8v4q106 175 106 334q0 52 -18 90q-204 -150 -350 -495q-54 -129 -54 -201q0 -51 27 -60q2 2 37 13q22 8 39 8q45 0 45 -23 q0 -10 -15 -16l-227 -123q-158 -98 -158 -178q0 -87 224 -107q75 -4 148.5 -7t148.5 -7q32 -6 32 -22q0 -23 -88 -23q-565 0 -565 162zM723 1418q0 7 18 18q8 3 40 26t90 66q87 63 135 70h4q61 0 61 -25q0 -14 -55 -47q-29 -20 -55.5 -38.5t-55.5 -39.5q-83 -53 -116 -53h-5 q-61 0 -61 23z" />
<glyph unicode="&#xca;" horiz-adv-x="686" d="M2 166q0 123 309 285q-59 23 -59 100q0 62 39 154q205 481 442 598q21 12 45 12q86 0 86 -160q0 -178 -141 -340q-26 -6 -41 -6q-12 0 -12 8v4q106 175 106 334q0 52 -18 90q-204 -150 -350 -495q-54 -129 -54 -201q0 -51 27 -60q2 2 37 13q22 8 39 8q45 0 45 -23 q0 -10 -15 -16l-227 -123q-158 -98 -158 -178q0 -87 224 -107q75 -4 148.5 -7t148.5 -7q32 -6 32 -22q0 -23 -88 -23q-565 0 -565 162zM410 1374q0 7 77 111q79 103 98 122t46 19q22 0 53 -14q39 -23 90 -105q56 -86 56 -122q0 -21 -60 -21q-21 0 -74 74q-14 23 -30 47 t-35 49q-35 -37 -77 -78t-93 -86q-17 -6 -31 -6q-20 0 -20 10z" />
<glyph unicode="&#xcb;" horiz-adv-x="686" d="M2 166q0 123 309 285q-59 23 -59 100q0 62 39 154q205 481 442 598q21 12 45 12q86 0 86 -160q0 -178 -141 -340q-26 -6 -41 -6q-12 0 -12 8v4q106 175 106 334q0 52 -18 90q-204 -150 -350 -495q-54 -129 -54 -201q0 -51 27 -60q2 2 37 13q22 8 39 8q45 0 45 -23 q0 -10 -15 -16l-227 -123q-158 -98 -158 -178q0 -87 224 -107q75 -4 148.5 -7t148.5 -7q32 -6 32 -22q0 -23 -88 -23q-565 0 -565 162zM381 1413q0 43 23.5 74.5t66.5 31.5q18 0 36 -5t31.5 -15t22 -23.5t8.5 -31.5q0 -16 -10.5 -29.5t-26.5 -24t-35.5 -16.5t-38.5 -6 q-77 0 -77 45zM698 1423q0 17 10 37l8 25l3.5 7t3.5 5q6 27 69 27q37 0 64 -13q37 -16 37 -45q0 -39 -48 -63q-41 -23 -84 -23q-63 0 -63 43z" />
<glyph unicode="&#xcc;" horiz-adv-x="279" d="M96 10q0 17 19 80q8 29 17 71t24 99q8 48 15 135t13 217q6 121 15.5 212t23.5 155q39 193 144 317q24 9 55 9q14 0 14 -11q0 -13 -30 -80q-21 -38 -30 -58.5t-11 -25.5q-16 -37 -28 -82.5t-22 -99.5q-10 -60 -16 -148.5t-10 -209.5q-1 -121 -7.5 -209.5t-17.5 -149.5 q-33 -190 -71 -225q-23 -17 -52 -17q-45 0 -45 21zM235 1552q0 27 55 27q10 0 25 -4q34 -11 90 -60q10 -8 19.5 -16.5t19.5 -18.5l39 -38q36 -32 36 -41q0 -29 -57 -29q-55 0 -119 67q-74 80 -102 95q-6 7 -6 18z" />
<glyph unicode="&#xcd;" horiz-adv-x="279" d="M96 10q0 17 19 80q8 29 17 71t24 99q8 48 15 135t13 217q6 121 15.5 212t23.5 155q39 193 144 317q24 9 55 9q14 0 14 -11q0 -13 -30 -80q-21 -38 -30 -58.5t-11 -25.5q-16 -37 -28 -82.5t-22 -99.5q-10 -60 -16 -148.5t-10 -209.5q-1 -121 -7.5 -209.5t-17.5 -149.5 q-33 -190 -71 -225q-23 -17 -52 -17q-45 0 -45 21zM301 1397q0 7 18 18q8 3 40 26t90 66q87 63 135 70h4q61 0 61 -25q0 -14 -55 -47q-29 -20 -55.5 -38.5t-55.5 -39.5q-83 -53 -116 -53h-5q-61 0 -61 23z" />
<glyph unicode="&#xce;" horiz-adv-x="279" d="M96 10q0 17 19 80q8 29 17 71t24 99q8 48 15 135t13 217q6 121 15.5 212t23.5 155q39 193 144 317q24 9 55 9q14 0 14 -11q0 -13 -30 -80q-21 -38 -30 -58.5t-11 -25.5q-16 -37 -28 -82.5t-22 -99.5q-10 -60 -16 -148.5t-10 -209.5q-1 -121 -7.5 -209.5t-17.5 -149.5 q-33 -190 -71 -225q-23 -17 -52 -17q-45 0 -45 21zM198 1345q0 7 77 111q79 103 98 122t46 19q22 0 53 -14q39 -23 90 -105q56 -86 56 -122q0 -21 -60 -21q-21 0 -74 74q-14 23 -30 47t-35 49q-35 -37 -77 -78t-93 -86q-17 -6 -31 -6q-20 0 -20 10z" />
<glyph unicode="&#xcf;" horiz-adv-x="279" d="M96 10q0 17 19 80q8 29 17 71t24 99q8 48 15 135t13 217q6 121 15.5 212t23.5 155q39 193 144 317q24 9 55 9q14 0 14 -11q0 -13 -30 -80q-21 -38 -30 -58.5t-11 -25.5q-16 -37 -28 -82.5t-22 -99.5q-10 -60 -16 -148.5t-10 -209.5q-1 -121 -7.5 -209.5t-17.5 -149.5 q-33 -190 -71 -225q-23 -17 -52 -17q-45 0 -45 21zM149 1397q0 43 23.5 74.5t66.5 31.5q18 0 36 -5t31.5 -15t22 -23.5t8.5 -31.5q0 -16 -10.5 -29.5t-26.5 -24t-35.5 -16.5t-38.5 -6q-77 0 -77 45zM466 1407q0 17 10 37l8 25l3.5 7t3.5 5q6 27 69 27q37 0 64 -13 q37 -16 37 -45q0 -39 -48 -63q-41 -23 -84 -23q-63 0 -63 43z" />
<glyph unicode="&#xd1;" horiz-adv-x="750" d="M86 37q0 34 12 102q17 94 42.5 226t60.5 315q19 103 32.5 208t22.5 214q4 51 6 91t2 69q0 36 8.5 48.5t42.5 12.5t50 -31q10 -18 18 -42.5t16 -57.5q27 -92 27 -102q2 -9 36.5 -111t100.5 -307q26 -78 44.5 -140.5t29.5 -111.5q35 264 93 476t144 376q17 34 29 54.5 t19 27.5q14 14 47 14q43 0 45 -20q-6 2 -66 -134q-63 -139 -111.5 -300.5t-82.5 -358.5q-11 -66 -25 -162.5t-35 -232.5l-5 -37.5t-7 -50.5q-11 -66 -57 -66q-33 0 -33 57q0 8 0.5 15t1.5 12q-10 27 -10 70q-2 35 -3 51t-1 18q-2 28 -10 66.5t-21 89.5q-16 66 -38.5 141.5 t-53.5 163.5q-27 76 -52.5 149.5t-52.5 149.5q-10 -82 -41.5 -250t-89.5 -426q-8 -42 -21.5 -101.5t-31.5 -137.5q-12 -44 -18 -54q-15 -20 -52 -20q-12 0 -12 37zM325 1426q0 78 89 141q83 62 163 62q74 0 103 -50q2 -4 7 -27t13 -65q7 -49 47 -49q45 0 80 47 q15 23 28 43.5t28 40.5q19 27 63 27q45 0 45 -31q0 -81 -96 -133q-86 -47 -170 -47q-89 0 -121 41q-19 25 -20 84q-3 53 -25 69q-26 -6 -52 -23t-49 -40t-41 -49.5t-26 -50.5q-27 -13 -49 -13q-17 0 -17 23z" />
<glyph unicode="&#xd2;" horiz-adv-x="860" d="M121 307q0 317 180 721q-18 -6 -31 -6q-49 0 -49 25q0 12 33 57q151 213 356 213q183 0 267 -154q67 -121 67 -319q0 -289 -106 -500q-124 -257 -371 -328q-57 -16 -117 -16q-229 0 -229 307zM217 322q0 -275 152 -275q22 0 94 27q189 71 289 321q79 198 79 441 q0 347 -169 417q-25 13 -56 13q-67 0 -139 -60q-54 -91 -97.5 -195.5t-78.5 -232.5q-74 -263 -74 -456zM406 1575q0 27 55 27q10 0 25 -4q34 -11 90 -60q10 -8 19.5 -16.5t19.5 -18.5l39 -38q36 -32 36 -41q0 -29 -57 -29q-55 0 -119 67q-74 80 -102 95q-6 7 -6 18z" />
<glyph unicode="&#xd3;" horiz-adv-x="860" d="M121 307q0 317 180 721q-18 -6 -31 -6q-49 0 -49 25q0 12 33 57q151 213 356 213q183 0 267 -154q67 -121 67 -319q0 -289 -106 -500q-124 -257 -371 -328q-57 -16 -117 -16q-229 0 -229 307zM217 322q0 -275 152 -275q22 0 94 27q189 71 289 321q79 198 79 441 q0 347 -169 417q-25 13 -56 13q-67 0 -139 -60q-54 -91 -97.5 -195.5t-78.5 -232.5q-74 -263 -74 -456zM610 1412q0 7 18 18q8 3 40 26t90 66q87 63 135 70h4q61 0 61 -25q0 -14 -55 -47q-29 -20 -55.5 -38.5t-55.5 -39.5q-83 -53 -116 -53h-5q-61 0 -61 23z" />
<glyph unicode="&#xd4;" horiz-adv-x="860" d="M121 307q0 317 180 721q-18 -6 -31 -6q-49 0 -49 25q0 12 33 57q151 213 356 213q183 0 267 -154q67 -121 67 -319q0 -289 -106 -500q-124 -257 -371 -328q-57 -16 -117 -16q-229 0 -229 307zM217 322q0 -275 152 -275q22 0 94 27q189 71 289 321q79 198 79 441 q0 347 -169 417q-25 13 -56 13q-67 0 -139 -60q-54 -91 -97.5 -195.5t-78.5 -232.5q-74 -263 -74 -456zM441 1376q0 7 77 111q79 103 98 122t46 19q22 0 53 -14q39 -23 90 -105q56 -86 56 -122q0 -21 -60 -21q-21 0 -74 74q-14 23 -30 47t-35 49q-35 -37 -77 -78t-93 -86 q-17 -6 -31 -6q-20 0 -20 10z" />
<glyph unicode="&#xd5;" horiz-adv-x="860" d="M121 307q0 317 180 721q-18 -6 -31 -6q-49 0 -49 25q0 12 33 57q151 213 356 213q183 0 267 -154q67 -121 67 -319q0 -289 -106 -500q-124 -257 -371 -328q-57 -16 -117 -16q-229 0 -229 307zM217 322q0 -275 152 -275q22 0 94 27q189 71 289 321q79 198 79 441 q0 347 -169 417q-25 13 -56 13q-67 0 -139 -60q-54 -91 -97.5 -195.5t-78.5 -232.5q-74 -263 -74 -456zM342 1395q0 78 89 141q83 62 163 62q74 0 103 -50q2 -4 7 -27t13 -65q7 -49 47 -49q45 0 80 47q15 23 28 43.5t28 40.5q19 27 63 27q45 0 45 -31q0 -81 -96 -133 q-86 -47 -170 -47q-89 0 -121 41q-19 25 -20 84q-3 53 -25 69q-26 -6 -52 -23t-49 -40t-41 -49.5t-26 -50.5q-27 -13 -49 -13q-17 0 -17 23z" />
<glyph unicode="&#xd6;" horiz-adv-x="860" d="M121 307q0 317 180 721q-18 -6 -31 -6q-49 0 -49 25q0 12 33 57q151 213 356 213q183 0 267 -154q67 -121 67 -319q0 -289 -106 -500q-124 -257 -371 -328q-57 -16 -117 -16q-229 0 -229 307zM217 322q0 -275 152 -275q22 0 94 27q189 71 289 321q79 198 79 441 q0 347 -169 417q-25 13 -56 13q-67 0 -139 -60q-54 -91 -97.5 -195.5t-78.5 -232.5q-74 -263 -74 -456zM422 1434q0 43 23.5 74.5t66.5 31.5q18 0 36 -5t31.5 -15t22 -23.5t8.5 -31.5q0 -16 -10.5 -29.5t-26.5 -24t-35.5 -16.5t-38.5 -6q-77 0 -77 45zM739 1444q0 17 10 37 l8 25l3.5 7t3.5 5q6 27 69 27q37 0 64 -13q37 -16 37 -45q0 -39 -48 -63q-41 -23 -84 -23q-63 0 -63 43z" />
<glyph unicode="&#xd7;" horiz-adv-x="614" d="M203 776q0 21 53 21q78 0 188 -86q144 135 203 135q47 0 47 -17l-4 -4q-10 -10 -56.5 -50.5t-131.5 -112.5q129 -123 129 -185q0 -26 -51 -26q-36 0 -52 16q-9 9 -21 26.5t-26 43.5q-24 53 -43 69q-170 -149 -223 -149q-10 0 -10 10q0 3 0.5 7t1.5 9q5 18 182 174 q-117 111 -174 111q-12 0 -12 8z" />
<glyph unicode="&#xd8;" horiz-adv-x="860" d="M80 27q0 9 65 116q-24 67 -24 164q0 317 180 721q-18 -6 -31 -6q-49 0 -49 25q0 12 33 57q151 213 356 213q127 0 207 -74q31 60 49 60q20 0 46 -12q26 -11 26 -29q0 -8 -61 -99q67 -121 67 -319q0 -289 -106 -500q-124 -251 -371 -328q-51 -16 -117 -16q-100 0 -160 66 q-44 -77 -65 -77q-45 0 -45 38zM217 324q0 -2 1 -16.5t3 -41.5l545 893q-57 107 -160 107q-67 0 -139 -60q-103 -178 -176 -426q-74 -263 -74 -456zM242 150q34 -103 127 -103q22 0 94 27q186 69 289 319q79 195 79 438q0 127 -26 226q-144 -224 -282.5 -449.5 t-280.5 -457.5z" />
<glyph unicode="&#xd9;" horiz-adv-x="854" d="M139 403q0 137 51 322q23 81 44.5 160t44.5 157q7 42 21 104.5t34 147.5q18 9 43 9q22 0 22 -70q0 -28 -2 -53.5t-6 -49.5q-4 -26 -25 -112.5t-63 -243.5q-55 -219 -55 -358q0 -96 26 -174q70 -193 193 -193q96 0 186 121q69 93 101 244q10 66 20 130t21 130q4 28 19 121 t42 258q4 34 13.5 86.5t19.5 122.5q17 65 69 65t52 -41q0 -29 -9 -103t-28 -192q-23 -150 -44.5 -277.5t-41.5 -248.5q-66 -351 -297 -445q-69 -23 -127 -23q-100 0 -176.5 57t-116.5 157q-31 78 -31 192zM463 1575q0 27 55 27q10 0 25 -4q34 -11 90 -60q10 -8 19.5 -16.5 t19.5 -18.5l39 -38q36 -32 36 -41q0 -29 -57 -29q-55 0 -119 67q-74 80 -102 95q-6 7 -6 18z" />
<glyph unicode="&#xda;" horiz-adv-x="854" d="M139 403q0 137 51 322q23 81 44.5 160t44.5 157q7 42 21 104.5t34 147.5q18 9 43 9q22 0 22 -70q0 -28 -2 -53.5t-6 -49.5q-4 -26 -25 -112.5t-63 -243.5q-55 -219 -55 -358q0 -96 26 -174q70 -193 193 -193q96 0 186 121q69 93 101 244q10 66 20 130t21 130q4 28 19 121 t42 258q4 34 13.5 86.5t19.5 122.5q17 65 69 65t52 -41q0 -29 -9 -103t-28 -192q-23 -150 -44.5 -277.5t-41.5 -248.5q-66 -351 -297 -445q-69 -23 -127 -23q-100 0 -176.5 57t-116.5 157q-31 78 -31 192zM670 1442q0 7 18 18q8 3 40 26t90 66q87 63 135 70h4q61 0 61 -25 q0 -14 -55 -47q-29 -20 -55.5 -38.5t-55.5 -39.5q-83 -53 -116 -53h-5q-61 0 -61 23z" />
<glyph unicode="&#xdb;" horiz-adv-x="854" d="M139 403q0 137 51 322q23 81 44.5 160t44.5 157q7 42 21 104.5t34 147.5q18 9 43 9q22 0 22 -70q0 -28 -2 -53.5t-6 -49.5q-4 -26 -25 -112.5t-63 -243.5q-55 -219 -55 -358q0 -96 26 -174q70 -193 193 -193q96 0 186 121q69 93 101 244q10 66 20 130t21 130q4 28 19 121 t42 258q4 34 13.5 86.5t19.5 122.5q17 65 69 65t52 -41q0 -29 -9 -103t-28 -192q-23 -150 -44.5 -277.5t-41.5 -248.5q-66 -351 -297 -445q-69 -23 -127 -23q-100 0 -176.5 57t-116.5 157q-31 78 -31 192zM463 1376q0 7 77 111q79 103 98 122t46 19q22 0 53 -14 q39 -23 90 -105q56 -86 56 -122q0 -21 -60 -21q-21 0 -74 74q-14 23 -30 47t-35 49q-35 -37 -77 -78t-93 -86q-17 -6 -31 -6q-20 0 -20 10z" />
<glyph unicode="&#xdc;" horiz-adv-x="854" d="M139 403q0 137 51 322q23 81 44.5 160t44.5 157q7 42 21 104.5t34 147.5q18 9 43 9q22 0 22 -70q0 -28 -2 -53.5t-6 -49.5q-4 -26 -25 -112.5t-63 -243.5q-55 -219 -55 -358q0 -96 26 -174q70 -193 193 -193q96 0 186 121q69 93 101 244q10 66 20 130t21 130q4 28 19 121 t42 258q4 34 13.5 86.5t19.5 122.5q17 65 69 65t52 -41q0 -29 -9 -103t-28 -192q-23 -150 -44.5 -277.5t-41.5 -248.5q-66 -351 -297 -445q-69 -23 -127 -23q-100 0 -176.5 57t-116.5 157q-31 78 -31 192zM433 1454q0 43 23.5 74.5t66.5 31.5q18 0 36 -5t31.5 -15t22 -23.5 t8.5 -31.5q0 -16 -10.5 -29.5t-26.5 -24t-35.5 -16.5t-38.5 -6q-77 0 -77 45zM750 1464q0 17 10 37l8 25l3.5 7t3.5 5q6 27 69 27q37 0 64 -13q37 -16 37 -45q0 -39 -48 -63q-41 -23 -84 -23q-63 0 -63 43z" />
<glyph unicode="&#xdd;" horiz-adv-x="784" d="M84 -210q43 64 104.5 159t143.5 231q22 39 54 105.5t77 160.5q-31 143 -86 322t-133 406q-25 69 -25 104q0 15 1.5 22.5t7 11.5t14.5 4.5t24 0.5q16 0 72 -158q27 -72 53.5 -141t52.5 -141q31 -87 52.5 -158t33.5 -131q60 121 111.5 217.5t97.5 169.5q60 94 129 178.5 t148 165.5q12 2 22.5 3t18.5 1q14 0 12 -8q-73 -91 -137.5 -186.5t-124.5 -198.5q-39 -70 -86 -164t-105 -221q-66 -145 -110.5 -240t-73.5 -149q-91 -174 -152 -268.5t-92 -111.5q-26 -15 -59 -15q-50 0 -45 23v6zM657 1418q0 7 18 18q8 3 40 26t90 66q87 63 135 70h4 q61 0 61 -25q0 -14 -55 -47q-29 -20 -55.5 -38.5t-55.5 -39.5q-83 -53 -116 -53h-5q-61 0 -61 23z" />
<glyph unicode="&#xe0;" horiz-adv-x="641" d="M68 160q0 30 16 63q52 121 180 211q125 92 254 92q28 0 57 -8q15 43 15 92q0 138 -90 138q-55 0 -125 -54q-42 -30 -53 -47q-11 -14 -19 -27.5t-16 -27.5q-11 -12 -27 -12q-35 0 -35 32q0 73 109 131q94 52 176 52q192 0 192 -191q0 -62 -47 -209q-47 -146 -47 -205 q0 -65 41 -127q39 -55 43 -55q-1 -19 -59 -19q-73 0 -119 70q-98 -59 -211 -59q-86 0 -153 37q-82 43 -82 123zM188 158q0 -109 129 -109q83 0 177 64q-7 21 -7 53q0 61 72 295q-29 4 -42 6.5t-9 3.5q-94 -1 -205 -111q-115 -109 -115 -202zM314 1086q0 27 55 27q10 0 25 -4 q34 -11 90 -60q10 -8 19.5 -16.5t19.5 -18.5l39 -38q36 -32 36 -41q0 -29 -57 -29q-55 0 -119 67q-74 80 -102 95q-6 7 -6 18z" />
<glyph unicode="&#xe1;" horiz-adv-x="641" d="M68 160q0 30 16 63q52 121 180 211q125 92 254 92q28 0 57 -8q15 43 15 92q0 138 -90 138q-55 0 -125 -54q-42 -30 -53 -47q-11 -14 -19 -27.5t-16 -27.5q-11 -12 -27 -12q-35 0 -35 32q0 73 109 131q94 52 176 52q192 0 192 -191q0 -62 -47 -209q-47 -146 -47 -205 q0 -65 41 -127q39 -55 43 -55q-1 -19 -59 -19q-73 0 -119 70q-98 -59 -211 -59q-86 0 -153 37q-82 43 -82 123zM188 158q0 -109 129 -109q83 0 177 64q-7 21 -7 53q0 61 72 295q-29 4 -42 6.5t-9 3.5q-94 -1 -205 -111q-115 -109 -115 -202zM457 910q0 7 18 18q8 3 40 26 t90 66q87 63 135 70h4q61 0 61 -25q0 -14 -55 -47q-29 -20 -55.5 -38.5t-55.5 -39.5q-83 -53 -116 -53h-5q-61 0 -61 23z" />
<glyph unicode="&#xe2;" horiz-adv-x="641" d="M68 160q0 30 16 63q52 121 180 211q125 92 254 92q28 0 57 -8q15 43 15 92q0 138 -90 138q-55 0 -125 -54q-42 -30 -53 -47q-11 -14 -19 -27.5t-16 -27.5q-11 -12 -27 -12q-35 0 -35 32q0 73 109 131q94 52 176 52q192 0 192 -191q0 -62 -47 -209q-47 -146 -47 -205 q0 -65 41 -127q39 -55 43 -55q-1 -19 -59 -19q-73 0 -119 70q-98 -59 -211 -59q-86 0 -153 37q-82 43 -82 123zM188 158q0 -109 129 -109q83 0 177 64q-7 21 -7 53q0 61 72 295q-29 4 -42 6.5t-9 3.5q-94 -1 -205 -111q-115 -109 -115 -202zM312 859q0 7 77 111 q79 103 98 122t46 19q22 0 53 -14q39 -23 90 -105q56 -86 56 -122q0 -21 -60 -21q-21 0 -74 74q-14 23 -30 47t-35 49q-35 -37 -77 -78t-93 -86q-17 -6 -31 -6q-20 0 -20 10z" />
<glyph unicode="&#xe3;" horiz-adv-x="641" d="M68 160q0 30 16 63q52 121 180 211q125 92 254 92q28 0 57 -8q15 43 15 92q0 138 -90 138q-55 0 -125 -54q-42 -30 -53 -47q-11 -14 -19 -27.5t-16 -27.5q-11 -12 -27 -12q-35 0 -35 32q0 73 109 131q94 52 176 52q192 0 192 -191q0 -62 -47 -209q-47 -146 -47 -205 q0 -65 41 -127q39 -55 43 -55q-1 -19 -59 -19q-73 0 -119 70q-98 -59 -211 -59q-86 0 -153 37q-82 43 -82 123zM188 158q0 -109 129 -109q83 0 177 64q-7 21 -7 53q0 61 72 295q-29 4 -42 6.5t-9 3.5q-94 -1 -205 -111q-115 -109 -115 -202zM188 948q0 78 89 141 q83 62 163 62q74 0 103 -50q2 -4 7 -27t13 -65q7 -49 47 -49q45 0 80 47q15 23 28 43.5t28 40.5q19 27 63 27q45 0 45 -31q0 -81 -96 -133q-86 -47 -170 -47q-89 0 -121 41q-19 25 -20 84q-3 53 -25 69q-26 -6 -52 -23t-49 -40t-41 -49.5t-26 -50.5q-27 -13 -49 -13 q-17 0 -17 23z" />
<glyph unicode="&#xe4;" horiz-adv-x="641" d="M68 160q0 30 16 63q52 121 180 211q125 92 254 92q28 0 57 -8q15 43 15 92q0 138 -90 138q-55 0 -125 -54q-42 -30 -53 -47q-11 -14 -19 -27.5t-16 -27.5q-11 -12 -27 -12q-35 0 -35 32q0 73 109 131q94 52 176 52q192 0 192 -191q0 -62 -47 -209q-47 -146 -47 -205 q0 -65 41 -127q39 -55 43 -55q-1 -19 -59 -19q-73 0 -119 70q-98 -59 -211 -59q-86 0 -153 37q-82 43 -82 123zM188 158q0 -109 129 -109q83 0 177 64q-7 21 -7 53q0 61 72 295q-29 4 -42 6.5t-9 3.5q-94 -1 -205 -111q-115 -109 -115 -202zM283 929q0 43 23.5 74.5 t66.5 31.5q18 0 36 -5t31.5 -15t22 -23.5t8.5 -31.5q0 -16 -10.5 -29.5t-26.5 -24t-35.5 -16.5t-38.5 -6q-77 0 -77 45zM600 939q0 17 10 37l8 25l3.5 7t3.5 5q6 27 69 27q37 0 64 -13q37 -16 37 -45q0 -39 -48 -63q-41 -23 -84 -23q-63 0 -63 43z" />
<glyph unicode="&#xe5;" horiz-adv-x="641" d="M68 160q0 30 16 63q52 121 180 211q125 92 254 92q28 0 57 -8q15 43 15 92q0 138 -90 138q-55 0 -125 -54q-42 -30 -53 -47q-11 -14 -19 -27.5t-16 -27.5q-11 -12 -27 -12q-35 0 -35 32q0 73 109 131q94 52 176 52q192 0 192 -191q0 -62 -47 -209q-47 -146 -47 -205 q0 -65 41 -127q39 -55 43 -55q-1 -19 -59 -19q-73 0 -119 70q-98 -59 -211 -59q-86 0 -153 37q-82 43 -82 123zM188 158q0 -109 129 -109q83 0 177 64q-7 21 -7 53q0 61 72 295q-29 4 -42 6.5t-9 3.5q-94 -1 -205 -111q-115 -109 -115 -202zM393 970q0 57 66 116 q61 58 125 58q47 0 94 -29q53 -32 53 -76q0 -65 -78 -119q-69 -45 -139 -45q-121 0 -121 95zM487 998q0 -38 37 -69q105 45 105 102q0 22 -68 57q-20 -20 -45 -39q-29 -32 -29 -51z" />
<glyph unicode="&#xe6;" horiz-adv-x="1042" d="M68 154q0 28 16 67q50 118 180 209q127 90 254 90q17 0 31 -1t24 -3q17 57 17 90q0 135 -90 135q-54 0 -131 -53q-74 -51 -84 -102q-23 -6 -41 -6q-19 0 -19 30q0 71 109 129q94 52 176 52q152 0 184 -132q105 134 234 134q79 0 132 -44q52 -43 52 -122q0 -119 -102 -246 q-105 -135 -222 -135q-42 0 -79 22q-7 7 -7 15q0 22 50 22q22 0 41 -10q73 22 137 139q59 113 59 193q0 92 -69 110q-26 -8 -58 -35q-90 -84 -164 -245q-71 -171 -71 -287q0 -111 65 -111q52 0 168 39q82 29 126 43.5t48 16.5q10 2 17.5 3t11.5 1q49 0 49 -23q0 -11 -18 -18 q-27 -15 -84 -34t-148 -48q-188 -56 -231 -56q-68 0 -117 72q-98 -60 -213 -60q-87 0 -151 34q-82 45 -82 125zM186 152q0 -107 131 -107q84 0 175 61q-3 11 -4 24t-1 30q0 81 70 297q-44 10 -96 10q-47 0 -160 -113q-115 -109 -115 -202z" />
<glyph unicode="&#xe7;" horiz-adv-x="565" d="M27 -300q25 16 41 16q9 0 20 -2t22.5 -5t23 -5t20.5 -2q82 0 82 73q0 48 -70 78q-70 27 -70 37q0 9 27 65q14 28 21.5 45.5t11.5 21.5q18 23 57 23q47 0 47 -31q0 -41 -39 -110q121 -43 121 -120q0 -60 -66 -97q-56 -30 -118 -30q-82 0 -131 43zM92 254q0 231 150 408 q103 124 217 124q81 0 121 -67q32 -59 32 -141q0 -142 -59 -142q-25 0 -25 23v26q1 5 1.5 9.5t0.5 7.5v10q0 197 -79 227q-37 -10 -80 -59q-158 -176 -158 -418q0 -209 111 -209q49 0 135 56q82 57 123 57q59 0 59 -19q0 -4 -10 -14q-57 -54 -146 -94q-90 -39 -168 -39 q-225 0 -225 254z" />
<glyph unicode="&#xe8;" d="M68 160q0 28 6 69q31 187 135 351q128 206 285 206q39 0 72.5 -11t58 -32t38 -52t13.5 -70q0 -121 -98 -246q-109 -133 -224 -133q-24 0 -51 10q-37 7 -37 29q0 18 51 18q24 0 43 -10q73 19 138 137q59 110 59 192q0 95 -72 113q-105 -41 -202 -246q-90 -192 -90 -317 q0 -113 61 -113q70 0 190 51q119 52 187 52q47 0 47 -25q0 -9 -19 -16q-231 -117 -407 -117q-184 0 -184 160zM328 1070q0 27 55 27q10 0 25 -4q34 -11 90 -60q10 -8 19.5 -16.5t19.5 -18.5l39 -38q36 -32 36 -41q0 -29 -57 -29q-55 0 -119 67q-74 80 -102 95q-6 7 -6 18z " />
<glyph unicode="&#xe9;" d="M68 160q0 28 6 69q31 187 135 351q128 206 285 206q39 0 72.5 -11t58 -32t38 -52t13.5 -70q0 -121 -98 -246q-109 -133 -224 -133q-24 0 -51 10q-37 7 -37 29q0 18 51 18q24 0 43 -10q73 19 138 137q59 110 59 192q0 95 -72 113q-105 -41 -202 -246q-90 -192 -90 -317 q0 -113 61 -113q70 0 190 51q119 52 187 52q47 0 47 -25q0 -9 -19 -16q-231 -117 -407 -117q-184 0 -184 160zM408 914q0 7 18 18q8 3 40 26t90 66q87 63 135 70h4q61 0 61 -25q0 -14 -55 -47q-29 -20 -55.5 -38.5t-55.5 -39.5q-83 -53 -116 -53h-5q-61 0 -61 23z" />
<glyph unicode="&#xea;" d="M68 160q0 28 6 69q31 187 135 351q128 206 285 206q39 0 72.5 -11t58 -32t38 -52t13.5 -70q0 -121 -98 -246q-109 -133 -224 -133q-24 0 -51 10q-37 7 -37 29q0 18 51 18q24 0 43 -10q73 19 138 137q59 110 59 192q0 95 -72 113q-105 -41 -202 -246q-90 -192 -90 -317 q0 -113 61 -113q70 0 190 51q119 52 187 52q47 0 47 -25q0 -9 -19 -16q-231 -117 -407 -117q-184 0 -184 160zM279 849q0 7 77 111q79 103 98 122t46 19q22 0 53 -14q39 -23 90 -105q56 -86 56 -122q0 -21 -60 -21q-21 0 -74 74q-14 23 -30 47t-35 49q-35 -37 -77 -78 t-93 -86q-17 -6 -31 -6q-20 0 -20 10z" />
<glyph unicode="&#xeb;" d="M68 160q0 28 6 69q31 187 135 351q128 206 285 206q39 0 72.5 -11t58 -32t38 -52t13.5 -70q0 -121 -98 -246q-109 -133 -224 -133q-24 0 -51 10q-37 7 -37 29q0 18 51 18q24 0 43 -10q73 19 138 137q59 110 59 192q0 95 -72 113q-105 -41 -202 -246q-90 -192 -90 -317 q0 -113 61 -113q70 0 190 51q119 52 187 52q47 0 47 -25q0 -9 -19 -16q-231 -117 -407 -117q-184 0 -184 160zM272 918q0 43 23.5 74.5t66.5 31.5q18 0 36 -5t31.5 -15t22 -23.5t8.5 -31.5q0 -16 -10.5 -29.5t-26.5 -24t-35.5 -16.5t-38.5 -6q-77 0 -77 45zM589 928 q0 17 10 37l8 25l3.5 7t3.5 5q6 27 69 27q37 0 64 -13q37 -16 37 -45q0 -39 -48 -63q-41 -23 -84 -23q-63 0 -63 43z" />
<glyph unicode="&#xec;" horiz-adv-x="254" d="M78 35q0 6 1 16t3 25q18 69 43 171t53 247q1 9 7.5 55.5t17.5 134.5q2 28 12 80q10 22 51 22q58 0 58 -57q0 -35 -4.5 -73.5t-12.5 -86.5q-8 -45 -27.5 -119.5t-48.5 -183.5q-68 -248 -92 -266q-10 -7 -30 -7q-31 0 -31 42zM102 1072q0 27 55 27q10 0 25 -4 q34 -11 90 -60q10 -8 19.5 -16.5t19.5 -18.5l39 -38q36 -32 36 -41q0 -29 -57 -29q-55 0 -119 67q-74 80 -102 95q-6 7 -6 18z" />
<glyph unicode="&#xed;" horiz-adv-x="254" d="M78 35q0 6 1 16t3 25q18 69 43 171t53 247q1 9 7.5 55.5t17.5 134.5q2 28 12 80q10 22 51 22q58 0 58 -57q0 -35 -4.5 -73.5t-12.5 -86.5q-8 -45 -27.5 -119.5t-48.5 -183.5q-68 -248 -92 -266q-10 -7 -30 -7q-31 0 -31 42zM224 925q0 7 18 18q8 3 40 26t90 66 q87 63 135 70h4q61 0 61 -25q0 -14 -55 -47q-29 -20 -55.5 -38.5t-55.5 -39.5q-83 -53 -116 -53h-5q-61 0 -61 23z" />
<glyph unicode="&#xee;" horiz-adv-x="254" d="M78 35q0 6 1 16t3 25q18 69 43 171t53 247q1 9 7.5 55.5t17.5 134.5q2 28 12 80q10 22 51 22q58 0 58 -57q0 -35 -4.5 -73.5t-12.5 -86.5q-8 -45 -27.5 -119.5t-48.5 -183.5q-68 -248 -92 -266q-10 -7 -30 -7q-31 0 -31 42zM93 822q0 7 77 111q79 103 98 122t46 19 q22 0 53 -14q39 -23 90 -105q56 -86 56 -122q0 -21 -60 -21q-21 0 -74 74q-14 23 -30 47t-35 49q-35 -37 -77 -78t-93 -86q-17 -6 -31 -6q-20 0 -20 10z" />
<glyph unicode="&#xef;" horiz-adv-x="254" d="M65 929q0 43 23.5 74.5t66.5 31.5q18 0 36 -5t31.5 -15t22 -23.5t8.5 -31.5q0 -16 -10.5 -29.5t-26.5 -24t-35.5 -16.5t-38.5 -6q-77 0 -77 45zM78 35q0 6 1 16t3 25q18 69 43 171t53 247q1 9 7.5 55.5t17.5 134.5q2 28 12 80q10 22 51 22q58 0 58 -57q0 -35 -4.5 -73.5 t-12.5 -86.5q-8 -45 -27.5 -119.5t-48.5 -183.5q-68 -248 -92 -266q-10 -7 -30 -7q-31 0 -31 42zM382 939q0 17 10 37l8 25l3.5 7t3.5 5q6 27 69 27q37 0 64 -13q37 -16 37 -45q0 -39 -48 -63q-41 -23 -84 -23q-63 0 -63 43z" />
<glyph unicode="&#xf1;" horiz-adv-x="649" d="M88 14q0 1 1 12l3 33l17 129q7 94 22.5 230.5t38.5 324.5q7 52 59 52q45 0 45 -29q0 2 -3 -22t-11 -72q105 112 250 112q56 0 92 -14q86 -41 86 -221q0 -48 -9 -116.5t-26 -168.5q-6 -35 -15 -85t-22 -116q-2 -14 -6 -34.5t-10 -45.5q-6 -23 -51 -23q-51 0 -51 39 q0 54 18 144l33 148q16 87 23.5 154.5t7.5 117.5q0 176 -82 176q-86 0 -170 -102q-75 -87 -95 -184q-8 -60 -16 -121.5t-18 -122.5q-28 -195 -49 -212q-10 -10 -35 -10q-27 0 -27 27zM180 940q0 78 89 141q83 62 163 62q74 0 103 -50q2 -4 7 -27t13 -65q7 -49 47 -49 q45 0 80 47q15 23 28 43.5t28 40.5q19 27 63 27q45 0 45 -31q0 -81 -96 -133q-86 -47 -170 -47q-89 0 -121 41q-19 25 -20 84q-3 53 -25 69q-26 -6 -52 -23t-49 -40t-41 -49.5t-26 -50.5q-27 -13 -49 -13q-17 0 -17 23z" />
<glyph unicode="&#xf2;" horiz-adv-x="621" d="M78 162q0 207 145 424q-51 0 -51 22l2 6q41 72 119 125q82 54 158 54q115 0 174 -101q47 -83 47 -203q0 -172 -92 -309q-95 -140 -261 -180q-25 -5 -44 -8t-33 -3q-164 0 -164 173zM180 184q0 -147 70 -147q104 0 194 123q76 100 99 219q4 22 6 46t2 52q0 168 -68 236 q-29 24 -37 24q-24 0 -71 -35l8 -8q-4 -4 -14.5 -15t-26.5 -34q-59 -76 -113 -219q-49 -141 -49 -242zM301 1068q0 27 55 27q10 0 25 -4q34 -11 90 -60q10 -8 19.5 -16.5t19.5 -18.5l39 -38q36 -32 36 -41q0 -29 -57 -29q-55 0 -119 67q-74 80 -102 95q-6 7 -6 18z" />
<glyph unicode="&#xf3;" horiz-adv-x="621" d="M78 162q0 207 145 424q-51 0 -51 22l2 6q41 72 119 125q82 54 158 54q115 0 174 -101q47 -83 47 -203q0 -172 -92 -309q-95 -140 -261 -180q-25 -5 -44 -8t-33 -3q-164 0 -164 173zM180 184q0 -147 70 -147q104 0 194 123q76 100 99 219q4 22 6 46t2 52q0 168 -68 236 q-29 24 -37 24q-24 0 -71 -35l8 -8q-4 -4 -14.5 -15t-26.5 -34q-59 -76 -113 -219q-49 -141 -49 -242zM405 916q0 7 18 18q8 3 40 26t90 66q87 63 135 70h4q61 0 61 -25q0 -14 -55 -47q-29 -20 -55.5 -38.5t-55.5 -39.5q-83 -53 -116 -53h-5q-61 0 -61 23z" />
<glyph unicode="&#xf4;" horiz-adv-x="621" d="M78 162q0 207 145 424q-51 0 -51 22l2 6q41 72 119 125q82 54 158 54q115 0 174 -101q47 -83 47 -203q0 -172 -92 -309q-95 -140 -261 -180q-25 -5 -44 -8t-33 -3q-164 0 -164 173zM180 184q0 -147 70 -147q104 0 194 123q76 100 99 219q4 22 6 46t2 52q0 168 -68 236 q-29 24 -37 24q-24 0 -71 -35l8 -8q-4 -4 -14.5 -15t-26.5 -34q-59 -76 -113 -219q-49 -141 -49 -242zM277 857q0 7 77 111q79 103 98 122t46 19q22 0 53 -14q39 -23 90 -105q56 -86 56 -122q0 -21 -60 -21q-21 0 -74 74q-14 23 -30 47t-35 49q-35 -37 -77 -78t-93 -86 q-17 -6 -31 -6q-20 0 -20 10z" />
<glyph unicode="&#xf5;" horiz-adv-x="621" d="M78 162q0 207 145 424q-51 0 -51 22l2 6q41 72 119 125q82 54 158 54q115 0 174 -101q47 -83 47 -203q0 -172 -92 -309q-95 -140 -261 -180q-25 -5 -44 -8t-33 -3q-164 0 -164 173zM157 901q0 78 89 141q83 62 163 62q74 0 103 -50q2 -4 7 -27t13 -65q7 -49 47 -49 q45 0 80 47q15 23 28 43.5t28 40.5q19 27 63 27q45 0 45 -31q0 -81 -96 -133q-86 -47 -170 -47q-89 0 -121 41q-19 25 -20 84q-3 53 -25 69q-26 -6 -52 -23t-49 -40t-41 -49.5t-26 -50.5q-27 -13 -49 -13q-17 0 -17 23zM180 184q0 -147 70 -147q104 0 194 123q76 100 99 219 q4 22 6 46t2 52q0 168 -68 236q-29 24 -37 24q-24 0 -71 -35l8 -8q-4 -4 -14.5 -15t-26.5 -34q-59 -76 -113 -219q-49 -141 -49 -242z" />
<glyph unicode="&#xf6;" horiz-adv-x="621" d="M78 162q0 207 145 424q-51 0 -51 22l2 6q41 72 119 125q82 54 158 54q115 0 174 -101q47 -83 47 -203q0 -172 -92 -309q-95 -140 -261 -180q-25 -5 -44 -8t-33 -3q-164 0 -164 173zM180 184q0 -147 70 -147q104 0 194 123q76 100 99 219q4 22 6 46t2 52q0 168 -68 236 q-29 24 -37 24q-24 0 -71 -35l8 -8q-4 -4 -14.5 -15t-26.5 -34q-59 -76 -113 -219q-49 -141 -49 -242zM237 933q0 43 23.5 74.5t66.5 31.5q18 0 36 -5t31.5 -15t22 -23.5t8.5 -31.5q0 -16 -10.5 -29.5t-26.5 -24t-35.5 -16.5t-38.5 -6q-77 0 -77 45zM554 943q0 17 10 37 l8 25l3.5 7t3.5 5q6 27 69 27q37 0 64 -13q37 -16 37 -45q0 -39 -48 -63q-41 -23 -84 -23q-63 0 -63 43z" />
<glyph unicode="&#xf7;" d="M176 621q22 22 146 22h55q17 0 37 -0.5t43 -1.5h137q55 0 55 -27q0 -30 -108 -30q-54 0 -135 6q-52 4 -85.5 5t-50.5 3q-93 5 -94 23zM291 385v2q5 44 22 57q17 11 56 11q49 0 49 -27q0 -5 -4 -18q-20 -50 -74 -50q-49 0 -49 25zM365 766q0 35 23.5 58.5t55.5 23.5 q70 0 70 -39q0 -23 -16 -33q-28 -31 -80 -31q-53 0 -53 21z" />
<glyph unicode="&#xf8;" horiz-adv-x="621" d="M59 2q0 12 39 59q-20 43 -20 101q0 207 145 424q-51 0 -51 22l2 6q32 71 115 123q83 56 162 56q75 0 127 -43q43 69 61 69q53 0 53 -33q0 -2 -65 -94q45 -77 45 -198q0 -179 -90 -312q-95 -137 -263 -182q-25 -5 -44 -8t-33 -3q-46 0 -86 17q-28 -40 -52 -40 q-45 0 -45 36zM180 180q68 99 152 217.5t186 266.5q-37 73 -72 73q-24 0 -71 -35l8 -8q-4 -4 -14.5 -16t-26.5 -33q-60 -69 -113 -217q-49 -141 -49 -242v-6zM199 68q13 -31 51 -31q104 0 196 123q75 99 97 219q4 24 6 49t2 49q0 25 -2 49.5t-6 48.5q-58 -87 -142.5 -211.5 t-201.5 -295.5z" />
<glyph unicode="&#xf9;" horiz-adv-x="657" d="M78 182q0 20 2.5 41.5t7.5 44.5q8 47 27.5 115.5t48.5 159.5q69 212 108 241q10 9 31 9q23 0 23 -21q0 -26 -58 -194q-86 -261 -86 -388q0 -110 70 -137q68 0 172 86q78 72 131 152q52 435 84 473q18 22 59 22q45 0 45 -32q0 -20 -8 -52q-12 -44 -12 -51l-16 -88 q-14 -78 -26.5 -184.5t-23.5 -249.5q0 -44 -12 -123q-6 -23 -51 -23q-57 0 -57 66v21q1 11 2 27t2 36q-140 -131 -291 -131q-172 0 -172 180zM324 1088q0 27 55 27q10 0 25 -4q34 -11 90 -60q10 -8 19.5 -16.5t19.5 -18.5l39 -38q36 -32 36 -41q0 -29 -57 -29q-55 0 -119 67 q-74 80 -102 95q-6 7 -6 18z" />
<glyph unicode="&#xfa;" horiz-adv-x="657" d="M78 182q0 20 2.5 41.5t7.5 44.5q8 47 27.5 115.5t48.5 159.5q69 212 108 241q10 9 31 9q23 0 23 -21q0 -26 -58 -194q-86 -261 -86 -388q0 -110 70 -137q68 0 172 86q78 72 131 152q52 435 84 473q18 22 59 22q45 0 45 -32q0 -20 -8 -52q-12 -44 -12 -51l-16 -88 q-14 -78 -26.5 -184.5t-23.5 -249.5q0 -44 -12 -123q-6 -23 -51 -23q-57 0 -57 66v21q1 11 2 27t2 36q-140 -131 -291 -131q-172 0 -172 180zM442 926q0 7 18 18q8 3 40 26t90 66q87 63 135 70h4q61 0 61 -25q0 -14 -55 -47q-29 -20 -55.5 -38.5t-55.5 -39.5 q-83 -53 -116 -53h-5q-61 0 -61 23z" />
<glyph unicode="&#xfb;" horiz-adv-x="657" d="M78 182q0 20 2.5 41.5t7.5 44.5q8 47 27.5 115.5t48.5 159.5q69 212 108 241q10 9 31 9q23 0 23 -21q0 -26 -58 -194q-86 -261 -86 -388q0 -110 70 -137q68 0 172 86q78 72 131 152q52 435 84 473q18 22 59 22q45 0 45 -32q0 -20 -8 -52q-12 -44 -12 -51l-16 -88 q-14 -78 -26.5 -184.5t-23.5 -249.5q0 -44 -12 -123q-6 -23 -51 -23q-57 0 -57 66v21q1 11 2 27t2 36q-140 -131 -291 -131q-172 0 -172 180zM242 887q0 7 77 111q79 103 98 122t46 19q22 0 53 -14q39 -23 90 -105q56 -86 56 -122q0 -21 -60 -21q-21 0 -74 74q-14 23 -30 47 t-35 49q-35 -37 -77 -78t-93 -86q-17 -6 -31 -6q-20 0 -20 10z" />
<glyph unicode="&#xfc;" horiz-adv-x="657" d="M78 182q0 20 2.5 41.5t7.5 44.5q8 47 27.5 115.5t48.5 159.5q69 212 108 241q10 9 31 9q23 0 23 -21q0 -26 -58 -194q-86 -261 -86 -388q0 -110 70 -137q68 0 172 86q78 72 131 152q52 435 84 473q18 22 59 22q45 0 45 -32q0 -20 -8 -52q-12 -44 -12 -51l-16 -88 q-14 -78 -26.5 -184.5t-23.5 -249.5q0 -44 -12 -123q-6 -23 -51 -23q-57 0 -57 66v21q1 11 2 27t2 36q-140 -131 -291 -131q-172 0 -172 180zM297 959q0 43 23.5 74.5t66.5 31.5q18 0 36 -5t31.5 -15t22 -23.5t8.5 -31.5q0 -16 -10.5 -29.5t-26.5 -24t-35.5 -16.5t-38.5 -6 q-77 0 -77 45zM614 969q0 17 10 37l8 25l3.5 7t3.5 5q6 27 69 27q37 0 64 -13q37 -16 37 -45q0 -39 -48 -63q-41 -23 -84 -23q-63 0 -63 43z" />
<glyph unicode="&#xfd;" horiz-adv-x="532" d="M37 -316q0 20 49 20q8 0 25.5 -2t27.5 -2q185 0 275 300h-23q-272 0 -272 369q0 88 18 184q34 196 78 231q7 9 29 9q24 0 24 -15q0 -9 -14 -65q-6 -23 -14.5 -58.5t-18.5 -83.5q-14 -79 -14 -174q0 -364 170 -364q21 0 47 6q70 265 70 627q0 85 8 106q7 19 45 19 q33 0 39 -19q-4 -177 -8.5 -280.5t-8.5 -145.5q-26 -299 -108 -470q-106 -223 -305 -223q-119 0 -119 31zM356 905q0 7 18 18q8 3 40 26t90 66q87 63 135 70h4q61 0 61 -25q0 -14 -55 -47q-29 -20 -55.5 -38.5t-55.5 -39.5q-83 -53 -116 -53h-5q-61 0 -61 23z" />
<glyph unicode="&#xff;" horiz-adv-x="532" d="M37 -316q0 20 49 20q8 0 25.5 -2t27.5 -2q185 0 275 300h-23q-272 0 -272 369q0 88 18 184q34 196 78 231q7 9 29 9q24 0 24 -15q0 -9 -14 -65q-6 -23 -14.5 -58.5t-18.5 -83.5q-14 -79 -14 -174q0 -364 170 -364q21 0 47 6q70 265 70 627q0 85 8 106q7 19 45 19 q33 0 39 -19q-4 -177 -8.5 -280.5t-8.5 -145.5q-26 -299 -108 -470q-106 -223 -305 -223q-119 0 -119 31zM197 956q0 43 23.5 74.5t66.5 31.5q18 0 36 -5t31.5 -15t22 -23.5t8.5 -31.5q0 -16 -10.5 -29.5t-26.5 -24t-35.5 -16.5t-38.5 -6q-77 0 -77 45zM514 966q0 17 10 37 l8 25l3.5 7t3.5 5q6 27 69 27q37 0 64 -13q37 -16 37 -45q0 -39 -48 -63q-41 -23 -84 -23q-63 0 -63 43z" />
<glyph unicode="&#x152;" horiz-adv-x="1354" d="M100 295q0 207 131 528q145 343 297 432q-11 0 -53 -14q-33 -10 -53 -10q-47 0 -47 24q0 22 82 41q64 15 104 15q213 0 293 -240q2 4 9 41t24 107q1 23 12 67q11 29 66 29h61q18 0 40.5 0.5t45.5 1.5t45.5 1.5t40.5 0.5h62q204 0 204 -33l-4 -8q-20 -21 -61 -21h-205 q-45 -1 -80 -1.5t-61 -0.5h-66q-20 -88 -41.5 -216.5t-46.5 -305.5q103 16 196 23.5t181 7.5q45 0 45 -21q0 -15 -43 -22q-66 -8 -160.5 -19.5t-226.5 -27.5q-17 -136 -35 -247.5t-35 -205.5q-18 -104 -47 -176q17 1 41 1.5t53 0.5h144q305 0 305 -41q0 -19 -57 -19 q-58 0 -146 6q-54 4 -88.5 5.5t-54.5 1.5q-11 1 -24.5 1.5t-28.5 0.5h-72h-27q-15 0 -36 -1t-37 -1h-25q-33 0 -33 14q0 -7 14 35q5 14 14 64.5t23 138.5q-182 -255 -395 -255q-244 0 -244 298zM207 305q0 -94 26 -158q48 -102 117 -102q66 0 160 88q262 238 262 645 q0 402 -186 471q-142 -127 -262 -438q-117 -296 -117 -506z" />
<glyph unicode="&#x153;" horiz-adv-x="1040" d="M78 166q0 98 45 221q45 121 100 203q-51 0 -51 22l4 9q38 70 117 122q84 54 158 54q159 0 206 -185q118 181 269 181q40 0 73.5 -11t57.5 -32t37.5 -51.5t13.5 -69.5q0 -124 -100 -248q-110 -135 -224 -135q-40 0 -77 22q-5 18 -5 26q0 11 48 11q22 0 41 -10 q73 22 137 139q59 110 59 191q0 94 -69 112q-32 -11 -56 -35q-88 -81 -166 -247q-73 -159 -73 -283q0 -112 63 -113l-4 2q36 2 80 11.5t96 25.5q23 8 44.5 16t43.5 15l86 29q10 2 17.5 3t11.5 1q49 0 49 -23q0 -11 -18 -18q-236 -115 -410 -115q-150 0 -176 92 q-124 -103 -264 -103q-164 0 -164 171zM178 178q0 -82 37 -119q18 -20 35 -20q8 0 35 10q132 52 202 172q64 112 64 262q0 222 -107 258q-32 -11 -69 -39l6 -4q-8 -8 -17.5 -19t-21.5 -28q-33 -42 -60.5 -97.5t-54.5 -127.5q-49 -141 -49 -248z" />
<glyph unicode="&#x178;" horiz-adv-x="784" d="M84 -210q43 64 104.5 159t143.5 231q22 39 54 105.5t77 160.5q-31 143 -86 322t-133 406q-25 69 -25 104q0 15 1.5 22.5t7 11.5t14.5 4.5t24 0.5q16 0 72 -158q27 -72 53.5 -141t52.5 -141q31 -87 52.5 -158t33.5 -131q60 121 111.5 217.5t97.5 169.5q60 94 129 178.5 t148 165.5q12 2 22.5 3t18.5 1q14 0 12 -8q-73 -91 -137.5 -186.5t-124.5 -198.5q-39 -70 -86 -164t-105 -221q-66 -145 -110.5 -240t-73.5 -149q-91 -174 -152 -268.5t-92 -111.5q-26 -15 -59 -15q-50 0 -45 23v6zM437 1423q0 43 23.5 74.5t66.5 31.5q18 0 36 -5t31.5 -15 t22 -23.5t8.5 -31.5q0 -16 -10.5 -29.5t-26.5 -24t-35.5 -16.5t-38.5 -6q-77 0 -77 45zM754 1433q0 17 10 37l8 25l3.5 7t3.5 5q6 27 69 27q37 0 64 -13q37 -16 37 -45q0 -39 -48 -63q-41 -23 -84 -23q-63 0 -63 43z" />
<glyph unicode="&#x2c6;" horiz-adv-x="549" d="M242 993q0 7 77 111q79 103 98 122t46 19q22 0 53 -14q39 -23 90 -105q56 -86 56 -122q0 -21 -60 -21q-21 0 -74 74q-14 23 -30 47t-35 49q-35 -37 -77 -78t-93 -86q-17 -6 -31 -6q-20 0 -20 10z" />
<glyph unicode="&#x2dc;" horiz-adv-x="776" d="M276 1186q0 78 89 141q83 62 163 62q74 0 103 -50q2 -4 7 -27t13 -65q7 -49 47 -49q45 0 80 47q15 23 28 43.5t28 40.5q19 27 63 27q45 0 45 -31q0 -81 -96 -133q-86 -47 -170 -47q-89 0 -121 41q-19 25 -20 84q-3 53 -25 69q-26 -6 -52 -23t-49 -40t-41 -49.5t-26 -50.5 q-27 -13 -49 -13q-17 0 -17 23z" />
<glyph unicode="&#x2000;" horiz-adv-x="829" />
<glyph unicode="&#x2001;" horiz-adv-x="1659" />
<glyph unicode="&#x2002;" horiz-adv-x="829" />
<glyph unicode="&#x2003;" horiz-adv-x="1659" />
<glyph unicode="&#x2004;" horiz-adv-x="553" />
<glyph unicode="&#x2005;" horiz-adv-x="414" />
<glyph unicode="&#x2006;" horiz-adv-x="276" />
<glyph unicode="&#x2007;" horiz-adv-x="276" />
<glyph unicode="&#x2008;" horiz-adv-x="207" />
<glyph unicode="&#x2009;" horiz-adv-x="331" />
<glyph unicode="&#x200a;" horiz-adv-x="92" />
<glyph unicode="&#x2010;" d="M176 621q22 22 146 22h55q17 0 37 -0.5t43 -1.5h137q55 0 55 -27q0 -30 -108 -30q-54 0 -135 6q-52 4 -85.5 5t-50.5 3q-93 5 -94 23z" />
<glyph unicode="&#x2011;" d="M176 621q22 22 146 22h55q17 0 37 -0.5t43 -1.5h137q55 0 55 -27q0 -30 -108 -30q-54 0 -135 6q-52 4 -85.5 5t-50.5 3q-93 5 -94 23z" />
<glyph unicode="&#x2012;" d="M176 621q22 22 146 22h55q17 0 37 -0.5t43 -1.5h137q55 0 55 -27q0 -30 -108 -30q-54 0 -135 6q-52 4 -85.5 5t-50.5 3q-93 5 -94 23z" />
<glyph unicode="&#x2013;" horiz-adv-x="530" d="M176 621q0 30 143 30q17 0 41.5 -1t59.5 -3q17 -1 31.5 -1.5t25.5 -0.5h41q55 0 55 -24q0 -33 -106 -33q-121 0 -227 12q-64 7 -64 21z" />
<glyph unicode="&#x2014;" horiz-adv-x="801" d="M176 621q25 22 133 22h240q40 1 75 1.5t64 0.5h100q56 0 56 -24q0 -33 -109 -33q-94 0 -208 3t-257 7q-8 1 -15.5 1.5t-14.5 0.5h-21q-37 6 -43 21z" />
<glyph unicode="&#x2018;" horiz-adv-x="311" d="M291 1262q0 47 43 47q14 0 27.5 -8.5t23.5 -45.5q4 -16 6 -30.5t6 -28.5l37 -123q0 -22 -49 -22q-15 0 -25.5 2.5t-19 13t-16 33t-15.5 61.5q-18 70 -18 101z" />
<glyph unicode="&#x2019;" horiz-adv-x="311" d="M258 1083q0 26 51 109q52 86 74 102q13 15 47 15q41 0 41 -21l-80 -125q-8 -15 -16.5 -29t-18.5 -28q-22 -37 -38.5 -46t-26.5 -9q-33 0 -33 32z" />
<glyph unicode="&#x201a;" horiz-adv-x="209" d="M35 -67q0 22 49 104q52 86 74 102q17 17 49 17q41 0 41 -21l-80 -125q-10 -13 -18.5 -26.5t-16.5 -27.5q-11 -20 -20.5 -31t-18 -16.5t-15.5 -6.5t-13 -1q-31 0 -31 32z" />
<glyph unicode="&#x201c;" horiz-adv-x="485" d="M297 1305q0 12 29 12q55 0 90 -92q37 -86 37 -127q0 -23 -39 -23q-15 0 -26 2.5t-18.5 10.5t-13.5 22t-12 37q-4 16 -7 33.5t-7 33.5q-32 95 -33 91zM477 1305q8 14 41 14q51 0 78 -70q22 -53 22 -112q0 -47 -51 -47q-30 0 -42 16q-11 17 -17 88q-4 37 -9 62.5t-10 39.5 q-11 0 -12 9z" />
<glyph unicode="&#x201d;" horiz-adv-x="485" d="M260 1090q2 -6 64 94q16 26 36.5 57t47.5 66q13 12 49 12q32 0 32 -16q0 -19 -83 -132q-68 -90 -121 -90q-25 0 -25 9zM438 1092q6 10 19 10q10 10 22.5 35.5t28.5 64.5q13 36 24.5 57t23 31.5t23.5 13.5t27 3q41 0 41 -19q0 -8 -10 -35q-10 -28 -26.5 -56t-37.5 -54 q-53 -68 -96 -68q-28 0 -39 17z" />
<glyph unicode="&#x201e;" horiz-adv-x="485" d="M51 -81q0 6 33 45l25 31q4 5 6.5 7.5l3.5 3.5q14 26 34.5 57.5t47.5 67.5q13 12 49 12q33 0 33 -16q0 -19 -84 -130q-72 -90 -121 -90q-27 0 -27 12zM231 -81q2 8 17 8q10 13 23.5 37.5t29.5 62.5q16 36 27 56.5t21.5 31t22 13.5t27.5 3q41 0 41 -18q0 -4 -12 -35 q-23 -60 -61 -108q-54 -65 -97 -65q-31 0 -39 14z" />
<glyph unicode="&#x2022;" horiz-adv-x="616" d="M162 494q0 173 88 327q104 185 262 185q78 0 125 -111q35 -93 35 -182q0 -27 -6 -54q-22 -117 -138 -233q-120 -123 -233 -123q-133 0 -133 191z" />
<glyph unicode="&#x2026;" horiz-adv-x="842" d="M74 29q0 30 30 47q-6 1 -6 12q0 31 82 31q84 0 84 -60q0 -21 -24 -34q-46 -28 -101 -28q-65 0 -65 32zM346 63q0 34 33 48q-6 1 -6 10q0 33 84 33q82 0 82 -60q0 -16 -25 -35q-47 -30 -106 -30q-62 0 -62 34zM594 39q0 33 31 49q-7 1 -7 10q0 31 84 31t84 -59 q0 -20 -24 -33q-46 -31 -107 -31t-61 33z" />
<glyph unicode="&#x202f;" horiz-adv-x="331" />
<glyph unicode="&#x2039;" horiz-adv-x="629" d="M178 631q0 15 146 143q45 39 89 76t89 76q43 39 88 94q11 16 27 33t36 34q6 3 21 3q33 0 33 -19q0 -70 -172 -217l-123 -106q-72 -64 -113 -117q317 -302 317 -320q0 -22 -61 -22q-24 0 -45 10q-13 8 -57.5 50t-120.5 118q-154 154 -154 164z" />
<glyph unicode="&#x203a;" horiz-adv-x="600" d="M127 307q0 42 197 209q203 166 208 182q-8 15 -46.5 61.5t-110.5 127.5q-119 134 -119 186q0 29 47 29q39 0 59 -17q1 -1 4.5 -5.5t8.5 -12.5l35 -49q22 -31 49.5 -63.5t58.5 -67.5q139 -154 139 -185q0 -12 -8 -20q-66 -48 -158.5 -124t-216.5 -181q-28 -34 -94 -82 q-17 -6 -26 -6q-27 0 -27 18z" />
<glyph unicode="&#x205f;" horiz-adv-x="414" />
<glyph unicode="&#x2122;" horiz-adv-x="1274" d="M287 1253q18 21 233 39q145 13 212.5 19t62.5 6q39 0 39 -21q0 -30 -203 -39q2 -16 3 -34.5t1 -38.5q0 -281 -86 -379h-35q-18 0 -18 2t8 24q4 10 6.5 16t3.5 9q10 49 18 147.5t13 249.5q-124 -8 -180 -12t-52 -4q-16 0 -26 16zM772 793q0 9 3.5 28.5t10.5 50.5 q19 77 19 89q6 54 17.5 129.5t27.5 181.5q7 45 47 45q51 0 39 -25q54 -62 125 -385q64 197 153 389q27 9 66 9q14 0 20 -52l17 -102l8 -52l8 -52q8 -60 12.5 -112t4.5 -95q0 -20 -0.5 -32t-1.5 -17q-10 -19 -43 -19q-39 0 -48 21q-2 1 -18 180q-13 174 -18 205 q-17 -42 -41.5 -104t-53.5 -150q-17 -60 -36 -123q-17 -17 -35 -17q-35 0 -56 21q-9 9 -41 153q-10 43 -19 86t-19 89q-20 -112 -43.5 -197t-51.5 -143q-18 -9 -41 -9q-12 0 -12 9z" />
<glyph unicode="&#x25fc;" horiz-adv-x="800" d="M0 0v800h800v-800h-800z" />
</font>
</defs>
</svg>
