<?xml version="1.0" standalone="no"?>
<!DOCTYPE svg PUBLIC "-//W3C//DTD SVG 1.1//EN" "http://www.w3.org/Graphics/SVG/1.1/DTD/svg11.dtd" >
<svg xmlns="http://www.w3.org/2000/svg" xmlns:xlink="http://www.w3.org/1999/xlink" version="1.1">
<metadata></metadata>
<defs>
<font id="toyland_nfregular" horiz-adv-x="751" >
<font-face units-per-em="1000" ascent="779" descent="-221" />
<missing-glyph horiz-adv-x="505" />
<glyph unicode="&#xd;" horiz-adv-x="333" />
<glyph unicode=" "  horiz-adv-x="505" />
<glyph unicode="&#x09;" horiz-adv-x="505" />
<glyph unicode="&#xa0;" horiz-adv-x="505" />
<glyph unicode="!" horiz-adv-x="306" d="M265 82q0 34 -38 53.5t-75 19.5q-39 0 -77 -19t-38 -54t34 -54t80 -19t80 19t34 54zM269 587q0 8 -5.5 12.5t-12.5 4.5h-199q-19 0 -19 -16l34 -349q2 -20 18 -20h132q7 0 12.5 6t5.5 14zM551 -142q5 -2 5 -6q0 -7 -35 -7h-198q-59 0 -74 13l-116 85q-3 3 -3 5q0 8 34 8 h39q-58 2 -115.5 11t-57.5 23q0 6 22 11q-48 30 -48 81q0 42 37.5 70t82.5 34h-39q-21 0 -35.5 14.5t-16.5 34.5l-33 349q0 22 15 37.5t37 15.5h199q22 0 36.5 -16t14.5 -37l-33 -349q-2 -21 -17.5 -35t-34.5 -14h-39q45 -6 82.5 -34t37.5 -70q0 -51 -47 -81q89 -10 89 -27 q0 -7 -25.5 -12.5t-57.5 -5.5h39q44 0 72 -13z" />
<glyph unicode="&#x22;" horiz-adv-x="339" d="M130 698l-61 17l-30 -131l33 -6zM288 698l-62 17l-28 -131l31 -6zM182 718l-94 -175l-88 14l38 201zM339 718l-93 -175l-87 14l37 201z" />
<glyph unicode="#" horiz-adv-x="484" d="M524 -67l32 -27q0 -5 -15 -5h-49l18 -10h41q17 0 25 -5l32 -27q0 -4 -12 -4h-12l54 -25q1 -1 1 -3q0 -3 -14 -3h-131q-12 0 -20 4l-58 27h-19l54 -25q1 -1 1 -3q0 -3 -14 -3h-131q-12 0 -20 4l-58 27h-82q-16 0 -21 5l-31 26q0 1 4 3t7 2h49l-17 10h-42q-17 1 -22 6 l-31 26q0 1 4 3t7 2h9l-47 26q-15 8 -16 21l27 137h-9q-16 4 -16 21v124q0 17 16 21h42l8 42h-50q-16 4 -16 21v123q0 17 16 21h83q20 94 26 128q4 12 16 15h131q19 -1 19 -19v-5l-24 -119h19l26 128q4 12 16 15h131q19 -1 19 -19v-5l-24 -119h8q17 -1 20 -18v-129 q-3 -17 -20 -18h-41l-8 -42h49q17 -1 20 -18v-130q0 -18 -20 -18h-82q-5 -22 -14 -72t-15 -76q5 -2 29 -16t35 -20h82q20 0 25 -5zM322 0l27 143q4 12 16 15h83v94h-57q-16 4 -16 21q6 26 16 78q4 12 16 15h41v93h-16q-16 4 -16 21l25 122h-94l-27 -131q-7 -11 -19 -12h-56 q-16 4 -16 21l25 122h-94l-27 -131q-7 -11 -19 -12h-76v-93h50q19 -1 19 -19v-5l-15 -78q-7 -11 -19 -12h-35v-94h9q19 -1 19 -19v-5l-26 -134h95l27 143q4 12 16 15h56q19 -1 19 -19v-5l-26 -134h95zM260 252h-56q-16 0 -16 21q6 26 16 78q4 12 16 15h55q19 -1 19 -19v-5 l-15 -78q-7 -11 -19 -12zM167 -24l63 -38h19l-47 26q-15 8 -15 21l27 137h-19zM236 330l-9 -42h20l8 42h-19zM304 -99l19 -10h19l-18 10h-20z" />
<glyph unicode="$" horiz-adv-x="464" d="M429 213q0 34 -11 57.5t-35.5 38t-44.5 21.5t-57 16q-41 11 -41 48q0 18 14 31.5t39 13.5q23 0 51 -9t43 -22t23 -13q5 0 5 8q0 4 -1 7q0 1 -3 18.5t-6 33t-7.5 33.5t-10 29t-11.5 11q-14 -10 -40 -10q-27 0 -27 18v56q0 6 -4.5 10.5t-11.5 4.5h-123q-7 0 -11.5 -4.5 t-4.5 -10.5v-53q0 -12 -11 -16q-92 -35 -92 -130q0 -38 18 -64t43.5 -38.5t50.5 -22t43 -23.5t18 -34q0 -17 -14.5 -28.5t-40.5 -11.5q-15 0 -30 4q-26 6 -47.5 17t-32.5 18.5t-16 7.5q-9 0 -9 -19q0 -2 2 -17t4 -32t5.5 -35t9.5 -29.5t12 -11.5q1 0 11.5 6t21.5 6 q32 0 43 -7t11 -27q0 -5 -0.5 -15.5t-0.5 -14.5q0 -27 17 -27h123q17 0 17 25q0 5 -1 16t-1 16q0 23 12 27q45 15 77 49t32 78zM664 -141v-1l1 -2q0 -6 -26 -6q-8 0 -18 1t-17 1.5t-8 0.5q18 -12 18 -16q0 -6 -32 -6h-124q-49 0 -85 22q-56 4 -116 16t-60 32q0 16 58 20.5 t58 6.5t-22 2q-58 0 -84.5 -6t-32.5 -6q-15 0 -49.5 14.5t-34.5 27.5q0 6 35 6q9 0 24.5 -1t20.5 -1q7 0 9 1l-8 5q-24 0 -36 14.5t-13 31.5t-2 31.5t-4 14.5q-4 0 -23 -5t-31 -5q-37 0 -43 39l-18 109q-1 5 -1 13q0 21 11.5 32t29.5 11q23 0 46 -18q9 -7 36.5 -17t47.5 -10 t20 9q0 12 -34 21q-140 38 -140 159q0 106 103 158v41q0 20 15 34.5t35 14.5h123q20 0 35 -14.5t15 -34.5v-41q6 0 15.5 5.5t17.5 5.5q36 0 45 -43l25 -109q1 -6 1 -16q0 -37 -36 -37q-14 0 -50.5 20t-66.5 20q-21 0 -21 -10q0 -11 15 -14q99 -24 137 -62t38 -105 q0 -52 -34.5 -92.5t-85.5 -61.5v-9q0 -47 -14 -65q41 -2 71 -20q194 -16 194 -50q0 -16 -66 -21l-66 -4q0 -3 20 -3q36 0 69 6t41 6q41 0 72 -40z" />
<glyph unicode="%" horiz-adv-x="741" d="M646 -106q-70 1 -121 11l228 -66q5 0 5 -3t-15 -3h-133q-1 0 -64 10t-107 10q-33 0 -76.5 -5t-80.5 -5q-72 0 -140 13.5t-68 37.5q0 31 125 31q64 0 121 -10l-172 49q-15 4 -20.5 9.5t-5.5 17.5l151 273q-45 -45 -111 -45q-75 0 -118.5 57t-43.5 132q0 88 49.5 135.5 t113.5 47.5q37 0 85.5 -23.5t81.5 -23.5q45 0 76 21t61 62q7 7 14 9h133q19 -2 19 -18q0 -5 -3 -11l-162 -296q42 43 110 49q74 0 119 -53.5t45 -137.5q0 -75 -43 -128.5t-121 -53.5q-75 0 -119 55.5t-44 131.5q0 26 6 52l-139 -252l178 -51q-23 11 -23 22q0 31 127 31 q63 0 112.5 -8.5t73.5 -20.5t24 -24q0 -29 -128 -29zM386 429q7 -5 7 -15q0 -6 -3 -10l-222 -404h88l330 600h-94q-71 -93 -161 -93q-33 0 -84.5 24.5t-82.5 24.5q-58 0 -93 -44t-35 -107q0 -60 33.5 -105t90.5 -45q66 0 98.5 45.5t32.5 109.5q0 20 18 20q50 0 77 -1z M578 324q-61 -4 -94 -48t-33 -103q0 -60 34 -105t92 -45q61 0 96.5 46t35.5 108q0 63 -33.5 105t-97.5 42zM578 246q26 -4 39 -25t13 -48q0 -29 -13.5 -50.5t-37.5 -21.5t-37.5 21t-13.5 50q0 28 13 49.5t37 24.5zM162 479q26 -4 39 -24.5t13 -48.5q0 -30 -13.5 -51.5 t-37.5 -21.5q-23 0 -36.5 21t-13.5 50q0 28 13 50t36 25zM162 443q-12 -5 -12 -32q0 -26 8 -40l3 -2q18 0 18 42q0 29 -17 32zM578 210q-13 -6 -13 -37q0 -30 12 -36q17 0 17 35t-16 38zM248 -124q12 0 12 4t-8.5 8t-20.5 4q-4 -2 -4 -4q0 -12 21 -12zM613 -73q10 0 10 4 t-8 8t-19 4q-6 -1 -6 -4q0 -10 23 -12zM327 394q-1 -22 -6 -43l23 43h-17zM403 -114h17l-33 10q9 -5 16 -10z" />
<glyph unicode="&#x26;" horiz-adv-x="729" d="M262 155q-2 2 -11.5 16.5t-18.5 26.5t-13 12q-4 -7 -4 -15q0 -17 14 -28.5t33 -11.5zM283 418q20 0 20 13q0 12 -20 12q-18 0 -18 -12q0 -13 18 -13zM305 149q4 -4 4 -10q0 -19 -41 -19q-36 0 -61 23t-25 53q0 15 11 36.5t30 21.5q9 0 14 -7zM283 384q-24 0 -38 13.5 t-14 32.5t14 33t38 14t38 -14t14 -33t-13.5 -32.5t-38.5 -13.5zM381 -22l-20 30q-17 -17 -40 -30h60zM696 30q0 17 -33 26q-38 9 -59 42l-70 107q-1 2 -1 6q0 12 18 27.5t35 15.5q10 0 18 -13t14 -13q7 0 7 9v192q-93 -1 -172 -64q-9 -6 -15 -6q-9 0 -14.5 6.5t-5.5 15.5 q0 12 7.5 35.5t7.5 34.5q0 61 -48.5 105.5t-110.5 44.5q-57 0 -103.5 -44.5t-46.5 -105.5q0 -65 48 -110q5 -5 5 -11q0 -14 -12 -16q-55 -17 -90 -62t-35 -101q0 -77 52.5 -123t122.5 -46q85 0 136 63q3 7 12 7t14 -8l25 -39h273q21 0 21 25zM764 -119q0 -6 -18 -6 q-85 0 -185 10q29 -10 29 -20q0 -11 -39 -18.5t-98 -7.5q-88 0 -174.5 16.5t-86.5 34.5q0 6 11 11q-87 7 -145 22t-58 30q0 21 101 28q-45 26 -69.5 73t-24.5 95q0 59 33 110.5t91 76.5q-40 50 -40 114q0 75 56 129t128 54q76 0 133.5 -52t57.5 -129q0 -21 -4 -40 q80 51 167 51q12 0 20.5 -9.5t8.5 -21.5q0 -32 0.5 -97t0.5 -98q0 -19 -13 -30t-30 -11q-25 0 -37 22q-6 -4 -9 -7l61 -95q11 -16 36.5 -26.5t43.5 -22.5t18 -37t-15 -41.5t-39 -16.5h-7q26 -5 26 -11t-41 -8q-10 -1 -18.5 -4t-11.5 -4.5t-13 -9t-13 -9.5q8 0 27.5 2t29.5 2 q14 0 29.5 -5.5t26 -11t29 -17t25.5 -15.5z" />
<glyph unicode="'" horiz-adv-x="182" d="M130 698l-61 17l-30 -131l33 -6zM182 718l-94 -175l-88 14l38 201z" />
<glyph unicode="(" horiz-adv-x="473" d="M474 -44q0 -29 -18 -47q1 0 5 -0.5t8.5 -1t9 -2t7 -3t2.5 -4.5q0 -9 -56 -9h-38l121 -99h27q96 0 96 -14q0 -9 -71 -9q-199 0 -348.5 24t-149.5 66t207 52q-132 40 -203.5 146.5t-71.5 236.5q0 76 25.5 145.5t72.5 125.5t123.5 89.5t170.5 33.5q37 0 59 -12.5t22 -52.5 q0 -38 -21.5 -50.5t-56.5 -12.5h-26v-540h37q29 0 48 -16.5t19 -45.5zM409 -78q33 3 33 34q0 14 -10 22t-25 8q-45 0 -69 1v602q19 1 58 1q46 0 46 31q0 33 -49 33q-70 0 -129 -20t-101 -55t-72 -81t-44 -98.5t-14 -107.5q0 -70 24 -135.5t69.5 -118.5t118.5 -84.5 t164 -31.5z" />
<glyph unicode=")" horiz-adv-x="470" d="M107 -112q-112 0 -112 68q0 29 19 45.5t48 16.5h37v540h-26q-22 0 -37 3.5t-28 18t-13 41.5q0 40 22 52.5t59 12.5q94 0 170.5 -33.5t123.5 -89.5t72.5 -125.5t25.5 -145.5q0 -129 -71 -235.5t-201 -146.5q156 -10 271.5 -35.5t115.5 -57.5q0 -16 -32.5 -29t-105.5 -21 t-178 -8q-98 0 -98 16q0 8 67 8h26l-118 105h-37zM60 -78q91 0 164 31.5t118.5 84.5t69.5 118.5t24 135.5q0 55 -14 107.5t-44 98.5t-72 81t-101 55t-129 20q-49 0 -49 -33t58 -33q7 0 20 0.5t18 0.5h8v-602h-44q-60 0 -60 -31t33 -34z" />
<glyph unicode="*" horiz-adv-x="359" d="M377 536v-120q0 -6 -6.5 -12t-13.5 -6l-69 16l47 -51q3 -6 3 -11q0 -8 -7 -15l-104 -61q-6 -3 -10 -3q-11 0 -18 15l-19 63l-20 -67q-8 -12 -18 -12q-1 0 -3 0.5t-3 0.5q-35 21 -105 61q-11 8 -11 16q0 6 6 14l45 48q-44 -10 -67 -14h-4q-18 0 -18 20v114q0 20 18 20h4 l67 -15l-46 51q-6 8 -6 13q0 10 11 16q35 21 105 61q3 1 7 1q10 0 17 -11q2 -9 9 -31.5t10 -35.5l19 64q7 15 18 15q4 0 10 -3l105 -61q7 -7 7 -15q0 -5 -3 -11l-49 -53l72 17q17 -1 20 -18zM239 461l102 -23v75l-106 -23q-19 0 -19 16q0 8 5 14q2 2 71 77l-66 38 q-8 -24 -31 -103q-6 -12 -17 -12q-14 0 -18 15q-12 43 -29 100q-44 -26 -66 -38l73 -80q3 -6 3 -11q0 -16 -19 -18l-104 24v-75l104 23q19 -2 19 -18q0 -5 -3 -11l-71 -76l66 -38q6 23 29 98q4 15 18 15q11 0 17 -12q23 -77 31 -100q12 8 35 21t30 17l-70 75q-5 6 -5 14 q0 16 21 16zM418 -26l-26 26q-4 4 -24 4l-65 -4q37 12 37 13q0 2 -11 4l-118 14q-22 0 -25 -3l-5 -14l-35 15q-10 3 -20 3q-7 0 -33.5 -4t-49 -8t-22.5 -5l7 -3q1 -1 3 -1l55 -10l-70 3h-4q-1 0 -4.5 -1t-6.5 -2t-3 -2l26 -25q4 -4 22 -4l68 3l-35 -11l-4 -2q0 -4 24 -7.5 t62.5 -6.5t46.5 -4q12 0 17.5 2t6 4t2.5 11l33 -14q9 -3 31 -3l91 14q4 1 4 2q0 2 -6 4l-60 11l75 -3q16 0 16 4z" />
<glyph unicode="+" horiz-adv-x="395" d="M0 238v135q0 21 16 21h93v87q0 17 16 21h140q17 -1 20 -18v-90h90q17 -1 20 -18v-141q-3 -17 -20 -18h-90v-91q-3 -17 -20 -18h-140q-16 4 -16 21v88h-93q-16 4 -16 21zM125 358h-89v-105h89q17 -1 20 -18v-91h104v88q0 17 16 21h94v105h-94q-16 4 -16 21v87h-104v-90 q-3 -17 -20 -18z" />
<glyph unicode="," horiz-adv-x="306" d="M220 -83q52 75 52 144q0 44 -28 71t-89 27q-54 0 -88 -27t-34 -61q0 -26 23 -46.5t67 -26.5q21 -3 21 -18q0 -16 -24.5 -50t-24.5 -38q0 -2 3 -4h89q13 0 33 29zM409 -190q0 -18 -113 -18q-68 0 -137.5 8t-69.5 27q0 13 74 16l-19 3q-20 2 -29 4t-24.5 7.5t-22.5 14.5 t-7 22q0 14 6.5 26t21 27t18.5 20q-107 22 -107 110q0 53 47 83.5t109 30.5t106 -34t44 -95q0 -74 -58 -163q-15 -19 -29 -31q41 -3 115.5 -23.5t74.5 -34.5z" />
<glyph unicode="-" horiz-adv-x="261" d="M227 222v64h-193v-64h193zM261 184h-261v139h261v-139z" />
<glyph unicode="." horiz-adv-x="311" d="M278 73q0 38 -36.5 58.5t-86.5 20.5t-86 -21t-36 -58t36 -57.5t85 -20.5q50 0 87 21t37 57zM216 -30q163 -15 163 -32q0 -18 -118 -18q-66 0 -135.5 8.5t-69.5 24.5q0 10 47 15q-45 10 -74 37t-29 68q0 52 45 81t108 29q64 0 111 -29t47 -81q0 -39 -26 -65t-69 -38z" />
<glyph unicode="/" horiz-adv-x="343" d="M130 -24l-3 -4l353 -142q0 -4 -11 -4h-101l-16 2l-340 137q-12 5 -12 24l211 643q7 7 14 9h97q19 -1 19 -19v-5zM240 605l-199 -605h59l199 605h-59z" />
<glyph unicode="0" horiz-adv-x="600" d="M300 175q18 0 28.5 38.5t10.5 92.5t-10.5 92.5t-28.5 38.5t-28 -38.5t-10 -92.5t10 -92.5t28 -38.5zM372 311q0 -169 -72 -169q-71 0 -71 173q0 66 16.5 111t54.5 45q26 0 43 -24.5t23 -58.5t6 -77zM405 -114q16 0 16 6q0 11 -40 29.5t-69 18.5q-15 0 -15 -5 q0 -12 39.5 -30.5t68.5 -18.5zM567 302q0 140 -65.5 222t-201.5 82t-201.5 -82t-65.5 -222q0 -63 15 -116t45.5 -96t83.5 -67.5t123 -24.5q136 0 201.5 82t65.5 222zM399 -23q105 -13 197.5 -40t92.5 -55q0 -38 -211 -38q-151 0 -302 29t-151 74q0 32 156 36 q-92 36 -136.5 121.5t-44.5 197.5q0 154 75 245t225 91q149 0 224.5 -91.5t75.5 -244.5q0 -125 -50.5 -211t-150.5 -114z" />
<glyph unicode="1" horiz-adv-x="384" d="M330 47q-7 1 -12 6t-5 11v512q0 10 -5.5 18.5t-14.5 8.5q-4 0 -6 -1l-196 -68q-56 -19 -56 -32q0 -10 39 -10q6 -1 11 -6t5 -11v-411q0 -6 -5 -11t-11 -6q-21 0 -21 -18q0 -9 9 -16.5t24 -7.5h229q16 0 25.5 8t9.5 18q0 16 -20 16zM566 -148q4 -3 4 -6q0 -7 -35 -7h-19 l-307 23q-18 3 -18 6q0 7 43 7l-137 80q-59 2 -59 13q0 8 31 9q-20 0 -35.5 17.5t-15.5 38.5q0 34 39 45v383q-20 3 -38.5 14.5t-18.5 27.5q0 10 9 22q18 23 71 41l196 66q8 4 18 4q23 0 38.5 -18t15.5 -42v-498q36 -12 36 -46q0 -17 -11.5 -33t-31.5 -22q13 0 41.5 -6 t28.5 -11q0 -4 -24 -5z" />
<glyph unicode="2" horiz-adv-x="552" d="M515 166q2 5 2 14q0 12 -11 12q-9 0 -20.5 -8t-16.5 -18t-14 -10h-165q-7 0 -12 5.5t-5 11.5q0 27 41 52.5t93 47t64 34.5q29 30 29 108q0 89 -63.5 137t-152.5 48q-58 0 -106 -19q-6 -2 -9 -2q-9 0 -25 7t-22 7q-10 0 -25 -65t-15 -103q0 -22 9 -22q1 0 3 1 q12 5 38.5 17t41 17.5t38 11t44.5 5.5q22 0 39.5 -14.5t17.5 -33.5q0 -16 -16 -29q-10 -8 -26.5 -14t-38 -11t-31.5 -9q-93 -32 -133 -131q-35 -85 -35 -185q0 -23 21 -23h395q11 0 15 7q10 18 19 45t19 63.5t13 45.5zM688 -115q15 -9 15 -16q0 -30 -188 -30q-40 0 -122 4 q-1 1 -3 1t-6 -2q-20 -2 -29 -2q-18 0 -38.5 4.5t-33 9t-38 15t-36.5 14.5q-7 3 -7 5q0 6 27 6q2 0 8.5 -0.5t10.5 -0.5q124 -9 165 -9q22 0 22 1q0 2 -32 4q-173 8 -279 35q-58 16 -103 39q-8 3 -8 7q0 5 17 6q-30 11 -30 55q0 108 36 194q32 77 82 111.5t137 57.5 q25 7 25 18q0 9 -24 9q-20 0 -41 -5t-35.5 -11t-38 -16t-34.5 -15q-8 -4 -17 -4q-18 0 -30 14t-12 32q0 38 29 161q3 22 18 36t28 14q9 0 22.5 -7t21.5 -8q56 21 116 21q103 0 177 -57.5t74 -162.5q0 -86 -40 -129q-26 -28 -87.5 -51.5t-82.5 -42.5h121q22 35 60 35 q19 0 32 -11.5t13 -32.5q0 -7 -4 -25q-26 -101 -56 -163q-6 -12 -20 -17l24 -4q18 -3 114 -34q17 -4 17 -8q0 -6 -33 -6q-39 0 -73 7h-120q30 -4 100 -9t104 -10q53 -8 85 -27z" />
<glyph unicode="3" horiz-adv-x="531" d="M497 163q0 92 -82 128q-9 5 -9 15t7 14q79 48 79 122t-65.5 116t-147.5 42q-21 0 -57 -9t-53 -9q-13 0 -36 9t-35 9q-13 0 -17 -24l-25 -137q-1 -2 -1 -6q0 -9 7 -9q14 1 47 15q41 18 98 18q83 0 83 -51q0 -54 -82 -54q-26 0 -54 6q-18 3 -28 3h-6q-2 0 -2 -57v-16.5 v-15.5t0.5 -12.5t0.5 -9.5v-3q12 0 33.5 3.5t33.5 3.5q44 0 79 -14t35 -44q0 -56 -110 -56q-68 0 -98 15q-1 0 -11.5 5t-19.5 8t-15 3q-12 0 -12 -11q0 -28 12 -85.5t29 -63.5q53 -17 148 -17q35 0 51 1q83 3 153 46.5t70 121.5zM700 -132q0 -28 -183 -28q-30 0 -94 2 q-10 1 -26 1q-8 0 -29.5 -1.5t-37.5 -1.5q-40 0 -67 11l-74 28q-11 4 -11 7q0 4 26 4q55 -2 72 -4q24 -3 94 -3q39 0 39 4q-7 4 -44 4q-18 0 -52.5 -1t-44.5 -1h-10q-26 1 -40 9l-33 18q-5 3 -5 6t13 3q6 1 21 1q19 0 68 -1q62 0 62 4q-4 5 -76 5q-77 0 -89 -2 q-6 0 -18 -1.5t-24 -2t-22 -0.5q-43 0 -53 11q-1 2 -7 7t-10 10t-4 9q0 7 24 10q3 1 11 1l-11 3q-33 11 -49 73t-16 114q0 38 38 38q30 0 68 -18q22 -11 104 -11q55 0 57 23q-5 24 -70 24q-12 0 -36 -4t-37 -4q-6 0 -14 2q-24 8 -24 42v94q0 34 24 40q2 1 9 1q9 0 43 -4 t51 -4q45 0 45 21q0 18 -42 18q-25 0 -55.5 -5.5t-38.5 -9.5q-36 -16 -62 -17q-38 0 -38 35q0 11 1 17l25 137q9 53 50 53q12 0 34.5 -9t35.5 -9q16 0 52 9.5t59 9.5q99 0 173 -55q73 -57 73 -136t-71 -135q77 -48 77 -146q0 -70 -48 -118.5t-120 -68.5q17 -2 54 -5.5 t66 -6.5t60 -8t48 -13.5t17 -19.5t-36 -17q128 -16 128 -38z" />
<glyph unicode="4" horiz-adv-x="580" d="M255 301v94l-68 -94h68zM288 284q0 -6 -5 -11t-11 -5h-117q-16 0 -16 17q0 5 3 9l116 162q4 6 13 6q7 0 12 -4.5t5 -12.5v-161zM547 154v98q0 16 -16 16h-36q-7 0 -12 5t-5 11v295q0 24 -32 24h-181q-4 0 -8 -1.5t-7 -3t-7 -5t-6 -6l-6 -7.5t-5 -7t-5 -7.5t-4 -6.5 l-170 -262q-13 -21 -13 -45v-98q0 -7 5 -12t11 -5h222q6 0 11 -5t5 -10v-54q0 -12 -18.5 -17.5t-18.5 -20.5q0 -21 33 -21h196q34 0 34 24q0 13 -18 18t-18 17v54q0 5 5 10t12 5h36q7 0 11.5 5t4.5 12zM724 -145q5 -3 5 -5q0 -7 -49 -7h-181q-34 0 -92 11l-269 55 q-28 6 -42 13q-35 20 -35 25q0 7 31 7h206l-8 4q-62 2 -62 14q0 6 28 7q-20 6 -31 20.5t-11 31.5q0 37 41 51v23h-205q-20 0 -35 14.5t-15 34.5v98q0 33 19 63q160 246 174 268q33 54 72 54h181q29 0 47 -15t18 -43v-278h20q20 0 34.5 -14.5t14.5 -34.5v-98q0 -21 -14.5 -35 t-34.5 -14h-20v-23q40 -12 40 -49q0 -40 -44 -54q65 -3 65 -15q0 -5 -25 -6l8 -4h18q48 0 68 -12l35 -20q3 -2 3 -3q0 -7 -34 -7h-20z" />
<glyph unicode="5" horiz-adv-x="519" d="M487 209q0 146 -237 146q-8 0 -22.5 -0.5t-20.5 -0.5q-7 0 -11.5 5t-4.5 12v71q0 6 4.5 11.5t10.5 5.5h196q11 0 15 -10q5 -10 19 -22t23 -12q6 0 6 8q0 5 -3 14l-43 131q-12 36 -43 36h-306q-9 0 -18 -11.5t-9 -21.5v-273q0 -48 29 -48q4 0 12 2q57 9 95 9 q104 0 104 -57q0 -59 -97 -59q-67 0 -118 18q-16 4 -24 4q-12 0 -12 -7v-136q30 -9 73 -15q56 -8 110 -8q272 0 272 208zM666 -145q0 -2 -4.5 -4.5t-18 -5t-33.5 -2.5h-306q-58 0 -84 14l-98 56q-8 5 -8 9q0 8 42 8q18 0 58 -1.5t65 -1.5q54 0 50 4q-4 6 -73 6 q-54 0 -102 -3q-4 0 -14.5 -0.5t-16.5 -0.5q-48 0 -61 8l-53 32q0 1 5 3l65 3q-41 7 -70 20q-9 4 -9 15v146q0 40 46 40q13 0 33 -6q45 -15 107 -15q64 0 64 28q-5 23 -63 23q-47 0 -97 -11q-14 -2 -19 -2q-31 0 -46.5 22.5t-15.5 58.5v273q0 24 19 45t42 21h306 q29 0 50.5 -21t27.5 -38l33 -102q9 -27 9 -50q0 -18 -9 -31t-27 -13t-38.5 14t-29.5 29h-169v-38h23q273 0 273 -178q0 -189 -194 -230q204 -7 275 -48q12 -6 12 -12q0 -24 -211 -24h-33l14 -8h169q11 9 52 9q59 0 61 -20z" />
<glyph unicode="6" horiz-adv-x="570" d="M306 176q19 0 29.5 10t10.5 25t-10.5 25t-29.5 10q-18 0 -28.5 -10t-10.5 -25t10.5 -25t28.5 -10zM306 142q-34 0 -53 20.5t-19 48.5t19 48.5t53 20.5q35 0 54 -20.5t19 -48.5t-19 -48.5t-54 -20.5zM400 -77q29 0 29 5q0 10 -54 10q-29 0 -29 -5q0 -10 54 -10zM536 184 q0 107 -52.5 146t-170.5 39q-8 0 -26 -2t-28 -2q-25 0 -25 19q0 8 4 19q17 62 105 62q60 0 126 -26q7 -2 14.5 -5.5t11.5 -5.5t7 -2t3 5t-1 8l-25 129q-11 36 -43 36q-15 0 -45.5 0.5t-46.5 0.5q-79 0 -136.5 -16.5t-101.5 -67.5q-73 -84 -73 -226q0 -138 73 -220 q34 -38 87 -58t112 -20q94 0 162.5 49t68.5 138zM722 -145q0 -12 -52 -12h-97q-177 0 -291 19q-86 15 -142.5 38t-56.5 43q0 31 117 36q-75 25 -119 74q-81 88 -81 241q0 154 82 250q49 57 112 75.5t151 18.5q15 0 45 -0.5t46 -0.5q55 0 75 -61l26 -130q4 -18 4 -24 q0 -27 -29 -27q-22 0 -55 13q-59 23 -115 23q-58 0 -71 -32q13 2 42 2q62 0 105.5 -9t80 -31.5t54 -66.5t17.5 -110q0 -77 -45.5 -130t-118.5 -75q89 -6 173 -23.5t84 -41.5q0 -10 -31 -15q-41 -7 -170 -7h-33q-7 0 -10 1q27 -8 89 -8q24 0 74 4t76 4q41 0 44 -11z" />
<glyph unicode="7" horiz-adv-x="481" d="M449 373v210q0 7 -7.5 14t-14.5 7h-304q-33 0 -43 -36l-44 -147q-3 -9 -3 -14q0 -12 10 -12q9 0 20.5 8.5t16.5 17.5q4 9 15 9h174q15 0 15 -17q0 -9 -7 -13q-95 -54 -151 -149t-56 -205v-13q0 -24 16 -24h228q4 0 4 4q0 12 -8 41.5t-8 43.5q0 82 39 155t108 120z M696 -146q3 -3 3 -4q0 -7 -37 -7h-304q-61 0 -97 12l-97 30q-16 4 -16 8q0 6 32 6h11q36 -2 62 -6h109q-223 25 -302 72q-13 7 -13 10t14 4q-23 9 -23 56v11q0 104 46 197t129 155h-108q-23 -36 -63 -36q-18 0 -30 10.5t-12 31.5q0 14 4 26l44 148q16 59 75 59h304 q20 0 37 -17t17 -37v-219q0 -11 -7 -13q-65 -42 -101.5 -110t-36.5 -144q0 -54 17 -99q0 -1 0.5 -3t0.5 -3q0 -8 -7 -13q11 -2 11 -3q0 -21 69 -41.5t178 -32.5q9 0 12 -3z" />
<glyph unicode="8" horiz-adv-x="577" d="M288 170q18 0 28 8.5t10 19.5q0 12 -10 20.5t-28 8.5t-27.5 -8.5t-9.5 -20.5q0 -11 9.5 -19.5t27.5 -8.5zM288 378q17 0 26.5 7t9.5 17q0 9 -9.5 16t-26.5 7t-26.5 -7t-9.5 -16q0 -10 9.5 -17t26.5 -7zM288 136q-33 0 -51.5 18.5t-18.5 43.5t18.5 43.5t51.5 18.5 t51.5 -18.5t18.5 -43.5t-18.5 -43.5t-51.5 -18.5zM288 344q-33 0 -51.5 17.5t-18.5 40.5t18.5 40t51.5 17t51.5 -17t18.5 -40q0 -24 -18.5 -41t-51.5 -17zM377 -77q28 0 28 5q0 7 -49 7q-29 0 -29 -4q0 -8 50 -8zM448 -117q29 0 29 3q0 6 -47 6q-28 0 -28 -3q0 -6 46 -6z M471 44q73 51 73 121q0 77 -84 128q-7 4 -7 13q0 10 7 14q70 49 70 117q0 66 -68 113q-74 51 -174 51t-173 -50q-68 -49 -68 -115q0 -67 70 -116q7 -4 7 -13t-8 -14q-83 -52 -83 -128q0 -70 73 -121q76 -52 183 -52q108 0 182 52zM695 -149q-56 -12 -173 -12q-115 0 -212 11 q-142 17 -142 40q0 10 28 16q-140 18 -140 41q0 11 43 20q28 6 75 9q-49 16 -87 42q-87 62 -87 148q0 83 80 142q-66 54 -66 128q0 83 82 142q79 55 192 55q114 0 193 -55q82 -59 82 -142q0 -72 -66 -128q80 -59 80 -143q0 -85 -87 -147q-41 -28 -88 -42q13 -1 101 -9 q150 -17 150 -42q0 -10 -38 -19q121 -16 121 -36q0 -12 -41 -19z" />
<glyph unicode="9" horiz-adv-x="569" d="M263 351q19 0 29.5 10t10.5 25t-10.5 25t-29.5 10t-29.5 -10.5t-10.5 -24.5t10.5 -24.5t29.5 -10.5zM263 317q-34 0 -53 20.5t-19 48.5t19 48.5t53 20.5t53 -20.5t19 -48.5t-19 -48.5t-53 -20.5zM420 -116q30 0 30 5q0 9 -55 9q-29 0 -29 -5q0 -9 54 -9zM536 332 q0 121 -70 194q-71 74 -198 74q-96 0 -165 -49t-69 -139q0 -107 55 -145.5t168 -38.5q7 0 24.5 2.5t25.5 2.5q29 0 29 -22q0 -37 -31.5 -58t-72.5 -21q-30 0 -98 15q-3 1 -27 11t-37 10q-6 -2 -6 -6v-2l1 -2l26 -130q8 -35 43 -35h133q68 0 120.5 28t83.5 76t47 107.5 t18 127.5zM717 -124q0 -37 -215 -37q-49 0 -104 2.5t-118.5 9t-104 20.5t-40.5 34q0 25 199 25l42 -1q-22 7 -78 7q-26 0 -80 -4t-83 -4q-32 0 -42 11q-21 28 -21 30q0 4 14 7q-22 18 -27 45l-26 130q-3 12 -3 22q0 30 27 30q14 0 45 -11t39 -12q3 -1 23 -5.5t37.5 -7.5 t32.5 -3q22 0 42 10t20 24l-39 -3q-126 0 -191.5 47.5t-65.5 169.5q0 105 80 163t190 58q140 0 220 -84q79 -82 79 -229q0 -73 -22 -142.5t-61 -116.5q-50 -62 -123 -85q86 0 220 -32.5t134 -67.5z" />
<glyph unicode=":" horiz-adv-x="311" d="M278 73q0 37 -40.5 58t-81.5 21t-82 -21t-41 -58t36.5 -57.5t86.5 -20.5t86 20.5t36 57.5zM278 329q0 38 -40.5 58.5t-81.5 20.5t-82 -20.5t-41 -58.5q0 -37 36.5 -57.5t86.5 -20.5t86 20.5t36 57.5zM216 -30q59 0 111 -7.5t52 -24.5q0 -18 -118 -18q-63 0 -134 7.5 t-71 25.5q0 10 47 15q-45 10 -74 37t-29 68q0 52 50 82.5t106 30.5q55 0 105 -30.5t50 -82.5q0 -39 -26 -65t-69 -38zM311 329q0 -54 -48 -82.5t-107 -28.5q-58 0 -107 27.5t-49 83.5q0 53 50 83t106 30q55 0 105 -30t50 -83z" />
<glyph unicode=";" horiz-adv-x="313" d="M226 -83q52 76 52 145q0 97 -116 97q-54 0 -88 -27t-34 -61q0 -26 23 -46.5t67 -26.5q21 -3 21 -18q0 -16 -24.5 -50t-24.5 -38q0 -2 3 -4h89q13 0 32 29zM278 329q0 38 -40.5 58.5t-81.5 20.5t-82 -20.5t-41 -58.5q0 -37 36.5 -57.5t86.5 -20.5t86 20.5t36 57.5z M416 -190q0 -18 -113 -18q-68 0 -137.5 8t-69.5 27q0 13 74 16q-5 1 -21 1.5t-27.5 2.5t-25 6t-21 13t-7.5 23q0 18 46 78q-107 22 -107 110q0 53 47 83.5t109 30.5q89 0 127 -54q23 -32 23 -76q0 -78 -58 -162q-15 -20 -30 -31q41 -3 116 -23.5t75 -34.5zM311 329 q0 -54 -48 -82.5t-107 -28.5q-58 0 -107 27.5t-49 83.5q0 53 50 83t106 30q55 0 105 -30t50 -83z" />
<glyph unicode="&#x3c;" horiz-adv-x="391" d="M391 524v-153q0 -11 -14 -17l-111 -49l111 -49q11 -4 14 -17v-153q-3 -18 -19 -18q-4 0 -6 1l-355 155q-11 8 -11 20v123q0 12 11 19l355 154q3 1 8 1q14 0 17 -17zM355 227l-141 61q-11 8 -11 17q0 8 11 16l141 61v115l-319 -139v-106l319 -139v114z" />
<glyph unicode="=" horiz-adv-x="395" d="M0 328v138q0 7 4.5 12.5t11.5 5.5h359q17 -1 20 -18v-141q-3 -17 -20 -18h-359q-16 0 -16 21zM0 145v138q0 7 4.5 12t11.5 5h359q17 -1 20 -18v-140q-3 -17 -20 -18h-359q-16 4 -16 21zM359 448h-323v-105h323v105zM359 264h-323v-104h323v104z" />
<glyph unicode="&#x3e;" horiz-adv-x="391" d="M0 371v153q3 17 17 17q5 0 8 -1l355 -154q11 -7 11 -19v-123q0 -12 -11 -20l-355 -155q-2 -1 -6 -1q-16 0 -19 18v153q3 13 14 17l111 49l-111 49q-14 6 -14 17zM177 288l-141 -61v-114l319 139v106l-319 139v-115l141 -61q10 -7 10 -16q0 -10 -10 -17z" />
<glyph unicode="?" horiz-adv-x="462" d="M318 73q0 35 -37.5 54t-76.5 19q-38 0 -75.5 -19t-37.5 -54q0 -34 34 -53t80 -19t79.5 19t33.5 53zM373 562q-54 44 -129 44q-22 0 -60.5 -9t-55.5 -9q-7 0 -22.5 3t-23.5 3q-14 0 -18 -19q-3 -15 -11.5 -42t-13.5 -49t-6 -42q0 -14 11 -14t41.5 18.5t55.5 18.5 q28 0 47.5 -11.5t19.5 -29.5q0 -26 -43 -51q-38 -22 -49.5 -44.5t-11.5 -57.5v-55q0 -8 79 -8q20 0 44.5 0.5t42 1t20.5 0.5q4 0 4 24v15q0 16 10.5 30t20.5 21t28 18q36 22 55.5 57t19.5 74q0 67 -55 113zM671 -135q0 -31 -159 -31q-50 0 -104 3q-5 1 -15 1q-8 0 -23.5 -1 t-23.5 -1q-34 0 -63 11q-7 3 -42.5 16t-47.5 19q-7 3 -7 6q0 6 30 6q20 0 60 -4.5t63 -4.5q19 0 19 2t-35 6q-99 12 -120 24q-2 1 -13 7t-17.5 10.5t-6.5 7.5q0 2 3 2q6 3 21 3h67q-47 1 -96.5 8.5t-69.5 18.5q-8 5 -8 8q0 6 22 11q-48 28 -48 80q0 44 37 71.5t84 33.5h-67 q-12 0 -25 9.5t-13 25.5v86q0 27 13.5 48.5t26.5 31t36 22.5q24 13 24 22q0 11 -20 11q-26 0 -58.5 -19t-51.5 -19q-20 0 -31.5 13t-11.5 35q0 21 5 44t13.5 51.5t11.5 42.5q11 46 43 46q9 0 26.5 -3.5t25.5 -3.5q16 0 55 9.5t63 9.5q88 0 151 -53q67 -55 67 -138 q0 -46 -24 -88.5t-67 -69.5q-42 -27 -43 -43l-1 -26q0 -17 -9.5 -30.5t-26.5 -13.5h-61q47 -6 85 -33.5t38 -71.5q0 -51 -48 -80q21 -2 55 -10t34 -18q0 -16 -85 -18h61q21 0 31 -3q20 -4 36 -14q30 -17 91 -23t102.5 -13t41.5 -29z" />
<glyph unicode="@" horiz-adv-x="623" d="M592 -29q198 -19 198 -69q0 -22 -69.5 -35.5t-180.5 -13.5q-158 0 -298 24t-174 59q-10 10 -10 19q0 38 141 52q-91 31 -145 114t-54 186q0 141 104 240t245 99q116 0 195 -71.5t79 -186.5q0 -66 -32 -126t-89 -98l52 -81q-69 -49 -143 -72q98 -4 220 -19zM518 91l-27 42 q-63 -33 -137 -33q-94 0 -169 64.5t-75 157.5q0 88 58.5 150.5t145.5 62.5q84 0 141 -49.5t57 -131.5q0 -33 -24 -81.5t-55 -48.5q-7 0 -7 10q0 5 2 9l46 154l-42 27l-8 -8q-27 38 -67 38q-70 0 -123 -67t-53 -138q0 -35 22.5 -61t57.5 -26q44 0 85 36q20 -39 62 -39 q79 0 134 73t55 156q0 104 -71.5 168t-176.5 64q-130 0 -226.5 -91.5t-96.5 -221.5q0 -119 76 -204t194 -85q121 0 222 73zM136 322q0 -41 19 -79v6q0 80 61 155.5t141 75.5q38 0 67 -26l4 3l35 -22q-47 73 -149 73q-76 0 -127 -54.5t-51 -131.5zM290 247q-8 0 -13.5 9.5 t-5.5 18.5q0 31 23.5 75t52.5 44q11 0 17.5 -12t6.5 -24q0 -35 -23.5 -73t-57.5 -38zM223 -68q19 -18 89 -31.5t155 -13.5q117 0 148 18q-67 -11 -108 -11q-89 0 -175.5 18.5t-106.5 38.5q-7 -5 -7 -9q0 -3 5 -10zM354 126q31 0 59 7h-5q-41 0 -68 29q-28 -19 -59 -24 q35 -12 73 -12zM297 275q23 8 35.5 36.5t13.5 56.5q-17 -3 -32.5 -37t-16.5 -56zM469 291q13 26 16 53z" />
<glyph unicode="A" d="M400 301q-34 125 -42 125q-9 0 -43 -125h85zM440 290v-4q0 -18 -18 -18h-130q-7 0 -11.5 5t-4.5 12q0 1 0.5 2.5t0.5 2.5q2 5 16 57t29.5 82.5t35.5 30.5t35.5 -31t29.5 -81.5t17 -57.5zM488 -36l-4 3q-39 2 -58.5 21.5t-19.5 49.5q0 35 34 45v15h-164v-15q34 -9 34 -44 q0 -31 -24 -50q54 -5 54 -16q0 -5 -21 -6l6 -3h163zM532 -108q4 0 4 4q0 8 -10 23h-84q86 -27 90 -27zM696 8q22 0 22 11q0 7 -13 24t-14 21q-29 151 -107 368q0 5 -31 88.5t-40 83.5h-396q-9 0 -20.5 -49.5t-11.5 -68.5q0 -4 1 -4q3 0 27 10t44 10q31 0 31 -15q0 -2 -2 -8 q-35 -81 -79 -238.5t-51 -179.5q-1 -2 -12 -18t-11 -24q0 -11 21 -11h196q11 0 18.5 8t7.5 18q0 17 -14 17q-20 0 -20 35q0 45 20 45h191q20 0 20 -49q0 -15 -8.5 -22.5t-16.5 -12.5t-8 -12q0 -11 8 -19t18 -8h230zM797 -112l-2 -35q0 -9 -47 -9h-376q-56 0 -107 28 q-21 5 -21 10q0 2 9 4q4 1 14 1q11 0 34.5 -2.5t35.5 -2.5l-268 86q-69 12 -69 53q0 32 27 57q10 34 31.5 116t42 148.5t45.5 126.5q-11 0 -30 -10.5t-30 -10.5q-16 0 -25.5 11t-9.5 28q0 39 17.5 94.5t48.5 55.5h376q16 0 24.5 -1t19 -9t16.5 -23q128 -330 170 -527 q28 -28 28 -58q0 -18 -12 -30q35 -5 35 -13q0 -4 -10 -7q24 -30 33 -81z" />
<glyph unicode="B" horiz-adv-x="657" d="M396 209q0 19 -15 28.5t-30.5 11.5t-39.5 2v-82q85 0 85 40zM333 457h-22v-75h18q27 0 42 11.5t15 26.5t-13.5 26t-39.5 11zM429 209q0 -73 -134 -73q-7 0 -11.5 5t-4.5 11v115q0 6 4.5 11t11.5 5q26 0 42.5 -1.5t41 -7.5t37.5 -22.5t13 -42.5zM333 490q40 0 63 -20.5 t23 -48.5q0 -29 -24 -50.5t-66 -21.5h-34q-7 0 -11.5 5.5t-4.5 11.5v107q0 6 4.5 11.5t11.5 5.5h38zM510 -61q-16 9 -101 9l32 -18q72 0 72 7q-1 1 -3 2zM541 -115q41 0 41 5q0 11 -72 11h-19l28 -16h22zM564 58q61 48 61 112q0 38 -21.5 72.5t-60.5 57.5q-8 4 -8 14t8 14 q71 47 71 117q0 62 -55 110.5t-134 48.5h-361q-14 0 -22.5 -7.5t-8.5 -17.5q0 -16 20 -16q6 0 11 -5.5t5 -12.5v-477q0 -12 -18 -17.5t-18 -18.5q0 -11 9.5 -17.5t21.5 -6.5h349q88 0 151 50zM734 -84q129 -17 129 -41q0 -13 -43.5 -22t-116.5 -9h-361q-23 0 -45 3t-34 7 t-12 8q0 6 22 7l-173 98q-100 8 -100 68q0 35 36 47v449q-36 12 -36 46q0 23 17.5 41.5t46.5 18.5h361q92 0 157.5 -58t65.5 -134q0 -74 -68 -131q77 -57 77 -143q0 -83 -73 -140q-33 -26 -81 -42q76 -3 128 -10q137 -18 137 -44q0 -12 -34 -19z" />
<glyph unicode="C" horiz-adv-x="641" d="M606 231q-11 0 -42 -11q-62 -22 -141 -22q-71 0 -117.5 25t-46.5 83q0 54 20 99t64 45q30 0 50 -17t20 -48t12 -39t51 -8q18 0 46 1t34 1q31 0 32 25v194q-37 33 -102 46t-119 13q-69 0 -128 -18.5t-105.5 -55t-73 -97.5t-26.5 -141q0 -81 28 -143t77 -98t108.5 -54 t129.5 -18q155 0 195 51q8 11 21 88t13 99zM782 -95q79 -45 79 -46q0 -17 -229 -17q-157 0 -292 19t-199 56q-31 18 -31 32q0 26 103 37q-98 35 -155.5 115.5t-57.5 204.5q0 170 104.5 257.5t263.5 87.5q59 0 124 -14q33 -7 80.5 -28t47.5 -42q0 -35 -0.5 -103t-0.5 -101 q0 -24 -18 -40t-45 -16q-11 0 -39.5 -0.5t-43.5 -0.5q-48 0 -69 18t-21 65q0 12 -11 20.5t-25 8.5q-24 0 -40 -30.5t-16 -66.5q0 -90 129 -90q69 0 132 21q36 12 56 12q32 0 32 -31q0 -9 -1 -15l-36 -185q-4 -23 -56 -44q76 -4 92 -10l106 -43q10 -4 10 -6q0 -3 -17 -3 q-31 0 -99 4t-107 4q-70 0 -94 -6q-9 -1 -9 -6q0 -8 35.5 -19t66.5 -11q26 0 26 4q0 1 -8 6q-10 4 -10 7q0 8 66 8q16 0 47.5 -0.5t43.5 -0.5q65 0 86 -12z" />
<glyph unicode="D" horiz-adv-x="679" d="M319 209q39 0 61.5 27.5t22.5 69.5q0 40 -22 68t-62 29v-194zM334 436q48 0 75 -38t27 -90q0 -54 -27 -93.5t-77 -39.5h-46v261h48zM504 -109q56 0 56 12q0 14 -47.5 22.5t-83.5 8.5zM644 305q0 127 -84.5 213t-218.5 86h-268q-35 0 -35 -21q0 -7 3 -11.5t11.5 -7t11 -3 t14.5 -1.5v-508q-41 -3 -41 -24q0 -10 12.5 -17t23.5 -7h178q69 0 113 4.5t96 19.5t90 49.5t64 89.5q30 63 30 138zM430 -15q2 0 34.5 -2.5t51.5 -4t58 -5t65 -7.5t62 -9.5t59.5 -13t46 -16t33.5 -19.5t11 -24q0 -21 -64.5 -33t-172.5 -12h-268q-23 0 -45.5 3t-36 6.5 t-13.5 7.5q0 5 26 8l-171 98q-106 6 -106 68q0 36 45 52v448q-42 14 -42 48q0 23 19.5 41t49.5 18h269q144 0 240.5 -93t96.5 -239q0 -102 -49 -181q-69 -113 -199 -139z" />
<glyph unicode="E" horiz-adv-x="593" d="M563 -57q-52 1 -160 1l17 -10q108 1 108 2q0 7 35 7zM664 -111q-21 0 -64 5q-10 1 -52 1h-60l13 -7h123q37 0 40 1zM467 190q-40 2 -49 39h-109v-42q13 0 41.5 -0.5t43.5 -0.5q42 0 73 4zM558 161q1 3 1 8q0 13 -13 13q-10 0 -39 -12l-17 -9q-21 -7 -56 -7h-158v109h135 q27 0 38 -18q4 -22 19 -22q16 0 23 23v142q-3 17 -14 17q-9 0 -29.5 -12.5t-28.5 -13.5q-23 -5 -56 -5q-15 0 -44.5 1.5t-42.5 1.5v99q28 0 83 0.5t83 0.5q40 0 58 -16q12 -8 24 -8q16 0 19 15q0 25 -14 80.5t-31 55.5h-435q-29 0 -29 -18q0 -21 33 -26v-506q-34 -7 -34 -22 q0 -20 30 -24h428q8 0 15.5 7.5t10.5 15.5q8 25 21.5 69t19.5 61zM474 439q-14 4 -30 4q-102 0 -135 -1v-32q6 0 30 -1t38 -1q33 0 42 5q30 25 55 26zM696 -107q22 -1 35.5 -2t31 -4.5t26 -12t8.5 -21.5q0 -7 -30 -7q-440 -2 -441 -2q-28 0 -56 4.5t-28 11.5q0 6 18 9 l-173 98q-87 7 -87 63q0 38 34 51v453q-33 12 -33 50q0 53 61 53h439q22 0 32.5 -12.5t16.5 -36.5q2 -9 9 -33t11.5 -44t4.5 -36q0 -42 -41 -55h-21q12 -17 12 -32v-135q-3 -30 -21 -48q25 9 42 9q47 0 47 -41q0 -9 -3 -21q-7 -27 -22.5 -75.5t-17.5 -55.5q-6 -18 -18 -32 q27 -1 49 -8q15 -5 45 -14t45 -14q15 -6 15 -9q0 -6 -42 -6q-6 0 -19 0.5t-20 0.5q28 -4 40 -9l51 -31q2 -1 2 -3t-2 -3z" />
<glyph unicode="F" horiz-adv-x="577" d="M662 -111q-36 0 -65 6h-110l14 -7h142q17 0 19 1zM522 448q9 0 15.5 6.5t6.5 16.5q0 18 -19 61.5t-20 51.5t-7 14t-13 6h-423q-29 0 -29 -19q0 -15 16.5 -22.5t16.5 -17.5v-477q0 -10 -16.5 -17.5t-16.5 -22.5q0 -20 29 -20h218q29 0 29 22q0 8 -5 14.5t-12 6.5 q-6 0 -11 5.5t-5 11.5v179q0 7 5 12.5t12 5.5h115q37 0 42 -25q3 -16 15 -16q10 0 18 9t8 22v130q0 9 -7.5 15.5t-16.5 6.5q-14 0 -19 -12q-8 -19 -40 -19h-115q-7 0 -12 5t-5 12v68q0 5 5 10.5t12 5.5h155q35 0 47 -15q11 -14 27 -14zM472 439q-8 4 -22 4h-142v-34h110 q10 18 21.5 24t32.5 6zM786 -131q0 -25 -35 -25h-424q-23 0 -43.5 3t-32 7t-11.5 8t19 7l-172 98q-35 3 -61 18.5t-26 47.5q0 35 33 48v451q-33 13 -33 48q0 23 17 40t45 17h423q35 0 54 -51q2 -6 13.5 -31.5t18 -47t6.5 -39.5q0 -34 -27 -47q-13 -6 -35 -6q10 -13 10 -30 v-130q0 -28 -17.5 -45.5t-40.5 -17.5q-36 0 -50 38q0 2 -3 2q-1 0 -3 -0.5t-3 -0.5h-100v-150q35 -15 35 -48q0 -27 -21 -44q60 -5 60 -15q0 -6 -19 -7l57 -33h98l10 1q0 8 37 8q58 0 81 -14q55 -35 59 -35q81 0 81 -25z" />
<glyph unicode="G" horiz-adv-x="664" d="M631 63v248q0 10 -1 13.5t-5 6.5t-14 3h-143q-71 0 -71 -9t14.5 -20t28.5 -26.5t14 -34.5q0 -33 -23 -54.5t-58 -21.5q-56 0 -90.5 39.5t-34.5 97.5q0 59 35.5 103.5t95.5 44.5q107 0 182 -28q47 -18 64 -18h4q4 2 4 8q0 1 -2 13l-37 146q-7 32 -17 37q-9 6 -18 6 q-10 0 -31.5 -8.5t-31.5 -8.5h-5q-94 16 -169 16q-121 0 -206 -90q-82 -87 -82 -220q0 -134 82 -221q84 -89 206 -89q114 0 199 20q68 16 110 47zM871 -142q2 -4 2 -6q0 -10 -51 -10q-9 0 -21.5 2.5t-21.5 2.5q-1 0 -9 -0.5t-9 -0.5q-18 0 -76.5 -2t-91.5 -2 q-68 0 -172.5 9.5t-206 35t-101.5 60.5q0 17 31 26.5t59 12.5q-65 26 -111 77q-92 97 -92 243q0 144 92 243q94 100 230 100q30 0 88 -8.5t88 -8.5q7 0 24.5 8.5t25.5 8.5q3 1 9 1q26 0 39 -12q19 -12 30 -56l37 -146q3 -13 3 -23q0 -30 -28 -37q-6 -2 -16 -2 q-19 0 -56 13.5t-43 15.5q-68 18 -143 18q-45 0 -71.5 -35.5t-26.5 -82.5q0 -42 23.5 -72t64.5 -30q50 0 50 38q0 20 -29.5 41.5t-29.5 42.5q0 45 70 45h180q52 0 52 -57v-257q0 -9 -6 -13q-43 -35 -108 -52q74 -4 146 -13q10 0 12 -2l97 -57q9 -5 9 -7q0 -6 -38 -6h-189 q-55 0 -77 9q-4 1 -4 3t17 6t17 6q0 4 -19 8q-10 4 -52 4q-56 0 -56 -12q0 -4 10 -11q44 -25 162 -25q63 0 117 4q9 0 21 3q40 4 68 4h14q40 -2 48 -14z" />
<glyph unicode="H" horiz-adv-x="667" d="M357 -16q-14 10 -24 26q-6 -12 -15 -21q19 -1 39 -5zM461 -61l-47 28q-17 1 -34 5q-4 -4 -17 -5l47 -28h51zM585 -131l-44 25h-52l44 -25q18 -1 35 -5q2 3 17 5zM360 82v123h-52v-123q16 -5 25 -21q13 16 27 21zM618 51q-6 0 -11 5.5t-5 11.5v477q0 7 5 12.5t11 5.5 q16 0 16 14q0 10 -8 18.5t-20 8.5h-218q-11 0 -19 -8t-8 -18q0 -15 16 -15q6 0 10.5 -5.5t4.5 -12.5v-148q0 -6 -4.5 -11.5t-10.5 -5.5h-86q-6 0 -10.5 5.5t-4.5 11.5v148q0 10 14.5 16.5t15.5 17.5q-1 11 -8.5 18t-17.5 7h-219q-12 0 -19.5 -8.5t-7.5 -18.5q0 -14 15 -14 q6 0 11.5 -5.5t5.5 -12.5v-477q0 -6 -5.5 -11.5t-11.5 -5.5q-15 0 -15 -15q0 -10 7.5 -19t19.5 -9h219q11 0 18.5 9t7.5 19q0 15 -15 15q-6 0 -10.5 5.5t-4.5 11.5v154q0 6 4.5 11t10.5 5h86q6 0 10.5 -5t4.5 -11v-154q0 -6 -4.5 -11.5t-10.5 -5.5q-16 0 -16 -15 q0 -10 8 -19t19 -9h218q12 0 20 9t8 19q0 15 -16 15zM360 413v118q-15 5 -27 22q-8 -16 -25 -22v-118h52zM873 -156h-218q-41 0 -68 9q-4 -9 -40 -9h-220q-32 0 -60 6.5t-28 12.5q0 5 19 6l-171 98q-34 3 -60 20.5t-26 50.5q0 34 31 44v449q-32 10 -32 44q0 24 17 43t44 19 h219q37 0 53 -34q18 34 55 34h218q26 0 43.5 -19.5t17.5 -43.5q0 -33 -31 -43v-449q32 -10 32 -44q0 -28 -23 -49q63 -6 63 -16q0 -5 -19 -6l172 -98q53 -3 53 -15q0 -10 -41 -10z" />
<glyph unicode="I" horiz-adv-x="354" d="M298 51q-6 0 -11 5.5t-5 11.5v477q0 7 5 12.5t11 5.5q23 0 23 18q0 9 -9 16t-26 7h-218q-17 0 -26 -7t-9 -16q0 -18 23 -18q6 0 11.5 -5.5t5.5 -12.5v-477q0 -6 -5.5 -11.5t-11.5 -5.5q-23 0 -23 -19q0 -10 9 -17t26 -7h218q17 0 26 7t9 17q0 7 -6 13t-17 6zM554 -156 h-219q-25 0 -47 3t-34.5 7t-12.5 8t25 7l-171 98q-95 7 -95 66q0 38 40 49v449q-40 11 -40 48q0 23 18.5 40.5t49.5 17.5h218q31 0 50 -17.5t19 -40.5q0 -36 -41 -48v-449q41 -12 41 -48q0 -27 -24 -45q65 -5 65 -15q0 -6 -26 -7l172 -98q62 -5 62 -15t-50 -10z" />
<glyph unicode="J" horiz-adv-x="438" d="M385 563q19 0 19 16q0 10 -8.5 17.5t-22.5 7.5h-218q-15 0 -23 -7.5t-8 -17.5q0 -16 19 -16q6 0 11 -5.5t5 -12.5v-322q0 -18 -12.5 -32t-31.5 -14q-12 0 -39.5 20t-35.5 20t-8 -15q0 -6 17 -154q0 -21 10 -24q73 -26 132 -26q83 0 130 53t47 161v333q0 7 5 12.5t12 5.5z M636 -156h-218q-23 0 -44.5 3t-34 7t-12.5 8q0 6 22 7q-123 70 -134 70q-9 0 -29 -4.5t-33 -4.5q-43 0 -62 14q-44 36 -44 38q0 4 19 5q-23 8 -33.5 19t-17.5 38q-15 148 -15 155q0 52 37 52q8 0 13 -2q12 -3 21.5 -9t19 -14.5t15.5 -12.5q5 -3 10 -3q10 0 10 13v308 q-36 12 -36 46q0 23 18 41.5t47 18.5h218q29 0 46.5 -18.5t17.5 -42.5q0 -33 -35 -45v-319q0 -84 -21.5 -135.5t-81.5 -87.5q126 -7 203 -51l122 -69q58 -3 58 -15q0 -10 -46 -10z" />
<glyph unicode="K" horiz-adv-x="718" d="M441 -33q-70 20 -70 69q0 32 32 45q-20 66 -92 124v-123q36 -12 36 -47q0 -28 -25 -47h19q29 0 29 -15q0 -5 -21 -6l47 -28q1 0 7 1.5t9.5 3t9.5 4t9.5 5t6.5 6.5t3 8zM666 51q-5 0 -10.5 5t-5.5 10q-7 64 -44 133.5t-85 120.5q-4 4 -4 12q0 7 4 11q107 107 119 204 q0 11 17 16t17 16q0 10 -8 17.5t-22 7.5h-219q-14 0 -22.5 -7.5t-8.5 -17.5q0 -11 18 -16t18 -18q0 -2 -1 -3q-12 -52 -42 -89t-82 -78q-4 -4 -10 -4q-7 0 -12 5t-5 12v157q0 13 18 18.5t18 16.5q0 9 -8.5 16.5t-22.5 7.5h-219q-15 0 -23 -7.5t-8 -16.5q0 -11 18 -16.5 t18 -18.5v-477q0 -12 -18 -18t-18 -17q0 -10 8 -17.5t23 -7.5h219q14 0 22.5 7.5t8.5 17.5q0 11 -18 17t-18 18v170q0 7 5 12t12 5q6 0 9 -2q115 -83 136 -182q0 -14 -17.5 -20.5t-17.5 -17.5q0 -9 8.5 -17t22.5 -8h219q14 0 22.5 7.5t8.5 17.5q0 18 -20 18zM893 -156h-218 q-34 0 -63 6t-29 12q0 3 19 6q-41 13 -123 25l41 -24q57 -3 57 -15q0 -10 -46 -10h-218q-23 0 -44.5 3t-33.5 7t-12 8q0 6 22 7l-172 98q-73 13 -73 69q0 34 36 46v449q-36 12 -36 46q0 23 17.5 41.5t46.5 18.5h219q29 0 46.5 -18.5t17.5 -41.5q0 -34 -36 -46v-109 q65 55 82 110q-32 13 -32 45q0 23 18 41.5t46 18.5h219q29 0 46.5 -18t17.5 -41q0 -37 -37 -47q-16 -100 -115 -199q106 -123 125 -250q37 -10 37 -47q0 -31 -24 -47q48 -7 48 -14q0 -6 -24 -7q10 -9 10 -18q0 -20 -39 -37q145 -25 190 -43q59 -5 59 -16q0 -9 -45 -9z" />
<glyph unicode="L" horiz-adv-x="469" d="M433 175q2 8 2 11q0 13 -10 13q-13 0 -34 -17q-15 -13 -66 -13q-7 0 -19 0.5t-15 0.5q-6 0 -11 5t-5 12v358q0 7 5 12.5t11 5.5q15 0 15 16q0 9 -8 17t-19 8h-218q-12 0 -20 -7.5t-8 -17.5q0 -16 16 -16q7 0 12 -5.5t5 -12.5v-477q0 -6 -5 -11.5t-12 -5.5q-16 0 -16 -15 q0 -10 8 -19t20 -9h320q16 0 21 25zM554 -52q12 -3 12 -8q0 -6 -37 -6q-39 2 -58 5q-3 1 -18 1q-10 0 -26.5 -0.5t-18.5 -0.5l125 -70q53 -3 53 -15q0 -10 -40 -10h-220q-31 0 -59 6.5t-28 12.5q0 5 19 6l-172 98q-35 2 -60.5 19.5t-25.5 51.5t31 44v449q-31 10 -31 43 q0 24 17.5 43.5t43.5 19.5h218q26 0 43 -19t17 -43q0 -34 -32 -44v-327q1 0 11.5 -0.5t17.5 -0.5q30 0 34 5q28 24 56 24q20 0 31.5 -13.5t11.5 -33.5q0 -5 -2 -17l-33 -142q-5 -23 -21 -38q2 0 23.5 -2.5t31.5 -6.5z" />
<glyph unicode="M" horiz-adv-x="823" d="M674 -66l-59 33q-56 8 -79.5 22.5t-23.5 45.5q0 35 37 47v151l-70 -156q-24 -56 -68 -56q-43 0 -67 56l-69 156v-151q35 -12 35 -46q0 -29 -25 -48q72 -11 72 -17q0 -3 -15 -4l57 -33l9 34q5 13 47 13q40 0 90 -13zM770 51q-6 0 -11 5.5t-5 11.5v477q0 7 5 12.5t11 5.5 q19 0 19 16q0 10 -8 17.5t-22 7.5h-211q-35 0 -47 -32l-74 -202q-3 -11 -16 -11q-12 0 -16 11l-74 200q-13 34 -46 34h-211q-14 0 -22.5 -7.5t-8.5 -17.5q0 -16 20 -16q6 0 11 -5.5t5 -12.5v-477q0 -6 -5 -11.5t-11 -5.5q-20 0 -20 -18q0 -9 8.5 -17t22.5 -8h182 q14 0 22.5 8t8.5 17q0 7 -5 12.5t-14 5.5q-6 0 -11 5.5t-5 11.5v245q0 15 17 15q9 0 14 -9l101 -228q15 -36 38 -36q20 0 37 36l101 228q3 9 14 9q6 0 11.5 -4.5t5.5 -10.5v-245q0 -6 -5 -11.5t-11 -5.5q-19 0 -19 -18q0 -9 8 -17t23 -8h182q14 0 22 8t8 17q0 18 -19 18z M1038 -156h-212q-60 0 -99 14l-119 35l2 -35q0 -5 -10 -9q-20 -5 -46 -5h-211q-23 0 -44.5 3t-33.5 7t-12 8q0 6 22 7l-173 98q-53 7 -77.5 23t-24.5 45q0 35 36 47v449q-36 12 -36 46q0 23 17.5 41.5t46.5 18.5h211q59 0 78 -55l58 -160l59 160q20 55 78 55h211 q28 0 45.5 -18.5t17.5 -41.5q0 -34 -35 -46v-449q36 -12 36 -47q0 -28 -25 -47q71 -11 71 -17q0 -3 -15 -4l171 -98q57 -5 57 -15t-44 -10z" />
<glyph unicode="N" horiz-adv-x="727" d="M417 -12q-20 15 -33 38l-110 184v-128q36 -12 36 -47q0 -28 -25 -47q67 -10 67 -17q0 -3 -17 -4l51 -29l14 42q5 5 17 8zM675 51q-7 0 -12 5.5t-5 11.5v477q0 7 5 12.5t12 5.5q15 0 15 14q0 10 -8 18.5t-19 8.5h-182q-14 0 -22.5 -7.5t-8.5 -17.5q0 -16 19 -16 q6 0 11.5 -5.5t5.5 -12.5v-212q0 -16 -18 -16q-9 0 -13 7l-149 255q-15 25 -61 25h-188q-10 0 -17 -8t-7 -17q0 -16 20 -16q6 0 11 -5.5t5 -12.5v-477q0 -6 -5 -11.5t-11 -5.5q-20 0 -20 -18q0 -9 8.5 -17t22.5 -8h181q15 0 23.5 8t8.5 18q0 17 -19 17q-7 0 -12 5.5t-5 11.5 v204q0 6 5.5 10.5t11.5 4.5q9 0 14 -8l140 -237q22 -34 43 -34h216q22 0 22 22q0 21 -18 21zM936 -156h-181q-23 0 -45 3t-34 7t-12 8q0 6 22 7l-53 30l-41 -45q-9 -10 -73 -10h-196q-24 0 -49 6.5t-25 12.5q0 5 20 6l-172 98q-54 7 -75.5 21.5t-21.5 47.5q0 34 34 46v449 q-33 11 -33 46q0 23 14.5 41.5t34.5 18.5h195q65 0 89 -42l119 -201v137q-37 12 -37 46q0 23 18 41.5t47 18.5h182q26 0 43 -19t17 -43q0 -34 -32 -44v-449q35 -12 35 -50q0 -27 -20 -44q62 -10 62 -17q0 -3 -14 -4l170 -98q53 -3 53 -15q0 -10 -41 -10z" />
<glyph unicode="O" horiz-adv-x="688" d="M345 195q28 0 43.5 33t15.5 78t-15.5 78t-43.5 33t-44 -33t-16 -78t16 -78t44 -33zM345 163q-44 0 -68.5 42.5t-24.5 100.5t24.5 100.5t68.5 42.5q43 0 67.5 -42.5t24.5 -100.5t-24.5 -100.5t-67.5 -42.5zM527 -112q31 0 31 9q0 11 -38 25t-78 14q-31 0 -31 -9 q0 -11 38 -25t78 -14zM656 306q0 138 -87 224t-224 86q-138 0 -225 -86t-87 -224t87 -224t225 -86q137 0 224 86t87 224zM828 -88q29 -17 29 -30q0 -21 -64 -33.5t-178 -12.5q-152 0 -284.5 21t-190.5 55q-28 16 -28 30q0 29 110 40q-102 34 -162 120t-60 204 q0 151 96.5 247t248.5 96q151 0 247.5 -96t96.5 -247q0 -116 -58.5 -201.5t-157.5 -120.5q255 -15 355 -72z" />
<glyph unicode="P" horiz-adv-x="658" d="M391 379q0 23 -16.5 39t-39.5 16h-21v-111h21q23 0 39.5 16.5t16.5 39.5zM424 379q0 -37 -26 -63t-63 -26h-38q-7 0 -11.5 5.5t-4.5 11.5v144q0 7 4.5 12t11.5 5h38q37 0 63 -26t26 -63zM558 -96q0 8 -33 13t-52 5h-22l47 -27h22q38 0 38 9zM622 379q0 104 -65 164.5 t-169 60.5h-321q-16 0 -24.5 -7.5t-8.5 -16.5q0 -18 21 -18q6 0 11 -5.5t5 -11.5v-478q0 -5 -5 -10.5t-11 -5.5q-21 -1 -21 -19q0 -24 33 -24h218q16 0 24.5 7t8.5 17q0 17 -22 19q-6 0 -10.5 5t-4.5 11v71q0 6 4.5 11t11.5 5h91q105 0 169.5 60.5t64.5 164.5zM440 -28 q75 0 159.5 -7t164 -28.5t79.5 -54.5q0 -37 -183 -37h-322q-25 0 -47.5 3.5t-35.5 8t-13 8.5t22 7l-180 103h-17q-28 0 -47.5 15.5t-19.5 42.5q0 36 38 49v448q-38 12 -38 48q0 23 18 41t49 18h321q119 0 194 -70.5t75 -187.5t-75 -187.5t-194 -70.5h-74v-39q38 -13 38 -48 q0 -17 -11 -33q29 -5 29 -12q0 -6 -22 -7l17 -10h75z" />
<glyph unicode="Q" horiz-adv-x="691" d="M345 189q28 0 43.5 33t15.5 78t-15.5 78t-43.5 33t-43.5 -33t-15.5 -78t15.5 -78t43.5 -33zM345 157q-44 0 -68.5 42.5t-24.5 101.5q0 58 24.5 100.5t68.5 42.5q43 0 67.5 -42.5t24.5 -100.5t-24.5 -101t-67.5 -43zM455 -82q-12 19 -19 45l-27 -1q-15 -1 -15 -8t17 -17.5 t44 -18.5zM574 -109q35 0 64 15t29 48q0 20 -10 35.5t-26 15.5q-11 0 -27.5 -11.5t-29.5 -12.5q-16 0 -35.5 14.5t-19.5 30.5q0 9 7 14q63 41 97 112t34 150q0 129 -88 219t-224 90q-132 0 -222 -85.5t-90 -224.5t87 -226q85 -85 225 -85q54 0 97 12h2l2 1q14 0 17 -13 q10 -50 35.5 -74.5t75.5 -24.5zM849 -102q0 -26 -74.5 -37t-157.5 -11q-153 0 -290 24q-105 18 -170 45.5t-65 52.5q0 15 24 25q5 2 36 11q-69 39 -110.5 119.5t-41.5 171.5q0 145 96 245t249 100q143 0 244 -95.5t101 -246.5q0 -75 -27.5 -143.5t-80.5 -116.5q16 -1 37 -5 q12 2 16 2q47 0 62 -60q70 -18 111 -40t41 -41z" />
<glyph unicode="R" horiz-adv-x="658" d="M336 323q26 0 40.5 16t14.5 39t-14.5 39.5t-40.5 16.5h-21v-111h21zM336 290h-38q-7 0 -11.5 5.5t-4.5 11.5v144q0 7 4.5 12t11.5 5h38q41 0 64.5 -27t23.5 -63t-23 -62t-65 -26zM417 -25q-30 1 -46 14q0 -6 -22 -7l41 -24q25 7 27 17zM521 -105q37 0 37 8q0 4 -10.5 8.5 t-30.5 7.5t-43 3h-22l48 -27h21zM379 79q0 34 -58 98h-6v-95q38 -13 38 -48q0 -17 -11 -33q21 -4 25 -7q-15 7 -15 28q0 16 8 33t19 24zM651 51q-6 0 -11.5 5.5t-5.5 10.5q0 38 -26 81t-59 75q-5 4 -5 12q0 9 7 13q36 24 55.5 67.5t19.5 92.5q0 99 -65.5 147.5t-171.5 48.5 h-321q-16 0 -24.5 -7.5t-8.5 -16.5q0 -18 21 -18q6 0 11.5 -5.5t5.5 -11.5v-478q0 -5 -5.5 -10.5t-11.5 -5.5q-21 -1 -21 -19q0 -24 33 -24h218q16 0 24.5 7t8.5 17q0 17 -22 19q-6 0 -10.5 5t-4.5 11v127q0 6 4.5 11t11.5 5h31q8 0 13 -5q70 -78 70 -126q0 -25 -14 -27 q-11 -6 -11 -17t9 -19t24 -8h218q17 0 26.5 7t9.5 16q0 18 -23 20zM834 -140q-44 -15 -173 -15h-323q-24 0 -46.5 3.5t-35.5 8t-13 8.5t22 7l-180 103h-17q-29 0 -48.5 19t-19.5 42q0 33 38 46v448q-37 12 -37 48q0 23 18 41t49 18h321q76 0 134.5 -22.5t96.5 -75.5t38 -132 q0 -114 -73 -174q73 -77 81 -151q41 -12 41 -49q0 -16 -11 -32q28 -5 28 -12q0 -6 -24 -7q8 -7 8 -14q0 -12 -24 -24q74 -11 122.5 -31t48.5 -37q0 -10 -21 -16z" />
<glyph unicode="S" horiz-adv-x="586" d="M555 189q0 36 -11.5 64t-26.5 45t-44.5 31t-51.5 21t-62 17q-20 5 -34.5 20.5t-14.5 34.5q0 25 19.5 38.5t46.5 13.5q30 0 64.5 -12t50.5 -26q20 -16 34 -16q11 0 11 13q0 2 -2 10l-32 143q-6 25 -19 25q-5 0 -19 -8t-26 -8q-20 0 -58 12q-47 14 -96 14q-94 0 -161 -49 t-67 -143q0 -67 38 -107q27 -27 87 -47.5t81 -40.5q18 -16 18 -39t-17.5 -35.5t-43.5 -12.5q-35 0 -77 15t-59 30q-20 16 -35 16t-15 -20l25 -151q6 -18 18 -23q13 0 29 7.5t27 7.5q28 0 69 -13q51 -14 102 -14q106 0 179 56q73 55 73 131zM784 -136l2 -4q0 -9 -29 -9 q-9 0 -29 2t-31 2q-20 0 -66 -3t-73 -3q-108 0 -209 14t-147 41q-18 11 -18 20q0 21 109 29q35 3 35 7q0 5 -33 5q-48 0 -102 -9q-14 -5 -46 -5q-44 0 -78 19.5t-44 61.5q-25 151 -25 154q0 22 12.5 37.5t36.5 15.5q29 0 55 -21q10 -8 51.5 -23t66.5 -15q24 0 24 15 q0 13 -16 22t-32 13q-176 51 -176 199q0 109 77.5 167t184.5 58q52 0 105 -16q36 -9 45 -9q11 0 27.5 7.5t25.5 7.5q17 0 30 -16t17 -35l33 -142q2 -14 2 -19q0 -21 -12.5 -32.5t-31.5 -11.5q-27 0 -55 23q-9 8 -41.5 19t-55.5 11q-30 0 -30 -18q0 -8 8 -15t16 -9 q42 -10 70 -19.5t59 -26.5t49 -37.5t30 -53t12 -73.5q0 -122 -122 -181q143 -13 200 -45q20 -11 20 -21q0 -20 -152 -31q-14 0 -14 -4q1 -1 3 -2q9 -4 35 -4q54 0 86 8q13 5 44 5q57 0 70 -16z" />
<glyph unicode="T" horiz-adv-x="574" d="M538 426l-38 141q-6 24 -11 31.5t-13 7.5q-4 0 -16 -1t-19 -1h-308q-6 0 -18 1.5t-19 1.5q-11 0 -22 -40l-40 -141q-1 -4 -1 -12q0 -18 17 -18q10 0 19 6.5t9 15.5q0 7 5 12t11 5h71q7 0 11.5 -5.5t4.5 -11.5v-351q0 -6 -4.5 -11t-10.5 -5q-24 -2 -24 -20q0 -9 9 -16 t26 -7h219q17 0 26 7t9 16q0 18 -24 20q-6 0 -11 5.5t-5 10.5v351q0 6 5 11.5t12 5.5h71q6 0 11 -5t6 -12q0 -9 9 -15.5t18 -6.5q17 0 17 19q0 7 -2 11zM756 -105q23 -41 23 -45q0 -6 -20 -6h-402q-29 0 -71 16l-98 35q-17 6 -17 10q0 7 34 7q43 0 75 -9h39l-124 72h-18 q-30 0 -50.5 19t-20.5 42q0 33 42 46v319h-40q-6 -18 -21.5 -28t-33.5 -10q-22 0 -37.5 13.5t-15.5 37.5q0 10 3 21l40 140q11 40 20 52.5t24 12.5q7 0 22 -1.5t24 -1.5h308q7 0 21 1.5t22 1.5q17 0 27 -13t21 -52l39 -140q3 -11 3 -21q0 -24 -15.5 -37.5t-37.5 -13.5 q-42 0 -56 38h-41v-319q40 -13 40 -50q0 -16 -10 -31q27 -5 27 -12q0 -6 -23 -7l137 -79h41q0 9 41 9q69 0 79 -17z" />
<glyph unicode="U" horiz-adv-x="669" d="M620 -128l-133 76q-7 4 -39 4h-5q-5 1 -9 1q-11 0 -11 -4q0 -1 135 -77q28 -4 41 -7q4 4 21 7zM611 562q24 0 24 19q0 9 -9 16t-26 7h-177q-17 0 -26 -7t-9 -16q0 -19 23 -19q6 -1 11.5 -6t5.5 -11v-328q0 -23 -19 -36t-46 -13q-26 0 -45 13t-19 36v328q0 6 5 11t10 6 q24 0 24 19q0 9 -8.5 16t-25.5 7h-235q-17 0 -26 -7t-9 -16q0 -19 23 -19q7 -1 12 -6t5 -11v-379q0 -43 27 -77.5t68 -53.5t84 -29t81 -10q39 0 82 10t84 29t68 53.5t27 77.5v379q0 6 5 11t11 6zM394 217v313q-20 6 -30 25q-15 -20 -32 -25v-313q0 -17 30 -17q32 0 32 17z M872 -155h-178q-49 0 -71 7q-4 -7 -48 -7h-235q-25 0 -48.5 3t-36.5 7.5t-13 8.5q0 5 24 8l-155 89q-14 7 -14 15q0 15 66 25q-124 58 -124 165v364q-39 14 -39 49q0 23 19 40.5t50 17.5h235q40 0 60 -27q16 27 59 27h177q31 0 49.5 -17.5t18.5 -40.5q0 -36 -40 -49v-364 q0 -55 -33.5 -97t-88.5 -68q145 -14 192 -40l157 -89q64 -5 64 -17q0 -10 -47 -10z" />
<glyph unicode="V" horiz-adv-x="683" d="M625 562q23 0 23 19q0 9 -9 16t-26 7h-186q-16 0 -25 -7t-9 -16q0 -19 23 -19q17 -2 17 -17q0 -2 -1 -4l-59 -247q-3 -12 -16 -12q-14 0 -17 12l-58 247v3l-1 1q0 15 17 17q23 0 23 19q0 9 -8.5 16t-25.5 7h-219q-17 0 -26 -7t-9 -16q0 -8 6.5 -13.5t17.5 -5.5 q12 -2 15 -14l125 -477q5 -19 7 -26t8.5 -18t16.5 -15t25 -4h174q40 0 56 63l125 477q3 12 16 14zM885 -156h-186q-24 0 -47 3t-36.5 7.5t-13.5 8.5q0 5 21 8l-109 40l31 -40q61 -6 61 -17q0 -10 -48 -10h-219q-26 0 -49 3.5t-35.5 8t-12.5 8.5q0 7 26 8q-81 120 -81 123 t3 6q-13 17 -25 63l-123 465q-42 10 -42 50q0 23 18.5 40.5t49.5 17.5h219q30 0 49 -17.5t19 -40.5q0 -33 -37 -47l40 -163l38 163q-37 14 -37 47q0 23 19 40.5t49 17.5h186q31 0 49.5 -17.5t18.5 -40.5q0 -17 -11.5 -31t-32.5 -19l-121 -465q-10 -39 -30 -63q24 -4 56 -15 l322 -114q69 -5 69 -18q0 -10 -48 -10z" />
<glyph unicode="W" horiz-adv-x="1032" d="M585 -31q-13 15 -32 54l-39 110l-42 -111q-3 -11 -11 -21q11 -1 20 -5zM975 562q22 0 22 19q0 9 -9 16t-26 7h-196q-17 0 -26 -7t-9 -16q0 -8 6.5 -13.5t17.5 -5.5q15 -2 15 -17v-4l-68 -288q-3 -12 -17 -12q-13 0 -16 12l-69 288v4q0 15 17 17q23 0 23 18q0 24 -36 24 h-145q-17 0 -26 -7t-9 -16q0 -19 24 -19q15 -2 15 -17v-4l-69 -288q-3 -12 -16 -12q-12 0 -15 12l-69 288v4q0 15 16 17q23 0 23 19q0 9 -9 16t-26 7h-230q-17 0 -26 -7t-9 -16q0 -8 6.5 -13.5t17.5 -5.5q15 -2 16 -14l132 -515q2 -9 10 -17t17 -8h186q12 0 23 26l58 154 q5 10 16 10q12 0 15 -10l54 -155q3 -8 10.5 -16.5t11.5 -8.5h198q6 0 12.5 9t8.5 16l133 515q3 12 17 14zM1249 -155h-197q-24 0 -47 3t-36.5 7.5t-13.5 8.5t21 7l-135 49l37 -49q61 -6 61 -16t-48 -10h-145q-25 0 -48 3t-36.5 7.5t-13.5 8.5t20 7l-136 49l40 -49 q60 -6 60 -16t-48 -10h-229q-26 0 -49.5 3t-36 7.5t-12.5 8.5q0 5 27 8l-80 117q-8 2 -17.5 13t-12.5 22l-130 505q-44 10 -44 50q0 23 18.5 40.5t49.5 17.5h230q31 0 50 -17.5t19 -40.5q0 -32 -38 -47l50 -204l48 204q-36 14 -36 47q0 23 19 40.5t49 17.5h145 q31 0 50 -17.5t19 -40.5q0 -33 -36 -47l48 -204l48 204q-36 15 -36 47q0 23 19 40.5t50 17.5h196q32 0 50 -17t18 -41q0 -40 -42 -50l-131 -505q-1 -9 -11 -23q4 0 22 -5l360 -124q69 -5 69 -17q0 -10 -48 -10z" />
<glyph unicode="X" horiz-adv-x="721" d="M399 -25q-26 2 -45 16.5t-19 40.5q0 30 30 46q-25 67 -37 88q-26 -32 -41 -87q30 -17 30 -49q0 -16 -9 -29q26 -5 26 -12q0 -5 -15 -6q39 -14 78 -22q3 5 3 9v2q-1 2 -1 3zM665 51q-5 0 -9.5 4t-5.5 8q-2 5 -9.5 28t-10 30t-10.5 28t-12 30t-12.5 26.5t-15.5 28 t-16.5 24.5t-20.5 24.5t-23 20.5q-5 5 -5 13t4 11q43 39 80.5 103.5t37.5 114.5q0 6 5.5 11.5t11.5 5.5q23 0 23 19q0 9 -9 16t-25 7h-175q-30 0 -30 -21q0 -8 5.5 -14.5t13.5 -6.5q6 0 11 -6t5 -13q-1 -27 -33.5 -78.5t-54.5 -51.5q-20 0 -47 46.5t-38 80.5v2l-1 2 q0 6 5 11.5t11 6.5q9 0 14.5 6.5t5.5 14.5q0 21 -30 21h-220q-17 0 -25.5 -7t-8.5 -16q0 -19 24 -19q5 0 10 -5.5t5 -11.5q1 -51 29.5 -112.5t67.5 -105.5q4 -4 4 -11q0 -8 -6 -13q-26 -19 -45.5 -51t-28 -57t-20 -70t-17.5 -62q-6 -12 -16 -12q-24 -2 -24 -20q0 -9 9.5 -16 t26.5 -7h185q28 0 28 21q0 20 -17 22q-7 0 -11.5 5t-4.5 11q0 2 1 4q26 96 69 132q4 4 11 4q9 0 14 -6q9 -13 18.5 -31t14 -29.5t13 -35.5t11.5 -31q1 -2 1 -6q0 -7 -4.5 -12t-11.5 -5q-7 -1 -12.5 -7t-5.5 -14q0 -22 32 -22h252q17 0 26 7t9 16q0 18 -23 20zM913 -155h-174 q-23 0 -45 3t-35 7.5t-13 8.5t17 7q-39 12 -84 20q-14 -11 -14 -20q56 -8 56 -17t-46 -9h-218q-6 0 -19.5 1t-31.5 2.5t-31 5.5t-13 10q0 5 22 8q-17 11 -17 24q0 16 19 27q-30 5 -59.5 12t-43.5 11.5t-47 15.5t-38 13h-28q-29 0 -49.5 14t-20.5 38q0 19 12.5 35t32.5 21 q4 13 17 60.5t20.5 68.5t26 53t42.5 53q-84 106 -93 212q-17 6 -29 20t-12 33q0 23 20.5 38.5t47.5 15.5h220q29 0 46.5 -16.5t17.5 -39.5q0 -31 -32 -48q21 -46 50 -80q36 35 48 80q-32 16 -32 48q0 22 18 39t47 17h175q31 0 49.5 -17.5t18.5 -40.5q0 -37 -41 -49 q-6 -52 -39.5 -112t-74.5 -102q31 -29 55.5 -72.5t36 -74t29.5 -86.5q44 -10 44 -51q0 -17 -10 -31q28 -5 28 -12t-27 -8q8 -18 8 -26q0 -20 -30 -32q140 -21 206 -51q65 -5 65 -17q0 -10 -48 -10z" />
<glyph unicode="Y" horiz-adv-x="682" d="M624 562q24 0 24 19q0 9 -9 16t-26 7h-162q-17 0 -26 -7t-9 -16q0 -19 24 -19q6 0 10.5 -5.5t4.5 -11.5q0 -63 -17 -110.5t-55 -106.5q-4 -7 -14 -7t-14 7q-38 59 -55 106.5t-17 110.5q0 6 4.5 11.5t10.5 5.5q23 0 23 19q0 9 -9 16t-26 7h-218q-17 0 -26 -7t-9 -17 q0 -18 23 -18q6 0 11.5 -5.5t5.5 -11.5q0 -103 38 -173.5t123 -166.5q5 -10 5 -11v-127q0 -5 -5.5 -10.5t-12.5 -5.5q-22 -2 -22 -20q0 -9 9 -16t25 -7h219q17 0 26 7t9 16q0 18 -23 20q-6 0 -11 5.5t-5 10.5v133q0 7 4 11q83 92 120 162t37 172q0 6 5 11.5t10 5.5z M884 -155h-162q-25 0 -48.5 3t-36.5 7.5t-13 8.5q0 5 24 8q-33 16 -123 39q-6 -7 -6 -15q0 -12 22 -24q64 -5 64 -17q0 -10 -47 -10h-218q-26 0 -49 3t-36 7.5t-13 8.5q0 5 24 8q-34 20 -34 37q0 18 52 47l-32 19h-19q-29 0 -49 18.5t-20 41.5q0 34 41 47v106 q-84 95 -123.5 168t-41.5 174q-40 11 -40 49q0 23 18.5 40.5t49.5 17.5h218q31 0 50 -17.5t19 -40.5q0 -36 -40 -49q3 -81 53 -162q52 81 53 162q-39 14 -39 49q0 23 19 40.5t50 17.5h162q31 0 49.5 -18t18.5 -41q0 -36 -39 -48q-2 -100 -40.5 -172.5t-120.5 -163.5v-112 q40 -13 40 -49q0 -16 -11 -32q29 -5 29 -12q0 -6 -25 -7l49 -27q124 -24 192 -41.5t113 -41.5q64 -5 64 -17q0 -10 -48 -10z" />
<glyph unicode="Z" horiz-adv-x="538" d="M502 190q2 10 2 12q0 17 -14 17q-17 0 -38 -19q-17 -14 -66 -14q-6 0 -19.5 0.5t-19.5 0.5q-7 0 -12 5t-5 12q0 1 0.5 3t0.5 3l152 361q1 1 1 5q0 10 -8.5 19t-21.5 9h-336q-4 0 -11 -5q-7 -9 -10 -20l-31 -142q-2 -8 -2 -10q0 -13 11 -13q15 0 33 16q13 12 50 12h32 q7 0 12 -5t5 -11q0 -3 -2 -7l-166 -378q-5 -10 -5 -16q0 -17 29 -17h356q15 0 30.5 6.5t18.5 18.5zM752 -136q14 -5 14 -10q0 -9 -41 -9h-335q-50 0 -76 12l-92 35q-14 6 -14 10q0 6 28 6q18 -1 41 -4t32 -3h31l-261 74h-16q-29 0 -46 13.5t-17 36.5q0 16 7 31l158 353 q-18 0 -28 -3q-8 -2 -24.5 -12.5t-30.5 -12.5q-3 -1 -8 -1q-20 0 -31 13.5t-11 34.5q0 11 1 16l33 143q5 22 18 35q13 15 34 15h336q29 0 46 -21t17 -44q0 -8 -3 -13l-142 -339h22q25 0 35 5q6 3 16.5 9t16 8.5t13.5 5t15 2.5q21 0 34 -12t13 -35q0 -9 -3 -20l-35 -157 q-3 -12 -12 -25q10 -1 23 -5l102 -39q16 -7 16 -11q0 -6 -30 -6q-17 0 -73 6q-5 0 -23.5 0.5t-36.5 0.5z" />
<glyph unicode="[" horiz-adv-x="185" d="M165 -174h-146q-19 0 -19 21v770q0 17 16 21h149q17 -1 20 -18v-8q-3 -15 -20 -17h-36v-726h36q17 -1 20 -18v-7q-3 -17 -20 -18zM36 602v-740l57 2v738h-57z" />
<glyph unicode="\" horiz-adv-x="341" d="M341 -11q-2 -13 -5 -19l-68 -140l-12 -2h-97q-19 0 -24 5l74 150l-209 634v5q0 18 19 19h97q7 -2 14 -9zM300 0l-199 605h-59l199 -605h59z" />
<glyph unicode="]" horiz-adv-x="185" d="M166 -174h-146q-17 1 -20 18v7q3 17 20 18h36v726h-36q-17 2 -20 17v8q3 17 20 18h149q16 -4 16 -21v-770q0 -21 -19 -21zM149 -138v740h-57v-738z" />
<glyph unicode="_" horiz-adv-x="505" d="M505 -126h-505v51h505v-51z" />
<glyph unicode="`" horiz-adv-x="293" d="M249 637v27l-193 37v-64h193zM283 604h-262v137l262 -50v-87z" />
<glyph unicode="a" d="M400 301q-34 125 -42 125q-9 0 -43 -125h85zM440 290v-4q0 -18 -18 -18h-130q-7 0 -11.5 5t-4.5 12q0 1 0.5 2.5t0.5 2.5q2 5 16 57t29.5 82.5t35.5 30.5t35.5 -31t29.5 -81.5t17 -57.5zM488 -36l-4 3q-78 8 -78 71q0 35 34 45v15h-164v-15q34 -9 34 -44q0 -31 -24 -50 q54 -5 54 -16q0 -5 -21 -6l6 -3h163zM532 -108q4 0 4 4q0 8 -10 23h-84q86 -27 90 -27zM696 8q22 0 22 11q0 7 -13 24t-14 21q-29 151 -107 368q0 5 -31 88.5t-40 83.5h-396q-9 0 -20.5 -49.5t-11.5 -68.5q0 -4 1 -4q3 0 27 10t44 10q31 0 31 -15q0 -2 -2 -8 q-35 -81 -79 -238.5t-51 -179.5q-1 -2 -12 -18t-11 -24q0 -11 21 -11h196q11 0 18.5 8t7.5 18q0 17 -14 17q-20 0 -20 35q0 45 20 45h191q20 0 20 -49q0 -15 -8.5 -22.5t-16.5 -12.5t-8 -12q0 -11 8 -19t18 -8h230zM797 -112l-2 -35q0 -9 -47 -9h-376q-56 0 -107 28 q-21 5 -21 10q0 2 9 4q4 1 14 1q11 0 34.5 -2.5t35.5 -2.5l-268 86q-69 12 -69 53q0 32 27 57q10 34 31.5 116t42 148.5t45.5 126.5q-11 0 -30 -10.5t-30 -10.5q-16 0 -25.5 11t-9.5 28q0 39 17.5 94.5t48.5 55.5h376q16 0 24.5 -1t19 -9t16.5 -23q128 -330 170 -527 q28 -28 28 -58q0 -18 -12 -30q35 -5 35 -13q0 -4 -10 -7q24 -30 33 -81z" />
<glyph unicode="b" horiz-adv-x="657" d="M396 209q0 19 -15 28.5t-30.5 11.5t-39.5 2v-82q85 0 85 40zM333 457h-22v-75h18q27 0 42 11.5t15 26.5t-13.5 26t-39.5 11zM429 209q0 -73 -134 -73q-7 0 -11.5 5t-4.5 11v115q0 6 4.5 11t11.5 5q26 0 42.5 -1.5t41 -7.5t37.5 -22.5t13 -42.5zM333 490q40 0 63 -20.5 t23 -48.5q0 -29 -24 -50.5t-66 -21.5h-34q-7 0 -11.5 5.5t-4.5 11.5v107q0 6 4.5 11.5t11.5 5.5h38zM510 -61q-16 9 -101 9l32 -18q72 0 72 7q-1 1 -3 2zM541 -115q41 0 41 5q0 11 -72 11h-19l28 -16h22zM564 58q61 48 61 112q0 38 -21.5 72.5t-60.5 57.5q-8 4 -8 14t8 14 q71 47 71 117q0 62 -55 110.5t-134 48.5h-361q-14 0 -22.5 -7.5t-8.5 -17.5q0 -16 20 -16q6 0 11 -5.5t5 -12.5v-477q0 -12 -18 -17.5t-18 -18.5q0 -11 9.5 -17.5t21.5 -6.5h349q88 0 151 50zM734 -84q129 -17 129 -41q0 -13 -43.5 -22t-116.5 -9h-361q-23 0 -45 3t-34 7 t-12 8q0 6 22 7l-173 98q-100 8 -100 68q0 35 36 47v449q-36 12 -36 46q0 23 17.5 41.5t46.5 18.5h361q92 0 157.5 -58t65.5 -134q0 -74 -68 -131q77 -57 77 -143q0 -83 -73 -140q-33 -26 -81 -42q76 -3 128 -10q137 -18 137 -44q0 -12 -34 -19z" />
<glyph unicode="c" horiz-adv-x="641" d="M606 231q-11 0 -42 -11q-62 -22 -141 -22q-71 0 -117.5 25t-46.5 83q0 54 20 99t64 45q30 0 50 -17t20 -48t12 -39t51 -8q18 0 46 1t34 1q31 0 32 25v194q-37 33 -102 46t-119 13q-69 0 -128 -18.5t-105.5 -55t-73 -97.5t-26.5 -141q0 -81 28 -143t77 -98t108.5 -54 t129.5 -18q155 0 195 51q8 11 21 88t13 99zM782 -95q79 -45 79 -46q0 -17 -229 -17q-157 0 -292 19t-199 56q-31 18 -31 32q0 26 103 37q-98 35 -155.5 115.5t-57.5 204.5q0 170 104.5 257.5t263.5 87.5q59 0 124 -14q33 -7 80.5 -28t47.5 -42q0 -35 -0.5 -103t-0.5 -101 q0 -24 -18 -40t-45 -16q-11 0 -39.5 -0.5t-43.5 -0.5q-48 0 -69 18t-21 65q0 12 -11 20.5t-25 8.5q-24 0 -40 -30.5t-16 -66.5q0 -90 129 -90q69 0 132 21q36 12 56 12q32 0 32 -31q0 -9 -1 -15l-36 -185q-4 -23 -56 -44q76 -4 92 -10l106 -43q10 -4 10 -6q0 -3 -17 -3 q-31 0 -99 4t-107 4q-70 0 -94 -6q-9 -1 -9 -6q0 -8 35.5 -19t66.5 -11q26 0 26 4q0 1 -8 6q-10 4 -10 7q0 8 66 8q16 0 47.5 -0.5t43.5 -0.5q65 0 86 -12z" />
<glyph unicode="d" horiz-adv-x="679" d="M319 209q39 0 61.5 27.5t22.5 69.5q0 40 -22 68t-62 29v-194zM334 436q48 0 75 -38t27 -90q0 -54 -27 -93.5t-77 -39.5h-46v261h48zM504 -109q56 0 56 12q0 14 -47.5 22.5t-83.5 8.5zM644 305q0 127 -84.5 213t-218.5 86h-268q-35 0 -35 -21q0 -7 3 -11.5t11.5 -7t11 -3 t14.5 -1.5v-508q-41 -3 -41 -24q0 -10 12.5 -17t23.5 -7h178q69 0 113 4.5t96 19.5t90 49.5t64 89.5q30 63 30 138zM430 -15q2 0 34.5 -2.5t51.5 -4t58 -5t65 -7.5t62 -9.5t59.5 -13t46 -16t33.5 -19.5t11 -24q0 -21 -64.5 -33t-172.5 -12h-268q-23 0 -45.5 3t-36 6.5 t-13.5 7.5q0 5 26 8l-171 98q-106 6 -106 68q0 36 45 52v448q-42 14 -42 48q0 23 19.5 41t49.5 18h269q144 0 240.5 -93t96.5 -239q0 -102 -49 -181q-69 -113 -199 -139z" />
<glyph unicode="e" horiz-adv-x="593" d="M563 -57q-52 1 -160 1l17 -10q108 1 108 2q0 7 35 7zM664 -111q-21 0 -64 5q-10 1 -52 1h-60l13 -7h123q37 0 40 1zM467 190q-40 2 -49 39h-109v-42q13 0 41.5 -0.5t43.5 -0.5q42 0 73 4zM558 161q1 3 1 8q0 13 -13 13q-10 0 -39 -12l-17 -9q-21 -7 -56 -7h-158v109h135 q27 0 38 -18q4 -22 19 -22q16 0 23 23v142q-3 17 -14 17q-9 0 -29.5 -12.5t-28.5 -13.5q-23 -5 -56 -5q-15 0 -44.5 1.5t-42.5 1.5v99q28 0 83 0.5t83 0.5q40 0 58 -16q12 -8 24 -8q16 0 19 15q0 25 -14 80.5t-31 55.5h-435q-29 0 -29 -18q0 -21 33 -26v-506q-34 -7 -34 -22 q0 -20 30 -24h428q8 0 15.5 7.5t10.5 15.5q8 25 21.5 69t19.5 61zM474 439q-14 4 -30 4q-102 0 -135 -1v-32q6 0 30 -1t38 -1q33 0 42 5q30 25 55 26zM696 -107q22 -1 35.5 -2t31 -4.5t26 -12t8.5 -21.5q0 -7 -30 -7q-440 -2 -441 -2q-28 0 -56 4.5t-28 11.5q0 6 18 9 l-173 98q-87 7 -87 63q0 38 34 51v453q-33 12 -33 50q0 53 61 53h439q22 0 32.5 -12.5t16.5 -36.5q2 -9 9 -33t11.5 -44t4.5 -36q0 -42 -41 -55h-21q12 -17 12 -32v-135q-3 -30 -21 -48q25 9 42 9q47 0 47 -41q0 -9 -3 -21q-7 -27 -22.5 -75.5t-17.5 -55.5q-6 -18 -18 -32 q27 -1 49 -8q15 -5 45 -14t45 -14q15 -6 15 -9q0 -6 -42 -6q-6 0 -19 0.5t-20 0.5q28 -4 40 -9l51 -31q2 -1 2 -3t-2 -3z" />
<glyph unicode="f" horiz-adv-x="577" d="M662 -111q-36 0 -65 6h-110l14 -7h142q17 0 19 1zM522 448q9 0 15.5 6.5t6.5 16.5q0 18 -19 61.5t-20 51.5t-7 14t-13 6h-423q-29 0 -29 -19q0 -15 16.5 -22.5t16.5 -17.5v-477q0 -10 -16.5 -17.5t-16.5 -22.5q0 -20 29 -20h218q29 0 29 22q0 8 -5 14.5t-12 6.5 q-6 0 -11 5.5t-5 11.5v179q0 7 5 12.5t12 5.5h115q37 0 42 -25q3 -16 15 -16q10 0 18 9t8 22v130q0 9 -7.5 15.5t-16.5 6.5q-14 0 -19 -12q-8 -19 -40 -19h-115q-7 0 -12 5t-5 12v68q0 5 5 10.5t12 5.5h155q35 0 47 -15q11 -14 27 -14zM472 439q-8 4 -22 4h-142v-34h110 q10 18 21.5 24t32.5 6zM786 -131q0 -25 -35 -25h-424q-23 0 -43.5 3t-32 7t-11.5 8t19 7l-172 98q-35 3 -61 18.5t-26 47.5q0 35 33 48v451q-33 13 -33 48q0 23 17 40t45 17h423q35 0 54 -51q2 -6 13.5 -31.5t18 -47t6.5 -39.5q0 -34 -27 -47q-13 -6 -35 -6q10 -13 10 -30 v-130q0 -28 -17.5 -45.5t-40.5 -17.5q-36 0 -50 38q0 2 -3 2q-1 0 -3 -0.5t-3 -0.5h-100v-150q35 -15 35 -48q0 -27 -21 -44q60 -5 60 -15q0 -6 -19 -7l57 -33h98l10 1q0 8 37 8q58 0 81 -14q55 -35 59 -35q81 0 81 -25z" />
<glyph unicode="g" horiz-adv-x="664" d="M631 63v248q0 10 -1 13.5t-5 6.5t-14 3h-143q-71 0 -71 -9t14.5 -20t28.5 -26.5t14 -34.5q0 -33 -23 -54.5t-58 -21.5q-56 0 -90.5 39.5t-34.5 97.5q0 59 35.5 103.5t95.5 44.5q107 0 182 -28q47 -18 64 -18h4q4 2 4 8q0 1 -2 13l-37 146q-7 32 -17 37q-9 6 -18 6 q-10 0 -31.5 -8.5t-31.5 -8.5h-5q-94 16 -169 16q-121 0 -206 -90q-82 -87 -82 -220q0 -134 82 -221q84 -89 206 -89q114 0 199 20q68 16 110 47zM871 -142q2 -4 2 -6q0 -10 -51 -10q-9 0 -21.5 2.5t-21.5 2.5q-1 0 -9 -0.5t-9 -0.5q-18 0 -76.5 -2t-91.5 -2 q-68 0 -172.5 9.5t-206 35t-101.5 60.5q0 17 31 26.5t59 12.5q-65 26 -111 77q-92 97 -92 243q0 144 92 243q94 100 230 100q30 0 88 -8.5t88 -8.5q7 0 24.5 8.5t25.5 8.5q3 1 9 1q26 0 39 -12q19 -12 30 -56l37 -146q3 -13 3 -23q0 -30 -28 -37q-6 -2 -16 -2 q-19 0 -56 13.5t-43 15.5q-68 18 -143 18q-45 0 -71.5 -35.5t-26.5 -82.5q0 -42 23.5 -72t64.5 -30q50 0 50 38q0 20 -29.5 41.5t-29.5 42.5q0 45 70 45h180q52 0 52 -57v-257q0 -9 -6 -13q-43 -35 -108 -52q74 -4 146 -13q10 0 12 -2l97 -57q9 -5 9 -7q0 -6 -38 -6h-189 q-55 0 -77 9q-4 1 -4 3t17 6t17 6q0 4 -19 8q-10 4 -52 4q-56 0 -56 -12q0 -4 10 -11q44 -25 162 -25q63 0 117 4q9 0 21 3q40 4 68 4h14q40 -2 48 -14z" />
<glyph unicode="h" horiz-adv-x="667" d="M357 -16q-14 10 -24 26q-6 -12 -15 -21q19 -1 39 -5zM461 -61l-47 28q-17 1 -34 5q-4 -4 -17 -5l47 -28h51zM585 -131l-44 25h-52l44 -25q18 -1 35 -5q2 3 17 5zM360 82v123h-52v-123q16 -5 25 -21q13 16 27 21zM618 51q-6 0 -11 5.5t-5 11.5v477q0 7 5 12.5t11 5.5 q16 0 16 14q0 10 -8 18.5t-20 8.5h-218q-11 0 -19 -8t-8 -18q0 -15 16 -15q6 0 10.5 -5.5t4.5 -12.5v-148q0 -6 -4.5 -11.5t-10.5 -5.5h-86q-6 0 -10.5 5.5t-4.5 11.5v148q0 10 14.5 16.5t15.5 17.5q-1 11 -8.5 18t-17.5 7h-219q-12 0 -19.5 -8.5t-7.5 -18.5q0 -14 15 -14 q6 0 11.5 -5.5t5.5 -12.5v-477q0 -6 -5.5 -11.5t-11.5 -5.5q-15 0 -15 -15q0 -10 7.5 -19t19.5 -9h219q11 0 18.5 9t7.5 19q0 15 -15 15q-6 0 -10.5 5.5t-4.5 11.5v154q0 6 4.5 11t10.5 5h86q6 0 10.5 -5t4.5 -11v-154q0 -6 -4.5 -11.5t-10.5 -5.5q-16 0 -16 -15 q0 -10 8 -19t19 -9h218q12 0 20 9t8 19q0 15 -16 15zM360 413v118q-15 5 -27 22q-8 -16 -25 -22v-118h52zM873 -156h-218q-41 0 -68 9q-4 -9 -40 -9h-220q-32 0 -60 6.5t-28 12.5q0 5 19 6l-171 98q-34 3 -60 20.5t-26 50.5q0 34 31 44v449q-32 10 -32 44q0 24 17 43t44 19 h219q37 0 53 -34q18 34 55 34h218q26 0 43.5 -19.5t17.5 -43.5q0 -33 -31 -43v-449q32 -10 32 -44q0 -28 -23 -49q63 -6 63 -16q0 -5 -19 -6l172 -98q53 -3 53 -15q0 -10 -41 -10z" />
<glyph unicode="i" horiz-adv-x="354" d="M298 51q-6 0 -11 5.5t-5 11.5v477q0 7 5 12.5t11 5.5q23 0 23 18q0 9 -9 16t-26 7h-218q-17 0 -26 -7t-9 -16q0 -18 23 -18q6 0 11.5 -5.5t5.5 -12.5v-477q0 -6 -5.5 -11.5t-11.5 -5.5q-23 0 -23 -19q0 -10 9 -17t26 -7h218q17 0 26 7t9 17q0 7 -6 13t-17 6zM554 -156 h-219q-25 0 -47 3t-34.5 7t-12.5 8t25 7l-171 98q-95 7 -95 66q0 38 40 49v449q-40 11 -40 48q0 23 18.5 40.5t49.5 17.5h218q31 0 50 -17.5t19 -40.5q0 -36 -41 -48v-449q41 -12 41 -48q0 -27 -24 -45q65 -5 65 -15q0 -6 -26 -7l172 -98q62 -5 62 -15t-50 -10z" />
<glyph unicode="j" horiz-adv-x="438" d="M385 563q19 0 19 16q0 10 -8.5 17.5t-22.5 7.5h-218q-15 0 -23 -7.5t-8 -17.5q0 -16 19 -16q6 0 11 -5.5t5 -12.5v-322q0 -18 -12.5 -32t-31.5 -14q-12 0 -39.5 20t-35.5 20t-8 -15q0 -6 17 -154q0 -21 10 -24q73 -26 132 -26q83 0 130 53t47 161v333q0 7 5 12.5t12 5.5z M636 -156h-218q-23 0 -44.5 3t-34 7t-12.5 8q0 6 22 7q-123 70 -134 70q-9 0 -29 -4.5t-33 -4.5q-43 0 -62 14q-44 36 -44 38q0 4 19 5q-23 8 -33.5 19t-17.5 38q-15 148 -15 155q0 52 37 52q8 0 13 -2q12 -3 21.5 -9t19 -14.5t15.5 -12.5q5 -3 10 -3q10 0 10 13v308 q-36 12 -36 46q0 23 18 41.5t47 18.5h218q29 0 46.5 -18.5t17.5 -42.5q0 -33 -35 -45v-319q0 -84 -21.5 -135.5t-81.5 -87.5q126 -7 203 -51l122 -69q58 -3 58 -15q0 -10 -46 -10z" />
<glyph unicode="k" horiz-adv-x="718" d="M441 -33q-35 8 -52.5 23.5t-17.5 45.5q0 32 32 45q-20 66 -92 124v-123q36 -12 36 -47q0 -28 -25 -47q48 -7 48 -15q0 -5 -21 -6l47 -28q1 0 7 1.5t9.5 3t9.5 4t9.5 5t6.5 6.5t3 8zM666 51q-5 0 -10.5 5t-5.5 10q-7 64 -44 133.5t-85 120.5q-4 4 -4 12q0 7 4 11 q107 107 119 204q0 5 5.5 10.5t10.5 5.5q18 0 18 16q0 10 -8 17.5t-22 7.5h-219q-14 0 -22.5 -7.5t-8.5 -17.5q0 -16 19 -16q7 0 12 -5.5t5 -12.5q0 -2 -1 -3q-12 -52 -42 -89t-82 -78q-4 -4 -10 -4q-7 0 -12 5t-5 12v157q0 7 5 12.5t11 5.5q20 0 20 17q0 9 -8.5 16.5 t-22.5 7.5h-219q-15 0 -23 -7.5t-8 -16.5q0 -17 20 -17q6 0 11 -5.5t5 -12.5v-477q0 -6 -5 -11.5t-11 -5.5q-20 0 -20 -18q0 -10 8 -17.5t23 -7.5h219q14 0 22.5 7.5t8.5 17.5q0 18 -20 18q-6 0 -11 5.5t-5 11.5v170q0 7 5 12t12 5q6 0 9 -2q115 -83 136 -182q0 -20 -16 -20 q-19 0 -19 -18q0 -9 8.5 -17t22.5 -8h219q14 0 22.5 7.5t8.5 17.5q0 18 -20 18zM893 -156h-218q-34 0 -63 6t-29 12q0 3 19 6q-41 13 -123 25l41 -24q57 -3 57 -15q0 -10 -46 -10h-218q-23 0 -44.5 3t-33.5 7t-12 8q0 6 22 7l-172 98q-37 6 -55 22t-18 47q0 34 36 46v449 q-36 12 -36 46q0 23 17.5 41.5t46.5 18.5h219q29 0 46.5 -18.5t17.5 -41.5q0 -34 -36 -46v-109q65 55 82 110q-32 13 -32 45q0 23 18 41.5t46 18.5h219q29 0 46.5 -18t17.5 -41q0 -37 -37 -47q-16 -100 -115 -199q106 -123 125 -250q37 -10 37 -47q0 -31 -24 -47 q48 -7 48 -14q0 -6 -24 -7q10 -9 10 -18q0 -20 -39 -37q145 -25 190 -43q59 -5 59 -16q0 -9 -45 -9z" />
<glyph unicode="l" horiz-adv-x="469" d="M433 175q2 8 2 11q0 13 -10 13q-13 0 -34 -17q-15 -13 -66 -13q-7 0 -19 0.5t-15 0.5q-6 0 -11 5t-5 12v358q0 7 5 12.5t11 5.5q15 0 15 16q0 9 -8 17t-19 8h-218q-12 0 -20 -7.5t-8 -17.5q0 -16 16 -16q7 0 12 -5.5t5 -12.5v-477q0 -6 -5 -11.5t-12 -5.5q-16 0 -16 -15 q0 -10 8 -19t20 -9h320q16 0 21 25zM554 -52q12 -3 12 -8q0 -6 -37 -6q-39 2 -58 5q-3 1 -18 1q-10 0 -26.5 -0.5t-18.5 -0.5l125 -70q53 -3 53 -15q0 -10 -40 -10h-220q-31 0 -59 6.5t-28 12.5q0 5 19 6l-172 98q-35 2 -60.5 19.5t-25.5 51.5t31 44v449q-31 10 -31 43 q0 24 17.5 43.5t43.5 19.5h218q26 0 43 -19t17 -43q0 -34 -32 -44v-327q1 0 11.5 -0.5t17.5 -0.5q30 0 34 5q28 24 56 24q20 0 31.5 -13.5t11.5 -33.5q0 -5 -2 -17l-33 -142q-5 -23 -21 -38q2 0 23.5 -2.5t31.5 -6.5z" />
<glyph unicode="m" horiz-adv-x="823" d="M674 -66l-59 33q-59 8 -81 20.5t-22 47.5t37 47v151l-70 -156q-24 -56 -68 -56q-43 0 -67 56l-69 156v-151q35 -12 35 -46q0 -29 -25 -48q72 -11 72 -17q0 -3 -15 -4l57 -33l9 34q5 13 47 13q40 0 90 -13zM770 51q-6 0 -11 5.5t-5 11.5v477q0 7 5 12.5t11 5.5q19 0 19 16 q0 10 -8 17.5t-22 7.5h-211q-35 0 -47 -32l-74 -202q-3 -11 -16 -11q-12 0 -16 11l-74 200q-13 34 -46 34h-211q-14 0 -22.5 -7.5t-8.5 -17.5q0 -16 20 -16q6 0 11 -5.5t5 -12.5v-477q0 -6 -5 -11.5t-11 -5.5q-20 0 -20 -18q0 -9 8.5 -17t22.5 -8h182q14 0 22.5 8t8.5 17 q0 7 -5 12.5t-14 5.5q-6 0 -11 5.5t-5 11.5v245q0 15 17 15q9 0 14 -9l101 -228q15 -36 38 -36q20 0 37 36l101 228q3 9 14 9q6 0 11.5 -4.5t5.5 -10.5v-245q0 -6 -5 -11.5t-11 -5.5q-19 0 -19 -18q0 -9 8 -17t23 -8h182q14 0 22 8t8 17q0 18 -19 18zM1038 -156h-212 q-60 0 -99 14l-119 35l2 -35q0 -5 -10 -9q-20 -5 -46 -5h-211q-23 0 -44.5 3t-33.5 7t-12 8q0 6 22 7l-173 98q-58 7 -80 20t-22 48t36 47v449q-36 12 -36 46q0 23 17.5 41.5t46.5 18.5h211q59 0 78 -55l58 -160l59 160q20 55 78 55h211q28 0 45.5 -18.5t17.5 -41.5 q0 -34 -35 -46v-449q36 -12 36 -47q0 -28 -25 -47q71 -11 71 -17q0 -3 -15 -4l171 -98q57 -5 57 -15t-44 -10z" />
<glyph unicode="n" horiz-adv-x="727" d="M417 -12q-20 15 -33 38l-110 184v-128q36 -12 36 -47q0 -28 -25 -47q67 -10 67 -17q0 -3 -17 -4l51 -29l14 42q5 5 17 8zM675 51q-7 0 -12 5.5t-5 11.5v477q0 7 5 12.5t12 5.5q15 0 15 14q0 10 -8 18.5t-19 8.5h-182q-14 0 -22.5 -7.5t-8.5 -17.5q0 -16 19 -16 q6 0 11.5 -5.5t5.5 -12.5v-212q0 -16 -18 -16q-9 0 -13 7l-149 255q-15 25 -61 25h-188q-10 0 -17 -8t-7 -17q0 -16 20 -16q6 0 11 -5.5t5 -12.5v-477q0 -6 -5 -11.5t-11 -5.5q-20 0 -20 -18q0 -9 8.5 -17t22.5 -8h181q15 0 23.5 8t8.5 18q0 17 -19 17q-7 0 -12 5.5t-5 11.5 v204q0 6 5.5 10.5t11.5 4.5q9 0 14 -8l140 -237q22 -34 43 -34h216q22 0 22 22q0 21 -18 21zM936 -156h-181q-23 0 -45 3t-34 7t-12 8q0 6 22 7l-53 30l-41 -45q-9 -10 -73 -10h-196q-24 0 -49 6.5t-25 12.5q0 5 20 6l-172 98q-53 4 -75 20t-22 49q0 34 34 46v449 q-33 11 -33 46q0 23 14.5 41.5t34.5 18.5h195q65 0 89 -42l119 -201v137q-37 12 -37 46q0 23 18 41.5t47 18.5h182q26 0 43 -19t17 -43q0 -34 -32 -44v-449q35 -12 35 -50q0 -27 -20 -44q62 -10 62 -17q0 -3 -14 -4l170 -98q53 -3 53 -15q0 -10 -41 -10z" />
<glyph unicode="o" horiz-adv-x="688" d="M345 195q28 0 43.5 33t15.5 78t-15.5 78t-43.5 33t-44 -33t-16 -78t16 -78t44 -33zM345 163q-44 0 -68.5 42.5t-24.5 100.5t24.5 100.5t68.5 42.5q43 0 67.5 -42.5t24.5 -100.5t-24.5 -100.5t-67.5 -42.5zM527 -112q31 0 31 9q0 11 -38 25t-78 14q-31 0 -31 -9 q0 -11 38 -25t78 -14zM656 306q0 138 -87 224t-224 86q-138 0 -225 -86t-87 -224t87 -224t225 -86q137 0 224 86t87 224zM828 -88q29 -17 29 -30q0 -21 -64 -33.5t-178 -12.5q-152 0 -284.5 21t-190.5 55q-28 16 -28 30q0 29 110 40q-102 34 -162 120t-60 204 q0 151 96.5 247t248.5 96q151 0 247.5 -96t96.5 -247q0 -116 -58.5 -201.5t-157.5 -120.5q255 -15 355 -72z" />
<glyph unicode="p" horiz-adv-x="658" d="M391 379q0 23 -16.5 39t-39.5 16h-21v-111h21q23 0 39.5 16.5t16.5 39.5zM424 379q0 -37 -26 -63t-63 -26h-38q-7 0 -11.5 5.5t-4.5 11.5v144q0 7 4.5 12t11.5 5h38q37 0 63 -26t26 -63zM558 -96q0 8 -33 13t-52 5h-22l47 -27h22q38 0 38 9zM622 379q0 104 -65 164.5 t-169 60.5h-321q-16 0 -24.5 -7.5t-8.5 -16.5q0 -18 21 -18q6 0 11 -5.5t5 -11.5v-478q0 -5 -5 -10.5t-11 -5.5q-21 -1 -21 -19q0 -24 33 -24h218q16 0 24.5 7t8.5 17q0 17 -22 19q-6 0 -10.5 5t-4.5 11v71q0 6 4.5 11t11.5 5h91q105 0 169.5 60.5t64.5 164.5zM440 -28 q75 0 159.5 -7t164 -28.5t79.5 -54.5q0 -37 -183 -37h-322q-25 0 -47.5 3.5t-35.5 8t-13 8.5t22 7l-180 103h-17q-28 0 -47.5 15.5t-19.5 42.5q0 36 38 49v448q-38 12 -38 48q0 23 18 41t49 18h321q119 0 194 -70.5t75 -187.5t-75 -187.5t-194 -70.5h-74v-39q38 -13 38 -48 q0 -17 -11 -33q29 -5 29 -12q0 -6 -22 -7l17 -10h75z" />
<glyph unicode="q" horiz-adv-x="691" d="M345 189q28 0 43.5 33t15.5 78t-15.5 78t-43.5 33t-43.5 -33t-15.5 -78t15.5 -78t43.5 -33zM345 157q-44 0 -68.5 42.5t-24.5 101.5q0 58 24.5 100.5t68.5 42.5q43 0 67.5 -42.5t24.5 -100.5t-24.5 -101t-67.5 -43zM455 -82q-12 19 -19 45l-27 -1q-15 -1 -15 -8t17 -17.5 t44 -18.5zM574 -109q35 0 64 15t29 48q0 20 -10 35.5t-26 15.5q-11 0 -27.5 -11.5t-29.5 -12.5q-16 0 -35.5 14.5t-19.5 30.5q0 9 7 14q63 41 97 112t34 150q0 129 -88 219t-224 90q-132 0 -222 -85.5t-90 -224.5t87 -226q85 -85 225 -85q54 0 97 12h2l2 1q14 0 17 -13 q10 -50 35.5 -74.5t75.5 -24.5zM849 -102q0 -26 -74.5 -37t-157.5 -11q-153 0 -290 24q-105 18 -170 45.5t-65 52.5q0 15 24 25q5 2 36 11q-69 39 -110.5 119.5t-41.5 171.5q0 145 96 245t249 100q143 0 244 -95.5t101 -246.5q0 -75 -27.5 -143.5t-80.5 -116.5q16 -1 37 -5 q12 2 16 2q47 0 62 -60q70 -18 111 -40t41 -41z" />
<glyph unicode="r" horiz-adv-x="658" d="M336 323q26 0 40.5 16t14.5 39t-14.5 39.5t-40.5 16.5h-21v-111h21zM336 290h-38q-7 0 -11.5 5.5t-4.5 11.5v144q0 7 4.5 12t11.5 5h38q41 0 64.5 -27t23.5 -63t-23 -62t-65 -26zM417 -25q-30 1 -46 14q0 -6 -22 -7l41 -24q25 7 27 17zM521 -105q37 0 37 8q0 4 -10.5 8.5 t-30.5 7.5t-43 3h-22l48 -27h21zM379 79q0 34 -58 98h-6v-95q38 -13 38 -48q0 -17 -11 -33q21 -4 25 -7q-15 7 -15 28q0 16 8 33t19 24zM651 51q-6 0 -11.5 5.5t-5.5 10.5q0 38 -26 81t-59 75q-5 4 -5 12q0 9 7 13q36 24 55.5 67.5t19.5 92.5q0 99 -65.5 147.5t-171.5 48.5 h-321q-16 0 -24.5 -7.5t-8.5 -16.5q0 -18 21 -18q6 0 11.5 -5.5t5.5 -11.5v-478q0 -5 -5.5 -10.5t-11.5 -5.5q-21 -1 -21 -19q0 -24 33 -24h218q16 0 24.5 7t8.5 17q0 17 -22 19q-6 0 -10.5 5t-4.5 11v127q0 6 4.5 11t11.5 5h31q8 0 13 -5q70 -78 70 -126q0 -25 -14 -27 q-11 -6 -11 -17t9 -19t24 -8h218q17 0 26.5 7t9.5 16q0 18 -23 20zM834 -140q-44 -15 -173 -15h-323q-24 0 -46.5 3.5t-35.5 8t-13 8.5t22 7l-180 103h-17q-29 0 -48.5 19t-19.5 42q0 33 38 46v448q-37 12 -37 48q0 23 18 41t49 18h321q76 0 134.5 -22.5t96.5 -75.5t38 -132 q0 -114 -73 -174q73 -77 81 -151q41 -12 41 -49q0 -16 -11 -32q28 -5 28 -12q0 -6 -24 -7q8 -7 8 -14q0 -12 -24 -24q74 -11 122.5 -31t48.5 -37q0 -10 -21 -16z" />
<glyph unicode="s" horiz-adv-x="586" d="M555 189q0 36 -11.5 64t-26.5 45t-44.5 31t-51.5 21t-62 17q-20 5 -34.5 20.5t-14.5 34.5q0 25 19.5 38.5t46.5 13.5q30 0 64.5 -12t50.5 -26q20 -16 34 -16q11 0 11 13q0 2 -2 10l-32 143q-6 25 -19 25q-5 0 -19 -8t-26 -8q-20 0 -58 12q-47 14 -96 14q-94 0 -161 -49 t-67 -143q0 -67 38 -107q27 -27 87 -47.5t81 -40.5q18 -16 18 -39t-17.5 -35.5t-43.5 -12.5q-35 0 -77 15t-59 30q-20 16 -35 16t-15 -20l25 -151q6 -18 18 -23q13 0 29 7.5t27 7.5q28 0 69 -13q51 -14 102 -14q106 0 179 56q73 55 73 131zM784 -136l2 -4q0 -9 -29 -9 q-9 0 -29 2t-31 2q-20 0 -66 -3t-73 -3q-108 0 -209 14t-147 41q-18 11 -18 20q0 21 109 29q35 3 35 7q0 5 -33 5q-48 0 -102 -9q-14 -5 -46 -5q-44 0 -78 19.5t-44 61.5q-25 151 -25 154q0 22 12.5 37.5t36.5 15.5q29 0 55 -21q10 -8 51.5 -23t66.5 -15q24 0 24 15 q0 13 -16 22t-32 13q-176 51 -176 199q0 109 77.5 167t184.5 58q52 0 105 -16q36 -9 45 -9q11 0 27.5 7.5t25.5 7.5q17 0 30 -16t17 -35l33 -142q2 -14 2 -19q0 -21 -12.5 -32.5t-31.5 -11.5q-27 0 -55 23q-9 8 -41.5 19t-55.5 11q-30 0 -30 -18q0 -8 8 -15t16 -9 q42 -10 70 -19.5t59 -26.5t49 -37.5t30 -53t12 -73.5q0 -122 -122 -181q143 -13 200 -45q20 -11 20 -21q0 -20 -152 -31q-14 0 -14 -4q1 -1 3 -2q9 -4 35 -4q54 0 86 8q13 5 44 5q57 0 70 -16z" />
<glyph unicode="t" horiz-adv-x="574" d="M538 426l-38 141q-6 24 -11 31.5t-13 7.5q-4 0 -16 -1t-19 -1h-308q-6 0 -18 1.5t-19 1.5q-11 0 -22 -40l-40 -141q-1 -4 -1 -12q0 -18 17 -18q10 0 19 6.5t9 15.5q0 7 5 12t11 5h71q7 0 11.5 -5.5t4.5 -11.5v-351q0 -6 -4.5 -11t-10.5 -5q-24 -2 -24 -20q0 -9 9 -16 t26 -7h219q17 0 26 7t9 16q0 18 -24 20q-6 0 -11 5.5t-5 10.5v351q0 6 5 11.5t12 5.5h71q6 0 11 -5t6 -12q0 -9 9 -15.5t18 -6.5q17 0 17 19q0 7 -2 11zM756 -105q23 -41 23 -45q0 -6 -20 -6h-402q-29 0 -71 16l-98 35q-17 6 -17 10q0 7 34 7q43 0 75 -9h39l-124 72h-18 q-30 0 -50.5 19t-20.5 42q0 33 42 46v319h-40q-6 -18 -21.5 -28t-33.5 -10q-22 0 -37.5 13.5t-15.5 37.5q0 10 3 21l40 140q11 40 20 52.5t24 12.5q7 0 22 -1.5t24 -1.5h308q7 0 21 1.5t22 1.5q17 0 27 -13t21 -52l39 -140q3 -11 3 -21q0 -24 -15.5 -37.5t-37.5 -13.5 q-42 0 -56 38h-41v-319q40 -13 40 -50q0 -16 -10 -31q27 -5 27 -12q0 -6 -23 -7l137 -79h41q0 9 41 9q69 0 79 -17z" />
<glyph unicode="u" horiz-adv-x="669" d="M620 -128l-133 76q-7 4 -39 4h-5q-5 1 -9 1q-11 0 -11 -4q0 -1 135 -77q28 -4 41 -7q4 4 21 7zM611 562q24 0 24 19q0 9 -9 16t-26 7h-177q-17 0 -26 -7t-9 -16q0 -19 23 -19q6 -1 11.5 -6t5.5 -11v-328q0 -23 -19 -36t-46 -13q-26 0 -45 13t-19 36v328q0 6 5 11t10 6 q24 0 24 19q0 9 -8.5 16t-25.5 7h-235q-17 0 -26 -7t-9 -16q0 -19 23 -19q7 -1 12 -6t5 -11v-379q0 -43 27 -77.5t68 -53.5t84 -29t81 -10q39 0 82 10t84 29t68 53.5t27 77.5v379q0 6 5 11t11 6zM394 217v313q-20 6 -30 25q-15 -20 -32 -25v-313q0 -17 30 -17q32 0 32 17z M872 -155h-178q-49 0 -71 7q-4 -7 -48 -7h-235q-25 0 -48.5 3t-36.5 7.5t-13 8.5q0 5 24 8l-155 89q-14 7 -14 15q0 15 66 25q-124 58 -124 165v364q-39 14 -39 49q0 23 19 40.5t50 17.5h235q40 0 60 -27q16 27 59 27h177q31 0 49.5 -17.5t18.5 -40.5q0 -36 -40 -49v-364 q0 -55 -33.5 -97t-88.5 -68q145 -14 192 -40l157 -89q64 -5 64 -17q0 -10 -47 -10z" />
<glyph unicode="v" horiz-adv-x="683" d="M625 562q23 0 23 19q0 9 -9 16t-26 7h-186q-16 0 -25 -7t-9 -16q0 -19 23 -19q17 -2 17 -17q0 -2 -1 -4l-59 -247q-3 -12 -16 -12q-14 0 -17 12l-58 247v3l-1 1q0 15 17 17q23 0 23 19q0 9 -8.5 16t-25.5 7h-219q-17 0 -26 -7t-9 -16q0 -8 6.5 -13.5t17.5 -5.5 q12 -2 15 -14l125 -477q5 -19 7 -26t8.5 -18t16.5 -15t25 -4h174q40 0 56 63l125 477q3 12 16 14zM885 -156h-186q-24 0 -47 3t-36.5 7.5t-13.5 8.5q0 5 21 8l-109 40l31 -40q61 -6 61 -17q0 -10 -48 -10h-219q-26 0 -49 3.5t-35.5 8t-12.5 8.5q0 7 26 8q-81 120 -81 123 t3 6q-13 17 -25 63l-123 465q-42 10 -42 50q0 23 18.5 40.5t49.5 17.5h219q30 0 49 -17.5t19 -40.5q0 -33 -37 -47l40 -163l38 163q-37 14 -37 47q0 23 19 40.5t49 17.5h186q31 0 49.5 -17.5t18.5 -40.5q0 -17 -11.5 -31t-32.5 -19l-121 -465q-10 -39 -30 -63q24 -4 56 -15 l322 -114q69 -5 69 -18q0 -10 -48 -10z" />
<glyph unicode="w" horiz-adv-x="1032" d="M585 -31q-13 15 -32 54l-39 110l-42 -111q-3 -11 -11 -21q11 -1 20 -5zM975 562q22 0 22 19q0 9 -9 16t-26 7h-196q-17 0 -26 -7t-9 -16q0 -8 6.5 -13.5t17.5 -5.5q15 -2 15 -17v-4l-68 -288q-3 -12 -17 -12q-13 0 -16 12l-69 288v4q0 15 17 17q23 0 23 18q0 24 -36 24 h-145q-17 0 -26 -7t-9 -16q0 -19 24 -19q15 -2 15 -17v-4l-69 -288q-3 -12 -16 -12q-12 0 -15 12l-69 288v4q0 15 16 17q23 0 23 19q0 9 -9 16t-26 7h-230q-17 0 -26 -7t-9 -16q0 -8 6.5 -13.5t17.5 -5.5q15 -2 16 -14l132 -515q2 -9 10 -17t17 -8h186q12 0 23 26l58 154 q5 10 16 10q12 0 15 -10l54 -155q3 -8 10.5 -16.5t11.5 -8.5h198q6 0 12.5 9t8.5 16l133 515q3 12 17 14zM1249 -155h-197q-24 0 -47 3t-36.5 7.5t-13.5 8.5t21 7l-135 49l37 -49q61 -6 61 -16t-48 -10h-145q-25 0 -48 3t-36.5 7.5t-13.5 8.5t20 7l-136 49l40 -49 q60 -6 60 -16t-48 -10h-229q-26 0 -49.5 3t-36 7.5t-12.5 8.5q0 5 27 8l-80 117q-8 2 -17.5 13t-12.5 22l-130 505q-44 10 -44 50q0 23 18.5 40.5t49.5 17.5h230q31 0 50 -17.5t19 -40.5q0 -32 -38 -47l50 -204l48 204q-36 14 -36 47q0 23 19 40.5t49 17.5h145 q31 0 50 -17.5t19 -40.5q0 -33 -36 -47l48 -204l48 204q-36 15 -36 47q0 23 19 40.5t50 17.5h196q32 0 50 -17t18 -41q0 -40 -42 -50l-131 -505q-1 -9 -11 -23q4 0 22 -5l360 -124q69 -5 69 -17q0 -10 -48 -10z" />
<glyph unicode="x" horiz-adv-x="721" d="M399 -25q-26 2 -45 16.5t-19 40.5q0 30 30 46q-25 67 -37 88q-26 -32 -41 -87q30 -17 30 -49q0 -16 -9 -29q26 -5 26 -12q0 -5 -15 -6q39 -14 78 -22q3 5 3 9v2q-1 2 -1 3zM665 51q-5 0 -9.5 4t-5.5 8q-2 5 -9.5 28t-10 30t-10.5 28t-12 30t-12.5 26.5t-15.5 28 t-16.5 24.5t-20.5 24.5t-23 20.5q-5 5 -5 13t4 11q43 39 80.5 103.5t37.5 114.5q0 6 5.5 11.5t11.5 5.5q23 0 23 19q0 9 -9 16t-25 7h-175q-30 0 -30 -21q0 -8 5.5 -14.5t13.5 -6.5q6 0 11 -6t5 -13q-1 -27 -33.5 -78.5t-54.5 -51.5q-20 0 -47 46.5t-38 80.5v2l-1 2 q0 6 5 11.5t11 6.5q9 0 14.5 6.5t5.5 14.5q0 21 -30 21h-220q-17 0 -25.5 -7t-8.5 -16q0 -19 24 -19q5 0 10 -5.5t5 -11.5q1 -51 29.5 -112.5t67.5 -105.5q4 -4 4 -11q0 -8 -6 -13q-26 -19 -45.5 -51t-28 -57t-20 -70t-17.5 -62q-6 -12 -16 -12q-24 -2 -24 -20q0 -9 9.5 -16 t26.5 -7h185q28 0 28 21q0 20 -17 22q-7 0 -11.5 5t-4.5 11q0 2 1 4q26 96 69 132q4 4 11 4q9 0 14 -6q9 -13 18.5 -31t14 -29.5t13 -35.5t11.5 -31q1 -2 1 -6q0 -7 -4.5 -12t-11.5 -5q-7 -1 -12.5 -7t-5.5 -14q0 -22 32 -22h252q17 0 26 7t9 16q0 18 -23 20zM913 -155h-174 q-23 0 -45 3t-35 7.5t-13 8.5t17 7q-39 12 -84 20q-14 -11 -14 -20q56 -8 56 -17t-46 -9h-218q-6 0 -19.5 1t-31.5 2.5t-31 5.5t-13 10q0 5 22 8q-17 11 -17 24q0 16 19 27q-30 5 -59.5 12t-43.5 11.5t-47 15.5t-38 13h-28q-29 0 -49.5 14t-20.5 38q0 19 12.5 35t32.5 21 q4 13 17 60.5t20.5 68.5t26 53t42.5 53q-84 106 -93 212q-17 6 -29 20t-12 33q0 23 20.5 38.5t47.5 15.5h220q29 0 46.5 -16.5t17.5 -39.5q0 -31 -32 -48q21 -46 50 -80q36 35 48 80q-32 16 -32 48q0 22 18 39t47 17h175q31 0 49.5 -17.5t18.5 -40.5q0 -37 -41 -49 q-6 -52 -39.5 -112t-74.5 -102q31 -29 55.5 -72.5t36 -74t29.5 -86.5q44 -10 44 -51q0 -17 -10 -31q28 -5 28 -12t-27 -8q8 -18 8 -26q0 -20 -30 -32q140 -21 206 -51q65 -5 65 -17q0 -10 -48 -10z" />
<glyph unicode="y" horiz-adv-x="682" d="M624 562q24 0 24 19q0 9 -9 16t-26 7h-162q-17 0 -26 -7t-9 -16q0 -19 24 -19q6 0 10.5 -5.5t4.5 -11.5q0 -63 -17 -110.5t-55 -106.5q-4 -7 -14 -7t-14 7q-38 59 -55 106.5t-17 110.5q0 6 4.5 11.5t10.5 5.5q23 0 23 19q0 9 -9 16t-26 7h-218q-17 0 -26 -7t-9 -17 q0 -18 23 -18q6 0 11.5 -5.5t5.5 -11.5q0 -103 38 -173.5t123 -166.5q5 -10 5 -11v-127q0 -5 -5.5 -10.5t-12.5 -5.5q-22 -2 -22 -20q0 -9 9 -16t25 -7h219q17 0 26 7t9 16q0 18 -23 20q-6 0 -11 5.5t-5 10.5v133q0 7 4 11q83 92 120 162t37 172q0 6 5 11.5t10 5.5z M884 -155h-162q-25 0 -48.5 3t-36.5 7.5t-13 8.5q0 5 24 8q-33 16 -123 39q-6 -7 -6 -15q0 -12 22 -24q64 -5 64 -17q0 -10 -47 -10h-218q-26 0 -49 3t-36 7.5t-13 8.5q0 5 24 8q-34 20 -34 37q0 18 52 47l-32 19h-19q-29 0 -49 18.5t-20 41.5q0 34 41 47v106 q-84 95 -123.5 168t-41.5 174q-40 11 -40 49q0 23 18.5 40.5t49.5 17.5h218q31 0 50 -17.5t19 -40.5q0 -36 -40 -49q3 -81 53 -162q52 81 53 162q-39 14 -39 49q0 23 19 40.5t50 17.5h162q31 0 49.5 -18t18.5 -41q0 -36 -39 -48q-2 -100 -40.5 -172.5t-120.5 -163.5v-112 q40 -13 40 -49q0 -16 -11 -32q29 -5 29 -12q0 -6 -25 -7l49 -27q124 -24 192 -41.5t113 -41.5q64 -5 64 -17q0 -10 -48 -10z" />
<glyph unicode="z" horiz-adv-x="538" d="M502 190q2 10 2 12q0 17 -14 17q-17 0 -38 -19q-17 -14 -66 -14q-6 0 -19.5 0.5t-19.5 0.5q-7 0 -12 5t-5 12q0 1 0.5 3t0.5 3l152 361q1 1 1 5q0 10 -8.5 19t-21.5 9h-336q-4 0 -11 -5q-7 -9 -10 -20l-31 -142q-2 -8 -2 -10q0 -13 11 -13q15 0 33 16q13 12 50 12h32 q7 0 12 -5t5 -11q0 -3 -2 -7l-166 -378q-5 -10 -5 -16q0 -17 29 -17h356q15 0 30.5 6.5t18.5 18.5zM752 -136q14 -5 14 -10q0 -9 -41 -9h-335q-50 0 -76 12l-92 35q-14 6 -14 10q0 6 28 6q18 -1 41 -4t32 -3h31l-261 74h-16q-29 0 -46 13.5t-17 36.5q0 16 7 31l158 353 q-18 0 -28 -3q-8 -2 -24.5 -12.5t-30.5 -12.5q-3 -1 -8 -1q-20 0 -31 13.5t-11 34.5q0 11 1 16l33 143q5 22 18 35q13 15 34 15h336q29 0 46 -21t17 -44q0 -8 -3 -13l-142 -339h22q25 0 35 5q6 3 16.5 9t16 8.5t13.5 5t15 2.5q21 0 34 -12t13 -35q0 -9 -3 -20l-35 -157 q-3 -12 -12 -25q10 -1 23 -5l102 -39q16 -7 16 -11q0 -6 -30 -6q-17 0 -73 6q-5 0 -23.5 0.5t-36.5 0.5z" />
<glyph unicode="{" horiz-adv-x="244" d="M56 332v200q0 29 11 49.5t25 30.5t40.5 15.5t43.5 6t48 0.5q17 -1 20 -18v-20q-1 -8 -8 -15q-55 -25 -55 -104q0 -15 2 -65.5t2 -65.5q0 -70 -41 -98q41 -28 41 -98q0 -15 -2 -66t-2 -66q0 -78 55 -102q7 -7 8 -15v-21q-3 -17 -25 -18q-26 0 -41 0.5t-39 5t-38 12.5 t-26.5 24.5t-16.5 39.5q-1 7 -1 22t3 74.5t3 79.5q0 87 -52 108q-11 8 -11 20t11 19q40 17 45 65zM92 529v-200q-4 -54 -44 -81q49 -36 49 -126q0 -18 -2.5 -76.5t-2.5 -78.5q0 -33 16 -49q22 -20 78 -20h7q-42 31 -42 106q0 16 2 67t2 65q0 79 -60 95q-11 8 -11 17 q0 8 11 16q35 10 47.5 34t12.5 62q0 15 -2 67t-2 68q0 73 41 103q-48 0 -74 -13t-26 -56z" />
<glyph unicode="}" horiz-adv-x="244" d="M188 532v-200q5 -48 45 -65q11 -7 11 -19t-11 -20q-52 -21 -52 -108q0 -20 3 -79.5t3 -74.5t-1 -22q-4 -23 -16.5 -39.5t-26.5 -24.5t-38 -12.5t-39 -5t-41 -0.5q-22 1 -25 18v21q1 8 8 15q55 24 55 102q0 15 -2 66t-2 66q0 70 41 98q-41 28 -41 98q0 15 2 65.5t2 65.5 q0 79 -55 104q-7 7 -8 15v20q3 17 20 18q31 0 48 -0.5t43.5 -6t40.5 -15.5t25 -30.5t11 -49.5zM152 329v200q0 43 -26 56t-74 13q41 -30 41 -103q0 -16 -2 -68t-2 -67q0 -38 12.5 -62t47.5 -34q11 -8 11 -16q0 -9 -11 -17q-60 -16 -60 -95q0 -14 2 -65t2 -67q0 -75 -42 -106 h7q56 0 78 20q16 16 16 49q0 20 -2.5 78.5t-2.5 76.5q0 90 49 126q-40 27 -44 81z" />
<glyph unicode="&#xa2;" horiz-adv-x="501" d="M467 254q-83 -22 -114 -25q-4 0 -11.5 -0.5t-12.5 -0.5q-52 0 -91.5 21.5t-39.5 68.5t40 69t92 22q16 0 23 -1q31 -3 114 -25q-1 6 -3 16.5t-2 15.5q-2 13 -5 39t-4.5 33t-7 22t-14 19.5t-23.5 11t-37 9.5q-14 3 -14 18v42q0 6 -4.5 10.5t-10.5 4.5h-126q-6 0 -10.5 -4.5 t-4.5 -10.5v-52q0 -12 -11 -16q-75 -25 -116 -87.5t-41 -137.5q0 -74 41 -135t116 -85q11 -4 11 -26q0 -5 -0.5 -16t-0.5 -15q0 -27 16 -27h126q15 0 15 25q0 3 -0.5 11.5t-0.5 12.5q0 25 15 26q57 11 71 28q12 15 25 139zM635 -77q14 0 39.5 -13t25.5 -26q0 -10 -62 -13 l11 -7q3 -3 3 -4q0 -7 -34 -7h-123q-51 0 -84 20q-90 6 -155 21q-21 2 -77 21.5t-56 37.5q0 22 73 31q-27 12 -27 44v41q-81 28 -125 96.5t-44 150.5q0 83 44 153t125 100v40q0 20 14 34.5t33 14.5h126q19 0 33 -14.5t14 -34.5v-29q18 -4 32.5 -10t24.5 -11t17.5 -17 t11.5 -17.5t8 -23t5 -23.5t3.5 -28.5t3.5 -29.5q5 -38 5 -41q0 -29 -26 -29q-11 0 -24 4q-73 19 -100 22q-9 1 -24 1q-44 0 -68.5 -17t-24.5 -41t24.5 -41.5t68.5 -17.5q28 0 124 24q16 4 23 4q28 0 28 -27q0 -34 -15 -128q-9 -59 -97 -75q0 -4 0.5 -12t0.5 -12 q0 -19 -6 -30q28 -3 36 -9l12 -7q98 0 185 -43q10 -4 10 -6q0 -1 -12 -3q-5 0 -16 0.5t-18 0.5q-66 4 -109 4q-8 1 -22 1q-76 0 -76 -10q0 -4 14.5 -7.5t43 -6t63.5 -2.5q23 0 69 3.5t71 3.5z" />
<glyph unicode="&#xa3;" horiz-adv-x="560" d="M221 -16l29 2q-78 23 -107 23q-52 0 -90 -22q58 -7 104 -7q28 0 64 4zM533 464l-27 119q-4 17 -12 17q-6 0 -19 -5.5t-21 -5.5q-24 0 -71 11.5t-73 11.5q-27 0 -49 -8.5t-36.5 -18.5t-27.5 -33.5t-19.5 -36.5t-14 -46.5t-9.5 -45.5t-8 -49q-1 -4 -6.5 -8.5t-10.5 -4.5 h-81q-16 0 -16 -15v-77q0 -15 27 -15q5 0 17.5 0.5t18.5 0.5q28 0 28 -16q0 -2 -1 -4q-3 -23 -7.5 -32.5t-8.5 -12t-21.5 -5.5t-32.5 -8v-154q42 20 92 20q45 0 133.5 -25.5t139.5 -25.5q47 0 83 11v149q0 5 -6 5q-3 0 -18 -5q-46 -29 -97 -29q-38 0 -70 16q-8 5 -8 27 q0 14 10 74q1 5 6 10t9 5h120q14 0 14 14v77q0 15 -14 15h-97q-16 0 -16 23q0 31 27.5 64.5t71.5 33.5q28 0 59 -18t36 -18q8 0 8 10zM779 -149q1 -1 1 -3q0 -8 -31 -8q-29 0 -89 -1t-94 -1q-154 0 -287 57h-68q-48 0 -65 10l-32 17q-3 2 -3 4q0 7 33 7h39q-10 0 -32 2 t-33 2q-2 0 -6 0.5t-7 1t-4 1.5l-66 39q-17 0 -17 16v194q0 7 9 13t19.5 9t24 6.5t16.5 4.5h-39q-38 0 -47 42q-1 14 -1 82q0 20 14 33.5t34 13.5h67q7 41 13 69t20.5 66t33.5 60.5t51 39t73 16.5q26 0 77 -10t70 -12q7 0 19.5 6t20.5 6q33 0 44 -44l28 -119q2 -14 2 -18 q0 -19 -10.5 -28.5t-27.5 -9.5q-18 0 -48 17t-50 17q-45 0 -63 -56h78q20 0 33.5 -13.5t13.5 -33.5v-77q0 -20 -13.5 -33.5t-33.5 -13.5h-103q-6 -28 -9 -57q22 -9 46 -9q41 0 79 24q17 10 36 10q39 0 39 -38v-160q0 -1 -0.5 -2.5t-0.5 -2.5q5 0 7 -2l62 -37q4 -1 4 -3 q0 -5 -26 -5q-13 0 -43 2q-45 6 -92 6q-15 0 -37 -2q1 -1 29 -13h105q47 0 65 -11l30 -17q4 -1 4 -4q0 -6 -32 -6h-78q39 -13 87 -13q16 0 48.5 3.5t49.5 3.5q32 0 43 -12z" />
<glyph unicode="&#xa4;" horiz-adv-x="698" d="M600 -66q-8 0 -19.5 3.5t-12.5 8.5q-34 2 -50 2q-79 0 -105 -14h187zM680 -117q-18 5 -18 9q0 2 3 3h-183q72 -14 152 -14q18 0 46 2zM489 215h-186q49 -58 130 -58q23 0 45 6q-4 8 -4 19q0 28 15 33zM661 365h-389q-17 0 -17 11q0 4 2 7q26 48 73 74t102 26q43 0 83 -17 q10 -5 10 -15q0 -5 -5 -12q-13 -11 -13 -18q0 -5 4 -9.5t10 -4.5q3 0 9 4l130 129q4 6 4 9q0 14 -15 14q-5 0 -9 -3q-7 -9 -16 -9q-4 0 -8 3q-84 56 -188 56q-108 0 -195.5 -62.5t-113.5 -169.5q-1 -5 -6 -9t-10 -4h-20l-31 -28h43q6 0 11 -5t5 -12v-40q0 -10 -16 -10h-23 l-31 -27h62q14 0 16 -7q26 -109 115.5 -173.5t199.5 -64.5q100 0 179 54q6 2 8 2q3 0 19 -11q8 -3 13 -3q13 0 13 10q0 6 -6 13l-130 128q-4 4 -10 4q-13 0 -13 -13q0 -5 4 -9q10 -11 10 -19q0 -16 -48 -27q-19 -4 -41 -4q-54 0 -102 27t-73 74q-2 3 -2 7q0 12 17 12h362 l16 27h-395q-19 0 -19 33q0 34 19 34h392zM484 392q-10 18 -10 30q0 10 6 21q-26 8 -49 8q-80 0 -128 -59h181zM911 -133q30 -5 30 -9q0 -8 -57 -8q-3 0 -4 1q-65 -13 -169 -13q-117 0 -240.5 15.5t-201.5 41.5h-13q-12 0 -14 1l-67 10q-11 2 -11 4q0 3 11 3h50l-5 3h-26 l-68 12q-10 2 -10 4t11 2h73q-2 6 -2 8q0 30 116 43q-81 26 -141 86t-83 144h-74q-7 0 -11.5 5.5t-4.5 11.5q0 7 5 12l49 49q4 4 12 4h12v13h-50q-7 0 -11.5 5.5t-4.5 11.5q0 7 4 11l49 50q4 4 12 4h13q32 116 129 183.5t214 67.5q103 0 191 -54q14 9 26 9q19 0 33 -14.5 t14 -34.5q0 -18 -14 -32l-125 -125h127q7 0 11.5 -5t4.5 -12q0 -6 -5 -11l-31 -49q-5 -5 -12 -5h-383v-13h404q7 0 11.5 -5t4.5 -12q0 -6 -5 -11l-31 -49q-5 -5 -12 -5h-88l129 -129q14 -14 14 -33t-14 -33t-33 -14q-16 0 -30 11q-23 -15 -61 -29q28 -2 94 -8q12 2 24 2 q23 0 46.5 -4.5t23.5 -9.5q0 -3 -5 -4l-78 -30h89q1 0 6.5 -0.5t7.5 -0.5l50 -11q10 -1 10 -4q0 -2 -11 -2h-403q0 -1 4 -3h383q12 0 14 -1l51 -11q10 -3 10 -4q0 -2 -11 -2h-127z" />
<glyph unicode="&#xa5;" horiz-adv-x="685" d="M649 583q0 21 -36 21h-162q-17 0 -26 -7t-9 -17q0 -18 23 -18q7 0 12 -5.5t5 -12.5q0 -61 -17.5 -107.5t-55.5 -108.5q-4 -7 -14 -7t-14 7q-39 61 -56 108t-17 108q0 7 5 12.5t12 5.5q23 0 23 18q0 10 -9 17t-26 7h-218q-36 0 -36 -21q0 -14 19.5 -20.5t19.5 -18.5 q0 -133 81 -242q3 -4 3 -9q0 -7 -4.5 -12t-11.5 -5h-35v-15h73q11 0 13 -7q4 -5 18 -19.5t22.5 -27t8.5 -25.5q0 -12 -18 -12h-117v-15h117q6 0 11.5 -6t5.5 -12v-70q0 -6 -5.5 -11t-11.5 -5q-23 -2 -23 -20q0 -9 9 -16t26 -7h218q17 0 26.5 7t9.5 17q0 17 -23 19 q-7 0 -12 5t-5 11v70q0 6 5 12t12 6h111v15h-111q-18 0 -18 26q0 11 5 15q23 23 38 43q5 7 13 7h73v15h-33q-7 0 -12 5t-5 12q0 5 3 9q80 109 80 242q0 12 20 18.5t20 20.5zM885 -148h-163q-25 0 -47 2.5t-34.5 6t-12.5 7.5q0 5 25 8q-36 18 -119 36q-8 -8 -8 -15 q0 -10 20 -21q61 -5 61 -16q0 -8 -49 -8h-218q-25 0 -47.5 2.5t-35 6t-12.5 7.5q0 5 25 8q-30 16 -30 32q0 9 11 17h-19q-17 0 -23 4q-20 12 -20 13q0 2 11 2h82q6 1 11 5h-102q-15 0 -23 5l-21 11q0 3 12 3h116l-11 7h-30q-31 0 -50 17.5t-19 40.5q0 36 40 49v39h-116 q-7 0 -12 5t-5 11v50q0 6 5 11.5t12 5.5h102q-2 2 -20 23h-82q-7 0 -12 5t-5 11v50q0 6 5 11.5t12 5.5h18q-64 98 -67 220q-40 11 -40 49q0 23 19 40.5t50 17.5h218q31 0 49.5 -17.5t18.5 -40.5q0 -36 -40 -49q3 -79 54 -162q49 79 53 162q-39 13 -39 49q0 23 18.5 40.5 t49.5 17.5h162q31 0 50 -17.5t19 -40.5q0 -37 -40 -49q-3 -123 -67 -220h18q6 0 11 -5.5t5 -11.5v-50q0 -6 -5 -11t-11 -5h-83l-20 -23h103q6 0 11 -5.5t5 -11.5v-50q0 -6 -5 -11t-11 -5h-112v-39q40 -13 40 -49q0 -18 -13 -34q51 -5 51 -15q0 -6 -25 -7l18 -9h111 q18 0 22 -4l21 -12q0 -3 -11 -3h-103q27 -5 29 -5h83q16 0 22 -4l21 -12q0 -3 -10 -3h-19q100 -21 154 -49q63 -5 63 -16q0 -8 -50 -8z" />
<glyph unicode="&#xa7;" horiz-adv-x="2170" d="M27 750h128v-750h-128v750zM2020 750h122v-750h-122v750zM1249 468q15 40 40.5 74t60 58.5t76 38t86.5 13.5t86.5 -13.5t76 -38t60 -58.5t40.5 -74h123q-12 50 -36.5 94.5t-59 81t-77 63.5t-91.5 43h-244q-49 -16 -91.5 -43t-77 -63.5t-59 -81t-36.5 -94.5h123zM1775 276 q-15 -40 -40.5 -74t-60 -58.5t-76 -38t-86.5 -13.5t-86.5 13.5t-76 38t-60 58.5t-40.5 74h-123q24 -96 89.5 -168.5t156.5 -107.5h281q91 35 156 107.5t89 168.5h-123zM923 276q-15 -40 -41 -74t-60.5 -58.5t-76 -38t-86.5 -13.5t-86 13.5t-75.5 38t-60.5 58.5t-41 74h-122 q12 -48 34.5 -90.5t54 -78t71.5 -63t85 -44.5h281q45 17 85 44.5t71.5 63t54 78t34.5 90.5h-122zM397 468q15 40 40.5 74t60 58.5t75.5 38t86 13.5t86.5 -13.5t76 -38t60 -58.5t40.5 -74h123q-12 50 -36.5 94.5t-59 81t-77 63.5t-90.5 43h-245q-48 -16 -90.5 -43t-77 -63.5 t-59 -81t-36.5 -94.5h123zM274 448h95v-30h-56v-33h50v-32h-51v-58h-38v153zM1006 448h44l71 -102v102h38v-153h-35l-81 104v-104h-37v153zM1457 448h115v-38h-32v-115h-51v116h-32v37zM662 456q-14 0 -29.5 -4t-28.5 -14t-22 -28t-9 -46t12.5 -44t27.5 -24q18 -10 41 -12 q24 2 43 12q17 8 30.5 25t13.5 49t-12.5 49t-27.5 25q-18 10 -39 12zM655 322q-12 2 -22 7q-8 5 -14.5 13.5t-6.5 24.5q0 15 4.5 25t11.5 16t15.5 8t15.5 2q11 -1 21 -6q8 -5 15 -15t7 -27q0 -18 -7.5 -27.5t-16.5 -14.5q-11 -5 -23 -6zM1790 333q8 -4 18.5 -7t23.5 -3 q10 0 17.5 3t7.5 12q0 10 -11.5 14t-25 8.5t-24.5 13.5t-11 30q0 13 6 22t15.5 14.5t21.5 7.5t23 2q24 0 39 -6l-3 -31q-14 7 -33 7q-8 0 -17.5 -2t-9.5 -12q0 -9 11 -12.5t24.5 -8t24.5 -13t11 -29.5q0 -29 -20 -39t-46 -10q-11 0 -23 1t-23 5z" />
<glyph unicode="&#xa8;" horiz-adv-x="246" d="M107 681q0 15 -10.5 25.5t-25.5 10.5t-26 -10.5t-11 -25.5q0 -16 11 -27t26 -11t25.5 11t10.5 27zM212 681q0 15 -10.5 25.5t-25.5 10.5t-25.5 -10.5t-10.5 -25.5q0 -16 10.5 -27t25.5 -11t25.5 11t10.5 27zM246 681q0 -30 -20.5 -50.5t-49.5 -20.5q-32 0 -54 24 q-19 -24 -51 -24q-29 0 -50 20.5t-21 50.5q0 28 21 48.5t50 20.5q31 0 51 -23q23 23 54 23q29 0 49.5 -20.5t20.5 -48.5z" />
<glyph unicode="&#xa9;" horiz-adv-x="684" d="M0 315q0 142 100 242t242 100t242 -100t100 -242t-100 -242t-242 -100t-242 100t-100 242zM524 294q13 0 22.5 -7.5t9.5 -24.5q0 -14 -9 -68q33 55 33 121q0 67 -37 127v-88q0 -24 -15.5 -36.5t-38.5 -12.5h-17q-5 0 -18 -0.5t-20 -0.5q-46 0 -60.5 11t-14.5 53 q0 13 -16 13q-13 0 -19.5 -21t-6.5 -46q0 -42 81 -42q54 0 86 13q27 9 40 9zM524 262q-8 0 -29 -7q-38 -15 -97 -15q-113 0 -113 74q0 37 14 68t44 31q21 0 34.5 -11.5t13.5 -33.5q0 -21 8 -26.5t35 -5.5q12 0 32 0.5t23 0.5q22 0 22 17v134q-25 22 -70 32q-43 8 -82 8 q-100 0 -164.5 -53.5t-64.5 -160.5q0 -109 67.5 -162.5t168.5 -53.5q107 0 134 36q6 7 15 60t9 68zM32 315q0 -128 91 -219t219 -91t219 91t91 219t-91 219t-219 91t-219 -91t-91 -219zM72 315q0 112 79 191t191 79t191 -79t79 -191t-79 -191t-191 -79t-191 79t-79 191z" />
<glyph unicode="&#xaa;" horiz-adv-x="474" d="M430 216h-138q-20 0 -34 14.5t-14 33.5q0 16 8 26h-51q9 -12 9 -27q0 -18 -13.5 -32.5t-34.5 -14.5h-118q-44 0 -44 38q0 17 17 40q7 20 23 79q30 105 38 129q-10 -2 -14 -2q-23 0 -28 7.5t-5 27.5q0 26 12.5 64t38.5 38h244q33 0 107 -264q17 -59 26 -91q16 -9 16 -28 q0 -20 -10 -29t-35 -9zM226 472l-9 -36h18q-1 4 -3 11.5t-3.5 13.5t-2.5 11zM276 417q0 -13 -11 -13h-78q-9 0 -9 13q1 3 9.5 34.5t18 49.5t21.5 18t21 -18.5t17.5 -48.5t10.5 -35zM430 248q13 0 13 6q0 4 -8 14.5t-8 12.5q-17 89 -65 221q0 3 -18.5 53t-23.5 50h-238 q-5 0 -12 -29t-7 -41q0 -3 1 -3t15.5 6t26.5 6q19 0 19 -9q0 -1 -0.5 -2.5t-0.5 -2.5q-21 -48 -47.5 -142.5t-30.5 -107.5q-1 -2 -5 -7t-6.5 -10t-2.5 -9q0 -6 12 -6h118q7 0 11.5 4.5t4.5 10.5q0 11 -9 11q-12 0 -12 21q0 27 12 27h115q12 0 12 -30q0 -12 -10 -18t-10 -10 q0 -6 4.5 -11t11.5 -5h138zM443 18h-138q-38 0 -38 -9q0 -4 15 -8h-51q4 0 4 4q0 6 -23 9.5t-36 3.5h-118q-36 0 -36 -7q0 -6 27 -11q12 -4 40 -17q58 -25 66 -28h-14q-28 0 -28 -4q0 -1 3 -4q2 -2 11 -7t26 -10t35 -5h244q10 0 17 3t11.5 6t8.5 13t6 14.5t6 20t6 21.5 q10 3 10 6q-9 9 -54 9z" />
<glyph unicode="&#xab;" horiz-adv-x="395" d="M318 305l77 -140v-143l-150 132v-132l-245 216v135l245 201v-123l150 123v-140zM213 157l-81 148l81 137v65l-181 -149v-106l181 -159v64zM363 157l-81 148l81 137v65l-181 -149v-106l181 -159v64zM331 -17l46 31l-31 31l-121 -29l-29 29l-197 -47l30 -30l288 -44l-27 27 l177 -27l-31 31z" />
<glyph unicode="&#xac;" horiz-adv-x="439" d="M419 152h-137q-7 0 -13 7.5t-6 14.5v43h-247q-16 4 -16 21v135q0 17 16 21h403q17 -1 20 -18v-206q-3 -17 -20 -18zM299 235v-47h104v170h-367v-105h243q17 -1 20 -18z" />
<glyph unicode="&#xad;" horiz-adv-x="395" d="M195 575q45 -4 70.5 -32.5t25.5 -65.5q0 -59 -50 -83h134q17 -1 20 -18v-141q-3 -17 -20 -18h-140q56 -25 56 -89q0 -38 -25.5 -65.5t-70.5 -27.5q-43 0 -68 27.5t-25 65.5q0 64 55 89h-141q-16 4 -16 21v135q0 7 5 14t11 7h134q-48 24 -48 82q0 37 24 66t69 33zM359 358 h-323v-105h323v105zM195 191q-28 -2 -42.5 -20t-14.5 -42q0 -23 14.5 -40.5t40.5 -17.5q30 0 46.5 17.5t16.5 41.5q0 23 -16 41t-45 20zM195 539q-28 -2 -42.5 -19.5t-14.5 -41.5q0 -23 14.5 -40.5t40.5 -17.5q30 0 46.5 17t16.5 41q0 23 -16 41t-45 20z" />
<glyph unicode="&#xae;" horiz-adv-x="447" d="M4 417q0 92 64 156.5t156 64.5t156 -64.5t64 -156.5q0 -91 -64 -155t-156 -64t-156 64t-64 155zM223 417h-14q-5 0 -5 6v50q0 5 5 5h14q14 0 22 -9t8 -21q0 -13 -8 -22t-22 -9zM332 335q-6 0 -6 5q0 27 -29 54q-2 1 -2 4q0 1 2 5q26 17 26 55q0 34 -22.5 51t-59.5 17 h-111q-11 0 -11 -8q0 -6 7 -6q6 0 6 -7v-165q0 -5 -6 -5q-7 -1 -7 -7q0 -9 11 -9h75q12 0 12 9q0 5 -8 7q-5 0 -5 5v44q0 6 5 6h11l2 -1q2 -1 3 -1q24 -29 24 -44q0 -4 -4.5 -8t-4.5 -7t3.5 -6.5t8.5 -3.5h75q13 0 13 9q0 5 -8 7zM36 417q0 -78 55 -132.5t133 -54.5 t133 54.5t55 132.5q0 79 -55 134t-133 55t-133 -55t-55 -134zM67 417q0 66 46 112t111 46t111 -46t46 -112q0 -65 -46 -110.5t-111 -45.5t-111 45.5t-46 110.5z" />
<glyph unicode="&#xb0;" horiz-adv-x="290" d="M142 585l6 -1q58 -5 99.5 -42.5t41.5 -98.5q0 -59 -40 -104.5t-99 -45.5q-67 0 -108.5 43t-41.5 101q0 54 37 97.5t105 50.5zM255 440q0 50 -33 77.5t-78 27.5q-44 0 -76 -27.5t-32 -76.5q0 -52 31 -81t75 -29q43 0 76 29t37 80zM144 369q-30 0 -47 20t-17 48t17 48 t48 20t48.5 -19.5t17.5 -46.5t-17.5 -48.5t-49.5 -21.5zM146 471q-15 0 -23.5 -10.5t-8.5 -24.5q0 -31 30 -31q15 0 23.5 10t8.5 24q0 29 -30 32z" />
<glyph unicode="&#xb1;" horiz-adv-x="395" d="M0 251v135q0 7 5 14t11 7h93v74q0 17 16 21h140q17 -1 20 -18v-77h90q17 -1 20 -18v-141q-3 -17 -20 -18h-90v-78h90q17 -1 20 -18v-141q-3 -17 -20 -18h-359q-16 4 -16 21v135q0 7 5 14t11 7h93v78h-93q-16 4 -16 21zM125 371h-89v-105h89q17 -1 20 -18v-77h104v74 q0 17 16 21h94v105h-94q-16 4 -16 21v74h-104v-77q-3 -17 -20 -18zM359 116h-323v-105h323v105z" />
<glyph unicode="&#xb4;" horiz-adv-x="261" d="M227 638v64l-193 -37v-27h193zM261 605h-261v87l261 50v-137z" />
<glyph unicode="&#xb5;" horiz-adv-x="458" />
<glyph unicode="&#xb6;" horiz-adv-x="453" d="M202 626l218 -1q15 -4 24 -17.5t9 -30.5q0 -28 -17 -36t-54 -8v-613q0 -19 -17 -30t-40 -11h-77q-54 0 -54 47v283q-79 8 -118 43q-36 32 -56 78t-20 94q0 82 53 136q52 55 149 66zM202 590l6 1q-77 -9 -112 -38q-60 -49 -60 -137q0 -75 47.5 -121t126.5 -51 q17 -1 20 -18v-306h37q2 0 2 3v614q0 17 16 21q17 -1 20 -18v-620h39q2 0 2 3v607q0 34 27 35h34q13 0 13 12q0 13 -13 13h-205z" />
<glyph unicode="&#xba;" horiz-adv-x="438" d="M219 365q11 0 17 16t6 38t-6 37.5t-17 15.5t-17.5 -15.5t-6.5 -37.5q0 -54 24 -54zM438 419q0 -97 -61.5 -157.5t-157.5 -60.5q-97 0 -158 60.5t-61 157.5t61 157.5t158 60.5q96 0 157.5 -60.5t61.5 -157.5zM219 333q-26 0 -41 25.5t-15 60.5t15 60t41 25t40.5 -25 t14.5 -60q0 -36 -14.5 -61t-40.5 -25zM406 419q0 83 -52.5 134.5t-134.5 51.5q-83 0 -135 -51.5t-52 -134.5t52 -134.5t135 -51.5q82 0 134.5 51.5t52.5 134.5zM217 -19q15 0 26 -5.5t11 -11.5t-14 -6q-15 0 -27 5.5t-12 11.5t16 6zM447 -30q-21 21 -96 34.5t-171 13.5 q-81 0 -129 -10t-48 -26q0 -26 81 -43t192 -17q82 0 129.5 9.5t47.5 26.5q0 6 -6 12z" />
<glyph unicode="&#xbb;" horiz-adv-x="395" d="M129 -27l-106 31l-23 23v138l76 140l-76 129v140l150 -123v123l245 -201v-135l-234 -206l272 -44l30 -30l-201 -44l-27 27l-123 -27l-30 31zM113 305l-81 -148v-64l181 159v106l-181 149v-65zM263 305l-81 -148v-64l181 159v106l-181 149v-65zM150 154l-139 -122l159 -26 l-20 20v128z" />
<glyph unicode="&#xc0;" d="M400 301q-34 125 -42 125q-9 0 -43 -125h85zM440 290v-4q0 -18 -18 -18h-130q-7 0 -11.5 5t-4.5 12q0 1 0.5 2.5t0.5 2.5q2 5 16 57t29.5 82.5t35.5 30.5t35.5 -31t29.5 -81.5t17 -57.5zM488 -36l-4 3q-39 2 -58.5 21.5t-19.5 49.5q0 35 34 45v15h-164v-15q34 -9 34 -44 q0 -31 -24 -50q54 -5 54 -16q0 -5 -21 -6l6 -3h163zM532 -108q4 0 4 4q0 8 -10 23h-84q86 -27 90 -27zM696 8q22 0 22 11q0 7 -13 24t-14 21q-29 151 -107 368q0 5 -31 88.5t-40 83.5h-396q-9 0 -20.5 -49.5t-11.5 -68.5q0 -4 1 -4q3 0 27 10t44 10q31 0 31 -15q0 -2 -2 -8 q-35 -81 -79 -238.5t-51 -179.5q-1 -2 -12 -18t-11 -24q0 -11 21 -11h196q11 0 18.5 8t7.5 18q0 17 -14 17q-20 0 -20 35q0 45 20 45h191q20 0 20 -49q0 -15 -8.5 -22.5t-16.5 -12.5t-8 -12q0 -11 8 -19t18 -8h230zM797 -112l-2 -35q0 -9 -47 -9h-376q-56 0 -107 28 q-21 5 -21 10q0 2 9 4q4 1 14 1q11 0 34.5 -2.5t35.5 -2.5l-268 86q-69 12 -69 53q0 32 27 57q10 34 31.5 116t42 148.5t45.5 126.5q-11 0 -30 -10.5t-30 -10.5q-16 0 -25.5 11t-9.5 28q0 39 17.5 94.5t48.5 55.5h376q16 0 24.5 -1t19 -9t16.5 -23q128 -330 170 -527 q28 -28 28 -58q0 -18 -12 -30q35 -5 35 -13q0 -4 -10 -7q24 -30 33 -81zM441 637v27l-193 37v-64h193zM475 604h-262v137l262 -50v-87z" />
<glyph unicode="&#xc1;" d="M400 301q-34 125 -42 125q-9 0 -43 -125h85zM440 290v-4q0 -18 -18 -18h-130q-7 0 -11.5 5t-4.5 12q0 1 0.5 2.5t0.5 2.5q2 5 16 57t29.5 82.5t35.5 30.5t35.5 -31t29.5 -81.5t17 -57.5zM488 -36l-4 3q-39 2 -58.5 21.5t-19.5 49.5q0 35 34 45v15h-164v-15q34 -9 34 -44 q0 -31 -24 -50q54 -5 54 -16q0 -5 -21 -6l6 -3h163zM532 -108q4 0 4 4q0 8 -10 23h-84q86 -27 90 -27zM696 8q22 0 22 11q0 7 -13 24t-14 21q-29 151 -107 368q0 5 -31 88.5t-40 83.5h-396q-9 0 -20.5 -49.5t-11.5 -68.5q0 -4 1 -4q3 0 27 10t44 10q31 0 31 -15q0 -2 -2 -8 q-35 -81 -79 -238.5t-51 -179.5q-1 -2 -12 -18t-11 -24q0 -11 21 -11h196q11 0 18.5 8t7.5 18q0 17 -14 17q-20 0 -20 35q0 45 20 45h191q20 0 20 -49q0 -15 -8.5 -22.5t-16.5 -12.5t-8 -12q0 -11 8 -19t18 -8h230zM797 -112l-2 -35q0 -9 -47 -9h-376q-56 0 -107 28 q-21 5 -21 10q0 2 9 4q4 1 14 1q11 0 34.5 -2.5t35.5 -2.5l-268 86q-69 12 -69 53q0 32 27 57q10 34 31.5 116t42 148.5t45.5 126.5q-11 0 -30 -10.5t-30 -10.5q-16 0 -25.5 11t-9.5 28q0 39 17.5 94.5t48.5 55.5h376q16 0 24.5 -1t19 -9t16.5 -23q128 -330 170 -527 q28 -28 28 -58q0 -18 -12 -30q35 -5 35 -13q0 -4 -10 -7q24 -30 33 -81zM430 638v64l-193 -37v-27h193zM464 605h-261v87l261 50v-137z" />
<glyph unicode="&#xc2;" d="M400 301q-34 125 -42 125q-9 0 -43 -125h85zM440 290v-4q0 -18 -18 -18h-130q-7 0 -11.5 5t-4.5 12q0 1 0.5 2.5t0.5 2.5q2 5 16 57t29.5 82.5t35.5 30.5t35.5 -31t29.5 -81.5t17 -57.5zM488 -36l-4 3q-39 2 -58.5 21.5t-19.5 49.5q0 35 34 45v15h-164v-15q34 -9 34 -44 q0 -31 -24 -50q54 -5 54 -16q0 -5 -21 -6l6 -3h163zM532 -108q4 0 4 4q0 8 -10 23h-84q86 -27 90 -27zM696 8q22 0 22 11q0 7 -13 24t-14 21q-29 151 -107 368q0 5 -31 88.5t-40 83.5h-396q-9 0 -20.5 -49.5t-11.5 -68.5q0 -4 1 -4q3 0 27 10t44 10q31 0 31 -15q0 -2 -2 -8 q-35 -81 -79 -238.5t-51 -179.5q-1 -2 -12 -18t-11 -24q0 -11 21 -11h196q11 0 18.5 8t7.5 18q0 17 -14 17q-20 0 -20 35q0 45 20 45h191q20 0 20 -49q0 -15 -8.5 -22.5t-16.5 -12.5t-8 -12q0 -11 8 -19t18 -8h230zM797 -112l-2 -35q0 -9 -47 -9h-376q-56 0 -107 28 q-21 5 -21 10q0 2 9 4q4 1 14 1q11 0 34.5 -2.5t35.5 -2.5l-268 86q-69 12 -69 53q0 32 27 57q10 34 31.5 116t42 148.5t45.5 126.5q-11 0 -30 -10.5t-30 -10.5q-16 0 -25.5 11t-9.5 28q0 39 17.5 94.5t48.5 55.5h376q16 0 24.5 -1t19 -9t16.5 -23q128 -330 170 -527 q28 -28 28 -58q0 -18 -12 -30q35 -5 35 -13q0 -4 -10 -7q24 -30 33 -81zM466 638l-117 95l-117 -95h79l38 29l39 -29h78zM547 605h-170l-28 21l-28 -21h-170l198 175z" />
<glyph unicode="&#xc3;" d="M400 301q-34 125 -42 125q-9 0 -43 -125h85zM440 290v-4q0 -18 -18 -18h-130q-7 0 -11.5 5t-4.5 12q0 1 0.5 2.5t0.5 2.5q2 5 16 57t29.5 82.5t35.5 30.5t35.5 -31t29.5 -81.5t17 -57.5zM488 -36l-4 3q-39 2 -58.5 21.5t-19.5 49.5q0 35 34 45v15h-164v-15q34 -9 34 -44 q0 -31 -24 -50q54 -5 54 -16q0 -5 -21 -6l6 -3h163zM532 -108q4 0 4 4q0 8 -10 23h-84q86 -27 90 -27zM696 8q22 0 22 11q0 7 -13 24t-14 21q-29 151 -107 368q0 5 -31 88.5t-40 83.5h-396q-9 0 -20.5 -49.5t-11.5 -68.5q0 -4 1 -4q3 0 27 10t44 10q31 0 31 -15q0 -2 -2 -8 q-35 -81 -79 -238.5t-51 -179.5q-1 -2 -12 -18t-11 -24q0 -11 21 -11h196q11 0 18.5 8t7.5 18q0 17 -14 17q-20 0 -20 35q0 45 20 45h191q20 0 20 -49q0 -15 -8.5 -22.5t-16.5 -12.5t-8 -12q0 -11 8 -19t18 -8h230zM797 -112l-2 -35q0 -9 -47 -9h-376q-56 0 -107 28 q-21 5 -21 10q0 2 9 4q4 1 14 1q11 0 34.5 -2.5t35.5 -2.5l-268 86q-69 12 -69 53q0 32 27 57q10 34 31.5 116t42 148.5t45.5 126.5q-11 0 -30 -10.5t-30 -10.5q-16 0 -25.5 11t-9.5 28q0 39 17.5 94.5t48.5 55.5h376q16 0 24.5 -1t19 -9t16.5 -23q128 -330 170 -527 q28 -28 28 -58q0 -18 -12 -30q35 -5 35 -13q0 -4 -10 -7q24 -30 33 -81zM484 719q-40 -20 -66 -20q-25 0 -65.5 23.5t-73.5 23.5q-31 0 -68 -18l-8 -50q40 20 68 20q22 0 66.5 -23t73.5 -23q30 0 64 17zM527 778l-20 -132q-62 -28 -96 -28q-27 0 -73.5 22.5t-69.5 22.5 q-13 0 -27 -4.5t-23.5 -9t-28.5 -15t-29 -15.5l20 132q61 27 98 27q16 0 39 -5q13 -3 49 -20.5t55 -17.5q16 0 32 5.5t41.5 20t32.5 17.5z" />
<glyph unicode="&#xc4;" d="M400 301q-34 125 -42 125q-9 0 -43 -125h85zM440 290v-4q0 -18 -18 -18h-130q-7 0 -11.5 5t-4.5 12q0 1 0.5 2.5t0.5 2.5q2 5 16 57t29.5 82.5t35.5 30.5t35.5 -31t29.5 -81.5t17 -57.5zM488 -36l-4 3q-39 2 -58.5 21.5t-19.5 49.5q0 35 34 45v15h-164v-15q34 -9 34 -44 q0 -31 -24 -50q54 -5 54 -16q0 -5 -21 -6l6 -3h163zM532 -108q4 0 4 4q0 8 -10 23h-84q86 -27 90 -27zM696 8q22 0 22 11q0 7 -13 24t-14 21q-29 151 -107 368q0 5 -31 88.5t-40 83.5h-396q-9 0 -20.5 -49.5t-11.5 -68.5q0 -4 1 -4q3 0 27 10t44 10q31 0 31 -15q0 -2 -2 -8 q-35 -81 -79 -238.5t-51 -179.5q-1 -2 -12 -18t-11 -24q0 -11 21 -11h196q11 0 18.5 8t7.5 18q0 17 -14 17q-20 0 -20 35q0 45 20 45h191q20 0 20 -49q0 -15 -8.5 -22.5t-16.5 -12.5t-8 -12q0 -11 8 -19t18 -8h230zM797 -112l-2 -35q0 -9 -47 -9h-376q-56 0 -107 28 q-21 5 -21 10q0 2 9 4q4 1 14 1q11 0 34.5 -2.5t35.5 -2.5l-268 86q-69 12 -69 53q0 32 27 57q10 34 31.5 116t42 148.5t45.5 126.5q-11 0 -30 -10.5t-30 -10.5q-16 0 -25.5 11t-9.5 28q0 39 17.5 94.5t48.5 55.5h376q16 0 24.5 -1t19 -9t16.5 -23q128 -330 170 -527 q28 -28 28 -58q0 -18 -12 -30q35 -5 35 -13q0 -4 -10 -7q24 -30 33 -81zM333 681q0 15 -10.5 25.5t-25.5 10.5t-26 -10.5t-11 -25.5q0 -16 11 -27t26 -11t25.5 11t10.5 27zM438 681q0 15 -10.5 25.5t-25.5 10.5t-25.5 -10.5t-10.5 -25.5q0 -16 10.5 -27t25.5 -11t25.5 11 t10.5 27zM472 681q0 -30 -20.5 -50.5t-49.5 -20.5q-32 0 -54 24q-19 -24 -51 -24q-29 0 -50 20.5t-21 50.5q0 28 21 48.5t50 20.5q31 0 51 -23q23 23 54 23q29 0 49.5 -20.5t20.5 -48.5z" />
<glyph unicode="&#xc5;" d="M400 301q-34 125 -42 125q-9 0 -43 -125h85zM440 290v-4q0 -18 -18 -18h-130q-7 0 -11.5 5t-4.5 12q0 1 0.5 2.5t0.5 2.5q2 5 16 57t29.5 82.5t35.5 30.5t35.5 -31t29.5 -81.5t17 -57.5zM488 -36l-4 3q-39 2 -58.5 21.5t-19.5 49.5q0 35 34 45v15h-164v-15q34 -9 34 -44 q0 -31 -24 -50q54 -5 54 -16q0 -5 -21 -6l6 -3h163zM532 -108q4 0 4 4q0 8 -10 23h-84q86 -27 90 -27zM696 8q22 0 22 11q0 7 -13 24t-14 21q-29 151 -107 368q0 5 -31 88.5t-40 83.5h-396q-9 0 -20.5 -49.5t-11.5 -68.5q0 -4 1 -4q3 0 27 10t44 10q31 0 31 -15q0 -2 -2 -8 q-35 -81 -79 -238.5t-51 -179.5q-1 -2 -12 -18t-11 -24q0 -11 21 -11h196q11 0 18.5 8t7.5 18q0 17 -14 17q-20 0 -20 35q0 45 20 45h191q20 0 20 -49q0 -15 -8.5 -22.5t-16.5 -12.5t-8 -12q0 -11 8 -19t18 -8h230zM797 -112l-2 -35q0 -9 -47 -9h-376q-56 0 -107 28 q-21 5 -21 10q0 2 9 4q4 1 14 1q11 0 34.5 -2.5t35.5 -2.5l-268 86q-69 12 -69 53q0 32 27 57q10 34 31.5 116t42 148.5t45.5 126.5q-11 0 -30 -10.5t-30 -10.5q-16 0 -25.5 11t-9.5 28q0 39 17.5 94.5t48.5 55.5h376q16 0 24.5 -1t19 -9t16.5 -23q128 -330 170 -527 q28 -28 28 -58q0 -18 -12 -30q35 -5 35 -13q0 -4 -10 -7q24 -30 33 -81zM408 717q0 -13 -9.5 -22.5t-23.5 -9.5q-13 0 -22 9.5t-9 22.5t9 22.5t22 9.5t23 -9.5t10 -22.5zM453 717q0 32 -22.5 55t-55.5 23q-32 0 -55 -23t-23 -55t23 -55t55 -23q33 0 55.5 23t22.5 55z M486 717q0 -46 -32.5 -78.5t-78.5 -32.5q-45 0 -78 32.5t-33 78.5t33 78.5t78 32.5q46 0 78.5 -32.5t32.5 -78.5z" />
<glyph unicode="&#xc6;" horiz-adv-x="935" d="M400 300q-33 125 -41 125q-3 0 -8 -10.5t-10.5 -27.5t-10 -32.5t-9.5 -33t-6 -21.5h85zM439 289v-5q0 -7 -4.5 -12t-11.5 -5h-130q-7 0 -12 5t-5 12q0 3 1 5q3 8 9.5 32.5t13 45.5t15 43t20 35.5t24.5 13.5q19 0 34.5 -29.5t30.5 -85.5zM550 -107q3 0 3 3q0 4 -5 14 t-5 11h-86q90 -28 93 -28zM501 -33q-2 0 -12 2t-13 3t-12.5 3.5t-13.5 4t-11.5 4.5t-11.5 6.5t-9 8t-7.5 9.5t-4.5 11.5t-2 13.5q0 16 10 30t27 19q0 2 -0.5 7t-0.5 8h-163q-1 -5 -1 -15q34 -8 34 -44q0 -26 -18 -44q16 -1 30.5 -4.5t22.5 -6.5t8 -6q0 -5 -21 -6l8 -4h161z M908 -54q-50 2 -80 2q-14 0 -40.5 -0.5t-38.5 -0.5l17 -10l107 2q0 7 35 7zM900 161q2 6 2 9q0 11 -13 11t-39 -12q-9 -5 -18 -8q-24 -8 -56 -8h-156q0 4 -2 6v104h137q25 0 35 -19q6 -22 21 -22q18 0 23 23v142q-3 18 -14 18q-9 0 -30 -13t-28 -14q-22 -5 -55 -5 q-15 0 -45 1.5t-44 1.5v100h166q39 0 60 -15q8 -8 24 -8t17 14q-1 3 -3.5 20t-6 34.5t-8.5 36.5t-12 31.5t-15 13.5h-724q-8 0 -19.5 -50t-11.5 -69l1 -3q3 0 27 10.5t43 10.5q31 0 31 -16q0 -2 -2 -8q-40 -91 -101 -324q-18 -73 -27 -94q-1 -1 -13 -17.5t-12 -24.5 q0 -10 21 -10h197q11 0 19 8.5t8 18.5q0 14 -16 14q-18 0 -18 37q0 44 18 44h195q3 0 4 -1v-76q-29 -6 -29 -22q0 -19 25 -23h384q14 0 21 23zM1013 -109h-11q-10 0 -18 1t-18 2t-18 2q-10 1 -52 1h-59l13 -8h123q36 0 40 2zM809 190q-37 0 -48 39h-109v-43q11 0 35.5 -0.5 t37.5 -0.5q53 0 84 5zM817 438q-5 5 -30 5q-3 0 -6.5 -0.5t-4.5 -0.5h-124v-33q5 0 28 -1t37 -1q35 0 45 6q4 3 11 10t10.5 9t10.5 4.5t16 2.5q5 0 7 -1zM1065 -105q1 0 9 -0.5t11.5 -1t11.5 -1.5t12.5 -2.5t11.5 -3.5t11 -5t8 -6.5t6 -9t2 -11.5q0 -9 -30 -9h-727 q-45 0 -109 28q-20 7 -20 11q0 3 9 4q2 0 6 0.5t7 0.5q10 0 33.5 -2.5t36.5 -2.5q-99 28 -214 68l-57 20q-13 3 -30 3q-26 2 -39.5 15t-13.5 32q0 30 27 55q7 16 25 86q51 198 94 305q-12 -1 -31 -10.5t-29 -9.5q-15 0 -24.5 10.5t-9.5 26.5q0 39 17 95t47 56h729 q38 -8 47 -49q1 -3 14 -46t13 -64q0 -44 -42 -57q-6 -1 -15 -1h-6q9 -12 12 -29v-138q0 -27 -20 -48q21 9 42 9q46 0 46 -40q0 -11 -4 -22q-15 -54 -41 -131q-7 -21 -12 -26q22 -1 45 -9q80 -25 92 -29q15 -5 15 -9q0 -5 -35 -5q-29 0 -44 1q28 -6 39 -10l54 -32l1 -1v-2 q0 -2 -1 -3h20z" />
<glyph unicode="&#xc7;" horiz-adv-x="640" d="M606 231q-12 0 -43 -11q-62 -22 -141 -22q-71 0 -117 25t-46 83q0 54 20 99t65 45q29 0 49 -16t20 -46q0 -37 16 -46q9 -4 42 -4q17 0 48 0.5t37 0.5q29 0 32 26v194q-36 32 -103 46q-65 13 -118 13q-145 0 -239.5 -78.5t-94.5 -233.5q0 -143 81 -220.5t211 -89.5 q0 -2 -2.5 -13.5t-4 -24.5t-1.5 -23q0 -24 11 -24q2 0 9 0.5t8 0.5q11 0 17.5 -6t6.5 -15q0 -10 -9 -17.5t-24 -7.5q-9 0 -29 4t-30 4q-9 0 -14.5 -7.5t-5.5 -15.5q0 -21 34 -30.5t61 -9.5q48 0 70.5 22.5t22.5 51.5q0 28 -21 46t-54 22l6 41q47 0 101 8q70 12 94 42 q5 7 20 91.5t15 95.5zM784 -95q79 -45 79 -46q0 -8 -102 -13q-55 -4 -126 -4q-75 0 -165 5q-26 -68 -123 -68q-44 0 -84 19t-40 51q2 20 11 34q-121 34 -121 65q0 27 101 38q-99 35 -156.5 115.5t-57.5 204.5q0 170 104.5 257.5t263.5 87.5q59 0 124 -14q33 -7 80.5 -28 t47.5 -42v-204q0 -24 -18.5 -41.5t-45.5 -17.5q-11 0 -46.5 -0.5t-50.5 -0.5q-29 0 -53.5 16t-24.5 49q0 16 -1 24t-9 16.5t-23 8.5q-24 0 -40.5 -30t-16.5 -66q0 -45 25 -64q33 -26 103 -26t133 21q36 12 56 12q32 0 32 -31q0 -9 -2 -15l-35 -185q-4 -21 -54 -44 q79 -4 93 -10l106 -43q10 -4 10 -6q0 -3 -19 -3q-30 0 -94 4t-101 4q-47 0 -79 -3q8 -12 10 -31q29 -8 58 -8q26 0 26 4q0 3 -9 6.5t-9 6.5q0 8 65 8q17 0 48.5 -0.5t43.5 -0.5q65 0 86 -12z" />
<glyph unicode="&#xc8;" horiz-adv-x="593" d="M563 -57q-52 1 -160 1l17 -10q108 1 108 2q0 7 35 7zM664 -111q-21 0 -64 5q-10 1 -52 1h-60l13 -7h123q37 0 40 1zM467 190q-40 2 -49 39h-109v-42q13 0 41.5 -0.5t43.5 -0.5q42 0 73 4zM558 161q1 3 1 8q0 13 -13 13q-10 0 -39 -12l-17 -9q-21 -7 -56 -7h-158v109h135 q27 0 38 -18q4 -22 19 -22q16 0 23 23v142q-3 17 -14 17q-9 0 -29.5 -12.5t-28.5 -13.5q-23 -5 -56 -5q-15 0 -44.5 1.5t-42.5 1.5v99q28 0 83 0.5t83 0.5q40 0 58 -16q12 -8 24 -8q16 0 19 15q0 25 -14 80.5t-31 55.5h-435q-29 0 -29 -18q0 -21 33 -26v-506q-34 -7 -34 -22 q0 -20 30 -24h428q8 0 15.5 7.5t10.5 15.5q8 25 21.5 69t19.5 61zM474 439q-14 4 -30 4q-102 0 -135 -1v-32q6 0 30 -1t38 -1q33 0 42 5q30 25 55 26zM696 -107q22 -1 35.5 -2t31 -4.5t26 -12t8.5 -21.5q0 -7 -30 -7q-440 -2 -441 -2q-28 0 -56 4.5t-28 11.5q0 6 18 9 l-173 98q-87 7 -87 63q0 38 34 51v453q-33 12 -33 50q0 53 61 53h439q22 0 32.5 -12.5t16.5 -36.5q2 -9 9 -33t11.5 -44t4.5 -36q0 -42 -41 -55h-21q12 -17 12 -32v-135q-3 -30 -21 -48q25 9 42 9q47 0 47 -41q0 -9 -3 -21q-7 -27 -22.5 -75.5t-17.5 -55.5q-6 -18 -18 -32 q27 -1 49 -8q15 -5 45 -14t45 -14q15 -6 15 -9q0 -6 -42 -6q-6 0 -19 0.5t-20 0.5q28 -4 40 -9l51 -31q2 -1 2 -3t-2 -3zM393 637v27l-193 37v-64h193zM427 604h-262v137l262 -50v-87z" />
<glyph unicode="&#xc9;" horiz-adv-x="593" d="M563 -57q-52 1 -160 1l17 -10q108 1 108 2q0 7 35 7zM664 -111q-21 0 -64 5q-10 1 -52 1h-60l13 -7h123q37 0 40 1zM467 190q-40 2 -49 39h-109v-42q13 0 41.5 -0.5t43.5 -0.5q42 0 73 4zM558 161q1 3 1 8q0 13 -13 13q-10 0 -39 -12l-17 -9q-21 -7 -56 -7h-158v109h135 q27 0 38 -18q4 -22 19 -22q16 0 23 23v142q-3 17 -14 17q-9 0 -29.5 -12.5t-28.5 -13.5q-23 -5 -56 -5q-15 0 -44.5 1.5t-42.5 1.5v99q28 0 83 0.5t83 0.5q40 0 58 -16q12 -8 24 -8q16 0 19 15q0 25 -14 80.5t-31 55.5h-435q-29 0 -29 -18q0 -21 33 -26v-506q-34 -7 -34 -22 q0 -20 30 -24h428q8 0 15.5 7.5t10.5 15.5q8 25 21.5 69t19.5 61zM474 439q-14 4 -30 4q-102 0 -135 -1v-32q6 0 30 -1t38 -1q33 0 42 5q30 25 55 26zM696 -107q22 -1 35.5 -2t31 -4.5t26 -12t8.5 -21.5q0 -7 -30 -7q-440 -2 -441 -2q-28 0 -56 4.5t-28 11.5q0 6 18 9 l-173 98q-87 7 -87 63q0 38 34 51v453q-33 12 -33 50q0 53 61 53h439q22 0 32.5 -12.5t16.5 -36.5q2 -9 9 -33t11.5 -44t4.5 -36q0 -42 -41 -55h-21q12 -17 12 -32v-135q-3 -30 -21 -48q25 9 42 9q47 0 47 -41q0 -9 -3 -21q-7 -27 -22.5 -75.5t-17.5 -55.5q-6 -18 -18 -32 q27 -1 49 -8q15 -5 45 -14t45 -14q15 -6 15 -9q0 -6 -42 -6q-6 0 -19 0.5t-20 0.5q28 -4 40 -9l51 -31q2 -1 2 -3t-2 -3zM393 638v64l-193 -37v-27h193zM427 605h-261v87l261 50v-137z" />
<glyph unicode="&#xca;" horiz-adv-x="593" d="M563 -57q-52 1 -160 1l17 -10q108 1 108 2q0 7 35 7zM664 -111q-21 0 -64 5q-10 1 -52 1h-60l13 -7h123q37 0 40 1zM467 190q-40 2 -49 39h-109v-42q13 0 41.5 -0.5t43.5 -0.5q42 0 73 4zM558 161q1 3 1 8q0 13 -13 13q-10 0 -39 -12l-17 -9q-21 -7 -56 -7h-158v109h135 q27 0 38 -18q4 -22 19 -22q16 0 23 23v142q-3 17 -14 17q-9 0 -29.5 -12.5t-28.5 -13.5q-23 -5 -56 -5q-15 0 -44.5 1.5t-42.5 1.5v99q28 0 83 0.5t83 0.5q40 0 58 -16q12 -8 24 -8q16 0 19 15q0 25 -14 80.5t-31 55.5h-435q-29 0 -29 -18q0 -21 33 -26v-506q-34 -7 -34 -22 q0 -20 30 -24h428q8 0 15.5 7.5t10.5 15.5q8 25 21.5 69t19.5 61zM474 439q-14 4 -30 4q-102 0 -135 -1v-32q6 0 30 -1t38 -1q33 0 42 5q30 25 55 26zM696 -107q22 -1 35.5 -2t31 -4.5t26 -12t8.5 -21.5q0 -7 -30 -7q-440 -2 -441 -2q-28 0 -56 4.5t-28 11.5q0 6 18 9 l-173 98q-87 7 -87 63q0 38 34 51v453q-33 12 -33 50q0 53 61 53h439q22 0 32.5 -12.5t16.5 -36.5q2 -9 9 -33t11.5 -44t4.5 -36q0 -42 -41 -55h-21q12 -17 12 -32v-135q-3 -30 -21 -48q25 9 42 9q47 0 47 -41q0 -9 -3 -21q-7 -27 -22.5 -75.5t-17.5 -55.5q-6 -18 -18 -32 q27 -1 49 -8q15 -5 45 -14t45 -14q15 -6 15 -9q0 -6 -42 -6q-6 0 -19 0.5t-20 0.5q28 -4 40 -9l51 -31q2 -1 2 -3t-2 -3zM413 638l-117 95l-117 -95h79l38 29l39 -29h78zM494 605h-170l-28 21l-28 -21h-170l198 175z" />
<glyph unicode="&#xcb;" horiz-adv-x="593" d="M563 -57q-52 1 -160 1l17 -10q108 1 108 2q0 7 35 7zM664 -111q-21 0 -64 5q-10 1 -52 1h-60l13 -7h123q37 0 40 1zM467 190q-40 2 -49 39h-109v-42q13 0 41.5 -0.5t43.5 -0.5q42 0 73 4zM558 161q1 3 1 8q0 13 -13 13q-10 0 -39 -12l-17 -9q-21 -7 -56 -7h-158v109h135 q27 0 38 -18q4 -22 19 -22q16 0 23 23v142q-3 17 -14 17q-9 0 -29.5 -12.5t-28.5 -13.5q-23 -5 -56 -5q-15 0 -44.5 1.5t-42.5 1.5v99q28 0 83 0.5t83 0.5q40 0 58 -16q12 -8 24 -8q16 0 19 15q0 25 -14 80.5t-31 55.5h-435q-29 0 -29 -18q0 -21 33 -26v-506q-34 -7 -34 -22 q0 -20 30 -24h428q8 0 15.5 7.5t10.5 15.5q8 25 21.5 69t19.5 61zM474 439q-14 4 -30 4q-102 0 -135 -1v-32q6 0 30 -1t38 -1q33 0 42 5q30 25 55 26zM696 -107q22 -1 35.5 -2t31 -4.5t26 -12t8.5 -21.5q0 -7 -30 -7q-440 -2 -441 -2q-28 0 -56 4.5t-28 11.5q0 6 18 9 l-173 98q-87 7 -87 63q0 38 34 51v453q-33 12 -33 50q0 53 61 53h439q22 0 32.5 -12.5t16.5 -36.5q2 -9 9 -33t11.5 -44t4.5 -36q0 -42 -41 -55h-21q12 -17 12 -32v-135q-3 -30 -21 -48q25 9 42 9q47 0 47 -41q0 -9 -3 -21q-7 -27 -22.5 -75.5t-17.5 -55.5q-6 -18 -18 -32 q27 -1 49 -8q15 -5 45 -14t45 -14q15 -6 15 -9q0 -6 -42 -6q-6 0 -19 0.5t-20 0.5q28 -4 40 -9l51 -31q2 -1 2 -3t-2 -3zM280 681q0 15 -10.5 25.5t-25.5 10.5t-26 -10.5t-11 -25.5q0 -16 11 -27t26 -11t25.5 11t10.5 27zM385 681q0 15 -10.5 25.5t-25.5 10.5t-25.5 -10.5 t-10.5 -25.5q0 -16 10.5 -27t25.5 -11t25.5 11t10.5 27zM419 681q0 -30 -20.5 -50.5t-49.5 -20.5q-32 0 -54 24q-19 -24 -51 -24q-29 0 -50 20.5t-21 50.5q0 28 21 48.5t50 20.5q31 0 51 -23q23 23 54 23q29 0 49.5 -20.5t20.5 -48.5z" />
<glyph unicode="&#xcc;" horiz-adv-x="354" d="M298 51q-6 0 -11 5.5t-5 11.5v477q0 7 5 12.5t11 5.5q23 0 23 18q0 9 -9 16t-26 7h-218q-17 0 -26 -7t-9 -16q0 -18 23 -18q6 0 11.5 -5.5t5.5 -12.5v-477q0 -6 -5.5 -11.5t-11.5 -5.5q-23 0 -23 -19q0 -10 9 -17t26 -7h218q17 0 26 7t9 17q0 7 -6 13t-17 6zM554 -156 h-219q-25 0 -47 3t-34.5 7t-12.5 8t25 7l-171 98q-95 7 -95 66q0 38 40 49v449q-40 11 -40 48q0 23 18.5 40.5t49.5 17.5h218q31 0 50 -17.5t19 -40.5q0 -36 -41 -48v-449q41 -12 41 -48q0 -27 -24 -45q65 -5 65 -15q0 -6 -26 -7l172 -98q62 -5 62 -15t-50 -10zM274 637v27 l-193 37v-64h193zM308 604h-262v137l262 -50v-87z" />
<glyph unicode="&#xcd;" horiz-adv-x="354" d="M298 51q-6 0 -11 5.5t-5 11.5v477q0 7 5 12.5t11 5.5q23 0 23 18q0 9 -9 16t-26 7h-218q-17 0 -26 -7t-9 -16q0 -18 23 -18q6 0 11.5 -5.5t5.5 -12.5v-477q0 -6 -5.5 -11.5t-11.5 -5.5q-23 0 -23 -19q0 -10 9 -17t26 -7h218q17 0 26 7t9 17q0 7 -6 13t-17 6zM554 -156 h-219q-25 0 -47 3t-34.5 7t-12.5 8t25 7l-171 98q-95 7 -95 66q0 38 40 49v449q-40 11 -40 48q0 23 18.5 40.5t49.5 17.5h218q31 0 50 -17.5t19 -40.5q0 -36 -41 -48v-449q41 -12 41 -48q0 -27 -24 -45q65 -5 65 -15q0 -6 -26 -7l172 -98q62 -5 62 -15t-50 -10zM273 638v64 l-193 -37v-27h193zM307 605h-261v87l261 50v-137z" />
<glyph unicode="&#xce;" horiz-adv-x="354" d="M298 51q-6 0 -11 5.5t-5 11.5v477q0 7 5 12.5t11 5.5q23 0 23 18q0 9 -9 16t-26 7h-218q-17 0 -26 -7t-9 -16q0 -18 23 -18q6 0 11.5 -5.5t5.5 -12.5v-477q0 -6 -5.5 -11.5t-11.5 -5.5q-23 0 -23 -19q0 -10 9 -17t26 -7h218q17 0 26 7t9 17q0 7 -6 13t-17 6zM554 -156 h-219q-25 0 -47 3t-34.5 7t-12.5 8t25 7l-171 98q-95 7 -95 66q0 38 40 49v449q-40 11 -40 48q0 23 18.5 40.5t49.5 17.5h218q31 0 50 -17.5t19 -40.5q0 -36 -41 -48v-449q41 -12 41 -48q0 -27 -24 -45q65 -5 65 -15q0 -6 -26 -7l172 -98q62 -5 62 -15t-50 -10zM294 638 l-117 95l-117 -95h79l38 29l39 -29h78zM375 605h-170l-28 21l-28 -21h-170l198 175z" />
<glyph unicode="&#xcf;" horiz-adv-x="354" d="M298 51q-6 0 -11 5.5t-5 11.5v477q0 7 5 12.5t11 5.5q23 0 23 18q0 9 -9 16t-26 7h-218q-17 0 -26 -7t-9 -16q0 -18 23 -18q6 0 11.5 -5.5t5.5 -12.5v-477q0 -6 -5.5 -11.5t-11.5 -5.5q-23 0 -23 -19q0 -10 9 -17t26 -7h218q17 0 26 7t9 17q0 7 -6 13t-17 6zM554 -156 h-219q-25 0 -47 3t-34.5 7t-12.5 8t25 7l-171 98q-95 7 -95 66q0 38 40 49v449q-40 11 -40 48q0 23 18.5 40.5t49.5 17.5h218q31 0 50 -17.5t19 -40.5q0 -36 -41 -48v-449q41 -12 41 -48q0 -27 -24 -45q65 -5 65 -15q0 -6 -26 -7l172 -98q62 -5 62 -15t-50 -10zM161 681 q0 15 -10.5 25.5t-25.5 10.5t-26 -10.5t-11 -25.5q0 -16 11 -27t26 -11t25.5 11t10.5 27zM266 681q0 15 -10.5 25.5t-25.5 10.5t-25.5 -10.5t-10.5 -25.5q0 -16 10.5 -27t25.5 -11t25.5 11t10.5 27zM300 681q0 -30 -20.5 -50.5t-49.5 -20.5q-32 0 -54 24q-19 -24 -51 -24 q-29 0 -50 20.5t-21 50.5q0 28 21 48.5t50 20.5q31 0 51 -23q23 23 54 23q29 0 49.5 -20.5t20.5 -48.5z" />
<glyph unicode="&#xd0;" horiz-adv-x="702" d="M411 253q0 -6 -5 -11.5t-12 -5.5h-52v-27q34 0 51 15q33 30 33 82q0 40 -22 68.5t-62 29.5v-85h52q7 0 12 -5.5t5 -11.5v-49zM377 270v16h-68v151h47q48 0 75 -38t27 -90t-26.5 -92t-76.5 -41h-46v94h68zM552 -91q0 -5 -13 -5h-32l18 -10q56 0 56 12q0 14 -48.5 23 t-81.5 9l19 -12h47q17 0 21 -4zM649 418q-33 90 -110 138t-175 48h-268q-36 0 -36 -20q0 -21 40 -23v-275h-66v-16h66v-217q-18 -3 -29 -11.5t-11 -17.5q0 -20 36 -20h178q69 0 113 4.5t96 19.5t90 49.5t64 89.5q30 63 30 139q0 61 -18 112zM726 -42q148 -36 148 -73 q0 -21 -64.5 -32.5t-170.5 -11.5h-269q-23 0 -46 3t-36.5 6.5t-13.5 7.5t26 7l-69 39h-69q-17 0 -22 5l-13 14q0 3 13 3h53l-70 41q-100 8 -100 64q0 37 44 51v154h-51q-6 0 -11 5.5t-5 11.5v49q0 6 5 11.5t11 5.5h51v212q-41 14 -41 48q0 23 19.5 40.5t49.5 17.5h270 q118 0 208 -63.5t117 -176.5q11 -46 11 -90q0 -103 -49 -183q-66 -104 -182 -136q149 -5 256 -30z" />
<glyph unicode="&#xd1;" horiz-adv-x="727" d="M417 -12q-20 15 -33 38l-110 184v-128q36 -12 36 -47q0 -28 -25 -47q67 -10 67 -17q0 -3 -17 -4l51 -29l14 42q5 5 17 8zM675 51q-7 0 -12 5.5t-5 11.5v477q0 7 5 12.5t12 5.5q15 0 15 14q0 10 -8 18.5t-19 8.5h-182q-14 0 -22.5 -7.5t-8.5 -17.5q0 -16 19 -16 q6 0 11.5 -5.5t5.5 -12.5v-212q0 -16 -18 -16q-9 0 -13 7l-149 255q-15 25 -61 25h-188q-10 0 -17 -8t-7 -17q0 -16 20 -16q6 0 11 -5.5t5 -12.5v-477q0 -6 -5 -11.5t-11 -5.5q-20 0 -20 -18q0 -9 8.5 -17t22.5 -8h181q15 0 23.5 8t8.5 18q0 17 -19 17q-7 0 -12 5.5t-5 11.5 v204q0 6 5.5 10.5t11.5 4.5q9 0 14 -8l140 -237q22 -34 43 -34h216q22 0 22 22q0 21 -18 21zM936 -156h-181q-23 0 -45 3t-34 7t-12 8q0 6 22 7l-53 30l-41 -45q-9 -10 -73 -10h-196q-24 0 -49 6.5t-25 12.5q0 5 20 6l-172 98q-54 7 -75.5 21.5t-21.5 47.5q0 34 34 46v449 q-33 11 -33 46q0 23 14.5 41.5t34.5 18.5h195q65 0 89 -42l119 -201v137q-37 12 -37 46q0 23 18 41.5t47 18.5h182q26 0 43 -19t17 -43q0 -34 -32 -44v-449q35 -12 35 -50q0 -27 -20 -44q62 -10 62 -17q0 -3 -14 -4l170 -98q53 -3 53 -15q0 -10 -41 -10zM504 719 q-40 -20 -66 -20q-25 0 -65.5 23.5t-73.5 23.5q-30 0 -68 -18l-8 -50q40 20 68 20q22 0 66.5 -23t73.5 -23q30 0 64 17zM547 778l-20 -132q-62 -28 -96 -28q-27 0 -73.5 22.5t-69.5 22.5q-13 0 -27 -4.5t-23.5 -9t-28.5 -15t-29 -15.5l20 132q61 27 98 27q16 0 39 -5 q13 -3 49 -20.5t55 -17.5q16 0 32 5.5t41.5 20t32.5 17.5z" />
<glyph unicode="&#xd2;" horiz-adv-x="688" d="M345 195q28 0 43.5 33t15.5 78t-15.5 78t-43.5 33t-44 -33t-16 -78t16 -78t44 -33zM345 163q-44 0 -68.5 42.5t-24.5 100.5t24.5 100.5t68.5 42.5q43 0 67.5 -42.5t24.5 -100.5t-24.5 -100.5t-67.5 -42.5zM527 -112q31 0 31 9q0 11 -38 25t-78 14q-31 0 -31 -9 q0 -11 38 -25t78 -14zM656 306q0 138 -87 224t-224 86q-138 0 -225 -86t-87 -224t87 -224t225 -86q137 0 224 86t87 224zM828 -88q29 -17 29 -30q0 -21 -64 -33.5t-178 -12.5q-152 0 -284.5 21t-190.5 55q-28 16 -28 30q0 29 110 40q-102 34 -162 120t-60 204 q0 151 96.5 247t248.5 96q151 0 247.5 -96t96.5 -247q0 -116 -58.5 -201.5t-157.5 -120.5q255 -15 355 -72zM441 651v27l-193 37v-64h193zM475 618h-262v137l262 -50v-87z" />
<glyph unicode="&#xd3;" horiz-adv-x="688" d="M345 195q28 0 43.5 33t15.5 78t-15.5 78t-43.5 33t-44 -33t-16 -78t16 -78t44 -33zM345 163q-44 0 -68.5 42.5t-24.5 100.5t24.5 100.5t68.5 42.5q43 0 67.5 -42.5t24.5 -100.5t-24.5 -100.5t-67.5 -42.5zM527 -112q31 0 31 9q0 11 -38 25t-78 14q-31 0 -31 -9 q0 -11 38 -25t78 -14zM656 306q0 138 -87 224t-224 86q-138 0 -225 -86t-87 -224t87 -224t225 -86q137 0 224 86t87 224zM828 -88q29 -17 29 -30q0 -21 -64 -33.5t-178 -12.5q-152 0 -284.5 21t-190.5 55q-28 16 -28 30q0 29 110 40q-102 34 -162 120t-60 204 q0 151 96.5 247t248.5 96q151 0 247.5 -96t96.5 -247q0 -116 -58.5 -201.5t-157.5 -120.5q255 -15 355 -72zM440 651v64l-193 -37v-27h193zM474 618h-261v87l261 50v-137z" />
<glyph unicode="&#xd4;" horiz-adv-x="688" d="M345 195q28 0 43.5 33t15.5 78t-15.5 78t-43.5 33t-44 -33t-16 -78t16 -78t44 -33zM345 163q-44 0 -68.5 42.5t-24.5 100.5t24.5 100.5t68.5 42.5q43 0 67.5 -42.5t24.5 -100.5t-24.5 -100.5t-67.5 -42.5zM527 -112q31 0 31 9q0 11 -38 25t-78 14q-31 0 -31 -9 q0 -11 38 -25t78 -14zM656 306q0 138 -87 224t-224 86q-138 0 -225 -86t-87 -224t87 -224t225 -86q137 0 224 86t87 224zM828 -88q29 -17 29 -30q0 -21 -64 -33.5t-178 -12.5q-152 0 -284.5 21t-190.5 55q-28 16 -28 30q0 29 110 40q-102 34 -162 120t-60 204 q0 151 96.5 247t248.5 96q151 0 247.5 -96t96.5 -247q0 -116 -58.5 -201.5t-157.5 -120.5q255 -15 355 -72zM461 651l-117 95l-117 -95h79l38 29l39 -29h78zM542 618h-170l-28 21l-28 -21h-170l198 175z" />
<glyph unicode="&#xd5;" horiz-adv-x="688" d="M345 195q28 0 43.5 33t15.5 78t-15.5 78t-43.5 33t-44 -33t-16 -78t16 -78t44 -33zM345 163q-44 0 -68.5 42.5t-24.5 100.5t24.5 100.5t68.5 42.5q43 0 67.5 -42.5t24.5 -100.5t-24.5 -100.5t-67.5 -42.5zM527 -112q31 0 31 9q0 11 -38 25t-78 14q-31 0 -31 -9 q0 -11 38 -25t78 -14zM656 306q0 138 -87 224t-224 86q-138 0 -225 -86t-87 -224t87 -224t225 -86q137 0 224 86t87 224zM828 -88q29 -17 29 -30q0 -21 -64 -33.5t-178 -12.5q-152 0 -284.5 21t-190.5 55q-28 16 -28 30q0 29 110 40q-102 34 -162 120t-60 204 q0 151 96.5 247t248.5 96q151 0 247.5 -96t96.5 -247q0 -116 -58.5 -201.5t-157.5 -120.5q255 -15 355 -72zM484 719q-40 -20 -66 -20q-25 0 -65.5 23.5t-73.5 23.5q-31 0 -68 -18l-8 -50q40 20 68 20q22 0 66.5 -23t73.5 -23q30 0 64 17zM527 778l-20 -132q-62 -28 -96 -28 q-27 0 -73.5 22.5t-69.5 22.5q-13 0 -27 -4.5t-23.5 -9t-28.5 -15t-29 -15.5l20 132q61 27 98 27q16 0 39 -5q13 -3 49 -20.5t55 -17.5q16 0 32 5.5t41.5 20t32.5 17.5z" />
<glyph unicode="&#xd6;" horiz-adv-x="688" d="M345 195q28 0 43.5 33t15.5 78t-15.5 78t-43.5 33t-44 -33t-16 -78t16 -78t44 -33zM345 163q-44 0 -68.5 42.5t-24.5 100.5t24.5 100.5t68.5 42.5q43 0 67.5 -42.5t24.5 -100.5t-24.5 -100.5t-67.5 -42.5zM527 -112q31 0 31 9q0 11 -38 25t-78 14q-31 0 -31 -9 q0 -11 38 -25t78 -14zM656 306q0 138 -87 224t-224 86q-138 0 -225 -86t-87 -224t87 -224t225 -86q137 0 224 86t87 224zM828 -88q29 -17 29 -30q0 -21 -64 -33.5t-178 -12.5q-152 0 -284.5 21t-190.5 55q-28 16 -28 30q0 29 110 40q-102 34 -162 120t-60 204 q0 151 96.5 247t248.5 96q151 0 247.5 -96t96.5 -247q0 -116 -58.5 -201.5t-157.5 -120.5q255 -15 355 -72zM328 691q0 15 -10.5 25.5t-25.5 10.5t-26 -10.5t-11 -25.5q0 -16 11 -27t26 -11t25.5 11t10.5 27zM433 691q0 15 -10.5 25.5t-25.5 10.5t-25.5 -10.5t-10.5 -25.5 q0 -16 10.5 -27t25.5 -11t25.5 11t10.5 27zM467 691q0 -30 -20.5 -50.5t-49.5 -20.5q-32 0 -54 24q-19 -24 -51 -24q-29 0 -50 20.5t-21 50.5q0 28 21 48.5t50 20.5q31 0 51 -23q23 23 54 23q29 0 49.5 -20.5t20.5 -48.5z" />
<glyph unicode="&#xd7;" horiz-adv-x="415" d="M6 408l99 99q4 4 11 4q9 0 15 -6l77 -76l77 78q7 5 12 5t14 -7l100 -99q4 -8 4 -11q0 -5 -6 -13.5t-17 -19.5l-20.5 -20.5t-22.5 -21t-17 -15.5q4 -4 17 -15.5t22.5 -21l20.5 -20.5t17 -19.5t6 -13.5q0 -3 -4 -11l-100 -99q-7 -7 -14 -7q-5 0 -13.5 6t-19.5 16.5t-20 20 t-20.5 22.5t-15.5 17l-77 -75q-7 -7 -14 -7q-5 0 -12 5l-99 99q-5 5 -5 13t13.5 23.5t39.5 39.5t29 27q-5 4 -17.5 16t-22 21t-20 20t-16.5 19.5t-6 13.5q0 7 5 13zM196 391l-79 78q-8 -8 -23 -23.5t-27.5 -27.5t-23.5 -23q4 -4 17 -15.5t22.5 -21l20.5 -20.5t17 -19.5 t6 -13.5t-6 -13.5t-17 -19.5l-20.5 -20.5t-22.5 -21t-17 -15.5l74 -74l79 77q7 5 12 5t14 -7l75 -75l74 74l-76 77q-5 5 -5 13q0 7 5 13l76 77l-74 74l-75 -76q-7 -7 -14 -7q-5 0 -12 5z" />
<glyph unicode="&#xd8;" horiz-adv-x="727" d="M441 305l-59 -101q23 1 39.5 30t19.5 71zM377 427q-22 -3 -38 -30t-19 -67zM472 316q0 -61 -26.5 -102.5t-66.5 -41.5q-25 0 -44 16l121 211q16 -37 16 -83zM424 444l-122 -210q-15 42 -15 82q0 61 25.5 103t66.5 42q25 0 45 -17zM691 316q0 82 -34.5 150.5t-97.5 109.5 l68 117l-44 26l-70 -119q-61 24 -134 24q-144 0 -227.5 -88t-83.5 -220q0 -83 34 -151t97 -109l-67 -117l45 -25l68 118q61 -25 134 -25q145 0 228.5 88t83.5 221zM758 -160l-86 -13l-100 29q-45 -4 -116 -4q-24 0 -84 4t-143.5 13.5t-144.5 29.5t-61 47q0 26 74 43l-97 27 l88 13l50 -14l19 32q-59 49 -91.5 118.5t-32.5 149.5q0 147 93.5 244.5t252.5 97.5q68 0 120 -17l72 124l101 -59l-70 -118q124 -98 124 -272q0 -111 -59.5 -198t-161.5 -123q54 -10 85.5 -16.5t70 -17t56.5 -23.5t18 -28q0 -26 -72 -41z" />
<glyph unicode="&#xd9;" horiz-adv-x="669" d="M620 -128l-133 76q-7 4 -39 4h-5q-5 1 -9 1q-11 0 -11 -4q0 -1 135 -77q28 -4 41 -7q4 4 21 7zM611 562q24 0 24 19q0 9 -9 16t-26 7h-177q-17 0 -26 -7t-9 -16q0 -19 23 -19q6 -1 11.5 -6t5.5 -11v-328q0 -23 -19 -36t-46 -13q-26 0 -45 13t-19 36v328q0 6 5 11t10 6 q24 0 24 19q0 9 -8.5 16t-25.5 7h-235q-17 0 -26 -7t-9 -16q0 -19 23 -19q7 -1 12 -6t5 -11v-379q0 -43 27 -77.5t68 -53.5t84 -29t81 -10q39 0 82 10t84 29t68 53.5t27 77.5v379q0 6 5 11t11 6zM394 217v313q-20 6 -30 25q-15 -20 -32 -25v-313q0 -17 30 -17q32 0 32 17z M872 -155h-178q-49 0 -71 7q-4 -7 -48 -7h-235q-25 0 -48.5 3t-36.5 7.5t-13 8.5q0 5 24 8l-155 89q-14 7 -14 15q0 15 66 25q-124 58 -124 165v364q-39 14 -39 49q0 23 19 40.5t50 17.5h235q40 0 60 -27q16 27 59 27h177q31 0 49.5 -17.5t18.5 -40.5q0 -36 -40 -49v-364 q0 -55 -33.5 -97t-88.5 -68q145 -14 192 -40l157 -89q64 -5 64 -17q0 -10 -47 -10zM431 637v27l-193 37v-64h193zM465 604h-262v137l262 -50v-87z" />
<glyph unicode="&#xda;" horiz-adv-x="669" d="M620 -128l-133 76q-7 4 -39 4h-5q-5 1 -9 1q-11 0 -11 -4q0 -1 135 -77q28 -4 41 -7q4 4 21 7zM611 562q24 0 24 19q0 9 -9 16t-26 7h-177q-17 0 -26 -7t-9 -16q0 -19 23 -19q6 -1 11.5 -6t5.5 -11v-328q0 -23 -19 -36t-46 -13q-26 0 -45 13t-19 36v328q0 6 5 11t10 6 q24 0 24 19q0 9 -8.5 16t-25.5 7h-235q-17 0 -26 -7t-9 -16q0 -19 23 -19q7 -1 12 -6t5 -11v-379q0 -43 27 -77.5t68 -53.5t84 -29t81 -10q39 0 82 10t84 29t68 53.5t27 77.5v379q0 6 5 11t11 6zM394 217v313q-20 6 -30 25q-15 -20 -32 -25v-313q0 -17 30 -17q32 0 32 17z M872 -155h-178q-49 0 -71 7q-4 -7 -48 -7h-235q-25 0 -48.5 3t-36.5 7.5t-13 8.5q0 5 24 8l-155 89q-14 7 -14 15q0 15 66 25q-124 58 -124 165v364q-39 14 -39 49q0 23 19 40.5t50 17.5h235q40 0 60 -27q16 27 59 27h177q31 0 49.5 -17.5t18.5 -40.5q0 -36 -40 -49v-364 q0 -55 -33.5 -97t-88.5 -68q145 -14 192 -40l157 -89q64 -5 64 -17q0 -10 -47 -10zM431 638v64l-193 -37v-27h193zM465 605h-261v87l261 50v-137z" />
<glyph unicode="&#xdb;" horiz-adv-x="669" d="M620 -128l-133 76q-7 4 -39 4h-5q-5 1 -9 1q-11 0 -11 -4q0 -1 135 -77q28 -4 41 -7q4 4 21 7zM611 562q24 0 24 19q0 9 -9 16t-26 7h-177q-17 0 -26 -7t-9 -16q0 -19 23 -19q6 -1 11.5 -6t5.5 -11v-328q0 -23 -19 -36t-46 -13q-26 0 -45 13t-19 36v328q0 6 5 11t10 6 q24 0 24 19q0 9 -8.5 16t-25.5 7h-235q-17 0 -26 -7t-9 -16q0 -19 23 -19q7 -1 12 -6t5 -11v-379q0 -43 27 -77.5t68 -53.5t84 -29t81 -10q39 0 82 10t84 29t68 53.5t27 77.5v379q0 6 5 11t11 6zM394 217v313q-20 6 -30 25q-15 -20 -32 -25v-313q0 -17 30 -17q32 0 32 17z M872 -155h-178q-49 0 -71 7q-4 -7 -48 -7h-235q-25 0 -48.5 3t-36.5 7.5t-13 8.5q0 5 24 8l-155 89q-14 7 -14 15q0 15 66 25q-124 58 -124 165v364q-39 14 -39 49q0 23 19 40.5t50 17.5h235q40 0 60 -27q16 27 59 27h177q31 0 49.5 -17.5t18.5 -40.5q0 -36 -40 -49v-364 q0 -55 -33.5 -97t-88.5 -68q145 -14 192 -40l157 -89q64 -5 64 -17q0 -10 -47 -10zM480 638l-117 95l-117 -95h79l38 29l39 -29h78zM561 605h-170l-28 21l-28 -21h-170l198 175z" />
<glyph unicode="&#xdc;" horiz-adv-x="669" d="M620 -128l-133 76q-7 4 -39 4h-5q-5 1 -9 1q-11 0 -11 -4q0 -1 135 -77q28 -4 41 -7q4 4 21 7zM611 562q24 0 24 19q0 9 -9 16t-26 7h-177q-17 0 -26 -7t-9 -16q0 -19 23 -19q6 -1 11.5 -6t5.5 -11v-328q0 -23 -19 -36t-46 -13q-26 0 -45 13t-19 36v328q0 6 5 11t10 6 q24 0 24 19q0 9 -8.5 16t-25.5 7h-235q-17 0 -26 -7t-9 -16q0 -19 23 -19q7 -1 12 -6t5 -11v-379q0 -43 27 -77.5t68 -53.5t84 -29t81 -10q39 0 82 10t84 29t68 53.5t27 77.5v379q0 6 5 11t11 6zM394 217v313q-20 6 -30 25q-15 -20 -32 -25v-313q0 -17 30 -17q32 0 32 17z M872 -155h-178q-49 0 -71 7q-4 -7 -48 -7h-235q-25 0 -48.5 3t-36.5 7.5t-13 8.5q0 5 24 8l-155 89q-14 7 -14 15q0 15 66 25q-124 58 -124 165v364q-39 14 -39 49q0 23 19 40.5t50 17.5h235q40 0 60 -27q16 27 59 27h177q31 0 49.5 -17.5t18.5 -40.5q0 -36 -40 -49v-364 q0 -55 -33.5 -97t-88.5 -68q145 -14 192 -40l157 -89q64 -5 64 -17q0 -10 -47 -10zM347 681q0 15 -10.5 25.5t-25.5 10.5t-26 -10.5t-11 -25.5q0 -16 11 -27t26 -11t25.5 11t10.5 27zM452 681q0 15 -10.5 25.5t-25.5 10.5t-25.5 -10.5t-10.5 -25.5q0 -16 10.5 -27t25.5 -11 t25.5 11t10.5 27zM486 681q0 -30 -20.5 -50.5t-49.5 -20.5q-32 0 -54 24q-19 -24 -51 -24q-29 0 -50 20.5t-21 50.5q0 28 21 48.5t50 20.5q31 0 51 -23q23 23 54 23q29 0 49.5 -20.5t20.5 -48.5z" />
<glyph unicode="&#xdd;" horiz-adv-x="682" d="M624 562q24 0 24 19q0 9 -9 16t-26 7h-162q-17 0 -26 -7t-9 -16q0 -19 24 -19q6 0 10.5 -5.5t4.5 -11.5q0 -63 -17 -110.5t-55 -106.5q-4 -7 -14 -7t-14 7q-38 59 -55 106.5t-17 110.5q0 6 4.5 11.5t10.5 5.5q23 0 23 19q0 9 -9 16t-26 7h-218q-17 0 -26 -7t-9 -17 q0 -18 23 -18q6 0 11.5 -5.5t5.5 -11.5q0 -103 38 -173.5t123 -166.5q5 -10 5 -11v-127q0 -5 -5.5 -10.5t-12.5 -5.5q-22 -2 -22 -20q0 -9 9 -16t25 -7h219q17 0 26 7t9 16q0 18 -23 20q-6 0 -11 5.5t-5 10.5v133q0 7 4 11q83 92 120 162t37 172q0 6 5 11.5t10 5.5z M884 -155h-162q-25 0 -48.5 3t-36.5 7.5t-13 8.5q0 5 24 8q-33 16 -123 39q-6 -7 -6 -15q0 -12 22 -24q64 -5 64 -17q0 -10 -47 -10h-218q-26 0 -49 3t-36 7.5t-13 8.5q0 5 24 8q-34 20 -34 37q0 18 52 47l-32 19h-19q-29 0 -49 18.5t-20 41.5q0 34 41 47v106 q-84 95 -123.5 168t-41.5 174q-40 11 -40 49q0 23 18.5 40.5t49.5 17.5h218q31 0 50 -17.5t19 -40.5q0 -36 -40 -49q3 -81 53 -162q52 81 53 162q-39 14 -39 49q0 23 19 40.5t50 17.5h162q31 0 49.5 -18t18.5 -41q0 -36 -39 -48q-2 -100 -40.5 -172.5t-120.5 -163.5v-112 q40 -13 40 -49q0 -16 -11 -32q29 -5 29 -12q0 -6 -25 -7l49 -27q124 -24 192 -41.5t113 -41.5q64 -5 64 -17q0 -10 -48 -10zM437 638v64l-193 -37v-27h193zM471 605h-261v87l261 50v-137z" />
<glyph unicode="&#xde;" horiz-adv-x="639" d="M335 274q22 0 34 15t12 35t-12 35t-34 15h-22v-100h22zM335 240h-38q-6 0 -11.5 5t-5.5 12v132q0 7 5.5 12t11.5 5h38q37 0 58 -24.5t21 -58.5q0 -33 -21 -58t-58 -25zM500 -94q30 0 30 7q0 3 -9 6.5t-25.5 6.5t-34.5 3h-22l39 -23h22zM606 323q0 104 -56.5 156 t-161.5 52h-52q-39 0 -41 23v16q0 18 -5.5 26t-26.5 8h-196q-15 0 -24 -7.5t-9 -16.5q0 -18 21 -18q6 -1 11 -6t5 -12v-477q0 -6 -5 -11t-11 -5q-21 0 -21 -19q0 -9 9 -16.5t24 -7.5h218q15 0 24 7.5t9 16.5q0 19 -21 19q-7 0 -12 5t-5 11v32q0 5 5.5 10.5t11.5 5.5 q38 0 59 0.5t55 3t53.5 8t45.5 15t40.5 25t29 36.5t20.5 51.5t6 68.5zM789 -123q-41 -14 -212 -14h-9q8 -5 8 -9q0 -8 -46 -8h-197q-23 0 -45 3t-34.5 7t-12.5 8q0 6 23 7l-176 101q-88 8 -88 58q0 38 39 52v448q-39 12 -39 48q0 23 18.5 41t48.5 18h196q35 0 49 -18.5 t15 -53.5h28q50 0 81 -2.5t70.5 -17t68.5 -42.5q65 -62 65 -179t-65 -180q-41 -39 -93 -50.5t-127 -11.5h-42q17 -5 27.5 -19.5t10.5 -33.5q0 -23 -15 -34q18 -3 31 -6q19 -5 19 -10q-1 -2 -5.5 -3.5t-10 -2.5t-6.5 -1q199 0 286 -14q68 -11 113 -30t45 -35q0 -10 -19 -16z " />
<glyph unicode="&#xdf;" horiz-adv-x="627" d="M527 -117q19 0 19 3t-16.5 7t-29.5 4l-52 31q0 2 24 2q19 0 19 4q0 2 -6 4.5t-16.5 4t-22.5 1.5q-2 0 -8 -0.5t-8 -0.5q-9 0 -16 4l-39 23q-18 0 -27 2q2 -2 4 -2l141 -82q8 -5 34 -5zM359 420q0 11 -8 18.5t-19 7.5q-9 0 -17 -7t-8 -17v-388q0 -33 -10 -45q25 -4 36 -9 q-3 6 -3 9v172q0 7 5.5 11.5t12.5 4.5q1 0 4 -0.5t6 -0.5q14 0 21.5 9t7.5 21q0 11 -7.5 19t-21.5 8q-2 0 -5.5 -0.5t-4.5 -0.5q-7 0 -12.5 5.5t-5.5 11.5v131q0 8 14.5 18t14.5 22zM387 2q75 0 140.5 46t65.5 120q0 39 -21.5 74.5t-59.5 59.5q-8 5 -8 15q0 7 5 12 q53 46 53 106q0 55 -40 96.5t-94.5 60t-109.5 18.5q-53 0 -107 -19t-96 -63t-42 -102v-364q0 -7 -5 -12.5t-12 -5.5q-23 0 -23 -19q0 -9 9 -16t26 -7h173q20 0 26.5 9t6.5 26v390q0 21 18.5 36.5t39.5 15.5q25 0 42 -17t17 -42q0 -33 -26 -49v-104q27 -4 41.5 -21.5 t14.5 -40.5t-15 -41t-41 -21v-140q7 -1 22 -1zM761 -148q-66 -15 -171 -15q-108 0 -228 16q-94 12 -134 34l-138 79q-24 2 -40.5 5.5t-33 17.5t-16.5 37q0 37 39 50v352q0 66 43.5 116.5t106 74.5t129.5 24q44 0 91 -13t89.5 -37t69.5 -66t27 -93q0 -64 -48 -115 q80 -60 80 -151q0 -117 -138 -181h6q55 0 143 -19t88 -37q0 -11 -35 -20q107 -17 107 -39q0 -13 -37 -20z" />
<glyph unicode="&#xe0;" d="M400 301q-34 125 -42 125q-9 0 -43 -125h85zM440 290v-4q0 -18 -18 -18h-130q-7 0 -11.5 5t-4.5 12q0 1 0.5 2.5t0.5 2.5q2 5 16 57t29.5 82.5t35.5 30.5t35.5 -31t29.5 -81.5t17 -57.5zM488 -36l-4 3q-78 8 -78 71q0 35 34 45v15h-164v-15q34 -9 34 -44q0 -31 -24 -50 q54 -5 54 -16q0 -5 -21 -6l6 -3h163zM532 -108q4 0 4 4q0 8 -10 23h-84q86 -27 90 -27zM696 8q22 0 22 11q0 7 -13 24t-14 21q-29 151 -107 368q0 5 -31 88.5t-40 83.5h-396q-9 0 -20.5 -49.5t-11.5 -68.5q0 -4 1 -4q3 0 27 10t44 10q31 0 31 -15q0 -2 -2 -8 q-35 -81 -79 -238.5t-51 -179.5q-1 -2 -12 -18t-11 -24q0 -11 21 -11h196q11 0 18.5 8t7.5 18q0 17 -14 17q-20 0 -20 35q0 45 20 45h191q20 0 20 -49q0 -15 -8.5 -22.5t-16.5 -12.5t-8 -12q0 -11 8 -19t18 -8h230zM797 -112l-2 -35q0 -9 -47 -9h-376q-56 0 -107 28 q-21 5 -21 10q0 2 9 4q4 1 14 1q11 0 34.5 -2.5t35.5 -2.5l-268 86q-69 12 -69 53q0 32 27 57q10 34 31.5 116t42 148.5t45.5 126.5q-11 0 -30 -10.5t-30 -10.5q-16 0 -25.5 11t-9.5 28q0 39 17.5 94.5t48.5 55.5h376q16 0 24.5 -1t19 -9t16.5 -23q128 -330 170 -527 q28 -28 28 -58q0 -18 -12 -30q35 -5 35 -13q0 -4 -10 -7q24 -30 33 -81zM432 637v27l-193 37v-64h193zM466 604h-262v137l262 -50v-87z" />
<glyph unicode="&#xe1;" d="M400 301q-34 125 -42 125q-9 0 -43 -125h85zM440 290v-4q0 -18 -18 -18h-130q-7 0 -11.5 5t-4.5 12q0 1 0.5 2.5t0.5 2.5q2 5 16 57t29.5 82.5t35.5 30.5t35.5 -31t29.5 -81.5t17 -57.5zM488 -36l-4 3q-78 8 -78 71q0 35 34 45v15h-164v-15q34 -9 34 -44q0 -31 -24 -50 q54 -5 54 -16q0 -5 -21 -6l6 -3h163zM532 -108q4 0 4 4q0 8 -10 23h-84q86 -27 90 -27zM696 8q22 0 22 11q0 7 -13 24t-14 21q-29 151 -107 368q0 5 -31 88.5t-40 83.5h-396q-9 0 -20.5 -49.5t-11.5 -68.5q0 -4 1 -4q3 0 27 10t44 10q31 0 31 -15q0 -2 -2 -8 q-35 -81 -79 -238.5t-51 -179.5q-1 -2 -12 -18t-11 -24q0 -11 21 -11h196q11 0 18.5 8t7.5 18q0 17 -14 17q-20 0 -20 35q0 45 20 45h191q20 0 20 -49q0 -15 -8.5 -22.5t-16.5 -12.5t-8 -12q0 -11 8 -19t18 -8h230zM797 -112l-2 -35q0 -9 -47 -9h-376q-56 0 -107 28 q-21 5 -21 10q0 2 9 4q4 1 14 1q11 0 34.5 -2.5t35.5 -2.5l-268 86q-69 12 -69 53q0 32 27 57q10 34 31.5 116t42 148.5t45.5 126.5q-11 0 -30 -10.5t-30 -10.5q-16 0 -25.5 11t-9.5 28q0 39 17.5 94.5t48.5 55.5h376q16 0 24.5 -1t19 -9t16.5 -23q128 -330 170 -527 q28 -28 28 -58q0 -18 -12 -30q35 -5 35 -13q0 -4 -10 -7q24 -30 33 -81zM443 638v64l-193 -37v-27h193zM477 605h-261v87l261 50v-137z" />
<glyph unicode="&#xe2;" d="M400 301q-34 125 -42 125q-9 0 -43 -125h85zM440 290v-4q0 -18 -18 -18h-130q-7 0 -11.5 5t-4.5 12q0 1 0.5 2.5t0.5 2.5q2 5 16 57t29.5 82.5t35.5 30.5t35.5 -31t29.5 -81.5t17 -57.5zM488 -36l-4 3q-78 8 -78 71q0 35 34 45v15h-164v-15q34 -9 34 -44q0 -31 -24 -50 q54 -5 54 -16q0 -5 -21 -6l6 -3h163zM532 -108q4 0 4 4q0 8 -10 23h-84q86 -27 90 -27zM696 8q22 0 22 11q0 7 -13 24t-14 21q-29 151 -107 368q0 5 -31 88.5t-40 83.5h-396q-9 0 -20.5 -49.5t-11.5 -68.5q0 -4 1 -4q3 0 27 10t44 10q31 0 31 -15q0 -2 -2 -8 q-35 -81 -79 -238.5t-51 -179.5q-1 -2 -12 -18t-11 -24q0 -11 21 -11h196q11 0 18.5 8t7.5 18q0 17 -14 17q-20 0 -20 35q0 45 20 45h191q20 0 20 -49q0 -15 -8.5 -22.5t-16.5 -12.5t-8 -12q0 -11 8 -19t18 -8h230zM797 -112l-2 -35q0 -9 -47 -9h-376q-56 0 -107 28 q-21 5 -21 10q0 2 9 4q4 1 14 1q11 0 34.5 -2.5t35.5 -2.5l-268 86q-69 12 -69 53q0 32 27 57q10 34 31.5 116t42 148.5t45.5 126.5q-11 0 -30 -10.5t-30 -10.5q-16 0 -25.5 11t-9.5 28q0 39 17.5 94.5t48.5 55.5h376q16 0 24.5 -1t19 -9t16.5 -23q128 -330 170 -527 q28 -28 28 -58q0 -18 -12 -30q35 -5 35 -13q0 -4 -10 -7q24 -30 33 -81zM465 638l-117 95l-117 -95h79l38 29l39 -29h78zM546 605h-170l-28 21l-28 -21h-170l198 175z" />
<glyph unicode="&#xe3;" d="M400 301q-34 125 -42 125q-9 0 -43 -125h85zM440 290v-4q0 -18 -18 -18h-130q-7 0 -11.5 5t-4.5 12q0 1 0.5 2.5t0.5 2.5q2 5 16 57t29.5 82.5t35.5 30.5t35.5 -31t29.5 -81.5t17 -57.5zM488 -36l-4 3q-78 8 -78 71q0 35 34 45v15h-164v-15q34 -9 34 -44q0 -31 -24 -50 q54 -5 54 -16q0 -5 -21 -6l6 -3h163zM532 -108q4 0 4 4q0 8 -10 23h-84q86 -27 90 -27zM696 8q22 0 22 11q0 7 -13 24t-14 21q-29 151 -107 368q0 5 -31 88.5t-40 83.5h-396q-9 0 -20.5 -49.5t-11.5 -68.5q0 -4 1 -4q3 0 27 10t44 10q31 0 31 -15q0 -2 -2 -8 q-35 -81 -79 -238.5t-51 -179.5q-1 -2 -12 -18t-11 -24q0 -11 21 -11h196q11 0 18.5 8t7.5 18q0 17 -14 17q-20 0 -20 35q0 45 20 45h191q20 0 20 -49q0 -15 -8.5 -22.5t-16.5 -12.5t-8 -12q0 -11 8 -19t18 -8h230zM797 -112l-2 -35q0 -9 -47 -9h-376q-56 0 -107 28 q-21 5 -21 10q0 2 9 4q4 1 14 1q11 0 34.5 -2.5t35.5 -2.5l-268 86q-69 12 -69 53q0 32 27 57q10 34 31.5 116t42 148.5t45.5 126.5q-11 0 -30 -10.5t-30 -10.5q-16 0 -25.5 11t-9.5 28q0 39 17.5 94.5t48.5 55.5h376q16 0 24.5 -1t19 -9t16.5 -23q128 -330 170 -527 q28 -28 28 -58q0 -18 -12 -30q35 -5 35 -13q0 -4 -10 -7q24 -30 33 -81zM475 719q-40 -20 -66 -20q-25 0 -65.5 23.5t-73.5 23.5q-30 0 -68 -18l-8 -50q40 20 68 20q22 0 66.5 -23t73.5 -23q30 0 64 17zM518 778l-20 -132q-62 -28 -96 -28q-27 0 -73.5 22.5t-69.5 22.5 q-13 0 -27 -4.5t-23.5 -9t-28.5 -15t-29 -15.5l20 132q61 27 98 27q16 0 39 -5q13 -3 49 -20.5t55 -17.5q16 0 32 5.5t41.5 20t32.5 17.5z" />
<glyph unicode="&#xe4;" d="M400 301q-34 125 -42 125q-9 0 -43 -125h85zM440 290v-4q0 -18 -18 -18h-130q-7 0 -11.5 5t-4.5 12q0 1 0.5 2.5t0.5 2.5q2 5 16 57t29.5 82.5t35.5 30.5t35.5 -31t29.5 -81.5t17 -57.5zM488 -36l-4 3q-78 8 -78 71q0 35 34 45v15h-164v-15q34 -9 34 -44q0 -31 -24 -50 q54 -5 54 -16q0 -5 -21 -6l6 -3h163zM532 -108q4 0 4 4q0 8 -10 23h-84q86 -27 90 -27zM696 8q22 0 22 11q0 7 -13 24t-14 21q-29 151 -107 368q0 5 -31 88.5t-40 83.5h-396q-9 0 -20.5 -49.5t-11.5 -68.5q0 -4 1 -4q3 0 27 10t44 10q31 0 31 -15q0 -2 -2 -8 q-35 -81 -79 -238.5t-51 -179.5q-1 -2 -12 -18t-11 -24q0 -11 21 -11h196q11 0 18.5 8t7.5 18q0 17 -14 17q-20 0 -20 35q0 45 20 45h191q20 0 20 -49q0 -15 -8.5 -22.5t-16.5 -12.5t-8 -12q0 -11 8 -19t18 -8h230zM797 -112l-2 -35q0 -9 -47 -9h-376q-56 0 -107 28 q-21 5 -21 10q0 2 9 4q4 1 14 1q11 0 34.5 -2.5t35.5 -2.5l-268 86q-69 12 -69 53q0 32 27 57q10 34 31.5 116t42 148.5t45.5 126.5q-11 0 -30 -10.5t-30 -10.5q-16 0 -25.5 11t-9.5 28q0 39 17.5 94.5t48.5 55.5h376q16 0 24.5 -1t19 -9t16.5 -23q128 -330 170 -527 q28 -28 28 -58q0 -18 -12 -30q35 -5 35 -13q0 -4 -10 -7q24 -30 33 -81zM336 681q0 15 -10.5 25.5t-25.5 10.5t-26 -10.5t-11 -25.5q0 -16 11 -27t26 -11t25.5 11t10.5 27zM441 681q0 15 -10.5 25.5t-25.5 10.5t-25.5 -10.5t-10.5 -25.5q0 -16 10.5 -27t25.5 -11t25.5 11 t10.5 27zM475 681q0 -30 -20.5 -50.5t-49.5 -20.5q-32 0 -54 24q-19 -24 -51 -24q-29 0 -50 20.5t-21 50.5q0 28 21 48.5t50 20.5q31 0 51 -23q23 23 54 23q29 0 49.5 -20.5t20.5 -48.5z" />
<glyph unicode="&#xe5;" d="M400 301q-34 125 -42 125q-9 0 -43 -125h85zM440 290v-4q0 -18 -18 -18h-130q-7 0 -11.5 5t-4.5 12q0 1 0.5 2.5t0.5 2.5q2 5 16 57t29.5 82.5t35.5 30.5t35.5 -31t29.5 -81.5t17 -57.5zM488 -36l-4 3q-78 8 -78 71q0 35 34 45v15h-164v-15q34 -9 34 -44q0 -31 -24 -50 q54 -5 54 -16q0 -5 -21 -6l6 -3h163zM532 -108q4 0 4 4q0 8 -10 23h-84q86 -27 90 -27zM696 8q22 0 22 11q0 7 -13 24t-14 21q-29 151 -107 368q0 5 -31 88.5t-40 83.5h-396q-9 0 -20.5 -49.5t-11.5 -68.5q0 -4 1 -4q3 0 27 10t44 10q31 0 31 -15q0 -2 -2 -8 q-35 -81 -79 -238.5t-51 -179.5q-1 -2 -12 -18t-11 -24q0 -11 21 -11h196q11 0 18.5 8t7.5 18q0 17 -14 17q-20 0 -20 35q0 45 20 45h191q20 0 20 -49q0 -15 -8.5 -22.5t-16.5 -12.5t-8 -12q0 -11 8 -19t18 -8h230zM797 -112l-2 -35q0 -9 -47 -9h-376q-56 0 -107 28 q-21 5 -21 10q0 2 9 4q4 1 14 1q11 0 34.5 -2.5t35.5 -2.5l-268 86q-69 12 -69 53q0 32 27 57q10 34 31.5 116t42 148.5t45.5 126.5q-11 0 -30 -10.5t-30 -10.5q-16 0 -25.5 11t-9.5 28q0 39 17.5 94.5t48.5 55.5h376q16 0 24.5 -1t19 -9t16.5 -23q128 -330 170 -527 q28 -28 28 -58q0 -18 -12 -30q35 -5 35 -13q0 -4 -10 -7q24 -30 33 -81zM389 717q0 -13 -9.5 -22.5t-23.5 -9.5q-13 0 -22 9.5t-9 22.5t9 22.5t22 9.5t23 -9.5t10 -22.5zM434 717q0 32 -22.5 55t-55.5 23q-32 0 -55 -23t-23 -55t23 -55t55 -23q33 0 55.5 23t22.5 55z M467 717q0 -46 -32.5 -78.5t-78.5 -32.5q-45 0 -78 32.5t-33 78.5t33 78.5t78 32.5q46 0 78.5 -32.5t32.5 -78.5z" />
<glyph unicode="&#xe6;" horiz-adv-x="935" d="M400 300q-33 125 -41 125q-3 0 -8 -10.5t-10.5 -27.5t-10 -32.5t-9.5 -33t-6 -21.5h85zM439 289v-5q0 -7 -4.5 -12t-11.5 -5h-130q-7 0 -12 5t-5 12q0 3 1 5q3 8 9.5 32.5t13 45.5t15 43t20 35.5t24.5 13.5q19 0 34.5 -29.5t30.5 -85.5zM550 -107q3 0 3 3q0 4 -5 14 t-5 11h-86q90 -28 93 -28zM501 -33q-2 0 -12 2t-13 3t-12.5 3.5t-13.5 4t-11.5 4.5t-11.5 6.5t-9 8t-7.5 9.5t-4.5 11.5t-2 13.5q0 16 10 30t27 19q0 2 -0.5 7t-0.5 8h-163q-1 -5 -1 -15q34 -8 34 -44q0 -26 -18 -44q16 -1 30.5 -4.5t22.5 -6.5t8 -6q0 -5 -21 -6l8 -4h161z M908 -54q-50 2 -80 2q-14 0 -40.5 -0.5t-38.5 -0.5l17 -10l107 2q0 7 35 7zM900 161q2 6 2 9q0 11 -13 11t-39 -12q-9 -5 -18 -8q-24 -8 -56 -8h-156q0 4 -2 6v104h137q25 0 35 -19q6 -22 21 -22q18 0 23 23v142q-3 18 -14 18q-9 0 -30 -13t-28 -14q-22 -5 -55 -5 q-15 0 -45 1.5t-44 1.5v100h166q39 0 60 -15q8 -8 24 -8t17 14q-1 3 -3.5 20t-6 34.5t-8.5 36.5t-12 31.5t-15 13.5h-724q-8 0 -19.5 -50t-11.5 -69l1 -3q3 0 27 10.5t43 10.5q31 0 31 -16q0 -2 -2 -8q-40 -91 -101 -324q-18 -73 -27 -94q-1 -1 -13 -17.5t-12 -24.5 q0 -10 21 -10h197q11 0 19 8.5t8 18.5q0 14 -16 14q-18 0 -18 37q0 44 18 44h195q3 0 4 -1v-76q-29 -6 -29 -22q0 -19 25 -23h384q14 0 21 23zM1013 -109h-11q-10 0 -18 1t-18 2t-18 2q-10 1 -52 1h-59l13 -8h123q36 0 40 2zM809 190q-37 0 -48 39h-109v-43q11 0 35.5 -0.5 t37.5 -0.5q53 0 84 5zM817 438q-5 5 -30 5q-3 0 -6.5 -0.5t-4.5 -0.5h-124v-33q5 0 28 -1t37 -1q35 0 45 6q4 3 11 10t10.5 9t10.5 4.5t16 2.5q5 0 7 -1zM1065 -105q1 0 9 -0.5t11.5 -1t11.5 -1.5t12.5 -2.5t11.5 -3.5t11 -5t8 -6.5t6 -9t2 -11.5q0 -9 -30 -9h-727 q-45 0 -109 28q-20 7 -20 11q0 3 9 4q2 0 6 0.5t7 0.5q10 0 33.5 -2.5t36.5 -2.5q-99 28 -214 68l-57 20q-13 3 -30 3q-26 2 -39.5 15t-13.5 32q0 30 27 55q7 16 25 86q51 198 94 305q-12 -1 -31 -10.5t-29 -9.5q-15 0 -24.5 10.5t-9.5 26.5q0 39 17 95t47 56h729 q38 -8 47 -49q1 -3 14 -46t13 -64q0 -44 -42 -57q-6 -1 -15 -1h-6q9 -12 12 -29v-138q0 -27 -20 -48q21 9 42 9q46 0 46 -40q0 -11 -4 -22q-15 -54 -41 -131q-7 -21 -12 -26q22 -1 45 -9q80 -25 92 -29q15 -5 15 -9q0 -5 -35 -5q-29 0 -44 1q28 -6 39 -10l54 -32l1 -1v-2 q0 -2 -1 -3h20z" />
<glyph unicode="&#xe7;" horiz-adv-x="640" d="M606 231q-12 0 -43 -11q-62 -22 -141 -22q-71 0 -117 25t-46 83q0 54 20 99t65 45q29 0 49 -16t20 -46q0 -37 16 -46q9 -4 42 -4q17 0 48 0.5t37 0.5q29 0 32 26v194q-36 32 -103 46q-65 13 -118 13q-145 0 -239.5 -78.5t-94.5 -233.5q0 -143 81 -220.5t211 -89.5 q0 -2 -2.5 -13.5t-4 -24.5t-1.5 -23q0 -24 11 -24q2 0 9 0.5t8 0.5q11 0 17.5 -6t6.5 -15q0 -10 -9 -17.5t-24 -7.5q-9 0 -29 4t-30 4q-9 0 -14.5 -7.5t-5.5 -15.5q0 -21 34 -30.5t61 -9.5q48 0 70.5 22.5t22.5 51.5q0 28 -21 46t-54 22l6 41q47 0 101 8q70 12 94 42 q5 7 20 91.5t15 95.5zM784 -95q79 -45 79 -46q0 -8 -102 -13q-55 -4 -126 -4q-75 0 -165 5q-26 -68 -123 -68q-44 0 -84 19t-40 51q2 20 11 34q-121 34 -121 65q0 27 101 38q-99 35 -156.5 115.5t-57.5 204.5q0 170 104.5 257.5t263.5 87.5q59 0 124 -14q33 -7 80.5 -28 t47.5 -42v-204q0 -24 -18.5 -41.5t-45.5 -17.5q-11 0 -46.5 -0.5t-50.5 -0.5q-29 0 -53.5 16t-24.5 49q0 16 -1 24t-9 16.5t-23 8.5q-24 0 -40.5 -30t-16.5 -66q0 -45 25 -64q33 -26 103 -26t133 21q36 12 56 12q32 0 32 -31q0 -9 -2 -15l-35 -185q-4 -21 -54 -44 q79 -4 93 -10l106 -43q10 -4 10 -6q0 -3 -19 -3q-30 0 -94 4t-101 4q-47 0 -79 -3q8 -12 10 -31q29 -8 58 -8q26 0 26 4q0 3 -9 6.5t-9 6.5q0 8 65 8q17 0 48.5 -0.5t43.5 -0.5q65 0 86 -12z" />
<glyph unicode="&#xe8;" horiz-adv-x="593" d="M563 -57q-52 1 -160 1l17 -10q108 1 108 2q0 7 35 7zM664 -111q-21 0 -64 5q-10 1 -52 1h-60l13 -7h123q37 0 40 1zM467 190q-40 2 -49 39h-109v-42q13 0 41.5 -0.5t43.5 -0.5q42 0 73 4zM558 161q1 3 1 8q0 13 -13 13q-10 0 -39 -12l-17 -9q-21 -7 -56 -7h-158v109h135 q27 0 38 -18q4 -22 19 -22q16 0 23 23v142q-3 17 -14 17q-9 0 -29.5 -12.5t-28.5 -13.5q-23 -5 -56 -5q-15 0 -44.5 1.5t-42.5 1.5v99q28 0 83 0.5t83 0.5q40 0 58 -16q12 -8 24 -8q16 0 19 15q0 25 -14 80.5t-31 55.5h-435q-29 0 -29 -18q0 -21 33 -26v-506q-34 -7 -34 -22 q0 -20 30 -24h428q8 0 15.5 7.5t10.5 15.5q8 25 21.5 69t19.5 61zM474 439q-14 4 -30 4q-102 0 -135 -1v-32q6 0 30 -1t38 -1q33 0 42 5q30 25 55 26zM696 -107q22 -1 35.5 -2t31 -4.5t26 -12t8.5 -21.5q0 -7 -30 -7q-440 -2 -441 -2q-28 0 -56 4.5t-28 11.5q0 6 18 9 l-173 98q-87 7 -87 63q0 38 34 51v453q-33 12 -33 50q0 53 61 53h439q22 0 32.5 -12.5t16.5 -36.5q2 -9 9 -33t11.5 -44t4.5 -36q0 -42 -41 -55h-21q12 -17 12 -32v-135q-3 -30 -21 -48q25 9 42 9q47 0 47 -41q0 -9 -3 -21q-7 -27 -22.5 -75.5t-17.5 -55.5q-6 -18 -18 -32 q27 -1 49 -8q15 -5 45 -14t45 -14q15 -6 15 -9q0 -6 -42 -6q-6 0 -19 0.5t-20 0.5q28 -4 40 -9l51 -31q2 -1 2 -3t-2 -3zM393 637v27l-193 37v-64h193zM427 604h-262v137l262 -50v-87z" />
<glyph unicode="&#xe9;" horiz-adv-x="593" d="M563 -57q-52 1 -160 1l17 -10q108 1 108 2q0 7 35 7zM664 -111q-21 0 -64 5q-10 1 -52 1h-60l13 -7h123q37 0 40 1zM467 190q-40 2 -49 39h-109v-42q13 0 41.5 -0.5t43.5 -0.5q42 0 73 4zM558 161q1 3 1 8q0 13 -13 13q-10 0 -39 -12l-17 -9q-21 -7 -56 -7h-158v109h135 q27 0 38 -18q4 -22 19 -22q16 0 23 23v142q-3 17 -14 17q-9 0 -29.5 -12.5t-28.5 -13.5q-23 -5 -56 -5q-15 0 -44.5 1.5t-42.5 1.5v99q28 0 83 0.5t83 0.5q40 0 58 -16q12 -8 24 -8q16 0 19 15q0 25 -14 80.5t-31 55.5h-435q-29 0 -29 -18q0 -21 33 -26v-506q-34 -7 -34 -22 q0 -20 30 -24h428q8 0 15.5 7.5t10.5 15.5q8 25 21.5 69t19.5 61zM474 439q-14 4 -30 4q-102 0 -135 -1v-32q6 0 30 -1t38 -1q33 0 42 5q30 25 55 26zM696 -107q22 -1 35.5 -2t31 -4.5t26 -12t8.5 -21.5q0 -7 -30 -7q-440 -2 -441 -2q-28 0 -56 4.5t-28 11.5q0 6 18 9 l-173 98q-87 7 -87 63q0 38 34 51v453q-33 12 -33 50q0 53 61 53h439q22 0 32.5 -12.5t16.5 -36.5q2 -9 9 -33t11.5 -44t4.5 -36q0 -42 -41 -55h-21q12 -17 12 -32v-135q-3 -30 -21 -48q25 9 42 9q47 0 47 -41q0 -9 -3 -21q-7 -27 -22.5 -75.5t-17.5 -55.5q-6 -18 -18 -32 q27 -1 49 -8q15 -5 45 -14t45 -14q15 -6 15 -9q0 -6 -42 -6q-6 0 -19 0.5t-20 0.5q28 -4 40 -9l51 -31q2 -1 2 -3t-2 -3zM393 638v64l-193 -37v-27h193zM427 605h-261v87l261 50v-137z" />
<glyph unicode="&#xea;" horiz-adv-x="593" d="M563 -57q-52 1 -160 1l17 -10q108 1 108 2q0 7 35 7zM664 -111q-21 0 -64 5q-10 1 -52 1h-60l13 -7h123q37 0 40 1zM467 190q-40 2 -49 39h-109v-42q13 0 41.5 -0.5t43.5 -0.5q42 0 73 4zM558 161q1 3 1 8q0 13 -13 13q-10 0 -39 -12l-17 -9q-21 -7 -56 -7h-158v109h135 q27 0 38 -18q4 -22 19 -22q16 0 23 23v142q-3 17 -14 17q-9 0 -29.5 -12.5t-28.5 -13.5q-23 -5 -56 -5q-15 0 -44.5 1.5t-42.5 1.5v99q28 0 83 0.5t83 0.5q40 0 58 -16q12 -8 24 -8q16 0 19 15q0 25 -14 80.5t-31 55.5h-435q-29 0 -29 -18q0 -21 33 -26v-506q-34 -7 -34 -22 q0 -20 30 -24h428q8 0 15.5 7.5t10.5 15.5q8 25 21.5 69t19.5 61zM474 439q-14 4 -30 4q-102 0 -135 -1v-32q6 0 30 -1t38 -1q33 0 42 5q30 25 55 26zM696 -107q22 -1 35.5 -2t31 -4.5t26 -12t8.5 -21.5q0 -7 -30 -7q-440 -2 -441 -2q-28 0 -56 4.5t-28 11.5q0 6 18 9 l-173 98q-87 7 -87 63q0 38 34 51v453q-33 12 -33 50q0 53 61 53h439q22 0 32.5 -12.5t16.5 -36.5q2 -9 9 -33t11.5 -44t4.5 -36q0 -42 -41 -55h-21q12 -17 12 -32v-135q-3 -30 -21 -48q25 9 42 9q47 0 47 -41q0 -9 -3 -21q-7 -27 -22.5 -75.5t-17.5 -55.5q-6 -18 -18 -32 q27 -1 49 -8q15 -5 45 -14t45 -14q15 -6 15 -9q0 -6 -42 -6q-6 0 -19 0.5t-20 0.5q28 -4 40 -9l51 -31q2 -1 2 -3t-2 -3zM413 638l-117 95l-117 -95h79l38 29l39 -29h78zM494 605h-170l-28 21l-28 -21h-170l198 175z" />
<glyph unicode="&#xeb;" horiz-adv-x="593" d="M563 -57q-52 1 -160 1l17 -10q108 1 108 2q0 7 35 7zM664 -111q-21 0 -64 5q-10 1 -52 1h-60l13 -7h123q37 0 40 1zM467 190q-40 2 -49 39h-109v-42q13 0 41.5 -0.5t43.5 -0.5q42 0 73 4zM558 161q1 3 1 8q0 13 -13 13q-10 0 -39 -12l-17 -9q-21 -7 -56 -7h-158v109h135 q27 0 38 -18q4 -22 19 -22q16 0 23 23v142q-3 17 -14 17q-9 0 -29.5 -12.5t-28.5 -13.5q-23 -5 -56 -5q-15 0 -44.5 1.5t-42.5 1.5v99q28 0 83 0.5t83 0.5q40 0 58 -16q12 -8 24 -8q16 0 19 15q0 25 -14 80.5t-31 55.5h-435q-29 0 -29 -18q0 -21 33 -26v-506q-34 -7 -34 -22 q0 -20 30 -24h428q8 0 15.5 7.5t10.5 15.5q8 25 21.5 69t19.5 61zM474 439q-14 4 -30 4q-102 0 -135 -1v-32q6 0 30 -1t38 -1q33 0 42 5q30 25 55 26zM696 -107q22 -1 35.5 -2t31 -4.5t26 -12t8.5 -21.5q0 -7 -30 -7q-440 -2 -441 -2q-28 0 -56 4.5t-28 11.5q0 6 18 9 l-173 98q-87 7 -87 63q0 38 34 51v453q-33 12 -33 50q0 53 61 53h439q22 0 32.5 -12.5t16.5 -36.5q2 -9 9 -33t11.5 -44t4.5 -36q0 -42 -41 -55h-21q12 -17 12 -32v-135q-3 -30 -21 -48q25 9 42 9q47 0 47 -41q0 -9 -3 -21q-7 -27 -22.5 -75.5t-17.5 -55.5q-6 -18 -18 -32 q27 -1 49 -8q15 -5 45 -14t45 -14q15 -6 15 -9q0 -6 -42 -6q-6 0 -19 0.5t-20 0.5q28 -4 40 -9l51 -31q2 -1 2 -3t-2 -3zM280 681q0 15 -10.5 25.5t-25.5 10.5t-26 -10.5t-11 -25.5q0 -16 11 -27t26 -11t25.5 11t10.5 27zM385 681q0 15 -10.5 25.5t-25.5 10.5t-25.5 -10.5 t-10.5 -25.5q0 -16 10.5 -27t25.5 -11t25.5 11t10.5 27zM419 681q0 -30 -20.5 -50.5t-49.5 -20.5q-32 0 -54 24q-19 -24 -51 -24q-29 0 -50 20.5t-21 50.5q0 28 21 48.5t50 20.5q31 0 51 -23q23 23 54 23q29 0 49.5 -20.5t20.5 -48.5z" />
<glyph unicode="&#xec;" horiz-adv-x="354" d="M298 51q-6 0 -11 5.5t-5 11.5v477q0 7 5 12.5t11 5.5q23 0 23 18q0 9 -9 16t-26 7h-218q-17 0 -26 -7t-9 -16q0 -18 23 -18q6 0 11.5 -5.5t5.5 -12.5v-477q0 -6 -5.5 -11.5t-11.5 -5.5q-23 0 -23 -19q0 -10 9 -17t26 -7h218q17 0 26 7t9 17q0 7 -6 13t-17 6zM554 -156 h-219q-25 0 -47 3t-34.5 7t-12.5 8t25 7l-171 98q-95 7 -95 66q0 38 40 49v449q-40 11 -40 48q0 23 18.5 40.5t49.5 17.5h218q31 0 50 -17.5t19 -40.5q0 -36 -41 -48v-449q41 -12 41 -48q0 -27 -24 -45q65 -5 65 -15q0 -6 -26 -7l172 -98q62 -5 62 -15t-50 -10zM274 637v27 l-193 37v-64h193zM308 604h-262v137l262 -50v-87z" />
<glyph unicode="&#xed;" horiz-adv-x="354" d="M298 51q-6 0 -11 5.5t-5 11.5v477q0 7 5 12.5t11 5.5q23 0 23 18q0 9 -9 16t-26 7h-218q-17 0 -26 -7t-9 -16q0 -18 23 -18q6 0 11.5 -5.5t5.5 -12.5v-477q0 -6 -5.5 -11.5t-11.5 -5.5q-23 0 -23 -19q0 -10 9 -17t26 -7h218q17 0 26 7t9 17q0 7 -6 13t-17 6zM554 -156 h-219q-25 0 -47 3t-34.5 7t-12.5 8t25 7l-171 98q-95 7 -95 66q0 38 40 49v449q-40 11 -40 48q0 23 18.5 40.5t49.5 17.5h218q31 0 50 -17.5t19 -40.5q0 -36 -41 -48v-449q41 -12 41 -48q0 -27 -24 -45q65 -5 65 -15q0 -6 -26 -7l172 -98q62 -5 62 -15t-50 -10zM273 638v64 l-193 -37v-27h193zM307 605h-261v87l261 50v-137z" />
<glyph unicode="&#xee;" horiz-adv-x="354" d="M298 51q-6 0 -11 5.5t-5 11.5v477q0 7 5 12.5t11 5.5q23 0 23 18q0 9 -9 16t-26 7h-218q-17 0 -26 -7t-9 -16q0 -18 23 -18q6 0 11.5 -5.5t5.5 -12.5v-477q0 -6 -5.5 -11.5t-11.5 -5.5q-23 0 -23 -19q0 -10 9 -17t26 -7h218q17 0 26 7t9 17q0 7 -6 13t-17 6zM554 -156 h-219q-25 0 -47 3t-34.5 7t-12.5 8t25 7l-171 98q-95 7 -95 66q0 38 40 49v449q-40 11 -40 48q0 23 18.5 40.5t49.5 17.5h218q31 0 50 -17.5t19 -40.5q0 -36 -41 -48v-449q41 -12 41 -48q0 -27 -24 -45q65 -5 65 -15q0 -6 -26 -7l172 -98q62 -5 62 -15t-50 -10zM294 638 l-117 95l-117 -95h79l38 29l39 -29h78zM375 605h-170l-28 21l-28 -21h-170l198 175z" />
<glyph unicode="&#xef;" horiz-adv-x="354" d="M298 51q-6 0 -11 5.5t-5 11.5v477q0 7 5 12.5t11 5.5q23 0 23 18q0 9 -9 16t-26 7h-218q-17 0 -26 -7t-9 -16q0 -18 23 -18q6 0 11.5 -5.5t5.5 -12.5v-477q0 -6 -5.5 -11.5t-11.5 -5.5q-23 0 -23 -19q0 -10 9 -17t26 -7h218q17 0 26 7t9 17q0 7 -6 13t-17 6zM554 -156 h-219q-25 0 -47 3t-34.5 7t-12.5 8t25 7l-171 98q-95 7 -95 66q0 38 40 49v449q-40 11 -40 48q0 23 18.5 40.5t49.5 17.5h218q31 0 50 -17.5t19 -40.5q0 -36 -41 -48v-449q41 -12 41 -48q0 -27 -24 -45q65 -5 65 -15q0 -6 -26 -7l172 -98q62 -5 62 -15t-50 -10zM161 681 q0 15 -10.5 25.5t-25.5 10.5t-26 -10.5t-11 -25.5q0 -16 11 -27t26 -11t25.5 11t10.5 27zM266 681q0 15 -10.5 25.5t-25.5 10.5t-25.5 -10.5t-10.5 -25.5q0 -16 10.5 -27t25.5 -11t25.5 11t10.5 27zM300 681q0 -30 -20.5 -50.5t-49.5 -20.5q-32 0 -54 24q-19 -24 -51 -24 q-29 0 -50 20.5t-21 50.5q0 28 21 48.5t50 20.5q31 0 51 -23q23 23 54 23q29 0 49.5 -20.5t20.5 -48.5z" />
<glyph unicode="&#xf0;" horiz-adv-x="702" d="M411 253q0 -6 -5 -11.5t-12 -5.5h-52v-27q34 0 51 15q33 30 33 82q0 40 -22 68.5t-62 29.5v-85h52q7 0 12 -5.5t5 -11.5v-49zM377 270v16h-68v151h47q48 0 75 -38t27 -90t-26.5 -92t-76.5 -41h-46v94h68zM552 -91q0 -5 -13 -5h-32l18 -10q56 0 56 12q0 14 -48.5 23 t-81.5 9l19 -12h47q17 0 21 -4zM649 418q-33 90 -110 138t-175 48h-268q-36 0 -36 -20q0 -21 40 -23v-275h-66v-16h66v-217q-18 -3 -29 -11.5t-11 -17.5q0 -20 36 -20h178q69 0 113 4.5t96 19.5t90 49.5t64 89.5q30 63 30 139q0 61 -18 112zM726 -42q148 -36 148 -73 q0 -21 -64.5 -32.5t-170.5 -11.5h-269q-23 0 -46 3t-36.5 6.5t-13.5 7.5t26 7l-69 39h-69q-17 0 -22 5l-13 14q0 3 13 3h53l-70 41q-100 8 -100 64q0 37 44 51v154h-51q-6 0 -11 5.5t-5 11.5v49q0 6 5 11.5t11 5.5h51v212q-41 14 -41 48q0 23 19.5 40.5t49.5 17.5h270 q118 0 208 -63.5t117 -176.5q11 -46 11 -90q0 -103 -49 -183q-66 -104 -182 -136q149 -5 256 -30z" />
<glyph unicode="&#xf1;" horiz-adv-x="727" d="M417 -12q-20 15 -33 38l-110 184v-128q36 -12 36 -47q0 -28 -25 -47q67 -10 67 -17q0 -3 -17 -4l51 -29l14 42q5 5 17 8zM675 51q-7 0 -12 5.5t-5 11.5v477q0 7 5 12.5t12 5.5q15 0 15 14q0 10 -8 18.5t-19 8.5h-182q-14 0 -22.5 -7.5t-8.5 -17.5q0 -16 19 -16 q6 0 11.5 -5.5t5.5 -12.5v-212q0 -16 -18 -16q-9 0 -13 7l-149 255q-15 25 -61 25h-188q-10 0 -17 -8t-7 -17q0 -16 20 -16q6 0 11 -5.5t5 -12.5v-477q0 -6 -5 -11.5t-11 -5.5q-20 0 -20 -18q0 -9 8.5 -17t22.5 -8h181q15 0 23.5 8t8.5 18q0 17 -19 17q-7 0 -12 5.5t-5 11.5 v204q0 6 5.5 10.5t11.5 4.5q9 0 14 -8l140 -237q22 -34 43 -34h216q22 0 22 22q0 21 -18 21zM936 -156h-181q-23 0 -45 3t-34 7t-12 8q0 6 22 7l-53 30l-41 -45q-9 -10 -73 -10h-196q-24 0 -49 6.5t-25 12.5q0 5 20 6l-172 98q-53 4 -75 20t-22 49q0 34 34 46v449 q-33 11 -33 46q0 23 14.5 41.5t34.5 18.5h195q65 0 89 -42l119 -201v137q-37 12 -37 46q0 23 18 41.5t47 18.5h182q26 0 43 -19t17 -43q0 -34 -32 -44v-449q35 -12 35 -50q0 -27 -20 -44q62 -10 62 -17q0 -3 -14 -4l170 -98q53 -3 53 -15q0 -10 -41 -10zM504 719 q-40 -20 -66 -20q-25 0 -65.5 23.5t-73.5 23.5q-30 0 -68 -18l-8 -50q40 20 68 20q22 0 66.5 -23t73.5 -23q30 0 64 17zM547 778l-20 -132q-62 -28 -96 -28q-27 0 -73.5 22.5t-69.5 22.5q-13 0 -27 -4.5t-23.5 -9t-28.5 -15t-29 -15.5l20 132q61 27 98 27q16 0 39 -5 q13 -3 49 -20.5t55 -17.5q16 0 32 5.5t41.5 20t32.5 17.5z" />
<glyph unicode="&#xf2;" horiz-adv-x="688" d="M345 195q28 0 43.5 33t15.5 78t-15.5 78t-43.5 33t-44 -33t-16 -78t16 -78t44 -33zM345 163q-44 0 -68.5 42.5t-24.5 100.5t24.5 100.5t68.5 42.5q43 0 67.5 -42.5t24.5 -100.5t-24.5 -100.5t-67.5 -42.5zM527 -112q31 0 31 9q0 11 -38 25t-78 14q-31 0 -31 -9 q0 -11 38 -25t78 -14zM656 306q0 138 -87 224t-224 86q-138 0 -225 -86t-87 -224t87 -224t225 -86q137 0 224 86t87 224zM828 -88q29 -17 29 -30q0 -21 -64 -33.5t-178 -12.5q-152 0 -284.5 21t-190.5 55q-28 16 -28 30q0 29 110 40q-102 34 -162 120t-60 204 q0 151 96.5 247t248.5 96q151 0 247.5 -96t96.5 -247q0 -116 -58.5 -201.5t-157.5 -120.5q255 -15 355 -72zM441 651v27l-193 37v-64h193zM475 618h-262v137l262 -50v-87z" />
<glyph unicode="&#xf3;" horiz-adv-x="688" d="M345 195q28 0 43.5 33t15.5 78t-15.5 78t-43.5 33t-44 -33t-16 -78t16 -78t44 -33zM345 163q-44 0 -68.5 42.5t-24.5 100.5t24.5 100.5t68.5 42.5q43 0 67.5 -42.5t24.5 -100.5t-24.5 -100.5t-67.5 -42.5zM527 -112q31 0 31 9q0 11 -38 25t-78 14q-31 0 -31 -9 q0 -11 38 -25t78 -14zM656 306q0 138 -87 224t-224 86q-138 0 -225 -86t-87 -224t87 -224t225 -86q137 0 224 86t87 224zM828 -88q29 -17 29 -30q0 -21 -64 -33.5t-178 -12.5q-152 0 -284.5 21t-190.5 55q-28 16 -28 30q0 29 110 40q-102 34 -162 120t-60 204 q0 151 96.5 247t248.5 96q151 0 247.5 -96t96.5 -247q0 -116 -58.5 -201.5t-157.5 -120.5q255 -15 355 -72zM440 652v64l-193 -37v-27h193zM474 619h-261v87l261 50v-137z" />
<glyph unicode="&#xf4;" horiz-adv-x="688" d="M345 195q28 0 43.5 33t15.5 78t-15.5 78t-43.5 33t-44 -33t-16 -78t16 -78t44 -33zM345 163q-44 0 -68.5 42.5t-24.5 100.5t24.5 100.5t68.5 42.5q43 0 67.5 -42.5t24.5 -100.5t-24.5 -100.5t-67.5 -42.5zM527 -112q31 0 31 9q0 11 -38 25t-78 14q-31 0 -31 -9 q0 -11 38 -25t78 -14zM656 306q0 138 -87 224t-224 86q-138 0 -225 -86t-87 -224t87 -224t225 -86q137 0 224 86t87 224zM828 -88q29 -17 29 -30q0 -21 -64 -33.5t-178 -12.5q-152 0 -284.5 21t-190.5 55q-28 16 -28 30q0 29 110 40q-102 34 -162 120t-60 204 q0 151 96.5 247t248.5 96q151 0 247.5 -96t96.5 -247q0 -116 -58.5 -201.5t-157.5 -120.5q255 -15 355 -72zM461 652l-117 95l-117 -95h79l38 29l39 -29h78zM542 619h-170l-28 21l-28 -21h-170l198 175z" />
<glyph unicode="&#xf5;" horiz-adv-x="688" d="M345 195q28 0 43.5 33t15.5 78t-15.5 78t-43.5 33t-44 -33t-16 -78t16 -78t44 -33zM345 163q-44 0 -68.5 42.5t-24.5 100.5t24.5 100.5t68.5 42.5q43 0 67.5 -42.5t24.5 -100.5t-24.5 -100.5t-67.5 -42.5zM527 -112q31 0 31 9q0 11 -38 25t-78 14q-31 0 -31 -9 q0 -11 38 -25t78 -14zM656 306q0 138 -87 224t-224 86q-138 0 -225 -86t-87 -224t87 -224t225 -86q137 0 224 86t87 224zM828 -88q29 -17 29 -30q0 -21 -64 -33.5t-178 -12.5q-152 0 -284.5 21t-190.5 55q-28 16 -28 30q0 29 110 40q-102 34 -162 120t-60 204 q0 151 96.5 247t248.5 96q151 0 247.5 -96t96.5 -247q0 -116 -58.5 -201.5t-157.5 -120.5q255 -15 355 -72zM484 719q-40 -20 -66 -20q-25 0 -65.5 23.5t-73.5 23.5q-31 0 -68 -18l-8 -50q40 20 68 20q22 0 66.5 -23t73.5 -23q30 0 64 17zM527 778l-20 -132q-62 -28 -96 -28 q-27 0 -73.5 22.5t-69.5 22.5q-13 0 -27 -4.5t-23.5 -9t-28.5 -15t-29 -15.5l20 132q61 27 98 27q16 0 39 -5q13 -3 49 -20.5t55 -17.5q16 0 32 5.5t41.5 20t32.5 17.5z" />
<glyph unicode="&#xf6;" horiz-adv-x="688" d="M345 195q28 0 43.5 33t15.5 78t-15.5 78t-43.5 33t-44 -33t-16 -78t16 -78t44 -33zM345 163q-44 0 -68.5 42.5t-24.5 100.5t24.5 100.5t68.5 42.5q43 0 67.5 -42.5t24.5 -100.5t-24.5 -100.5t-67.5 -42.5zM527 -112q31 0 31 9q0 11 -38 25t-78 14q-31 0 -31 -9 q0 -11 38 -25t78 -14zM656 306q0 138 -87 224t-224 86q-138 0 -225 -86t-87 -224t87 -224t225 -86q137 0 224 86t87 224zM828 -88q29 -17 29 -30q0 -21 -64 -33.5t-178 -12.5q-152 0 -284.5 21t-190.5 55q-28 16 -28 30q0 29 110 40q-102 34 -162 120t-60 204 q0 151 96.5 247t248.5 96q151 0 247.5 -96t96.5 -247q0 -116 -58.5 -201.5t-157.5 -120.5q255 -15 355 -72zM328 691q0 15 -10.5 25.5t-25.5 10.5t-26 -10.5t-11 -25.5q0 -16 11 -27t26 -11t25.5 11t10.5 27zM433 691q0 15 -10.5 25.5t-25.5 10.5t-25.5 -10.5t-10.5 -25.5 q0 -16 10.5 -27t25.5 -11t25.5 11t10.5 27zM467 691q0 -30 -20.5 -50.5t-49.5 -20.5q-32 0 -54 24q-19 -24 -51 -24q-29 0 -50 20.5t-21 50.5q0 28 21 48.5t50 20.5q31 0 51 -23q23 23 54 23q29 0 49.5 -20.5t20.5 -48.5z" />
<glyph unicode="&#xf7;" horiz-adv-x="395" d="M195 575q46 -4 71 -32.5t25 -65.5q0 -59 -50 -83h134q17 -1 20 -18v-141q-3 -17 -20 -18h-140q56 -25 56 -88q0 -38 -25.5 -66t-70.5 -28q-43 0 -68 27.5t-25 65.5q0 28 14 52.5t41 36.5h-141q-16 4 -16 21v135q0 7 5 14t11 7h134q-48 24 -48 82q0 37 24.5 66t68.5 33z M359 358h-323v-105h323v105zM195 191q-27 -2 -42 -20.5t-15 -41.5q0 -24 15 -41t42 -17q29 1 45 18t16 41q0 23 -16 41t-45 20zM195 539q-28 -2 -42.5 -19.5t-14.5 -41.5t15 -41t42 -17q29 1 45 18t16 40t-16 41t-45 20z" />
<glyph unicode="&#xf8;" horiz-adv-x="727" d="M441 305l-59 -101q23 1 39.5 30t19.5 71zM377 427q-22 -3 -38 -30t-19 -67zM472 316q0 -61 -26.5 -102.5t-66.5 -41.5q-25 0 -44 16l121 211q16 -37 16 -83zM424 444l-122 -210q-15 42 -15 82q0 61 25.5 103t66.5 42q25 0 45 -17zM691 316q0 82 -34.5 150.5t-97.5 109.5 l68 117l-44 26l-70 -119q-61 24 -134 24q-144 0 -227.5 -88t-83.5 -220q0 -83 34 -151t97 -109l-67 -117l45 -25l68 118q61 -25 134 -25q145 0 228.5 88t83.5 221zM758 -160l-86 -13l-100 29q-45 -4 -116 -4q-24 0 -84 4t-143.5 13.5t-144.5 29.5t-61 47q0 26 74 43l-97 27 l88 13l50 -14l19 32q-59 49 -91.5 118.5t-32.5 149.5q0 147 93.5 244.5t252.5 97.5q68 0 120 -17l72 124l101 -59l-70 -118q124 -98 124 -272q0 -111 -59.5 -198t-161.5 -123q54 -10 85.5 -16.5t70 -17t56.5 -23.5t18 -28q0 -26 -72 -41z" />
<glyph unicode="&#xf9;" horiz-adv-x="669" d="M620 -128l-133 76q-7 4 -39 4h-5q-5 1 -9 1q-11 0 -11 -4q0 -1 135 -77q28 -4 41 -7q4 4 21 7zM611 562q24 0 24 19q0 9 -9 16t-26 7h-177q-17 0 -26 -7t-9 -16q0 -19 23 -19q6 -1 11.5 -6t5.5 -11v-328q0 -23 -19 -36t-46 -13q-26 0 -45 13t-19 36v328q0 6 5 11t10 6 q24 0 24 19q0 9 -8.5 16t-25.5 7h-235q-17 0 -26 -7t-9 -16q0 -19 23 -19q7 -1 12 -6t5 -11v-379q0 -43 27 -77.5t68 -53.5t84 -29t81 -10q39 0 82 10t84 29t68 53.5t27 77.5v379q0 6 5 11t11 6zM394 217v313q-20 6 -30 25q-15 -20 -32 -25v-313q0 -17 30 -17q32 0 32 17z M872 -155h-178q-49 0 -71 7q-4 -7 -48 -7h-235q-25 0 -48.5 3t-36.5 7.5t-13 8.5q0 5 24 8l-155 89q-14 7 -14 15q0 15 66 25q-124 58 -124 165v364q-39 14 -39 49q0 23 19 40.5t50 17.5h235q40 0 60 -27q16 27 59 27h177q31 0 49.5 -17.5t18.5 -40.5q0 -36 -40 -49v-364 q0 -55 -33.5 -97t-88.5 -68q145 -14 192 -40l157 -89q64 -5 64 -17q0 -10 -47 -10zM431 637v27l-193 37v-64h193zM465 604h-262v137l262 -50v-87z" />
<glyph unicode="&#xfa;" horiz-adv-x="669" d="M620 -128l-133 76q-7 4 -39 4h-5q-5 1 -9 1q-11 0 -11 -4q0 -1 135 -77q28 -4 41 -7q4 4 21 7zM611 562q24 0 24 19q0 9 -9 16t-26 7h-177q-17 0 -26 -7t-9 -16q0 -19 23 -19q6 -1 11.5 -6t5.5 -11v-328q0 -23 -19 -36t-46 -13q-26 0 -45 13t-19 36v328q0 6 5 11t10 6 q24 0 24 19q0 9 -8.5 16t-25.5 7h-235q-17 0 -26 -7t-9 -16q0 -19 23 -19q7 -1 12 -6t5 -11v-379q0 -43 27 -77.5t68 -53.5t84 -29t81 -10q39 0 82 10t84 29t68 53.5t27 77.5v379q0 6 5 11t11 6zM394 217v313q-20 6 -30 25q-15 -20 -32 -25v-313q0 -17 30 -17q32 0 32 17z M872 -155h-178q-49 0 -71 7q-4 -7 -48 -7h-235q-25 0 -48.5 3t-36.5 7.5t-13 8.5q0 5 24 8l-155 89q-14 7 -14 15q0 15 66 25q-124 58 -124 165v364q-39 14 -39 49q0 23 19 40.5t50 17.5h235q40 0 60 -27q16 27 59 27h177q31 0 49.5 -17.5t18.5 -40.5q0 -36 -40 -49v-364 q0 -55 -33.5 -97t-88.5 -68q145 -14 192 -40l157 -89q64 -5 64 -17q0 -10 -47 -10zM431 638v64l-193 -37v-27h193zM465 605h-261v87l261 50v-137z" />
<glyph unicode="&#xfb;" horiz-adv-x="669" d="M620 -128l-133 76q-7 4 -39 4h-5q-5 1 -9 1q-11 0 -11 -4q0 -1 135 -77q28 -4 41 -7q4 4 21 7zM611 562q24 0 24 19q0 9 -9 16t-26 7h-177q-17 0 -26 -7t-9 -16q0 -19 23 -19q6 -1 11.5 -6t5.5 -11v-328q0 -23 -19 -36t-46 -13q-26 0 -45 13t-19 36v328q0 6 5 11t10 6 q24 0 24 19q0 9 -8.5 16t-25.5 7h-235q-17 0 -26 -7t-9 -16q0 -19 23 -19q7 -1 12 -6t5 -11v-379q0 -43 27 -77.5t68 -53.5t84 -29t81 -10q39 0 82 10t84 29t68 53.5t27 77.5v379q0 6 5 11t11 6zM394 217v313q-20 6 -30 25q-15 -20 -32 -25v-313q0 -17 30 -17q32 0 32 17z M872 -155h-178q-49 0 -71 7q-4 -7 -48 -7h-235q-25 0 -48.5 3t-36.5 7.5t-13 8.5q0 5 24 8l-155 89q-14 7 -14 15q0 15 66 25q-124 58 -124 165v364q-39 14 -39 49q0 23 19 40.5t50 17.5h235q40 0 60 -27q16 27 59 27h177q31 0 49.5 -17.5t18.5 -40.5q0 -36 -40 -49v-364 q0 -55 -33.5 -97t-88.5 -68q145 -14 192 -40l157 -89q64 -5 64 -17q0 -10 -47 -10zM479 638l-117 95l-117 -95h79l38 29l39 -29h78zM560 605h-170l-28 21l-28 -21h-170l198 175z" />
<glyph unicode="&#xfc;" horiz-adv-x="669" d="M620 -128l-133 76q-7 4 -39 4h-5q-5 1 -9 1q-11 0 -11 -4q0 -1 135 -77q28 -4 41 -7q4 4 21 7zM611 562q24 0 24 19q0 9 -9 16t-26 7h-177q-17 0 -26 -7t-9 -16q0 -19 23 -19q6 -1 11.5 -6t5.5 -11v-328q0 -23 -19 -36t-46 -13q-26 0 -45 13t-19 36v328q0 6 5 11t10 6 q24 0 24 19q0 9 -8.5 16t-25.5 7h-235q-17 0 -26 -7t-9 -16q0 -19 23 -19q7 -1 12 -6t5 -11v-379q0 -43 27 -77.5t68 -53.5t84 -29t81 -10q39 0 82 10t84 29t68 53.5t27 77.5v379q0 6 5 11t11 6zM394 217v313q-20 6 -30 25q-15 -20 -32 -25v-313q0 -17 30 -17q32 0 32 17z M872 -155h-178q-49 0 -71 7q-4 -7 -48 -7h-235q-25 0 -48.5 3t-36.5 7.5t-13 8.5q0 5 24 8l-155 89q-14 7 -14 15q0 15 66 25q-124 58 -124 165v364q-39 14 -39 49q0 23 19 40.5t50 17.5h235q40 0 60 -27q16 27 59 27h177q31 0 49.5 -17.5t18.5 -40.5q0 -36 -40 -49v-364 q0 -55 -33.5 -97t-88.5 -68q145 -14 192 -40l157 -89q64 -5 64 -17q0 -10 -47 -10zM346 681q0 15 -10.5 25.5t-25.5 10.5t-26 -10.5t-11 -25.5q0 -16 11 -27t26 -11t25.5 11t10.5 27zM451 681q0 15 -10.5 25.5t-25.5 10.5t-25.5 -10.5t-10.5 -25.5q0 -16 10.5 -27t25.5 -11 t25.5 11t10.5 27zM485 681q0 -30 -20.5 -50.5t-49.5 -20.5q-32 0 -54 24q-19 -24 -51 -24q-29 0 -50 20.5t-21 50.5q0 28 21 48.5t50 20.5q31 0 51 -23q23 23 54 23q29 0 49.5 -20.5t20.5 -48.5z" />
<glyph unicode="&#xfd;" horiz-adv-x="682" d="M624 562q24 0 24 19q0 9 -9 16t-26 7h-162q-17 0 -26 -7t-9 -16q0 -19 24 -19q6 0 10.5 -5.5t4.5 -11.5q0 -63 -17 -110.5t-55 -106.5q-4 -7 -14 -7t-14 7q-38 59 -55 106.5t-17 110.5q0 6 4.5 11.5t10.5 5.5q23 0 23 19q0 9 -9 16t-26 7h-218q-17 0 -26 -7t-9 -17 q0 -18 23 -18q6 0 11.5 -5.5t5.5 -11.5q0 -103 38 -173.5t123 -166.5q5 -10 5 -11v-127q0 -5 -5.5 -10.5t-12.5 -5.5q-22 -2 -22 -20q0 -9 9 -16t25 -7h219q17 0 26 7t9 16q0 18 -23 20q-6 0 -11 5.5t-5 10.5v133q0 7 4 11q83 92 120 162t37 172q0 6 5 11.5t10 5.5z M884 -155h-162q-25 0 -48.5 3t-36.5 7.5t-13 8.5q0 5 24 8q-33 16 -123 39q-6 -7 -6 -15q0 -12 22 -24q64 -5 64 -17q0 -10 -47 -10h-218q-26 0 -49 3t-36 7.5t-13 8.5q0 5 24 8q-34 20 -34 37q0 18 52 47l-32 19h-19q-29 0 -49 18.5t-20 41.5q0 34 41 47v106 q-84 95 -123.5 168t-41.5 174q-40 11 -40 49q0 23 18.5 40.5t49.5 17.5h218q31 0 50 -17.5t19 -40.5q0 -36 -40 -49q3 -81 53 -162q52 81 53 162q-39 14 -39 49q0 23 19 40.5t50 17.5h162q31 0 49.5 -18t18.5 -41q0 -36 -39 -48q-2 -100 -40.5 -172.5t-120.5 -163.5v-112 q40 -13 40 -49q0 -16 -11 -32q29 -5 29 -12q0 -6 -25 -7l49 -27q124 -24 192 -41.5t113 -41.5q64 -5 64 -17q0 -10 -48 -10zM437 638v64l-193 -37v-27h193zM471 605h-261v87l261 50v-137z" />
<glyph unicode="&#xfe;" horiz-adv-x="639" d="M335 274q22 0 34 15t12 35t-12 35t-34 15h-22v-100h22zM335 240h-38q-6 0 -11.5 5t-5.5 12v132q0 7 5.5 12t11.5 5h38q37 0 58 -24.5t21 -58.5q0 -33 -21 -58t-58 -25zM500 -94q30 0 30 7q0 3 -9 6.5t-25.5 6.5t-34.5 3h-22l39 -23h22zM606 323q0 104 -56.5 156 t-161.5 52h-52q-39 0 -41 23v16q0 18 -5.5 26t-26.5 8h-196q-15 0 -24 -7.5t-9 -16.5q0 -18 21 -18q6 -1 11 -6t5 -12v-477q0 -6 -5 -11t-11 -5q-21 0 -21 -19q0 -9 9 -16.5t24 -7.5h218q15 0 24 7.5t9 16.5q0 19 -21 19q-7 0 -12 5t-5 11v32q0 5 5.5 10.5t11.5 5.5 q38 0 59 0.5t55 3t53.5 8t45.5 15t40.5 25t29 36.5t20.5 51.5t6 68.5zM789 -123q-41 -14 -212 -14h-9q8 -5 8 -9q0 -8 -46 -8h-197q-23 0 -45 3t-34.5 7t-12.5 8q0 6 23 7l-176 101q-88 8 -88 58q0 38 39 52v448q-39 12 -39 48q0 23 18.5 41t48.5 18h196q35 0 49 -18.5 t15 -53.5h28q50 0 81 -2.5t70.5 -17t68.5 -42.5q65 -62 65 -179t-65 -180q-41 -39 -93 -50.5t-127 -11.5h-42q17 -5 27.5 -19.5t10.5 -33.5q0 -23 -15 -34q18 -3 31 -6q19 -5 19 -10q-1 -2 -5.5 -3.5t-10 -2.5t-6.5 -1q199 0 286 -14q68 -11 113 -30t45 -35q0 -10 -19 -16z " />
<glyph unicode="&#xff;" horiz-adv-x="682" d="M624 562q24 0 24 19q0 9 -9 16t-26 7h-162q-17 0 -26 -7t-9 -16q0 -19 24 -19q6 0 10.5 -5.5t4.5 -11.5q0 -63 -17 -110.5t-55 -106.5q-4 -7 -14 -7t-14 7q-38 59 -55 106.5t-17 110.5q0 6 4.5 11.5t10.5 5.5q23 0 23 19q0 9 -9 16t-26 7h-218q-17 0 -26 -7t-9 -17 q0 -18 23 -18q6 0 11.5 -5.5t5.5 -11.5q0 -103 38 -173.5t123 -166.5q5 -10 5 -11v-127q0 -5 -5.5 -10.5t-12.5 -5.5q-22 -2 -22 -20q0 -9 9 -16t25 -7h219q17 0 26 7t9 16q0 18 -23 20q-6 0 -11 5.5t-5 10.5v133q0 7 4 11q83 92 120 162t37 172q0 6 5 11.5t10 5.5z M884 -155h-162q-25 0 -48.5 3t-36.5 7.5t-13 8.5q0 5 24 8q-33 16 -123 39q-6 -7 -6 -15q0 -12 22 -24q64 -5 64 -17q0 -10 -47 -10h-218q-26 0 -49 3t-36 7.5t-13 8.5q0 5 24 8q-34 20 -34 37q0 18 52 47l-32 19h-19q-29 0 -49 18.5t-20 41.5q0 34 41 47v106 q-84 95 -123.5 168t-41.5 174q-40 11 -40 49q0 23 18.5 40.5t49.5 17.5h218q31 0 50 -17.5t19 -40.5q0 -36 -40 -49q3 -81 53 -162q52 81 53 162q-39 14 -39 49q0 23 19 40.5t50 17.5h162q31 0 49.5 -18t18.5 -41q0 -36 -39 -48q-2 -100 -40.5 -172.5t-120.5 -163.5v-112 q40 -13 40 -49q0 -16 -11 -32q29 -5 29 -12q0 -6 -25 -7l49 -27q124 -24 192 -41.5t113 -41.5q64 -5 64 -17q0 -10 -48 -10zM350 681q0 15 -10.5 25.5t-25.5 10.5t-26 -10.5t-11 -25.5q0 -16 11 -27t26 -11t25.5 11t10.5 27zM455 681q0 15 -10.5 25.5t-25.5 10.5 t-25.5 -10.5t-10.5 -25.5q0 -16 10.5 -27t25.5 -11t25.5 11t10.5 27zM489 681q0 -30 -20.5 -50.5t-49.5 -20.5q-32 0 -54 24q-19 -24 -51 -24q-29 0 -50 20.5t-21 50.5q0 28 21 48.5t50 20.5q31 0 51 -23q23 23 54 23q29 0 49.5 -20.5t20.5 -48.5z" />
<glyph unicode="&#x152;" horiz-adv-x="966" d="M403 306q0 46 -17.5 78.5t-41.5 32.5q-25 0 -42 -32t-17 -79q0 -46 17 -78.5t42 -32.5q24 0 41.5 32.5t17.5 78.5zM344 162q-44 0 -68 42.5t-24 101.5t24 102t68 43q43 0 67.5 -43t24.5 -102q0 -58 -24.5 -101t-67.5 -43zM562 -98q0 15 -46.5 26.5t-68.5 11.5 q-31 0 -31 -9q0 -16 46 -28t70 -12q30 0 30 11zM939 -58q-16 1 -52 1q-18 0 -53.5 -0.5t-51.5 -0.5l16 -9l108 2q0 7 33 7zM931 161q2 6 2 9q0 11 -13 11q-9 0 -18 -3.5t-20 -9t-18 -7.5q-21 -7 -58 -7h-155v109h134q26 0 36 -19q6 -21 21 -21q16 0 24 23v141q-3 18 -16 18 q-11 0 -30 -15.5t-41 -15.5h-129v102q28 0 83 0.5t82 0.5q38 0 59 -16q8 -8 24 -8q17 0 18 15q0 2 -4.5 26.5t-9.5 46t-13.5 41.5t-17.5 22h-385q-17 -2 -23 -7q-54 19 -119 19q-138 0 -225 -86t-87 -224t87 -223.5t225 -85.5q68 0 119 18q5 -5 23 -7h384q15 0 22 23 q25 78 39 130zM1046 -114q-27 0 -66 6q-18 2 -45 2q-14 0 -37.5 -0.5t-28.5 -0.5l13 -8h123q37 0 41 1zM841 189q-40 2 -50 40h-108v-42q13 0 42.5 -0.5t44.5 -0.5q37 0 71 3zM844 439h4q-3 3 -23 3h-142v-35h75q33 0 52 16t34 16zM1178 -147q1 -2 1 -4q0 -8 -29 -8h-433 q-13 0 -44 -1.5t-50 -1.5q-100 0 -214.5 12.5t-203.5 38.5t-89 58q0 27 94 39q-97 36 -153.5 121t-56.5 199q0 152 96.5 247.5t247.5 95.5q51 0 99 -12h432q39 -8 48 -49q2 -10 10 -33t12.5 -42.5t4.5 -35.5q0 -44 -43 -57q-5 -1 -14 -1h-6q8 -11 11 -28v-138q0 -29 -20 -49 q21 9 43 9q45 0 45 -39q0 -10 -3 -22q-17 -62 -41 -131q-6 -21 -16 -31q19 -1 51 -10q12 -4 92 -29q14 -6 14 -9q0 -5 -37 -5q-6 0 -20 0.5t-22 0.5q20 -2 38 -10l55 -31q2 -2 2 -3t-2 -3h21q30 -2 47.5 -7.5t21.5 -9.5t7 -11.5t4 -9.5z" />
<glyph unicode="&#x153;" horiz-adv-x="966" d="M403 306q0 46 -17.5 78.5t-41.5 32.5q-25 0 -42 -32t-17 -79q0 -46 17 -78.5t42 -32.5q24 0 41.5 32.5t17.5 78.5zM344 162q-44 0 -68 42.5t-24 101.5t24 102t68 43q43 0 67.5 -43t24.5 -102q0 -58 -24.5 -101t-67.5 -43zM562 -98q0 15 -46.5 26.5t-68.5 11.5 q-31 0 -31 -9q0 -16 46 -28t70 -12q30 0 30 11zM939 -58q-16 1 -52 1q-18 0 -53.5 -0.5t-51.5 -0.5l16 -9l108 2q0 7 33 7zM931 161q2 6 2 9q0 11 -13 11q-9 0 -18 -3.5t-20 -9t-18 -7.5q-21 -7 -58 -7h-155v109h134q26 0 36 -19q6 -21 21 -21q16 0 24 23v141q-3 18 -16 18 q-11 0 -30 -15.5t-41 -15.5h-129v102q28 0 83 0.5t82 0.5q38 0 59 -16q8 -8 24 -8q17 0 18 15q0 2 -4.5 26.5t-9.5 46t-13.5 41.5t-17.5 22h-385q-17 -2 -23 -7q-54 19 -119 19q-138 0 -225 -86t-87 -224t87 -223.5t225 -85.5q68 0 119 18q5 -5 23 -7h384q15 0 22 23 q25 78 39 130zM1046 -114q-27 0 -66 6q-18 2 -45 2q-14 0 -37.5 -0.5t-28.5 -0.5l13 -8h123q37 0 41 1zM841 189q-40 2 -50 40h-108v-42q13 0 42.5 -0.5t44.5 -0.5q37 0 71 3zM844 439h4q-3 3 -23 3h-142v-35h75q33 0 52 16t34 16zM1178 -147q1 -2 1 -4q0 -8 -29 -8h-433 q-13 0 -44 -1.5t-50 -1.5q-100 0 -214.5 12.5t-203.5 38.5t-89 58q0 27 94 39q-97 36 -153.5 121t-56.5 199q0 152 96.5 247.5t247.5 95.5q51 0 99 -12h432q39 -8 48 -49q2 -10 10 -33t12.5 -42.5t4.5 -35.5q0 -44 -43 -57q-5 -1 -14 -1h-6q8 -11 11 -28v-138q0 -29 -20 -49 q21 9 43 9q45 0 45 -39q0 -10 -3 -22q-17 -62 -41 -131q-6 -21 -16 -31q19 -1 51 -10q12 -4 92 -29q14 -6 14 -9q0 -5 -37 -5q-6 0 -20 0.5t-22 0.5q20 -2 38 -10l55 -31q2 -2 2 -3t-2 -3h21q30 -2 47.5 -7.5t21.5 -9.5t7 -11.5t4 -9.5z" />
<glyph unicode="&#x160;" horiz-adv-x="586" d="M555 189q0 36 -11.5 64t-26.5 45t-44.5 31t-51.5 21t-62 17q-20 5 -34.5 20.5t-14.5 34.5q0 25 19.5 38.5t46.5 13.5q30 0 64.5 -12t50.5 -26q20 -16 34 -16q11 0 11 13q0 2 -2 10l-32 143q-6 25 -19 25q-5 0 -19 -8t-26 -8q-20 0 -58 12q-47 14 -96 14q-94 0 -161 -49 t-67 -143q0 -67 38 -107q27 -27 87 -47.5t81 -40.5q18 -16 18 -39t-17.5 -35.5t-43.5 -12.5q-35 0 -77 15t-59 30q-20 16 -35 16t-15 -20l25 -151q6 -18 18 -23q13 0 29 7.5t27 7.5q28 0 69 -13q51 -14 102 -14q106 0 179 56q73 55 73 131zM784 -136l2 -4q0 -9 -29 -9 q-9 0 -29 2t-31 2q-20 0 -66 -3t-73 -3q-108 0 -209 14t-147 41q-18 11 -18 20q0 21 109 29q35 3 35 7q0 5 -33 5q-48 0 -102 -9q-14 -5 -46 -5q-44 0 -78 19.5t-44 61.5q-25 151 -25 154q0 22 12.5 37.5t36.5 15.5q29 0 55 -21q10 -8 51.5 -23t66.5 -15q24 0 24 15 q0 13 -16 22t-32 13q-176 51 -176 199q0 109 77.5 167t184.5 58q52 0 105 -16q36 -9 45 -9q11 0 27.5 7.5t25.5 7.5q17 0 30 -16t17 -35l33 -142q2 -14 2 -19q0 -21 -12.5 -32.5t-31.5 -11.5q-27 0 -55 23q-9 8 -41.5 19t-55.5 11q-30 0 -30 -18q0 -8 8 -15t16 -9 q42 -10 70 -19.5t59 -26.5t49 -37.5t30 -53t12 -73.5q0 -122 -122 -181q143 -13 200 -45q20 -11 20 -21q0 -20 -152 -31q-14 0 -14 -4q1 -1 3 -2q9 -4 35 -4q54 0 86 8q13 5 44 5q57 0 70 -16zM95 779h170l28 -21l28 21h170l-167 -144h-63zM176 746l117 -92l117 92h-79 l-38 -29l-39 29h-78z" />
<glyph unicode="&#x161;" horiz-adv-x="586" d="M555 189q0 36 -11.5 64t-26.5 45t-44.5 31t-51.5 21t-62 17q-20 5 -34.5 20.5t-14.5 34.5q0 25 19.5 38.5t46.5 13.5q30 0 64.5 -12t50.5 -26q20 -16 34 -16q11 0 11 13q0 2 -2 10l-32 143q-6 25 -19 25q-5 0 -19 -8t-26 -8q-20 0 -58 12q-47 14 -96 14q-94 0 -161 -49 t-67 -143q0 -67 38 -107q27 -27 87 -47.5t81 -40.5q18 -16 18 -39t-17.5 -35.5t-43.5 -12.5q-35 0 -77 15t-59 30q-20 16 -35 16t-15 -20l25 -151q6 -18 18 -23q13 0 29 7.5t27 7.5q28 0 69 -13q51 -14 102 -14q106 0 179 56q73 55 73 131zM784 -136l2 -4q0 -9 -29 -9 q-9 0 -29 2t-31 2q-20 0 -66 -3t-73 -3q-108 0 -209 14t-147 41q-18 11 -18 20q0 21 109 29q35 3 35 7q0 5 -33 5q-48 0 -102 -9q-14 -5 -46 -5q-44 0 -78 19.5t-44 61.5q-25 151 -25 154q0 22 12.5 37.5t36.5 15.5q29 0 55 -21q10 -8 51.5 -23t66.5 -15q24 0 24 15 q0 13 -16 22t-32 13q-176 51 -176 199q0 109 77.5 167t184.5 58q52 0 105 -16q36 -9 45 -9q11 0 27.5 7.5t25.5 7.5q17 0 30 -16t17 -35l33 -142q2 -14 2 -19q0 -21 -12.5 -32.5t-31.5 -11.5q-27 0 -55 23q-9 8 -41.5 19t-55.5 11q-30 0 -30 -18q0 -8 8 -15t16 -9 q42 -10 70 -19.5t59 -26.5t49 -37.5t30 -53t12 -73.5q0 -122 -122 -181q143 -13 200 -45q20 -11 20 -21q0 -20 -152 -31q-14 0 -14 -4q1 -1 3 -2q9 -4 35 -4q54 0 86 8q13 5 44 5q57 0 70 -16zM95 779h170l28 -21l28 21h170l-167 -144h-63zM176 746l117 -92l117 92h-79 l-38 -29l-39 29h-78z" />
<glyph unicode="&#x178;" horiz-adv-x="682" d="M624 562q24 0 24 19q0 9 -9 16t-26 7h-162q-17 0 -26 -7t-9 -16q0 -19 24 -19q6 0 10.5 -5.5t4.5 -11.5q0 -63 -17 -110.5t-55 -106.5q-4 -7 -14 -7t-14 7q-38 59 -55 106.5t-17 110.5q0 6 4.5 11.5t10.5 5.5q23 0 23 19q0 9 -9 16t-26 7h-218q-17 0 -26 -7t-9 -17 q0 -18 23 -18q6 0 11.5 -5.5t5.5 -11.5q0 -103 38 -173.5t123 -166.5q5 -10 5 -11v-127q0 -5 -5.5 -10.5t-12.5 -5.5q-22 -2 -22 -20q0 -9 9 -16t25 -7h219q17 0 26 7t9 16q0 18 -23 20q-6 0 -11 5.5t-5 10.5v133q0 7 4 11q83 92 120 162t37 172q0 6 5 11.5t10 5.5z M884 -155h-162q-25 0 -48.5 3t-36.5 7.5t-13 8.5q0 5 24 8q-33 16 -123 39q-6 -7 -6 -15q0 -12 22 -24q64 -5 64 -17q0 -10 -47 -10h-218q-26 0 -49 3t-36 7.5t-13 8.5q0 5 24 8q-34 20 -34 37q0 18 52 47l-32 19h-19q-29 0 -49 18.5t-20 41.5q0 34 41 47v106 q-84 95 -123.5 168t-41.5 174q-40 11 -40 49q0 23 18.5 40.5t49.5 17.5h218q31 0 50 -17.5t19 -40.5q0 -36 -40 -49q3 -81 53 -162q52 81 53 162q-39 14 -39 49q0 23 19 40.5t50 17.5h162q31 0 49.5 -18t18.5 -41q0 -36 -39 -48q-2 -100 -40.5 -172.5t-120.5 -163.5v-112 q40 -13 40 -49q0 -16 -11 -32q29 -5 29 -12q0 -6 -25 -7l49 -27q124 -24 192 -41.5t113 -41.5q64 -5 64 -17q0 -10 -48 -10zM352 681q0 15 -10.5 25.5t-25.5 10.5t-26 -10.5t-11 -25.5q0 -16 11 -27t26 -11t25.5 11t10.5 27zM457 681q0 15 -10.5 25.5t-25.5 10.5 t-25.5 -10.5t-10.5 -25.5q0 -16 10.5 -27t25.5 -11t25.5 11t10.5 27zM491 681q0 -30 -20.5 -50.5t-49.5 -20.5q-32 0 -54 24q-19 -24 -51 -24q-29 0 -50 20.5t-21 50.5q0 28 21 48.5t50 20.5q31 0 51 -23q23 23 54 23q29 0 49.5 -20.5t20.5 -48.5z" />
<glyph unicode="&#x17d;" horiz-adv-x="538" d="M502 190q2 10 2 12q0 17 -14 17q-17 0 -38 -19q-17 -14 -66 -14q-6 0 -19.5 0.5t-19.5 0.5q-7 0 -12 5t-5 12q0 1 0.5 3t0.5 3l152 361q1 1 1 5q0 10 -8.5 19t-21.5 9h-336q-4 0 -11 -5q-7 -9 -10 -20l-31 -142q-2 -8 -2 -10q0 -13 11 -13q15 0 33 16q13 12 50 12h32 q7 0 12 -5t5 -11q0 -3 -2 -7l-166 -378q-5 -10 -5 -16q0 -17 29 -17h356q15 0 30.5 6.5t18.5 18.5zM752 -136q14 -5 14 -10q0 -9 -41 -9h-335q-50 0 -76 12l-92 35q-14 6 -14 10q0 6 28 6q18 -1 41 -4t32 -3h31l-261 74h-16q-29 0 -46 13.5t-17 36.5q0 16 7 31l158 353 q-18 0 -28 -3q-8 -2 -24.5 -12.5t-30.5 -12.5q-3 -1 -8 -1q-20 0 -31 13.5t-11 34.5q0 11 1 16l33 143q5 22 18 35q13 15 34 15h336q29 0 46 -21t17 -44q0 -8 -3 -13l-142 -339h22q25 0 35 5q6 3 16.5 9t16 8.5t13.5 5t15 2.5q21 0 34 -12t13 -35q0 -9 -3 -20l-35 -157 q-3 -12 -12 -25q10 -1 23 -5l102 -39q16 -7 16 -11q0 -6 -30 -6q-17 0 -73 6q-5 0 -23.5 0.5t-36.5 0.5zM88 772h170l28 -21l28 21h170l-167 -144h-63zM169 739l117 -92l117 92h-79l-38 -29l-39 29h-78z" />
<glyph unicode="&#x17e;" horiz-adv-x="538" d="M502 190q2 10 2 12q0 17 -14 17q-17 0 -38 -19q-17 -14 -66 -14q-6 0 -19.5 0.5t-19.5 0.5q-7 0 -12 5t-5 12q0 1 0.5 3t0.5 3l152 361q1 1 1 5q0 10 -8.5 19t-21.5 9h-336q-4 0 -11 -5q-7 -9 -10 -20l-31 -142q-2 -8 -2 -10q0 -13 11 -13q15 0 33 16q13 12 50 12h32 q7 0 12 -5t5 -11q0 -3 -2 -7l-166 -378q-5 -10 -5 -16q0 -17 29 -17h356q15 0 30.5 6.5t18.5 18.5zM752 -136q14 -5 14 -10q0 -9 -41 -9h-335q-50 0 -76 12l-92 35q-14 6 -14 10q0 6 28 6q18 -1 41 -4t32 -3h31l-261 74h-16q-29 0 -46 13.5t-17 36.5q0 16 7 31l158 353 q-18 0 -28 -3q-8 -2 -24.5 -12.5t-30.5 -12.5q-3 -1 -8 -1q-20 0 -31 13.5t-11 34.5q0 11 1 16l33 143q5 22 18 35q13 15 34 15h336q29 0 46 -21t17 -44q0 -8 -3 -13l-142 -339h22q25 0 35 5q6 3 16.5 9t16 8.5t13.5 5t15 2.5q21 0 34 -12t13 -35q0 -9 -3 -20l-35 -157 q-3 -12 -12 -25q10 -1 23 -5l102 -39q16 -7 16 -11q0 -6 -30 -6q-17 0 -73 6q-5 0 -23.5 0.5t-36.5 0.5zM80 774h170l28 -21l28 21h170l-167 -144h-63zM161 741l117 -92l117 92h-79l-38 -29l-39 29h-78z" />
<glyph unicode="&#x192;" horiz-adv-x="794" d="M432 374h17v-13q4 1 14 1q23 0 41 -9.5t21 -27.5q21 8 48 8q32 0 54 -15.5t22 -44.5q0 -14 -8 -27q-4 -4 -8 -4q-10 0 -10 9l2 6q6 7 6 16q0 18 -14 29.5t-35 11.5q-41 0 -68 -19.5t-27 -39.5q0 -28 38 -28q10 0 28 4q1 1 3 1q10 0 10 -10q-5 -32 -31 -52 q-27 -21 -63 -21q-48 0 -75 32q-27 -32 -75 -32q-36 0 -63 21q-26 20 -31 52q0 10 9 10q3 0 3 -1q20 -4 29 -4q40 0 40 28q0 19 -28.5 39t-69.5 20q-21 0 -34.5 -11.5t-13.5 -29.5q0 -9 6 -16l2 -6q0 -9 -10 -9q-4 0 -8 4q-8 13 -8 27q0 29 22 44.5t54 15.5q27 0 48 -8 q3 18 21.5 27.5t38.5 9.5q11 0 16 -1v16q0 26 4 41q5 16 11 16t11 -16q2 -8 4 -23l-17 -21h18q0 -13 -3 -25q17 -11 17 -28q0 -25 -28 -37t-28 -23q0 -16 20 -23.5t43 -7.5q22 0 42 7.5t20 23.5q0 12 -27 23q-28 12 -28 37q0 17 17 28q-3 12 -3 28q0 23 5 41q5 16 11 16 t11 -16l4 -24zM465 351q-22 0 -36 -11q-13 -8 -13 -19q0 -13 13 -21q15 -10 36 -10q20 0 35 10q13 8 13 21q0 11 -13 19q-14 11 -35 11zM329 351q-21 0 -35 -11q-13 -8 -13 -19q0 -13 13 -21q15 -10 35 -10q21 0 36 10q13 8 13 21q0 11 -13 19q-14 11 -36 11zM460 231 q-22 -19 -63 -19t-63 19q-28 -22 -65 -22q-13 0 -19 1q9 -20 29 -31.5t43 -11.5q46 0 67 35q3 4 8 4q7 0 8 -4q20 -35 67 -35q23 0 43 11.5t28 31.5q-5 -1 -18 -1q-37 0 -65 22zM326 488q-112 -24 -112 -100q0 -4 1 -13t1 -15q0 -9 -10 -9q-7 0 -8 8q-3 15 -3 29 q0 64 46 112q-39 22 -48 65q0 9 9 9q8 0 9 -8q6 -28 32 -45t56 -17q28 0 52.5 15t33.5 41q1 6 8 6t9 -6q9 -26 33.5 -41t52.5 -15q30 0 56 17t32 45q1 8 9 8q9 0 9 -12q-9 -37 -44 -59q48 -50 48 -115q0 -9 -2 -29q-3 -8 -9 -8q-10 0 -10 11q3 14 3 26q0 80 -98 98 q-65 12 -89 49q-21 -35 -67 -47zM677 81q-49 -51 -120 -51q-37 -20 -79 -20h-10q-35 -16 -71 -16t-71 16h-10q-42 0 -79 20q-71 0 -120 51q-81 58 -81 134q0 57 50 107q-23 46 -23 91q0 102 99 175q98 71 235 71t235 -71q99 -73 99 -175q0 -45 -23 -91q50 -50 50 -107 q0 -76 -81 -134zM588 52q45 9 75.5 42t30.5 79q0 39 -24 69q-2 4 -2 6q0 9 9 9q5 0 8 -4q27 -37 27 -80q0 -21 -6 -41q34 39 34 83q0 52 -50 98q-3 3 -3 7l1 2v2q25 42 25 89q0 93 -92 160q-94 68 -224 68q-132 0 -224 -68q-92 -67 -92 -160q0 -20 12.5 -55.5t12.5 -36.5 q0 -6 -2 -8q-50 -46 -50 -98q0 -44 34 -83q-6 20 -6 41q0 43 27 80q3 4 8 4q9 0 9 -9q0 -2 -2 -6q-24 -32 -24 -69q0 -46 30.5 -79t75.5 -42q-45 42 -45 100q0 47 31 84q3 4 7 4q9 0 9 -9q0 -2 -2 -6q-27 -33 -27 -73q0 -48 34 -81.5t82 -40.5q-53 41 -53 106q0 10 9 10 t9 -10q0 -53 41.5 -88.5t95.5 -35.5t95.5 35.5t41.5 88.5q0 10 9 10t9 -10q0 -65 -53 -106q48 7 82 40.5t34 81.5q0 40 -27 73q-2 4 -2 6q0 9 9 9q4 0 7 -4q31 -37 31 -84q0 -58 -45 -100z" />
<glyph unicode="&#x2c6;" horiz-adv-x="396" d="M315 638l-117 95l-117 -95h79l38 29l39 -29h78zM396 605h-170l-28 21l-28 -21h-170l198 175z" />
<glyph unicode="&#x2c7;" horiz-adv-x="396" d="M0 779h170l28 -21l28 21h170l-167 -144h-63zM81 746l117 -92l117 92h-79l-38 -29l-39 29h-78z" />
<glyph unicode="&#x2da;" horiz-adv-x="222" d="M144 717q0 -13 -9.5 -22.5t-23.5 -9.5q-13 0 -22 9.5t-9 22.5t9 22.5t22 9.5t23 -9.5t10 -22.5zM189 717q0 32 -22.5 55t-55.5 23q-32 0 -55 -23t-23 -55t23 -55t55 -23q33 0 55.5 23t22.5 55zM222 717q0 -46 -32.5 -78.5t-78.5 -32.5q-45 0 -78 32.5t-33 78.5t33 78.5 t78 32.5q46 0 78.5 -32.5t32.5 -78.5z" />
<glyph unicode="&#x2dc;" horiz-adv-x="367" d="M324 719q-40 -20 -66 -20q-25 0 -65.5 23.5t-73.5 23.5q-31 0 -68 -18l-8 -50q40 20 68 20q22 0 66.5 -23t73.5 -23q30 0 64 17zM367 778l-20 -132q-62 -28 -96 -28q-27 0 -73.5 22.5t-69.5 22.5q-13 0 -27 -4.5t-23.5 -9t-28.5 -15t-29 -15.5l20 132q61 27 98 27 q16 0 39 -5q13 -3 49 -20.5t55 -17.5q16 0 32 5.5t41.5 20t32.5 17.5z" />
<glyph unicode="&#x2013;" horiz-adv-x="434" d="M400 222v64h-366v-64h366zM434 184h-434v139h434v-139z" />
<glyph unicode="&#x2014;" horiz-adv-x="750" d="M716 222v64h-682v-64h682zM750 184h-750v139h750v-139z" />
<glyph unicode="&#x2018;" horiz-adv-x="181" d="M141 703l-32 6l-57 -120l60 -16zM181 730l-38 -201l-143 40l94 174z" />
<glyph unicode="&#x2019;" horiz-adv-x="182" d="M130 698l-61 17l-30 -131l33 -6zM182 718l-94 -175l-88 14l38 201z" />
<glyph unicode="&#x201a;" horiz-adv-x="306" d="M220 -83q52 75 52 144q0 44 -28 71t-89 27q-54 0 -88 -27t-34 -61q0 -26 23 -46.5t67 -26.5q21 -3 21 -18q0 -16 -24.5 -50t-24.5 -38q0 -2 3 -4h89q13 0 33 29zM409 -190q0 -18 -113 -18q-68 0 -137.5 8t-69.5 27q0 13 74 16l-13 2q-14 2 -19.5 3t-18.5 3.5t-19.5 5 t-15 6.5t-12 9.5t-3.5 11.5q0 15 9 32.5t14 24t22 26.5q-107 22 -107 110q0 53 47 83.5t109 30.5q88 0 127 -54q23 -32 23 -75q0 -50 -24.5 -105.5t-62.5 -88.5q41 -3 115.5 -23.5t74.5 -34.5z" />
<glyph unicode="&#x201c;" horiz-adv-x="339" d="M141 694l-31 5l-59 -120l61 -16zM300 694l-32 5l-59 -120l62 -16zM181 720l-38 -200l-143 40l94 174zM339 720l-38 -200l-143 40l93 174z" />
<glyph unicode="&#x201d;" horiz-adv-x="339" d="M130 698l-61 17l-30 -131l33 -6zM288 698l-62 17l-28 -131l31 -6zM182 718l-94 -175l-88 14l38 201zM339 718l-93 -175l-87 14l37 201z" />
<glyph unicode="&#x201e;" horiz-adv-x="621" d="M219 -83q52 76 52 145q0 97 -116 97q-54 0 -88 -27t-34 -61q0 -26 23 -46.5t67 -26.5q21 -3 21 -18q0 -16 -24.5 -50t-24.5 -38q0 -2 3 -4h89q13 0 32 29zM535 -83q52 75 52 144q0 45 -28 71.5t-88 26.5q-54 0 -88 -27t-34 -61q0 -26 23 -46.5t68 -26.5q20 -3 20 -18 t-25 -49.5t-25 -38.5q0 -2 3 -4h90q13 0 32 29zM409 -190q0 -18 -113 -18q-68 0 -137.5 8t-69.5 27q0 13 74 16l-19 3q-20 2 -29 4t-24.5 7.5t-22.5 14.5t-7 22q0 14 6.5 26t21 27t18.5 20q-107 22 -107 110q0 53 47 83.5t109 30.5q88 0 127 -54q23 -32 23 -75 q0 -50 -24.5 -105.5t-62.5 -88.5q32 -4 57 -9q133 -29 133 -49zM724 -189q0 -19 -114 -19q-68 0 -136.5 8t-68.5 27q0 13 73 16q-3 0 -17 2t-22 3t-21.5 5t-21 8.5t-13.5 13.5t-6 20q0 14 6 25t22 27.5t18 19.5q-108 22 -108 110q0 53 47 83.5t109 30.5q88 0 127 -54 q23 -30 23 -76q0 -51 -23.5 -106.5t-63.5 -86.5q28 -3 57 -9q133 -29 133 -48z" />
<glyph unicode="&#x2020;" horiz-adv-x="523" d="M368 -93l1 -6q0 -19 -7.5 -27.5t-26 -14.5t-26.5 -11q-5 -3 -14.5 -11t-18 -12.5t-16.5 -4.5q-11 0 -21 10q-11 10 -42 23.5t-37 23.5q-4 8 -4 20q0 16 10 48l9 32q23 127 36 339q-18 -3 -50 -28t-50 -25q-4 0 -12 2q-12 4 -25.5 27t-15.5 25q-7 7 -21 16t-18 12 q-19 12 -19 27q0 11 10.5 22t26.5 22.5t21 16.5q5 6 13 20t16.5 22.5t20.5 10.5h5q9 0 17 -5t17 -13t14 -11q18 -12 38 -20q-11 32 -29 60q-2 4 -9.5 13t-11.5 16.5t-4 15.5v4q2 11 10.5 19t22.5 16t19 12q14 12 34 48q7 11 22 16q4 2 11 2q17 0 39 -31.5t25 -33.5 q1 -1 23.5 -15t26.5 -28q1 -3 1 -10q0 -10 -5.5 -19t-15 -20t-12.5 -16q-15 -24 -24 -51q9 3 42.5 26.5t49.5 23.5q3 0 9 -2q12 -4 25.5 -25t15.5 -23q5 -6 21.5 -16t27 -20.5t10.5 -22.5q0 -3 -2 -11q-7 -16 -14 -20q-5 -3 -14 -8.5t-16 -10.5t-12 -11q-3 -4 -11.5 -18 t-16.5 -22.5t-18 -9.5h-6q-9 0 -17.5 4.5t-18.5 13t-15 11.5q-22 13 -48 23q5 -217 54 -410zM333 -102q-49 196 -56 439q0 20 18 20h4q48 -11 82 -33q5 -3 14.5 -12t16.5 -12q23 45 74 75q-4 4 -13.5 9t-13.5 8q-30 24 -47 57q-6 -2 -16.5 -11.5t-13.5 -11.5 q-33 -23 -80 -34h-4q-18 0 -18 20q11 49 29 83q3 5 17 21.5t17 24.5q-3 3 -15 8q-26 16 -41 35q-11 13 -25 38q-29 -57 -80 -82q43 -45 61 -124q0 -1 0.5 -2.5t0.5 -2.5q0 -8 -6 -13.5t-14 -5.5q-1 0 -2.5 0.5t-2.5 0.5q-46 13 -80 36q-2 1 -27 20q-3 -2 -9 -13.5t-7 -12.5 q-12 -16 -30 -31q-15 -12 -27 -18q4 -3 13 -7.5t14 -8.5q9 -7 17 -16.5t16.5 -23t13.5 -19.5q45 40 110 56q3 1 8 1q14 0 17 -17q-10 -182 -31 -320q-7 -50 -17 -92q-1 -3 -4.5 -14.5t-3.5 -17.5q47 -14 71 -39q26 26 70 42z" />
<glyph unicode="&#x2021;" horiz-adv-x="502" d="M352 230v-12l-34 -91l22 11q5 3 16.5 12.5t21 14.5t19.5 5h4q15 -2 31.5 -26.5t17.5 -25.5q5 -5 19.5 -14t23.5 -18.5t9 -21.5q0 -3 -2 -11q-7 -16 -14 -20q-33 -22 -36 -25q-1 -1 -16.5 -23.5t-28.5 -26.5q-8 -2 -10 -2q-8 0 -16.5 5t-18 13t-13.5 11q-15 10 -36 18 q9 -25 30 -55q2 -3 10 -11.5t11 -15t3 -15.5v-4q-1 -12 -10 -21t-23.5 -17t-20.5 -13q-7 -6 -17 -21.5t-20 -25.5t-23 -10q-6 0 -9 1q-14 5 -22 17q-15 26 -32 43q-3 3 -24 15t-25 26q-1 3 -1 9q0 9 4.5 17t13.5 19t13 17q15 21 22 43q-8 -3 -37 -24t-46 -21q-4 0 -12 2 q-8 3 -14 10.5t-11.5 18.5t-9.5 15q-5 6 -12 11t-16 10.5t-14 9.5q-19 12 -19 27q0 11 10 21.5t25.5 22t19.5 15.5q6 6 14 19t16 21.5t20 10.5h5q7 0 12.5 -2.5t15 -9.5t10.5 -8q15 -12 34 -20l-13.5 31.5l-10.5 24.5t-5.5 15.5t-2.5 15.5q0 6 1 12t4.5 16.5t6.5 18t10 26 t12 32.5q-6 -2 -32.5 -22t-41.5 -20h-5q-10 2 -16 6.5t-14.5 18t-9.5 15.5q-11 15 -41 33q-24 16 -24 31q0 11 11 22.5t28 23.5t22 18q5 5 12 18t14 19.5t18 8.5h5q7 0 13 -3t14 -9.5t11 -8.5q23 -16 42 -24q-8 21 -21 42q-4 6 -13 16.5t-13.5 19.5t-4.5 18q0 7 3 14 q4 11 24 22t23 14q17 16 32 43q8 13 23 17q3 1 8 1q14 0 25 -11t22 -27.5t18 -22.5q5 -5 18.5 -12t21.5 -15t9 -20v-4q0 -11 -6.5 -21.5t-17 -23t-14.5 -18.5q-10 -15 -16 -34q26 12 38 20q5 3 14 11t16.5 12t15.5 4q1 0 3 -0.5t3 -0.5q11 -1 19.5 -10t16.5 -22.5t13 -18.5 t19.5 -14t23.5 -18.5t9 -21.5q0 -3 -2 -11q-7 -16 -14 -20q-34 -22 -41 -31q-3 -4 -10.5 -15.5t-14 -18.5t-15.5 -10q-6 -2 -9 -2q-15 0 -43.5 20.5t-34.5 22.5q12 -31 34 -93zM210 81q-41 12 -66 29q-15 9 -34 24q-5 -3 -10 -13.5t-7 -12.5q-9 -13 -29 -29q-15 -12 -25 -17 q2 -1 21.5 -14t27.5 -23q5 -6 12 -17.5t10 -15.5q40 36 100 52q2 1 7 1q17 0 17 -18v-5q-17 -73 -59 -116q4 -4 14 -9t14 -8q10 -7 17.5 -16t17.5 -23.5t14 -19.5q4 5 14 19.5t18 23.5t18 16q1 1 4.5 3t7.5 4.5t7.5 4.5t5.5 3l2 2q-1 5 -7.5 13.5t-15 18t-9.5 11.5 q-18 30 -29 77q0 20 18 20h4q42 -7 105 -53q17 31 44 52q18 11 26 17q-3 1 -10 8q-21 14 -30 23q-8 8 -30 41q-52 -38 -102 -53h-4q-17 0 -17 17q0 6 1 9q15 39 43 117q-28 80 -43 119q-1 3 -1 9q0 17 21 17q50 -13 102 -52q24 44 70 70q-7 7 -25.5 20.5t-26.5 23.5 q-1 0 -19 26q-53 -40 -104 -54h-4q-18 0 -18 20q13 53 43 99q2 2 9 9.5t9 12.5q-7 8 -27 19.5t-32 27.5l-19 28q-3 -4 -13 -17.5t-13.5 -18t-12 -13.5t-17 -15t-19.5 -11q7 -9 23 -33q22 -35 35 -84q0 -1 0.5 -2.5t0.5 -2.5q0 -8 -6 -13.5t-14 -5.5q-1 0 -2.5 0.5t-2.5 0.5 q-42 12 -66 29q-4 2 -18.5 12t-16.5 12q-5 -3 -16.5 -22t-20.5 -26q-13 -13 -33 -23q6 -5 18 -13t21 -15t15 -16q2 -3 6.5 -13t9.5 -14l35 25q27 18 63 27q2 1 7 1q17 0 17 -18v-5l-45 -120l45 -120q0 -1 0.5 -2.5t0.5 -2.5q0 -19 -22 -19z" />
<glyph unicode="&#x2022;" horiz-adv-x="222" d="M189 252q0 32 -22.5 54.5t-55.5 22.5q-32 0 -55 -23t-23 -54q0 -33 23 -56t55 -23q33 0 55.5 23t22.5 56zM222 252q0 -47 -32.5 -79.5t-78.5 -32.5q-45 0 -78 33t-33 79q0 45 33 78t78 33q46 0 78.5 -33t32.5 -78z" />
<glyph unicode="&#x2026;" horiz-adv-x="1093" d="M327 73q0 37 -40.5 58t-81.5 21t-81 -21t-40 -58t36 -57.5t85 -20.5q50 0 86 20.5t36 57.5zM662 73q0 37 -40.5 58t-81.5 21q-40 0 -80.5 -21t-40.5 -58t36 -57.5t86 -20.5q49 0 85 20.5t36 57.5zM998 73q0 37 -40.5 58t-82.5 21q-40 0 -80.5 -21t-40.5 -58t36 -57.5 t86 -20.5t86 20.5t36 57.5zM422 -55q6 -3 6 -7q0 -18 -118 -18q-63 0 -134 7.5t-71 25.5q0 10 48 15q-46 10 -74.5 37t-28.5 68q0 52 49.5 82.5t105.5 30.5q55 0 105 -30.5t50 -82.5q0 -39 -26 -65t-69 -38q124 -6 157 -25zM757 -55q7 -3 7 -7q0 -18 -119 -18 q-62 0 -133.5 7.5t-71.5 25.5q0 10 49 15q-46 10 -74.5 37t-28.5 68q0 52 49.5 82.5t104.5 30.5q56 0 106 -30.5t50 -82.5q0 -39 -26 -65t-69 -38q123 -6 156 -25zM1093 -55q6 -3 6 -7q0 -18 -119 -18q-60 0 -132 8t-72 25q0 10 48 15q-46 10 -74.5 37t-28.5 68 q0 52 49.5 82.5t104.5 30.5q56 0 106 -30.5t50 -82.5q0 -39 -26 -65t-69 -38q124 -6 157 -25z" />
<glyph unicode="&#x2039;" horiz-adv-x="245" d="M168 305l77 -140v-143l-245 216v135l245 201v-140zM213 157l-81 148l81 137v65l-181 -149v-106l181 -159v64zM195 -30l46 31l-31 31l-197 -47l30 -30l288 -44l-31 31z" />
<glyph unicode="&#x203a;" horiz-adv-x="245" d="M108 -14l-108 31v148l76 140l-76 129v140l245 -201v-135l-225 -198l242 -39l30 -30l-201 -44l-30 31zM113 305l-81 -148v-64l181 159v106l-181 149v-65z" />
<glyph unicode="&#x20ac;" horiz-adv-x="698" d="M600 -66q-8 0 -19.5 3.5t-12.5 8.5q-34 2 -50 2q-79 0 -105 -14h187zM680 -117q-18 5 -18 9q0 2 3 3h-183q72 -14 152 -14q18 0 46 2zM489 215h-186q49 -58 130 -58q23 0 45 6q-4 8 -4 19q0 28 15 33zM661 365h-389q-17 0 -17 11q0 4 2 7q26 48 73 74t102 26q43 0 83 -17 q10 -5 10 -15q0 -5 -5 -12q-13 -11 -13 -18q0 -5 4 -9.5t10 -4.5q3 0 9 4l130 129q4 6 4 9q0 14 -15 14q-5 0 -9 -3q-7 -9 -16 -9q-4 0 -8 3q-84 56 -188 56q-108 0 -195.5 -62.5t-113.5 -169.5q-1 -5 -6 -9t-10 -4h-20l-31 -28h43q6 0 11 -5t5 -12v-40q0 -10 -16 -10h-23 l-31 -27h62q14 0 16 -7q26 -109 115.5 -173.5t199.5 -64.5q100 0 179 54q6 2 8 2q3 0 19 -11q8 -3 13 -3q13 0 13 10q0 6 -6 13l-130 128q-4 4 -10 4q-13 0 -13 -13q0 -5 4 -9q10 -11 10 -19q0 -16 -48 -27q-19 -4 -41 -4q-54 0 -102 27t-73 74q-2 3 -2 7q0 12 17 12h362 l16 27h-395q-19 0 -19 33q0 34 19 34h392zM484 392q-10 18 -10 30q0 10 6 21q-26 8 -49 8q-80 0 -128 -59h181zM911 -133q30 -5 30 -9q0 -8 -57 -8q-3 0 -4 1q-65 -13 -169 -13q-117 0 -240.5 15.5t-201.5 41.5h-13q-12 0 -14 1l-67 10q-11 2 -11 4q0 3 11 3h50l-5 3h-26 l-68 12q-10 2 -10 4t11 2h73q-2 6 -2 8q0 30 116 43q-81 26 -141 86t-83 144h-74q-7 0 -11.5 5.5t-4.5 11.5q0 7 5 12l49 49q4 4 12 4h12v13h-50q-7 0 -11.5 5.5t-4.5 11.5q0 7 4 11l49 50q4 4 12 4h13q32 116 129 183.5t214 67.5q103 0 191 -54q14 9 26 9q19 0 33 -14.5 t14 -34.5q0 -18 -14 -32l-125 -125h127q7 0 11.5 -5t4.5 -12q0 -6 -5 -11l-31 -49q-5 -5 -12 -5h-383v-13h404q7 0 11.5 -5t4.5 -12q0 -6 -5 -11l-31 -49q-5 -5 -12 -5h-88l129 -129q14 -14 14 -33t-14 -33t-33 -14q-16 0 -30 11q-23 -15 -61 -29q28 -2 94 -8q12 2 24 2 q23 0 46.5 -4.5t23.5 -9.5q0 -3 -5 -4l-78 -30h89q1 0 6.5 -0.5t7.5 -0.5l50 -11q10 -1 10 -4q0 -2 -11 -2h-403q0 -1 4 -3h383q12 0 14 -1l51 -11q10 -3 10 -4q0 -2 -11 -2h-127z" />
<glyph unicode="&#x2122;" horiz-adv-x="572" d="M569 608q0 -17 -14 -24v-168q14 -6 14 -24q0 -10 -9 -20t-23 -10h-72q-14 0 -23 10t-9 20q0 18 14 24v25l-15 -34q-12 -26 -32 -26q-21 0 -33 26l-15 33v-25q14 -7 14 -23q0 -10 -9 -20t-23 -10h-72q-14 0 -23 10t-9 20q0 18 14 24v168q-14 7 -14 24q0 12 8.5 21t23.5 9 h83q25 0 38 -26l16 -45l17 46q9 25 37 25h84q15 0 23.5 -9t8.5 -21zM226 608l14 -51q3 -6 3 -14q0 -27 -27 -27q-17 0 -27 15h-5v-116q16 -8 16 -24q0 -11 -9.5 -20t-24.5 -9h-87q-15 0 -24.5 9t-9.5 20q0 16 16 24v116h-6q-10 -15 -26 -15q-27 0 -27 27q0 8 3 14l14 52 q5 19 11 24.5t17 5.5q1 0 3 -0.5t4 -0.5h130q2 0 4.5 0.5t3.5 0.5h6q11 0 17.5 -6t10.5 -25zM222 548l-15 56q-3 15 -9 15q-2 0 -6.5 -0.5t-7.5 -0.5h-122q-2 0 -7 0.5t-8 0.5q-4 0 -9 -15l-15 -56q-1 -2 -1 -5q0 -7 7 -7q11 0 11 9q0 6 6 6h28q7 0 7 -6v-139q0 -7 -6 -7 q-10 0 -10 -8q0 -9 14 -9h87q14 0 14 9q0 8 -10 8q-6 0 -6 7v139q0 6 7 6h28q5 0 7 -6q0 -9 10 -9q7 0 7 7q0 3 -1 5zM541 399q-6 0 -6 7v189q0 7 6 7q8 0 8 6q0 10 -12 10h-84q-13 0 -18 -12l-29 -80q-1 -5 -7 -5q-5 0 -6 5l-29 79q-6 13 -19 13h-83q-12 0 -12 -10 q0 -6 7 -6t7 -7v-189q0 -7 -7 -7t-7 -7q0 -10 12 -10h72q12 0 12 10q0 7 -7 7t-7 7v97q0 6 7 6q3 0 6 -4l40 -90q6 -14 15 -14q8 0 14 14l40 90q1 4 6 4q7 0 7 -6v-97q0 -7 -7 -7t-7 -7q0 -10 12 -10h72q12 0 12 10q0 7 -8 7zM613 -53q-4 4 -19 5l-37 37q9 0 9 4q0 8 -39 8 h-72q-26 0 -26 -6q5 -5 20 -6l5 -5l-22 7q-18 6 -38 6q-21 0 -27 -6l-8 -7l-6 6q8 2 9 5q-6 6 -38 6h-72q-26 0 -26 -6q5 -5 20 -6l37 -37q-2 0 -4.5 -1t-3.5 -3l-1 -1q6 -6 38 -6h83q25 0 33 5l6 10l27 -10q13 -5 42 -5h84q3 0 6.5 0.5t7 1.5t6.5 1.5t5 1.5zM270 -53 q3 9 3 12q0 2 -1 3q-5 5 -32 5q-18 0 -24 -3h-5l-26 26l11 5q-6 6 -40 6h-86q-3 0 -7 -0.5t-7.5 -1.5t-7 -1.5t-4.5 -1.5l-2 -1q3 -3 21 -5l26 -26h-6q-12 3 -29 3q-22 0 -22 -5q2 -2 7 -4l25 -11q15 -7 35 -7q1 0 2.5 0.5t3.5 0.5h129q2 0 5 -0.5t4 -0.5h6q21 0 21 7z" />
<glyph unicode="&#x25fc;" horiz-adv-x="635" d="M0 635h635v-635h-635v635z" />
</font>
</defs>
</svg>
